<svg width="515" height="273" viewBox="0 0 515 273" fill="none" xmlns="http://www.w3.org/2000/svg">
<path d="M514.258 272.549H0C0 272.549 182.768 103.543 190.343 96.8875C197.876 90.2318 198.549 94.0652 201.748 96.8875C204.946 99.7099 212.016 110.241 215.593 108.893C219.128 107.545 263.947 71.3177 266.724 72.4972C269.46 73.6767 277.329 83.5339 282.463 80.3745C287.597 77.2152 396.509 0.37915 396.509 0.37915L414.479 28.982L474.49 124.437L514.258 272.549Z" fill="#FDBA74"/>
<path d="M140.558 142.804C152.834 132.976 179.233 111.336 186.64 103.417C193.179 96.4241 198.995 96.2514 201.861 97.2751C198.553 91.1796 194.261 92.793 192.531 94.36L140.558 142.804Z" fill="#FED7AA"/>
<path d="M377.067 101.521C385.147 103.543 392.776 42.264 395.583 11.3738L418.308 32.4363V165.551H261.758C270.175 165.551 294.162 122.163 301.737 133.958C309.312 145.753 340.033 118.371 354.342 101.521C368.65 84.6713 366.967 98.9938 377.067 101.521Z" fill="#FB923C"/>
<path d="M330.687 66.1362L328.671 74.7297H333.452L330.687 66.1362Z" fill="#FB7200"/>
<path d="M331.322 72.8257H330.611V76.638H331.322V72.8257Z" fill="#FB7200"/>
<path d="M315.65 118.123L313.1 128.991H319.143L315.65 118.123Z" fill="#FB7200"/>
<path d="M316.45 126.581H315.553V131.401H316.45V126.581Z" fill="#FB7200"/>
<path d="M318.651 78.3525L316.467 87.6622H321.643L318.651 78.3525Z" fill="#FB7200"/>
<path d="M319.337 85.598H318.567V89.7263H319.337V85.598Z" fill="#FB7200"/>
<path d="M322.729 113.316L319.833 125.655H326.693L322.729 113.316V113.316Z" fill="#FB7200"/>
<path d="M323.638 122.917H322.619V128.389H323.638V122.917Z" fill="#FB7200"/>
<path d="M260.332 97.73L257.971 107.798H263.568L260.332 97.73Z" fill="#FB7200"/>
<path d="M261.077 105.565H260.248V110.031H261.077V105.565Z" fill="#FB7200"/>
<path d="M187.948 129.324L185.587 139.392H191.184L187.948 129.324V129.324Z" fill="#FB7200"/>
<path d="M188.693 137.159H187.864V141.624H188.693V137.159Z" fill="#FB7200"/>
<path d="M325.54 70.77L323.2 80.7452H328.747L325.54 70.77V70.77Z" fill="white"/>
<path d="M326.386 80.7452H325.561V85.1684H326.386V80.7452Z" fill="white"/>
<path d="M329.079 106.576L326.739 116.551H332.286L329.079 106.576V106.576Z" fill="white"/>
<path d="M329.925 116.551H329.1V120.975H329.925V116.551Z" fill="white"/>
<path d="M396.636 0L332.038 45.495C341.717 49.7075 350.975 34.9637 357.498 37.9125C361.332 39.648 357.498 52.1297 362.548 55.1837C370.965 60.2724 374.188 48.9619 385.273 51.6031C394.111 53.7094 388.85 64.2406 400.423 61.9237C409.681 60.0702 427.428 62.6946 435.142 64.2406L396.636 0Z" fill="#FB923C"/>
<path d="M263.442 107.419L264.17 102.713L265.361 106.757L266.699 101.1L267.599 106.441L268.997 102.237L269.754 107.419H263.442Z" fill="white"/>
<path d="M191.058 139.012L191.786 134.307L192.977 138.351L194.316 132.694L195.216 138.035L196.613 133.831L197.371 139.012H191.058Z" fill="white"/>
<path d="M255.025 113.737L255.753 109.032L256.944 113.076L258.282 107.419L259.183 112.76L260.58 108.556L261.337 113.737H255.025Z" fill="white"/>
<path d="M182.642 145.331L183.37 140.626L184.561 144.67L185.899 139.012L186.799 144.354L188.197 140.15L188.954 145.331H182.642Z" fill="white"/>
</svg>
