<?xml version="1.0" encoding="UTF-8"?><svg id="Layer_2" xmlns="http://www.w3.org/2000/svg" xmlns:xlink="http://www.w3.org/1999/xlink" viewBox="0 0 1440 800"><defs><style>.cls-1{fill:none;}.cls-2{clip-path:url(#clippath);}.cls-3{fill:#eaf7ff;}.cls-4{fill:#fff;}.cls-5{fill:#b6e5ff;}.cls-6{fill:#d0eeff;}.cls-7{fill:#258ac2;}</style><clipPath id="clippath"><rect class="cls-1" width="1440" height="800"/></clipPath></defs><g id="Layer_1-2"><g class="cls-2"><g><path class="cls-6" d="M1168,799.4l-1232,28,15-321s101.2-106.7,180.3-187.1c48.1-48.9,88.1-88.2,92.2-87.8,6.4,.5,68.5,46.9,120.7,85.7,35.2,26.2,65.9,48.9,72,51.8,15,7.2,14.1-2.7,23.1-13.5s31.5-48.5,39.6-43.1c8,5.3,689.1,487,689.1,487Z"/><path class="cls-7" d="M351.42,377.93l-4.8,20.44h11.37l-6.58-20.44Z"/><path class="cls-7" d="M352.93,393.84h-1.69v9.06h1.69v-9.06Z"/><path class="cls-4" d="M479.42,499.93l-4.8,20.44h11.37l-6.58-20.44Z"/><path class="cls-4" d="M480.93,515.84h-1.69v9.06h1.69v-9.06Z"/><path class="cls-7" d="M331.88,364.16l-5.45,23.2h12.91l-7.47-23.2Z"/><path class="cls-7" d="M333.6,382.22h-1.92v10.29h1.92v-10.29Z"/><path class="cls-7" d="M237.45,388.4l-5.45,23.2h12.91l-7.46-23.2Z"/><path class="cls-7" d="M239.16,406.46h-1.92v10.29h1.92v-10.29Z"/><path class="cls-4" d="M318.45,354.4l-5.45,23.2h12.91l-7.46-23.2Z"/><path class="cls-4" d="M320.16,372.46h-1.92v10.29h1.92v-10.29Z"/><path class="cls-7" d="M459.88,486.16l-5.45,23.2h12.91l-7.47-23.2Z"/><path class="cls-7" d="M461.6,504.22h-1.92v10.29h1.92v-10.29Z"/><path class="cls-3" d="M512,448.9l-72.5-58.5,69.5,49.5,3-13.5,129.5,108.5h-20l-105-95-4.5,9Z"/><path class="cls-7" d="M337,486.41l1.45-10.4,2.39,8.9,2.67-12.52,1.85,11.84,2.8-9.31,1.54,11.43h-12.7v.05Z"/><path class="cls-4" d="M362,465.4l1.27-9.68,2.08,8.32,2.33-11.64,1.57,10.99,2.43-8.65,1.32,10.66h-11Z"/><path class="cls-4" d="M350,472.62l1.38-10.43,2.27,8.96,2.54-12.54,1.71,11.83,2.65-9.31,1.44,11.48h-12Z"/><path class="cls-5" d="M151.5,488.78l-18.21-21.46h12.03l-14.96-17.56h8.45l-10.57-12.36-10.57,12.36h8.45l-14.96,17.56h12.03l-18.21,21.46h20.49v17.88h3.9v-17.88h22.11Z"/><path class="cls-5" d="M203,402.4c-12,5.6,7-112.83,19-172.5L-1,456.4l-41,365c217.67,7.33,636.4,20.4,570,14-83-8-166-177-211-226s-14-69-60-78-25-6-33-60-6-76-21-69Z"/><path class="cls-5" d="M361.6,330.1c-3.1,.1-6.8-.3-11.4-1.3,0,0-35-18.6-39.1-7.3-4.1,11.3,11.8,32.8-24.3,21.5-36.1-11.3-20.7,3.4-26.4,13-5.6,9.6-41.6-50.1-65.6-47.9-24,2.2-44.5,33.4-75.8,24.5,54.9-55.8,100.4-100.6,105-100.2,7.4,.6,78.1,53.5,137.6,97.7Z"/><path class="cls-3" d="M768.5,540.4c-4.4,2-122.83-100.5-181.5-152l192,135c-2.83,5.17-6.1,15-10.5,17Z"/></g></g></g></svg>