<?xml version="1.0" encoding="UTF-8"?><svg id="Layer_2" xmlns="http://www.w3.org/2000/svg" xmlns:xlink="http://www.w3.org/1999/xlink" viewBox="0 0 1440 800"><defs><style>.cls-1{fill:none;}.cls-2{clip-path:url(#clippath);}.cls-3{fill:#1e293b;}.cls-4{fill:#0f172a;}</style><clipPath id="clippath"><rect class="cls-1" width="1440" height="800"/></clipPath></defs><g id="Layer_1-2"><g class="cls-2"><g><path class="cls-3" d="M849,814.07s165-110,189-144,95-49,119-60,103-119,166-140,247-144,266-200c19-56,15,672,15,672l-755-128Z"/><path class="cls-4" d="M1035.5,793.77s116.4-132.5,178.5-143.6c62-11.1,85.5-104.8,168.3-125.5,82.8-20.7,106.7-59.7,106.7-59.7,0,0-54.5,94.1-113.7,105.6-59.2,11.5-48.2,80.7-101.8,90.6s-28.5,167.9-28.5,167.9l-209.5-35.3Z"/><path class="cls-4" d="M1358.9,661.17l96.1,22.1c.1,0-46.1,29-96.1-22.1Z"/></g></g></g></svg>