<?xml version="1.0" encoding="UTF-8"?><svg id="Layer_2" xmlns="http://www.w3.org/2000/svg" xmlns:xlink="http://www.w3.org/1999/xlink" viewBox="0 0 1440 800"><defs><style>.cls-1{fill:none;}.cls-2{clip-path:url(#clippath);}.cls-3{fill:#fb923c;}.cls-4{fill:#1e293b;}.cls-5{fill:#0f172a;}</style><clipPath id="clippath"><rect class="cls-1" width="1440" height="800"/></clipPath></defs><g id="Layer_1-2"><g class="cls-2"><g><path class="cls-4" d="M806,855.6s-155.5-89.9-150.9-99.1c4.6-9.3-39.8-10.2-49.1-26.9-9.3-16.7-41.7-42.6-56.5-46.3-14.8-3.7-227.7-56.5-255.5-123.2-27.8-66.7-24.1-28.7-82.9-71.8C152.4,445.2-4,296-4,296L1.6,901l804.4-45.4Z"/><path class="cls-5" d="M392.1,700.1s-107-55.4-114.1-88.9-149.6-107.6-149.6-107.6c0,0,119.2,104.3,122.1,144.8,2.8,40.4,115.5,49.9,141.6,51.7Z"/><path class="cls-5" d="M543.1,741.8l-188.9,73s246.8-12.4,225.9-36c-13.9-15.8-37-37-37-37Z"/><path class="cls-4" d="M429.7,826l-52.8-397.5s1.9-8.3,12.1-3.5l55.5,395.4-14.8,5.6Z"/><path class="cls-3" d="M393.2,505.4l94.8-38.9,30.5,11.1-19.4,30.6-99.1,41.7-6.8-44.5Z"/><path class="cls-4" d="M399.7,550.6l-7-45.5,.4-.2,95-39,31.3,11.4-19.9,31.2-.1,.1-99.7,42Zm-5.9-44.9l6.7,43.4,98.3-41.4,19-29.9-29.8-10.8-94.2,38.7Z"/><path class="cls-3" d="M387.1,452.6l-87.9-26.9-30.9,13.4,21.7,24.6,103.3,32.4-6.2-43.5Z"/><path class="cls-4" d="M393.8,496.9l-104.2-32.7-22.2-25.2,31.7-13.8,.2,.1,88.2,27,6.3,44.6Zm-103.6-33.6l102.4,32.2-5.9-42.5-87.5-26.7-30.1,13.1,21.1,23.9Z"/></g></g></g></svg>