<?xml version="1.0" encoding="UTF-8"?><svg id="Layer_2" xmlns="http://www.w3.org/2000/svg" xmlns:xlink="http://www.w3.org/1999/xlink" viewBox="0 0 1440 800"><defs><style>.cls-1{fill:none;}.cls-2{clip-path:url(#clippath);}.cls-3{fill:#b6e5ff;}</style><clipPath id="clippath"><rect class="cls-1" width="1440" height="800"/></clipPath></defs><g id="Layer_1-2"><g class="cls-2"><path class="cls-3" d="M700.75,861.6s17.5,27.5,54.3,11.8c36.8-15.7,99-49,17-48s-131.1-58.6-63.5-74c67.6-15.4,25.6-43.7,0-76.5-25.6-32.8-113.1-44.6-68-62s-92.4-57.6-117.5-58.5c-25.1-.9-65.3-36-90.9-39.7-26.3-3.8-48.2-42,0-59.4,18.8-6.8,23.2-20.2-58.4-36.9-95.3-19.5-97.3-90.2-97.3-90.2l-22.5,6.1s43.6,66.3,95.3,86.1c109.6,42-19.3,54.2-6.6,95.2,12.7,41.1,55.3-5.8,69.4,23.3,61.2,7.9,20.2,27.4,69.6,27.4,57.2-6,135.9,28.3,109.2,36.5-26.6,8.2-77.1,17.9-20.2,42.5,56.9,24.6,86.6,73.8,56,80-30.6,6.2-326.6,5.5-252.8,40.4,73.8,34.9,204.6,4.1,217.1,33.8s-55.3,37.9-44,47.1c11.3,9.2,116.9,26.6,116.9,26.6l36.9-11.6Z"/></g></g></svg>