<?xml version="1.0" encoding="UTF-8"?><svg id="Layer_2" xmlns="http://www.w3.org/2000/svg" xmlns:xlink="http://www.w3.org/1999/xlink" viewBox="0 0 1440 800"><defs><style>.cls-1{fill:none;}.cls-2{clip-path:url(#clippath);}.cls-3{fill:#fb7200;}.cls-4{fill:#fb923c;}.cls-5{fill:#fff;}.cls-6{fill:#fed7aa;}.cls-7{fill:#d0eeff;}.cls-8{fill:#1e293b;}.cls-9{fill:#0f172a;}</style><clipPath id="clippath"><rect class="cls-1" width="1440" height="800"/></clipPath></defs><g id="Layer_1-2"><g class="cls-2"><g><path class="cls-5" d="M916,502.01l1.73-11.17,2.83,9.6,3.18-13.43,2.14,12.68,3.32-9.98,1.8,12.3h-15Z"/><path class="cls-6" d="M847.8,490.51l-25.9-1-21.5-.8v-13c-3.7,2.8-8.8,1.4-12.1-1.9-13-13,7.7-60,7.7-60,2.5-6,5.6-9.9,16.2-9.2,15.1,1,34.2,8.6,32.5,18.4-2.4,13.6-1.1,33.4,.5,48,1.2,11.3,2.6,19.5,2.6,19.5Z"/><path class="cls-8" d="M848.6,491.81l-.9-.8-47.7-1.9v-12.6c-3.9,2.3-8.9,.6-11.9-2.4-5.5-5.5-5.9-17.4-1.2-35.3,3.5-13.3,8.7-25.1,8.7-25.2,2.8-6.7,6.3-10.2,16.7-9.5,11,.7,25.5,5.2,30.9,12.1,1.7,2.2,2.4,4.5,2,6.8-2.4,13.6-1.1,33.5,.5,47.9,1.2,11.1,2.6,19.4,2.6,19.5l.3,1.4Zm-47.6-3.6l46.3,1.8c-.3-2.1-1.5-9.5-2.5-18.9-1.6-14.4-2.9-34.4-.5-48.2,.4-2-.2-4.1-1.8-6-5.2-6.7-19.5-11-30.2-11.7-9.9-.7-13,2.5-15.7,8.9-.2,.5-20.4,46.8-7.8,59.4,3,2.9,7.8,4.5,11.4,1.8l.8-.6v13.5h0Z"/><path class="cls-6" d="M808.2,430.31s-7.8-6.1-6.2,9.7c.9,8.8,6.2,8.9,6.2,8.9"/><path class="cls-8" d="M808.2,449.41c-.2,0-5.8-.1-6.7-9.3-.6-6.2,.1-9.9,2.2-11.1,2.1-1.2,4.7,.8,4.8,.9l-.6,.8s-2.2-1.7-3.7-.8c-1.2,.6-2.4,2.9-1.7,10.1,.8,8.2,5.5,8.4,5.7,8.4v1Z"/><path class="cls-8" d="M847.8,490.51l-25.9-1,23.3-18.5c1.2,11.3,2.6,19.5,2.6,19.5Z"/><path class="cls-6" d="M806.5,433.01s-2.6-1.8-2.6,4.4l2.6-4.4Z"/><path class="cls-8" d="M804.3,437.41h-1c0-2.8,.5-4.4,1.6-4.9,.7-.4,1.5-.1,1.9,.1l-.6,.8,.3-.4-.3,.4s-.5-.3-.8-.1c-.4,.2-1.1,.9-1.1,4.1Z"/><path class="cls-3" d="M1003.34,595.01c-1.6-2.3-70.1-79.6-92.4-97.1-4.1-3.2-5.1-5.1-11.6-7-5.6-1.6-61.6-5.6-61.6-5.6h-37.3s-56,3.9-61.6,5.6c-6.5,1.9-7.4,3.7-11.6,7-22.4,17.5-89,100.4-90.6,102.7-1.9,2.8-8.4,11.6,0,23.9,8.4,12.3,78,62.5,78,62.5l26,17.9h167.8s19.4-16.6,40.8-35.3c14.2-12.5,29.3-25.9,40-36,7.2-6.8,12.4-12.1,14.1-14.7,8.4-12.3,1.9-21.1,0-23.9Zm-262.6,23.2l-24.1-13,24.1-29.7v42.7Zm166.2,0l-.9-36.2,24.1,18.6-23.2,17.6Z"/><path class="cls-8" d="M739.2,704.51l-13,105.5h90.5l6-63.9,8.2,63.9h85l-8.9-105.5h-167.8Z"/><path class="cls-9" d="M987.7,633.21c-10.7,10.2-25.8,23.6-40,36l-6.9-28.8,46.9-7.2Z"/><path class="cls-4" d="M761.1,488.21s74.6-7.6,106.9,0c32.3,7.6,51,49.7,53.8,85.5,2.8,35.8,55.6,74.8,33.4,106.6-22.3,31.8-106.8,35.5-135.7,29.3-28.8-6.2-58.4-221.4-58.4-221.4Z"/><path class="cls-8" d="M761.1,488.21s60,50.7,60.7,105.1c.7,54.4,40.4,113.4,14.2,116.4-39.6,4.7-79.1-7.3-79.1-7.3l4.2-214.2Z"/><path d="M828.8,587.01c-.3,0-.5-.2-.5-.5s.2-.5,.5-.5l89-3.2c.3,0,.5,.2,.5,.5s-.2,.5-.5,.5l-89,3.2Z"/><path class="cls-8" d="M836.6,578.91s3.8,24.8,8.3,29.7l16-3.6s-5-13.8-7.4-29.7l-16.9,3.6Z"/><path class="cls-8" d="M895.4,567.01s3.8,24.8,8.3,29.7l12-2s-5-13.8-7.4-29.7l-12.9,2Z"/><path class="cls-8" d="M933,637.41h-77.9v9.4h77.9v-9.4Z"/><path class="cls-7" d="M776.5,633.01s-4.1-29.3,17.8-29.3,19,29.3,19,29.3h-36.8Z"/><path d="M813.7,633.51h-37.7l-.1-.4c-.1-.6-2.1-16,5.3-24.5,3.1-3.6,7.5-5.4,13-5.4s10,1.8,13.2,5.4c7.7,8.5,6.3,23.8,6.3,24.4v.5Zm-36.8-1h35.9c.2-2.6,.7-15.8-6.1-23.2-3.1-3.4-7.3-5.1-12.5-5.1s-9.3,1.7-12.2,5.1c-6.4,7.4-5.4,20.7-5.1,23.2Z"/><path class="cls-7" d="M819.3,628.61h-50.1v8.8h50.1v-8.8Z"/><path d="M819.8,637.91h-51.1v-9.8h51.1v9.8Zm-50.1-1h49.1v-7.8h-49.1v7.8Z"/><path class="cls-7" d="M798.4,593.61h-9c-1.8,0-3.3,1.5-3.3,3.3v4.6c0,1.8,1.5,3.3,3.3,3.3h9c1.8,0,3.3-1.5,3.3-3.3v-4.6c-.1-1.8-1.5-3.3-3.3-3.3Z"/><path d="M798.4,605.31h-9c-2.1,0-3.8-1.7-3.8-3.8v-4.6c0-2.1,1.7-3.8,3.8-3.8h9c2.1,0,3.8,1.7,3.8,3.8v4.6c-.1,2.1-1.8,3.8-3.8,3.8Zm-9.1-11.2c-1.5,0-2.8,1.2-2.8,2.8v4.6c0,1.5,1.2,2.8,2.8,2.8h9c1.5,0,2.8-1.2,2.8-2.8v-4.6c0-1.5-1.2-2.8-2.8-2.8h-9Z"/><path class="cls-8" d="M739.2,592.01s4.9,10.9,19.6,12.8l-.6,32.6-19-19.6s-2.8-13.5,0-25.8Z"/><path class="cls-9" d="M843.6,454.71l-32.5-.9s7.4-19.5,0-26.9c-7.4-7.4-16.2-3.8-15.1-13.1,1.2-9.3,4.9-24.6,32.7-12.1,27.9,12.6,26,36.6,14.9,53Z"/><path class="cls-8" d="M738.4,628.61h-1v56.4h1v-56.4Z"/><path class="cls-5" d="M706.6,522.91l-.8-.7c.7-.8,17.8-20.6,26.2-23.4l.3,.9c-8.1,2.8-25.5,23-25.7,23.2Z"/><path class="cls-5" d="M802.3,408.81l-1-.2c0-.2,1-5.1,5.1-7.4,2.6-1.5,5.9-1.6,9.7-.3l-.3,.9c-3.5-1.2-6.5-1.1-8.9,.2-3.6,2.1-4.6,6.7-4.6,6.8Z"/></g></g></g></svg>