<?xml version="1.0" encoding="UTF-8"?><svg id="Layer_2" xmlns="http://www.w3.org/2000/svg" xmlns:xlink="http://www.w3.org/1999/xlink" viewBox="0 0 1440 800"><defs><style>.cls-1{fill:none;}.cls-2{clip-path:url(#clippath);}.cls-3{fill:#fff;}.cls-4{fill:#b6e5ff;}.cls-5{fill:#d0eeff;}.cls-6{fill:#258ac2;}</style><clipPath id="clippath"><rect class="cls-1" width="1440" height="800"/></clipPath></defs><g id="Layer_1-2"><g class="cls-2"><g><path class="cls-5" d="M-64,576.9s517.1-45.2,577.6-47.5c60.5-2.3,189.1,5.2,214.5,0,25.4-5.2,232.4-11.7,271.6-9.6,39.2,2.2,118.4,9.4,180.8,10.9s311.5-10.9,311.5-10.9l25,370.1-1564-6-17-307Z"/><path class="cls-4" d="M695.44,531.48c25.21,3.23,68.77-1.35,87.41-4.04,38.3-4.04,50.82,16.17,33.54,16.17s-102.65,.67-147.37,0c-44.72-.67-47.77-8.76-25.41-7.41,22.36,1.35,20.33-8.76,51.83-4.72Z"/><path class="cls-6" d="M227,559.42l2.43-17.45,4.02,14.94,4.47-21.01,3.11,19.87,4.7-15.63,2.58,19.19h-21.31v.08Z"/><path class="cls-6" d="M90,721.9l3.53-25.23,5.85,21.61,6.51-30.38,4.52,28.74,6.84-22.59,3.75,27.75h-31v.11Z"/><path class="cls-6" d="M165,719.9l2.96-20.77,4.9,17.79,5.46-25.02,3.79,23.66,5.74-18.61,3.15,22.85h-26v.09Z"/><path class="cls-6" d="M535,710.2l3.03-21.74,5.01,18.62,5.58-26.18,3.88,24.76,5.86-19.47,3.21,23.91h-26.56v.1Z"/><path class="cls-6" d="M394,628.2l3.02-21.74,5.01,18.62,5.58-26.18,3.88,24.76,5.86-19.47,3.21,23.91h-26.56v.1Z"/><path class="cls-6" d="M1001,696.2l3.02-21.74,5.01,18.62,5.58-26.18,3.88,24.76,5.86-19.47,3.21,23.91h-26.56v.1Z"/><path class="cls-6" d="M1052,529.9l1.48-10.39,2.45,8.9,2.73-12.51,1.9,11.83,2.87-9.3,1.57,11.43h-13v.05Z"/><path class="cls-6" d="M636,571.9l2.39-17.06,3.96,14.62,4.41-20.55,3.06,19.44,4.63-15.28,2.54,18.77h-21v.07Z"/><path class="cls-6" d="M1301.38,594.9l-13.38,56.98h31.71l-18.33-56.98Z"/><path class="cls-6" d="M1306.34,643.76h-4.71v25.27h4.71v-25.27Z"/><path class="cls-6" d="M1220.72,594.9l-14.72,62.71h34.9l-20.18-62.71Z"/><path class="cls-6" d="M1226.19,648.67h-5.18v27.81h5.18v-27.81Z"/><path class="cls-6" d="M1251.72,577.9l-14.72,62.71h34.9l-20.18-62.71Z"/><path class="cls-6" d="M1257.19,631.67h-5.18v27.81h5.18v-27.81Z"/><path class="cls-3" d="M1267.39,606.29l-14.72,62.71h34.9l-20.18-62.71Z"/><path class="cls-3" d="M1272.03,655.09h-5.18v27.81h5.18v-27.81Z"/><path class="cls-4" d="M323.14,642.46c-12.8,2.8-25.67,7.5-30.5,9.5-12.5,4.53,163.5,2.5,172.5,0s-22-9.5-40-7-56-10-65.5-9-20.5,3-36.5,6.5Z"/><path class="cls-4" d="M1167.14,688.46c-12.8,2.8-25.67,7.5-30.5,9.5-12.5,4.53,163.5,2.5,172.5,0s-22-9.5-40-7-56-10-65.5-9-20.5,3-36.5,6.5Z"/><path class="cls-6" d="M140.16,531.9l-16.16,68.81h38.29l-22.14-68.81Z"/><path class="cls-6" d="M146.15,590.91h-5.68v30.52h5.68v-30.52Z"/><path class="cls-6" d="M434.55,566.98l-10.55,44.92h25l-14.45-44.92Z"/><path class="cls-6" d="M438.46,605.5h-3.71v19.92h3.71v-19.92Z"/><path class="cls-6" d="M80.78,541.9l-17.78,75.73h42.14l-24.36-75.73Z"/><path class="cls-6" d="M87.38,606.84h-6.26v33.58h6.26v-33.58Z"/><path class="cls-3" d="M111.78,552.9l-17.78,75.73h42.15l-24.37-75.73Z"/><path class="cls-3" d="M117.38,611.84h-6.26v33.58h6.26v-33.58Z"/><path class="cls-3" d="M251,557.69l1.84-13.41,3.02,11.52,3.39-16.12,2.29,15.21,3.54-11.97,1.92,14.76h-16Z"/><path class="cls-3" d="M125,719.9l2.65-19.36,4.34,16.64,4.88-23.28,3.29,21.98,5.09-17.3,2.76,21.32h-23Z"/><path class="cls-3" d="M583,720.9l2.3-16.38,3.78,14.08,4.24-19.7,2.86,18.59,4.42-14.64,2.4,18.04h-20Z"/><path class="cls-3" d="M429,634.9l2.3-16.39,3.78,14.08,4.24-19.7,2.86,18.59,4.42-14.64,2.4,18.04h-20Z"/><path class="cls-3" d="M306,658.9l2.77-19.36,4.53,16.64,5.09-23.28,3.43,21.98,5.31-17.3,2.88,21.32h-24Z"/><path class="cls-3" d="M1035,704.9l2.3-16.38,3.78,14.08,4.24-19.7,2.86,18.59,4.42-14.64,2.4,18.04h-20Z"/><path class="cls-3" d="M1045,551.9l1.96-13.41,3.21,11.52,3.6-16.12,2.43,15.21,3.76-11.97,2.04,14.76h-17Z"/><path class="cls-3" d="M1071,515.9l1.96-13.41,3.21,11.52,3.6-16.12,2.43,15.21,3.76-11.97,2.04,14.76h-17Z"/><path class="cls-3" d="M1115,552.9l1.96-14.15,3.21,12.16,3.6-17.01,2.43,16.06,3.76-12.64,2.04,15.58h-17Z"/><path class="cls-3" d="M661,572.9l1.84-13.41,3.02,11.52,3.39-16.12,2.29,15.21,3.54-11.97,1.92,14.76h-16Z"/><path class="cls-3" d="M267,566.69l2.07-15.64,3.4,13.44,3.82-18.8,2.57,17.75,3.98-13.97,2.16,17.22h-18Z"/><path class="cls-3" d="M148,732.9l2.99-23.09,4.91,19.85,5.51-27.76,3.71,26.2,5.75-20.62,3.12,25.42h-26Z"/></g></g></g></svg>