<?xml version="1.0" encoding="utf-8"?>
<!-- Generator: Adobe Illustrator 27.0.0, SVG Export Plug-In . SVG Version: 6.00 Build 0)  -->
<svg version="1.1" id="Layer_2_00000120532566595307447590000015097552018917787833_"
	 xmlns="http://www.w3.org/2000/svg" xmlns:xlink="http://www.w3.org/1999/xlink" x="0px" y="0px" viewBox="0 0 1440 800"
	 style="enable-background:new 0 0 1440 800;" xml:space="preserve">
<style type="text/css">
	.st0{clip-path:url(#SVGID_00000031898712531150179340000015378196741129282459_);}
	.st1{fill:#D0EEFF;}
	.st2{fill:#EAF7FF;}
	.st3{fill:#B6E5FF;}
	.st4{fill:#258AC2;}
	.st5{fill:#FFFFFF;}
</style>
<g id="Layer_1-2">
	<g>
		<defs>
			<rect id="SVGID_1_" width="1440" height="800"/>
		</defs>
		<clipPath id="SVGID_00000034089822501951554390000006056161657213679798_">
			<use xlink:href="#SVGID_1_"  style="overflow:visible;"/>
		</clipPath>
		<g style="clip-path:url(#SVGID_00000034089822501951554390000006056161657213679798_);">
			<g>
				<path class="st1" d="M1705.9,799.5h-1222c0,0,434.3-401.2,452.3-417c17.9-15.8,19.5-6.7,27.1,0s24.4,31.7,32.9,28.5
					c8.4-3.2,114.9-89.2,121.5-86.4c6.5,2.8,25.2,26.2,37.4,18.7s271-189.9,271-189.9l42.7,67.9l142.6,226.6L1705.9,799.5
					L1705.9,799.5z"/>
				<path class="st2" d="M817.9,491.5c29.2-23.3,91.9-74.7,109.5-93.5c15.5-16.6,29.4-17,36.2-14.6c-7.9-14.5-18.1-10.6-22.2-6.9
					L817.9,491.5z"/>
				<path class="st3" d="M1379.9,393.5c19.2,4.8,37.3-140.7,44-214l54,50V800l-582.7-0.5c20,0,287.7-357,305.7-329s91-37,125-77
					S1355.9,387.5,1379.9,393.5z"/>
				<path class="st4" d="M1269.7,309.5l-4.8,20.4h11.4L1269.7,309.5z"/>
				<path class="st4" d="M1271.2,325.4h-1.7v9h1.7V325.4z"/>
				<path class="st4" d="M1234,432.9l-6.1,25.8h14.4L1234,432.9L1234,432.9z"/>
				<path class="st4" d="M1235.9,453h-2.1v11.4h2.1V453z"/>
				<path class="st4" d="M1241.1,338.5l-5.2,22.1h12.3L1241.1,338.5L1241.1,338.5z"/>
				<path class="st4" d="M1242.7,355.7h-1.8v9.8h1.8V355.7z"/>
				<path class="st4" d="M1250.8,421.5l-6.9,29.3h16.3L1250.8,421.5z"/>
				<path class="st4" d="M1252.9,444.3h-2.4v13h2.4V444.3z"/>
				<path class="st4" d="M1102.5,384.5l-5.6,23.9h13.3L1102.5,384.5L1102.5,384.5z"/>
				<path class="st4" d="M1104.3,403.1h-2v10.6h2V403.1z"/>
				<path class="st4" d="M930.5,459.5l-5.6,23.9h13.3L930.5,459.5z"/>
				<path class="st4" d="M932.3,478.1h-2v10.6h2V478.1z"/>
				<path class="st5" d="M1257.5,320.5l-5.6,23.7h13.2L1257.5,320.5z"/>
				<path class="st5" d="M1259.5,344.2h-2v10.5h2V344.2z"/>
				<path class="st5" d="M1265.9,405.5l-5.6,23.7h13.2L1265.9,405.5z"/>
				<path class="st5" d="M1267.9,429.2h-2v10.5h2V429.2z"/>
				<path class="st3" d="M1426.4,152.5l-153.5,108c23,10,45-25,60.5-18c9.1,4.1,0,33.8,12,41c20,12.1,27.7-14.8,54-8.5
					c21,5,8.5,30,36,24.5c22-4.4,64.2,1.8,82.5,5.5L1426.4,152.5z"/>
				<path class="st5" d="M1109.9,407.5l1.7-11.2l2.8,9.6l3.2-13.4l2.1,12.7l3.3-10l1.8,12.3L1109.9,407.5L1109.9,407.5z"/>
				<path class="st5" d="M937.9,482.5l1.7-11.2l2.8,9.6l3.2-13.4l2.1,12.7l3.3-10l1.8,12.3L937.9,482.5L937.9,482.5z"/>
				<path class="st5" d="M1089.9,422.5l1.7-11.2l2.8,9.6l3.2-13.4l2.1,12.7l3.3-10l1.8,12.3L1089.9,422.5L1089.9,422.5z"/>
				<path class="st5" d="M917.9,497.5l1.7-11.2l2.8,9.6l3.2-13.4l2.1,12.7l3.3-10l1.8,12.3L917.9,497.5L917.9,497.5z"/>
			</g>
		</g>
	</g>
</g>
</svg>
