<svg width="458" height="226" viewBox="0 0 458 226" fill="none" xmlns="http://www.w3.org/2000/svg">
<path d="M458 211.829L0 222.244L5.5763 102.846C5.5763 102.846 43.1977 63.1581 72.6034 33.2528C90.4847 15.0642 105.355 0.446338 106.879 0.59512C109.258 0.781098 132.344 18.0399 151.75 32.4717C164.835 42.217 176.248 50.6604 178.516 51.7391C184.092 54.4171 183.758 50.7348 187.103 46.7176C190.449 42.7005 198.814 28.6778 201.825 30.6863C204.799 32.6577 458 211.829 458 211.829V211.829Z" fill="#FDBA74"/>
<path d="M154.434 55.0605L152.649 62.6633H156.876L154.43 55.0605H154.434Z" fill="#FDBA74"/>
<path d="M154.995 60.9784H154.367V64.3483H154.995V60.9784Z" fill="#FDBA74"/>
<path d="M202.018 100.439L200.234 108.042H204.461L202.014 100.439H202.018Z" fill="white"/>
<path d="M202.579 106.357H201.951V109.727H202.579V106.357Z" fill="white"/>
<path d="M147.17 49.9388L145.144 58.5682H149.943L147.166 49.9388H147.17Z" fill="#FDBA74"/>
<path d="M147.809 56.6564H147.095V60.4838H147.809V56.6564Z" fill="#FDBA74"/>
<path d="M112.065 58.955L110.039 67.5843H114.838L112.065 58.955Z" fill="#FDBA74"/>
<path d="M112.701 65.6726H111.987V69.5H112.701V65.6726Z" fill="#FDBA74"/>
<path d="M142.177 46.3085L140.151 54.9379H144.95L142.177 46.3085V46.3085Z" fill="white"/>
<path d="M142.813 53.026H142.099V56.8534H142.813V53.026Z" fill="white"/>
<path d="M195.394 102.035H194.68V105.862H195.394V102.035Z" fill="#FDBA74"/>
<path d="M214.13 81.4583L187.178 59.6989L213.015 78.1107L214.13 73.0893L262.272 113.446H254.837L215.803 78.1107L214.13 81.4583Z" fill="#FED7AA"/>
<path d="M149.073 95.4104L149.612 91.542L150.501 94.8524L151.493 90.1956L152.181 94.5995L153.222 91.1366L153.794 95.3881H149.073V95.4066V95.4104Z" fill="#FDBA74"/>
<path d="M158.367 87.5956L158.839 83.995L159.612 87.0897L160.478 82.7601L161.062 86.8479L161.965 83.6305L162.456 87.5956H158.367V87.5956Z" fill="white"/>
<path d="M153.906 90.2812L154.419 86.4017L155.263 89.7344L156.207 85.0701L156.843 89.4703L157.828 86.0074L158.363 90.2775H153.902L153.906 90.2812Z" fill="white"/>
<path d="M80.1128 96.2919L73.3432 88.3097H77.8154L72.2539 81.7782H75.3953L71.4658 77.1808L67.5364 81.7782H70.6777L65.1163 88.3097H69.5885L62.8188 96.2919H70.4361V102.942H71.8859V96.2919H80.1054H80.1128Z" fill="#FB923C"/>
<path d="M99.2581 64.1624C94.7971 66.2453 101.86 22.1946 106.321 0L23.4205 84.248L8.17859 220.012C89.0981 222.738 244.762 227.6 220.078 225.219C189.222 222.244 158.367 159.383 141.638 141.157C124.909 122.931 136.433 115.492 119.333 112.145C102.232 108.797 110.039 109.913 107.065 89.8273C104.091 69.7417 104.834 61.5587 99.2581 64.1624Z" fill="#FB923C"/>
<path d="M158.218 37.27C157.066 37.3072 155.69 37.1584 153.98 36.7865C153.98 36.7865 140.969 29.8681 139.445 34.0712C137.92 38.2743 143.831 46.2714 130.411 42.0683C116.991 37.8652 122.716 43.3329 120.597 46.9037C118.515 50.4745 105.132 28.2687 96.2098 29.087C87.2877 29.9053 79.6668 41.5103 68.0309 38.1999C88.4401 17.4448 105.355 0.781161 107.065 0.929944C109.816 1.15312 136.099 20.8296 158.218 37.27Z" fill="#FB923C"/>
<path d="M309.485 115.492C307.849 116.236 263.822 78.1107 242.011 58.955L313.388 109.169C312.336 111.092 311.12 114.748 309.485 115.492Z" fill="#FED7AA"/>
</svg>
