<?xml version="1.0" encoding="UTF-8"?><svg id="Layer_2" xmlns="http://www.w3.org/2000/svg" xmlns:xlink="http://www.w3.org/1999/xlink" viewBox="0 0 1440 803.99"><defs><style>.cls-1{fill:none;}.cls-2{clip-path:url(#clippath);}.cls-3{fill:#eaf7ff;}.cls-4{fill:#fff;}.cls-5{fill:#fed7aa;}.cls-6{fill:#b6e5ff;}.cls-7{fill:#d0eeff;}.cls-8{fill:#258ac2;}</style><clipPath id="clippath"><rect class="cls-1" width="1440" height="803.99"/></clipPath></defs><g id="Layer_1-2"><g class="cls-2"><g><path class="cls-5" d="M853.75,770.16c0,54.15-43.85,98.11-97.87,98.11s-97.87-43.97-97.87-98.11,43.84-98.11,97.87-98.11,97.87,43.96,97.87,98.11Z"/><path class="cls-7" d="M1191.89,1120.52l-1475.89,33.54,17.97-384.55s121.23-127.82,215.99-224.14c57.62-58.58,105.54-105.66,110.45-105.18,7.67,.6,82.06,56.18,144.59,102.67,42.17,31.39,78.95,58.58,86.25,62.05,17.97,8.62,16.89-3.23,27.67-16.17,10.78-12.94,37.74-58.1,47.44-51.63,9.58,6.35,825.52,583.41,825.52,583.41Z"/><path class="cls-8" d="M213.66,615.62l-5.75,24.48h13.62l-7.88-24.48Z"/><path class="cls-8" d="M215.47,634.67h-2.02v10.86h2.02v-10.86Z"/><path class="cls-4" d="M367,761.77l-5.75,24.48h13.62l-7.88-24.48Z"/><path class="cls-4" d="M368.81,780.83h-2.02v10.86h2.02v-10.86Z"/><path class="cls-8" d="M190.26,599.13l-6.53,27.8h15.47l-8.94-27.8Z"/><path class="cls-8" d="M192.31,620.76h-2.3v12.33h2.3v-12.33Z"/><path class="cls-8" d="M77.12,628.16l-6.53,27.8h15.47l-8.94-27.8Z"/><path class="cls-8" d="M79.18,649.79h-2.3v12.33h2.3v-12.33Z"/><path class="cls-4" d="M174.16,587.43l-6.53,27.8h15.47l-8.94-27.8Z"/><path class="cls-4" d="M176.21,609.06h-2.3v12.33h2.3v-12.33Z"/><path class="cls-8" d="M343.59,745.28l-6.53,27.8h15.47l-8.94-27.8Z"/><path class="cls-8" d="M345.65,766.91h-2.3v12.33h2.3v-12.33Z"/><path class="cls-3" d="M406.03,700.64l-86.85-70.08,83.26,59.3,3.59-16.17,155.14,129.98h-23.96l-125.79-113.81-5.39,10.78Z"/><path class="cls-8" d="M196.38,745.57l1.73-12.45,2.87,10.67,3.19-15,2.22,14.18,3.36-11.15,1.84,13.7h-15.21v.06Z"/><path class="cls-4" d="M226.33,720.4l1.52-11.6,2.49,9.97,2.79-13.95,1.88,13.16,2.91-10.36,1.58,12.77h-13.18Z"/><path class="cls-4" d="M211.96,729.06l1.66-12.49,2.72,10.74,3.05-15.02,2.05,14.18,3.18-11.16,1.72,13.75h-14.38Z"/><path class="cls-6" d="M35.86,644.93c-14.38,6.71,8.39-135.17,22.76-206.65L-208.53,709.62l-49.12,437.26c260.76,8.79,762.38,24.44,682.84,16.77-99.43-9.58-198.86-212.04-252.77-270.74-53.91-58.7-16.77-82.66-71.88-93.44-55.11-10.78-29.95-7.19-39.53-71.88-9.58-64.69-7.19-91.04-25.16-82.66Z"/><path class="cls-6" d="M225.85,558.32c-3.71,.12-8.15-.36-13.66-1.56,0,0-41.93-22.28-46.84-8.74-4.91,13.54,14.14,39.29-29.11,25.76-43.25-13.54-24.8,4.07-31.63,15.57-6.71,11.5-49.83-60.02-78.59-57.38-28.75,2.63-53.31,40.01-90.81,29.35C1,494.47,55.5,440.8,61.01,441.28c8.86,.72,93.56,64.09,164.84,117.04Z"/><path class="cls-3" d="M713.3,810.25c-5.27,2.4-147.15-120.4-217.43-182.09l230.01,161.73c-3.39,6.19-7.31,17.97-12.58,20.37Z"/><path class="cls-7" d="M1917.91,1118.13H454s520.28-480.62,541.84-499.55c21.44-18.93,23.36-8.03,32.46,0,9.11,8.03,29.23,37.97,39.42,34.14,10.06-3.83,137.64-106.86,145.55-103.5,7.79,3.35,30.19,31.39,44.8,22.4,14.62-8.98,324.65-227.49,324.65-227.49l51.15,81.34,170.83,271.46,113.21,421.21Z"/><path class="cls-3" d="M854.12,749.16c34.94-27.95,110.09-89.49,131.18-112.01,18.61-19.89,35.17-20.38,43.33-17.47-9.42-17.33-21.63-12.74-26.56-8.29l-147.95,137.77Z"/><path class="cls-6" d="M1527.38,631.75c23,5.75,44.72-168.51,52.71-256.36l64.69,59.9v378.56h-445.65c23.96,0,92.25-123.39,113.81-89.85,21.56,33.54,109.01-44.32,149.75-92.24,40.73-47.92,35.93-7.19,64.69,0Z"/><path class="cls-8" d="M1395.35,531.13l-5.74,24.44h13.6l-7.86-24.44Z"/><path class="cls-8" d="M1397.16,550.15h-2.02v10.84h2.02v-10.84Z"/><path class="cls-8" d="M1352.54,678.97l-7.25,30.9h17.19l-9.94-30.9Z"/><path class="cls-8" d="M1354.82,703.02h-2.55v13.7h2.55v-13.7Z"/><path class="cls-8" d="M1361.08,565.87l-6.21,26.48h14.73l-8.52-26.48Z"/><path class="cls-8" d="M1363.04,586.47h-2.19v11.74h2.19v-11.74Z"/><path class="cls-8" d="M1372.69,665.3l-8.24,35.08h19.53l-11.29-35.08Z"/><path class="cls-8" d="M1375.28,692.6h-2.9v15.56h2.9v-15.56Z"/><path class="cls-8" d="M1195.07,620.97l-6.72,28.63h15.93l-9.21-28.63Z"/><path class="cls-8" d="M1197.19,643.25h-2.37v12.7h2.37v-12.7Z"/><path class="cls-4" d="M1011.72,702.05l-6.72,28.63h15.93l-9.21-28.63Z"/><path class="cls-4" d="M1013.84,724.32h-2.37v12.7h2.37v-12.7Z"/><path class="cls-4" d="M1379.6,544.3l-5.56,23.68h13.17l-7.61-23.68Z"/><path class="cls-4" d="M1381.6,567.98h-1.95v10.5h1.95v-10.5Z"/><path class="cls-4" d="M1390.98,646.13l-5.56,23.68h13.17l-7.61-23.68Z"/><path class="cls-4" d="M1392.98,669.81h-1.95v10.5h1.95v-10.5Z"/><path class="cls-6" d="M1583.08,343.05l-183.89,129.38c27.56,11.98,53.91-29.95,72.48-21.56,10.92,4.93,0,40.43,14.38,49.12,23.96,14.48,33.13-17.69,64.69-10.18,25.15,5.99,10.18,35.94,43.12,29.35,26.36-5.27,76.87,2.2,98.83,6.59l-109.61-182.69Z"/><path class="cls-4" d="M1203.93,648.53l2.07-13.38,3.39,11.5,3.81-16.09,2.57,15.19,3.97-11.96,2.15,14.74h-17.96Z"/><path class="cls-8" d="M995,753.01l2.07-13.38,3.4,11.5,3.8-16.09,2.57,15.19,3.98-11.95,2.15,14.74h-17.97Z"/><path class="cls-4" d="M1179.97,666.5l2.07-13.38,3.39,11.5,3.81-16.09,2.57,15.19,3.97-11.95,2.16,14.74h-17.97Z"/><path class="cls-4" d="M971,745.57l2.07-13.38,3.4,11.5,3.81-16.09,2.57,15.19,3.97-11.95,2.15,14.74h-17.97Z"/></g></g></g></svg>