<svg width="375" height="200" viewBox="0 0 375 200" fill="none" xmlns="http://www.w3.org/2000/svg">
<g clip-path="url(#clip0_381_300)">
<path d="M207.63 95.9C207.63 115.16 192.03 130.8 172.81 130.8C153.59 130.8 137.99 115.16 137.99 95.9C137.99 76.64 153.59 61 172.81 61C192.03 61 207.63 76.64 207.63 95.9Z" fill="#FED7AA"/>
</g>
<g clip-path="url(#clip1_381_300)">
<path d="M488.24 233.82H36.77C36.77 233.82 197.22 85.88 203.87 80.05C210.48 74.22 211.07 77.58 213.88 80.05C216.69 82.52 222.89 91.7401 226.03 90.5601C229.13 89.3801 268.48 57.6701 270.92 58.7001C273.32 59.7301 280.23 68.36 284.74 65.6C289.25 62.83 384.86 -4.42993 384.86 -4.42993L400.64 20.61L453.32 104.17L488.23 233.82H488.24Z" fill="#D0EEFF"/>
<path d="M160.17 120.24C170.95 111.64 194.12 92.6899 200.62 85.7599C206.36 79.6399 211.47 79.4899 213.98 80.3799C211.08 75.0399 207.31 76.46 205.79 77.83L160.16 120.24H160.17Z" fill="#EAF7FF"/>
<path d="M367.8 84.0999C374.89 85.8699 381.59 32.2299 384.06 5.18994L404.01 23.6299V212H180.83C188.22 212 295.02 102.17 301.67 112.5C308.32 122.83 335.29 98.8599 347.85 84.1099C360.41 69.3599 358.93 81.8999 367.8 84.1099V84.0999Z" fill="#B6E5FF"/>
<path d="M327.08 53.13L325.31 60.65H329.51L327.08 53.13Z" fill="#258AC2"/>
<path d="M327.64 58.98H327.02V62.32H327.64V58.98Z" fill="#258AC2"/>
<path d="M313.88 98.64L311.64 108.15H316.95L313.88 98.64Z" fill="#258AC2"/>
<path d="M314.58 106.04H313.79V110.26H314.58V106.04Z" fill="#258AC2"/>
<path d="M316.51 63.8201L314.59 71.97H319.13L316.5 63.8201H316.51Z" fill="#258AC2"/>
<path d="M317.12 70.1599H316.44V73.77H317.12V70.1599Z" fill="#258AC2"/>
<path d="M320.09 94.4299L317.55 105.23H323.57L320.09 94.4299V94.4299Z" fill="#258AC2"/>
<path d="M320.89 102.83H320V107.62H320.89V102.83Z" fill="#258AC2"/>
<path d="M265.32 80.78L263.25 89.59H268.16L265.32 80.78V80.78Z" fill="#258AC2"/>
<path d="M265.97 87.64H265.24V91.55H265.97V87.64Z" fill="#258AC2"/>
<path d="M201.77 108.44L199.7 117.25H204.61L201.77 108.44Z" fill="#258AC2"/>
<path d="M202.43 115.3H201.7V119.21H202.43V115.3Z" fill="#258AC2"/>
<path d="M322.56 57.1799L320.51 65.9099H325.38L322.56 57.1799Z" fill="white"/>
<path d="M323.3 65.9199H322.58V69.7899H323.3V65.9199Z" fill="white"/>
<path d="M325.67 88.53L323.62 97.26H328.49L325.67 88.53Z" fill="white"/>
<path d="M326.41 97.26H325.69V101.13H326.41V97.26Z" fill="white"/>
<path d="M384.98 -4.77002L328.27 35.06C336.77 38.75 344.89 25.84 350.62 28.42C353.98 29.94 350.62 40.87 355.05 43.54C362.44 47.99 365.27 38.09 375 40.41C382.76 42.25 378.14 51.47 388.3 49.44C396.43 47.82 412.01 50.11 418.78 51.47L384.98 -4.76001V-4.77002Z" fill="#B6E5FF"/>
<path d="M268.05 89.27L268.69 85.15L269.74 88.69L270.91 83.74L271.7 88.42L272.93 84.74L273.59 89.28H268.05V89.27Z" fill="white"/>
<path d="M204.5 116.92L205.14 112.8L206.19 116.34L207.36 111.39L208.15 116.06L209.38 112.38L210.05 116.92H204.51H204.5Z" fill="white"/>
<path d="M260.66 94.8L261.3 90.68L262.35 94.22L263.52 89.27L264.31 93.94L265.54 90.26L266.21 94.8H260.67H260.66Z" fill="white"/>
<path d="M197.11 122.45L197.75 118.33L198.8 121.87L199.98 116.92L200.77 121.6L202 117.92L202.66 122.46H197.12L197.11 122.45Z" fill="white"/>
</g>
<g clip-path="url(#clip2_381_300)">
<path d="M339.2 211.8L-76.6001 221.25L-71.5401 112.91C-71.5401 112.91 -37.3901 76.9 -10.6901 49.76C5.5399 33.26 19.0399 19.99 20.4299 20.13C22.5899 20.3 43.5499 35.96 61.1699 49.05C73.0499 57.89 83.4099 65.55 85.4699 66.53C90.5299 68.96 90.2299 65.62 93.2699 61.97C96.3099 58.33 103.9 45.6 106.64 47.42C109.34 49.21 339.21 211.78 339.21 211.78L339.2 211.8Z" fill="#D0EEFF"/>
<path d="M63.6 69.55L61.98 76.4501H65.82L63.6 69.55V69.55Z" fill="#258AC2"/>
<path d="M64.11 74.92H63.54V77.98H64.11V74.92Z" fill="#258AC2"/>
<path d="M106.8 110.73L105.18 117.63H109.02L106.8 110.73Z" fill="white"/>
<path d="M107.31 116.1H106.74V119.16H107.31V116.1Z" fill="white"/>
<path d="M57.0099 64.9001L55.1699 72.7301H59.5299L57.0099 64.9001V64.9001Z" fill="#258AC2"/>
<path d="M57.5899 71H56.9399V74.47H57.5899V71Z" fill="#258AC2"/>
<path d="M25.1398 73.0801L23.2998 80.91H27.6598L25.1398 73.0801Z" fill="#258AC2"/>
<path d="M25.7198 79.1801H25.0698V82.6501H25.7198V79.1801Z" fill="#258AC2"/>
<path d="M52.4801 61.6101L50.6401 69.4401H55.0001L52.4801 61.6101V61.6101Z" fill="white"/>
<path d="M53.0499 67.7101H52.3999V71.1801H53.0499V67.7101Z" fill="white"/>
<path d="M100.21 106.08L98.3701 113.91H102.73L100.21 106.08Z" fill="#258AC2"/>
<path d="M100.79 112.17H100.14V115.64H100.79V112.17Z" fill="#258AC2"/>
<path d="M117.8 93.5L93.3301 73.76L116.79 90.47L117.8 85.91L161.51 122.53H154.76L119.32 90.47L117.8 93.51V93.5Z" fill="#EAF7FF"/>
<path d="M58.74 106.16L59.23 102.65L60.04 105.65L60.94 101.43L61.56 105.43L62.5 102.29L63.02 106.15H58.73V106.17L58.74 106.16Z" fill="#258AC2"/>
<path d="M67.1699 99.0701L67.5999 95.8L68.2999 98.61L69.0899 94.6801L69.6199 98.3901L70.4399 95.47L70.8899 99.0701H67.1799H67.1699Z" fill="white"/>
<path d="M63.1201 101.51L63.5901 97.99L64.3601 101.01L65.2201 96.78L65.8001 100.77L66.6901 97.63L67.1801 101.51H63.1301H63.1201Z" fill="white"/>
<path d="M13.5098 77.8101C9.45983 79.7001 15.8698 39.7301 19.9198 19.5901L-55.3402 96.0301L-69.1802 219.22C4.27982 221.69 145.61 226.11 123.2 223.95C95.1898 221.25 67.1698 164.21 51.9898 147.68C36.7998 131.14 47.2598 124.39 31.7398 121.36C16.2198 118.32 23.2998 119.33 20.5998 101.11C17.8998 82.88 18.5698 75.4601 13.5098 77.8201V77.8101Z" fill="#B6E5FF"/>
<path d="M67.0397 53.41C65.9897 53.44 64.7497 53.31 63.1897 52.97C63.1897 52.97 51.3797 46.69 49.9897 50.51C48.6097 54.32 53.9697 61.5801 41.7897 57.7701C29.6097 53.9601 34.7997 58.92 32.8797 62.16C30.9897 65.4 18.8397 45.25 10.7397 45.99C2.63967 46.73 -4.28033 57.26 -14.8403 54.26C3.68967 35.43 19.0497 20.31 20.5997 20.44C23.0997 20.64 46.9597 38.5 67.0397 53.41V53.41Z" fill="#B6E5FF"/>
<path d="M204.37 124.38C202.88 125.06 162.91 90.4601 143.11 73.0801L207.91 118.64C206.95 120.38 205.85 123.7 204.37 124.38V124.38Z" fill="#EAF7FF"/>
</g>
<g clip-path="url(#clip3_381_300)">
<path d="M-29.8999 138.9C-29.8999 138.9 139.2 124.1 159 123.3C178.8 122.5 220.9 125 229.2 123.3C237.5 121.6 305.2 119.5 318 120.2C330.8 120.9 356.7 123.3 377.1 123.8C397.5 124.3 479 120.2 479 120.2L487.2 241.4L-24.3999 239.4L-29.8999 138.9Z" fill="#D0EEFF"/>
<path d="M218.5 124.1C226.7 125.2 241 123.7 247.1 122.8C259.6 121.5 263.7 128.1 258.1 128.1C252.5 128.1 224.5 128.3 209.9 128.1C195.3 127.9 194.3 125.2 201.6 125.7C208.9 126.2 208.2 122.7 218.5 124.1Z" fill="#B6E5FF"/>
<path d="M65.2002 133.2L66.0002 127.5L67.3002 132.4L68.8002 125.5L69.8002 132L71.3002 126.9L72.1002 133.2H65.2002Z" fill="#258AC2"/>
<path d="M45 185.8L46 179L47.6 184.8L49.4 176.6L50.6 184.4L52.5 178.3L53.5 185.8H45Z" fill="#258AC2"/>
<path d="M119.9 155.7L120.9 148.6L122.5 154.7L124.3 146.1L125.6 154.2L127.5 147.8L128.6 155.6L119.9 155.7Z" fill="#258AC2"/>
<path d="M318.4 178L319.4 170.9L321 177L322.8 168.4L324.1 176.5L326 170.1L327 177.9L318.4 178Z" fill="#258AC2"/>
<path d="M335.1 123.5L335.6 120.1L336.4 123L337.3 118.9L337.9 122.8L338.8 119.8L339.3 123.5H335.1Z" fill="#258AC2"/>
<path d="M199 137.3L199.8 131.7L201.1 136.5L202.5 129.8L203.5 136.2L205 131.2L205.8 137.4L199 137.3Z" fill="#258AC2"/>
<path d="M96.7 160.4C92.5 161.3 88.3 162.9 86.7 163.5C82.6 165 140.2 164.3 143.1 163.5C146 162.7 135.9 160.4 130 161.2C124.1 162 111.7 157.9 108.6 158.2C105.5 158.6 101.9 159.3 96.7 160.4Z" fill="#B6E5FF"/>
<path d="M372.8 175.5C368.6 176.4 364.4 178 362.8 178.6C358.7 180.1 416.3 179.4 419.2 178.6C422.1 177.8 412 175.5 406.1 176.3C400.2 177.1 387.8 173 384.7 173.3C381.6 173.7 378 174.3 372.8 175.5Z" fill="#B6E5FF"/>
<path d="M36.8 124.2L31.5 146.7H44L36.8 124.2Z" fill="#258AC2"/>
<path d="M38.7999 143.5H36.8999V153.5H38.7999V143.5Z" fill="#258AC2"/>
<path d="M133.1 135.7L129.7 150.4H137.9L133.1 135.7Z" fill="#258AC2"/>
<path d="M134.4 148.3H133.2V154.8H134.4V148.3Z" fill="#258AC2"/>
<path d="M73.1001 132.6L73.7001 128.2L74.7001 132L75.8001 126.7L76.6001 131.7L77.8001 127.8L78.4001 132.6H73.1001Z" fill="white"/>
<path d="M31.8999 185.8L32.7999 179.5L34.1999 185L35.7999 177.4L36.8999 184.6L38.5999 178.9L39.4999 185.9C39.3999 185.8 31.8999 185.8 31.8999 185.8Z" fill="white"/>
<path d="M131.3 157.9L132.1 152.5L133.3 157.1L134.7 150.6L135.6 156.7L137 151.9L137.8 157.8H131.3V157.9Z" fill="white"/>
<path d="M91.1001 165.8L92.0001 159.5L93.5001 165L95.2001 157.4L96.3001 164.6L98.0001 158.9L98.9001 165.9H91.1001V165.8Z" fill="white"/>
<path d="M329.5 180.8L330.3 175.4L331.5 180L332.9 173.5L333.8 179.6L335.3 174.8L336.1 180.7L329.5 180.8Z" fill="white"/>
<path d="M332.8 130.8L333.4 126.4L334.4 130.2L335.6 124.9L336.4 129.9L337.6 126L338.3 130.8H332.8Z" fill="white"/>
<path d="M341.3 119L341.9 114.6L342.9 118.4L344.1 113.1L344.9 118.1L346.1 114.2L346.8 119H341.3Z" fill="white"/>
<path d="M355.7 131.1L356.3 126.5L357.3 130.5L358.5 124.9L359.3 130.2L360.5 126.1L361.2 131.2L355.7 131.1Z" fill="white"/>
<path d="M207.2 137.6L207.8 133.2L208.8 137L209.9 131.7L210.7 136.7L211.9 132.8L212.5 137.6H207.2Z" fill="white"/>
<path d="M78.3003 135.6L79.0003 130.5L80.1003 134.9L81.3003 128.7L82.1003 134.5L83.4003 129.9L84.1003 135.5L78.3003 135.6Z" fill="white"/>
<path d="M39.3999 190L40.3999 182.4L41.9999 189L43.7999 179.9L44.9999 188.5L46.8999 181.7L47.8999 190H39.3999Z" fill="white"/>
</g>
<g clip-path="url(#clip4_381_300)">
<path d="M152.99 273.91C152.99 273.91 156.96 239.05 184.76 235.39C212.56 231.73 192.77 221.37 171.9 221.4C151 221.44 163.97 205.71 212.77 206.1C261.57 206.49 167.22 191.55 187.09 183.27C206.96 175 249.28 178.05 226.93 169.89C204.62 161.69 182.98 154.06 206.85 147.42C230.76 140.78 244.64 150.37 240.36 138.08C236.07 125.8 245.99 132.36 256.9 131.09C267.81 129.81 262.53 104.25 284.35 96.9401C306.2 89.6301 322 67.1201 337.86 66.4501C359.68 66.4501 372.21 57.57 372.21 39.29C372.21 19.77 386.38 12.3101 386.38 12.3101L392.22 13.55C392.22 13.55 378.36 17.1 377.34 35.91C375.53 69.28 349.36 68.8201 340.33 72.1201C323.12 78.4401 319.43 94.2701 306.19 99.2401C292.95 104.21 270.77 114.19 286.32 129.81C301.87 145.43 260.57 137.05 264.01 143.37C267.44 149.72 289.62 158.03 261.18 160.02C232.71 162.01 241.31 172.62 262.84 177.63C284.34 182.6 300.35 187.25 295.99 194.24C291.63 201.2 241.2 182.28 244.42 194.24C247.64 206.2 303.21 203.54 302.22 212.17C301.23 220.8 223.77 222.15 233.37 228.11C242.97 234.07 274.74 240.07 308.17 235.74C341.6 231.41 304.17 274.58 353.15 278.23L152.97 273.9L152.99 273.91Z" fill="#B6E5FF"/>
</g>
<g clip-path="url(#clip5_381_300)">
<path d="M197.65 216.27C197.65 216.27 247.72 182.86 255.01 172.53C262.29 162.2 283.84 157.65 291.12 154.31C298.4 150.97 322.38 118.16 341.5 111.78C360.62 105.4 416.46 68.04 422.22 51.03C427.99 34.02 426.77 255.15 426.77 255.15L197.65 216.27V216.27Z" fill="#1E293B"/>
<path d="M254.25 210.11C254.25 210.11 289.57 169.86 308.42 166.49C327.24 163.12 334.37 134.66 359.49 128.37C384.62 122.08 391.87 110.24 391.87 110.24C391.87 110.24 375.33 138.82 357.36 142.32C339.4 145.81 342.73 166.83 326.47 169.84C310.2 172.85 317.82 220.84 317.82 220.84L254.24 210.12L254.25 210.11Z" fill="#0F172A"/>
<path d="M352.39 169.83L381.55 176.54C381.55 176.54 367.56 185.35 352.39 169.83Z" fill="#0F172A"/>
</g>
<g clip-path="url(#clip6_381_300)">
<path d="M194.7 233.79C194.7 233.79 200.88 243.52 213.89 237.96C226.9 232.41 248.88 220.63 219.9 220.98C190.92 221.33 173.56 200.25 197.46 194.8C221.35 189.35 206.51 179.34 197.46 167.74C188.41 156.14 157.48 151.96 173.42 145.81C189.36 139.66 140.76 125.43 131.89 125.12C123.02 124.8 108.81 112.38 99.7598 111.08C90.4598 109.74 82.7198 96.22 99.7598 90.07C106.41 87.67 107.96 82.93 79.1198 77.02C45.4298 70.12 44.7298 45.11 44.7298 45.11L36.7798 47.27C36.7798 47.27 52.1898 70.72 70.4698 77.73C109.21 92.59 63.6498 96.9 68.1398 111.41C72.6298 125.95 87.6898 109.36 92.6698 119.65C114.3 122.44 99.8098 129.34 117.27 129.34C137.49 127.22 165.31 139.35 155.87 142.25C146.47 145.15 128.62 148.58 148.73 157.28C168.84 165.98 179.34 183.39 168.52 185.58C157.7 187.77 53.0798 187.53 79.1598 199.87C105.25 212.22 151.48 201.32 155.9 211.83C160.32 222.34 136.35 225.24 140.35 228.49C144.34 231.74 181.67 237.9 181.67 237.9L194.71 233.8L194.7 233.79Z" fill="#B6E5FF"/>
</g>
<g clip-path="url(#clip7_381_300)">
<path d="M218.47 127.7C226.72 128.76 240.96 127.26 247.06 126.38C259.59 125.06 263.68 131.67 258.03 131.67C252.38 131.67 224.45 131.89 209.83 131.67C195.2 131.45 194.21 128.8 201.52 129.24C208.83 129.68 208.17 126.37 218.47 127.7V127.7Z" fill="#B6E5FF"/>
<path d="M199.02 140.94L199.8 135.35L201.09 140.14L202.53 133.41L203.53 139.78L205.04 134.78L205.87 140.93H199V140.95L199.02 140.94Z" fill="#258AC2"/>
<path d="M181.69 189.73L182.44 184.36L183.68 188.97L185.07 182.52L186.01 188.61L187.46 183.82L188.24 189.73H181.7H181.69Z" fill="white"/>
<path d="M207.2 141.26L207.8 136.87L208.79 140.64L209.9 135.36L210.65 140.34L211.81 136.42L212.44 141.25H207.21L207.2 141.26Z" fill="white"/>
<path d="M258.6 100.34L259.29 95.91L260.41 99.72L261.67 94.39L262.52 99.42L263.84 95.46L264.55 100.34H258.59H258.6Z" fill="white"/>
<path d="M231.51 95.7701L221.23 95.3701L212.69 95.05V89.8901C211.22 91.0001 209.2 90.4501 207.89 89.1301C202.73 83.9701 210.95 65.3101 210.95 65.3101C211.94 62.9301 213.17 61.38 217.38 61.66C223.38 62.06 230.96 65.07 230.28 68.97C229.33 74.37 229.84 82.2301 230.48 88.0301C230.96 92.5201 231.51 95.7701 231.51 95.7701V95.7701Z" fill="#FED7AA"/>
<path d="M231.83 96.29L231.47 95.97L212.53 95.22V90.22C210.98 91.13 209 90.4601 207.8 89.2701C205.62 87.0901 205.46 82.36 207.32 75.25C208.71 69.97 210.78 65.28 210.78 65.24C211.89 62.58 213.28 61.19 217.41 61.47C221.78 61.75 227.54 63.5401 229.68 66.2801C230.36 67.1501 230.63 68.07 230.47 68.98C229.52 74.38 230.03 82.28 230.67 88C231.15 92.41 231.7 95.7 231.7 95.74L231.82 96.3L231.83 96.29ZM212.93 94.86L231.32 95.5701C231.2 94.7401 230.72 91.8 230.33 88.06C229.69 82.34 229.18 74.4 230.13 68.92C230.29 68.13 230.05 67.29 229.42 66.54C227.35 63.88 221.68 62.1701 217.43 61.8901C213.5 61.6101 212.27 62.88 211.2 65.42C211.12 65.62 203.1 84.0001 208.1 89.0101C209.29 90.1601 211.2 90.8 212.63 89.72L212.95 89.48V94.8401L212.93 94.86Z" fill="#1E293B"/>
<path d="M215.79 71.8699C215.79 71.8699 212.69 69.4499 213.33 75.7199C213.69 79.2099 215.79 79.2499 215.79 79.2499" fill="#FED7AA"/>
<path d="M215.79 79.4499C215.71 79.4499 213.49 79.4099 213.13 75.7599C212.89 73.2999 213.17 71.8299 214 71.3499C214.83 70.8699 215.87 71.6699 215.91 71.7099L215.67 72.03C215.67 72.03 214.8 71.3499 214.2 71.7099C213.72 71.9499 213.25 72.8599 213.52 75.7199C213.84 78.9799 215.7 79.0499 215.78 79.0499V79.4499H215.79Z" fill="#1E293B"/>
<path d="M231.51 95.77L221.23 95.37L230.48 88.02C230.96 92.51 231.51 95.76 231.51 95.76V95.77Z" fill="#1E293B"/>
<path d="M215.11 72.9399C215.11 72.9399 214.08 72.2199 214.08 74.6899L215.11 72.9399Z" fill="#FED7AA"/>
<path d="M214.24 74.69H213.84C213.84 73.58 214.04 72.94 214.48 72.75C214.76 72.59 215.08 72.71 215.23 72.79L214.99 73.11L215.11 72.95L214.99 73.11C214.99 73.11 214.79 72.99 214.67 73.07C214.51 73.15 214.23 73.43 214.23 74.7L214.24 74.69Z" fill="#1E293B"/>
<path d="M293.28 137.27C292.64 136.36 265.44 105.66 256.59 98.71C254.96 97.44 254.57 96.6799 251.98 95.9299C249.76 95.2999 227.52 93.71 227.52 93.71H212.71C212.71 93.71 190.47 95.2599 188.25 95.9299C185.67 96.6899 185.31 97.4 183.64 98.71C174.74 105.66 148.3 138.58 147.66 139.49C146.91 140.6 144.32 144.1 147.66 148.98C151 153.86 178.63 173.8 178.63 173.8L188.96 180.91H255.59C255.59 180.91 263.29 174.32 271.79 166.89C277.43 161.93 283.43 156.61 287.67 152.6C290.53 149.9 292.59 147.8 293.27 146.76C296.6 141.88 294.02 138.38 293.27 137.27H293.28ZM189.01 146.48L179.44 141.32L189.01 129.53V146.49V146.48ZM255.01 146.48L254.65 132.11L264.22 139.5L255.01 146.49V146.48Z" fill="#FB7200"/>
<path d="M188.39 180.75L183.23 222.64H219.17L221.55 197.27L224.81 222.64H258.56L255.03 180.75H188.4H188.39Z" fill="#1E293B"/>
<path d="M287.07 152.44C282.82 156.49 276.83 161.81 271.19 166.73L268.45 155.29L287.07 152.43V152.44Z" fill="#0F172A"/>
<path d="M197.09 94.86C197.09 94.86 226.71 91.84 239.54 94.86C252.37 97.88 259.79 114.6 260.9 128.81C262.01 143.03 282.98 158.51 274.16 171.14C265.3 183.77 231.75 185.24 220.28 182.77C208.84 180.31 197.09 94.86 197.09 94.86V94.86Z" fill="#FB923C"/>
<path d="M197.09 94.86C197.09 94.86 220.91 114.99 221.19 136.59C221.47 158.19 237.23 181.62 226.83 182.81C211.1 184.68 195.42 179.91 195.42 179.91L197.09 94.85V94.86Z" fill="#1E293B"/>
<path d="M223.97 134.09C223.85 134.09 223.77 134.01 223.77 133.89C223.77 133.77 223.85 133.69 223.97 133.69L259.31 132.42C259.43 132.42 259.51 132.5 259.51 132.62C259.51 132.74 259.43 132.82 259.31 132.82L223.97 134.09Z" fill="black"/>
<path d="M227.07 130.87C227.07 130.87 228.58 140.72 230.37 142.66L236.72 141.23C236.72 141.23 234.73 135.75 233.78 129.44L227.07 130.87Z" fill="#1E293B"/>
<path d="M250.41 126.15C250.41 126.15 251.92 136 253.71 137.94L258.47 137.15C258.47 137.15 256.48 131.67 255.53 125.36L250.41 126.15V126.15Z" fill="#1E293B"/>
<path d="M265.35 154.1H234.42V157.83H265.35V154.1Z" fill="#1E293B"/>
<path d="M203.2 152.36C203.2 152.36 201.57 140.73 210.27 140.73C218.97 140.73 217.81 152.36 217.81 152.36H203.2Z" fill="#D0EEFF"/>
<path d="M217.97 152.55H203L202.96 152.39C202.92 152.15 202.13 146.04 205.06 142.66C206.29 141.23 208.04 140.52 210.22 140.52C212.4 140.52 214.19 141.24 215.46 142.66C218.52 146.04 217.96 152.11 217.96 152.35V152.55H217.97ZM203.36 152.15H217.62C217.7 151.12 217.9 145.88 215.2 142.94C213.97 141.59 212.3 140.92 210.24 140.92C208.18 140.92 206.55 141.6 205.4 142.94C202.86 145.88 203.26 151.16 203.38 152.15H203.36Z" fill="black"/>
<path d="M220.2 150.61H200.31V154.1H220.2V150.61Z" fill="#D0EEFF"/>
<path d="M220.4 154.3H200.11V150.41H220.4V154.3ZM200.51 153.9H220.01V150.8H200.51V153.9Z" fill="black"/>
<path d="M211.9 136.71H208.33C207.61 136.71 207.02 137.31 207.02 138.02V139.85C207.02 140.57 207.62 141.16 208.33 141.16H211.9C212.61 141.16 213.21 140.56 213.21 139.85V138.02C213.17 137.31 212.61 136.71 211.9 136.71Z" fill="#D0EEFF"/>
<path d="M211.9 141.36H208.33C207.5 141.36 206.82 140.69 206.82 139.85V138.02C206.82 137.19 207.5 136.51 208.33 136.51H211.9C212.73 136.51 213.41 137.19 213.41 138.02V139.85C213.37 140.68 212.69 141.36 211.9 141.36ZM208.29 136.91C207.69 136.91 207.18 137.39 207.18 138.02V139.85C207.18 140.45 207.66 140.96 208.29 140.96H211.86C212.46 140.96 212.97 140.48 212.97 139.85V138.02C212.97 137.42 212.49 136.91 211.86 136.91H208.29Z" fill="black"/>
<path d="M188.39 136.08C188.39 136.08 190.34 140.41 196.17 141.16L195.93 154.1L188.39 146.32C188.39 146.32 187.28 140.96 188.39 136.08V136.08Z" fill="#1E293B"/>
<path d="M229.85 81.56L216.94 81.2C216.94 81.2 219.88 73.46 216.94 70.52C214 67.58 210.51 69.01 210.94 65.32C211.42 61.63 212.89 55.55 223.93 60.51C235.01 65.51 234.25 75.04 229.85 81.56Z" fill="#0F172A"/>
<path d="M188.07 150.61H187.67V173.01H188.07V150.61Z" fill="#1E293B"/>
<path d="M175.45 108.64L175.13 108.36C175.41 108.04 182.2 100.18 185.53 99.0701L185.65 99.4301C182.43 100.54 175.53 108.56 175.45 108.64V108.64Z" fill="white"/>
<path d="M213.45 63.33L213.05 63.2499C213.05 63.1699 213.45 61.2199 215.08 60.3099C216.11 59.7099 217.42 59.6799 218.93 60.1899L218.81 60.5499C217.42 60.0699 216.23 60.1099 215.28 60.6299C213.85 61.4599 213.45 63.29 213.45 63.33V63.33Z" fill="white"/>
<g clip-path="url(#clip8_381_300)">
<path d="M205.54 226.25C205.54 226.25 165.69 203.21 166.87 200.86C168.05 198.48 156.67 198.25 154.29 193.97C151.91 189.69 143.6 183.05 139.81 182.11C136.02 181.16 81.46 167.63 74.34 150.54C67.22 133.45 68.16 143.19 53.1 132.14C38.06 121.1 -2.02002 82.86 -2.02002 82.86L-0.590019 237.89L205.54 226.26V226.25Z" fill="#1E293B"/>
<path d="M99.4799 186.4C99.4799 186.4 72.0599 172.2 70.2399 163.62C68.4199 155.04 31.8999 136.05 31.8999 136.05C31.8999 136.05 62.4499 162.78 63.1899 173.15C63.9099 183.5 92.7899 185.94 99.4699 186.4H99.4799Z" fill="#0F172A"/>
<path d="M138.17 197.09L89.7598 215.8C89.7598 215.8 153 212.62 147.65 206.57C144.09 202.52 138.17 197.09 138.17 197.09Z" fill="#0F172A"/>
<path d="M109.11 218.66L95.5801 116.8C95.5801 116.8 96.0701 114.67 98.6801 115.9L112.9 217.22L109.11 218.65V218.66Z" fill="#1E293B"/>
<path d="M99.7598 136.51L124.05 126.54L131.87 129.38L126.9 137.22L101.51 147.91L99.7698 136.51H99.7598Z" fill="#FB923C"/>
<path d="M101.42 148.09L99.6299 136.43L99.7299 136.38L124.07 126.39L132.09 129.31L126.99 137.3L126.96 137.33L101.41 148.09H101.42ZM99.9099 136.58L101.63 147.7L126.82 137.09L131.69 129.43L124.05 126.66L99.9099 136.58Z" fill="#1E293B"/>
<path d="M98.19 122.98L75.67 116.09L67.75 119.52L73.31 125.82L99.78 134.12L98.19 122.97V122.98Z" fill="#FB923C"/>
<path d="M99.91 134.33L73.21 125.95L67.52 119.49L75.64 115.95L75.69 115.98L98.29 122.9L99.9 134.33H99.91ZM73.36 125.72L99.6 133.97L98.09 123.08L75.67 116.24L67.96 119.6L73.37 125.72H73.36Z" fill="#1E293B"/>
</g>
</g>
<defs>
<clipPath id="clip0_381_300">
<rect width="71" height="70" fill="white" transform="translate(137 61)"/>
</clipPath>
<clipPath id="clip1_381_300">
<rect width="453" height="239" fill="white" transform="translate(36 -5)"/>
</clipPath>
<clipPath id="clip2_381_300">
<rect width="417" height="206" fill="white" transform="translate(-77 19)"/>
</clipPath>
<clipPath id="clip3_381_300">
<rect width="518" height="129" fill="white" transform="translate(-30 113)"/>
</clipPath>
<clipPath id="clip4_381_300">
<rect width="241" height="267" fill="white" transform="translate(152 12)"/>
</clipPath>
<clipPath id="clip5_381_300">
<rect width="230" height="206" fill="white" transform="translate(197 50)"/>
</clipPath>
<clipPath id="clip6_381_300">
<rect width="199" height="195" fill="white" transform="translate(36 45)"/>
</clipPath>
<clipPath id="clip7_381_300">
<rect width="375" height="823" fill="white" transform="translate(0 -600)"/>
</clipPath>
<clipPath id="clip8_381_300">
<rect width="375" height="812" fill="white" transform="translate(0 -600)"/>
</clipPath>
</defs>
</svg>
