<?xml version="1.0" encoding="UTF-8"?><svg id="Layer_2" xmlns="http://www.w3.org/2000/svg" xmlns:xlink="http://www.w3.org/1999/xlink" viewBox="0 0 1290 800"><defs><style>.cls-1{fill:none;}.cls-2{clip-path:url(#clippath);}.cls-3{fill:#fb7200;}.cls-4{fill:#fb923c;}.cls-5{fill:#eaf7ff;}.cls-6{fill:#fff;}.cls-7{fill:#fed7aa;}.cls-8{fill:#b6e5ff;}.cls-9{fill:#d0eeff;}.cls-10{fill:#1e293b;}.cls-11{fill:#0f172a;}.cls-12{fill:#258ac2;}.cls-13{clip-path:url(#clippath-1);}.cls-14{clip-path:url(#clippath-4);}.cls-15{clip-path:url(#clippath-3);}.cls-16{clip-path:url(#clippath-2);}.cls-17{clip-path:url(#clippath-7);}.cls-18{clip-path:url(#clippath-8);}.cls-19{clip-path:url(#clippath-6);}.cls-20{clip-path:url(#clippath-5);}</style><clipPath id="clippath"><rect class="cls-1" width="1290" height="800"/></clipPath><clipPath id="clippath-1"><rect class="cls-1" x="-148.15" y="1.45" width="1440" height="800"/></clipPath><clipPath id="clippath-2"><rect class="cls-1" x="-148.15" y="4.45" width="1440" height="800"/></clipPath><clipPath id="clippath-3"><rect class="cls-1" x="-150.15" y="3.25" width="1440" height="800"/></clipPath><clipPath id="clippath-4"><rect class="cls-1" x="-148.15" y=".45" width="1440" height="800"/></clipPath><clipPath id="clippath-5"><rect class="cls-1" x="-148.15" y="1.45" width="1440" height="800"/></clipPath><clipPath id="clippath-6"><rect class="cls-1" x="-149.63" y="3.25" width="1440" height="800"/></clipPath><clipPath id="clippath-7"><rect class="cls-1" x="-148.15" y="7.45" width="1440" height="800"/></clipPath><clipPath id="clippath-8"><rect class="cls-1" x="-149.35" y="3.25" width="1440" height="800"/></clipPath></defs><g id="Layer_2-2"><g class="cls-2"><g><path class="cls-7" d="M683.95,489.35c0,45.2-36.6,81.9-81.7,81.9s-81.7-36.7-81.7-81.9,36.6-81.9,81.7-81.9,81.7,36.7,81.7,81.9Z"/><g class="cls-13"><g><path class="cls-9" d="M1019.85,800.85l-1232,28,15-321S-95.95,401.15-16.85,320.75c48.1-48.9,88.1-88.2,92.2-87.8,6.4,.5,68.5,46.9,120.7,85.7,35.2,26.2,65.9,48.9,72,51.8,15,7.2,14.1-2.7,23.1-13.5s31.5-48.5,39.6-43.1c8,5.3,689.1,487,689.1,487Z"/><path class="cls-12" d="M203.27,379.38l-4.8,20.44h11.37l-6.58-20.44h0Z"/><path class="cls-12" d="M204.78,395.29h-1.69v9.06h1.69v-9.06Z"/><path class="cls-6" d="M331.27,501.38l-4.8,20.44h11.37l-6.58-20.44h0Z"/><path class="cls-6" d="M332.78,517.29h-1.69v9.06h1.69v-9.06Z"/><path class="cls-12" d="M183.73,365.61l-5.45,23.2h12.91l-7.47-23.2h.01Z"/><path class="cls-12" d="M185.45,383.67h-1.92v10.29h1.92v-10.29Z"/><path class="cls-12" d="M89.3,389.85l-5.45,23.2h12.91l-7.46-23.2Z"/><path class="cls-12" d="M91.01,407.91h-1.92v10.29h1.92v-10.29Z"/><path class="cls-6" d="M170.3,355.85l-5.45,23.2h12.91l-7.46-23.2Z"/><path class="cls-6" d="M172.01,373.91h-1.92v10.29h1.92v-10.29Z"/><path class="cls-12" d="M311.73,487.61l-5.45,23.2h12.91l-7.47-23.2h.01Z"/><path class="cls-12" d="M313.45,505.67h-1.92v10.29h1.92v-10.29Z"/><path class="cls-5" d="M363.85,450.35l-72.5-58.5,69.5,49.5,3-13.5,129.5,108.5h-20l-105-95-4.5,9h0Z"/><path class="cls-12" d="M188.85,487.86l1.45-10.4,2.39,8.9,2.67-12.52,1.85,11.84,2.8-9.31,1.54,11.43h-12.7v.05h0Z"/><path class="cls-6" d="M213.85,466.85l1.27-9.68,2.08,8.32,2.33-11.64,1.57,10.99,2.43-8.65,1.32,10.66h-11Z"/><path class="cls-6" d="M201.85,474.07l1.38-10.43,2.27,8.96,2.54-12.54,1.71,11.83,2.65-9.31,1.44,11.48h-11.99Z"/><path class="cls-8" d="M3.35,490.23l-18.21-21.46H-2.83l-14.96-17.56H-9.34l-10.57-12.36-10.57,12.36h8.45l-14.96,17.56h12.03l-18.21,21.46H-22.68v17.88h3.9v-17.88H3.35Z"/><path class="cls-8" d="M54.85,403.85c-12,5.6,7-112.83,19-172.5l-223,226.5-41,365c217.67,7.33,636.4,20.4,570,14-83-8-166-177-211-226s-14-69-60-78-25-6-33-60-6-76-21-69h0Z"/><path class="cls-8" d="M213.45,331.55c-3.1,.1-6.8-.3-11.4-1.3,0,0-35-18.6-39.1-7.3s11.8,32.8-24.3,21.5c-36.1-11.3-20.7,3.4-26.4,13-5.6,9.6-41.6-50.1-65.6-47.9s-44.5,33.4-75.8,24.5c54.9-55.8,100.4-100.6,105-100.2,7.4,.6,78.1,53.5,137.6,97.7h0Z"/><path class="cls-5" d="M620.35,541.85c-4.4,2-122.83-100.5-181.5-152l192,135c-2.83,5.17-6.1,15-10.5,17Z"/></g></g><g class="cls-16"><g><path class="cls-9" d="M1557.75,803.95H335.75s434.3-401.2,452.3-417c17.9-15.8,19.5-6.7,27.1,0s24.4,31.7,32.9,28.5c8.4-3.2,114.9-89.2,121.5-86.4,6.5,2.8,25.2,26.2,37.4,18.7,12.2-7.5,271-189.9,271-189.9l42.7,67.9,142.6,226.6,94.5,351.6h0Z"/><path class="cls-5" d="M669.75,495.95c29.17-23.33,91.9-74.7,109.5-93.5,15.54-16.6,29.36-17.01,36.17-14.58-7.86-14.47-18.06-10.64-22.17-6.92l-123.5,115Z"/><path class="cls-8" d="M1231.75,397.95c19.2,4.8,37.33-140.67,44-214l54,50v316h-372c20,0,77-103,95-75s91-37,125-77,30-6,54,0Z"/><path class="cls-12" d="M1121.54,313.95l-4.79,20.4h11.36l-6.57-20.4Z"/><path class="cls-12" d="M1123.05,329.83h-1.69v9.05h1.69v-9.05Z"/><path class="cls-12" d="M1085.81,437.36l-6.06,25.8h14.36l-8.3-25.8h0Z"/><path class="cls-12" d="M1087.71,457.44h-2.13v11.44h2.13v-11.44Z"/><path class="cls-12" d="M1092.94,342.95l-5.19,22.1h12.3l-7.11-22.1h0Z"/><path class="cls-12" d="M1094.57,360.15h-1.83v9.8h1.83v-9.8Z"/><path class="cls-12" d="M1102.63,425.95l-6.88,29.29h16.3l-9.42-29.29Z"/><path class="cls-12" d="M1104.79,448.74h-2.42v12.99h2.42v-12.99Z"/><path class="cls-12" d="M954.36,388.95l-5.61,23.9h13.3l-7.69-23.9h0Z"/><path class="cls-12" d="M956.13,407.55h-1.97v10.6h1.97v-10.6Z"/><path class="cls-12" d="M782.36,463.95l-5.61,23.9h13.3l-7.69-23.9Z"/><path class="cls-12" d="M784.13,482.55h-1.97v10.6h1.97v-10.6Z"/><path class="cls-6" d="M1109.31,324.95l-5.56,23.68h13.18l-7.62-23.68Z"/><path class="cls-6" d="M1111.32,348.63h-1.96v10.5h1.96v-10.5Z"/><path class="cls-6" d="M1117.72,409.95l-5.56,23.68h13.18l-7.62-23.68Z"/><path class="cls-6" d="M1119.73,433.63h-1.96v10.5h1.96v-10.5Z"/><path class="cls-8" d="M1278.25,156.95l-153.5,108c23,10,45-25,60.5-18,9.11,4.12,0,33.75,12,41,20,12.08,27.66-14.77,54-8.5,21,5,8.5,30,36,24.5,22-4.4,64.17,1.83,82.5,5.5l-91.5-152.5Z"/><path class="cls-6" d="M961.75,411.95l1.73-11.17,2.83,9.6,3.18-13.43,2.14,12.68,3.32-9.98,1.8,12.3h-15Z"/><path class="cls-6" d="M789.75,486.95l1.73-11.17,2.83,9.6,3.18-13.43,2.14,12.68,3.32-9.98,1.8,12.3h-15Z"/><path class="cls-6" d="M941.75,426.95l1.73-11.17,2.83,9.6,3.18-13.43,2.14,12.68,3.32-9.98,1.8,12.3h-15Z"/><path class="cls-6" d="M769.75,501.95l1.73-11.17,2.83,9.6,3.18-13.43,2.14,12.68,3.32-9.98,1.8,12.3h-15Z"/></g></g><g class="cls-15"><g><path class="cls-9" d="M-214.15,580.15s517.1-45.2,577.6-47.5c60.5-2.3,189.1,5.2,214.5,0s232.4-11.7,271.6-9.6c39.2,2.2,118.4,9.4,180.8,10.9s311.5-10.9,311.5-10.9l25,370.1-1564-6-17-307h0Z"/><path class="cls-8" d="M545.29,534.73c25.21,3.23,68.77-1.35,87.41-4.04,38.3-4.04,50.82,16.17,33.54,16.17s-102.65,.67-147.37,0c-44.72-.67-47.77-8.76-25.41-7.41,22.36,1.35,20.33-8.76,51.83-4.72h0Z"/><path class="cls-12" d="M76.85,562.67l2.43-17.45,4.02,14.94,4.47-21.01,3.11,19.87,4.7-15.63,2.58,19.19h-21.31v.08h0Z"/><path class="cls-12" d="M14.85,723.15l2.96-20.77,4.9,17.79,5.46-25.02,3.79,23.66,5.74-18.61,3.15,22.85H14.85v.09h0Z"/><path class="cls-12" d="M384.85,713.45l3.03-21.74,5.01,18.62,5.58-26.18,3.88,24.76,5.86-19.47,3.21,23.91h-26.56v.1h-.01Z"/><path class="cls-12" d="M243.85,631.45l3.02-21.74,5.01,18.62,5.58-26.18,3.88,24.76,5.86-19.47,3.21,23.91h-26.56v.1h0Z"/><path class="cls-12" d="M850.85,699.45l3.02-21.74,5.01,18.62,5.58-26.18,3.88,24.76,5.86-19.47,3.21,23.91h-26.56v.1h0Z"/><path class="cls-12" d="M901.85,533.15l1.48-10.39,2.45,8.9,2.73-12.51,1.9,11.83,2.87-9.3,1.57,11.43h-13v.05h0Z"/><path class="cls-12" d="M485.85,575.15l2.39-17.06,3.96,14.62,4.41-20.55,3.06,19.44,4.63-15.28,2.54,18.77h-21v.07h.01Z"/><path class="cls-12" d="M1151.23,598.15l-13.38,56.98h31.71l-18.33-56.98Z"/><path class="cls-12" d="M1156.19,647.01h-4.71v25.27h4.71v-25.27Z"/><path class="cls-12" d="M1070.57,598.15l-14.72,62.71h34.9l-20.18-62.71Z"/><path class="cls-12" d="M1076.04,651.92h-5.18v27.81h5.18v-27.81Z"/><path class="cls-12" d="M1101.57,581.15l-14.72,62.71h34.9l-20.18-62.71Z"/><path class="cls-12" d="M1107.04,634.92h-5.18v27.81h5.18v-27.81Z"/><path class="cls-6" d="M1117.24,609.54l-14.72,62.71h34.9l-20.18-62.71Z"/><path class="cls-6" d="M1121.88,658.34h-5.18v27.81h5.18v-27.81Z"/><path class="cls-8" d="M172.99,645.71c-12.8,2.8-25.67,7.5-30.5,9.5-12.5,4.53,163.5,2.5,172.5,0s-22-9.5-40-7-56-10-65.5-9-20.5,3-36.5,6.5Z"/><path class="cls-8" d="M1016.99,691.71c-12.8,2.8-25.67,7.5-30.5,9.5-12.5,4.53,163.5,2.5,172.5,0s-22-9.5-40-7-56-10-65.5-9-20.5,3-36.5,6.5Z"/><path class="cls-12" d="M-9.99,535.15l-16.16,68.81H12.14l-22.14-68.81h0Z"/><path class="cls-12" d="M284.4,570.23l-10.55,44.92h25l-14.45-44.92Z"/><path class="cls-12" d="M288.31,608.75h-3.71v19.92h3.71v-19.92Z"/><path class="cls-6" d="M100.85,560.94l1.84-13.41,3.02,11.52,3.39-16.12,2.29,15.21,3.54-11.97,1.92,14.76h-16Z"/><path class="cls-6" d="M432.85,724.15l2.3-16.38,3.78,14.08,4.24-19.7,2.86,18.59,4.42-14.64,2.4,18.04h-20Z"/><path class="cls-6" d="M278.85,638.15l2.3-16.39,3.78,14.08,4.24-19.7,2.86,18.59,4.42-14.64,2.4,18.04h-20v.02h0Z"/><path class="cls-6" d="M155.85,662.15l2.77-19.36,4.53,16.64,5.09-23.28,3.43,21.98,5.31-17.3,2.88,21.32h-24.01Z"/><path class="cls-6" d="M884.85,708.15l2.3-16.38,3.78,14.08,4.24-19.7,2.86,18.59,4.42-14.64,2.4,18.04h-20Z"/><path class="cls-6" d="M894.85,555.15l1.96-13.41,3.21,11.52,3.6-16.12,2.43,15.21,3.76-11.97,2.04,14.76h-17Z"/><path class="cls-6" d="M920.85,519.15l1.96-13.41,3.21,11.52,3.6-16.12,2.43,15.21,3.76-11.97,2.04,14.76h-17Z"/><path class="cls-6" d="M964.85,556.15l1.96-14.15,3.21,12.16,3.6-17.01,2.43,16.06,3.76-12.64,2.04,15.58h-17Z"/><path class="cls-6" d="M510.85,576.15l1.84-13.41,3.02,11.52,3.39-16.12,2.29,15.21,3.54-11.97,1.92,14.76h-16Z"/><path class="cls-6" d="M116.85,569.94l2.07-15.64,3.4,13.44,3.82-18.8,2.57,17.75,3.98-13.97,2.16,17.22h-18Z"/><path class="cls-6" d="M-2.15,736.15l2.99-23.09,4.91,19.85,5.51-27.76,3.71,26.2,5.75-20.62,3.12,25.42H-2.15Z"/></g></g><g class="cls-14"><path class="cls-8" d="M552.6,862.05s17.5,27.5,54.3,11.8,99-49,17-48-131.1-58.6-63.5-74c67.6-15.4,25.6-43.7,0-76.5s-113.1-44.6-68-62-92.4-57.6-117.5-58.5c-25.1-.9-65.3-36-90.9-39.7-26.3-3.8-48.2-42,0-59.4,18.8-6.8,23.2-20.2-58.4-36.9-95.3-19.5-97.3-90.2-97.3-90.2l-22.5,6.1s43.6,66.3,95.3,86.1c109.6,42-19.3,54.2-6.6,95.2,12.7,41.1,55.3-5.8,69.4,23.3,61.2,7.9,20.2,27.4,69.6,27.4,57.2-6,135.9,28.3,109.2,36.5-26.6,8.2-77.1,17.9-20.2,42.5,56.9,24.6,86.6,73.8,56,80s-326.6,5.5-252.8,40.4c73.8,34.9,204.6,4.1,217.1,33.8s-55.3,37.9-44,47.1c11.3,9.2,116.9,26.6,116.9,26.6l36.9-11.6Z"/></g><g class="cls-20"><path class="cls-8" d="M515.35,975.85s11.2-98.2,89.7-108.5,22.6-39.5-36.3-39.4c-59,.1-22.4-44.2,115.4-43.1,137.8,1.1-128.6-41-72.5-64.3s175.6-14.7,112.5-37.7c-63-23.1-124.1-44.6-56.7-63.3,67.5-18.7,106.7,8.3,94.6-26.3-12.1-34.6,15.9-16.1,46.7-19.7,30.8-3.6,15.9-75.6,77.5-96.2,61.7-20.6,106.3-84,151.1-85.9,61.6,0,97-25,97-76.5,0-55,40-76,40-76l16.5,3.5s-39.12,10-42,63c-5.11,94-79.01,92.7-104.5,102-48.6,17.8-59,62.4-96.4,76.4s-100,42.1-56.1,86.1-72.7,20.4-63,38.2c9.7,17.9,72.3,41.3-8,46.9-80.4,5.6-56.1,35.5,4.7,49.6,60.7,14,105.9,27.1,93.6,46.8-12.3,19.6-154.7-33.7-145.6,0,9.1,33.7,166,26.2,163.2,50.5s-221.5,28.1-194.4,44.9c27.1,16.8,116.8,33.7,211.2,21.5,94.4-12.2-11.3,109.4,127,119.7l-565.2-12.2h0Z"/></g><g class="cls-19"><g><path class="cls-10" d="M656.37,858.85s-155.5-89.9-150.9-99.1c4.6-9.3-39.8-10.2-49.1-26.9s-41.7-42.6-56.5-46.3-227.7-56.5-255.5-123.2-24.1-28.7-82.9-71.8c-58.7-43.1-215.1-192.3-215.1-192.3l5.6,605,804.4-45.4h0Z"/><path class="cls-11" d="M242.47,703.35s-107-55.4-114.1-88.9S-21.23,506.85-21.23,506.85c0,0,119.2,104.3,122.1,144.8,2.8,40.4,115.5,49.9,141.6,51.7Z"/><path class="cls-11" d="M393.47,745.05l-188.9,73s246.8-12.4,225.9-36c-13.9-15.8-37-37-37-37Z"/><path class="cls-10" d="M280.07,829.25l-52.8-397.5s1.9-8.3,12.1-3.5l55.5,395.4-14.8,5.6h0Z"/><path class="cls-4" d="M243.57,508.65l94.8-38.9,30.5,11.1-19.4,30.6-99.1,41.7-6.8-44.5Z"/><path class="cls-10" d="M250.07,553.85l-7-45.5,.4-.2,95-39,31.3,11.4-19.9,31.2-.1,.1-99.7,42Zm-5.9-44.9l6.7,43.4,98.3-41.4,19-29.9-29.8-10.8-94.2,38.7h0Z"/><path class="cls-4" d="M237.47,455.85l-87.9-26.9-30.9,13.4,21.7,24.6,103.3,32.4-6.2-43.5h0Z"/><path class="cls-10" d="M244.17,500.15l-104.2-32.7-22.2-25.2,31.7-13.8,.2,.1,88.2,27,6.3,44.6h0Zm-103.6-33.6l102.4,32.2-5.9-42.5-87.5-26.7-30.1,13.1,21.1,23.9Z"/></g></g><g class="cls-17"><g><path class="cls-10" d="M700.85,821.52s165-110,189-144,95-49,119-60,103-119,166-140,247-144,266-200,15,672,15,672l-755-128Z"/><path class="cls-11" d="M887.35,801.22s116.4-132.5,178.5-143.6c62-11.1,85.5-104.8,168.3-125.5s106.7-59.7,106.7-59.7c0,0-54.5,94.1-113.7,105.6s-48.2,80.7-101.8,90.6c-53.6,9.9-28.5,167.9-28.5,167.9l-209.5-35.3h0Z"/><path class="cls-11" d="M1210.75,668.62l96.1,22.1c.1,0-46.1,29-96.1-22.1Z"/></g></g><g class="cls-18"><g><path class="cls-6" d="M766.65,505.26l1.73-11.17,2.83,9.6,3.18-13.43,2.14,12.68,3.32-9.98,1.8,12.3h-15Z"/><path class="cls-7" d="M698.45,493.76l-25.9-1-21.5-.8v-13c-3.7,2.8-8.8,1.4-12.1-1.9-13-13,7.7-60,7.7-60,2.5-6,5.6-9.9,16.2-9.2,15.1,1,34.2,8.6,32.5,18.4-2.4,13.6-1.1,33.4,.5,48,1.2,11.3,2.6,19.5,2.6,19.5Z"/><path class="cls-10" d="M699.25,495.06l-.9-.8-47.7-1.9v-12.6c-3.9,2.3-8.9,.6-11.9-2.4-5.5-5.5-5.9-17.4-1.2-35.3,3.5-13.3,8.7-25.1,8.7-25.2,2.8-6.7,6.3-10.2,16.7-9.5,11,.7,25.5,5.2,30.9,12.1,1.7,2.2,2.4,4.5,2,6.8-2.4,13.6-1.1,33.5,.5,47.9,1.2,11.1,2.6,19.4,2.6,19.5l.3,1.4h0Zm-47.6-3.6l46.3,1.8c-.3-2.1-1.5-9.5-2.5-18.9-1.6-14.4-2.9-34.4-.5-48.2,.4-2-.2-4.1-1.8-6-5.2-6.7-19.5-11-30.2-11.7-9.9-.7-13,2.5-15.7,8.9-.2,.5-20.4,46.8-7.8,59.4,3,2.9,7.8,4.5,11.4,1.8l.8-.6v13.5h0Z"/><path class="cls-7" d="M658.85,433.56s-7.8-6.1-6.2,9.7c.9,8.8,6.2,8.9,6.2,8.9"/><path class="cls-10" d="M658.85,452.66c-.2,0-5.8-.1-6.7-9.3-.6-6.2,.1-9.9,2.2-11.1,2.1-1.2,4.7,.8,4.8,.9l-.6,.8s-2.2-1.7-3.7-.8c-1.2,.6-2.4,2.9-1.7,10.1,.8,8.2,5.5,8.4,5.7,8.4v1Z"/><path class="cls-10" d="M698.45,493.76l-25.9-1,23.3-18.5c1.2,11.3,2.6,19.5,2.6,19.5h0Z"/><path class="cls-7" d="M657.15,436.26s-2.6-1.8-2.6,4.4l2.6-4.4Z"/><path class="cls-10" d="M654.95,440.66h-1c0-2.8,.5-4.4,1.6-4.9,.7-.4,1.5-.1,1.9,.1l-.6,.8,.3-.4-.3,.4s-.5-.3-.8-.1c-.4,.2-1.1,.9-1.1,4.1h0Z"/><path class="cls-3" d="M853.99,598.26c-1.6-2.3-70.1-79.6-92.4-97.1-4.1-3.2-5.1-5.1-11.6-7-5.6-1.6-61.6-5.6-61.6-5.6h-37.3s-56,3.9-61.6,5.6c-6.5,1.9-7.4,3.7-11.6,7-22.4,17.5-89,100.4-90.6,102.7-1.9,2.8-8.4,11.6,0,23.9,8.4,12.3,78,62.5,78,62.5l26,17.9h167.8s19.4-16.6,40.8-35.3c14.2-12.5,29.3-25.9,40-36,7.2-6.8,12.4-12.1,14.1-14.7,8.4-12.3,1.9-21.1,0-23.9h0Zm-262.6,23.2l-24.1-13,24.1-29.7v42.7Zm166.2,0l-.9-36.2,24.1,18.6-23.2,17.6h0Z"/><path class="cls-10" d="M589.85,707.76l-13,105.5h90.5l6-63.9,8.2,63.9h85l-8.9-105.5h-167.8Z"/><path class="cls-11" d="M838.35,636.46c-10.7,10.2-25.8,23.6-40,36l-6.9-28.8,46.9-7.2Z"/><path class="cls-4" d="M611.75,491.46s74.6-7.6,106.9,0,51,49.7,53.8,85.5,55.6,74.8,33.4,106.6c-22.3,31.8-106.8,35.5-135.7,29.3-28.8-6.2-58.4-221.4-58.4-221.4h0Z"/><path class="cls-10" d="M611.75,491.46s60,50.7,60.7,105.1,40.4,113.4,14.2,116.4c-39.6,4.7-79.1-7.3-79.1-7.3l4.2-214.2h0Z"/><path d="M679.45,590.26c-.3,0-.5-.2-.5-.5s.2-.5,.5-.5l89-3.2c.3,0,.5,.2,.5,.5s-.2,.5-.5,.5l-89,3.2Z"/><path class="cls-10" d="M687.25,582.16s3.8,24.8,8.3,29.7l16-3.6s-5-13.8-7.4-29.7l-16.9,3.6h0Z"/><path class="cls-10" d="M746.05,570.26s3.8,24.8,8.3,29.7l12-2s-5-13.8-7.4-29.7l-12.9,2h0Z"/><path class="cls-10" d="M783.65,640.66h-77.9v9.4h77.9v-9.4Z"/><path class="cls-9" d="M627.15,636.26s-4.1-29.3,17.8-29.3,19,29.3,19,29.3h-36.8Z"/><path d="M664.35,636.76h-37.7l-.1-.4c-.1-.6-2.1-16,5.3-24.5,3.1-3.6,7.5-5.4,13-5.4s10,1.8,13.2,5.4c7.7,8.5,6.3,23.8,6.3,24.4v.5Zm-36.8-1h35.9c.2-2.6,.7-15.8-6.1-23.2-3.1-3.4-7.3-5.1-12.5-5.1s-9.3,1.7-12.2,5.1c-6.4,7.4-5.4,20.7-5.1,23.2h0Z"/><path class="cls-9" d="M669.95,631.86h-50.1v8.8h50.1v-8.8Z"/><path d="M670.45,641.16h-51.1v-9.8h51.1v9.8Zm-50.1-1h49.1v-7.8h-49.1v7.8Z"/><path class="cls-9" d="M649.05,596.86h-9c-1.8,0-3.3,1.5-3.3,3.3v4.6c0,1.8,1.5,3.3,3.3,3.3h9c1.8,0,3.3-1.5,3.3-3.3v-4.6c-.1-1.8-1.5-3.3-3.3-3.3Z"/><path d="M649.05,608.56h-9c-2.1,0-3.8-1.7-3.8-3.8v-4.6c0-2.1,1.7-3.8,3.8-3.8h9c2.1,0,3.8,1.7,3.8,3.8v4.6c-.1,2.1-1.8,3.8-3.8,3.8Zm-9.1-11.2c-1.5,0-2.8,1.2-2.8,2.8v4.6c0,1.5,1.2,2.8,2.8,2.8h9c1.5,0,2.8-1.2,2.8-2.8v-4.6c0-1.5-1.2-2.8-2.8-2.8h-9Z"/><path class="cls-10" d="M589.85,595.26s4.9,10.9,19.6,12.8l-.6,32.6-19-19.6s-2.8-13.5,0-25.8Z"/><path class="cls-11" d="M694.25,457.96l-32.5-.9s7.4-19.5,0-26.9-16.2-3.8-15.1-13.1c1.2-9.3,4.9-24.6,32.7-12.1,27.9,12.6,26,36.6,14.9,53h0Z"/><path class="cls-10" d="M589.05,631.86h-1v56.4h1v-56.4Z"/><path class="cls-6" d="M557.25,526.16l-.8-.7c.7-.8,17.8-20.6,26.2-23.4l.3,.9c-8.1,2.8-25.5,23-25.7,23.2Z"/><path class="cls-6" d="M652.95,412.06l-1-.2c0-.2,1-5.1,5.1-7.4,2.6-1.5,5.9-1.6,9.7-.3l-.3,.9c-3.5-1.2-6.5-1.1-8.9,.2-3.6,2.1-4.6,6.7-4.6,6.8Z"/></g></g></g></g></g></svg>