<?xml version="1.0" encoding="UTF-8"?><svg id="Layer_2" xmlns="http://www.w3.org/2000/svg" xmlns:xlink="http://www.w3.org/1999/xlink" viewBox="0 0 1441.8 800"><defs><style>.cls-1{fill:none;}.cls-2{clip-path:url(#clippath);}.cls-3{fill:#fb7200;}.cls-4{fill:#fb923c;}.cls-5{fill:#eaf7ff;}.cls-6{fill:#fff;}.cls-7{fill:#fed7aa;}.cls-8{fill:#b6e5ff;}.cls-9{fill:#d0eeff;}.cls-10{fill:#1e293b;}.cls-11{fill:#0f172a;}.cls-12{fill:#258ac2;}.cls-13{clip-path:url(#clippath-1);}.cls-14{clip-path:url(#clippath-4);}.cls-15{clip-path:url(#clippath-3);}.cls-16{clip-path:url(#clippath-2);}.cls-17{clip-path:url(#clippath-7);}.cls-18{clip-path:url(#clippath-8);}.cls-19{clip-path:url(#clippath-6);}.cls-20{clip-path:url(#clippath-5);}</style><clipPath id="clippath"><rect class="cls-1" width="1441.8" height="800"/></clipPath><clipPath id="clippath-1"><rect class="cls-1" x="2.9" y=".5" width="1440" height="800"/></clipPath><clipPath id="clippath-2"><rect class="cls-1" x="2.9" y="3.5" width="1440" height="800"/></clipPath><clipPath id="clippath-3"><rect class="cls-1" x=".9" y="2.3" width="1440" height="800"/></clipPath><clipPath id="clippath-4"><rect class="cls-1" x="2.9" y="-.5" width="1440" height="800"/></clipPath><clipPath id="clippath-5"><rect class="cls-1" x="2.9" y=".5" width="1440" height="800"/></clipPath><clipPath id="clippath-6"><rect class="cls-1" x="1.42" y="2.3" width="1440" height="800"/></clipPath><clipPath id="clippath-7"><rect class="cls-1" x="2.9" y="6.5" width="1440" height="800"/></clipPath><clipPath id="clippath-8"><rect class="cls-1" x="1.7" y="2.3" width="1440" height="800"/></clipPath></defs><g id="Layer_1-2"><g class="cls-2"><g><path class="cls-7" d="M835,488.4c0,45.2-36.6,81.9-81.7,81.9s-81.7-36.7-81.7-81.9,36.6-81.9,81.7-81.9,81.7,36.7,81.7,81.9Z"/><g class="cls-13"><g><path class="cls-9" d="M1170.9,799.9L-61.1,827.9l15-321s101.2-106.7,180.3-187.1c48.1-48.9,88.1-88.2,92.2-87.8,6.4,.5,68.5,46.9,120.7,85.7,35.2,26.2,65.9,48.9,72,51.8,15,7.2,14.1-2.7,23.1-13.5s31.5-48.5,39.6-43.1c8,5.3,689.1,487,689.1,487Z"/><path class="cls-12" d="M354.32,378.43l-4.8,20.44h11.37l-6.58-20.44h.01Z"/><path class="cls-12" d="M355.83,394.34h-1.69v9.06h1.69v-9.06Z"/><path class="cls-6" d="M482.32,500.43l-4.8,20.44h11.37l-6.58-20.44h.01Z"/><path class="cls-6" d="M483.83,516.34h-1.69v9.06h1.69v-9.06Z"/><path class="cls-12" d="M334.78,364.66l-5.45,23.2h12.91l-7.47-23.2h.01Z"/><path class="cls-12" d="M336.5,382.72h-1.92v10.29h1.92v-10.29Z"/><path class="cls-12" d="M240.35,388.9l-5.45,23.2h12.91l-7.46-23.2Z"/><path class="cls-12" d="M242.06,406.96h-1.92v10.29h1.92v-10.29Z"/><path class="cls-6" d="M321.35,354.9l-5.45,23.2h12.91l-7.46-23.2Z"/><path class="cls-6" d="M323.06,372.96h-1.92v10.29h1.92v-10.29Z"/><path class="cls-12" d="M462.78,486.66l-5.45,23.2h12.91l-7.47-23.2h.01Z"/><path class="cls-12" d="M464.5,504.72h-1.92v10.29h1.92v-10.29Z"/><path class="cls-5" d="M514.9,449.4l-72.5-58.5,69.5,49.5,3-13.5,129.5,108.5h-20l-105-95-4.5,9Z"/><path class="cls-12" d="M339.9,486.91l1.45-10.4,2.39,8.9,2.67-12.52,1.85,11.84,2.8-9.31,1.54,11.43h-12.7v.05h0Z"/><path class="cls-6" d="M364.9,465.9l1.27-9.68,2.08,8.32,2.33-11.64,1.57,10.99,2.43-8.65,1.32,10.66h-11Z"/><path class="cls-6" d="M352.9,473.12l1.38-10.43,2.27,8.96,2.54-12.54,1.71,11.83,2.65-9.31,1.44,11.48h-11.99Z"/><path class="cls-8" d="M154.4,489.28l-18.21-21.46h12.03l-14.96-17.56h8.45l-10.57-12.36-10.57,12.36h8.45l-14.96,17.56h12.03l-18.21,21.46h20.49v17.88h3.9v-17.88h22.13Z"/><path class="cls-8" d="M205.9,402.9c-12,5.6,7-112.83,19-172.5L1.9,456.9l-41,365c217.67,7.33,636.4,20.4,570,14-83-8-166-177-211-226s-14-69-60-78-25-6-33-60c-8-54-6-76-21-69Z"/><path class="cls-8" d="M364.5,330.6c-3.1,.1-6.8-.3-11.4-1.3,0,0-35-18.6-39.1-7.3s11.8,32.8-24.3,21.5c-36.1-11.3-20.7,3.4-26.4,13-5.6,9.6-41.6-50.1-65.6-47.9-24,2.2-44.5,33.4-75.8,24.5,54.9-55.8,100.4-100.6,105-100.2,7.4,.6,78.1,53.5,137.6,97.7Z"/><path class="cls-5" d="M771.4,540.9c-4.4,2-122.83-100.5-181.5-152l192,135c-2.83,5.17-6.1,15-10.5,17Z"/></g></g><g class="cls-16"><g><path class="cls-9" d="M1708.8,803H486.8s434.3-401.2,452.3-417c17.9-15.8,19.5-6.7,27.1,0,7.6,6.7,24.4,31.7,32.9,28.5,8.4-3.2,114.9-89.2,121.5-86.4,6.5,2.8,25.2,26.2,37.4,18.7,12.2-7.5,271-189.9,271-189.9l42.7,67.9,142.6,226.6,94.5,351.6Z"/><path class="cls-5" d="M820.8,495c29.17-23.33,91.9-74.7,109.5-93.5,15.54-16.6,29.36-17.01,36.17-14.58-7.86-14.47-18.06-10.64-22.17-6.92l-123.5,115Z"/><path class="cls-8" d="M1382.8,397c19.2,4.8,37.33-140.67,44-214l54,50v316h-372c20,0,77-103,95-75s91-37,125-77,30-6,54,0Z"/><path class="cls-12" d="M1272.59,313l-4.79,20.4h11.36l-6.57-20.4Z"/><path class="cls-12" d="M1274.1,328.88h-1.69v9.05h1.69v-9.05Z"/><path class="cls-12" d="M1236.86,436.41l-6.06,25.8h14.36l-8.3-25.8Z"/><path class="cls-12" d="M1238.76,456.49h-2.13v11.44h2.13v-11.44Z"/><path class="cls-12" d="M1243.99,342l-5.19,22.1h12.3l-7.11-22.1Z"/><path class="cls-12" d="M1245.62,359.2h-1.83v9.8h1.83v-9.8Z"/><path class="cls-12" d="M1253.68,425l-6.88,29.29h16.3l-9.42-29.29Z"/><path class="cls-12" d="M1255.84,447.79h-2.42v12.99h2.42v-12.99Z"/><path class="cls-12" d="M1105.41,388l-5.61,23.9h13.3l-7.69-23.9Z"/><path class="cls-12" d="M1107.18,406.6h-1.97v10.6h1.97v-10.6Z"/><path class="cls-12" d="M933.41,463l-5.61,23.9h13.3l-7.69-23.9Z"/><path class="cls-12" d="M935.18,481.6h-1.97v10.6h1.97v-10.6Z"/><path class="cls-6" d="M1260.36,324l-5.56,23.68h13.18l-7.62-23.68Z"/><path class="cls-6" d="M1262.37,347.68h-1.96v10.5h1.96v-10.5Z"/><path class="cls-6" d="M1268.77,409l-5.56,23.68h13.18l-7.62-23.68Z"/><path class="cls-6" d="M1270.78,432.68h-1.96v10.5h1.96v-10.5Z"/><path class="cls-8" d="M1429.3,156l-153.5,108c23,10,45-25,60.5-18,9.11,4.12,0,33.75,12,41,20,12.08,27.66-14.77,54-8.5,21,5,8.5,30,36,24.5,22-4.4,64.17,1.83,82.5,5.5l-91.5-152.5Z"/><path class="cls-6" d="M1112.8,411l1.73-11.17,2.83,9.6,3.18-13.43,2.14,12.68,3.32-9.98,1.8,12.3h-15Z"/><path class="cls-6" d="M940.8,486l1.73-11.17,2.83,9.6,3.18-13.43,2.14,12.68,3.32-9.98,1.8,12.3h-15Z"/><path class="cls-6" d="M1092.8,426l1.73-11.17,2.83,9.6,3.18-13.43,2.14,12.68,3.32-9.98,1.8,12.3h-15Z"/><path class="cls-6" d="M920.8,501l1.73-11.17,2.83,9.6,3.18-13.43,2.14,12.68,3.32-9.98,1.8,12.3h-15Z"/></g></g><g class="cls-15"><g><path class="cls-9" d="M-63.1,579.2s517.1-45.2,577.6-47.5c60.5-2.3,189.1,5.2,214.5,0,25.4-5.2,232.4-11.7,271.6-9.6,39.2,2.2,118.4,9.4,180.8,10.9s311.5-10.9,311.5-10.9l25,370.1-1564-6-17-307Z"/><path class="cls-8" d="M696.34,533.78c25.21,3.23,68.77-1.35,87.41-4.04,38.3-4.04,50.82,16.17,33.54,16.17s-102.65,.67-147.37,0c-44.72-.67-47.77-8.76-25.41-7.41,22.36,1.35,20.33-8.76,51.83-4.72Z"/><path class="cls-12" d="M227.9,561.72l2.43-17.45,4.02,14.94,4.47-21.01,3.11,19.87,4.7-15.63,2.58,19.19h-21.31v.08h0Z"/><path class="cls-12" d="M90.9,724.2l3.53-25.23,5.85,21.61,6.51-30.38,4.52,28.74,6.84-22.59,3.75,27.75h-31v.11h0Z"/><path class="cls-12" d="M165.9,722.2l2.96-20.77,4.9,17.79,5.46-25.02,3.79,23.66,5.74-18.61,3.15,22.85h-26v.09h0Z"/><path class="cls-12" d="M535.9,712.5l3.03-21.74,5.01,18.62,5.58-26.18,3.88,24.76,5.86-19.47,3.21,23.91h-26.56v.1h-.01Z"/><path class="cls-12" d="M394.9,630.5l3.02-21.74,5.01,18.62,5.58-26.18,3.88,24.76,5.86-19.47,3.21,23.91h-26.56v.1Z"/><path class="cls-12" d="M1001.9,698.5l3.02-21.74,5.01,18.62,5.58-26.18,3.88,24.76,5.86-19.47,3.21,23.91h-26.56v.1Z"/><path class="cls-12" d="M1052.9,532.2l1.48-10.39,2.45,8.9,2.73-12.51,1.9,11.83,2.87-9.3,1.57,11.43h-13v.05h0Z"/><path class="cls-12" d="M636.9,574.2l2.39-17.06,3.96,14.62,4.41-20.55,3.06,19.44,4.63-15.28,2.54,18.77h-21v.07h.01Z"/><path class="cls-12" d="M1302.28,597.2l-13.38,56.98h31.71l-18.33-56.98Z"/><path class="cls-12" d="M1307.24,646.06h-4.71v25.27h4.71v-25.27Z"/><path class="cls-12" d="M1221.62,597.2l-14.72,62.71h34.9l-20.18-62.71Z"/><path class="cls-12" d="M1227.09,650.97h-5.18v27.81h5.18v-27.81Z"/><path class="cls-12" d="M1252.62,580.2l-14.72,62.71h34.9l-20.18-62.71Z"/><path class="cls-12" d="M1258.09,633.97h-5.18v27.81h5.18v-27.81Z"/><path class="cls-6" d="M1268.29,608.59l-14.72,62.71h34.9l-20.18-62.71Z"/><path class="cls-6" d="M1272.93,657.39h-5.18v27.81h5.18v-27.81Z"/><path class="cls-8" d="M324.04,644.76c-12.8,2.8-25.67,7.5-30.5,9.5-12.5,4.53,163.5,2.5,172.5,0s-22-9.5-40-7-56-10-65.5-9-20.5,3-36.5,6.5Z"/><path class="cls-8" d="M1168.04,690.76c-12.8,2.8-25.67,7.5-30.5,9.5-12.5,4.53,163.5,2.5,172.5,0s-22-9.5-40-7-56-10-65.5-9-20.5,3-36.5,6.5Z"/><path class="cls-12" d="M141.06,534.2l-16.16,68.81h38.29l-22.14-68.81h.01Z"/><path class="cls-12" d="M147.05,593.21h-5.68v30.52h5.68v-30.52Z"/><path class="cls-12" d="M435.45,569.28l-10.55,44.92h25l-14.45-44.92Z"/><path class="cls-12" d="M439.36,607.8h-3.71v19.92h3.71v-19.92Z"/><path class="cls-12" d="M81.68,544.2l-17.78,75.73h42.14l-24.36-75.73Z"/><path class="cls-12" d="M88.28,609.14h-6.26v33.58h6.26v-33.58Z"/><path class="cls-6" d="M112.68,555.2l-17.78,75.73h42.15l-24.37-75.73Z"/><path class="cls-6" d="M118.28,614.14h-6.26v33.58h6.26v-33.58Z"/><path class="cls-6" d="M251.9,559.99l1.84-13.41,3.02,11.52,3.39-16.12,2.29,15.21,3.54-11.97,1.92,14.76h-16Z"/><path class="cls-6" d="M125.9,722.2l2.65-19.36,4.34,16.64,4.88-23.28,3.29,21.98,5.09-17.3,2.76,21.32h-23.01Z"/><path class="cls-6" d="M583.9,723.2l2.3-16.38,3.78,14.08,4.24-19.7,2.86,18.59,4.42-14.64,2.4,18.04h-20Z"/><path class="cls-6" d="M429.9,637.2l2.3-16.39,3.78,14.08,4.24-19.7,2.86,18.59,4.42-14.64,2.4,18.04h-20v.02Z"/><path class="cls-6" d="M306.9,661.2l2.77-19.36,4.53,16.64,5.09-23.28,3.43,21.98,5.31-17.3,2.88,21.32h-24.01Z"/><path class="cls-6" d="M1035.9,707.2l2.3-16.38,3.78,14.08,4.24-19.7,2.86,18.59,4.42-14.64,2.4,18.04h-20Z"/><path class="cls-6" d="M1045.9,554.2l1.96-13.41,3.21,11.52,3.6-16.12,2.43,15.21,3.76-11.97,2.04,14.76h-17Z"/><path class="cls-6" d="M1071.9,518.2l1.96-13.41,3.21,11.52,3.6-16.12,2.43,15.21,3.76-11.97,2.04,14.76h-17Z"/><path class="cls-6" d="M1115.9,555.2l1.96-14.15,3.21,12.16,3.6-17.01,2.43,16.06,3.76-12.64,2.04,15.58h-17Z"/><path class="cls-6" d="M661.9,575.2l1.84-13.41,3.02,11.52,3.39-16.12,2.29,15.21,3.54-11.97,1.92,14.76h-16Z"/><path class="cls-6" d="M267.9,568.99l2.07-15.64,3.4,13.44,3.82-18.8,2.57,17.75,3.98-13.97,2.16,17.22h-18Z"/><path class="cls-6" d="M148.9,735.2l2.99-23.09,4.91,19.85,5.51-27.76,3.71,26.2,5.75-20.62,3.12,25.42h-25.99Z"/></g></g><g class="cls-14"><path class="cls-8" d="M703.65,861.1s17.5,27.5,54.3,11.8c36.8-15.7,99-49,17-48s-131.1-58.6-63.5-74c67.6-15.4,25.6-43.7,0-76.5-25.6-32.8-113.1-44.6-68-62,45.1-17.4-92.4-57.6-117.5-58.5-25.1-.9-65.3-36-90.9-39.7-26.3-3.8-48.2-42,0-59.4,18.8-6.8,23.2-20.2-58.4-36.9-95.3-19.5-97.3-90.2-97.3-90.2l-22.5,6.1s43.6,66.3,95.3,86.1c109.6,42-19.3,54.2-6.6,95.2,12.7,41.1,55.3-5.8,69.4,23.3,61.2,7.9,20.2,27.4,69.6,27.4,57.2-6,135.9,28.3,109.2,36.5-26.6,8.2-77.1,17.9-20.2,42.5,56.9,24.6,86.6,73.8,56,80-30.6,6.2-326.6,5.5-252.8,40.4,73.8,34.9,204.6,4.1,217.1,33.8s-55.3,37.9-44,47.1c11.3,9.2,116.9,26.6,116.9,26.6l36.9-11.6Z"/></g><g class="cls-20"><path class="cls-8" d="M666.4,974.9s11.2-98.2,89.7-108.5c78.5-10.3,22.6-39.5-36.3-39.4-59,.1-22.4-44.2,115.4-43.1,137.8,1.1-128.6-41-72.5-64.3,56.1-23.3,175.6-14.7,112.5-37.7-63-23.1-124.1-44.6-56.7-63.3,67.5-18.7,106.7,8.3,94.6-26.3-12.1-34.6,15.9-16.1,46.7-19.7,30.8-3.6,15.9-75.6,77.5-96.2,61.7-20.6,106.3-84,151.1-85.9,61.6,0,97-25,97-76.5,0-55,40-76,40-76l16.5,3.5s-39.12,10-42,63c-5.11,94-79.01,92.7-104.5,102-48.6,17.8-59,62.4-96.4,76.4s-100,42.1-56.1,86.1-72.7,20.4-63,38.2c9.7,17.9,72.3,41.3-8,46.9-80.4,5.6-56.1,35.5,4.7,49.6,60.7,14,105.9,27.1,93.6,46.8-12.3,19.6-154.7-33.7-145.6,0,9.1,33.7,166,26.2,163.2,50.5-2.8,24.3-221.5,28.1-194.4,44.9,27.1,16.8,116.8,33.7,211.2,21.5,94.4-12.2-11.3,109.4,127,119.7l-565.2-12.2Z"/></g><g class="cls-19"><g><path class="cls-10" d="M807.42,857.9s-155.5-89.9-150.9-99.1c4.6-9.3-39.8-10.2-49.1-26.9-9.3-16.7-41.7-42.6-56.5-46.3s-227.7-56.5-255.5-123.2c-27.8-66.7-24.1-28.7-82.9-71.8C153.82,447.5-2.58,298.3-2.58,298.3L3.02,903.3l804.4-45.4Z"/><path class="cls-11" d="M393.52,702.4s-107-55.4-114.1-88.9-149.6-107.6-149.6-107.6c0,0,119.2,104.3,122.1,144.8,2.8,40.4,115.5,49.9,141.6,51.7Z"/><path class="cls-11" d="M544.52,744.1l-188.9,73s246.8-12.4,225.9-36c-13.9-15.8-37-37-37-37Z"/><path class="cls-10" d="M431.12,828.3l-52.8-397.5s1.9-8.3,12.1-3.5l55.5,395.4-14.8,5.6Z"/><path class="cls-4" d="M394.62,507.7l94.8-38.9,30.5,11.1-19.4,30.6-99.1,41.7-6.8-44.5Z"/><path class="cls-10" d="M401.12,552.9l-7-45.5,.4-.2,95-39,31.3,11.4-19.9,31.2-.1,.1-99.7,42Zm-5.9-44.9l6.7,43.4,98.3-41.4,19-29.9-29.8-10.8-94.2,38.7Z"/><path class="cls-4" d="M388.52,454.9l-87.9-26.9-30.9,13.4,21.7,24.6,103.3,32.4-6.2-43.5Z"/><path class="cls-10" d="M395.22,499.2l-104.2-32.7-22.2-25.2,31.7-13.8,.2,.1,88.2,27,6.3,44.6Zm-103.6-33.6l102.4,32.2-5.9-42.5-87.5-26.7-30.1,13.1,21.1,23.9Z"/></g></g><g class="cls-17"><g><path class="cls-10" d="M851.9,820.57s165-110,189-144,95-49,119-60,103-119,166-140,247-144,266-200,15,672,15,672l-755-128Z"/><path class="cls-11" d="M1038.4,800.27s116.4-132.5,178.5-143.6c62-11.1,85.5-104.8,168.3-125.5s106.7-59.7,106.7-59.7c0,0-54.5,94.1-113.7,105.6-59.2,11.5-48.2,80.7-101.8,90.6-53.6,9.9-28.5,167.9-28.5,167.9l-209.5-35.3Z"/><path class="cls-11" d="M1361.8,667.67l96.1,22.1c.1,0-46.1,29-96.1-22.1Z"/></g></g><g class="cls-18"><g><path class="cls-6" d="M917.7,504.31l1.73-11.17,2.83,9.6,3.18-13.43,2.14,12.68,3.32-9.98,1.8,12.3h-15Z"/><path class="cls-7" d="M849.5,492.81l-25.9-1-21.5-.8v-13c-3.7,2.8-8.8,1.4-12.1-1.9-13-13,7.7-60,7.7-60,2.5-6,5.6-9.9,16.2-9.2,15.1,1,34.2,8.6,32.5,18.4-2.4,13.6-1.1,33.4,.5,48,1.2,11.3,2.6,19.5,2.6,19.5Z"/><path class="cls-10" d="M850.3,494.11l-.9-.8-47.7-1.9v-12.6c-3.9,2.3-8.9,.6-11.9-2.4-5.5-5.5-5.9-17.4-1.2-35.3,3.5-13.3,8.7-25.1,8.7-25.2,2.8-6.7,6.3-10.2,16.7-9.5,11,.7,25.5,5.2,30.9,12.1,1.7,2.2,2.4,4.5,2,6.8-2.4,13.6-1.1,33.5,.5,47.9,1.2,11.1,2.6,19.4,2.6,19.5l.3,1.4Zm-47.6-3.6l46.3,1.8c-.3-2.1-1.5-9.5-2.5-18.9-1.6-14.4-2.9-34.4-.5-48.2,.4-2-.2-4.1-1.8-6-5.2-6.7-19.5-11-30.2-11.7-9.9-.7-13,2.5-15.7,8.9-.2,.5-20.4,46.8-7.8,59.4,3,2.9,7.8,4.5,11.4,1.8l.8-.6v13.5Z"/><path class="cls-7" d="M809.9,432.61s-7.8-6.1-6.2,9.7c.9,8.8,6.2,8.9,6.2,8.9"/><path class="cls-10" d="M809.9,451.71c-.2,0-5.8-.1-6.7-9.3-.6-6.2,.1-9.9,2.2-11.1,2.1-1.2,4.7,.8,4.8,.9l-.6,.8s-2.2-1.7-3.7-.8c-1.2,.6-2.4,2.9-1.7,10.1,.8,8.2,5.5,8.4,5.7,8.4v1Z"/><path class="cls-10" d="M849.5,492.81l-25.9-1,23.3-18.5c1.2,11.3,2.6,19.5,2.6,19.5Z"/><path class="cls-7" d="M808.2,435.31s-2.6-1.8-2.6,4.4l2.6-4.4Z"/><path class="cls-10" d="M806,439.71h-1c0-2.8,.5-4.4,1.6-4.9,.7-.4,1.5-.1,1.9,.1l-.6,.8,.3-.4-.3,.4s-.5-.3-.8-.1c-.4,.2-1.1,.9-1.1,4.1Z"/><path class="cls-3" d="M1005.04,597.31c-1.6-2.3-70.1-79.6-92.4-97.1-4.1-3.2-5.1-5.1-11.6-7-5.6-1.6-61.6-5.6-61.6-5.6h-37.3s-56,3.9-61.6,5.6c-6.5,1.9-7.4,3.7-11.6,7-22.4,17.5-89,100.4-90.6,102.7-1.9,2.8-8.4,11.6,0,23.9,8.4,12.3,78,62.5,78,62.5l26,17.9h167.8s19.4-16.6,40.8-35.3c14.2-12.5,29.3-25.9,40-36,7.2-6.8,12.4-12.1,14.1-14.7,8.4-12.3,1.9-21.1,0-23.9Zm-262.6,23.2l-24.1-13,24.1-29.7v42.7Zm166.2,0l-.9-36.2,24.1,18.6-23.2,17.6Z"/><path class="cls-10" d="M740.9,706.81l-13,105.5h90.5l6-63.9,8.2,63.9h85l-8.9-105.5h-167.8Z"/><path class="cls-11" d="M989.4,635.51c-10.7,10.2-25.8,23.6-40,36l-6.9-28.8,46.9-7.2Z"/><path class="cls-4" d="M762.8,490.51s74.6-7.6,106.9,0,51,49.7,53.8,85.5c2.8,35.8,55.6,74.8,33.4,106.6-22.3,31.8-106.8,35.5-135.7,29.3-28.8-6.2-58.4-221.4-58.4-221.4Z"/><path class="cls-10" d="M762.8,490.51s60,50.7,60.7,105.1,40.4,113.4,14.2,116.4c-39.6,4.7-79.1-7.3-79.1-7.3l4.2-214.2Z"/><path d="M830.5,589.31c-.3,0-.5-.2-.5-.5s.2-.5,.5-.5l89-3.2c.3,0,.5,.2,.5,.5s-.2,.5-.5,.5l-89,3.2Z"/><path class="cls-10" d="M838.3,581.21s3.8,24.8,8.3,29.7l16-3.6s-5-13.8-7.4-29.7l-16.9,3.6Z"/><path class="cls-10" d="M897.1,569.31s3.8,24.8,8.3,29.7l12-2s-5-13.8-7.4-29.7l-12.9,2Z"/><path class="cls-10" d="M934.7,639.71h-77.9v9.4h77.9v-9.4Z"/><path class="cls-9" d="M778.2,635.31s-4.1-29.3,17.8-29.3,19,29.3,19,29.3h-36.8Z"/><path d="M815.4,635.81h-37.7l-.1-.4c-.1-.6-2.1-16,5.3-24.5,3.1-3.6,7.5-5.4,13-5.4s10,1.8,13.2,5.4c7.7,8.5,6.3,23.8,6.3,24.4v.5Zm-36.8-1h35.9c.2-2.6,.7-15.8-6.1-23.2-3.1-3.4-7.3-5.1-12.5-5.1s-9.3,1.7-12.2,5.1c-6.4,7.4-5.4,20.7-5.1,23.2Z"/><path class="cls-9" d="M821,630.91h-50.1v8.8h50.1v-8.8Z"/><path d="M821.5,640.21h-51.1v-9.8h51.1v9.8Zm-50.1-1h49.1v-7.8h-49.1v7.8Z"/><path class="cls-9" d="M800.1,595.91h-9c-1.8,0-3.3,1.5-3.3,3.3v4.6c0,1.8,1.5,3.3,3.3,3.3h9c1.8,0,3.3-1.5,3.3-3.3v-4.6c-.1-1.8-1.5-3.3-3.3-3.3Z"/><path d="M800.1,607.61h-9c-2.1,0-3.8-1.7-3.8-3.8v-4.6c0-2.1,1.7-3.8,3.8-3.8h9c2.1,0,3.8,1.7,3.8,3.8v4.6c-.1,2.1-1.8,3.8-3.8,3.8Zm-9.1-11.2c-1.5,0-2.8,1.2-2.8,2.8v4.6c0,1.5,1.2,2.8,2.8,2.8h9c1.5,0,2.8-1.2,2.8-2.8v-4.6c0-1.5-1.2-2.8-2.8-2.8h-9Z"/><path class="cls-10" d="M740.9,594.31s4.9,10.9,19.6,12.8l-.6,32.6-19-19.6s-2.8-13.5,0-25.8Z"/><path class="cls-11" d="M845.3,457.01l-32.5-.9s7.4-19.5,0-26.9c-7.4-7.4-16.2-3.8-15.1-13.1,1.2-9.3,4.9-24.6,32.7-12.1,27.9,12.6,26,36.6,14.9,53Z"/><path class="cls-10" d="M740.1,630.91h-1v56.4h1v-56.4Z"/><path class="cls-6" d="M708.3,525.21l-.8-.7c.7-.8,17.8-20.6,26.2-23.4l.3,.9c-8.1,2.8-25.5,23-25.7,23.2Z"/><path class="cls-6" d="M804,411.11l-1-.2c0-.2,1-5.1,5.1-7.4,2.6-1.5,5.9-1.6,9.7-.3l-.3,.9c-3.5-1.2-6.5-1.1-8.9,.2-3.6,2.1-4.6,6.7-4.6,6.8Z"/></g></g></g></g></g></svg>