<svg width="127" height="40" viewBox="0 0 127 40" fill="none" xmlns="http://www.w3.org/2000/svg">
<path d="M23.451 24.127C22.6384 24.1213 21.8457 23.8745 21.1728 23.4176C20.5 22.9607 19.977 22.3142 19.67 21.5596C19.3629 20.805 19.2855 19.9762 19.4474 19.1775C19.6094 18.3788 20.0035 17.6461 20.5801 17.0718C21.1566 16.4975 21.8898 16.1073 22.6871 15.9503C23.4845 15.7934 24.3103 15.8768 25.0605 16.19C25.8107 16.5032 26.4516 17.0321 26.9025 17.7102C27.3534 18.3882 27.594 19.185 27.594 20C27.5898 21.0982 27.1511 22.1498 26.3742 22.9237C25.5973 23.6975 24.5459 24.1304 23.451 24.127ZM23.451 16.7905C22.8182 16.798 22.2019 16.9931 21.6795 17.3513C21.1571 17.7095 20.7521 18.2147 20.5154 18.8033C20.2788 19.3919 20.221 20.0376 20.3495 20.6591C20.478 21.2806 20.787 21.85 21.2375 22.2957C21.688 22.7414 22.2599 23.0434 22.8812 23.1637C23.5025 23.284 24.1454 23.2172 24.7289 22.9718C25.3124 22.7263 25.8105 22.3132 26.1604 21.7843C26.5103 21.2555 26.6963 20.6347 26.6951 20C26.6927 19.5752 26.6068 19.155 26.4424 18.7635C26.278 18.372 26.0383 18.0167 25.7371 17.7181C25.4358 17.4195 25.0789 17.1833 24.6866 17.0231C24.2944 16.8628 23.8745 16.7816 23.451 16.7841V16.7905Z" fill="#E2E8F0"/>
<path d="M30.6324 27.8317C30.0448 27.8347 29.4618 27.727 28.9138 27.5142C28.3462 27.2905 27.8286 26.9558 27.3912 26.5296C26.9538 26.1035 26.6053 25.5943 26.3659 25.0317C26.1265 24.4769 25.9998 23.8797 25.9933 23.2752C25.9868 22.6707 26.1006 22.0709 26.3279 21.511C26.3728 21.3999 26.4599 21.3112 26.57 21.2645C26.6801 21.2177 26.8042 21.2168 26.915 21.2618C27.0259 21.3069 27.1143 21.3942 27.1609 21.5047C27.2075 21.6151 27.2084 21.7396 27.1635 21.8507C26.9809 22.2999 26.8893 22.7812 26.8942 23.2663C26.8991 23.7514 27.0003 24.2307 27.192 24.6761C27.3854 25.1289 27.6666 25.5385 28.0192 25.8813C28.3719 26.2241 28.7889 26.4932 29.2461 26.673C30.1654 27.0402 31.192 27.0292 32.1032 26.6424C33.0145 26.2555 33.7369 25.5239 34.114 24.6063C34.9305 22.5841 34.9021 20.0444 34.9021 20.019C34.9021 12.3999 28.6606 6.19992 20.9758 6.19992C17.9218 6.19089 14.9498 7.19089 12.5191 9.04542C10.0883 10.8999 8.33411 13.5058 7.52751 16.4602C7.51509 16.5203 7.49059 16.5772 7.45551 16.6274C7.42042 16.6776 7.3755 16.7201 7.32347 16.7523C7.27145 16.7845 7.21343 16.8057 7.15295 16.8147C7.09247 16.8236 7.0308 16.8201 6.97173 16.8043C6.91266 16.7885 6.85742 16.7608 6.80939 16.7228C6.76136 16.6849 6.72155 16.6375 6.6924 16.5837C6.66325 16.5298 6.64536 16.4705 6.63984 16.4094C6.63432 16.3483 6.64127 16.2868 6.66028 16.2285C7.51776 13.0822 9.38454 10.3067 11.9721 8.33109C14.5596 6.35545 17.7239 5.28962 20.9758 5.29833C29.1448 5.29833 35.7883 11.8983 35.7883 20.0126C35.7883 20.1174 35.8199 22.7491 34.9369 24.9428C34.5856 25.798 33.9889 26.5292 33.2225 27.0435C32.4561 27.5579 31.5545 27.8322 30.6324 27.8317Z" fill="#E2E8F0"/>
<path d="M31.2499 20.4507C31.1906 20.4511 31.1318 20.4397 31.0769 20.4173C31.022 20.3948 30.9721 20.3617 30.93 20.3198C30.8879 20.2779 30.8546 20.228 30.8318 20.1731C30.809 20.1182 30.7973 20.0594 30.7973 19.9999C30.7822 17.731 29.8709 15.5607 28.263 13.9647C26.6552 12.3686 24.482 11.4771 22.22 11.4856C18.0642 11.4856 14.6776 14.2697 13.7914 18.4126C13.7667 18.5296 13.6966 18.632 13.5965 18.6972C13.4965 18.7624 13.3748 18.785 13.2581 18.7602C13.1414 18.7354 13.0394 18.665 12.9744 18.5647C12.9094 18.4644 12.8868 18.3423 12.9115 18.2253C13.8864 13.6538 17.6275 10.584 22.22 10.584C24.7237 10.5705 27.1304 11.5547 28.9109 13.3204C30.6914 15.086 31.7001 17.4886 31.7151 19.9999C31.7152 20.0604 31.703 20.1204 31.6795 20.1761C31.6559 20.2319 31.6214 20.2823 31.5779 20.3244C31.5345 20.3665 31.4831 20.3993 31.4267 20.421C31.3703 20.4427 31.3102 20.4528 31.2499 20.4507Z" fill="#E2E8F0"/>
<path d="M19.9381 40C18.7776 39.9937 17.645 39.6428 16.6831 38.9916C15.7213 38.3404 14.9733 37.418 14.5335 36.3408C14.0938 35.2636 13.9819 34.08 14.2122 32.9391C14.4424 31.7983 15.0043 30.7514 15.8271 29.9305C16.6499 29.1097 17.6967 28.5516 18.8353 28.3269C19.9739 28.1021 21.1534 28.2206 22.225 28.6675C23.2966 29.1143 24.2121 29.8695 24.8562 30.8378C25.5003 31.806 25.8441 32.9439 25.8441 34.1079C25.8382 35.6743 25.2131 37.1744 24.1059 38.279C22.9986 39.3836 21.4998 40.0025 19.9381 40ZM19.9381 29.1174C18.9554 29.1237 17.9966 29.4217 17.1825 29.9739C16.3685 30.526 15.7357 31.3076 15.364 32.2201C14.9923 33.1325 14.8982 34.1349 15.0938 35.1008C15.2893 36.0668 15.7657 36.953 16.4627 37.6478C17.1598 38.3426 18.0464 38.8147 19.0107 39.0047C19.9749 39.1947 20.9737 39.0941 21.881 38.7154C22.7883 38.3368 23.5635 37.6971 24.1088 36.8772C24.6542 36.0572 24.9452 35.0936 24.9452 34.1079C24.9368 32.7826 24.4052 31.5147 23.4667 30.5817C22.5283 29.6487 21.2594 29.1268 19.9381 29.1301V29.1174Z" fill="#E2E8F0"/>
<path d="M16.5862 22.5397C16.3869 22.5395 16.188 22.5236 15.9912 22.492C15.5067 22.4167 15.042 22.2453 14.6241 21.9881C14.2063 21.7308 13.8436 21.3928 13.5573 20.9936C13.2731 20.6018 13.0692 20.1574 12.9572 19.6861C12.8453 19.2147 12.8277 18.7258 12.9053 18.2476C12.9242 18.1293 12.9891 18.0234 13.0859 17.9531C13.1826 17.8829 13.3032 17.8541 13.4212 17.873C13.5391 17.8919 13.6447 17.9571 13.7148 18.0541C13.7848 18.1512 13.8135 18.2722 13.7946 18.3905C13.736 18.7514 13.7492 19.1204 13.8334 19.4761C13.9176 19.8319 14.0711 20.1675 14.2852 20.4635C14.616 20.9095 15.0694 21.2491 15.5898 21.4405C16.1101 21.632 16.6749 21.667 17.2148 21.5413C17.7547 21.4156 18.2463 21.1346 18.6294 20.7329C19.0125 20.3311 19.2704 19.8259 19.3715 19.2793C19.3908 19.1611 19.4561 19.0553 19.5532 18.9853C19.6502 18.9154 19.771 18.887 19.889 18.9063C20.0069 18.9257 20.1123 18.9913 20.1821 19.0886C20.2518 19.1859 20.2802 19.3071 20.2609 19.4254C20.1148 20.2967 19.6654 21.0878 18.9926 21.658C18.3197 22.2282 17.4671 22.5406 16.5862 22.5397Z" fill="#E2E8F0"/>
<path d="M36.4154 28.1938C35.9066 28.1927 35.4097 28.0392 34.9885 27.753C34.5673 27.4668 34.2408 27.0609 34.0511 26.5874C33.9287 26.2789 33.869 25.9489 33.8755 25.6169C33.882 25.2849 33.9546 24.9576 34.0891 24.6541C34.139 24.5479 34.2282 24.4654 34.3379 24.4242C34.4475 24.383 34.5688 24.3863 34.6761 24.4335C34.7833 24.4806 34.8679 24.5679 34.912 24.6767C34.956 24.7855 34.956 24.9072 34.912 25.016C34.8257 25.2104 34.7794 25.4201 34.7756 25.6328C34.7717 25.8455 34.8106 26.0568 34.8898 26.2541C34.968 26.4553 35.0855 26.6387 35.2356 26.7936C35.3856 26.9485 35.5651 27.0716 35.7634 27.1557C36.1602 27.327 36.6081 27.3359 37.0114 27.1805C37.4148 27.0251 37.7415 26.7177 37.9219 26.3239C38.6367 24.2926 39.0027 22.1543 39.0044 20.0001C39.0044 9.46361 30.3701 0.888995 19.7577 0.888995C15.4694 0.874729 11.2995 2.29946 7.91166 4.93648C4.52379 7.57349 2.11257 11.2713 1.0617 15.4414C0.878219 16.2076 0.848651 17.0028 0.97472 17.7805C1.10079 18.5583 1.37997 19.3031 1.796 19.9716C2.431 20.9941 3.35247 21.8062 4.44518 22.3064C5.53788 22.8065 6.75333 22.9724 7.93953 22.7833C9.12574 22.5943 10.2301 22.0587 11.1144 21.2435C11.9988 20.4283 12.6239 19.3698 12.9117 18.2001C12.9394 18.0835 13.0121 17.9827 13.1139 17.9199C13.2157 17.8571 13.3382 17.8374 13.4545 17.8652C13.5707 17.893 13.6712 17.966 13.7339 18.0681C13.7965 18.1702 13.8161 18.293 13.7884 18.4096C13.4598 19.7528 12.7434 20.9689 11.7289 21.9056C10.7144 22.8423 9.447 23.458 8.08531 23.6755C6.72362 23.8931 5.3282 23.7029 4.07377 23.1288C2.81935 22.5546 1.76168 21.622 1.03322 20.4477C0.554624 19.6791 0.233414 18.8227 0.0883236 17.9282C-0.0567668 17.0338 -0.022833 16.1193 0.188147 15.2382C1.28717 10.8723 3.81062 7.0005 7.35685 4.23917C10.9031 1.47785 15.2683 -0.014345 19.7577 0.000103952C30.867 0.000103952 39.9064 8.97789 39.9064 20.0001C39.9028 22.2638 39.5165 24.5105 38.7638 26.6446C38.765 26.6541 38.765 26.6637 38.7638 26.6731C38.5644 27.1298 38.2354 27.5176 37.8178 27.788C37.4001 28.0584 36.9124 28.1995 36.4154 28.1938Z" fill="#E2E8F0"/>
<path d="M49.1388 24.9619C49.0795 24.9623 49.0207 24.951 48.9658 24.9285C48.9109 24.906 48.861 24.8729 48.8189 24.831C48.7768 24.7891 48.7435 24.7392 48.7207 24.6843C48.6979 24.6294 48.6862 24.5706 48.6862 24.5111V15.4857C48.6956 15.3722 48.7473 15.2665 48.8308 15.1895C48.9143 15.1124 49.0237 15.0696 49.1372 15.0696C49.2507 15.0696 49.36 15.1124 49.4436 15.1895C49.5271 15.2665 49.5787 15.3722 49.5882 15.4857V24.5111C49.5882 24.6306 49.5408 24.7453 49.4566 24.8298C49.3723 24.9144 49.258 24.9619 49.1388 24.9619Z" fill="#E2E8F0"/>
<path d="M56.6082 24.9619C56.5151 24.9628 56.4242 24.9339 56.3486 24.8794L50.0185 20.4064C49.9665 20.374 49.9217 20.3313 49.8867 20.281C49.8517 20.2306 49.8274 20.1737 49.8151 20.1135C49.8029 20.0534 49.803 19.9914 49.8155 19.9313C49.828 19.8712 49.8525 19.8144 49.8877 19.7641C49.9229 19.7139 49.9679 19.6715 50.02 19.6393C50.0721 19.6072 50.1303 19.586 50.1908 19.5772C50.2514 19.5684 50.3131 19.572 50.3721 19.588C50.4312 19.6039 50.4864 19.6318 50.5344 19.6698L56.8645 24.1429C56.9425 24.1981 57.0009 24.2768 57.0313 24.3675C57.0617 24.4583 57.0625 24.5564 57.0336 24.6477C57.0047 24.7389 56.9476 24.8186 56.8705 24.8751C56.7934 24.9316 56.7005 24.962 56.605 24.9619H56.6082Z" fill="#E2E8F0"/>
<path d="M49.1388 21.3015C49.0671 21.3024 48.9962 21.2858 48.9322 21.2532C48.8683 21.2206 48.8132 21.1729 48.7717 21.1142C48.736 21.066 48.7103 21.011 48.6962 20.9527C48.6822 20.8943 48.6799 20.8337 48.6897 20.7745C48.6994 20.7153 48.7209 20.6586 48.753 20.6079C48.785 20.5571 48.8269 20.5134 48.8761 20.4792L56.3741 15.111C56.4223 15.0766 56.4768 15.0521 56.5345 15.0388C56.5922 15.0255 56.6519 15.0238 56.7102 15.0336C56.7685 15.0435 56.8244 15.0648 56.8745 15.0963C56.9246 15.1279 56.9681 15.169 57.0024 15.2173C57.0367 15.2657 57.0611 15.3203 57.0744 15.3782C57.0876 15.436 57.0893 15.4959 57.0795 15.5544C57.0696 15.613 57.0484 15.6689 57.017 15.7192C56.9855 15.7695 56.9446 15.8131 56.8963 15.8475L49.3983 21.2126C49.3234 21.269 49.2325 21.3001 49.1388 21.3015Z" fill="#E2E8F0"/>
<path d="M70.2624 24.962C70.2033 24.9624 70.1447 24.951 70.0899 24.9285C70.0352 24.906 69.9855 24.8728 69.9437 24.8309C69.9019 24.7889 69.8688 24.7391 69.8464 24.6842C69.8239 24.6293 69.8126 24.5705 69.813 24.5112V21.1588C69.813 21.0392 69.8604 20.9246 69.9446 20.84C70.0289 20.7555 70.1432 20.708 70.2624 20.708C70.3816 20.708 70.4959 20.7555 70.5802 20.84C70.6645 20.9246 70.7119 21.0392 70.7119 21.1588V24.5112C70.7119 24.6307 70.6645 24.7454 70.5802 24.8299C70.4959 24.9145 70.3816 24.962 70.2624 24.962Z" fill="#E2E8F0"/>
<path d="M70.2621 21.6095C70.1878 21.6094 70.1146 21.5912 70.049 21.5563C69.9834 21.5215 69.9272 21.471 69.8854 21.4095L66.1475 15.7364C66.0812 15.6367 66.0571 15.5145 66.0805 15.397C66.104 15.2794 66.173 15.176 66.2725 15.1094C66.372 15.0429 66.4937 15.0188 66.6109 15.0423C66.7282 15.0658 66.8313 15.1351 66.8976 15.2348L70.645 20.911C70.6794 20.9606 70.7034 21.0165 70.7158 21.0755C70.7282 21.1345 70.7287 21.1955 70.7172 21.2547C70.7056 21.3139 70.6824 21.3702 70.6488 21.4202C70.6152 21.4702 70.572 21.513 70.5216 21.546C70.4433 21.5925 70.3529 21.6146 70.2621 21.6095Z" fill="#E2E8F0"/>
<path d="M70.2623 21.6095C70.1806 21.6107 70.1002 21.5895 70.0298 21.5482C69.9593 21.5068 69.9015 21.4469 69.8627 21.3748C69.8239 21.3028 69.8055 21.2215 69.8095 21.1397C69.8135 21.0579 69.8399 20.9788 69.8856 20.911L73.6394 15.238C73.7057 15.1382 73.8088 15.069 73.926 15.0455C74.0433 15.0219 74.165 15.0461 74.2645 15.1126C74.3639 15.1791 74.433 15.2826 74.4564 15.4001C74.4799 15.5177 74.4558 15.6398 74.3895 15.7396L70.6389 21.4126C70.5974 21.4742 70.5412 21.5245 70.4754 21.5589C70.4097 21.5932 70.3364 21.6106 70.2623 21.6095Z" fill="#E2E8F0"/>
<path d="M89.8855 24.9619H85.3943C84.8772 24.9619 84.3813 24.7559 84.0156 24.3891C83.65 24.0224 83.4446 23.525 83.4446 23.0064V16.9746C83.4446 16.456 83.65 15.9586 84.0156 15.5918C84.3813 15.2251 84.8772 15.019 85.3943 15.019H89.8855C90.4026 15.019 90.8985 15.2251 91.2641 15.5918C91.6297 15.9586 91.8351 16.456 91.8351 16.9746V23.0064C91.8351 23.525 91.6297 24.0224 91.2641 24.3891C90.8985 24.7559 90.4026 24.9619 89.8855 24.9619ZM85.3943 15.9365C85.1156 15.9365 84.8483 16.0475 84.6512 16.2452C84.4542 16.4429 84.3435 16.7109 84.3435 16.9905V23.0222C84.3435 23.3018 84.4542 23.5698 84.6512 23.7675C84.8483 23.9652 85.1156 24.0762 85.3943 24.0762H89.8855C90.1642 24.0762 90.4314 23.9652 90.6285 23.7675C90.8256 23.5698 90.9363 23.3018 90.9363 23.0222V16.9905C90.9363 16.7109 90.8256 16.4429 90.6285 16.2452C90.4314 16.0475 90.1642 15.9365 89.8855 15.9365H85.3943Z" fill="#E2E8F0"/>
<path d="M124.65 24.9651H120.15C119.633 24.9643 119.138 24.758 118.772 24.3914C118.407 24.0249 118.201 23.528 118.2 23.0096V22.3493C118.21 22.2358 118.261 22.1301 118.345 22.053C118.428 21.976 118.538 21.9332 118.651 21.9332C118.765 21.9332 118.874 21.976 118.957 22.053C119.041 22.1301 119.093 22.2358 119.102 22.3493V23.0096C119.102 23.2886 119.212 23.5562 119.409 23.7537C119.605 23.9513 119.872 24.0627 120.15 24.0636H124.65C124.929 24.0636 125.196 23.9525 125.393 23.7549C125.591 23.5572 125.701 23.2891 125.701 23.0096V21.5048C125.7 21.2258 125.589 20.9586 125.392 20.7616C125.195 20.5646 124.929 20.454 124.65 20.454H120.15C119.633 20.4524 119.138 20.2458 118.773 19.8794C118.408 19.513 118.202 19.0166 118.2 18.4985V16.9937C118.201 16.4753 118.407 15.9784 118.772 15.6118C119.138 15.2453 119.633 15.039 120.15 15.0381H124.65C125.168 15.0381 125.663 15.2442 126.029 15.6109C126.395 15.9777 126.6 16.4751 126.6 16.9937V17.5905C126.6 17.7101 126.553 17.8247 126.469 17.9093C126.384 17.9938 126.27 18.0413 126.151 18.0413C126.031 18.0413 125.917 17.9938 125.833 17.9093C125.749 17.8247 125.701 17.7101 125.701 17.5905V16.9937C125.701 16.7142 125.591 16.4461 125.393 16.2484C125.196 16.0508 124.929 15.9397 124.65 15.9397H120.15C119.872 15.9406 119.605 16.052 119.409 16.2496C119.212 16.4471 119.102 16.7147 119.102 16.9937V18.4985C119.102 18.7772 119.212 19.0444 119.409 19.2415C119.605 19.4386 119.872 19.5493 120.15 19.5493H124.65C125.167 19.5501 125.663 19.7564 126.028 20.123C126.394 20.4895 126.599 20.9864 126.6 21.5048V23.0096C126.6 23.5282 126.395 24.0256 126.029 24.3924C125.663 24.7591 125.168 24.9651 124.65 24.9651Z" fill="#E2E8F0"/>
<path d="M108.771 24.962C108.705 24.9622 108.64 24.9478 108.581 24.9198C108.521 24.8918 108.468 24.8509 108.426 24.8001L101.723 16.7334V24.5112C101.723 24.5704 101.711 24.629 101.689 24.6837C101.666 24.7384 101.633 24.7881 101.591 24.8299C101.549 24.8718 101.5 24.905 101.445 24.9277C101.391 24.9503 101.332 24.962 101.273 24.962C101.214 24.962 101.156 24.9503 101.101 24.9277C101.047 24.905 100.997 24.8718 100.955 24.8299C100.914 24.7881 100.881 24.7384 100.858 24.6837C100.835 24.629 100.824 24.5704 100.824 24.5112V15.4858C100.824 15.3932 100.852 15.3028 100.905 15.227C100.958 15.1512 101.033 15.0936 101.12 15.062C101.207 15.0304 101.301 15.0265 101.39 15.0506C101.48 15.0747 101.559 15.1258 101.618 15.1969L108.322 23.2636V15.4858C108.322 15.3662 108.369 15.2515 108.454 15.167C108.538 15.0825 108.652 15.035 108.771 15.035C108.891 15.035 109.005 15.0825 109.089 15.167C109.173 15.2515 109.221 15.3662 109.221 15.4858V24.5112C109.221 24.6042 109.193 24.695 109.139 24.7712C109.086 24.8474 109.011 24.9051 108.923 24.9366C108.875 24.9545 108.823 24.9631 108.771 24.962Z" fill="#E2E8F0"/>
</svg>
