<?xml version="1.0" encoding="utf-8"?>
<!-- Generator: Adobe Illustrator 27.0.0, SVG Export Plug-In . SVG Version: 6.00 Build 0)  -->
<svg version="1.1" id="Layer_2_00000109002165430130611800000004771352615694724006_"
	 xmlns="http://www.w3.org/2000/svg" xmlns:xlink="http://www.w3.org/1999/xlink" x="0px" y="0px" viewBox="0 0 695.9 630"
	 style="enable-background:new 0 0 695.9 630;" xml:space="preserve">
<style type="text/css">
	.st0{clip-path:url(#SVGID_00000173868046519460412030000006298625009999703198_);}
	.st1{clip-path:url(#SVGID_00000065043970423734339150000006875357973976550295_);}
	.st2{fill:#FFFFFF;}
	.st3{fill:#FED7AA;}
	.st4{fill:#475569;}
	.st5{fill:#1E293B;}
	.st6{fill:#FB7200;}
</style>
<g id="Layer_1-2">
	<g>
		<defs>
			<rect id="SVGID_1_" width="695.9" height="630"/>
		</defs>
		<clipPath id="SVGID_00000174574347059367792370000011326547018675690669_">
			<use xlink:href="#SVGID_1_"  style="overflow:visible;"/>
		</clipPath>
		<g style="clip-path:url(#SVGID_00000174574347059367792370000011326547018675690669_);">
			<g>
				<g>
					<defs>
						<path id="SVGID_00000091003509022856035700000005521720087291260812_" d="M254,85h407c4.4,0,8,3.6,8,8v466c0,4.4-3.6,8-8,8
							H254c-4.4,0-8-3.6-8-8V93C246,88.6,249.6,85,254,85z"/>
					</defs>
					<clipPath id="SVGID_00000156556960946189642240000002887050806886097846_">
						<use xlink:href="#SVGID_00000091003509022856035700000005521720087291260812_"  style="overflow:visible;"/>
					</clipPath>
					<g style="clip-path:url(#SVGID_00000156556960946189642240000002887050806886097846_);">
						<g>
							<path class="st2" d="M241.3,575.9c0,0,42.7-41.4,48.3-45.8c5.6-4.4,72.8-39,72.8-39s52.9-40.2,58.8-42.7
								c5.9-2.5,97.1-20.8,97.1-20.8s159-128,165.2-132.4c6.2-4.4,46.6-26.8,60.4-46.8c1.8-2.5,26.9-25.2,35.9-29.8
								c3.8-1.9-0.2-21.9,5-34.3c5-11.8,16.8-29.3,16.8-29.3l46.7,29.9l-64.7,158.2c0,0-38.6,63.5-39.8,76s-13.7,71.6-13.7,71.6
								l-4.7,52.3l-13.4,29.2L241.3,575.9z"/>
							<path class="st3" d="M254.8,541.7l7.3-36.6l12,31.5l13.3-44.1l9.2,41.7l14-32.8l7.7,40.4L254.8,541.7L254.8,541.7z"/>
							<path class="st4" d="M270.4,428l6.4-32l10.4,27.5l11.6-38.5l8,36.4l12.3-28.6l6.7,35.3H270.4z"/>
							<path class="st3" d="M636.5,208.8l4-20.1l6.6,17.3l7.3-24.2l5,22.9l7.7-18l4.2,22.2L636.5,208.8L636.5,208.8z"/>
						</g>
					</g>
				</g>
				<path class="st3" d="M569.7,276.1l-7,0.4l-26.5,1.4l-1.3-9.9c-22.5-1.9-14.8-47.4-14.8-47.4c1-11.7,15.8-15.8,29.7-11.9
					c9.9,2.8,15.9,36.3,18.5,55C569.2,271,569.7,276.1,569.7,276.1L569.7,276.1L569.7,276.1z"/>
				<path class="st5" d="M532.8,240.9c0.6,0,1.2-0.5,1.2-1.2s-0.5-1.2-1.2-1.2s-1.2,0.5-1.2,1.2S532.1,240.9,532.8,240.9z"/>
				<path class="st5" d="M521.7,240.5c0.6,0,1.2-0.5,1.2-1.2s-0.5-1.2-1.2-1.2s-1.2,0.5-1.2,1.2S521,240.5,521.7,240.5z"/>
				<path class="st5" d="M518.4,236.2c-0.2,0-0.3,0-0.5-0.1c-0.7-0.3-1.1-1.1-0.8-1.8c0.1-0.2,0.8-1.9,2.7-2.7
					c1.5-0.6,3.1-0.4,5,0.5c0.7,0.3,1,1.2,0.6,1.9c-0.3,0.7-1.2,1-1.8,0.6c-1.1-0.5-2-0.7-2.7-0.4c-0.8,0.3-1.1,1.1-1.2,1.1
					C519.5,235.9,519,236.2,518.4,236.2L518.4,236.2z"/>
				<path class="st5" d="M538.5,236c-0.3,0-0.6-0.1-0.8-0.3c-3.5-2.5-5.5-0.9-5.7-0.7c-0.6,0.5-1.4,0.5-2,0c-0.5-0.5-0.5-1.4,0-1.9
					c1.2-1.2,4.8-2.8,9.2,0.4c0.6,0.4,0.8,1.3,0.3,1.9C539.3,235.8,538.9,236,538.5,236L538.5,236L538.5,236z"/>
				<path class="st5" d="M523.2,247.5c-0.2,0-0.5-0.2-0.5-0.4c-0.1-1.3,0.3-2.2,0.9-2.6c1-0.6,2.3,0.1,2.3,0.1
					c0.2,0.1,0.3,0.4,0.2,0.6c-0.1,0.2-0.4,0.3-0.6,0.2c-0.2-0.1-1-0.4-1.4-0.1c-0.3,0.2-0.5,0.8-0.5,1.8
					C523.7,247.3,523.5,247.5,523.2,247.5L523.2,247.5L523.2,247.5z"/>
				<path class="st5" d="M530.1,255.8c-0.2,0-0.4,0-0.5,0c-1.7-0.2-3-1.4-3.9-3.4l-0.2-0.5l0.6-0.1c0.1,0,5.8-1.2,11.4-1.4l1,0
					l-0.7,0.8C537.6,251.3,533.8,255.8,530.1,255.8L530.1,255.8L530.1,255.8z M526.8,252.5c0.8,1.4,1.8,2.2,2.9,2.4
					c2.5,0.3,5.3-2.2,6.6-3.6C532.2,251.5,528.2,252.2,526.8,252.5L526.8,252.5L526.8,252.5z"/>
				<path class="st5" d="M558.8,240.6c0,0,1-10.1-4.3-14.9c-5.3-4.8-35.2,5-34.5-5.1c0.7-10.1,8.4-15.7,21.1-14.4
					c12.7,1.3,20.3,12.4,22,24.2c1.7,11.8-0.9,6.5-0.9,6.5L558.8,240.6L558.8,240.6L558.8,240.6z"/>
				<path class="st3" d="M556,228.3c0,0,6.8-3.3,7.6,4.4c0.8,7.7-3.5,9.5-6.2,7.4"/>
				<path class="st5" d="M559.7,241.4c-0.9,0-1.7-0.3-2.5-0.9l0.6-0.7c1,0.8,2.2,0.9,3.3,0.4c0.8-0.5,2.7-2.1,2.2-7.4
					c-0.2-2.1-1-3.6-2.2-4.2c-2-1.1-4.8,0.2-4.8,0.2l-0.4-0.8c0.1-0.1,3.2-1.5,5.7-0.1c1.5,0.8,2.4,2.5,2.6,5
					c0.4,4.1-0.5,7.1-2.6,8.3C560.9,241.3,560.3,241.5,559.7,241.4L559.7,241.4L559.7,241.4z"/>
				<path class="st5" d="M546.4,265.9c-0.2,0-0.4-0.1-0.4-0.3c-0.1-0.2,0-0.5,0.3-0.6c0.1,0,7.6-2.6,9.9-7c0.1-0.2,0.4-0.3,0.6-0.2
					s0.3,0.4,0.2,0.6c-2.5,4.8-10.1,7.4-10.4,7.5C546.5,265.9,546.5,265.9,546.4,265.9L546.4,265.9L546.4,265.9z"/>
				<path class="st3" d="M556.7,236.6c0,0,1.1-4.5,4.5-3.6c0,0,0-1.6-1.4-1.3"/>
				<path class="st5" d="M557.1,236.7l-0.9-0.2c0-0.1,0.7-2.6,2.5-3.6c0.6-0.3,1.3-0.5,2-0.4c0-0.1-0.1-0.1-0.2-0.2
					c-0.1-0.1-0.3-0.1-0.5,0l-0.2-0.9c0.7-0.2,1.1,0,1.3,0.2c0.6,0.5,0.6,1.4,0.6,1.5l0,0.6l-0.6-0.2c-0.7-0.2-1.4-0.1-1.9,0.2
					C557.7,234.5,557.1,236.7,557.1,236.7L557.1,236.7L557.1,236.7z"/>
				<path class="st6" d="M569.5,270.6c0,0,47.6,10.9,54.6,16.7c7,5.8-4,171.1-3.7,185.3c-23.5,1.5-125.2,7.9-130.5,5.6
					c-5.2-2.3-7.9-187.8,1.9-192.7c9.2-4.6,37.9-16,49.8-13.5S569.5,270.6,569.5,270.6L569.5,270.6L569.5,270.6z"/>
				<path class="st5" d="M508.8,450.6c0,0-52.1-38.7-72.1-23.1C416.9,443,406.1,490,454.5,517c48.4,27,161.3,50.2,161.3,50.2
					l20.2-58.9L508.8,450.6L508.8,450.6L508.8,450.6z"/>
				<path class="st3" d="M615.8,567.2l12.8,3.1l7.4-62L615.8,567.2z"/>
				<path class="st6" d="M605.6,584.3c-0.5,2.6-1,5.8-0.9,9.5c0,1.3,0.1,2.6,0.2,4c0.4,3.4,1.2,7,2.8,10.7
					c2.1,4.8,5.4,9.8,10.5,14.3c2.6,2.3,5.6,4.5,9.2,6.5l45.8-81.3l-9.3-6.3l-29.8-20.1L607.4,578
					C607.4,578,606.4,580.4,605.6,584.3L605.6,584.3L605.6,584.3z"/>
				<path class="st5" d="M618.3,622.8c2.6,2.3,5.6,4.5,9.2,6.5l45.8-81.3l-9.3-6.3L618.3,622.8L618.3,622.8L618.3,622.8z"/>
				<path class="st5" d="M607,446c0,0,52.2-38.7,72-23.1c19.9,15.5,30.7,62.5-17.7,89.5c-48.4,27-161.3,50.2-161.3,50.2l-20.2-58.9
					L607,446L607,446L607,446z"/>
				<path class="st3" d="M500.1,562.5l-12.8,3.1l-7.4-62L500.1,562.5z"/>
				<path class="st6" d="M487,572.2c-0.3,2.6-1,5.8-2.1,9.3c-0.4,1.2-0.9,2.5-1.5,3.7c-1.4,3.1-3.4,6.3-6,9.3
					c-3.5,3.9-8.2,7.5-14.5,10.2c-3.2,1.3-6.7,2.4-10.8,3.2l-17.6-91.7l10.8-3l34.7-9.5l7.4,62C487.2,565.7,487.4,568.3,487,572.2
					L487,572.2L487,572.2z"/>
				<path class="st5" d="M462.7,604.7c-3.2,1.3-6.7,2.4-10.8,3.2l-17.6-91.7l10.8-3L462.7,604.7L462.7,604.7L462.7,604.7z"/>
				<path class="st6" d="M615.7,283.6c40.7,8.3,86.8,113.4,51.8,135.3c-9.3,5.8-22.2,10.2-62,17.6l-8.3-40.8l25-16.7L615.7,283.6
					L615.7,283.6L615.7,283.6z"/>
				<path class="st6" d="M507.5,279c0,0-0.5,0.4-20.4,8.3c-18.5,7.4-50.9,51.7-50.9,102.8c0,28.5,50,48.2,50,48.2l15.9-43.8
					c0,0-6.7-22.9-6-29.2c0.7-6.3-2.7-13.9-2.7-13.9L507.5,279L507.5,279L507.5,279z"/>
				<path class="st3" d="M488,383.7c0,0,12,0.9,20.4-3.7c9.2-5.1,14.1,13,14.1,13s10.1,27.9-10.3,38.5L488,383.7L488,383.7
					L488,383.7z"/>
				<path class="st3" d="M473.7,422.1c0,0-6-33,9.7-32c13.9,0.9,22.4,8.3,23.1,10.2c7.4,17.5,11.1,35.2,1.9,33.4
					C493.6,430.8,484.3,432.8,473.7,422.1L473.7,422.1z"/>
				<path class="st5" d="M509.8,413.3c-0.1,0-0.2,0-0.3-0.1c-7.2-6.3-21.4-9.8-21.5-9.8c-0.2-0.1-0.4-0.3-0.3-0.6s0.3-0.4,0.6-0.3
					c0.6,0.1,14.5,3.5,21.9,10c0.2,0.2,0.2,0.5,0,0.6C510.1,413.3,509.9,413.3,509.8,413.3L509.8,413.3L509.8,413.3z"/>
				<path class="st5" d="M508.1,424.6c-0.1,0-0.2,0-0.3-0.1c-4.3-4.3-16.5-7.4-16.6-7.5c-0.2-0.1-0.4-0.3-0.3-0.6
					c0.1-0.2,0.3-0.4,0.6-0.3c0.5,0.1,12.5,3.2,17,7.7c0.2,0.2,0.2,0.5,0,0.6C508.3,424.6,508.2,424.6,508.1,424.6L508.1,424.6
					L508.1,424.6z"/>
				<path class="st5" d="M506.5,420.8c-0.2,0-0.4-0.1-0.5-0.4l-1.8-8.4c0-0.2,0.1-0.5,0.4-0.5c0.2,0,0.5,0.1,0.5,0.4l1.8,8.4
					C506.9,420.5,506.8,420.8,506.5,420.8C506.5,420.8,506.5,420.8,506.5,420.8L506.5,420.8z"/>
				<path class="st5" d="M508.5,431.9c-0.2,0-0.4-0.2-0.5-0.4l-0.5-3.9c0-0.3,0.1-0.5,0.4-0.5c0.2,0,0.5,0.1,0.5,0.4l0.5,3.9
					C509,431.6,508.9,431.9,508.5,431.9L508.5,431.9L508.5,431.9z"/>
				<path class="st2" d="M525.5,432l0,10.5l-9.6-7.1l-21.9-63l9.6-3.4L525.5,432L525.5,432z"/>
				<path class="st5" d="M526,443.4l-10.4-7.8l0-0.1l-22-63.4l10.5-3.6l0.1,0.4L526,432L526,443.4L526,443.4L526,443.4z
					 M516.3,435.1l8.7,6.5l0-9.5l-21.7-62.5l-8.7,3L516.3,435.1L516.3,435.1L516.3,435.1z"/>
				<path class="st3" d="M478.8,391.1c0,0,3.3-8.5,12-7.4c4.6,0.6,12.5,6.1,18.5,12c3.7,3.7-1.1,10.3-5.5,8.3
					S478.8,391.1,478.8,391.1L478.8,391.1L478.8,391.1z"/>
				<path class="st5" d="M505.8,403.3c-0.2,0-0.3-0.1-0.4-0.2c-0.1-0.2-0.1-0.5,0.2-0.6c0,0,2.8-1.7,3.2-3.5c0.1-0.5,0-1-0.3-1.5
					c-1.3-2-2.6-2.4-3.1-2.5l-2.6,3.5c-0.1,0.2-0.5,0.2-0.6,0.1c-0.2-0.1-0.2-0.5-0.1-0.6l2.9-3.9h0.2c0.1,0,2.1,0,4.1,3
					c0.5,0.7,0.6,1.4,0.4,2.2c-0.5,2.2-3.5,4-3.7,4.1C505.9,403.2,505.8,403.3,505.8,403.3L505.8,403.3L505.8,403.3z"/>
				<path class="st5" d="M487.7,394.8c0,0-0.1,0-0.1,0c-0.2-0.1-0.4-0.3-0.3-0.6l1.7-6.5c0.1-0.2,0.3-0.4,0.6-0.3s0.4,0.3,0.3,0.6
					l-1.7,6.5C488.1,394.6,487.9,394.8,487.7,394.8L487.7,394.8L487.7,394.8z"/>
				<path class="st5" d="M486.6,392c0,0-0.1,0-0.1,0c-0.2-0.1-0.4-0.3-0.3-0.6l0.9-2.8c0.1-0.2,0.3-0.4,0.6-0.3s0.4,0.3,0.3,0.6
					l-0.9,2.8C487,391.9,486.8,392,486.6,392L486.6,392L486.6,392z"/>
				<path class="st5" d="M499.7,399c-0.1,0-0.2,0-0.3-0.1c-0.2-0.1-0.2-0.4-0.1-0.6l4.1-5.6c0.1-0.2,0.4-0.2,0.6-0.1
					s0.2,0.4,0.1,0.6l-4.1,5.6C499.9,399,499.8,399,499.7,399L499.7,399L499.7,399z"/>
				<path class="st3" d="M505.7,382.9c0,0-2.8,16.3,3.9,19c6.7,2.7,16.2-12.9,10.9-22.7C517.4,373.4,505.5,376.7,505.7,382.9
					L505.7,382.9L505.7,382.9z"/>
				<path class="st5" d="M519,379.7L519,379.7l-7.3-0.7c-0.3,0-0.4-0.2-0.4-0.5c0-0.3,0.2-0.4,0.5-0.4l7.2,0.7
					c0.3,0,0.4,0.2,0.4,0.5C519.5,379.5,519.3,379.7,519,379.7L519,379.7L519,379.7z"/>
				<path class="st5" d="M510.8,400.2c-0.1,0-0.1,0-0.2-0.1c0,0-4.3-2.5-2.5-7.4l0.1-0.4l9.6,2.6c0.2,0.1,0.4,0.3,0.3,0.6
					c-0.1,0.2-0.3,0.4-0.6,0.3l-8.7-2.4c-1.2,3.9,2,5.8,2.2,5.8c0.2,0.1,0.3,0.4,0.2,0.6C511.1,400.2,510.9,400.2,510.8,400.2
					L510.8,400.2L510.8,400.2z"/>
				<path class="st3" d="M604.6,399.4c0,0-45.2,30.7-35.6,50.9l55-25.3L604.6,399.4L604.6,399.4L604.6,399.4z"/>
				<path class="st5" d="M579.3,444L579.3,444c-0.1,0-2.5-0.3-3.3-2.2c-0.8-1.6-0.2-3.8,1.6-6.6l0.1-0.1l13.5-9.9
					c0.2-0.1,0.5-0.1,0.6,0.1c0.2,0.2,0.1,0.5-0.1,0.6l-13.5,9.8c-1.6,2.4-2.1,4.4-1.5,5.6c0.7,1.4,2.5,1.6,2.6,1.6
					c0.3,0,0.4,0.3,0.4,0.5C579.7,443.8,579.5,444,579.3,444L579.3,444z"/>
				<path class="st5" d="M571.4,448.2c-0.1,0-0.3-0.1-0.4-0.2c0-0.1-1.2-1.7-1.2-4.4c0-2.5,1.1-6.4,6-11c0.2-0.2,0.5-0.2,0.7,0
					c0.2,0.2,0.2,0.5,0,0.6c-8.8,8.3-4.8,13.9-4.6,14.1c0.2,0.2,0.1,0.5-0.1,0.6C571.6,448.2,571.5,448.2,571.4,448.2L571.4,448.2
					L571.4,448.2z"/>
				<path class="st5" d="M578,440.9c-0.2,0-0.3-0.1-0.4-0.2c-0.1-0.2,0-0.5,0.2-0.6l5.3-2.8l-2-2.3c-0.2-0.2-0.2-0.5,0-0.6
					s0.5-0.1,0.7,0l2.7,3.2l-6.3,3.4C578.1,440.9,578,440.9,578,440.9L578,440.9L578,440.9z"/>
				<path class="st3" d="M594.5,411.5c0,0-23.7,7.7-24.1,24.8L594.5,411.5z"/>
				<path class="st5" d="M573,430.9c-0.1,0-0.2,0-0.3-0.1c-0.2-0.2-0.2-0.5,0-0.6l10.4-9.7c0.2-0.2,0.5-0.2,0.7,0
					c0.2,0.2,0.2,0.5,0,0.6l-10.4,9.7C573.3,430.9,573.1,430.9,573,430.9L573,430.9L573,430.9z"/>
				<path class="st2" d="M551.4,463.8l-92.6-47.5l-3.5,6.9l97.5,48.2l100-48.9l-3.4-7.9L551.4,463.8L551.4,463.8z"/>
				<path class="st5" d="M552.8,472l-0.2-0.1l-97.9-48.4l3.9-7.8l92.8,47.6l98.3-49.2l3.8,8.7l-0.4,0.2L552.8,472L552.8,472
					L552.8,472z M455.9,423.1l96.9,47.9l99.5-48.6l-3-7l-97.8,49l-0.2-0.1L459,417L455.9,423.1L455.9,423.1L455.9,423.1z"/>
				<path class="st2" d="M464.4,419.4c0,0,6.3-7.9,7.4-7.4c1.5,0.7,50.7,23.9,79,49c0,0,64.4-48.1,90.3-50.9l4.6,6.5l-94.4,47.2
					L464.4,419.4L464.4,419.4L464.4,419.4z"/>
				<path class="st5" d="M551.4,464.3l-87.7-44.8l0.4-0.5c4.4-5.4,7-8,8-7.5c2.1,1,50.6,23.9,78.8,48.8c4.8-3.6,65.4-48,90.2-50.7
					l0.3,0l5.1,7.1L551.4,464.3L551.4,464.3L551.4,464.3z M465.2,419.2l86.3,44.1l93.7-46.9l-4.2-5.8c-25.7,3-89.2,50.2-89.8,50.7
					l-0.3,0.2l-0.3-0.2c-27.9-24.7-76.1-47.6-78.9-48.9C470.9,412.5,467.8,415.9,465.2,419.2L465.2,419.2L465.2,419.2z"/>
				<path class="st5" d="M620.3,372.5c0,0-0.1,0-0.2,0c-0.2-0.1-0.4-0.4-0.3-0.6l1.8-4.7l-4.9-4.9c-0.2-0.2-0.2-0.5,0-0.6
					s0.5-0.2,0.7,0l5.3,5.3l-2,5.3C620.7,372.4,620.5,372.5,620.3,372.5L620.3,372.5L620.3,372.5z"/>
				<path class="st5" d="M488.6,367.4L488.6,367.4l-9.8-1.1c-0.3,0-0.4-0.3-0.4-0.5c0-0.3,0.3-0.4,0.5-0.4l9.8,1.1
					c0.3,0,0.4,0.3,0.4,0.5C489,367.2,488.8,367.4,488.6,367.4L488.6,367.4L488.6,367.4z"/>
				<path class="st5" d="M487.6,364.2c-0.1,0-0.2,0-0.2-0.1l-5.7-3.7c-0.2-0.1-0.3-0.4-0.1-0.6c0.1-0.2,0.4-0.3,0.6-0.1l5.7,3.7
					c0.2,0.1,0.3,0.4,0.1,0.6C487.9,364.1,487.7,364.2,487.6,364.2L487.6,364.2z"/>
				<path class="st2" d="M458.4,328.6c0,0-0.1,0-0.2,0c-0.2-0.1-0.4-0.4-0.3-0.6c0.1-0.2,8.3-22.4,23.7-31.2c0.2-0.1,0.5,0,0.6,0.2
					c0.1,0.2,0,0.5-0.2,0.6c-15.1,8.7-23.2,30.5-23.3,30.7C458.8,328.5,458.6,328.6,458.4,328.6L458.4,328.6L458.4,328.6z"/>
				<path class="st2" d="M673.5,372.5c-0.2,0-0.4-0.1-0.5-0.4c-3.2-15.1-11.4-28.8-11.4-28.9c-0.1-0.2-0.1-0.5,0.2-0.6
					c0.2-0.1,0.5-0.1,0.6,0.2c0.1,0.1,8.3,13.9,11.5,29.2C674,372.1,673.8,372.4,673.5,372.5C673.5,372.4,673.5,372.4,673.5,372.5
					L673.5,372.5L673.5,372.5z"/>
			</g>
		</g>
	</g>
</g>
</svg>
