<?xml version="1.0" encoding="utf-8"?>
<!-- Generator: Adobe Illustrator 27.0.0, SVG Export Plug-In . SVG Version: 6.00 Build 0)  -->
<svg version="1.1" id="Layer_2_00000057125238656208702870000011937827664291955631_"
	 xmlns="http://www.w3.org/2000/svg" xmlns:xlink="http://www.w3.org/1999/xlink" x="0px" y="0px" viewBox="0 0 695.2 630"
	 style="enable-background:new 0 0 695.2 630;" xml:space="preserve">
<style type="text/css">
	.st0{clip-path:url(#SVGID_00000124857628641527487380000010919720997013263248_);}
	.st1{fill:none;}
	.st2{fill:#FDBA74;}
	.st3{fill:#1E293B;}
	.st4{fill:#334155;}
	.st5{fill:#B90F0F;}
	.st6{fill:#FB923C;}
	.st7{fill:#34D399;}
	.st8{fill:#FFFFFF;}
	.st9{fill:#E2E8F0;}
	.st10{fill:#475569;}
	.st11{fill:#FEE2E2;}
	.st12{fill-rule:evenodd;clip-rule:evenodd;fill:#FEE2E2;}
	.st13{fill:#CBD5E1;}
</style>
<g id="Layer_2-2">
	<g>
		<defs>
			<rect id="SVGID_1_" width="695.2" height="630"/>
		</defs>
		<clipPath id="SVGID_00000127034248588273069380000011377166091433918632_">
			<use xlink:href="#SVGID_1_"  style="overflow:visible;"/>
		</clipPath>
		<g style="clip-path:url(#SVGID_00000127034248588273069380000011377166091433918632_);">
			<g>
				<rect x="-0.8" class="st1" width="492" height="320"/>
				<path class="st2" d="M486.4,319.5l-418.3,0c-3,0.4-5.6-2-5.6-4.9V5.4c0-2.5,1.9-4.6,4.4-4.9l418.3,0c3-0.4,5.6,2,5.6,4.9v309.2
					C490.8,317.1,488.9,319.2,486.4,319.5z"/>
				<path class="st3" d="M67.5,320c-1.3,0-2.6-0.5-3.5-1.4c-1.2-1-1.8-2.5-1.8-4V5.4c0-2.7,2-5,4.7-5.3l418.3,0
					c1.5-0.2,3,0.3,4.2,1.3c1.2,1,1.8,2.5,1.8,4v309.2c0,2.7-2,5-4.7,5.3h0l-418.3,0C67.9,320,67.7,320,67.5,320L67.5,320L67.5,320z
					 M485.8,0.8c-0.2,0-0.4,0-0.5,0l-418.3,0c-2.2,0.3-4,2.2-4,4.5v309.2c0,1.3,0.6,2.5,1.6,3.4c1,0.9,2.3,1.3,3.6,1.1l418.3,0
					c2.3-0.3,4-2.2,4-4.5V5.4c0-1.3-0.6-2.5-1.5-3.4C488,1.2,486.9,0.8,485.8,0.8C485.8,0.8,485.8,0.8,485.8,0.8z"/>
				<path class="st4" d="M490.8,23.2L62.5,24.5v-19c0-2.5,1.9-4.7,4.4-5h418.2c3-0.4,5.6,2,5.6,4.9L490.8,23.2L490.8,23.2
					L490.8,23.2z"/>
				<path class="st5" d="M479,16.4c2.6,0,4.6-2.1,4.6-4.6s-2.1-4.6-4.6-4.6s-4.6,2.1-4.6,4.6S476.5,16.4,479,16.4z"/>
				<path class="st6" d="M465.4,16.4c2.6,0,4.6-2.1,4.6-4.6s-2.1-4.6-4.6-4.6s-4.6,2.1-4.6,4.6S462.9,16.4,465.4,16.4z"/>
				<path class="st7" d="M451.8,16.4c2.6,0,4.6-2.1,4.6-4.6s-2.1-4.6-4.6-4.6s-4.6,2.1-4.6,4.6S449.3,16.4,451.8,16.4z"/>
				<path class="st4" d="M388.7,58.2H102.2c-3.6,0-6.5,2.9-6.5,6.5v218.7c0,3.6,2.9,6.5,6.5,6.5h286.4c3.6,0,6.5-2.9,6.5-6.5V64.7
					C395.2,61.1,392.3,58.2,388.7,58.2z"/>
				<path class="st8" d="M379.7,50.9H93.3c-3.6,0-6.5,2.9-6.5,6.5v218.7c0,3.6,2.9,6.5,6.5,6.5h286.4c3.6,0,6.5-2.9,6.5-6.5V57.4
					C386.2,53.8,383.3,50.9,379.7,50.9L379.7,50.9L379.7,50.9z"/>
				<path class="st3" d="M379.7,283H93.3c-3.8,0-6.9-3.1-6.9-6.9V57.4c0-3.8,3.1-6.9,6.9-6.9h286.4c3.8,0,6.9,3.1,6.9,6.9v218.7
					C386.6,280,383.5,283.1,379.7,283L379.7,283L379.7,283z M93.3,51.3c-3.4,0-6.1,2.7-6.1,6.1v218.7c0,3.4,2.7,6.1,6.1,6.1h286.4
					c3.4,0,6.1-2.7,6.1-6.1V57.4c0-3.4-2.7-6.1-6.1-6.1H93.3z"/>
				<path class="st9" d="M326,79.4H110.4v16.3H326L326,79.4L326,79.4L326,79.4z"/>
				<path class="st9" d="M326,101.3H110.4v16.3H326L326,101.3L326,101.3L326,101.3z"/>
				<path class="st9" d="M326,123.3H110.4v16.3H326L326,123.3L326,123.3L326,123.3z"/>
				<path class="st9" d="M344.7,175.3H129.1v16.3h215.6V175.3L344.7,175.3z"/>
				<path class="st9" d="M344.7,197.3H129.1v16.3h215.6V197.3L344.7,197.3z"/>
				<path class="st9" d="M344.7,219.2H129.1v16.3h215.6V219.2L344.7,219.2z"/>
				<path class="st9" d="M344.7,242H129.1v16.3h215.6V242L344.7,242z"/>
				<path class="st10" d="M473.3,38.7H278.4c-3.6,0-6.5,2.9-6.5,6.5v190.7c0,3.6,2.9,6.5,6.5,6.5h194.9c3.6,0,6.5-2.9,6.5-6.5V45.2
					C479.8,41.6,476.9,38.7,473.3,38.7z"/>
				<path class="st8" d="M473.3,242.8H278.4c-3.8,0-6.9-3.1-6.9-6.9V45.2c0-3.8,3.1-6.9,6.9-6.9h194.9c3.8,0,6.9,3.1,6.9,6.9v190.7
					C480.2,239.7,477.1,242.8,473.3,242.8z M278.4,39.1c-3.4,0-6.1,2.7-6.1,6.1v190.7c0,3.4,2.7,6.1,6.1,6.1h194.9
					c3.4,0,6.1-2.7,6.1-6.1V45.2c0-3.4-2.7-6.1-6.1-6.1H278.4z"/>
				<path class="st11" d="M257.9,158.6c0,0-23.9-27.4-30.8-17.7c0,0-18.9-11.3-21.1-13.1c-3.9-3.2-9.5-1.2-2.4,8.1
					c3.5,4.6,15,11.9,15,11.9s-16.3,19.7-8,27.4c8.3,7.7,32,12,32,12L257.9,158.6L257.9,158.6L257.9,158.6L257.9,158.6z"/>
				<path class="st3" d="M225.5,175.9c-0.2,0-0.4-0.1-0.4-0.3c-0.1-0.2,0.1-0.4,0.3-0.5c2.9-0.6,11.5-14.4,11.4-16.3
					c0-1.9-1.8-2.5-1.8-2.6c-0.2-0.1-0.3-0.3-0.3-0.5c0.1-0.2,0.3-0.3,0.5-0.3c0.8,0.3,2.4,1.3,2.4,3.3
					C237.7,161.1,228.8,175.2,225.5,175.9L225.5,175.9z"/>
				<path class="st3" d="M231.5,162.3c-0.1,0-0.1,0-0.2-0.1l-11.5-6.5c-0.2-0.1-0.3-0.4-0.1-0.6c0.1-0.2,0.4-0.3,0.6-0.1l11.5,6.5
					c0.2,0.1,0.3,0.4,0.1,0.6C231.8,162.2,231.7,162.3,231.5,162.3L231.5,162.3L231.5,162.3z"/>
				<path class="st3" d="M225.9,169.9c0,0-0.1,0-0.1,0l-12-5.1c-0.2-0.1-0.3-0.3-0.2-0.5s0.3-0.3,0.5-0.2l12,5.1
					c0.2,0.1,0.3,0.3,0.2,0.5C226.3,169.8,226.1,169.9,225.9,169.9L225.9,169.9L225.9,169.9z"/>
				<path class="st3" d="M219.8,174.9c-0.1,0-0.3-0.1-0.4-0.2c-0.4-0.7-2.4-0.8-3.5-0.7c-0.2,0-0.4-0.1-0.4-0.4s0.1-0.4,0.4-0.4
					c0.3,0,3.4-0.3,4.2,1.1c0.1,0.2,0.1,0.4-0.1,0.6C219.9,174.9,219.9,174.9,219.8,174.9L219.8,174.9L219.8,174.9z"/>
				<path class="st11" d="M227.7,142.8c0,0-2.8,13.8-3.8,17.4c-1,3.6,6.4,4,9.5-1.1"/>
				<path class="st3" d="M228,161.8c-0.1,0-0.2,0-0.2,0c-2.2-0.3-3.8-1.2-3.9-1.3l-0.3-0.2l1.1-3.1l1.9-11.5c0-0.2,0.2-0.4,0.5-0.3
					s0.4,0.2,0.3,0.5l-2,11.6l-0.9,2.5c0.5,0.3,1.8,0.8,3.2,1c1.2,0.1,2.5-1.9,3-3.2l-4.2-0.3c-0.2,0-0.4-0.2-0.4-0.4
					c0-0.2,0.2-0.4,0.4-0.4l5.3,0.4l-0.2,0.5C231.6,158,230.2,161.8,228,161.8L228,161.8L228,161.8L228,161.8z"/>
				<path class="st3" d="M226.9,163.2c-2.6,0-3.3-1.6-3.4-1.7c-0.1-0.2,0-0.4,0.2-0.5c0.2-0.1,0.4,0,0.5,0.2c0,0.1,1,2.1,5.3,0.7
					c0.1,0,3.6-1,7.7-10.6c0.1-0.2,0.3-0.3,0.5-0.2c0.2,0.1,0.3,0.3,0.2,0.5c-4.4,10.1-8.1,11.1-8.3,11.1
					C228.6,163.1,227.6,163.2,226.9,163.2L226.9,163.2L226.9,163.2z"/>
				<path class="st3" d="M232.7,151.1L232.7,151.1l-3.9-0.7c-0.2,0-0.4-0.2-0.3-0.5s0.3-0.4,0.5-0.3l3.8,0.7c0.2,0,0.4,0.2,0.3,0.5
					C233,151,232.9,151.2,232.7,151.1L232.7,151.1L232.7,151.1z"/>
				<path class="st3" d="M231.9,149.7L231.9,149.7l-2.5-0.4c-0.2,0-0.4-0.2-0.3-0.5c0-0.2,0.2-0.4,0.5-0.3l2.4,0.4
					c0.2,0,0.4,0.2,0.3,0.5C232.3,149.6,232.1,149.8,231.9,149.7L231.9,149.7L231.9,149.7z"/>
				<path class="st3" d="M205.2,135.9c-0.1,0-0.2-0.1-0.3-0.1c-0.1-0.2-0.1-0.4,0.1-0.6l3.9-3.1c0.2-0.1,0.4-0.1,0.6,0.1
					c0.1,0.2,0.1,0.4-0.1,0.6l-3.9,3.1C205.4,135.8,205.3,135.9,205.2,135.9L205.2,135.9L205.2,135.9z"/>
				<path class="st3" d="M211.3,141.2c-0.1,0-0.2,0-0.3-0.1c-0.2-0.1-0.2-0.4,0-0.6l3.6-4.2c0.1-0.2,0.4-0.2,0.6,0
					c0.2,0.1,0.2,0.4,0,0.6l-3.6,4.2C211.6,141.1,211.5,141.2,211.3,141.2L211.3,141.2z"/>
				<path class="st6" d="M303.5,182.2l-52.9-30.4L237,196.2l69.8,39.8L303.5,182.2z"/>
				<path class="st11" d="M357.7,112.5l-26.3,6.6l-2.4-14.8c-25.5-2-9.9-40.2-9.9-40.2c7-7.8,19.2-10,30.4-2.9
					c8,5.1,7.2,16.4,4.5,33.6C352.9,101.6,357.7,112.5,357.7,112.5L357.7,112.5L357.7,112.5z"/>
				<path class="st3" d="M318.9,78.3c0.6,0,1.1-0.5,1.1-1.1s-0.5-1.1-1.1-1.1s-1.1,0.5-1.1,1.1S318.3,78.3,318.9,78.3z"/>
				<path class="st3" d="M325.7,74.3c-0.4,0-0.7-0.1-1.1-0.3c-2.4-1.5-4.7-0.8-4.8-0.8c-1.1,0.3-2.2-0.3-2.5-1.3
					c-0.3-1.1,0.2-2.2,1.3-2.5c0.2-0.1,4.2-1.3,8.2,1.2c1,0.6,1.2,1.8,0.6,2.8C327,74,326.3,74.3,325.7,74.3L325.7,74.3L325.7,74.3z
					"/>
				<path class="st3" d="M320.4,93.1c-0.1,0-0.2,0-0.3,0c-2-0.2-3-2.8-3.1-2.9l-0.2-0.5l8.6-0.8l-0.5,0.7
					C323.4,91.9,321.9,93.1,320.4,93.1L320.4,93.1L320.4,93.1z M318.1,90.3c0.4,0.7,1.1,1.8,2.2,1.9c1,0.1,2.3-0.7,3.6-2.4
					L318.1,90.3L318.1,90.3L318.1,90.3z"/>
				<path class="st6" d="M331,115.4c0,0-19.6,15.6-29.8,41.4c-6.1,15.4-2.5,25.5-1.4,42.3c1.8,28.7,5.1,34.8,4.9,43.1
					c21.8,1.3,63.2-0.5,82.7,0.3c5.3-25.8,7.4-46.7,6.1-72.9c-0.7-14.5-17.6-50.9-36.1-59.5C345.6,111.7,331,115.4,331,115.4
					L331,115.4L331,115.4z"/>
				<path class="st3" d="M332.7,105.5c-0.2,0-0.4-0.2-0.4-0.4c0-0.2,0.2-0.4,0.4-0.4c0.1,0,7.4-0.2,10.6-3.6c0.1-0.2,0.4-0.2,0.6,0
					c0.2,0.2,0.2,0.4,0,0.6C340.5,105.2,333,105.5,332.7,105.5L332.7,105.5L332.7,105.5L332.7,105.5z"/>
				<path class="st11" d="M314.7,81.2c0,0-3.7,1.2-0.3,4.4L314.7,81.2z"/>
				<path class="st3" d="M341.2,82.4c0,0,2.7-1.7,0.9-6.9c-1.2-6.9-4.3-6.4-23-11.4c3.3-8.8,10.7-14.4,21.8-10.2s17.8,12,16.6,23
					c-0.3,2.9-4.7,16-1,24.6c6.5,15.2-14,41.4-14,41.4s4.1-21.3-3.7-34C331,96.1,341.2,82.4,341.2,82.4L341.2,82.4L341.2,82.4z"/>
				<path class="st11" d="M341.5,75.8c0,0,5.4-2.5,3.5,4.2s-4.7,8.1-6.3,6.8"/>
				<path class="st3" d="M339.8,87.7c-0.5,0-1-0.2-1.4-0.5l0.5-0.7c0.5,0.3,0.9,0.4,1.5,0.2c0.7-0.2,2.6-1.4,4.2-6.9
					c0.6-2,0.6-3.3-0.1-3.9c-0.7-0.6-2.3-0.1-2.8,0.1l-0.3-0.7c0.1-0.1,2.4-1.1,3.7,0c0.9,0.8,1,2.4,0.3,4.7
					c-1.2,4.2-2.9,6.8-4.7,7.4C340.3,87.7,340,87.7,339.8,87.7L339.8,87.7L339.8,87.7z"/>
				<path class="st11" d="M342.3,78.7c0,0,1.1-0.1-1,3.6L342.3,78.7z"/>
				<path class="st3" d="M341.6,82.5l-0.7-0.4c1.5-2.6,1.3-3.1,1.3-3.1c0,0,0,0.1,0.2,0.1l-0.1-0.8c0.2,0,0.4,0.1,0.6,0.3
					C343.1,79,343.2,79.8,341.6,82.5L341.6,82.5L341.6,82.5L341.6,82.5z"/>
				<path class="st3" d="M355.7,99.2c0,0,2.5,9.8,13.8,20.2c0,0-9.2-7-14.3,0C354.2,120.8,355.7,99.3,355.7,99.2L355.7,99.2
					L355.7,99.2z"/>
				<path class="st3" d="M304,234.4l-2.4-15.2l-10.9,7.6L304,234.4L304,234.4L304,234.4z"/>
				<path class="st3" d="M345.9,242.4c-0.2,0-0.4-0.2-0.4-0.4v-34.6c0-0.2,0.2-0.4,0.4-0.4s0.4,0.2,0.4,0.4V242
					C346.3,242.2,346.1,242.4,345.9,242.4z"/>
				<path class="st3" d="M344.7,148.3c-0.1,0-0.2,0-0.3-0.1c-0.2-0.1-0.2-0.4,0-0.6l5-5.1c0.1-0.2,0.4-0.2,0.6,0
					c0.2,0.1,0.2,0.4,0,0.6l-5,5.1C344.9,148.3,344.8,148.3,344.7,148.3L344.7,148.3L344.7,148.3z"/>
				<path class="st5" d="M450.5,84.7c8.8,0,15.9-7.1,15.9-15.8S459.2,53,450.5,53s-15.9,7.1-15.9,15.8S441.7,84.7,450.5,84.7z"/>
				<path class="st12" d="M460.9,72.2c-0.3,0.3-0.7,0.5-1.1,0.5l0,0l-4.3,0c-0.9,0-1.5-0.7-1.6-1.5l0-1.4v-0.1c0,0,0,0,0,0
					c0-0.1-0.1-0.1-0.1-0.2h0c-0.8-0.2-2-0.6-3.3-0.5c-1.4,0-2.7,0.5-3.4,0.8c0,0,0,0-0.1,0l0,1.4c0,0.9-0.6,1.6-1.5,1.6l-4.2,0.1
					c-0.5,0.1-0.9-0.2-1.2-0.5s-0.4-0.8-0.4-1.2v-0.1l0.6-3.4c0,0,0-0.1,0-0.1c0.1-0.2,0.3-0.7,0.8-1c0.7-0.4,2.6-1.2,5.7-1.8h0
					c1.1-0.1,2.3-0.3,3.6-0.3l0,0c4.9,0,8.2,1.3,9.4,1.8h0c0.2,0.1,0.4,0.2,0.5,0.4c0.1,0.2,0.3,0.4,0.3,0.7l0.7,3.3
					C461.4,71.5,461.2,72,460.9,72.2L460.9,72.2L460.9,72.2L460.9,72.2z M459.7,71.2L459,68h0c-1-0.4-4.1-1.7-8.7-1.7
					c-1.1,0-2.3,0.2-3.4,0.3c-2.9,0.5-4.6,1.2-5.2,1.6l0,0l-0.6,3.3l4.2-0.1l0-1.4c0-0.6,0.3-1.2,1-1.5c0,0,0.1,0,0.1,0
					c0.7-0.3,2.3-0.9,4-0.9c1.5,0,2.9,0.4,3.7,0.6c0.1,0,0.2,0.1,0.3,0.1c0.2,0.1,0.3,0.2,0.4,0.3c0.1,0.2,0.3,0.4,0.4,0.6
					c0.1,0.2,0.2,0.5,0.2,0.8l0,1.3L459.7,71.2L459.7,71.2L459.7,71.2z"/>
				<g>
					<path class="st13" d="M76.9,13.8l-0.5,2.4h-0.7l0.5-2.4l-1.9-4.6H75l1.6,3.9l3.2-3.9h0.8C80.6,9.2,76.9,13.8,76.9,13.8z"/>
					<path class="st13" d="M79.6,14c0-1.8,1.3-3.1,3.1-3.1c1.5,0,2.4,0.9,2.4,2.2c0,1.8-1.3,3.1-3.1,3.1
						C80.5,16.2,79.6,15.3,79.6,14z M84.3,13.1c0-1-0.6-1.6-1.7-1.6c-1.3,0-2.3,1-2.3,2.5c0,1,0.6,1.6,1.7,1.6
						C83.3,15.6,84.3,14.6,84.3,13.1z"/>
					<path class="st13" d="M91.7,10.9l-1.1,5.3H90l0.2-0.8c-0.5,0.6-1.2,0.9-2,0.9c-1.2,0-1.9-0.6-1.9-1.7c0-0.2,0-0.4,0.1-0.6
						l0.6-3h0.7l-0.6,3c0,0.2-0.1,0.3-0.1,0.5c0,0.8,0.4,1.2,1.3,1.2c1.1,0,1.9-0.6,2.1-1.8l0.6-2.8L91.7,10.9L91.7,10.9z"/>
					<path class="st13" d="M96.4,10.9l-0.1,0.7H96c-1.1,0-1.9,0.6-2.1,1.9l-0.5,2.7h-0.7l1-5.3h0.7l-0.2,1
						C94.7,11.2,95.4,10.9,96.4,10.9L96.4,10.9L96.4,10.9z"/>
					<path class="st13" d="M100.8,8.7h0.7l-1.5,7.4h-0.7L100.8,8.7z"/>
					<path class="st13" d="M102.7,13.7v0.2c0,1.1,0.6,1.6,1.8,1.6c0.7,0,1.3-0.2,1.7-0.7l0.3,0.5c-0.5,0.5-1.3,0.8-2.1,0.8
						c-1.5,0-2.5-0.9-2.5-2.2c0-1.8,1.2-3.1,2.9-3.1c1.4,0,2.3,0.8,2.3,2.2c0,0.2,0,0.4-0.1,0.6L102.7,13.7L102.7,13.7z M102.7,13.2
						h3.8c0-0.1,0-0.1,0-0.2c0-1-0.7-1.6-1.7-1.6C103.8,11.5,103,12.2,102.7,13.2L102.7,13.2z"/>
					<path class="st13" d="M113.9,10.9l-1.1,5.3h-0.7l0.2-0.8c-0.5,0.6-1.2,0.9-2.1,0.9c-1.3,0-2.3-0.8-2.3-2.2c0-1.8,1.3-3.1,3-3.1
						c1,0,1.7,0.4,2,1.1l0.2-1.1L113.9,10.9L113.9,10.9z M112.7,13.1c0-1-0.6-1.6-1.7-1.6c-1.3,0-2.3,1-2.3,2.5c0,1,0.6,1.6,1.7,1.6
						C111.8,15.6,112.7,14.6,112.7,13.1z"/>
					<path class="st13" d="M118.6,10.9l-0.1,0.7h-0.2c-1.1,0-1.9,0.6-2.1,1.9l-0.5,2.7h-0.7l1-5.3h0.7l-0.2,1
						C116.9,11.2,117.6,10.9,118.6,10.9L118.6,10.9L118.6,10.9z"/>
					<path class="st13" d="M124.3,12.6c0,0.2,0,0.4-0.1,0.6l-0.6,3h-0.7l0.6-3c0-0.2,0.1-0.3,0.1-0.5c0-0.8-0.4-1.2-1.4-1.2
						c-1.1,0-1.9,0.6-2.2,1.8l-0.6,2.8h-0.7l1-5.3h0.7l-0.2,0.8c0.5-0.6,1.2-0.9,2.1-0.9C123.6,10.9,124.3,11.5,124.3,12.6z"/>
					<path class="st13" d="M126.6,10.9h0.7l-1,5.3h-0.7L126.6,10.9z M126.8,9.3c0-0.3,0.2-0.5,0.6-0.5c0.3,0,0.5,0.2,0.5,0.4
						c0,0.3-0.2,0.6-0.6,0.6C127,9.8,126.8,9.5,126.8,9.3z"/>
					<path class="st13" d="M133.8,12.6c0,0.2,0,0.4-0.1,0.6l-0.6,3h-0.7l0.6-3c0-0.2,0.1-0.3,0.1-0.5c0-0.8-0.4-1.2-1.4-1.2
						c-1.1,0-1.9,0.6-2.1,1.8l-0.6,2.8h-0.7l1-5.3h0.7l-0.2,0.8c0.5-0.6,1.2-0.9,2.1-0.9C133.1,10.9,133.8,11.5,133.8,12.6z"/>
					<path class="st13" d="M141,10.9l-0.9,4.6c-0.4,1.9-1.4,2.6-3.1,2.6c-1,0-1.8-0.3-2.4-0.8l0.4-0.5c0.4,0.4,1.1,0.7,2,0.7
						c1.3,0,2-0.6,2.3-1.9l0.1-0.6c-0.5,0.6-1.2,0.9-2.1,0.9c-1.4,0-2.3-0.8-2.3-2.1c0-1.7,1.2-3,3-3c1,0,1.8,0.4,2.1,1.2l0.2-1.2
						L141,10.9L141,10.9z M139.8,13c0-1-0.6-1.5-1.7-1.5c-1.3,0-2.3,1-2.3,2.3c0,1,0.6,1.5,1.7,1.5C138.8,15.3,139.8,14.4,139.8,13z
						"/>
					<path class="st13" d="M150.5,13.1c0,1.8-1.3,3.1-3,3.1c-1,0-1.7-0.4-2-1.1l-0.6,3h-0.7l1.4-7.2h0.7l-0.2,0.8
						c0.5-0.6,1.2-0.9,2.1-0.9C149.6,10.9,150.5,11.7,150.5,13.1L150.5,13.1L150.5,13.1z M149.8,13.1c0-1-0.6-1.6-1.7-1.6
						c-1.3,0-2.3,1-2.3,2.5c0,1,0.6,1.6,1.7,1.6C148.8,15.6,149.8,14.6,149.8,13.1z"/>
					<path class="st13" d="M157.3,10.9l-1.1,5.3h-0.7l0.2-0.8c-0.5,0.6-1.2,0.9-2.1,0.9c-1.4,0-2.3-0.8-2.3-2.2c0-1.8,1.3-3.1,3-3.1
						c1,0,1.7,0.4,2,1.1l0.2-1.1L157.3,10.9L157.3,10.9z M156.1,13.1c0-1-0.6-1.6-1.7-1.6c-1.3,0-2.3,1-2.3,2.5c0,1,0.6,1.6,1.7,1.6
						C155.1,15.6,156.1,14.6,156.1,13.1z"/>
					<path class="st13" d="M159.3,14.6c0,0.1,0,0.2,0,0.3c0,0.4,0.2,0.7,0.8,0.7c0.3,0,0.6-0.1,0.8-0.3l0.2,0.5
						c-0.3,0.2-0.8,0.3-1.2,0.3c-0.8,0-1.3-0.4-1.3-1.2c0-0.1,0-0.3,0-0.4l0.6-3.1h-0.9l0.1-0.6h0.9l0.2-1.1h0.7l-0.2,1.1h1.6
						l-0.1,0.6h-1.6L159.3,14.6L159.3,14.6z"/>
					<path class="st13" d="M167.8,12.6c0,0.2,0,0.4-0.1,0.6l-0.6,3h-0.7l0.6-3c0-0.2,0.1-0.3,0.1-0.5c0-0.8-0.4-1.2-1.4-1.2
						c-1.1,0-1.9,0.6-2.1,1.8l-0.6,2.8h-0.7l1.5-7.4h0.7l-0.6,3c0.5-0.6,1.2-0.8,2-0.8C167.1,10.9,167.8,11.5,167.8,12.6L167.8,12.6
						z"/>
					<path class="st13" d="M172.8,14.6c0,0.1,0,0.2,0,0.3c0,0.4,0.2,0.7,0.8,0.7c0.3,0,0.6-0.1,0.8-0.3l0.2,0.5
						c-0.3,0.2-0.8,0.3-1.2,0.3c-0.8,0-1.3-0.4-1.3-1.2c0-0.1,0-0.3,0-0.4l0.6-3.1h-0.9l0.1-0.6h0.9l0.2-1.1h0.7l-0.2,1.1h1.6
						l-0.1,0.6h-1.6L172.8,14.6L172.8,14.6z"/>
					<path class="st13" d="M175.5,14c0-1.8,1.3-3.1,3.1-3.1c1.5,0,2.4,0.9,2.4,2.2c0,1.8-1.3,3.1-3.1,3.1
						C176.4,16.2,175.5,15.3,175.5,14z M180.2,13.1c0-1-0.6-1.6-1.7-1.6c-1.3,0-2.3,1-2.3,2.5c0,1,0.6,1.6,1.7,1.6
						C179.3,15.6,180.2,14.6,180.2,13.1z"/>
					<path class="st13" d="M190.4,13.1c0,1.8-1.3,3.1-3,3.1c-1,0-1.7-0.4-2-1.1l-0.6,3h-0.7l1.4-7.2h0.7l-0.2,0.8
						c0.5-0.6,1.2-0.9,2.1-0.9C189.4,10.9,190.4,11.7,190.4,13.1L190.4,13.1L190.4,13.1z M189.7,13.1c0-1-0.6-1.6-1.7-1.6
						c-1.3,0-2.3,1-2.3,2.5c0,1,0.6,1.6,1.7,1.6C188.7,15.6,189.7,14.6,189.7,13.1z"/>
					<path class="st13" d="M195,10.9l-0.1,0.7h-0.2c-1.1,0-1.9,0.6-2.1,1.9l-0.5,2.7h-0.7l1-5.3h0.7l-0.2,1
						C193.3,11.2,194,10.9,195,10.9L195,10.9L195,10.9z"/>
					<path class="st13" d="M195.8,13.7c0,0.1,0,0.1,0,0.2c0,1.1,0.6,1.6,1.8,1.6c0.7,0,1.3-0.2,1.7-0.7l0.3,0.5
						c-0.5,0.5-1.3,0.8-2.1,0.8c-1.5,0-2.5-0.9-2.5-2.2c0-1.8,1.2-3.1,2.9-3.1c1.4,0,2.3,0.8,2.3,2.2c0,0.2,0,0.4-0.1,0.6
						L195.8,13.7L195.8,13.7z M195.9,13.2h3.8V13c0-1-0.7-1.6-1.6-1.6C196.9,11.5,196.2,12.2,195.9,13.2L195.9,13.2L195.9,13.2z"/>
					<path class="st13" d="M207.1,13.1c0,1.8-1.3,3.1-3,3.1c-1,0-1.7-0.4-2-1.1l-0.6,3h-0.7l1.4-7.2h0.7l-0.2,0.8
						c0.5-0.6,1.2-0.9,2.1-0.9C206.2,10.9,207.1,11.7,207.1,13.1L207.1,13.1L207.1,13.1z M206.4,13.1c0-1-0.6-1.6-1.7-1.6
						c-1.3,0-2.3,1-2.3,2.5c0,1,0.6,1.6,1.7,1.6C205.4,15.6,206.4,14.6,206.4,13.1z"/>
					<path class="st13" d="M213.9,10.9l-1.1,5.3h-0.7l0.2-0.8c-0.5,0.6-1.2,0.9-2.1,0.9c-1.4,0-2.3-0.8-2.3-2.2c0-1.8,1.3-3.1,3-3.1
						c1,0,1.7,0.4,2,1.1l0.2-1.1L213.9,10.9L213.9,10.9z M212.7,13.1c0-1-0.6-1.6-1.7-1.6c-1.3,0-2.3,1-2.3,2.5c0,1,0.6,1.6,1.7,1.6
						C211.7,15.6,212.7,14.6,212.7,13.1z"/>
					<path class="st13" d="M218.5,10.9l-0.1,0.7h-0.2c-1.1,0-1.9,0.6-2.1,1.9l-0.5,2.7h-0.7l1-5.3h0.7l-0.2,1
						C216.8,11.2,217.5,10.9,218.5,10.9L218.5,10.9L218.5,10.9z"/>
					<path class="st13" d="M219.4,13.7v0.2c0,1.1,0.6,1.6,1.8,1.6c0.7,0,1.3-0.2,1.7-0.7l0.3,0.5c-0.5,0.5-1.3,0.8-2.1,0.8
						c-1.5,0-2.5-0.9-2.5-2.2c0-1.8,1.2-3.1,2.9-3.1c1.4,0,2.3,0.8,2.3,2.2c0,0.2,0,0.4-0.1,0.6L219.4,13.7L219.4,13.7z M219.4,13.2
						h3.8c0-0.1,0-0.1,0-0.2c0-1-0.7-1.6-1.6-1.6C220.5,11.5,219.7,12.2,219.4,13.2L219.4,13.2z"/>
					<path class="st13" d="M229.4,10.3l-0.1,0.6h1.6l-0.1,0.6h-1.6l-0.9,4.7h-0.7l0.9-4.7h-0.9l0.1-0.6h0.9l0.1-0.7
						c0.2-1,0.8-1.6,1.8-1.6c0.4,0,0.8,0.1,1.1,0.3l-0.3,0.5c-0.2-0.2-0.4-0.3-0.8-0.3C229.9,9.3,229.5,9.6,229.4,10.3L229.4,10.3
						L229.4,10.3z"/>
					<path class="st13" d="M230.6,14c0-1.8,1.3-3.1,3.1-3.1c1.5,0,2.4,0.9,2.4,2.2c0,1.8-1.3,3.1-3.1,3.1
						C231.6,16.2,230.6,15.3,230.6,14z M235.4,13.1c0-1-0.6-1.6-1.7-1.6c-1.3,0-2.3,1-2.3,2.5c0,1,0.6,1.6,1.7,1.6
						C234.4,15.6,235.4,14.6,235.4,13.1z"/>
					<path class="st13" d="M240.7,10.9l-0.1,0.7h-0.2c-1.1,0-1.9,0.6-2.1,1.9l-0.5,2.7H237l1-5.3h0.7l-0.2,1
						C239,11.2,239.7,10.9,240.7,10.9L240.7,10.9L240.7,10.9z"/>
					<path class="st13" d="M245.2,8.7h1.8L247,9.3h-1.1l-1.6,8.2h1.1l-0.1,0.6h-1.8L245.2,8.7L245.2,8.7L245.2,8.7z"/>
					<path class="st13" d="M249.8,9.8h-2.5l0.1-0.6h5.7L253,9.8h-2.5l-1.3,6.4h-0.7L249.8,9.8L249.8,9.8L249.8,9.8z"/>
					<path class="st13" d="M258.3,12.6c0,0.2,0,0.4-0.1,0.6l-0.6,3h-0.7l0.6-3c0-0.2,0-0.3,0-0.5c0-0.8-0.5-1.2-1.4-1.2
						c-1.1,0-1.9,0.6-2.1,1.8l-0.6,2.8h-0.7l1.5-7.4h0.7l-0.6,3c0.5-0.6,1.2-0.8,2-0.8C257.6,10.9,258.3,11.5,258.3,12.6L258.3,12.6
						L258.3,12.6z"/>
					<path class="st13" d="M260.2,13.7c0,0.1,0,0.1,0,0.2c0,1.1,0.6,1.6,1.8,1.6c0.7,0,1.3-0.2,1.7-0.7l0.3,0.5
						c-0.5,0.5-1.3,0.8-2.1,0.8c-1.5,0-2.5-0.9-2.5-2.2c0-1.8,1.2-3.1,2.9-3.1c1.4,0,2.3,0.8,2.3,2.2c0,0.2,0,0.4-0.1,0.6
						L260.2,13.7L260.2,13.7z M260.3,13.2h3.8V13c0-1-0.7-1.6-1.6-1.6C261.4,11.5,260.6,12.2,260.3,13.2L260.3,13.2L260.3,13.2z"/>
					<path class="st13" d="M270.4,9.8l-0.5,2.5h3.6l-0.1,0.6h-3.6l-0.5,2.6h4.2l-0.1,0.6h-5l1.4-7h4.8l-0.1,0.6H270.4z"/>
					<path class="st13" d="M280.5,12.6c0,0.2,0,0.4-0.1,0.6l-0.6,3h-0.7l0.6-3c0-0.2,0-0.3,0-0.5c0-0.8-0.5-1.2-1.4-1.2
						c-1.1,0-1.9,0.6-2.1,1.8l-0.6,2.8H275l1-5.3h0.7l-0.2,0.8c0.5-0.6,1.2-0.9,2.1-0.9C279.8,10.9,280.5,11.5,280.5,12.6
						L280.5,12.6z"/>
					<path class="st13" d="M287.7,10.9l-0.9,4.6c-0.4,1.9-1.4,2.6-3.1,2.6c-1,0-1.8-0.3-2.4-0.8l0.4-0.5c0.4,0.4,1.1,0.7,2,0.7
						c1.3,0,2-0.6,2.3-1.9l0.1-0.6c-0.5,0.6-1.2,0.9-2.1,0.9c-1.4,0-2.3-0.8-2.3-2.1c0-1.7,1.2-3,3-3c1,0,1.8,0.4,2.1,1.2l0.2-1.2
						L287.7,10.9L287.7,10.9z M286.5,13c0-1-0.6-1.5-1.7-1.5c-1.3,0-2.3,1-2.3,2.3c0,1,0.6,1.5,1.7,1.5
						C285.6,15.3,286.5,14.4,286.5,13z"/>
					<path class="st13" d="M290.1,8.7h0.7l-1.5,7.4h-0.7L290.1,8.7z"/>
					<path class="st13" d="M292.4,10.9h0.7l-1,5.3h-0.7L292.4,10.9z M292.6,9.3c0-0.3,0.2-0.5,0.5-0.5c0.3,0,0.5,0.2,0.5,0.4
						c0,0.3-0.2,0.6-0.6,0.6C292.8,9.8,292.6,9.5,292.6,9.3L292.6,9.3L292.6,9.3z"/>
					<path class="st13" d="M293.5,15.6l0.3-0.6c0.4,0.4,1.1,0.6,1.8,0.6c1,0,1.6-0.4,1.6-0.9c0-1.2-3-0.4-3-2.2c0-1,0.9-1.6,2.3-1.6
						c0.7,0,1.4,0.2,1.8,0.5l-0.3,0.6c-0.4-0.3-1-0.4-1.5-0.4c-1,0-1.5,0.4-1.5,1c0,1.2,3,0.4,3,2.2c0,1-0.9,1.6-2.3,1.6
						C294.7,16.2,293.9,16,293.5,15.6L293.5,15.6L293.5,15.6z"/>
					<path class="st13" d="M304.5,12.6c0,0.2,0,0.4-0.1,0.6l-0.6,3h-0.7l0.6-3c0-0.2,0-0.3,0-0.5c0-0.8-0.5-1.2-1.4-1.2
						c-1.1,0-1.9,0.6-2.1,1.8l-0.6,2.8H299l1.5-7.4h0.7l-0.6,3c0.5-0.6,1.2-0.8,2-0.8C303.8,10.9,304.5,11.5,304.5,12.6L304.5,12.6
						L304.5,12.6z"/>
					<path class="st13" d="M314.2,14.3h-1.4l-0.4,1.8h-0.7l0.4-1.8h-4l0.1-0.5l4.6-4.6h0.9l-4.5,4.5h3l0.3-1.6h0.7l-0.3,1.6h1.4
						L314.2,14.3L314.2,14.3z"/>
					<path class="st13" d="M317,9.8l-0.7,2.2h0.9c1.8,0,2.6,0.7,2.6,1.8c0,1.4-1.1,2.4-2.9,2.4c-1.1,0-2-0.4-2.4-0.9l0.4-0.6
						c0.4,0.5,1.1,0.8,2,0.8c1.3,0,2.1-0.6,2.1-1.6c0-0.8-0.5-1.3-2-1.3h-1.6l1.1-3.5h3.8l-0.1,0.6L317,9.8L317,9.8z"/>
					<path class="st13" d="M332.6,12.6c0,0.2,0,0.4-0.1,0.6l-0.6,3h-0.7l0.6-3c0-0.2,0-0.3,0-0.5c0-0.7-0.4-1.2-1.3-1.2
						c-1,0-1.8,0.6-2,1.8l-0.6,2.9h-0.7l0.6-3c0-0.2,0-0.3,0-0.5c0-0.8-0.4-1.2-1.3-1.2c-1.1,0-1.8,0.6-2.1,1.8l-0.6,2.8h-0.7l1-5.3
						h0.7l-0.2,0.8c0.5-0.6,1.2-0.9,2-0.9c0.9,0,1.5,0.4,1.7,1.1c0.5-0.7,1.3-1.1,2.2-1.1C332,10.9,332.7,11.5,332.6,12.6
						C332.7,12.6,332.6,12.6,332.6,12.6z"/>
					<path class="st13" d="M335,10.9h0.7l-1,5.3h-0.7L335,10.9z M335.1,9.3c0-0.3,0.2-0.5,0.5-0.5c0.3,0,0.5,0.2,0.5,0.4
						c0,0.3-0.2,0.6-0.6,0.6C335.3,9.8,335.1,9.5,335.1,9.3L335.1,9.3L335.1,9.3z"/>
					<path class="st13" d="M342.1,12.6c0,0.2,0,0.4-0.1,0.6l-0.6,3h-0.7l0.6-3c0-0.2,0-0.3,0-0.5c0-0.8-0.5-1.2-1.4-1.2
						c-1.1,0-1.9,0.6-2.1,1.8l-0.6,2.8h-0.7l1-5.3h0.7l-0.2,0.8c0.5-0.6,1.2-0.9,2.1-0.9C341.4,10.9,342.1,11.5,342.1,12.6
						L342.1,12.6L342.1,12.6z"/>
					<path class="st13" d="M349.2,10.9l-1,5.3h-0.7l0.2-0.8c-0.5,0.6-1.2,0.9-2,0.9c-1.2,0-1.9-0.6-1.9-1.7c0-0.2,0-0.4,0.1-0.6
						l0.6-3h0.7l-0.6,3c0,0.2,0,0.3,0,0.5c0,0.8,0.4,1.2,1.3,1.2c1.1,0,1.9-0.6,2.1-1.8l0.6-2.8L349.2,10.9L349.2,10.9z"/>
					<path class="st13" d="M351.3,14.6c0,0.1,0,0.2,0,0.3c0,0.4,0.2,0.7,0.8,0.7c0.3,0,0.6-0.1,0.8-0.3l0.2,0.5
						c-0.3,0.2-0.8,0.3-1.2,0.3c-0.8,0-1.3-0.4-1.3-1.2c0-0.1,0-0.3,0-0.4l0.6-3.1h-0.9l0.1-0.6h0.9l0.2-1.1h0.7l-0.2,1.1h1.6
						l-0.1,0.6h-1.6L351.3,14.6z"/>
					<path class="st13" d="M354.7,13.7v0.2c0,1.1,0.6,1.6,1.8,1.6c0.7,0,1.3-0.2,1.7-0.7l0.3,0.5c-0.5,0.5-1.3,0.8-2.1,0.8
						c-1.5,0-2.5-0.9-2.5-2.2c0-1.8,1.2-3.1,2.9-3.1c1.4,0,2.3,0.8,2.3,2.2c0,0.2,0,0.4-0.1,0.6L354.7,13.7L354.7,13.7z M354.8,13.2
						h3.8c0-0.1,0-0.1,0-0.2c0-1-0.7-1.6-1.6-1.6C355.8,11.5,355,12.2,354.8,13.2L354.8,13.2L354.8,13.2z"/>
					<path class="st13" d="M359.5,15.6l0.3-0.6c0.4,0.4,1.1,0.6,1.8,0.6c1,0,1.6-0.4,1.6-0.9c0-1.2-3-0.4-3-2.2c0-1,0.9-1.6,2.3-1.6
						c0.7,0,1.4,0.2,1.8,0.5l-0.3,0.6c-0.4-0.3-1-0.4-1.5-0.4c-1,0-1.5,0.4-1.5,1c0,1.2,3,0.4,3,2.2c0,1-0.9,1.6-2.3,1.6
						C360.8,16.2,359.9,16,359.5,15.6L359.5,15.6L359.5,15.6z"/>
					<path class="st13" d="M368.8,14.6c0,0.1,0,0.2,0,0.3c0,0.4,0.2,0.7,0.8,0.7c0.3,0,0.6-0.1,0.8-0.3l0.2,0.5
						c-0.3,0.2-0.8,0.3-1.2,0.3c-0.8,0-1.3-0.4-1.3-1.2c0-0.1,0-0.3,0-0.4l0.6-3.1h-0.9l0.1-0.6h0.9l0.2-1.1h0.7l-0.2,1.1h1.6
						l-0.1,0.6h-1.6L368.8,14.6z"/>
					<path class="st13" d="M372.1,13.7v0.2c0,1.1,0.6,1.6,1.8,1.6c0.7,0,1.3-0.2,1.7-0.7l0.3,0.5c-0.5,0.5-1.3,0.8-2.1,0.8
						c-1.5,0-2.5-0.9-2.5-2.2c0-1.8,1.2-3.1,2.9-3.1c1.4,0,2.3,0.8,2.3,2.2c0,0.2,0,0.4-0.1,0.6L372.1,13.7L372.1,13.7z M372.2,13.2
						h3.8c0-0.1,0-0.1,0-0.2c0-1-0.7-1.6-1.6-1.6C373.3,11.5,372.5,12.2,372.2,13.2L372.2,13.2L372.2,13.2z"/>
					<path class="st13" d="M377,15.6l0.3-0.6c0.4,0.4,1.1,0.6,1.8,0.6c1,0,1.6-0.4,1.6-0.9c0-1.2-3-0.4-3-2.2c0-1,0.9-1.6,2.3-1.6
						c0.7,0,1.4,0.2,1.8,0.5l-0.3,0.6c-0.4-0.3-1-0.4-1.5-0.4c-1,0-1.5,0.4-1.5,1c0,1.2,3,0.4,3,2.2c0,1-0.9,1.6-2.3,1.6
						C378.2,16.2,377.4,16,377,15.6L377,15.6L377,15.6z"/>
					<path class="st13" d="M383.6,14.6c0,0.1,0,0.2,0,0.3c0,0.4,0.2,0.7,0.8,0.7c0.3,0,0.6-0.1,0.8-0.3l0.2,0.5
						c-0.3,0.2-0.8,0.3-1.2,0.3c-0.8,0-1.3-0.4-1.3-1.2c0-0.1,0-0.3,0-0.4l0.6-3.1h-0.9l0.1-0.6h0.9l0.2-1.1h0.7l-0.2,1.1h1.6
						l-0.1,0.6h-1.6L383.6,14.6z"/>
					<path class="st13" d="M385.4,18.1l0.1-0.6h1.1l1.6-8.2h-1.1l0.1-0.6h1.8l-1.9,9.4C387.2,18.1,385.4,18.1,385.4,18.1z"/>
				</g>
			</g>
		</g>
	</g>
</g>
</svg>
