<?xml version="1.0" encoding="UTF-8"?><svg id="Layer_2" xmlns="http://www.w3.org/2000/svg" xmlns:xlink="http://www.w3.org/1999/xlink" viewBox="0 0 695.18 630"><defs><style>.cls-1{fill:none;}.cls-2{clip-path:url(#clippath);}.cls-3{fill:#fff;}.cls-4{fill:#1e293b;}</style><clipPath id="clippath"><rect class="cls-1" width="695.18" height="630"/></clipPath></defs><g id="Layer_2-2"><g class="cls-2"><path class="cls-3" d="M72.24,50.92H3.56c-2.2,0-3.97,1.78-3.97,3.97v27.9c0,2.2,1.78,3.97,3.97,3.97H55.56l16.49,10.91-6.22-10.91h6.4c2.2,0,3.97-1.78,3.97-3.97v-27.9c0-2.2-1.78-3.97-3.97-3.97h0Z"/><path class="cls-4" d="M73.25,98.95l-17.81-11.78H3.56c-2.42,0-4.38-1.96-4.38-4.37v-27.9c0-2.41,1.96-4.37,4.38-4.37H72.24c2.42,0,4.38,1.96,4.38,4.37v27.9c0,2.41-1.96,4.37-4.38,4.37h-5.7l6.71,11.78ZM3.56,51.33c-1.97,0-3.56,1.59-3.56,3.56v27.9c0,1.97,1.6,3.56,3.56,3.56H55.68l15.17,10.03-5.72-10.03h7.1c1.97,0,3.56-1.59,3.56-3.56v-27.9c0-1.97-1.59-3.56-3.56-3.56,0,0-68.67,0-68.67,0Z"/></g></g></svg>