<?xml version="1.0" encoding="UTF-8"?><svg id="Layer_2" xmlns="http://www.w3.org/2000/svg" xmlns:xlink="http://www.w3.org/1999/xlink" viewBox="0 0 696 630"><defs><style>.cls-1{fill:none;}.cls-2{clip-path:url(#clippath);}.cls-3{fill:#fff;}.cls-4{fill:#1e293b;}</style><clipPath id="clippath"><rect class="cls-1" width="696" height="630"/></clipPath></defs><g id="Layer_2-2"><g class="cls-2"><path class="cls-3" d="M214.3,312.33h68.67c2.2,0,3.97-1.78,3.97-3.97v-27.9c0-2.2-1.78-3.97-3.97-3.97h-52l-16.49-10.91,6.22,10.91h-6.4c-2.2,0-3.97,1.78-3.97,3.97v27.9c0,2.2,1.78,3.97,3.97,3.97h0Z"/><path class="cls-4" d="M282.98,312.73h-68.67c-2.42,0-4.38-1.96-4.38-4.37v-27.9c0-2.42,1.96-4.37,4.38-4.37h5.7l-6.71-11.78,17.81,11.78h51.88c2.42,0,4.38,1.96,4.38,4.37v27.9c0,2.42-1.96,4.37-4.38,4.37h0Zm-68.67-35.84c-1.97,0-3.56,1.59-3.56,3.56v27.9c0,1.97,1.6,3.56,3.56,3.56h68.67c1.97,0,3.56-1.59,3.56-3.56v-27.9c0-1.97-1.6-3.56-3.56-3.56h-52.12l-15.17-10.03,5.72,10.03h-7.1Z"/></g></g></svg>