<?xml version="1.0" encoding="UTF-8"?><svg id="Layer_2" xmlns="http://www.w3.org/2000/svg" xmlns:xlink="http://www.w3.org/1999/xlink" viewBox="0 0 696 630"><defs><style>.cls-1{fill:none;}.cls-2{clip-path:url(#clippath);}.cls-3{fill:#fb923c;}.cls-4{fill:#fff;}.cls-5{fill:#cbd5e1;}.cls-6{fill:#1e293b;}</style><clipPath id="clippath"><rect class="cls-1" width="696" height="630"/></clipPath></defs><g id="Layer_1-2"><g class="cls-2"><g><path class="cls-3" d="M625.25,235.58c16.73,0,30.29-13.48,30.29-30.1s-13.56-30.1-30.29-30.1-30.29,13.48-30.29,30.1,13.56,30.1,30.29,30.1Z"/><path class="cls-4" d="M624.83,229.04c13.04,0,23.6-10.5,23.6-23.45s-10.57-23.45-23.6-23.45-23.6,10.5-23.6,23.45,10.57,23.45,23.6,23.45Z"/><path class="cls-6" d="M624.79,229.49c-3.83,0-7.62-.92-11.1-2.73-5.69-2.96-9.88-7.94-11.8-14.03-1.92-6.09-1.34-12.56,1.64-18.2,2.98-5.66,7.99-9.82,14.12-11.73,6.13-1.91,12.64-1.33,18.32,1.63,11.74,6.1,16.31,20.56,10.17,32.23-2.98,5.65-7.99,9.82-14.12,11.73-2.37,.74-4.8,1.1-7.22,1.1h0Zm.05-46.93c-2.33,0-4.67,.35-6.96,1.07-5.9,1.84-10.74,5.86-13.61,11.3-2.86,5.45-3.43,11.69-1.58,17.55,1.85,5.87,5.89,10.67,11.37,13.52,5.49,2.85,11.76,3.41,17.66,1.57,5.9-1.84,10.74-5.86,13.6-11.3,5.92-11.25,1.52-25.19-9.8-31.07-3.36-1.75-7.02-2.63-10.71-2.63h0Z"/><path class="cls-5" d="M608.75,252.38l-13.41-6.97c-.75-.39-1.09-1.27-.8-2.06l7.34-19.76c.36-.95,1.46-1.37,2.35-.9l18.23,9.47c.9,.46,1.18,1.62,.6,2.44l-12.14,17.27c-.48,.69-1.41,.91-2.15,.52h0Z"/><path class="cls-6" d="M609.53,253c-.33,0-.67-.08-.98-.24l-13.42-6.96c-.94-.49-1.37-1.6-1-2.59l7.34-19.76c.21-.57,.66-1.01,1.22-1.23,.56-.21,1.2-.18,1.74,.09l18.23,9.47c.54,.28,.93,.77,1.07,1.36,.15,.58,.03,1.2-.32,1.7l-12.14,17.27c-.41,.58-1.07,.89-1.74,.89h0Zm-6.08-30.07c-.15,0-.3,.03-.45,.09-.34,.13-.6,.4-.72,.73l-7.34,19.75c-.22,.58,.04,1.24,.6,1.53l13.41,6.97c.55,.29,1.25,.12,1.6-.39l12.14-17.27c.21-.29,.28-.66,.19-1.01-.09-.34-.32-.64-.63-.81l-18.23-9.47c-.18-.09-.38-.14-.58-.14h0Z"/><path class="cls-6" d="M600.24,228.16l-.4,.76,19.98,10.38,.4-.76-19.98-10.38Z"/><path class="cls-6" d="M597.82,234.65l-.4,.76,18.4,9.56,.4-.76-18.4-9.56Z"/><path class="cls-6" d="M595.53,240.84l-.4,.76,16.84,8.75,.4-.76-16.84-8.75Z"/><path class="cls-6" d="M614.27,226.58l-.76-.4,7.11-13.5,14.81-3.66,.21,.83-14.44,3.57-6.92,13.16Z"/><path class="cls-6" d="M620.48,213.15l-3.4-13.97,.84-.2,3.4,13.97-.84,.21Z"/></g></g></g></svg>