<?xml version="1.0" encoding="utf-8"?>
<!-- Generator: Adobe Illustrator 27.0.0, SVG Export Plug-In . SVG Version: 6.00 Build 0)  -->
<svg version="1.1" id="Layer_2_00000122721491716952660530000010393504181827484067_"
	 xmlns="http://www.w3.org/2000/svg" xmlns:xlink="http://www.w3.org/1999/xlink" x="0px" y="0px" viewBox="0 0 696 630"
	 style="enable-background:new 0 0 696 630;" xml:space="preserve">
<style type="text/css">
	.st0{clip-path:url(#SVGID_00000034057909377107836960000013589366443292832407_);}
	.st1{clip-path:url(#SVGID_00000001651961278663939950000011963592915188733850_);}
	.st2{fill:#FDBA74;}
	.st3{fill:#1E293B;}
	.st4{fill:#334155;}
	.st5{fill:#B90F0F;}
	.st6{fill:#FB923C;}
	.st7{fill:#34D399;}
	.st8{fill:#FFFFFF;}
	.st9{fill:#E2E8F0;}
	.st10{fill:#475569;}
	.st11{fill:#FEE2E2;}
	.st12{fill-rule:evenodd;clip-rule:evenodd;fill:#FEE2E2;}
	.st13{fill:#CBD5E1;}
</style>
<g id="Layer_1-2">
	<g>
		<defs>
			<rect id="SVGID_1_" width="696" height="630"/>
		</defs>
		<clipPath id="SVGID_00000084492486536349264630000004120122360025182135_">
			<use xlink:href="#SVGID_1_"  style="overflow:visible;"/>
		</clipPath>
		<g style="clip-path:url(#SVGID_00000084492486536349264630000004120122360025182135_);">
			<g>
				<defs>
					<rect id="SVGID_00000146462841354495460960000003214859793117411719_" width="492" height="320"/>
				</defs>
				<clipPath id="SVGID_00000006688664545279115760000008997152274374317463_">
					<use xlink:href="#SVGID_00000146462841354495460960000003214859793117411719_"  style="overflow:visible;"/>
				</clipPath>
				<g style="clip-path:url(#SVGID_00000006688664545279115760000008997152274374317463_);">
					<g>
						<path class="st2" d="M487.2,319.5l-418.3,0c-3,0.4-5.6-2-5.6-4.9V5.4c0-2.5,1.9-4.6,4.4-4.9l418.3,0c3-0.4,5.6,2,5.6,4.9
							v309.2C491.6,317.1,489.7,319.2,487.2,319.5z"/>
						<path class="st3" d="M68.3,320c-1.3,0-2.6-0.5-3.6-1.4c-1.2-1-1.8-2.5-1.8-4V5.4c0-2.7,2-5,4.7-5.3L486,0
							c1.5-0.2,3,0.3,4.2,1.3c1.2,1,1.8,2.5,1.8,4v309.2c0,2.7-2,5-4.7,5.3h0L69,320C68.7,320,68.5,320,68.3,320L68.3,320L68.3,320z
							 M486.6,0.8c-0.2,0-0.4,0-0.5,0l-418.3,0c-2.2,0.3-4,2.2-4,4.5v309.2c0,1.3,0.6,2.5,1.6,3.4c1,0.9,2.3,1.3,3.6,1.1l418.3,0
							c2.3-0.3,4-2.2,4-4.5V5.4c0-1.3-0.6-2.5-1.5-3.4C488.8,1.2,487.7,0.8,486.6,0.8L486.6,0.8L486.6,0.8z"/>
						<path class="st4" d="M491.6,23.2L63.4,24.5v-19c0-2.5,1.9-4.7,4.4-5H486c3-0.4,5.6,2,5.6,4.9L491.6,23.2L491.6,23.2z"/>
						<path class="st5" d="M479.9,16.4c2.6,0,4.6-2.1,4.6-4.6s-2.1-4.6-4.6-4.6s-4.6,2.1-4.6,4.6S477.3,16.4,479.9,16.4z"/>
						<path class="st6" d="M466.3,16.4c2.6,0,4.6-2.1,4.6-4.6s-2.1-4.6-4.6-4.6s-4.6,2.1-4.6,4.6S463.7,16.4,466.3,16.4z"/>
						<path class="st7" d="M452.7,16.4c2.6,0,4.6-2.1,4.6-4.6s-2.1-4.6-4.6-4.6s-4.6,2.1-4.6,4.6S450.1,16.4,452.7,16.4z"/>
						<path class="st4" d="M389.5,58.2H103.1c-3.6,0-6.5,2.9-6.5,6.5v218.7c0,3.6,2.9,6.5,6.5,6.5h286.4c3.6,0,6.5-2.9,6.5-6.5V64.7
							C396,61.1,393.1,58.2,389.5,58.2z"/>
						<path class="st8" d="M380.5,50.9H94.1c-3.6,0-6.5,2.9-6.5,6.5v218.7c0,3.6,2.9,6.5,6.5,6.5h286.4c3.6,0,6.5-2.9,6.5-6.5V57.4
							C387,53.8,384.1,50.9,380.5,50.9L380.5,50.9z"/>
						<path class="st3" d="M380.5,283H94.1c-3.8,0-6.9-3.1-6.9-6.9V57.4c0-3.8,3.1-6.9,6.9-6.9h286.4c3.8,0,6.9,3.1,6.9,6.9v218.7
							C387.5,280,384.4,283.1,380.5,283L380.5,283z M94.1,51.3c-3.4,0-6.1,2.7-6.1,6.1v218.7c0,3.4,2.7,6.1,6.1,6.1h286.4
							c3.4,0,6.1-2.7,6.1-6.1V57.4c0-3.4-2.7-6.1-6.1-6.1H94.1z"/>
						<path class="st9" d="M326.8,79.4H111.2v16.3h215.6L326.8,79.4L326.8,79.4z"/>
						<path class="st9" d="M326.8,101.3H111.2v16.3h215.6L326.8,101.3L326.8,101.3z"/>
						<path class="st9" d="M326.8,123.3H111.2v16.3h215.6L326.8,123.3L326.8,123.3z"/>
						<path class="st9" d="M345.5,175.3H129.9v16.3h215.6L345.5,175.3L345.5,175.3z"/>
						<path class="st9" d="M345.5,197.3H129.9v16.3h215.6L345.5,197.3L345.5,197.3z"/>
						<path class="st9" d="M345.5,219.2H129.9v16.3h215.6L345.5,219.2L345.5,219.2z"/>
						<path class="st9" d="M345.5,242H129.9v16.3h215.6L345.5,242L345.5,242z"/>
						<path class="st10" d="M474.1,38.7H279.2c-3.6,0-6.5,2.9-6.5,6.5v190.7c0,3.6,2.9,6.5,6.5,6.5h194.9c3.6,0,6.5-2.9,6.5-6.5
							V45.2C480.6,41.6,477.7,38.7,474.1,38.7z"/>
						<path class="st8" d="M474.1,242.8H279.2c-3.8,0-6.9-3.1-6.9-6.9V45.2c0-3.8,3.1-6.9,6.9-6.9h194.9c3.8,0,6.9,3.1,6.9,6.9
							v190.7C481,239.7,477.9,242.8,474.1,242.8z M279.2,39.1c-3.4,0-6.1,2.7-6.1,6.1v190.7c0,3.4,2.7,6.1,6.1,6.1h194.9
							c3.4,0,6.1-2.7,6.1-6.1V45.2c0-3.4-2.7-6.1-6.1-6.1H279.2z"/>
						<path class="st11" d="M258.7,158.6c0,0-23.9-27.4-30.8-17.7c0,0-18.9-11.3-21.1-13.1c-3.9-3.2-9.5-1.2-2.4,8.1
							c3.5,4.6,15,11.9,15,11.9s-16.3,19.7-8,27.4c8.3,7.7,32,12,32,12L258.7,158.6L258.7,158.6L258.7,158.6z"/>
						<path class="st3" d="M226.3,175.9c-0.2,0-0.4-0.1-0.4-0.3c-0.1-0.2,0.1-0.4,0.3-0.5c2.9-0.6,11.5-14.4,11.4-16.3
							c0-1.9-1.8-2.5-1.8-2.6c-0.2-0.1-0.3-0.3-0.3-0.5c0.1-0.2,0.3-0.3,0.5-0.3c0.8,0.3,2.4,1.3,2.4,3.3
							C238.5,161.1,229.6,175.2,226.3,175.9C226.3,175.9,226.3,175.9,226.3,175.9L226.3,175.9L226.3,175.9z"/>
						<path class="st3" d="M232.4,162.3c-0.1,0-0.1,0-0.2-0.1l-11.5-6.5c-0.2-0.1-0.3-0.4-0.1-0.6c0.1-0.2,0.4-0.3,0.6-0.1l11.5,6.5
							c0.2,0.1,0.3,0.4,0.1,0.6C232.6,162.2,232.5,162.3,232.4,162.3L232.4,162.3L232.4,162.3z"/>
						<path class="st3" d="M226.8,169.9c0,0-0.1,0-0.1,0l-12-5.1c-0.2-0.1-0.3-0.3-0.2-0.5s0.3-0.3,0.5-0.2l12,5.1
							c0.2,0.1,0.3,0.3,0.2,0.5C227.1,169.8,226.9,169.9,226.8,169.9L226.8,169.9z"/>
						<path class="st3" d="M220.6,174.9c-0.1,0-0.3-0.1-0.4-0.2c-0.4-0.7-2.4-0.8-3.5-0.7c-0.2,0-0.4-0.1-0.4-0.4s0.1-0.4,0.4-0.4
							c0.3,0,3.4-0.3,4.2,1.1c0.1,0.2,0.1,0.4-0.1,0.6C220.7,174.9,220.7,174.9,220.6,174.9L220.6,174.9L220.6,174.9z"/>
						<path class="st11" d="M228.5,142.8c0,0-2.8,13.8-3.8,17.4c-1,3.6,6.4,4,9.5-1.1"/>
						<path class="st3" d="M228.8,161.8c-0.1,0-0.2,0-0.2,0c-2.2-0.3-3.8-1.2-3.9-1.3l-0.3-0.2l1.1-3.1l1.9-11.5
							c0-0.2,0.2-0.4,0.5-0.3s0.4,0.2,0.3,0.5l-2,11.6l-0.9,2.5c0.5,0.3,1.8,0.8,3.2,1c1.2,0.1,2.5-1.9,3-3.2l-4.2-0.3
							c-0.2,0-0.4-0.2-0.4-0.4c0-0.2,0.2-0.4,0.4-0.4l5.3,0.4l-0.2,0.5C232.4,158,231,161.8,228.8,161.8L228.8,161.8L228.8,161.8z"
							/>
						<path class="st3" d="M227.7,163.2c-2.6,0-3.3-1.6-3.4-1.7c-0.1-0.2,0-0.4,0.2-0.5c0.2-0.1,0.4,0,0.5,0.2c0,0.1,1,2.1,5.3,0.7
							c0.1,0,3.6-1,7.7-10.6c0.1-0.2,0.3-0.3,0.5-0.2c0.2,0.1,0.3,0.3,0.2,0.5c-4.4,10.1-8.1,11.1-8.3,11.1
							C229.4,163.1,228.4,163.2,227.7,163.2L227.7,163.2z"/>
						<path class="st3" d="M233.5,151.1L233.5,151.1l-3.9-0.7c-0.2,0-0.4-0.2-0.3-0.5s0.3-0.4,0.5-0.3l3.8,0.7
							c0.2,0,0.4,0.2,0.3,0.5C233.9,151,233.7,151.2,233.5,151.1L233.5,151.1L233.5,151.1z"/>
						<path class="st3" d="M232.7,149.7L232.7,149.7l-2.5-0.4c-0.2,0-0.4-0.2-0.3-0.5c0-0.2,0.2-0.4,0.5-0.3l2.4,0.4
							c0.2,0,0.4,0.2,0.3,0.5C233.1,149.6,232.9,149.8,232.7,149.7L232.7,149.7L232.7,149.7z"/>
						<path class="st3" d="M206,135.9c-0.1,0-0.2-0.1-0.3-0.1c-0.1-0.2-0.1-0.4,0.1-0.6l3.9-3.1c0.2-0.1,0.4-0.1,0.6,0.1
							c0.1,0.2,0.1,0.4-0.1,0.6l-3.9,3.1C206.2,135.8,206.1,135.9,206,135.9L206,135.9L206,135.9z"/>
						<path class="st3" d="M212.2,141.2c-0.1,0-0.2,0-0.3-0.1c-0.2-0.1-0.2-0.4,0-0.6l3.6-4.2c0.1-0.2,0.4-0.2,0.6,0
							c0.2,0.1,0.2,0.4,0,0.6l-3.6,4.2C212.4,141.1,212.3,141.2,212.2,141.2L212.2,141.2z"/>
						<path class="st6" d="M304.3,182.2l-52.9-30.4l-13.6,44.3l69.8,39.8L304.3,182.2z"/>
						<path class="st11" d="M358.5,112.5l-26.3,6.6l-2.4-14.8c-25.5-2-9.9-40.2-9.9-40.2c7-7.8,19.2-10,30.4-2.9
							c8,5.1,7.2,16.4,4.5,33.6C353.8,101.6,358.5,112.5,358.5,112.5L358.5,112.5L358.5,112.5z"/>
						<path class="st3" d="M319.7,78.3c0.6,0,1.1-0.5,1.1-1.1s-0.5-1.1-1.1-1.1s-1.1,0.5-1.1,1.1S319.1,78.3,319.7,78.3z"/>
						<path class="st3" d="M326.5,74.3c-0.4,0-0.7-0.1-1.1-0.3c-2.4-1.5-4.7-0.8-4.8-0.8c-1.1,0.3-2.2-0.3-2.5-1.3
							c-0.3-1.1,0.2-2.2,1.3-2.5c0.2-0.1,4.2-1.3,8.2,1.2c1,0.6,1.2,1.8,0.6,2.8C327.8,74,327.2,74.3,326.5,74.3L326.5,74.3
							L326.5,74.3z"/>
						<path class="st3" d="M321.2,93.1c-0.1,0-0.2,0-0.3,0c-2-0.2-3-2.8-3.1-2.9l-0.2-0.5l8.6-0.8l-0.5,0.7
							C324.2,91.9,322.7,93.1,321.2,93.1L321.2,93.1L321.2,93.1z M318.9,90.4c0.4,0.7,1.1,1.8,2.2,1.9c1,0.1,2.3-0.7,3.6-2.4
							L318.9,90.4L318.9,90.4L318.9,90.4z"/>
						<path class="st6" d="M331.8,115.4c0,0-19.6,15.6-29.8,41.4c-6.1,15.4-2.5,25.5-1.4,42.3c1.8,28.7,5.1,34.8,4.9,43.1
							c21.8,1.3,63.2-0.5,82.7,0.3c5.3-25.8,7.4-46.7,6.1-72.9c-0.7-14.5-17.6-50.9-36.1-59.5C346.4,111.7,331.8,115.4,331.8,115.4
							L331.8,115.4L331.8,115.4z"/>
						<path class="st3" d="M333.5,105.5c-0.2,0-0.4-0.2-0.4-0.4c0-0.2,0.2-0.4,0.4-0.4c0.1,0,7.4-0.2,10.6-3.6
							c0.1-0.2,0.4-0.2,0.6,0c0.2,0.2,0.2,0.4,0,0.6C341.3,105.2,333.8,105.5,333.5,105.5L333.5,105.5L333.5,105.5z"/>
						<path class="st11" d="M315.6,81.2c0,0-3.7,1.2-0.3,4.4L315.6,81.2z"/>
						<path class="st3" d="M342,82.4c0,0,2.7-1.7,0.9-6.9c-1.2-6.9-4.3-6.4-23-11.4c3.3-8.8,10.7-14.4,21.8-10.2s17.8,12,16.6,23
							c-0.3,2.9-4.7,16-1,24.6c6.5,15.2-14,41.4-14,41.4s4.1-21.3-3.7-34C331.8,96.1,342,82.4,342,82.4L342,82.4L342,82.4z"/>
						<path class="st11" d="M342.3,75.8c0,0,5.4-2.5,3.5,4.2s-4.7,8.1-6.3,6.8"/>
						<path class="st3" d="M340.6,87.7c-0.5,0-1-0.2-1.4-0.5l0.5-0.7c0.5,0.3,0.9,0.4,1.5,0.2c0.7-0.2,2.6-1.4,4.2-6.9
							c0.6-2,0.6-3.3-0.1-3.9c-0.7-0.6-2.3-0.1-2.8,0.1l-0.3-0.7c0.1-0.1,2.4-1.1,3.7,0c0.9,0.8,1,2.4,0.3,4.7
							c-1.2,4.2-2.9,6.8-4.7,7.4C341.1,87.7,340.9,87.7,340.6,87.7L340.6,87.7L340.6,87.7z"/>
						<path class="st11" d="M343.1,78.7c0,0,1.1-0.1-1,3.6L343.1,78.7z"/>
						<path class="st3" d="M342.5,82.5l-0.7-0.4c1.5-2.6,1.3-3.1,1.3-3.1c0,0,0,0.1,0.2,0.1l-0.1-0.8c0.2,0,0.4,0.1,0.6,0.3
							C343.9,79,344,79.8,342.5,82.5L342.5,82.5L342.5,82.5z"/>
						<path class="st3" d="M356.5,99.2c0,0,2.5,9.8,13.8,20.2c0,0-9.2-7-14.3,0C355.1,120.8,356.5,99.3,356.5,99.2L356.5,99.2z"/>
						<path class="st3" d="M304.9,234.4l-2.4-15.2l-10.9,7.6L304.9,234.4L304.9,234.4z"/>
						<path class="st3" d="M346.7,242.4c-0.2,0-0.4-0.2-0.4-0.4v-34.6c0-0.2,0.2-0.4,0.4-0.4s0.4,0.2,0.4,0.4V242
							C347.1,242.2,346.9,242.4,346.7,242.4z"/>
						<path class="st3" d="M345.5,148.3c-0.1,0-0.2,0-0.3-0.1c-0.2-0.1-0.2-0.4,0-0.6l5-5.1c0.1-0.2,0.4-0.2,0.6,0
							c0.2,0.1,0.2,0.4,0,0.6l-5,5.1C345.8,148.3,345.6,148.3,345.5,148.3L345.5,148.3L345.5,148.3z"/>
						<path class="st5" d="M451.3,84.7c8.8,0,15.9-7.1,15.9-15.8S460,53,451.3,53s-15.9,7.1-15.9,15.8S442.5,84.7,451.3,84.7z"/>
						<path class="st12" d="M461.8,72.2c-0.3,0.3-0.7,0.5-1.1,0.5l0,0l-4.3,0c-0.9,0-1.5-0.7-1.6-1.5l0-1.4v-0.1c0,0,0,0,0,0
							c0-0.1-0.1-0.1-0.1-0.2h0c-0.8-0.2-2-0.6-3.3-0.5c-1.4,0-2.7,0.5-3.4,0.8c0,0,0,0-0.1,0l0,1.4c0,0.9-0.6,1.6-1.5,1.6l-4.2,0.1
							c-0.5,0.1-0.9-0.2-1.2-0.5s-0.4-0.8-0.4-1.2c0,0,0,0,0-0.1l0.6-3.4c0,0,0-0.1,0-0.1c0.1-0.2,0.3-0.7,0.8-1
							c0.7-0.4,2.6-1.2,5.7-1.8h0c1.1-0.1,2.3-0.3,3.6-0.3l0,0c4.9,0,8.2,1.3,9.4,1.8h0c0.2,0.1,0.4,0.2,0.5,0.4
							c0.1,0.2,0.3,0.4,0.3,0.7l0.7,3.3C462.2,71.5,462,72,461.8,72.2L461.8,72.2L461.8,72.2z M460.6,71.2l-0.7-3.3c0,0,0,0,0,0
							c-1-0.4-4.1-1.7-8.7-1.7c-1.1,0-2.3,0.2-3.4,0.3c-2.9,0.5-4.6,1.2-5.2,1.6l0,0l-0.6,3.3l4.2-0.1l0-1.4c0-0.6,0.3-1.2,1-1.5
							c0,0,0.1,0,0.1,0c0.7-0.3,2.3-0.9,4-0.9c1.5,0,2.9,0.4,3.7,0.6c0.1,0,0.2,0.1,0.3,0.1c0.2,0.1,0.3,0.2,0.4,0.3
							c0.1,0.2,0.3,0.4,0.4,0.6c0.1,0.2,0.2,0.5,0.2,0.8l0,1.3L460.6,71.2L460.6,71.2L460.6,71.2z"/>
						<path class="st13" d="M75.6,17h4.7l0.1-0.6h-3.9l1.3-6.4H77C77,10,75.6,17,75.6,17z"/>
						<path class="st13" d="M84.7,10.1l0.9,0.8h0.6l-1.2-1.2h-0.7L83,10.9h0.7L84.7,10.1z M84.3,11.7c-1.8,0-3,1.3-3,3.1
							c0,1.3,0.9,2.2,2.4,2.2c1.8,0,3-1.3,3-3.1C86.7,12.6,85.7,11.7,84.3,11.7z M83.7,16.4c-1.1,0-1.7-0.6-1.7-1.6
							c0-1.4,1-2.5,2.3-2.5c1.1,0,1.7,0.6,1.7,1.6C86,15.4,85,16.4,83.7,16.4z M83.2,18c-0.3,0-0.5,0.2-0.5,0.5
							c0,0.2,0.2,0.4,0.4,0.4c0.3,0,0.5-0.2,0.5-0.5C83.6,18.2,83.4,18,83.2,18z"/>
						<path class="st13" d="M91.9,12.3h1.6l0.1-0.6H92l0.2-1.1h-0.7l-0.2,1.1h-0.9l-0.1,0.6h0.9l-0.6,3.1c0,0.1,0,0.3,0,0.4
							c0,0.8,0.5,1.2,1.3,1.2c0.4,0,0.8-0.1,1.2-0.3l-0.2-0.5c-0.2,0.2-0.5,0.3-0.8,0.3c-0.5,0-0.8-0.2-0.8-0.7c0-0.1,0-0.2,0-0.3
							C91.3,15.4,91.9,12.3,91.9,12.3z"/>
						<path class="st13" d="M95.8,12.7l0.2-1h-0.7l-1,5.3h0.7l0.5-2.7c0.3-1.3,1-1.9,2.1-1.9c0.1,0,0.1,0,0.2,0l0.1-0.7
							C96.9,11.7,96.2,12,95.8,12.7L95.8,12.7z"/>
						<path class="st13" d="M99.7,10.9h0.7l-1.1-1.2h-0.9L99.7,10.9z M98.2,17h0.7l1-5.3h-0.7L98.2,17z"/>
						<path class="st13" d="M104.5,11.7c-0.8,0-1.6,0.3-2.1,0.9l0.2-0.8h-0.7l-1,5.3h0.7l0.6-2.8c0.2-1.2,1-1.8,2.1-1.8
							c0.9,0,1.4,0.4,1.4,1.2c0,0.1,0,0.3-0.1,0.5l-0.6,3h0.7l0.6-3c0-0.2,0.1-0.4,0.1-0.6C106.3,12.3,105.6,11.7,104.5,11.7z"/>
						<path class="st13" d="M111.2,11.7c-0.8,0-1.5,0.3-2,0.8l0.6-2.9h-0.7l-1.5,7.4h0.7l0.6-2.8c0.2-1.2,1-1.8,2.1-1.8
							c0.9,0,1.4,0.4,1.4,1.2c0,0.1,0,0.3-0.1,0.5l-0.6,3h0.7l0.6-3c0-0.2,0.1-0.4,0.1-0.6C113.1,12.3,112.4,11.7,111.2,11.7
							L111.2,11.7z"/>
						<path class="st13" d="M120.6,11.7c-0.8,0-1.5,0.3-2,0.8l0.6-2.9h-0.7L117,17h0.7l0.6-2.8c0.2-1.2,1-1.8,2.1-1.8
							c0.9,0,1.4,0.4,1.4,1.2c0,0.1,0,0.3-0.1,0.5l-0.6,3h0.7l0.6-3c0-0.2,0.1-0.4,0.1-0.6C122.5,12.3,121.8,11.7,120.6,11.7
							L120.6,11.7z"/>
						<path class="st13" d="M126.1,17c1.8,0,3-1.3,3-3.1c0-1.4-0.9-2.2-2.4-2.2c-1.8,0-3,1.3-3,3.1C123.7,16.2,124.7,17,126.1,17z
							 M126.2,16.4c-1.1,0-1.7-0.6-1.7-1.6c0-1.4,1-2.5,2.3-2.5c1.1,0,1.7,0.6,1.7,1.6C128.5,15.4,127.5,16.4,126.2,16.4z
							 M125.6,18.9c0.3,0,0.5-0.2,0.5-0.5c0-0.2-0.2-0.4-0.4-0.4c-0.3,0-0.5,0.2-0.5,0.5C125.2,18.7,125.3,18.9,125.6,18.9z"/>
						<path class="st13" d="M132.4,17c0.9,0,1.7-0.4,2.2-1l-0.5-0.4c-0.4,0.5-1,0.8-1.7,0.8c-1.1,0-1.8-0.6-1.8-1.6
							c0-1.4,1-2.5,2.3-2.5c0.7,0,1.2,0.3,1.5,0.8l0.6-0.4c-0.4-0.7-1.1-1.1-2.1-1.1c-1.8,0-3.1,1.3-3.1,3.1
							C130,16.2,130.9,17,132.4,17L132.4,17z"/>
						<path class="st13" d="M140.1,12.3h1.6l0.1-0.6h-1.6l0.2-1.1h-0.7l-0.2,1.1h-0.9l-0.1,0.6h0.9l-0.6,3.1c0,0.1,0,0.3,0,0.4
							c0,0.8,0.5,1.2,1.3,1.2c0.4,0,0.8-0.1,1.2-0.3l-0.2-0.5c-0.2,0.2-0.5,0.3-0.8,0.3c-0.5,0-0.8-0.2-0.8-0.7c0-0.1,0-0.2,0-0.3
							L140.1,12.3L140.1,12.3z"/>
						<path class="st13" d="M145.8,10.1l0.9,0.8h0.6l-1.1-1.2h-0.7l-1.4,1.2h0.7L145.8,10.1z M147.3,11.7l-0.2,1.1
							c-0.3-0.7-1-1.1-2-1.1c-1.7,0-3,1.3-3,3.1c0,1.4,0.9,2.2,2.3,2.2c0.9,0,1.6-0.3,2.1-0.9l-0.2,0.8h0.7l1.1-5.3L147.3,11.7
							L147.3,11.7z M144.6,16.4c-1.1,0-1.7-0.6-1.7-1.6c0-1.4,1-2.5,2.3-2.5c1.1,0,1.7,0.6,1.7,1.6
							C146.9,15.4,145.9,16.4,144.6,16.4z M144.3,18c-0.3,0-0.5,0.2-0.5,0.5c0,0.2,0.1,0.4,0.4,0.4c0.3,0,0.5-0.2,0.5-0.5
							C144.6,18.2,144.5,18,144.3,18z"/>
						<path class="st13" d="M152.6,11.7c-0.9,0-1.6,0.3-2.1,0.9l0.2-0.8H150l-1.4,7.2h0.7l0.6-3c0.3,0.7,1,1.2,2,1.2
							c1.7,0,3-1.3,3-3.1C154.9,12.5,153.9,11.7,152.6,11.7L152.6,11.7z M151.9,16.4c-1.1,0-1.7-0.6-1.7-1.6c0-1.4,1-2.5,2.3-2.5
							c1.1,0,1.7,0.6,1.7,1.6C154.2,15.4,153.2,16.4,151.9,16.4z"/>
						<path class="st13" d="M165.5,10.4h-1l0.2-0.8h-0.7l-0.2,0.8h-2.2l-0.1,0.5h2.2l-0.4,1.9c-0.3-0.7-1-1.1-2-1.1
							c-1.7,0-3,1.3-3,3.1c0,1.4,0.9,2.2,2.3,2.2c0.9,0,1.6-0.3,2.1-0.9l-0.2,0.8h0.7l1.2-6.1h1L165.5,10.4L165.5,10.4z M160.8,16.4
							c-1.1,0-1.7-0.6-1.7-1.6c0-1.4,1-2.5,2.3-2.5c1.1,0,1.7,0.6,1.7,1.6C163,15.4,162.1,16.4,160.8,16.4z"/>
						<path class="st13" d="M169.6,9.2c0.2,0,0.3,0.1,0.3,0.3c0,0.2-0.1,0.4-0.5,0.5l0.2,0.2c0.4-0.2,0.7-0.5,0.7-0.9
							c0-0.4-0.3-0.6-0.7-0.6c-0.2,0-0.4,0.1-0.6,0.2l0.1,0.3C169.3,9.2,169.5,9.2,169.6,9.2L169.6,9.2z M168.4,10.3l0.9,0.6h0.7
							l-1.2-0.9h-0.7l-1.4,0.9h0.7L168.4,10.3L168.4,10.3z M168,11.7c-1.7,0-2.9,1.3-2.9,3.1c0,1.4,0.9,2.2,2.4,2.2
							c0.8,0,1.6-0.3,2.1-0.8l-0.3-0.5c-0.4,0.4-1,0.7-1.7,0.7c-1.2,0-1.8-0.6-1.8-1.6c0-0.1,0-0.1,0-0.2h4.4c0-0.2,0.1-0.4,0.1-0.6
							C170.3,12.5,169.4,11.7,168,11.7z M168,12.3c1,0,1.6,0.6,1.6,1.6c0,0.1,0,0.1,0,0.2h-3.8C166.1,13,166.9,12.3,168,12.3z"/>
						<path class="st13" d="M176.2,17c0.9,0,1.7-0.4,2.2-1l-0.5-0.4c-0.4,0.5-1,0.8-1.7,0.8c-1.1,0-1.8-0.6-1.8-1.6
							c0-1.4,1-2.5,2.3-2.5c0.7,0,1.2,0.3,1.5,0.8l0.6-0.4c-0.4-0.7-1.1-1.1-2.1-1.1c-1.8,0-3.1,1.3-3.1,3.1
							C173.7,16.2,174.7,17,176.2,17L176.2,17z"/>
						<path class="st13" d="M183,11.7c-0.8,0-1.5,0.3-2,0.8l0.6-2.9h-0.7l-1.5,7.4h0.7l0.6-2.8c0.2-1.2,1-1.8,2.1-1.8
							c0.9,0,1.4,0.4,1.4,1.2c0,0.1,0,0.3-0.1,0.5l-0.6,3h0.7l0.6-3c0-0.2,0.1-0.4,0.1-0.6C184.8,12.3,184.2,11.7,183,11.7z"/>
						<path class="st13" d="M191.2,11.7l-0.6,2.8c-0.2,1.2-1,1.8-2.1,1.8c-0.9,0-1.3-0.4-1.3-1.2c0-0.1,0-0.3,0.1-0.5l0.6-3h-0.7
							l-0.6,3c0,0.2-0.1,0.4-0.1,0.6c0,1.1,0.7,1.7,1.9,1.7c0.8,0,1.5-0.3,2-0.9l-0.2,0.8h0.7l1.1-5.3H191.2L191.2,11.7z"/>
						<path class="st13" d="M197.7,9.2c0.2,0,0.3,0.1,0.3,0.3c0,0.2-0.1,0.4-0.5,0.5l0.2,0.2c0.4-0.2,0.7-0.5,0.7-0.9
							c0-0.4-0.3-0.6-0.7-0.6c-0.2,0-0.4,0.1-0.6,0.2l0.1,0.3C197.4,9.2,197.5,9.2,197.7,9.2L197.7,9.2z M196.4,10.3l0.9,0.6h0.7
							l-1.2-0.9h-0.7l-1.4,0.9h0.7L196.4,10.3L196.4,10.3z M198,11.7l-0.2,1.1c-0.3-0.7-1-1.1-2-1.1c-1.7,0-3,1.3-3,3.1
							c0,1.4,0.9,2.2,2.3,2.2c0.9,0,1.6-0.3,2.1-0.9L197,17h0.7l1.1-5.3H198L198,11.7z M195.2,16.4c-1.1,0-1.7-0.6-1.7-1.6
							c0-1.4,1-2.5,2.3-2.5c1.1,0,1.7,0.6,1.7,1.6C197.5,15.4,196.5,16.4,195.2,16.4z"/>
						<path class="st13" d="M203.2,11.7c-0.8,0-1.6,0.3-2.1,0.9l0.2-0.8h-0.7l-1,5.3h0.7l0.6-2.8c0.2-1.2,1-1.8,2.1-1.8
							c0.9,0,1.4,0.4,1.4,1.2c0,0.1,0,0.3-0.1,0.5l-0.6,3h0.7l0.6-3c0-0.2,0.1-0.4,0.1-0.6C205.1,12.3,204.4,11.7,203.2,11.7
							L203.2,11.7z"/>
						<path class="st13" d="M212.6,11.7c-0.8,0-1.5,0.3-2,0.8l0.6-2.9h-0.7L209,17h0.7l0.2-1.1c0.3,0.8,1,1.2,2,1.2
							c1.7,0,3-1.3,3-3.1C214.9,12.5,213.9,11.7,212.6,11.7L212.6,11.7z M211.9,16.4c-1.1,0-1.7-0.6-1.7-1.6c0-1.4,1-2.5,2.3-2.5
							c1.1,0,1.7,0.6,1.7,1.6C214.2,15.4,213.2,16.4,211.9,16.4z"/>
						<path class="st13" d="M217.5,10.6c0.3,0,0.6-0.2,0.6-0.6c0-0.2-0.2-0.4-0.5-0.4c-0.3,0-0.6,0.2-0.6,0.5
							C217,10.4,217.2,10.6,217.5,10.6L217.5,10.6z M215.8,17h0.7l1-5.3h-0.7L215.8,17z M215.8,18.9c0.3,0,0.5-0.2,0.5-0.5
							c0-0.2-0.2-0.4-0.4-0.4c-0.3,0-0.5,0.2-0.5,0.5C215.4,18.7,215.6,18.9,215.8,18.9z"/>
						<path class="st13" d="M223.5,17c0.9,0,1.7-0.4,2.2-1l-0.5-0.4c-0.4,0.5-1,0.8-1.7,0.8c-1.1,0-1.8-0.6-1.8-1.6
							c0-1.4,1-2.5,2.3-2.5c0.7,0,1.2,0.3,1.5,0.8l0.6-0.4c-0.4-0.7-1.1-1.1-2.1-1.1c-1.8,0-3.1,1.3-3.1,3.1
							C221,16.2,222,17,223.5,17L223.5,17z"/>
						<path class="st13" d="M230.2,11.7c-0.8,0-1.5,0.3-2,0.8l0.6-2.9h-0.7l-1.5,7.4h0.7l0.6-2.8c0.2-1.2,1-1.8,2.1-1.8
							c0.9,0,1.4,0.4,1.4,1.2c0,0.1,0,0.3-0.1,0.5l-0.6,3h0.7l0.6-3c0-0.2,0.1-0.4,0.1-0.6C232.1,12.3,231.4,11.7,230.2,11.7z"/>
						<path class="st13" d="M235.8,17c1.8,0,3-1.3,3-3.1c0-1.4-0.9-2.2-2.4-2.2c-1.8,0-3,1.3-3,3.1C233.4,16.2,234.3,17,235.8,17z
							 M235.8,16.4c-1.1,0-1.7-0.6-1.7-1.6c0-1.4,1-2.5,2.3-2.5c1.1,0,1.7,0.6,1.7,1.6C238.1,15.4,237.1,16.4,235.8,16.4z"/>
						<path class="st13" d="M242.1,18.9h1.8l0.1-0.6h-1.1l1.6-8.2h1.1l0.1-0.6h-1.8L242.1,18.9L242.1,18.9z"/>
						<path class="st13" d="M249,13.2l3.8-3.2h-1l-4.9,4.2l0.8-4.2h-0.7l-1.4,7h0.7l0.4-1.8l1.7-1.5l2.3,3.3h0.8L249,13.2L249,13.2z
							"/>
						<path class="st13" d="M254.2,10.6c0.3,0,0.6-0.2,0.6-0.6c0-0.2-0.2-0.4-0.5-0.4c-0.3,0-0.6,0.2-0.6,0.5
							C253.7,10.4,253.9,10.6,254.2,10.6L254.2,10.6z M252.5,17h0.7l1-5.3h-0.7L252.5,17z"/>
						<path class="st13" d="M259.7,9.2c0.2,0,0.3,0.1,0.3,0.3c0,0.2-0.1,0.4-0.5,0.5l0.2,0.2c0.4-0.2,0.7-0.5,0.7-0.9
							c0-0.4-0.3-0.6-0.7-0.6c-0.2,0-0.5,0.1-0.6,0.2l0.1,0.3C259.4,9.2,259.6,9.2,259.7,9.2L259.7,9.2z M258.5,10.3l0.9,0.6h0.7
							l-1.2-0.9h-0.7l-1.4,0.9h0.7L258.5,10.3z M258.1,11.7c-1.7,0-2.9,1.3-2.9,3.1c0,1.4,0.9,2.2,2.5,2.2c0.8,0,1.6-0.3,2.1-0.8
							l-0.3-0.5c-0.4,0.4-1,0.7-1.7,0.7c-1.2,0-1.8-0.6-1.8-1.6c0-0.1,0-0.1,0-0.2h4.4c0-0.2,0.1-0.4,0.1-0.6
							C260.4,12.5,259.5,11.7,258.1,11.7L258.1,11.7z M258.1,12.3c1,0,1.6,0.6,1.6,1.6c0,0.1,0,0.1,0,0.2h-3.8
							C256.2,13,257,12.3,258.1,12.3L258.1,12.3z"/>
						<path class="st13" d="M268.7,11.7c-0.9,0-1.7,0.4-2.2,1.1c-0.2-0.7-0.8-1.1-1.7-1.1c-0.8,0-1.5,0.3-2,0.9l0.2-0.8h-0.7l-1,5.3
							h0.7l0.6-2.8c0.2-1.2,1-1.8,2.1-1.8c0.9,0,1.3,0.4,1.3,1.2c0,0.1,0,0.3,0,0.5l-0.6,3h0.7l0.6-2.9c0.2-1.2,1-1.8,2-1.8
							c0.9,0,1.3,0.4,1.3,1.2c0,0.1,0,0.3,0,0.5l-0.6,3h0.7l0.6-3c0-0.2,0.1-0.4,0.1-0.6C270.6,12.3,269.9,11.7,268.7,11.7z"/>
						<path class="st13" d="M276.2,12.3h1.6l0.1-0.6h-1.6l0.2-1.1h-0.7l-0.2,1.1h-0.9l-0.1,0.6h0.9l-0.6,3.1c0,0.1,0,0.3,0,0.4
							c0,0.8,0.5,1.2,1.3,1.2c0.4,0,0.8-0.1,1.2-0.3l-0.2-0.5c-0.2,0.2-0.5,0.3-0.8,0.3c-0.5,0-0.8-0.2-0.8-0.7c0-0.1,0-0.2,0-0.3
							C275.6,15.4,276.2,12.3,276.2,12.3z"/>
						<path class="st13" d="M280.1,12.7l0.2-1h-0.7l-1,5.3h0.7l0.5-2.7c0.3-1.3,1-1.9,2.1-1.9c0.1,0,0.1,0,0.2,0l0.1-0.7
							C281.2,11.7,280.5,12,280.1,12.7z"/>
						<path class="st13" d="M287.5,11.7l-0.2,1.1c-0.3-0.7-1-1.1-2-1.1c-1.7,0-3,1.3-3,3.1c0,1.4,0.9,2.2,2.3,2.2
							c0.9,0,1.5-0.3,2-0.9l-0.2,0.8h0.7l1-5.3H287.5L287.5,11.7z M284.8,16.4c-1.1,0-1.7-0.6-1.7-1.6c0-1.4,1-2.5,2.3-2.5
							c1.1,0,1.7,0.6,1.7,1.6C287.1,15.4,286.1,16.4,284.8,16.4z"/>
						<path class="st13" d="M292.3,10l-0.1,0.6h1.6l-1.3,6.4h0.7l1.4-7H292.3z"/>
						<path class="st13" d="M299.8,12.3h1.6l0.1-0.6h-1.6l0.2-1.1h-0.7l-0.2,1.1h-0.9l-0.1,0.6h0.9l-0.6,3.1c0,0.1,0,0.3,0,0.4
							c0,0.8,0.5,1.2,1.3,1.2c0.4,0,0.8-0.1,1.2-0.3l-0.2-0.5c-0.2,0.2-0.5,0.3-0.8,0.3c-0.5,0-0.8-0.2-0.8-0.7c0-0.1,0-0.2,0-0.3
							C299.2,15.4,299.8,12.3,299.8,12.3z"/>
						<path class="st13" d="M303.8,10.6c0.3,0,0.6-0.2,0.6-0.6c0-0.2-0.2-0.4-0.5-0.4c-0.3,0-0.5,0.2-0.5,0.5
							C303.3,10.4,303.5,10.6,303.8,10.6L303.8,10.6z M302.1,17h0.7l1-5.3h-0.7L302.1,17z"/>
						<path class="st13" d="M311.1,9h-0.9l-1.3,1.1h0.7L311.1,9z M308.1,10.4l0.9,0.6h0.7l-1.2-0.9h-0.7l-1.4,0.9h0.7L308.1,10.4z
							 M307.6,11.7c-1.7,0-2.9,1.3-2.9,3.1c0,1.4,0.9,2.2,2.5,2.2c0.8,0,1.6-0.3,2.1-0.8l-0.3-0.5c-0.4,0.4-1,0.7-1.7,0.7
							c-1.2,0-1.8-0.6-1.8-1.6c0-0.1,0-0.1,0-0.2h4.4c0-0.2,0.1-0.4,0.1-0.6C309.9,12.5,309,11.7,307.6,11.7L307.6,11.7z
							 M307.6,12.3c1,0,1.6,0.6,1.6,1.6c0,0.1,0,0.1,0,0.2h-3.8C305.8,13,306.6,12.3,307.6,12.3L307.6,12.3z"/>
						<path class="st13" d="M312.6,12.3h1.6l0.1-0.6h-1.6l0.2-1.1h-0.7l-0.2,1.1H311l-0.1,0.6h0.9l-0.6,3.1c0,0.1,0,0.3,0,0.4
							c0,0.8,0.5,1.2,1.3,1.2c0.4,0,0.8-0.1,1.2-0.3l-0.2-0.5c-0.2,0.2-0.5,0.3-0.8,0.3c-0.5,0-0.8-0.2-0.8-0.7c0-0.1,0-0.2,0-0.3
							C312,15.4,312.6,12.3,312.6,12.3z"/>
						<path class="st13" d="M319,17h0.7l1.3-6.4h2.5l0.1-0.6h-5.7l-0.1,0.6h2.5L319,17z"/>
						<path class="st13" d="M324.8,10.6c0.3,0,0.6-0.2,0.6-0.6c0-0.2-0.2-0.4-0.5-0.4c-0.3,0-0.5,0.2-0.5,0.5
							C324.3,10.4,324.5,10.6,324.8,10.6L324.8,10.6z M323.1,17h0.7l1-5.3h-0.7L323.1,17z"/>
						<path class="st13" d="M332.1,9h-0.9l-1.3,1.1h0.7L332.1,9z M329.1,10.4l0.9,0.6h0.7l-1.2-0.9h-0.7l-1.4,0.9h0.7L329.1,10.4z
							 M328.6,11.7c-1.7,0-2.9,1.3-2.9,3.1c0,1.4,0.9,2.2,2.5,2.2c0.8,0,1.6-0.3,2.1-0.8l-0.3-0.5c-0.4,0.4-1,0.7-1.7,0.7
							c-1.2,0-1.8-0.6-1.8-1.6c0-0.1,0-0.1,0-0.2h4.4c0-0.2,0.1-0.4,0.1-0.6C330.9,12.5,330,11.7,328.6,11.7L328.6,11.7z
							 M328.6,12.3c1,0,1.6,0.6,1.6,1.6c0,0.1,0,0.1,0,0.2h-3.8C326.8,13,327.6,12.3,328.6,12.3L328.6,12.3z"/>
						<path class="st13" d="M335.4,11.7c-0.8,0-1.5,0.3-2.1,0.9l0.2-0.8h-0.7l-1,5.3h0.7l0.6-2.8c0.2-1.2,1-1.8,2.1-1.8
							c0.9,0,1.4,0.4,1.4,1.2c0,0.1,0,0.3,0,0.5l-0.6,3h0.7l0.6-3c0-0.2,0.1-0.4,0.1-0.6C337.3,12.3,336.6,11.7,335.4,11.7z"/>
						<path class="st13" d="M343.9,11.7l-0.2,1.2c-0.3-0.8-1.1-1.2-2-1.2c-1.8,0-3,1.3-3,3c0,1.3,0.9,2.1,2.3,2.1
							c0.9,0,1.6-0.3,2.1-0.9l-0.1,0.6c-0.2,1.3-1,1.9-2.3,1.9c-0.8,0-1.5-0.3-2-0.7l-0.4,0.5c0.5,0.5,1.4,0.8,2.3,0.8
							c1.7,0,2.7-0.8,3.1-2.6l0.9-4.6L343.9,11.7L343.9,11.7z M341,16.2c-1.1,0-1.7-0.6-1.7-1.5c0-1.3,1-2.3,2.3-2.3
							c1.1,0,1.7,0.6,1.7,1.5C343.3,15.2,342.4,16.2,341,16.2z"/>
						<path class="st13" d="M353.5,17h0.7l-1.8-7h-0.7l-4.6,7h0.8l1.2-1.9h3.9L353.5,17L353.5,17z M349.5,14.5l2.4-3.8l1,3.8H349.5z
							"/>
						<path class="st13" d="M358.9,11.7c-0.8,0-1.5,0.3-2.1,0.9l0.2-0.8h-0.7l-1,5.3h0.7l0.6-2.8c0.2-1.2,1-1.8,2.1-1.8
							c0.9,0,1.4,0.4,1.4,1.2c0,0.1,0,0.3,0,0.5l-0.6,3h0.7l0.6-3c0-0.2,0.1-0.4,0.1-0.6C360.7,12.3,360,11.7,358.9,11.7z"/>
						<path class="st13" d="M365.6,11.7c-0.8,0-1.5,0.3-2,0.8l0.6-2.9h-0.7L362,17h0.7l0.6-2.8c0.2-1.2,1-1.8,2.1-1.8
							c0.9,0,1.4,0.4,1.4,1.2c0,0.1,0,0.3,0,0.5l-0.6,3h0.7l0.6-3c0-0.2,0.1-0.4,0.1-0.6C367.5,12.3,366.8,11.7,365.6,11.7
							L365.6,11.7z"/>
						<path class="st13" d="M369.5,18.9l1.9-9.4h-1.8l-0.1,0.6h1.1l-1.6,8.2h-1.1l-0.1,0.6H369.5z"/>
					</g>
				</g>
			</g>
		</g>
	</g>
</g>
</svg>
