<svg width="131" height="131" viewBox="0 0 131 131" fill="none" xmlns="http://www.w3.org/2000/svg">
<path d="M61.5096 2.28537C63.5101 -0.36432 67.4899 -0.364318 69.4904 2.28537L71.1587 4.49504C72.797 6.66502 75.8691 7.12806 78.0742 5.53739L80.3197 3.91762C83.0123 1.97531 86.8154 3.14839 87.946 6.27002L88.8888 8.87325C89.8147 11.4297 92.6138 12.7777 95.1899 11.9077L97.813 11.0217C100.959 9.95938 104.247 12.2013 104.407 15.5175L104.541 18.283C104.672 20.9988 106.949 23.1119 109.667 23.0399L112.435 22.9665C115.754 22.8785 118.235 25.9901 117.411 29.2062L116.724 31.8882C116.049 34.522 117.602 37.2126 120.221 37.9448L122.887 38.6905C126.084 39.5847 127.538 43.2894 125.803 46.1197L124.355 48.4799C122.934 50.7978 123.625 53.8266 125.912 55.2982L128.24 56.7967C131.031 58.5936 131.329 62.5623 128.836 64.7552L126.757 66.584C124.716 68.3799 124.484 71.4779 126.235 73.5581L128.018 75.6762C130.156 78.2162 129.27 82.0962 126.242 83.4569L123.716 84.5917C121.236 85.7061 120.101 88.5981 121.161 91.1019L122.241 93.6515C123.535 96.7088 121.545 100.155 118.25 100.563L115.502 100.903C112.804 101.237 110.867 103.666 111.142 106.371L111.422 109.125C111.758 112.428 108.84 115.135 105.572 114.554L102.846 114.069C100.169 113.592 97.6019 115.342 97.0674 118.008L96.523 120.723C95.8703 123.978 92.2846 125.705 89.3326 124.186L86.8707 122.919C84.4532 121.675 81.4844 122.59 80.1878 124.98L78.8675 127.414C77.2843 130.332 73.3489 130.925 70.9758 128.603L68.9968 126.667C67.0534 124.765 63.9466 124.765 62.0032 126.667L60.0242 128.603C57.6511 130.925 53.7157 130.332 52.1325 127.414L50.8122 124.98C49.5156 122.59 46.5468 121.675 44.1293 122.919L41.6674 124.186C38.7154 125.705 35.1297 123.978 34.477 120.723L33.9326 118.008C33.3981 115.342 30.8311 113.592 28.1542 114.069L25.4283 114.554C22.1596 115.135 19.2422 112.428 19.5779 109.125L19.858 106.371C20.133 103.666 18.1959 101.237 15.4975 100.903L12.7497 100.563C9.45479 100.155 7.46487 96.7088 8.75932 93.6515L9.8388 91.1019C10.8989 88.5981 9.76387 85.7061 7.28374 84.5917L4.75824 83.4569C1.72983 82.0962 0.844238 78.2162 2.98234 75.6762L4.76538 73.5581C6.51639 71.4779 6.28422 68.3799 4.24274 66.584L2.16392 64.7552C-0.328855 62.5623 -0.0314366 58.5936 2.76034 56.7967L5.0885 55.2982C7.37484 53.8266 8.06616 50.7978 6.64473 48.4799L5.19729 46.1197C3.46163 43.2894 4.91564 39.5847 8.11302 38.6905L10.7794 37.9448C13.398 37.2126 14.9513 34.522 14.2763 31.8882L13.5888 29.2061C12.7645 25.99 15.2459 22.8785 18.5648 22.9665L21.3325 23.0399C24.0506 23.1119 26.328 20.9988 26.4592 18.283L26.5929 15.5175C26.7532 12.2013 30.0415 9.95938 33.187 11.0217L35.8101 11.9077C38.3862 12.7777 41.1853 11.4297 42.1112 8.87325L43.054 6.27001C44.1846 3.14839 47.9877 1.97531 50.6803 3.91762L52.9258 5.53739C55.1309 7.12806 58.203 6.66502 59.8413 4.49504L61.5096 2.28537Z" fill="url(#paint0_linear_1315_662)"/>
<defs>
<linearGradient id="paint0_linear_1315_662" x1="65.5" y1="-3" x2="65.5" y2="134" gradientUnits="userSpaceOnUse">
<stop offset="0.307292" stop-color="#FB923C"/>
<stop offset="1" stop-color="#FB7200"/>
</linearGradient>
</defs>
</svg>
