<svg width="1233" height="480" viewBox="0 0 1233 480" fill="none" xmlns="http://www.w3.org/2000/svg">
<g clip-path="url(#clip0_1209_1708)">
<path d="M1086.32 209.708C1142.01 206.659 1184.68 159.035 1181.62 103.338C1178.57 47.6403 1130.96 4.96102 1075.27 8.01071C1019.59 11.0604 976.921 58.6842 979.971 114.382C983.021 170.079 1030.64 212.758 1086.32 209.708Z" fill="url(#paint0_linear_1209_1708)"/>
<path d="M1181.62 103.338C1181.82 106.821 1181.81 110.267 1181.68 113.67C1181.34 120.701 1180.31 127.551 1178.58 134.196C1174.4 150.366 1166.32 165.002 1155.29 177.034C1151.4 181.323 1147.11 185.271 1142.52 188.797C1126.88 200.936 1107.58 208.568 1086.32 209.733C1030.62 212.783 983.023 170.116 979.972 114.406C979.148 99.3594 981.657 84.9313 986.904 71.7846C989.521 65.0904 992.885 58.7434 996.853 52.8001C1004.5 41.3661 1014.46 31.5277 1026.08 24.0007C1032.41 19.9178 1039.18 16.5139 1046.37 13.961C1055.45 10.6248 1065.14 8.58986 1075.28 8.03488C1130.95 4.98582 1178.58 47.676 1181.63 103.362L1181.62 103.338Z" fill="url(#paint1_linear_1209_1708)"/>
<path opacity="0.37" d="M1181.68 113.646C1181.34 120.677 1180.31 127.527 1178.58 134.172C1176.02 131.595 1173.59 129.423 1171.25 127.877C1153.48 116.137 1108.18 128.639 1075.03 70.3553C1060.32 44.4961 1041.76 31.2458 1026.08 23.9523C1032.41 19.8694 1039.18 16.4655 1046.37 13.9126C1063.61 21.3148 1083.6 35.093 1094.13 60.3562C1115.16 110.52 1149.72 83.2244 1170.38 102.619C1174.24 106.265 1178.06 109.914 1181.68 113.646Z" fill="#1B293D"/>
<path opacity="0.37" d="M1155.29 177.01C1151.4 181.299 1147.1 185.247 1142.52 188.773C1137.78 183.379 1133.19 178.73 1129.08 175.995C1109.5 163.043 1059.44 176.825 1022.82 112.447C1011.98 93.4123 999.297 80.5927 986.903 71.7605C989.52 65.0662 992.884 58.7192 996.852 52.7759C1014.45 61.4443 1033.41 76.2739 1043.93 101.416C1067.13 156.872 1105.25 126.639 1128.11 148.097C1138.06 157.476 1147.51 167.027 1155.29 177.034L1155.29 177.01Z" fill="#1B293D"/>
<path d="M1177.6 139.297C1186.65 144.212 1195.53 149.5 1204.16 155.239C1213.19 161.538 1221.64 167.019 1228.79 176.163C1231.53 179.58 1233.22 186.184 1229.33 189.915C1219.33 200.046 1183.49 186.99 1171.09 183.423C1131.81 170.459 1094.14 153.161 1057.29 134.531C1011.98 110.154 964.746 85.7603 927.105 49.5595C924.049 46.0147 920.775 42.4818 919.377 37.3418C917.601 31.0338 922.429 25.7469 928.148 25.1911C932.745 24.5269 937.201 25.2776 941.443 26.1128C952.026 28.4448 961.748 31.8915 971.416 35.6807C981.035 39.4727 990.457 43.6394 999.727 48.1298L998.36 51.5287C988.586 48.4488 978.837 45.3919 969.059 42.7004C956.153 39.5737 943.167 34.9957 930.157 36.1934C929.436 36.3057 929.17 36.757 929.866 36.1851C930.215 35.9233 930.516 35.2033 930.614 34.7854C930.714 34.3917 930.631 34.2022 930.711 34.3434C931.877 36.5845 933.936 38.7524 936.086 40.7941C943.009 47.1842 951.221 53.1641 959.507 58.7517C976.273 69.8921 993.681 80.3664 1011.4 90.2659C1064.54 119.867 1119.34 147.365 1175.92 169.717C1185.31 173.352 1194.86 176.663 1204.32 179.299C1210 180.783 1215.49 182.278 1220.84 181.985C1221.54 181.947 1221.91 181.611 1221.29 182.203C1221.04 182.484 1220.73 183.155 1220.7 183.497C1220.7 183.933 1220.73 183.908 1220.75 183.834C1219.09 179.242 1214.77 175.281 1210.84 171.275C1199.86 160.812 1187.69 151.604 1175.56 142.344L1177.55 139.251L1177.6 139.297Z" fill="#0099DB"/>
</g>
<g opacity="0.7" clip-path="url(#clip1_1209_1708)">
<path d="M38 480C126.918 480 199 407.918 199 319C199 230.082 126.918 158 38 158C-50.9178 158 -123 230.082 -123 319C-123 407.918 -50.9178 480 38 480Z" fill="url(#paint2_linear_1209_1708)"/>
<path opacity="0.37" d="M150.558 203.915C133.012 209.296 107.965 215.862 96.5795 224.003C74.386 239.865 68.5218 299.832 -16.4621 312.761C-74.7764 321.636 -101.228 355.355 -113.767 372.823C-116.278 365.758 -118.306 358.458 -119.818 350.988C-111.677 336.702 -79.2525 287.074 -19.6437 285.297C50.0715 283.16 33.1808 229.29 65.9329 213.46C89.1713 202.215 112.332 192.639 134.868 190.393C140.389 194.558 145.63 199.065 150.558 203.915Z" fill="#1B293D"/>
<path opacity="0.37" d="M196.972 293.531C181.766 298.179 166.185 303.529 157.623 309.642C133.09 327.141 126.633 393.363 32.7752 407.649C-10.2081 414.184 -37.4859 432.946 -55.0005 450.414C-61.1454 446.047 -66.9784 441.259 -72.4683 436.081C-56.4977 413.856 -23.1374 378.921 29.2504 377.314C106.265 374.975 87.596 315.475 123.764 297.961C146.893 286.778 169.96 277.14 192.465 273.537C194.383 280.041 195.927 286.716 196.972 293.531Z" fill="#1B293D"/>
</g>
<defs>
<linearGradient id="paint0_linear_1209_1708" x1="1002.7" y1="201.987" x2="1156.03" y2="19.273" gradientUnits="userSpaceOnUse">
<stop stop-color="#00A7FF"/>
<stop offset="1" stop-color="#273E5E"/>
</linearGradient>
<linearGradient id="paint1_linear_1209_1708" x1="929.19" y1="267.009" x2="1073.03" y2="117.033" gradientUnits="userSpaceOnUse">
<stop stop-color="#EE5300"/>
<stop offset="1" stop-color="#FF8000" stop-opacity="0"/>
</linearGradient>
<linearGradient id="paint2_linear_1209_1708" x1="155.845" y1="516.62" x2="-24.5097" y2="214.193" gradientUnits="userSpaceOnUse">
<stop stop-color="#FB923C" stop-opacity="0.21"/>
<stop offset="0.427083" stop-color="#004A71"/>
<stop offset="0.838542" stop-color="#126998"/>
<stop offset="1" stop-color="#22719D"/>
</linearGradient>
<clipPath id="clip0_1209_1708">
<rect width="304" height="202" fill="white" transform="translate(918 16.6241) rotate(-3.13476)"/>
</clipPath>
<clipPath id="clip1_1209_1708">
<rect width="322" height="322" fill="white" transform="translate(-123 158)"/>
</clipPath>
</defs>
</svg>
