<?xml version="1.0" encoding="UTF-8"?><svg id="Layer_2" xmlns="http://www.w3.org/2000/svg" xmlns:xlink="http://www.w3.org/1999/xlink" viewBox="0 0 1440 800"><defs><style>.cls-1{fill:none;}.cls-2{clip-path:url(#clippath);}.cls-3{fill:#b6e5ff;}</style><clipPath id="clippath"><rect class="cls-1" width="1440" height="800"/></clipPath></defs><g id="Layer_1-2"><g class="cls-2"><path class="cls-3" d="M663.5,974.4s11.2-98.2,89.7-108.5c78.5-10.3,22.6-39.5-36.3-39.4-59,.1-22.4-44.2,115.4-43.1,137.8,1.1-128.6-41-72.5-64.3,56.1-23.3,175.6-14.7,112.5-37.7-63-23.1-124.1-44.6-56.7-63.3,67.5-18.7,106.7,8.3,94.6-26.3-12.1-34.6,15.9-16.1,46.7-19.7,30.8-3.6,15.9-75.6,77.5-96.2,61.7-20.6,106.3-84,151.1-85.9,61.6,0,97-25,97-76.5,0-55,40-76,40-76l16.5,3.5s-39.12,10-42,63c-5.11,94-79.01,92.7-104.5,102-48.6,17.8-59,62.4-96.4,76.4s-100,42.1-56.1,86.1-72.7,20.4-63,38.2c9.7,17.9,72.3,41.3-8,46.9-80.4,5.6-56.1,35.5,4.7,49.6,60.7,14,105.9,27.1,93.6,46.8-12.3,19.6-154.7-33.7-145.6,0,9.1,33.7,166,26.2,163.2,50.5-2.8,24.3-221.5,28.1-194.4,44.9,27.1,16.8,116.8,33.7,211.2,21.5,94.4-12.2-11.3,109.4,127,119.7l-565.2-12.2Z"/></g></g></svg>