<svg width="1546" height="799" viewBox="0 0 1546 799" fill="none" xmlns="http://www.w3.org/2000/svg">
<path d="M594 560C723.68 526.786 727.44 302.433 725 228.5H768.5C766.623 291.362 793.5 528 872.5 560C1024.5 621.57 1076.03 455 1265 455C1446 455 1469.98 759.031 1546 799L7.12569 786.06C4.83262 786.696 2.46453 786.696 0 786L7.12569 786.06C53.035 773.324 68.8731 505.692 226.5 469.5C438.63 420.794 457.726 594.902 594 560Z" fill="url(#paint0_linear_1229_641)"/>
<g clip-path="url(#clip0_1229_641)">
<path d="M733.592 192.07C733.592 192.07 709.475 207.235 709.885 249.142C709.885 249.142 719.189 247.67 722.584 237.131C722.584 237.131 698.256 263.614 712.535 303.863C712.535 303.863 718.89 272.371 731.478 279.669C741.639 285.569 719.587 318.15 731.677 338.708C743.754 359.29 741.639 369 741.639 369C741.639 369 755.184 343.705 766.627 326.437C778.057 309.17 770.806 271.382 772.336 263.824C775.097 250.206 783.43 254.399 786.677 271.468C789.923 288.538 793.418 292.57 793.418 292.57C793.418 292.57 793.965 269.625 798.716 258.023C803.468 246.421 793.754 191.204 778.281 189.534C762.808 187.864 733.579 192.082 733.579 192.082L733.592 192.07Z" fill="#FF512A"/>
<path d="M746.291 198.811C746.291 198.811 715.371 204.291 714.786 245.703C714.786 245.703 721.179 233.742 725.047 234.546C728.915 235.35 702.622 264.195 711.838 298.161C711.838 298.161 713.729 270.207 731.913 274.944C750.097 279.694 720.284 318.397 742.398 349.617C742.398 349.617 776.192 324.372 768.318 282.65C764.114 260.398 775.52 248.115 778.48 247.695C781.44 247.274 794.351 265.791 790.831 282.217C790.831 282.217 797.896 258.258 790.831 231.503C783.99 205.577 781.44 198.836 781.44 198.836L746.291 198.836L746.291 198.811Z" fill="url(#paint1_linear_1229_641)"/>
<path d="M780.197 297.877C780.197 297.877 774.339 313.177 782 324.99C789.662 336.803 789.376 344.521 789.376 344.521C789.376 344.521 797.174 317.964 790.732 308.007C784.301 298.05 780.197 297.889 780.197 297.889L780.197 297.877Z" fill="url(#paint2_linear_1229_641)"/>
<path d="M716.154 321.106C716.154 321.106 707.261 325.46 707.025 336.37C706.789 347.292 706.988 351.25 706.988 351.25C706.988 351.25 723.828 332.795 716.154 321.094L716.154 321.106Z" fill="url(#paint3_linear_1229_641)"/>
<path d="M744.599 204.711C744.599 204.711 730.147 222.684 730.171 240.446C730.196 258.208 722.721 264.01 722.721 264.01C722.721 264.01 735.283 266.211 736.129 248.09C736.975 229.982 748.418 263.75 744.599 277.393C740.781 291.037 748.841 309.157 747.56 315.899C747.56 315.899 747.908 294.104 753.244 283.095C758.579 272.087 755.134 246.557 765.109 241.423C775.084 236.29 785.669 243.402 785.669 243.402C785.669 243.402 771.639 223.129 774.214 216.858C776.788 210.587 766.204 202.163 766.204 202.163L744.599 204.687L744.599 204.711Z" fill="url(#paint4_linear_1229_641)"/>
<path d="M723.841 128.937C723.841 128.937 706.03 162.334 705.346 166.428C704.662 170.523 695.06 235.734 697.348 235.734C699.637 235.734 730.93 203.017 731.627 198.7C732.311 194.383 723.853 128.937 723.853 128.937L723.841 128.937Z" fill="#FF8A16"/>
<path d="M723.841 128.937C723.841 128.937 708.381 167.195 707.697 171.29C707.013 175.384 698.381 230.712 700.669 230.712C702.958 230.712 729.438 199.368 730.122 195.051C730.806 190.734 723.841 128.937 723.841 128.937Z" fill="url(#paint5_linear_1229_641)"/>
<path d="M780.147 128.937C780.147 128.937 797.958 162.334 798.642 166.428C799.326 170.523 808.928 235.734 806.639 235.734C804.351 235.734 773.057 203.017 772.361 198.7C771.664 194.383 780.134 128.937 780.134 128.937L780.147 128.937Z" fill="#FF8A16"/>
<path d="M780.532 128.937C780.532 128.937 795.992 167.195 796.677 171.29C797.361 175.384 805.992 230.724 803.716 230.724C801.44 230.724 774.948 199.38 774.264 195.063C773.58 190.746 780.545 128.95 780.545 128.95L780.532 128.937Z" fill="url(#paint6_linear_1229_641)"/>
<path d="M780.421 125.066C779.737 153.663 778.916 180.121 778.642 183.548C777.274 200.704 767.896 208.496 753.07 208.496C738.244 208.496 727.386 201.372 726.067 189.386C725.881 187.654 725.694 185.712 725.52 183.535C724.923 176.077 721.764 59.8301 723.008 49.3163C724.376 37.7881 738.244 18.0344 746.316 7.35974C749.712 2.88206 752.087 -0.0123374 752.087 -0.0123374C752.087 -0.0123374 754.463 2.86969 757.846 7.35973C765.918 18.0344 779.786 37.8005 781.154 49.3163C781.826 54.9938 781.217 91.4955 780.408 125.053L780.421 125.066Z" fill="#EFF4F8"/>
<path d="M780.421 125.066C779.737 153.663 778.916 180.121 778.642 183.548C777.274 200.704 769.164 208.496 753.07 208.496C736.975 208.496 727.386 201.372 726.067 189.386C730.819 190.326 749.687 189.955 759.426 176.052C775.694 152.847 781.453 72.4344 781.453 72.4344C781.615 72.4716 780.271 124.979 780.421 125.041L780.421 125.066Z" fill="url(#paint7_linear_1229_641)"/>
<path d="M781.167 49.3286C781.167 49.3286 767.298 55.3401 753.094 55.8225C752.609 55.8349 752.137 55.8472 751.652 55.8472C737.833 55.8472 723.007 49.3286 723.007 49.3286C723.405 46.026 724.823 42.0431 726.838 37.8005C731.851 27.2371 740.557 15.0039 746.316 7.38443C751.366 9.69748 754.873 8.86876 756.614 8.10187C756.739 8.05239 756.863 7.99054 756.963 7.94106C757.56 7.6442 757.858 7.39681 757.858 7.39681C760.532 10.9344 763.841 15.4616 767.124 20.3722C767.124 20.3722 767.137 20.3969 767.149 20.4216C773.778 30.3047 780.246 41.672 781.167 49.3657L781.167 49.3286Z" fill="#FF8A16"/>
<path d="M781.167 49.3286C781.167 49.3286 767.298 55.3401 753.094 55.8225C752.609 55.8349 752.137 55.8472 751.652 55.8472C737.833 55.8472 723.007 49.3286 723.007 49.3286C723.405 46.026 724.823 42.0431 726.838 37.8005C731.851 27.2371 740.557 15.0039 746.316 7.38443C751.366 9.69748 754.873 8.86876 756.614 8.10187C756.739 8.05239 756.863 7.99054 756.963 7.94106C757.56 7.6442 757.858 7.39681 757.858 7.39681C760.532 10.9344 763.841 15.4616 767.124 20.3722C767.124 20.3722 767.137 20.3969 767.149 20.4216C773.778 30.3047 780.246 41.672 781.167 49.3657L781.167 49.3286Z" fill="url(#paint8_radial_1229_641)"/>
<path d="M733.667 69.6514L751.589 69.6514L751.589 78.3964L734.811 78.3964L733.667 69.6514Z" fill="#273E5E"/>
<path d="M771.428 69.6514L770.284 78.3964L753.07 78.3964L753.07 69.6514L771.428 69.6514Z" fill="#273E5E"/>
<path d="M724.189 132.314L707.709 164.437L725.134 139.031L724.189 132.314Z" fill="#EFF4F8"/>
<path d="M779.003 132.314L795.06 162.792L778.281 136.272L779.003 132.314Z" fill="#EFF4F8"/>
<path d="M707.709 168.234L703.617 196.535L708.778 174.172L707.709 168.234Z" fill="#EFF4F8"/>
<path d="M796.614 166.997L801.042 199.219L796.391 176.707L796.614 166.997Z" fill="#EFF4F8"/>
<path d="M756.614 8.08949C753.729 11.0086 747.236 10.7613 747.236 10.7613C741.838 15.4987 727.286 37.0954 726.851 37.7881C731.863 27.2248 740.569 14.9916 746.328 7.37209C751.378 9.68514 754.885 8.85639 756.627 8.08949L756.614 8.08949Z" fill="white"/>
<path d="M756.963 7.91634C756.851 7.96582 756.739 8.02767 756.614 8.07715C754.873 8.84405 751.366 9.6728 746.316 7.35975L747.995 5.17037C747.995 5.17037 750.532 8.89352 756.963 7.91634Z" fill="#273E5E"/>
<path d="M781.167 49.3286C781.167 49.3286 767.299 55.3401 753.095 55.8225C752.61 55.8349 752.137 55.8472 751.652 55.8472C770.806 52.9157 777.46 46.7682 777.46 46.7682C777.597 41.1525 767.746 21.5967 767.137 20.3845C773.766 30.2676 780.234 41.6349 781.154 49.3286L781.167 49.3286Z" fill="#273E5E"/>
<path d="M754.91 127.379C754.91 126.921 754.537 126.55 754.077 126.55C753.617 126.55 753.244 126.921 753.244 127.379C753.244 127.836 753.617 128.207 754.077 128.207C754.537 128.207 754.91 127.836 754.91 127.379Z" fill="#273E5E"/>
<path d="M754.91 132.079C754.91 131.621 754.537 131.25 754.077 131.25C753.617 131.25 753.244 131.621 753.244 132.079C753.244 132.537 753.617 132.908 754.077 132.908C754.537 132.908 754.91 132.537 754.91 132.079Z" fill="#273E5E"/>
<path d="M754.91 136.779C754.91 136.322 754.537 135.951 754.077 135.951C753.617 135.951 753.244 136.322 753.244 136.779C753.244 137.237 753.617 137.608 754.077 137.608C754.537 137.608 754.91 137.237 754.91 136.779Z" fill="#273E5E"/>
<path d="M734.811 78.3965L770.284 78.3965L773.144 82.7381L734.811 78.3965Z" fill="url(#paint9_linear_1229_641)"/>
<path d="M734.811 120.18L765.11 118.522L759.637 168.234L758.841 121.874L734.811 120.18Z" fill="url(#paint10_linear_1229_641)"/>
<path d="M723.629 120.18L759.637 120.18L759.637 185.019L757.274 122.542L723.629 120.18Z" fill="#273E5E"/>
<path d="M767.323 53.7816C767.323 53.7816 781.217 74.7104 780.906 99.9066C780.906 99.9066 781.726 52.322 781.154 49.3286L767.311 53.7692L767.323 53.7816Z" fill="url(#paint11_linear_1229_641)"/>
</g>
<defs>
<linearGradient id="paint0_linear_1229_641" x1="771" y1="360.5" x2="771.281" y2="707.273" gradientUnits="userSpaceOnUse">
<stop stop-color="#FF8B2B" stop-opacity="0.64"/>
<stop offset="1" stop-color="#3C71FB" stop-opacity="0"/>
</linearGradient>
<linearGradient id="paint1_linear_1229_641" x1="751.925" y1="349.605" x2="751.925" y2="198.811" gradientUnits="userSpaceOnUse">
<stop stop-color="#FF8A16" stop-opacity="0.8"/>
<stop offset="0.3" stop-color="#FF7E1A" stop-opacity="0.84"/>
<stop offset="0.81" stop-color="#FF5E25" stop-opacity="0.95"/>
<stop offset="1" stop-color="#FF512A"/>
</linearGradient>
<linearGradient id="paint2_linear_1229_641" x1="785.669" y1="344.509" x2="785.669" y2="297.877" gradientUnits="userSpaceOnUse">
<stop stop-color="#FFB566"/>
<stop offset="0.14" stop-color="#FFAE5B"/>
<stop offset="0.37" stop-color="#FF9D3F"/>
<stop offset="0.41" stop-color="#FF9B3B"/>
<stop offset="0.96" stop-color="#FF562B"/>
<stop offset="1" stop-color="#FF512A"/>
</linearGradient>
<linearGradient id="paint3_linear_1229_641" x1="712.535" y1="351.25" x2="712.535" y2="321.106" gradientUnits="userSpaceOnUse">
<stop stop-color="#FF8A16" stop-opacity="0.8"/>
<stop offset="0.3" stop-color="#FF7E1A" stop-opacity="0.84"/>
<stop offset="0.81" stop-color="#FF5E25" stop-opacity="0.95"/>
<stop offset="1" stop-color="#FF512A"/>
</linearGradient>
<linearGradient id="paint4_linear_1229_641" x1="752.92" y1="299.93" x2="755.922" y2="190.263" gradientUnits="userSpaceOnUse">
<stop stop-color="#FFB566"/>
<stop offset="0.14" stop-color="#FFAE5B"/>
<stop offset="0.37" stop-color="#FF9D3F"/>
<stop offset="0.41" stop-color="#FF9B3B"/>
<stop offset="0.96" stop-color="#FF562B"/>
<stop offset="1" stop-color="#FF512A"/>
</linearGradient>
<linearGradient id="paint5_linear_1229_641" x1="714.873" y1="198.465" x2="715.562" y2="223.538" gradientUnits="userSpaceOnUse">
<stop stop-color="#182F45" stop-opacity="0"/>
<stop offset="1" stop-color="#1B293D"/>
</linearGradient>
<linearGradient id="paint6_linear_1229_641" x1="774.997" y1="171.624" x2="801.025" y2="184.254" gradientUnits="userSpaceOnUse">
<stop stop-color="#182F45" stop-opacity="0"/>
<stop offset="1" stop-color="#1B293D"/>
</linearGradient>
<linearGradient id="paint7_linear_1229_641" x1="763.829" y1="142.432" x2="812.022" y2="178.248" gradientUnits="userSpaceOnUse">
<stop stop-color="#182F45" stop-opacity="0"/>
<stop offset="1" stop-color="#1B293D"/>
</linearGradient>
<radialGradient id="paint8_radial_1229_641" cx="0" cy="0" r="1" gradientUnits="userSpaceOnUse" gradientTransform="translate(778.455 51.7901) scale(44.5647 44.3191)">
<stop stop-color="#EE5300"/>
<stop offset="1" stop-color="#FF8000" stop-opacity="0"/>
</radialGradient>
<linearGradient id="paint9_linear_1229_641" x1="754.04" y1="82.6763" x2="753.732" y2="72.9662" gradientUnits="userSpaceOnUse">
<stop stop-color="#182F45" stop-opacity="0"/>
<stop offset="1" stop-color="#1B293D"/>
</linearGradient>
<linearGradient id="paint10_linear_1229_641" x1="764.873" y1="143.533" x2="733.842" y2="141.595" gradientUnits="userSpaceOnUse">
<stop stop-color="#182F45" stop-opacity="0"/>
<stop offset="1" stop-color="#1B293D"/>
</linearGradient>
<linearGradient id="paint11_linear_1229_641" x1="776.291" y1="76.0957" x2="793.758" y2="70.0745" gradientUnits="userSpaceOnUse">
<stop stop-color="#182F45" stop-opacity="0"/>
<stop offset="1" stop-color="#1B293D"/>
</linearGradient>
<clipPath id="clip0_1229_641">
<rect width="369" height="110" fill="white" transform="translate(697 369) rotate(-90)"/>
</clipPath>
</defs>
</svg>
