<svg width="1546" height="756" viewBox="-21 0 1546 756" fill="none" xmlns="http://www.w3.org/2000/svg">
<path d="M594 517C723.68 483.786 739.94 247.433 737.5 173.5L766.5 185.5C764.623 248.362 790.84 446.419 871.5 500C1011.5 593 1076.03 412 1265 412C1446 412 1469.98 716.031 1546 756L7.12569 743.06C4.83262 743.696 2.46453 743.696 0 743L7.12569 743.06C53.035 730.324 68.8731 462.692 226.5 426.5C438.63 377.794 457.726 551.902 594 517Z" fill="url(#paint0_linear_1472_781)"/>
<g clip-path="url(#clip0_1472_781)">
<path d="M737.943 147.306C737.943 147.306 719.526 158.936 719.84 191.076C719.84 191.076 726.944 189.947 729.537 181.865C729.537 181.865 710.959 202.175 721.863 233.044C721.863 233.044 726.716 208.892 736.328 214.489C744.088 219.014 727.248 244.001 736.48 259.768C745.703 275.553 744.088 283 744.088 283C744.088 283 754.431 263.6 763.169 250.357C771.898 237.114 766.361 208.133 767.529 202.337C769.637 191.892 776.001 195.108 778.48 208.199C780.959 221.291 783.628 224.383 783.628 224.383C783.628 224.383 784.046 206.786 787.674 197.887C791.302 188.989 783.884 146.642 772.069 145.361C760.253 144.08 737.933 147.315 737.933 147.315L737.943 147.306Z" fill="#FF512A"/>
<path d="M747.641 152.476C747.641 152.476 724.029 156.678 723.582 188.439C723.582 188.439 728.464 179.266 731.418 179.882C734.372 180.499 714.293 202.621 721.331 228.671C721.331 228.671 722.775 207.232 736.661 210.865C750.547 214.508 727.78 244.191 744.668 268.135C744.668 268.135 770.474 248.773 764.461 216.775C761.251 199.709 769.961 190.289 772.221 189.966C774.482 189.644 784.341 203.845 781.653 216.443C781.653 216.443 787.048 198.068 781.653 177.549C776.429 157.665 774.482 152.495 774.482 152.495L747.641 152.495L747.641 152.476Z" fill="url(#paint1_linear_1472_781)"/>
<path d="M773.532 228.453C773.532 228.453 769.058 240.188 774.909 249.247C780.76 258.307 780.541 264.226 780.541 264.226C780.541 264.226 786.497 243.859 781.577 236.222C776.666 228.586 773.532 228.462 773.532 228.462L773.532 228.453Z" fill="url(#paint2_linear_1472_781)"/>
<path d="M724.627 246.268C724.627 246.268 717.836 249.608 717.656 257.975C717.475 266.351 717.627 269.387 717.627 269.387C717.627 269.387 730.487 255.233 724.627 246.259L724.627 246.268Z" fill="url(#paint3_linear_1472_781)"/>
<path d="M746.349 157.001C746.349 157.001 735.312 170.785 735.331 184.407C735.35 198.03 729.642 202.479 729.642 202.479C729.642 202.479 739.235 204.168 739.88 190.27C740.526 176.382 749.264 202.28 746.349 212.743C743.433 223.207 749.587 237.105 748.609 242.275C748.609 242.275 748.875 225.559 752.95 217.117C757.024 208.674 754.393 189.094 762.011 185.157C769.628 181.22 777.711 186.675 777.711 186.675C777.711 186.675 766.997 171.126 768.963 166.317C770.929 161.507 762.846 155.047 762.846 155.047L746.349 156.982L746.349 157.001Z" fill="url(#paint4_linear_1472_781)"/>
<path d="M730.496 98.8868C730.496 98.8868 716.895 124.5 716.373 127.64C715.85 130.78 708.518 180.793 710.266 180.793C712.013 180.793 735.91 155.701 736.442 152.39C736.964 149.08 730.506 98.8868 730.506 98.8868L730.496 98.8868Z" fill="#FF8A16"/>
<path d="M730.497 98.8868C730.497 98.8868 718.691 128.228 718.168 131.368C717.646 134.508 711.054 176.941 712.802 176.941C714.549 176.941 734.771 152.903 735.293 149.592C735.815 146.281 730.497 98.8868 730.497 98.8868Z" fill="url(#paint5_linear_1472_781)"/>
<path d="M773.493 98.8868C773.493 98.8868 787.095 124.5 787.617 127.64C788.139 130.78 795.472 180.793 793.724 180.793C791.976 180.793 768.08 155.701 767.548 152.39C767.016 149.08 773.484 98.8868 773.484 98.8868L773.493 98.8868Z" fill="#FF8A16"/>
<path d="M773.788 98.8868C773.788 98.8868 785.594 128.228 786.116 131.368C786.639 134.508 793.23 176.951 791.492 176.951C789.754 176.951 769.523 152.912 769.001 149.601C768.479 146.291 773.797 98.8963 773.797 98.8963L773.788 98.8868Z" fill="url(#paint6_linear_1472_781)"/>
<path d="M773.703 95.9176C773.18 117.85 772.553 138.142 772.345 140.77C771.3 153.927 764.138 159.904 752.817 159.904C741.495 159.904 733.203 154.44 732.197 145.247C732.054 143.919 731.912 142.43 731.779 140.76C731.323 135.04 728.91 45.886 729.86 37.8225C730.905 28.9811 741.495 13.8313 747.659 5.64445C750.252 2.21035 752.066 -0.00947386 752.066 -0.00947386C752.066 -0.00947386 753.88 2.20086 756.464 5.64445C762.628 13.8313 773.218 28.9906 774.263 37.8225C774.776 42.1768 774.311 70.1713 773.693 95.9081L773.703 95.9176Z" fill="#EFF4F8"/>
<path d="M773.702 95.9176C773.18 117.85 772.553 138.142 772.344 140.77C771.299 153.927 765.107 159.904 752.816 159.904C740.526 159.904 733.203 154.44 732.196 145.247C735.825 145.968 750.233 145.684 757.67 135.021C770.093 117.224 774.491 55.5527 774.491 55.5527C774.614 55.5811 773.588 95.8512 773.702 95.8986L773.702 95.9176Z" fill="url(#paint7_linear_1472_781)"/>
<path d="M774.273 37.832C774.273 37.832 763.683 42.4424 752.836 42.8124C752.466 42.8219 752.105 42.8313 751.734 42.8313C741.182 42.8313 729.86 37.832 729.86 37.832C730.164 35.2991 731.247 32.2444 732.786 28.9906C736.613 20.8892 743.262 11.5071 747.66 5.6634C751.516 7.43736 754.194 6.80179 755.524 6.21363C755.619 6.17568 755.714 6.12824 755.79 6.0903C756.246 5.86262 756.474 5.67289 756.474 5.67289C758.516 8.38602 761.042 11.8581 763.55 15.6242C763.55 15.6242 763.559 15.6432 763.569 15.6621C768.631 23.2418 773.57 31.9599 774.273 37.8604L774.273 37.832Z" fill="#FF8A16"/>
<path d="M774.273 37.832C774.273 37.832 763.683 42.4424 752.836 42.8124C752.466 42.8219 752.105 42.8313 751.734 42.8313C741.182 42.8313 729.86 37.832 729.86 37.832C730.164 35.2991 731.247 32.2444 732.786 28.9906C736.613 20.8892 743.262 11.5071 747.66 5.6634C751.516 7.43736 754.194 6.80179 755.524 6.21363C755.619 6.17568 755.714 6.12824 755.79 6.0903C756.246 5.86262 756.474 5.67289 756.474 5.67289C758.516 8.38602 761.042 11.8581 763.55 15.6242C763.55 15.6242 763.559 15.6432 763.569 15.6621C768.631 23.2418 773.57 31.9599 774.273 37.8604L774.273 37.832Z" fill="url(#paint8_radial_1472_781)"/>
<path d="M738 53.4183L751.687 53.4183L751.687 60.1252L738.874 60.1252L738 53.4183Z" fill="#273E5E"/>
<path d="M766.835 53.4183L765.962 60.1252L752.816 60.1252L752.816 53.4183L766.835 53.4183Z" fill="#273E5E"/>
<path d="M730.763 101.477L718.178 126.113L731.484 106.628L730.763 101.477Z" fill="#EFF4F8"/>
<path d="M772.62 101.477L784.882 124.851L772.069 104.512L772.62 101.477Z" fill="#EFF4F8"/>
<path d="M718.178 129.025L715.053 150.73L718.994 133.579L718.178 129.025Z" fill="#EFF4F8"/>
<path d="M786.069 128.077L789.451 152.789L785.898 135.524L786.069 128.077Z" fill="#EFF4F8"/>
<path d="M755.524 6.20415C753.32 8.44295 748.362 8.25322 748.362 8.25322C744.24 11.8865 733.127 28.4499 732.795 28.9811C736.623 20.8797 743.271 11.4976 747.669 5.65394C751.525 7.42791 754.203 6.79231 755.533 6.20415L755.524 6.20415Z" fill="white"/>
<path d="M755.789 6.07135C755.704 6.1093 755.618 6.15673 755.523 6.19468C754.194 6.78284 751.515 7.41844 747.659 5.64448L748.941 3.96536C748.941 3.96536 750.879 6.82078 755.789 6.07135Z" fill="#273E5E"/>
<path d="M774.273 37.832C774.273 37.832 763.683 42.4424 752.836 42.8124C752.466 42.8219 752.105 42.8313 751.734 42.8313C766.361 40.5831 771.443 35.8683 771.443 35.8683C771.547 31.5614 764.025 16.5633 763.559 15.6337C768.622 23.2133 773.561 31.9314 774.264 37.832L774.273 37.832Z" fill="#273E5E"/>
<path d="M754.223 97.6915C754.223 97.3405 753.938 97.056 753.587 97.056C753.235 97.056 752.95 97.3405 752.95 97.6915C752.95 98.0426 753.235 98.3271 753.587 98.3271C753.938 98.3271 754.223 98.0426 754.223 97.6915Z" fill="#273E5E"/>
<path d="M754.223 101.296C754.223 100.945 753.938 100.661 753.587 100.661C753.235 100.661 752.95 100.945 752.95 101.296C752.95 101.647 753.235 101.932 753.587 101.932C753.938 101.932 754.223 101.647 754.223 101.296Z" fill="#273E5E"/>
<path d="M754.223 104.901C754.223 104.55 753.938 104.266 753.587 104.266C753.235 104.266 752.95 104.55 752.95 104.901C752.95 105.252 753.235 105.537 753.587 105.537C753.938 105.537 754.223 105.252 754.223 104.901Z" fill="#273E5E"/>
<path d="M738.874 60.1252L765.962 60.1252L768.147 63.455L738.874 60.1252Z" fill="url(#paint9_linear_1472_781)"/>
<path d="M738.874 92.1704L762.011 90.8992L757.832 129.025L757.224 93.4701L738.874 92.1704Z" fill="url(#paint10_linear_1472_781)"/>
<path d="M730.335 92.1704L757.832 92.1704L757.832 141.898L756.027 93.9823L730.335 92.1704Z" fill="#273E5E"/>
<path d="M763.702 41.2471C763.702 41.2471 774.311 57.2982 774.074 76.6221C774.074 76.6221 774.701 40.1277 774.264 37.832L763.692 41.2376L763.702 41.2471Z" fill="url(#paint11_linear_1472_781)"/>
</g>
<defs>
<linearGradient id="paint0_linear_1472_781" x1="771" y1="317.5" x2="771.281" y2="664.273" gradientUnits="userSpaceOnUse">
<stop stop-color="#FF8B2B" stop-opacity="0.64"/>
<stop offset="1" stop-color="#3C71FB" stop-opacity="0"/>
</linearGradient>
<linearGradient id="paint1_linear_1472_781" x1="751.943" y1="268.125" x2="751.943" y2="152.476" gradientUnits="userSpaceOnUse">
<stop stop-color="#FF8A16" stop-opacity="0.8"/>
<stop offset="0.3" stop-color="#FF7E1A" stop-opacity="0.84"/>
<stop offset="0.81" stop-color="#FF5E25" stop-opacity="0.95"/>
<stop offset="1" stop-color="#FF512A"/>
</linearGradient>
<linearGradient id="paint2_linear_1472_781" x1="777.711" y1="264.217" x2="777.711" y2="228.453" gradientUnits="userSpaceOnUse">
<stop stop-color="#FFB566"/>
<stop offset="0.14" stop-color="#FFAE5B"/>
<stop offset="0.37" stop-color="#FF9D3F"/>
<stop offset="0.41" stop-color="#FF9B3B"/>
<stop offset="0.96" stop-color="#FF562B"/>
<stop offset="1" stop-color="#FF512A"/>
</linearGradient>
<linearGradient id="paint3_linear_1472_781" x1="721.863" y1="269.387" x2="721.863" y2="246.268" gradientUnits="userSpaceOnUse">
<stop stop-color="#FF8A16" stop-opacity="0.8"/>
<stop offset="0.3" stop-color="#FF7E1A" stop-opacity="0.84"/>
<stop offset="0.81" stop-color="#FF5E25" stop-opacity="0.95"/>
<stop offset="1" stop-color="#FF512A"/>
</linearGradient>
<linearGradient id="paint4_linear_1472_781" x1="752.703" y1="230.028" x2="755.015" y2="145.921" gradientUnits="userSpaceOnUse">
<stop stop-color="#FFB566"/>
<stop offset="0.14" stop-color="#FFAE5B"/>
<stop offset="0.37" stop-color="#FF9D3F"/>
<stop offset="0.41" stop-color="#FF9B3B"/>
<stop offset="0.96" stop-color="#FF562B"/>
<stop offset="1" stop-color="#FF512A"/>
</linearGradient>
<linearGradient id="paint5_linear_1472_781" x1="723.649" y1="152.21" x2="724.179" y2="171.439" gradientUnits="userSpaceOnUse">
<stop stop-color="#182F45" stop-opacity="0"/>
<stop offset="1" stop-color="#1B293D"/>
</linearGradient>
<linearGradient id="paint6_linear_1472_781" x1="769.561" y1="131.625" x2="789.469" y2="141.244" gradientUnits="userSpaceOnUse">
<stop stop-color="#182F45" stop-opacity="0"/>
<stop offset="1" stop-color="#1B293D"/>
</linearGradient>
<linearGradient id="paint7_linear_1472_781" x1="761.032" y1="109.237" x2="797.948" y2="136.553" gradientUnits="userSpaceOnUse">
<stop stop-color="#182F45" stop-opacity="0"/>
<stop offset="1" stop-color="#1B293D"/>
</linearGradient>
<radialGradient id="paint8_radial_1472_781" cx="0" cy="0" r="1" gradientUnits="userSpaceOnUse" gradientTransform="translate(772.202 39.7198) scale(34.0312 33.99)">
<stop stop-color="#EE5300"/>
<stop offset="1" stop-color="#FF8000" stop-opacity="0"/>
</radialGradient>
<linearGradient id="paint9_linear_1472_781" x1="753.558" y1="63.4075" x2="753.321" y2="55.9606" gradientUnits="userSpaceOnUse">
<stop stop-color="#182F45" stop-opacity="0"/>
<stop offset="1" stop-color="#1B293D"/>
</linearGradient>
<linearGradient id="paint10_linear_1472_781" x1="761.831" y1="110.081" x2="738.133" y2="108.607" gradientUnits="userSpaceOnUse">
<stop stop-color="#182F45" stop-opacity="0"/>
<stop offset="1" stop-color="#1B293D"/>
</linearGradient>
<linearGradient id="paint11_linear_1472_781" x1="770.55" y1="58.3607" x2="783.901" y2="53.7783" gradientUnits="userSpaceOnUse">
<stop stop-color="#182F45" stop-opacity="0"/>
<stop offset="1" stop-color="#1B293D"/>
</linearGradient>
<clipPath id="clip0_1472_781">
<rect width="283" height="84" fill="white" transform="translate(710 283) rotate(-90)"/>
</clipPath>
</defs>
</svg>
