<svg width="1146" height="708" viewBox="0 0 1146 708" fill="none" xmlns="http://www.w3.org/2000/svg">
<path d="M737.5 197L738.777 207.223L749 208.5L738.777 209.777L737.5 220L736.223 209.777L726 208.5L736.223 207.223L737.5 197Z" fill="#06A5FF"/>
<path d="M182.5 5L183.777 15.2233L194 16.5L183.777 17.7767L182.5 28L181.223 17.7767L171 16.5L181.223 15.2233L182.5 5Z" fill="white"/>
<path d="M1129.5 0L1131.33 14.6682L1146 16.5L1131.33 18.3318L1129.5 33L1127.67 18.3318L1113 16.5L1127.67 14.6682L1129.5 0Z" fill="white"/>
<path d="M1099.5 575L1101 587.001L1113 588.5L1101 589.999L1099.5 602L1098 589.999L1086 588.5L1098 587.001L1099.5 575Z" fill="#06A5FF"/>
<path d="M230.5 685L231.777 695.223L242 696.5L231.777 697.777L230.5 708L229.223 697.777L219 696.5L229.223 695.223L230.5 685Z" fill="white"/>
<path d="M12.5 386L13.8877 397.112L25 398.5L13.8877 399.888L12.5 411L11.1123 399.888L0 398.5L11.1123 397.112L12.5 386Z" fill="#06A5FF"/>
</svg>
