<svg width="319" height="88" viewBox="0 0 319 88" fill="none" xmlns="http://www.w3.org/2000/svg">
<path d="M277.211 60.5177L291.41 66.0854C295.318 56.1184 311.779 60.6204 317.678 45.5758C322.029 34.4804 314.721 24.3458 300.616 18.8149C287.922 13.8371 277.166 15.2606 269.065 20.9799L277.825 32.1175C282.53 28.9721 288.17 28.146 294.188 30.5058C300.299 32.9025 303.2 37.403 301.393 42.0104C298.185 50.1909 282.374 47.3537 277.211 60.5177ZM275.103 86.9213C280.368 88.9861 285.641 86.6058 287.485 81.9044C289.365 77.1089 287.005 72.0609 281.74 69.9961C276.474 67.9312 271.312 70.0294 269.431 74.8249C267.588 79.5263 269.837 84.8564 275.103 86.9213Z" fill="#FB923C"/>
<path d="M17.9994 28.6377L26.598 26.3065C24.9615 20.2704 34.2503 16.6518 31.7802 7.54071C29.9584 0.821277 23.0018 -1.3884 14.4602 0.927359C6.77271 3.01154 2.22274 7.42385 0.413696 12.927L8.40008 15.102C9.51214 11.9885 11.8701 9.63757 15.5146 8.64952C19.216 7.64602 22.1432 8.74745 22.8996 11.5377C24.2428 16.4919 15.838 20.6655 17.9994 28.6377ZM26.2022 41.7575C29.3911 40.8929 31.0359 37.9407 30.264 35.0934C29.4766 32.1893 26.6122 30.6429 23.4233 31.5075C20.2344 32.372 18.5433 35.1534 19.3307 38.0576C20.1026 40.9048 23.0133 42.622 26.2022 41.7575Z" fill="#FDBA74"/>
</svg>
