<?xml version="1.0" encoding="UTF-8"?><svg id="Layer_2" xmlns="http://www.w3.org/2000/svg" xmlns:xlink="http://www.w3.org/1999/xlink" viewBox="0 0 375 812"><defs><style>.cls-1{fill:none;}.cls-2{clip-path:url(#clippath);}.cls-3{fill:#fb7200;}.cls-4{fill:#fb923c;}.cls-5{fill:#fff;}.cls-6{fill:#fed7aa;}.cls-7{fill:#b6e5ff;}.cls-8{fill:#d0eeff;}.cls-9{fill:#1e293b;}.cls-10{fill:#0f172a;}.cls-11{fill:#258ac2;}</style><clipPath id="clippath"><rect class="cls-1" width="375" height="812"/></clipPath></defs><g id="Layer_1-2"><g class="cls-2"><g><path class="cls-7" d="M218.47,727.7c8.25,1.06,22.49-.44,28.59-1.32,12.53-1.32,16.62,5.29,10.97,5.29s-33.58,.22-48.2,0c-14.63-.22-15.62-2.87-8.31-2.43,7.31,.44,6.65-2.87,16.95-1.54Z"/><path class="cls-11" d="M199.02,740.94l.78-5.59,1.29,4.79,1.44-6.73,1,6.37,1.51-5,.83,6.15h-6.87v.02h0Z"/><path class="cls-5" d="M181.69,789.73l.75-5.37,1.24,4.61,1.39-6.45,.94,6.09,1.45-4.79,.78,5.91h-6.54Z"/><path class="cls-5" d="M207.2,741.26l.6-4.39,.99,3.77,1.11-5.28,.75,4.98,1.16-3.92,.63,4.83h-5.23Z"/><g><path class="cls-5" d="M258.6,700.34l.69-4.43,1.12,3.81,1.26-5.33,.85,5.03,1.32-3.96,.71,4.88h-5.96Z"/><path class="cls-6" d="M231.51,695.77l-10.28-.4-8.54-.32v-5.16c-1.47,1.11-3.49,.56-4.8-.76-5.16-5.16,3.06-23.82,3.06-23.82,.99-2.38,2.22-3.93,6.43-3.65,6,.4,13.58,3.41,12.9,7.31-.95,5.4-.44,13.26,.2,19.06,.48,4.49,1.03,7.74,1.03,7.74h0Z"/><path class="cls-9" d="M231.83,696.29l-.36-.32-18.94-.75v-5c-1.55,.91-3.53,.24-4.73-.95-2.18-2.18-2.34-6.91-.48-14.02,1.39-5.28,3.46-9.97,3.46-10.01,1.11-2.66,2.5-4.05,6.63-3.77,4.37,.28,10.13,2.07,12.27,4.81,.68,.87,.95,1.79,.79,2.7-.95,5.4-.44,13.3,.2,19.02,.48,4.41,1.03,7.7,1.03,7.74l.12,.56Zm-18.9-1.43l18.39,.71c-.12-.83-.6-3.77-.99-7.51-.64-5.72-1.15-13.66-.2-19.14,.16-.79-.08-1.63-.71-2.38-2.07-2.66-7.74-4.37-11.99-4.65-3.93-.28-5.16,.99-6.23,3.53-.08,.2-8.1,18.58-3.1,23.59,1.19,1.15,3.1,1.79,4.53,.71l.32-.24v5.36h0Z"/><path class="cls-6" d="M215.79,671.87s-3.1-2.42-2.46,3.85c.36,3.49,2.46,3.53,2.46,3.53"/><path class="cls-9" d="M215.79,679.45c-.08,0-2.3-.04-2.66-3.69-.24-2.46,.04-3.93,.87-4.41,.83-.48,1.87,.32,1.91,.36l-.24,.32s-.87-.68-1.47-.32c-.48,.24-.95,1.15-.68,4.01,.32,3.26,2.18,3.33,2.26,3.33v.4h0Z"/><path class="cls-9" d="M231.51,695.77l-10.28-.4,9.25-7.35c.48,4.49,1.03,7.74,1.03,7.74Z"/><path class="cls-6" d="M215.11,672.94s-1.03-.72-1.03,1.75l1.03-1.75Z"/><path class="cls-9" d="M214.24,674.69h-.4c0-1.11,.2-1.75,.64-1.94,.28-.16,.6-.04,.75,.04l-.24,.32,.12-.16-.12,.16s-.2-.12-.32-.04c-.16,.08-.44,.36-.44,1.63h0Z"/><path class="cls-3" d="M293.28,737.27c-.64-.91-27.84-31.61-36.69-38.56-1.63-1.27-2.02-2.03-4.61-2.78-2.22-.63-24.46-2.22-24.46-2.22h-14.81s-22.24,1.55-24.46,2.22c-2.58,.76-2.94,1.47-4.61,2.78-8.9,6.95-35.34,39.87-35.98,40.78-.75,1.11-3.34,4.61,0,9.49,3.34,4.88,30.97,24.82,30.97,24.82l10.33,7.11h66.63s7.7-6.59,16.2-14.02c5.64-4.96,11.64-10.28,15.88-14.29,2.86-2.7,4.92-4.8,5.6-5.84,3.33-4.88,.75-8.38,0-9.49Zm-104.27,9.21l-9.57-5.16,9.57-11.79v16.96Zm66,0l-.36-14.37,9.57,7.39-9.21,6.99Z"/><path class="cls-9" d="M188.39,780.75l-5.16,41.89h35.94l2.38-25.37,3.26,25.37h33.75l-3.53-41.89h-66.63Z"/><path class="cls-10" d="M287.07,752.44c-4.25,4.05-10.24,9.37-15.88,14.29l-2.74-11.44,18.62-2.86Z"/><path class="cls-4" d="M197.09,694.86s29.62-3.02,42.45,0c12.83,3.02,20.25,19.74,21.36,33.95,1.11,14.22,22.08,29.7,13.26,42.33-8.86,12.63-42.41,14.1-53.88,11.63-11.44-2.46-23.19-87.91-23.19-87.91h0Z"/><path class="cls-9" d="M197.09,694.86s23.82,20.13,24.1,41.73c.28,21.6,16.04,45.03,5.64,46.22-15.73,1.87-31.41-2.9-31.41-2.9l1.67-85.06h0Z"/><path d="M223.97,734.09c-.12,0-.2-.08-.2-.2s.08-.2,.2-.2l35.34-1.27c.12,0,.2,.08,.2,.2s-.08,.2-.2,.2l-35.34,1.27Z"/><path class="cls-9" d="M227.07,730.87s1.51,9.85,3.3,11.79l6.35-1.43s-1.99-5.48-2.94-11.79l-6.71,1.43Z"/><path class="cls-9" d="M250.41,726.15s1.51,9.85,3.3,11.79l4.76-.79s-1.99-5.48-2.94-11.79l-5.12,.79Z"/><path class="cls-9" d="M265.35,754.1h-30.93v3.73h30.93v-3.73Z"/><path class="cls-8" d="M203.2,752.36s-1.63-11.63,7.07-11.63,7.54,11.63,7.54,11.63h-14.61Z"/><path d="M217.97,752.55h-14.97l-.04-.16c-.04-.24-.83-6.35,2.1-9.73,1.23-1.43,2.98-2.14,5.16-2.14s3.97,.72,5.24,2.14c3.06,3.38,2.5,9.45,2.5,9.69v.2h0Zm-14.61-.4h14.26c.08-1.03,.28-6.27-2.42-9.21-1.23-1.35-2.9-2.02-4.96-2.02s-3.69,.68-4.84,2.02c-2.54,2.94-2.14,8.22-2.02,9.21h0Z"/><path class="cls-8" d="M220.2,750.61h-19.89v3.49h19.89v-3.49Z"/><path d="M220.4,754.3h-20.29v-3.89h20.29v3.89Zm-19.89-.4h19.5v-3.1h-19.5v3.1Z"/><path class="cls-8" d="M211.9,736.71h-3.57c-.72,0-1.31,.6-1.31,1.31v1.83c0,.72,.6,1.31,1.31,1.31h3.57c.71,0,1.31-.6,1.31-1.31v-1.83c-.04-.71-.6-1.31-1.31-1.31Z"/><path d="M211.9,741.36h-3.57c-.83,0-1.51-.67-1.51-1.51v-1.83c0-.83,.68-1.51,1.51-1.51h3.57c.83,0,1.51,.68,1.51,1.51v1.83c-.04,.83-.72,1.51-1.51,1.51Zm-3.61-4.45c-.6,0-1.11,.48-1.11,1.11v1.83c0,.6,.48,1.11,1.11,1.11h3.57c.6,0,1.11-.48,1.11-1.11v-1.83c0-.6-.48-1.11-1.11-1.11h-3.57Z"/><path class="cls-9" d="M188.39,736.08s1.95,4.33,7.78,5.08l-.24,12.94-7.54-7.78s-1.11-5.36,0-10.24Z"/><path class="cls-10" d="M229.85,681.56l-12.91-.36s2.94-7.74,0-10.68c-2.94-2.94-6.43-1.51-6-5.2,.48-3.69,1.95-9.77,12.99-4.81,11.08,5,10.32,14.53,5.92,21.05Z"/><path class="cls-9" d="M188.07,750.61h-.4v22.4h.4v-22.4Z"/><path class="cls-5" d="M175.45,708.64l-.32-.28c.28-.32,7.07-8.18,10.4-9.29l.12,.36c-3.22,1.11-10.12,9.13-10.2,9.21Z"/><path class="cls-5" d="M213.45,663.33l-.4-.08c0-.08,.4-2.03,2.03-2.94,1.03-.6,2.34-.63,3.85-.12l-.12,.36c-1.39-.48-2.58-.44-3.53,.08-1.43,.83-1.83,2.66-1.83,2.7h0Z"/></g></g></g></g></svg>