<?xml version="1.0" encoding="utf-8"?>
<!-- Generator: Adobe Illustrator 27.0.0, SVG Export Plug-In . SVG Version: 6.00 Build 0)  -->
<svg version="1.1" id="Layer_2_00000090267302776986048290000008546036185504917139_"
	 xmlns="http://www.w3.org/2000/svg" xmlns:xlink="http://www.w3.org/1999/xlink" x="0px" y="0px" viewBox="0 0 375 812"
	 style="enable-background:new 0 0 375 812;" xml:space="preserve">
<style type="text/css">
	.st0{clip-path:url(#SVGID_00000142867258031404806620000007817047553707031995_);}
	.st1{fill:#D0EEFF;}
	.st2{fill:#B6E5FF;}
	.st3{fill:#258AC2;}
	.st4{fill:#FFFFFF;}
</style>
<g id="Layer_1-2">
	<g>
		<defs>
			<rect id="SVGID_1_" width="375" height="812"/>
		</defs>
		<clipPath id="SVGID_00000030451075840066835760000012117706572656003214_">
			<use xlink:href="#SVGID_1_"  style="overflow:visible;"/>
		</clipPath>
		<g style="clip-path:url(#SVGID_00000030451075840066835760000012117706572656003214_);">
			<path class="st1" d="M-29.9,738.9c0,0,169.1-14.8,188.9-15.6c19.8-0.8,61.9,1.7,70.2,0s76-3.8,88.8-3.1
				c12.8,0.7,38.7,3.1,59.1,3.6s101.9-3.6,101.9-3.6l8.2,121.2l-511.6-2L-29.9,738.9L-29.9,738.9z"/>
			<path class="st2" d="M218.5,724.1c8.2,1.1,22.5-0.4,28.6-1.3c12.5-1.3,16.6,5.3,11,5.3s-33.6,0.2-48.2,0
				c-14.6-0.2-15.6-2.9-8.3-2.4S208.2,722.7,218.5,724.1z"/>
			<path class="st3" d="M65.2,733.2l0.8-5.7l1.3,4.9l1.5-6.9l1,6.5l1.5-5.1l0.8,6.3L65.2,733.2L65.2,733.2L65.2,733.2L65.2,733.2z"
				/>
			<path class="st3" d="M45,785.8l1-6.8l1.6,5.8l1.8-8.2l1.2,7.8l1.9-6.1l1,7.5L45,785.8L45,785.8L45,785.8L45,785.8z"/>
			<path class="st3" d="M119.9,755.7l1-7.1l1.6,6.1l1.8-8.6l1.3,8.1l1.9-6.4l1.1,7.8L119.9,755.7L119.9,755.7
				C119.9,755.7,119.9,755.7,119.9,755.7z"/>
			<path class="st3" d="M318.4,778l1-7.1l1.6,6.1l1.8-8.6l1.3,8.1l1.9-6.4l1,7.8L318.4,778L318.4,778L318.4,778z"/>
			<path class="st3" d="M335.1,723.5l0.5-3.4l0.8,2.9l0.9-4.1l0.6,3.9l0.9-3l0.5,3.7L335.1,723.5L335.1,723.5L335.1,723.5
				L335.1,723.5z"/>
			<path class="st3" d="M199,737.3l0.8-5.6l1.3,4.8l1.4-6.7l1,6.4l1.5-5l0.8,6.2L199,737.3L199,737.3L199,737.3L199,737.3z"/>
			<path class="st2" d="M96.7,760.4c-4.2,0.9-8.4,2.5-10,3.1c-4.1,1.5,53.5,0.8,56.4,0s-7.2-3.1-13.1-2.3c-5.9,0.8-18.3-3.3-21.4-3
				C105.5,758.6,101.9,759.3,96.7,760.4z"/>
			<path class="st2" d="M372.8,775.5c-4.2,0.9-8.4,2.5-10,3.1c-4.1,1.5,53.5,0.8,56.4,0s-7.2-3.1-13.1-2.3c-5.9,0.8-18.3-3.3-21.4-3
				C381.6,773.7,378,774.3,372.8,775.5z"/>
			<path class="st3" d="M36.8,724.2l-5.3,22.5h12.5L36.8,724.2L36.8,724.2L36.8,724.2z"/>
			<path class="st3" d="M38.8,743.5h-1.9v10h1.9V743.5z"/>
			<path class="st3" d="M133.1,735.7l-3.4,14.7h8.2L133.1,735.7L133.1,735.7z"/>
			<path class="st3" d="M134.4,748.3h-1.2v6.5h1.2V748.3z"/>
			<path class="st4" d="M73.1,732.6l0.6-4.4l1,3.8l1.1-5.3l0.8,5l1.2-3.9l0.6,4.8L73.1,732.6L73.1,732.6z"/>
			<path class="st4" d="M31.9,785.8l0.9-6.3l1.4,5.5l1.6-7.6l1.1,7.2l1.7-5.7l0.9,7C39.4,785.8,31.9,785.8,31.9,785.8z"/>
			<path class="st4" d="M131.3,757.9l0.8-5.4l1.2,4.6l1.4-6.5l0.9,6.1l1.4-4.8l0.8,5.9H131.3L131.3,757.9z"/>
			<path class="st4" d="M91.1,765.8l0.9-6.3l1.5,5.5l1.7-7.6l1.1,7.2l1.7-5.7l0.9,7H91.1L91.1,765.8z"/>
			<path class="st4" d="M329.5,780.8l0.8-5.4l1.2,4.6l1.4-6.5l0.9,6.1l1.5-4.8l0.8,5.9L329.5,780.8L329.5,780.8z"/>
			<path class="st4" d="M332.8,730.8l0.6-4.4l1,3.8l1.2-5.3l0.8,5l1.2-3.9l0.7,4.8L332.8,730.8L332.8,730.8z"/>
			<path class="st4" d="M341.3,719l0.6-4.4l1,3.8l1.2-5.3l0.8,5l1.2-3.9l0.7,4.8L341.3,719L341.3,719z"/>
			<path class="st4" d="M355.7,731.1l0.6-4.6l1,4l1.2-5.6l0.8,5.3l1.2-4.1l0.7,5.1L355.7,731.1L355.7,731.1z"/>
			<path class="st4" d="M207.2,737.6l0.6-4.4l1,3.8l1.1-5.3l0.8,5l1.2-3.9l0.6,4.8L207.2,737.6L207.2,737.6z"/>
			<path class="st4" d="M78.3,735.6l0.7-5.1l1.1,4.4l1.2-6.2l0.8,5.8l1.3-4.6l0.7,5.6L78.3,735.6L78.3,735.6z"/>
			<path class="st4" d="M39.4,790l1-7.6L42,789l1.8-9.1l1.2,8.6l1.9-6.8l1,8.3L39.4,790L39.4,790z"/>
		</g>
	</g>
</g>
</svg>
