<?xml version="1.0" encoding="utf-8"?>
<!-- Generator: Adobe Illustrator 27.0.0, SVG Export Plug-In . SVG Version: 6.00 Build 0)  -->
<svg version="1.1" id="Layer_2_00000051375408353237991820000003089816234675745430_"
	 xmlns="http://www.w3.org/2000/svg" xmlns:xlink="http://www.w3.org/1999/xlink" x="0px" y="0px" viewBox="0 0 375 812"
	 style="enable-background:new 0 0 375 812;" xml:space="preserve">
<style type="text/css">
	.st0{clip-path:url(#SVGID_00000051348170329068537030000000821070514171221938_);}
	.st1{fill:#D0EEFF;}
	.st2{fill:#EAF7FF;}
	.st3{fill:#B6E5FF;}
	.st4{fill:#258AC2;}
	.st5{fill:#FFFFFF;}
</style>
<g id="Layer_1-2">
	<g>
		<defs>
			<rect id="SVGID_1_" width="375" height="812"/>
		</defs>
		<clipPath id="SVGID_00000076604930731122457760000011577099752840561827_">
			<use xlink:href="#SVGID_1_"  style="overflow:visible;"/>
		</clipPath>
		<g style="clip-path:url(#SVGID_00000076604930731122457760000011577099752840561827_);">
			<g>
				<path class="st1" d="M488.2,833.8H36.8c0,0,160.4-147.9,167.1-153.8c6.6-5.8,7.2-2.5,10,0s9,11.7,12.1,10.5
					c3.1-1.2,42.5-32.9,44.9-31.9c2.4,1,9.3,9.7,13.8,6.9c4.5-2.8,100.1-70,100.1-70l15.8,25l52.7,83.6L488.2,833.8L488.2,833.8z"/>
				<path class="st2" d="M160.2,720.2c10.8-8.6,33.9-27.5,40.4-34.5c5.7-6.1,10.9-6.3,13.4-5.4c-2.9-5.3-6.7-3.9-8.2-2.5
					L160.2,720.2L160.2,720.2z"/>
				<path class="st3" d="M367.8,684.1c7.1,1.8,13.8-51.9,16.3-78.9l20,18.4V812H180.8c7.4,0,114.2-109.8,120.8-99.5
					c6.6,10.3,33.6-13.6,46.2-28.4S358.9,681.9,367.8,684.1L367.8,684.1z"/>
				<path class="st4" d="M327.1,653.1l-1.8,7.5h4.2L327.1,653.1L327.1,653.1z"/>
				<path class="st4" d="M327.6,659H327v3.3h0.6V659z"/>
				<path class="st4" d="M313.9,698.6l-2.2,9.5h5.3L313.9,698.6z"/>
				<path class="st4" d="M314.6,706h-0.8v4.2h0.8V706z"/>
				<path class="st4" d="M316.5,663.8l-1.9,8.2h4.5L316.5,663.8L316.5,663.8z"/>
				<path class="st4" d="M317.1,670.2h-0.7v3.6h0.7V670.2z"/>
				<path class="st4" d="M320.1,694.4l-2.5,10.8h6L320.1,694.4L320.1,694.4L320.1,694.4z"/>
				<path class="st4" d="M320.9,702.8H320v4.8h0.9V702.8z"/>
				<path class="st4" d="M265.3,680.8l-2.1,8.8h4.9L265.3,680.8z"/>
				<path class="st4" d="M266,687.6h-0.7v3.9h0.7V687.6z"/>
				<path class="st5" d="M322.6,657.2l-2,8.7h4.9L322.6,657.2L322.6,657.2z"/>
				<path class="st5" d="M323.3,665.9h-0.7v3.9h0.7V665.9z"/>
				<path class="st5" d="M325.7,688.5l-2,8.7h4.9L325.7,688.5L325.7,688.5z"/>
				<path class="st5" d="M326.4,697.3h-0.7v3.9h0.7V697.3z"/>
				<path class="st3" d="M385,595.2l-56.7,39.8c8.5,3.7,16.6-9.2,22.4-6.6c3.4,1.5,0,12.5,4.4,15.1c7.4,4.5,10.2-5.5,20-3.1
					c7.8,1.8,3.1,11.1,13.3,9c8.1-1.6,23.7,0.7,30.5,2L385,595.2L385,595.2z"/>
				<path class="st5" d="M268,689.3l0.6-4.1l1,3.5l1.2-5l0.8,4.7l1.2-3.7l0.7,4.5L268,689.3L268,689.3z"/>
				<path class="st5" d="M260.7,694.8l0.6-4.1l1,3.5l1.2-5l0.8,4.7l1.2-3.7l0.7,4.5L260.7,694.8L260.7,694.8z"/>
			</g>
		</g>
	</g>
</g>
</svg>
