<?xml version="1.0" encoding="UTF-8"?><svg id="Layer_2" xmlns="http://www.w3.org/2000/svg" xmlns:xlink="http://www.w3.org/1999/xlink" viewBox="0 0 375 812"><defs><style>.cls-1{fill:none;}.cls-2{clip-path:url(#clippath);}.cls-3{fill:#fb923c;}.cls-4{fill:#1e293b;}.cls-5{fill:#0f172a;}</style><clipPath id="clippath"><rect class="cls-1" width="375" height="812"/></clipPath></defs><g id="Layer_1-2"><g class="cls-2"><g><path class="cls-4" d="M205.54,826.25s-39.85-23.04-38.67-25.39c1.18-2.38-10.2-2.61-12.58-6.89-2.38-4.28-10.69-10.92-14.48-11.86-3.79-.95-58.35-14.48-65.47-31.57-7.12-17.09-6.18-7.35-21.24-18.4-15.04-11.04-55.12-49.28-55.12-49.28l1.43,155.03,206.13-11.63Z"/><path class="cls-5" d="M99.48,786.4s-27.42-14.2-29.24-22.78c-1.82-8.58-38.34-27.57-38.34-27.57,0,0,30.55,26.73,31.29,37.1,.72,10.35,29.6,12.79,36.28,13.25h0Z"/><path class="cls-5" d="M138.17,797.09l-48.41,18.71s63.24-3.18,57.89-9.23c-3.56-4.05-9.48-9.48-9.48-9.48Z"/><path class="cls-4" d="M109.11,818.66l-13.53-101.86s.49-2.13,3.1-.9l14.22,101.32-3.79,1.43Z"/><path class="cls-3" d="M99.76,736.51l24.29-9.97,7.82,2.84-4.97,7.84-25.39,10.69-1.74-11.4h0Z"/><path class="cls-4" d="M101.42,748.09l-1.79-11.66,.1-.05,24.34-9.99,8.02,2.92-5.1,7.99-.03,.03-25.55,10.76Zm-1.51-11.51l1.72,11.12,25.19-10.61,4.87-7.66-7.64-2.77-24.14,9.92h0Z"/><path class="cls-3" d="M98.19,722.98l-22.52-6.89-7.92,3.43,5.56,6.3,26.47,8.3-1.59-11.15h0Z"/><path class="cls-4" d="M99.91,734.33l-26.7-8.38-5.69-6.46,8.12-3.54,.05,.03,22.6,6.92,1.61,11.43h0Zm-26.55-8.61l26.24,8.25-1.51-10.89-22.42-6.84-7.71,3.36,5.41,6.12Z"/></g></g></g></svg>