<svg width="704" height="436" viewBox="0 0 704 436" fill="none" xmlns="http://www.w3.org/2000/svg">
<g clip-path="url(#clip0_301_102)">
<path d="M703.011 0.989777H0.494751V435.505H703.011V0.989777Z" fill="#D0EEFF"/>
<path d="M703.505 30L443 420.064L703.011 419.669L703.505 30Z" fill="#B6E5FF"/>
<path d="M442.743 15.9454H94.4538C90.0821 15.9454 86.5381 19.4905 86.5381 23.8637V290.116C86.5381 294.489 90.0821 298.034 94.4538 298.034H442.743C447.115 298.034 450.659 294.489 450.659 290.116V23.8637C450.659 19.4905 447.115 15.9454 442.743 15.9454Z" fill="white"/>
<path d="M369.682 62.2673H120.209V81.1029H369.682V62.2673Z" fill="#E2E8F0"/>
<path d="M369.682 87.6949H120.209V106.53H369.682V87.6949Z" fill="#E2E8F0"/>
<path d="M369.682 113.122H120.209V131.958H369.682V113.122Z" fill="#E2E8F0"/>
<path d="M391.331 167.739H141.859V186.574H391.331V167.739Z" fill="#E2E8F0"/>
<path d="M391.331 193.166H141.859V212.002H391.331V193.166Z" fill="#E2E8F0"/>
<path d="M391.331 218.594H141.859V237.429H391.331V218.594Z" fill="#E2E8F0"/>
<path d="M391.331 244.962H141.859V263.797H391.331V244.962Z" fill="#E2E8F0"/>
<path d="M122.94 43.5406H120.091V42.5112H126.958V43.5406H124.108V50.8155H122.93V43.5406H122.94Z" fill="black"/>
<path d="M133.27 44.5304L130.223 51.449C129.669 52.7753 128.946 53.191 127.977 53.191C127.373 53.191 126.75 52.9931 126.364 52.607L126.849 51.7558C127.155 52.0528 127.551 52.221 127.977 52.221C128.521 52.221 128.867 51.9736 129.174 51.251L129.372 50.8155L126.591 44.5403H127.779L129.975 49.5684L132.142 44.5403H133.26L133.27 44.5304Z" fill="black"/>
<path d="M140.859 47.6779C140.859 49.6179 139.514 50.8947 137.683 50.8947C136.793 50.8947 136.011 50.5483 135.487 49.8752V53.1316H134.349V44.5403H135.437V45.54C135.952 44.8372 136.753 44.4809 137.683 44.4809C139.524 44.4809 140.859 45.7577 140.859 47.6878V47.6779ZM139.712 47.6779C139.712 46.3516 138.801 45.4707 137.584 45.4707C136.367 45.4707 135.477 46.3516 135.477 47.6779C135.477 49.0042 136.387 49.895 137.584 49.895C138.782 49.895 139.712 49.0141 139.712 47.6779Z" fill="black"/>
<path d="M148.102 48.054H142.997C143.135 49.1626 144.026 49.895 145.272 49.895C146.005 49.895 146.628 49.6476 147.083 49.1329L147.716 49.8653C147.142 50.5285 146.282 50.8848 145.233 50.8848C143.204 50.8848 141.849 49.5387 141.849 47.668C141.849 45.7973 143.195 44.4611 145.005 44.4611C146.816 44.4611 148.112 45.7676 148.112 47.6977C148.112 47.7967 148.102 47.9352 148.092 48.0441L148.102 48.054ZM142.997 47.2325H147.034C146.915 46.1734 146.123 45.4311 145.015 45.4311C143.907 45.4311 143.115 46.1635 142.997 47.2325Z" fill="black"/>
<path d="M156.434 50.4493C156.087 50.7462 155.563 50.8848 155.058 50.8848C153.792 50.8848 153.069 50.182 153.069 48.9151V45.4608H152.001V44.5205H153.069V43.1447H154.207V44.5205H156.008V45.4608H154.207V48.8656C154.207 49.5387 154.563 49.9247 155.197 49.9247C155.533 49.9247 155.85 49.8158 156.087 49.6278L156.443 50.4493H156.434Z" fill="black"/>
<path d="M163.785 47.2028V50.8254H162.647V47.3315C162.647 46.0942 162.034 45.4905 160.955 45.4905C159.748 45.4905 158.967 46.213 158.967 47.5789V50.8155H157.829V42.0064H158.967V45.4113C159.441 44.8075 160.223 44.4611 161.183 44.4611C162.717 44.4611 163.795 45.342 163.795 47.1929L163.785 47.2028Z" fill="black"/>
<path d="M171.602 48.054H166.496C166.635 49.1626 167.525 49.895 168.772 49.895C169.504 49.895 170.128 49.6476 170.583 49.1329L171.216 49.8653C170.642 50.5285 169.781 50.8848 168.732 50.8848C166.704 50.8848 165.349 49.5387 165.349 47.668C165.349 45.7973 166.694 44.4611 168.505 44.4611C170.316 44.4611 171.612 45.7676 171.612 47.6977C171.612 47.7967 171.602 47.9352 171.592 48.0441L171.602 48.054ZM166.496 47.2325H170.533C170.415 46.1734 169.623 45.4311 168.515 45.4311C167.407 45.4311 166.615 46.1635 166.496 47.2325Z" fill="black"/>
<path d="M182.328 44.5304V53.1217H181.19V49.8653C180.665 50.5384 179.884 50.8848 178.993 50.8848C177.153 50.8848 175.817 49.5981 175.817 47.668C175.817 45.7379 177.163 44.4611 178.993 44.4611C179.923 44.4611 180.725 44.8174 181.239 45.5202V44.5205H182.328V44.5304ZM181.2 47.6779C181.2 46.3516 180.289 45.4707 179.092 45.4707C177.895 45.4707 176.965 46.3516 176.965 47.6779C176.965 49.0042 177.875 49.895 179.092 49.895C180.309 49.895 181.2 49.0141 181.2 47.6779Z" fill="black"/>
<path d="M190.362 44.5304V50.8254H189.284V49.8752C188.818 50.5285 188.037 50.8947 187.146 50.8947C185.524 50.8947 184.445 50.0039 184.445 48.153V44.5304H185.583V48.0243C185.583 49.2616 186.196 49.8752 187.275 49.8752C188.462 49.8752 189.224 49.1428 189.224 47.7868V44.5304H190.362Z" fill="black"/>
<path d="M198.199 48.054H193.093C193.231 49.1626 194.122 49.895 195.369 49.895C196.101 49.895 196.724 49.6476 197.179 49.1329L197.813 49.8653C197.239 50.5285 196.378 50.8848 195.329 50.8848C193.301 50.8848 191.945 49.5387 191.945 47.668C191.945 45.7973 193.291 44.4611 195.102 44.4611C196.912 44.4611 198.208 45.7676 198.208 47.6977C198.208 47.7967 198.199 47.9352 198.189 48.0441L198.199 48.054ZM193.093 47.2325H197.13C197.011 46.1734 196.22 45.4311 195.111 45.4311C194.003 45.4311 193.212 46.1635 193.093 47.2325Z" fill="black"/>
<path d="M199.01 50.1524L199.485 49.2517C200.019 49.6278 200.87 49.9049 201.691 49.9049C202.75 49.9049 203.185 49.5882 203.185 49.0537C203.185 47.6383 199.208 48.8657 199.208 46.3615C199.208 45.2331 200.217 44.471 201.83 44.471C202.651 44.471 203.571 44.6888 204.116 45.0451L203.631 45.9458C203.057 45.5796 202.433 45.4509 201.82 45.4509C200.821 45.4509 200.336 45.8171 200.336 46.3219C200.336 47.8066 204.323 46.599 204.323 49.0438C204.323 50.1821 203.274 50.9046 201.602 50.9046C200.563 50.9046 199.524 50.5879 199 50.1722L199.01 50.1524Z" fill="black"/>
<path d="M209.29 50.4493C208.944 50.7462 208.42 50.8848 207.915 50.8848C206.649 50.8848 205.926 50.182 205.926 48.9151V45.4608H204.858V44.5205H205.926V43.1447H207.064V44.5205H208.865V45.4608H207.064V48.8656C207.064 49.5387 207.42 49.9247 208.054 49.9247C208.39 49.9247 208.707 49.8158 208.944 49.6278L209.3 50.4493H209.29Z" fill="black"/>
<path d="M210.468 42.5805C210.468 42.1648 210.804 41.8283 211.24 41.8283C211.675 41.8283 212.011 42.145 212.011 42.5508C212.011 42.9764 211.695 43.313 211.24 43.313C210.785 43.313 210.468 42.9962 210.468 42.5805ZM210.666 44.5304H211.804V50.8254H210.666V44.5304Z" fill="black"/>
<path d="M213.397 47.6779C213.397 45.8072 214.782 44.471 216.672 44.471C218.562 44.471 219.937 45.7973 219.937 47.6779C219.937 49.5585 218.562 50.8947 216.672 50.8947C214.782 50.8947 213.397 49.5486 213.397 47.6779ZM218.789 47.6779C218.789 46.3417 217.889 45.4707 216.672 45.4707C215.455 45.4707 214.545 46.3417 214.545 47.6779C214.545 49.0141 215.455 49.895 216.672 49.895C217.889 49.895 218.789 49.0141 218.789 47.6779Z" fill="black"/>
<path d="M227.487 47.2028V50.8254H226.349V47.3315C226.349 46.0942 225.735 45.4905 224.657 45.4905C223.45 45.4905 222.668 46.213 222.668 47.5789V50.8155H221.53V44.5205H222.618V45.4707C223.083 44.8273 223.885 44.4611 224.884 44.4611C226.418 44.4611 227.496 45.342 227.496 47.1929L227.487 47.2028Z" fill="black"/>
<path d="M228.812 50.1524L229.287 49.2517C229.822 49.6278 230.673 49.9049 231.494 49.9049C232.553 49.9049 232.988 49.5882 232.988 49.0537C232.988 47.6383 229.01 48.8657 229.01 46.3615C229.01 45.2331 230.02 44.471 231.632 44.471C232.454 44.471 233.374 44.6888 233.918 45.0451L233.433 45.9458C232.859 45.5796 232.236 45.4509 231.622 45.4509C230.623 45.4509 230.138 45.8171 230.138 46.3219C230.138 47.8066 234.126 46.599 234.126 49.0438C234.126 50.1821 233.077 50.9046 231.405 50.9046C230.366 50.9046 229.327 50.5879 228.802 50.1722L228.812 50.1524Z" fill="black"/>
<path d="M235.016 45.2727C235.016 44.7976 235.382 44.4611 235.828 44.4611C236.273 44.4611 236.609 44.7877 236.609 45.2727C236.609 45.7577 236.253 46.0942 235.828 46.0942C235.402 46.0942 235.016 45.7478 235.016 45.2727ZM235.016 50.0633C235.016 49.5882 235.382 49.2516 235.828 49.2516C236.273 49.2516 236.609 49.5882 236.609 50.0633C236.609 50.5384 236.253 50.8848 235.828 50.8848C235.402 50.8848 235.016 50.5384 235.016 50.0633Z" fill="black"/>
<path d="M126.591 151.486H122.178L121.268 153.565H120.041L123.801 145.251H124.979L128.748 153.565H127.502L126.591 151.486ZM126.176 150.536L124.385 146.468L122.594 150.536H126.176Z" fill="black"/>
<path d="M135.793 149.942V153.565H134.655V150.071C134.655 148.834 134.042 148.23 132.963 148.23C131.756 148.23 130.975 148.953 130.975 150.319V153.555H129.837V147.26H130.925V148.21C131.39 147.567 132.192 147.201 133.191 147.201C134.725 147.201 135.803 148.082 135.803 149.933L135.793 149.942Z" fill="black"/>
<path d="M137.109 152.892L137.584 151.991C138.119 152.367 138.969 152.645 139.791 152.645C140.849 152.645 141.285 152.328 141.285 151.793C141.285 150.378 137.307 151.605 137.307 149.101C137.307 147.973 138.316 147.211 139.929 147.211C140.75 147.211 141.671 147.428 142.215 147.785L141.73 148.685C141.156 148.319 140.533 148.191 139.919 148.191C138.92 148.191 138.435 148.557 138.435 149.062C138.435 150.546 142.423 149.339 142.423 151.783C142.423 152.922 141.374 153.644 139.702 153.644C138.663 153.644 137.624 153.327 137.099 152.912L137.109 152.892Z" fill="black"/>
<path d="M153.247 147.27L150.892 153.565H149.804L147.993 148.794L146.153 153.565H145.064L142.729 147.27H143.808L145.638 152.278L147.538 147.27H148.498L150.358 152.298L152.228 147.27H153.247Z" fill="black"/>
<path d="M159.897 150.794H154.791C154.929 151.902 155.82 152.635 157.067 152.635C157.799 152.635 158.422 152.387 158.877 151.873L159.511 152.605C158.937 153.268 158.076 153.624 157.027 153.624C154.999 153.624 153.643 152.278 153.643 150.408C153.643 148.537 154.989 147.201 156.8 147.201C158.61 147.201 159.906 148.507 159.906 150.437C159.906 150.536 159.897 150.675 159.887 150.784L159.897 150.794ZM154.791 149.972H158.828C158.709 148.913 157.918 148.171 156.809 148.171C155.701 148.171 154.91 148.903 154.791 149.972Z" fill="black"/>
<path d="M164.883 147.211V148.319C164.785 148.309 164.705 148.309 164.626 148.309C163.399 148.309 162.647 149.062 162.647 150.437V153.575H161.509V147.28H162.598V148.339C163.003 147.607 163.785 147.221 164.893 147.221L164.883 147.211Z" fill="black"/>
<path d="M165.537 152.892L166.011 151.991C166.546 152.367 167.397 152.645 168.218 152.645C169.277 152.645 169.712 152.328 169.712 151.793C169.712 150.378 165.734 151.605 165.734 149.101C165.734 147.973 166.744 147.211 168.356 147.211C169.178 147.211 170.098 147.428 170.642 147.785L170.157 148.685C169.583 148.319 168.96 148.191 168.347 148.191C167.347 148.191 166.862 148.557 166.862 149.062C166.862 150.546 170.85 149.339 170.85 151.783C170.85 152.922 169.801 153.644 168.129 153.644C167.09 153.644 166.051 153.327 165.527 152.912L165.537 152.892Z" fill="black"/>
<path d="M171.74 148.012C171.74 147.537 172.106 147.201 172.552 147.201C172.997 147.201 173.333 147.527 173.333 148.012C173.333 148.497 172.977 148.834 172.552 148.834C172.126 148.834 171.74 148.487 171.74 148.012ZM171.74 152.803C171.74 152.328 172.106 151.991 172.552 151.991C172.997 151.991 173.333 152.328 173.333 152.803C173.333 153.278 172.977 153.624 172.552 153.624C172.126 153.624 171.74 153.278 171.74 152.803Z" fill="black"/>
<path d="M554.592 95.7715H445.494C441.122 95.7715 437.578 99.3167 437.578 103.69V139.56C437.578 143.933 441.122 147.478 445.494 147.478H554.592C558.963 147.478 562.507 143.933 562.507 139.56V103.69C562.507 99.3167 558.963 95.7715 554.592 95.7715Z" fill="#334155"/>
<path d="M546.894 89.1895H437.796C433.424 89.1895 429.88 92.7346 429.88 97.1077V132.978C429.88 137.351 433.424 140.896 437.796 140.896H546.894C551.265 140.896 554.809 137.351 554.809 132.978V97.1077C554.809 92.7346 551.265 89.1895 546.894 89.1895Z" fill="white"/>
<path d="M546.894 141.391H437.796C433.155 141.391 429.386 137.62 429.386 132.978V97.1176C429.386 92.4755 433.155 88.7045 437.796 88.7045H546.894C551.534 88.7045 555.304 92.4755 555.304 97.1176V132.978C555.304 137.62 551.534 141.391 546.894 141.391ZM437.796 89.6844C433.7 89.6844 430.375 93.0199 430.375 97.1077V132.968C430.375 137.065 433.71 140.391 437.796 140.391H546.894C550.99 140.391 554.315 137.055 554.315 132.968V97.1077C554.315 93.01 550.98 89.6844 546.894 89.6844H437.796Z" fill="#94A3B8"/>
<path d="M464.116 116.903L464.63 115.825C465.352 116.478 466.579 116.943 467.836 116.943C469.518 116.943 470.23 116.29 470.23 115.448C470.23 113.083 464.353 114.577 464.353 110.975C464.353 109.48 465.521 108.203 468.064 108.203C469.201 108.203 470.379 108.51 471.18 109.064L470.725 110.173C469.884 109.629 468.924 109.381 468.064 109.381C466.411 109.381 465.709 110.074 465.709 110.915C465.709 113.291 471.586 111.806 471.586 115.369C471.586 116.854 470.399 118.131 467.826 118.131C466.342 118.131 464.887 117.636 464.116 116.913V116.903Z" fill="#FB7200"/>
<path d="M480.254 110.668V118.012H478.997V116.903C478.453 117.666 477.543 118.091 476.504 118.091C474.604 118.091 473.347 117.052 473.347 114.884V110.658H474.673V114.736C474.673 116.181 475.395 116.903 476.652 116.903C478.037 116.903 478.928 116.042 478.928 114.459V110.658H480.254V110.668Z" fill="#FB7200"/>
<path d="M490.396 114.34C490.396 116.587 488.832 118.101 486.685 118.101C485.607 118.101 484.667 117.685 484.063 116.854V118.022H482.787V107.738H484.113V111.786C484.726 110.994 485.636 110.608 486.675 110.608C488.822 110.608 490.386 112.103 490.386 114.35L490.396 114.34ZM489.05 114.34C489.05 112.776 487.981 111.757 486.566 111.757C485.152 111.757 484.103 112.766 484.103 114.34C484.103 115.914 485.171 116.933 486.566 116.933C487.962 116.933 489.05 115.904 489.05 114.34Z" fill="#FB7200"/>
<path d="M504.436 113.786V118.012H503.11V113.934C503.11 112.489 502.417 111.786 501.21 111.786C499.884 111.786 499.004 112.628 499.004 114.221V118.002H497.678V113.924C497.678 112.479 496.985 111.776 495.778 111.776C494.452 111.776 493.572 112.618 493.572 114.211V117.992H492.246V110.648H493.522V111.747C494.047 110.994 494.947 110.579 496.055 110.579C497.163 110.579 498.123 111.024 498.608 111.935C499.162 111.103 500.191 110.579 501.438 110.579C503.229 110.579 504.446 111.608 504.446 113.766L504.436 113.786Z" fill="#FB7200"/>
<path d="M506.643 108.391C506.643 107.906 507.029 107.52 507.543 107.52C508.058 107.52 508.443 107.896 508.443 108.362C508.443 108.856 508.067 109.252 507.543 109.252C507.019 109.252 506.643 108.876 506.643 108.391ZM506.88 110.668H508.206V118.012H506.88V110.668Z" fill="#FB7200"/>
<path d="M514.875 117.586C514.469 117.933 513.866 118.101 513.272 118.101C511.788 118.101 510.947 117.28 510.947 115.795V111.757H509.7V110.658H510.947V109.054H512.273V110.658H514.38V111.757H512.273V115.735C512.273 116.527 512.688 116.973 513.42 116.973C513.806 116.973 514.182 116.844 514.459 116.626L514.875 117.586Z" fill="#FB7200"/>
<path d="M552.801 172.222L532.359 151.774L526.382 169.827L512.035 121.981L559.856 136.343L541.808 142.321L562.25 162.77L552.801 172.222Z" fill="#FB7200"/>
<path d="M552.801 172.925L532.576 152.684L526.353 171.47L511.293 121.239L561.508 136.303L542.728 142.529L562.953 162.77L552.811 172.915L552.801 172.925ZM532.141 150.853L552.801 171.52L561.548 162.77L540.888 142.103L558.213 136.363L512.767 122.723L526.402 168.184L532.141 150.853Z" fill="white"/>
<path d="M160.649 330.825L120.041 419.174H209.043L160.649 330.825Z" fill="#B6E5FF"/>
<path d="M353.168 178.923C353.168 178.923 355.394 209.666 346.152 210.864C346.152 210.864 354.84 216.001 379.339 211.646L359.728 181.091L353.178 178.923H353.168Z" fill="#1E293B"/>
<path d="M414.593 221.623L409.082 220.544L376.351 220.425L375.153 210.864C346.053 208.379 353.643 154.674 353.643 154.674C354.949 139.589 374.025 134.066 391.885 139.134C404.708 142.766 409.3 181.22 412.654 205.301C413.97 214.754 414.593 221.623 414.593 221.623Z" fill="#FEE2E2"/>
<path d="M374.045 177.122C374.876 177.122 375.549 176.448 375.549 175.617C375.549 174.787 374.876 174.113 374.045 174.113C373.214 174.113 372.541 174.787 372.541 175.617C372.541 176.448 373.214 177.122 374.045 177.122Z" fill="#1E293B"/>
<path d="M359.728 176.597C360.558 176.597 361.232 175.924 361.232 175.093C361.232 174.262 360.558 173.588 359.728 173.588C358.897 173.588 358.224 174.262 358.224 175.093C358.224 175.924 358.897 176.597 359.728 176.597Z" fill="#1E293B"/>
<path d="M355.523 170.767C355.344 170.767 355.156 170.738 354.978 170.659C354.226 170.362 353.85 169.51 354.137 168.758C354.226 168.521 355.097 166.403 357.442 165.482C359.233 164.779 361.291 164.997 363.587 166.116C364.319 166.472 364.626 167.363 364.269 168.105C363.903 168.847 363.023 169.144 362.281 168.788C360.786 168.055 359.53 167.877 358.56 168.244C357.403 168.689 356.918 169.837 356.908 169.847C356.67 170.421 356.116 170.777 355.523 170.777V170.767Z" fill="#1E293B"/>
<path d="M381.496 170.451C381.199 170.451 380.902 170.362 380.635 170.174C375.757 166.699 373.006 169.194 372.887 169.303C372.294 169.857 371.364 169.847 370.8 169.263C370.236 168.679 370.236 167.759 370.8 167.184C372.343 165.64 376.756 163.76 382.347 167.749C383.02 168.224 383.168 169.154 382.693 169.817C382.406 170.223 381.951 170.441 381.486 170.441L381.496 170.451Z" fill="#1E293B"/>
<path d="M362.894 183.1C362.627 183.1 362.409 182.892 362.399 182.625C362.33 180.992 362.716 179.903 363.537 179.389C364.764 178.626 366.407 179.517 366.476 179.557C366.713 179.685 366.802 179.992 366.674 180.23C366.545 180.467 366.238 180.556 366.001 180.428C365.664 180.25 364.665 179.854 364.062 180.24C363.438 180.626 363.359 181.734 363.389 182.586C363.399 182.863 363.191 183.09 362.914 183.1H362.894Z" fill="#1E293B"/>
<path d="M404.135 174.331C404.135 174.331 405.856 160.8 399.049 154.674C394.972 151.002 378.735 163.037 369.177 148.695C363.201 153.476 353.276 156.089 353.643 154.674C356.878 141.985 365.872 134.175 382.327 135.551C396.664 136.749 407.42 145.865 409.626 161.137C411.823 176.409 408.508 169.58 408.508 169.58L404.145 174.341L404.135 174.331Z" fill="#1E293B"/>
<path d="M388.115 206.875C387.907 206.875 387.71 206.746 387.65 206.538C387.561 206.281 387.71 206.004 387.967 205.915C388.066 205.885 397.832 202.599 400.82 196.809C400.949 196.561 401.245 196.472 401.483 196.591C401.73 196.72 401.819 197.017 401.701 197.254C398.534 203.411 388.699 206.707 388.284 206.845C388.234 206.865 388.185 206.875 388.125 206.875H388.115Z" fill="#1E293B"/>
<path d="M413.396 213.249C413.396 213.249 465.343 222.484 474.347 229.986C483.351 237.489 484.954 411.186 485.33 429.566C454.953 431.447 346.805 429.566 324.048 429.566C316.657 429.566 315.914 235.113 328.55 228.789C340.502 222.81 360.816 214.447 376.351 214.447C391.727 217.663 413.396 213.249 413.396 213.249Z" fill="#FDBA74"/>
<path d="M470.755 227.601C523.335 238.36 589.717 376.108 544.539 404.357C532.537 411.859 515.854 417.511 464.472 427.072L453.716 374.475L479.126 353.135L470.765 227.611L470.755 227.601Z" fill="#FDBA74"/>
<path d="M337.791 225.027C337.791 225.027 337.188 224.315 311.502 234.589C287.596 244.15 246.088 301.429 246.088 367.457C246.088 404.218 310.314 429.448 310.314 429.448L330.836 372.891C330.836 372.891 322.188 343.396 323.098 335.24C323.998 327.084 319.585 317.374 319.585 317.374L337.801 225.037L337.791 225.027Z" fill="#FDBA74"/>
<path d="M476.662 344.336C476.603 344.336 476.543 344.336 476.494 344.306C476.236 344.207 476.108 343.93 476.207 343.673L478.483 337.536L472.13 331.182C471.932 330.984 471.932 330.677 472.13 330.479C472.328 330.281 472.635 330.281 472.833 330.479L479.63 337.279L477.127 344.009C477.048 344.207 476.86 344.336 476.662 344.336Z" fill="white"/>
<path d="M313.401 337.833C313.401 337.833 313.362 337.833 313.342 337.833L300.687 336.388C300.419 336.358 300.222 336.111 300.251 335.844C300.281 335.567 300.528 335.379 300.795 335.408L313.451 336.853C313.718 336.883 313.916 337.13 313.886 337.398C313.856 337.645 313.639 337.833 313.391 337.833H313.401Z" fill="#1E293B"/>
<path d="M312.105 333.686C312.016 333.686 311.917 333.656 311.838 333.607L304.506 328.856C304.278 328.707 304.209 328.401 304.358 328.173C304.506 327.945 304.813 327.886 305.04 328.024L312.372 332.775C312.6 332.924 312.669 333.231 312.521 333.458C312.422 333.607 312.263 333.686 312.105 333.686Z" fill="#1E293B"/>
<path d="M274.456 287.691C274.397 287.691 274.337 287.691 274.288 287.661C274.031 287.572 273.902 287.285 273.991 287.028C274.1 286.741 284.717 258.205 304.526 246.803C304.763 246.664 305.06 246.743 305.199 246.981C305.337 247.218 305.248 247.515 305.02 247.654C285.528 258.868 275.03 287.077 274.921 287.364C274.852 287.562 274.654 287.691 274.456 287.691Z" fill="white"/>
<path d="M552.217 344.336C551.989 344.336 551.782 344.178 551.732 343.95C547.527 324.392 537.049 306.764 536.94 306.586C536.801 306.348 536.87 306.051 537.108 305.903C537.336 305.764 537.642 305.833 537.791 306.071C537.9 306.249 548.457 324.016 552.702 343.732C552.761 344 552.593 344.267 552.326 344.316C552.286 344.316 552.257 344.326 552.217 344.326V344.336Z" fill="white"/>
<path d="M367.386 191.632C367.109 191.632 366.891 191.414 366.891 191.137C366.891 190.86 367.109 190.642 367.386 190.642C367.455 190.642 374.411 190.583 378.983 186.01C379.18 185.812 379.487 185.812 379.685 186.01C379.883 186.208 379.883 186.515 379.685 186.713C374.817 191.583 367.683 191.642 367.386 191.642V191.632Z" fill="#1E293B"/>
<path d="M406.222 174.994C406.222 174.994 408.617 206.073 405.025 210.854C405.025 210.854 415.781 209.656 425.339 208.458C425.339 208.458 415.781 195.304 409.616 161.127C409.616 161.127 409.616 171.193 406.222 174.984V174.994Z" fill="#1E293B"/>
<path d="M400.424 158.375C400.424 158.375 409.25 154.169 410.299 164.126C411.348 174.083 405.827 176.429 402.344 173.737" fill="#FEE2E2"/>
<path d="M405.223 175.261C404.125 175.261 403.016 174.875 402.047 174.123L402.65 173.341C404.006 174.39 405.619 174.568 406.974 173.816C408.063 173.212 410.526 171.055 409.804 164.176C409.507 161.374 408.557 159.494 406.964 158.603C404.303 157.108 400.671 158.811 400.632 158.821L400.206 157.93C400.375 157.851 404.332 156 407.439 157.742C409.329 158.801 410.447 160.929 410.784 164.077C411.338 169.332 410.121 173.192 407.449 174.687C406.747 175.073 405.985 175.271 405.213 175.271L405.223 175.261Z" fill="#1E293B"/>
<path d="M401.384 169.075C401.384 169.075 402.858 163.206 407.232 164.502C407.232 164.502 407.281 162.384 405.441 162.839" fill="#FEE2E2"/>
<path d="M401.859 169.204L400.899 168.966C400.929 168.828 401.75 165.65 404.016 164.364C404.817 163.908 405.698 163.74 406.638 163.879C406.579 163.7 406.489 163.522 406.351 163.413C406.282 163.364 406.084 163.206 405.559 163.334L405.322 162.374C406.153 162.166 406.677 162.404 406.974 162.641C407.736 163.255 407.726 164.393 407.726 164.522L407.706 165.165L407.093 164.987C406.133 164.7 405.282 164.779 404.511 165.225C402.621 166.304 401.869 169.184 401.869 169.214L401.859 169.204Z" fill="#1E293B"/>
<path d="M349.714 406.92L326.155 293.352H152.871L179.161 420.064H323.761H352.445H440.883V406.92H349.714Z" fill="#FB7200"/>
<path d="M312.105 408.068H193.677V409.058H312.105V408.068Z" fill="#1E293B"/>
<path d="M703.011 419.669H0.494751V435.505H703.011V419.669Z" fill="#315D93"/>
<path d="M703.505 436H0V419.174H703.505V436ZM0.989459 435.01H702.516V420.163H0.989459V435.01Z" fill="white"/>
<path d="M441.971 377.86C441.971 377.86 383.831 382.977 382.258 406.821L446.84 411.839L441.971 377.86Z" fill="#FEE2E2"/>
<path d="M395.378 406.306C395.279 406.306 395.18 406.277 395.091 406.217C395.002 406.158 392.983 404.693 393.142 402.466C393.28 400.566 394.942 398.784 398.109 397.161L398.277 397.111L416.028 394.964C416.295 394.924 416.542 395.122 416.582 395.399C416.622 395.676 416.424 395.914 416.147 395.953L398.485 398.091C395.744 399.517 394.24 401.051 394.131 402.545C394.012 404.218 395.645 405.406 395.665 405.426C395.882 405.584 395.942 405.891 395.784 406.118C395.685 406.257 395.536 406.326 395.378 406.326V406.306Z" fill="#1E293B"/>
<path d="M385.8 406.168C385.553 406.168 385.345 405.99 385.315 405.742C385.305 405.653 385.018 403.545 386.443 401.011C387.729 398.725 390.727 395.637 397.703 393.904C397.97 393.835 398.237 394.003 398.307 394.261C398.376 394.528 398.208 394.795 397.95 394.865C385.424 397.982 386.265 405.297 386.305 405.604C386.344 405.871 386.156 406.128 385.879 406.158C385.859 406.158 385.83 406.158 385.81 406.158L385.8 406.168Z" fill="#1E293B"/>
<path d="M403.422 402.852L395.783 402.733C395.506 402.733 395.289 402.506 395.299 402.229C395.299 401.961 395.526 401.744 395.793 401.744L402.215 401.843L401.582 398.685C401.532 398.418 401.7 398.161 401.968 398.101C402.235 398.052 402.492 398.22 402.551 398.487L403.422 402.842V402.852Z" fill="#1E293B"/>
<path d="M426.308 383.848C426.308 383.848 400.147 378.731 390.876 394.419L426.308 383.848Z" fill="#FEE2E2"/>
<path d="M396.367 390.886C396.15 390.886 395.942 390.737 395.882 390.51C395.813 390.242 395.981 389.975 396.249 389.906L410.942 386.273C411.209 386.204 411.476 386.372 411.546 386.639C411.615 386.907 411.447 387.174 411.179 387.243L396.486 390.876C396.486 390.876 396.407 390.886 396.367 390.886Z" fill="#1E293B"/>
<path d="M442.467 377.749L441.492 377.92L446.358 405.725L447.333 405.555L442.467 377.749Z" fill="#1E293B"/>
<path d="M322.969 288.374L319.882 282.188L320.773 281.742L322.9 286.018L324.711 281.772L325.621 282.158L322.969 288.374Z" fill="white"/>
</g>
<defs>
<clipPath id="clip0_301_102">
<rect width="704" height="436" rx="8" fill="white"/>
</clipPath>
</defs>
</svg>
