<svg width="350" height="290" viewBox="0 0 350 290" fill="none" xmlns="http://www.w3.org/2000/svg">
<g clip-path="url(#clip0_555_781)">
<path d="M225.475 169.444H3.1157C1.55784 169.651 0.155762 168.405 0.155762 166.847V2.64837C0.155762 1.29822 1.14241 0.207715 2.49256 2.92435e-07H224.852C226.409 -0.207715 227.812 1.03858 227.812 2.59644V166.795C227.812 168.145 226.825 169.288 225.475 169.444Z" fill="#FDBA74"/>
<path d="M227.812 12.0994L0.155762 12.7745V2.64836C0.155762 1.29821 1.14241 0.155781 2.49256 -5.07385e-06H224.852C226.409 -0.20772 227.812 1.03857 227.812 2.64836V12.0994Z" fill="#334155"/>
<path d="M221.58 8.51632C222.93 8.51632 224.021 7.42581 224.021 6.07566C224.021 4.72551 222.93 3.63501 221.58 3.63501C220.23 3.63501 219.139 4.72551 219.139 6.07566C219.139 7.42581 220.23 8.51632 221.58 8.51632Z" fill="#B90F0F"/>
<path d="M214.362 8.51632C215.712 8.51632 216.803 7.42581 216.803 6.07566C216.803 4.72551 215.712 3.63501 214.362 3.63501C213.012 3.63501 211.869 4.67359 211.869 6.07566C211.869 7.47774 212.96 8.51632 214.362 8.51632Z" fill="#FB923C"/>
<path d="M207.092 8.51632C208.442 8.51632 209.533 7.42581 209.533 6.07566C209.533 4.72551 208.442 3.63501 207.092 3.63501C205.742 3.63501 204.651 4.72551 204.651 6.07566C204.651 7.42581 205.742 8.51632 207.092 8.51632Z" fill="#34D399"/>
<path fill-rule="evenodd" clip-rule="evenodd" d="M181.751 41.9585C179.57 41.9585 177.7 41.0757 177.7 39.9852C177.7 38.8947 179.57 38.0119 181.751 38.0119C183.932 38.0119 185.801 38.8947 185.801 39.9852C185.801 41.0757 183.932 41.9585 181.751 41.9585Z" fill="#1E293B"/>
<path d="M181.751 38.3754C183.88 38.3754 185.49 39.2582 185.49 39.9852C185.49 40.7122 183.88 41.595 181.751 41.595C179.622 41.595 178.012 40.7122 178.012 39.9852C178.012 39.2582 179.622 38.3754 181.751 38.3754ZM181.751 37.7522C179.31 37.7522 177.389 38.7908 177.389 40.0371C177.389 41.2834 179.362 42.322 181.751 42.322C184.139 42.322 186.113 41.2834 186.113 40.0371C186.113 38.7908 184.191 37.7522 181.751 37.7522Z" fill="#1E293B"/>
<path d="M181.751 40.3487C181.543 40.3487 181.439 40.1929 181.439 40.0371V28.6647C181.439 28.5089 181.595 28.3531 181.751 28.3531C181.907 28.3531 182.062 28.5089 182.062 28.6647V40.0371C182.062 40.1929 181.959 40.3487 181.751 40.3487Z" fill="#1E293B"/>
<path fill-rule="evenodd" clip-rule="evenodd" d="M188.242 30.2225L181.751 28.5089V32.4036C181.751 32.4555 188.242 30.2225 188.242 30.2225Z" fill="#FB7200"/>
<path d="M181.439 32.8709V28.0935L189.384 30.1706L181.439 32.8709ZM182.062 28.9243V31.9362L187.099 30.2225L182.062 28.9243Z" fill="#FB7200"/>
<path d="M54.0059 51.1499L54.9406 46.4763L56.4465 50.5267L58.1602 44.8665L59.3545 50.2151L61.172 46.0089L62.1587 51.2018C62.1587 51.1499 54.0059 51.1499 54.0059 51.1499Z" fill="#C15802"/>
<path d="M68.1306 47.8783L69.0653 43.2047L70.5713 47.2552L72.2849 41.595L73.4793 46.9436L75.2968 42.7374L76.2834 47.9303L68.1306 47.8783Z" fill="#C15802"/>
<path d="M98.353 158.019L99.2877 153.346L100.794 157.396L102.507 151.736L103.702 157.085L105.519 152.878L106.506 158.071L98.353 158.019Z" fill="#C15802"/>
<path d="M109.518 160.304L110.453 155.631L111.958 159.681L113.672 154.021L114.866 159.369L116.684 155.163L117.671 160.356L109.518 160.304Z" fill="#C15802"/>
<path d="M168.301 132.782L169.236 128.108L170.794 132.159L172.508 126.499L173.702 131.847L175.519 127.641L176.506 132.834H168.301V132.782Z" fill="#C15802"/>
<path d="M182.114 129.51L183.049 124.837L184.607 128.887L186.32 123.227L187.515 128.576L189.332 124.369L190.319 129.562H182.114V129.51Z" fill="#C15802"/>
<path d="M164.407 111.699L160.875 126.55H169.184L164.407 111.699Z" fill="#FB923C"/>
<path d="M169.392 126.706H160.668L164.355 111.076L169.392 126.706ZM161.083 126.343H168.924L164.407 112.27L161.083 126.343Z" fill="#FB923C"/>
<path d="M165.445 123.227H164.251V129.77H165.445V123.227Z" fill="#FB923C"/>
<path d="M165.653 129.926H164.095V123.071H165.601V129.926H165.653ZM164.458 129.562H165.341V123.331H164.458V129.562Z" fill="#FB923C"/>
<path d="M177.7 108.999L174.169 123.85H182.478L177.7 108.999Z" fill="#FB923C"/>
<path d="M182.685 124.006H173.961L177.648 108.375L182.685 124.006ZM174.377 123.642H182.218L177.7 109.57L174.377 123.642Z" fill="#FB923C"/>
<path d="M178.739 120.527H177.596V127.07H178.791L178.739 120.527Z" fill="#FB923C"/>
<path d="M178.947 127.226H177.441V120.371H178.947V127.226ZM177.752 126.862H178.635V120.631H177.752V126.862Z" fill="#FB923C"/>
<path d="M30.6898 51.046L27.1587 65.8976H35.4673L30.6898 51.046Z" fill="#FB923C"/>
<path d="M35.7269 66.0534H26.9509L30.6379 50.4229L35.7269 66.0534ZM27.3664 65.6899H35.2076L30.6898 51.6172L27.3664 65.6899Z" fill="#FB923C"/>
<path d="M31.7803 62.5742H30.5859V69.1172H31.7803V62.5742Z" fill="#FB923C"/>
<path d="M31.9361 69.273H30.4302V62.4184H31.9361V69.273ZM30.7417 68.9095H31.6245V62.678H30.7417V68.9095Z" fill="#FB923C"/>
<path d="M63.1972 28.405L59.718 43.2567H68.0266C67.9747 43.2567 63.1972 28.405 63.1972 28.405Z" fill="#FB923C"/>
<path d="M68.2345 43.4125H59.5105L63.1974 27.7819L68.2345 43.4125ZM59.9259 43.1009H67.7672L63.2494 29.0282L59.9259 43.1009Z" fill="#FB923C"/>
<path d="M64.2879 39.9332H63.0935V46.4763H64.2879V39.9332Z" fill="#FB923C"/>
<path d="M64.4437 46.6321H62.9377V39.7775H64.4437V46.6321ZM63.2493 46.3205H64.1321V40.089H63.2493V46.3205Z" fill="#FB923C"/>
<path d="M87.3441 39.4139L83.813 54.2656H92.1216L87.3441 39.4139Z" fill="#FB923C"/>
<path d="M92.3293 54.4214H83.6052L87.2922 38.7908L92.3293 54.4214ZM84.0207 54.0579H91.8619L87.3441 39.9852L84.0207 54.0579Z" fill="#FB923C"/>
<path d="M88.3828 50.9421H87.1885V57.4852H88.3828V50.9421Z" fill="#FB923C"/>
<path d="M88.5904 57.6409H87.0845V50.7863H88.5904V57.6409ZM87.396 57.3294H88.2788V51.0979H87.396V57.3294Z" fill="#FB923C"/>
<path d="M25.1854 71.5059C17.2922 70.4673 10.8011 72.6484 8.5682 73.8427C4.4139 75.4006 21.5504 76.9584 33.494 76.4392C45.4376 75.9199 35.0519 72.8041 25.1854 71.5059Z" fill="#FB923C"/>
<path d="M146.543 158.487C138.65 157.448 132.159 159.629 129.926 160.823C125.772 162.381 142.908 163.939 154.852 163.42C166.795 162.901 156.41 159.785 146.543 158.487Z" fill="#FB923C"/>
<path d="M72.2847 54.5252C67.2477 53.9021 63.0934 55.2003 61.6913 55.8754C59.0429 56.7582 69.9999 57.6929 77.5815 57.3813C85.215 57.1217 78.5681 55.3041 72.2847 54.5252Z" fill="#FB923C"/>
<path d="M9.08745 7.37389L8.82781 8.62018H8.46431L8.72395 7.37389L7.7373 4.98516H8.10081L8.93167 7.01038L10.5934 4.98516H11.0088C11.0607 4.93323 9.08745 7.37389 9.08745 7.37389Z" fill="#CBD5E1"/>
<path d="M10.4895 7.4258C10.4895 6.49108 11.1646 5.81601 12.0474 5.81601C12.8263 5.81601 13.2937 6.28337 13.2937 6.95844C13.2937 7.89316 12.6186 8.56824 11.7358 8.56824C11.0088 8.62016 10.4895 8.1528 10.4895 7.4258ZM12.9302 7.01037C12.9302 6.49108 12.6186 6.17951 12.0474 6.17951C11.3723 6.17951 10.853 6.6988 10.853 7.47773C10.853 7.99702 11.1646 8.30859 11.7358 8.30859C12.4628 8.25666 12.9821 7.73737 12.9302 7.01037Z" fill="#CBD5E1"/>
<path d="M16.8249 5.81601L16.3056 8.56824H15.9421L16.046 8.1528C15.7863 8.46438 15.4228 8.62016 15.0074 8.62016C14.3843 8.62016 14.0208 8.30859 14.0208 7.73737C14.0208 7.63352 14.0208 7.52966 14.0727 7.4258L14.3843 5.86794H14.7478L14.4362 7.4258C14.4362 7.52966 14.4362 7.58159 14.4362 7.68545C14.4362 8.10088 14.6439 8.30859 15.1113 8.30859C15.6825 8.30859 16.0979 7.99702 16.2018 7.37387L16.5133 5.91987L16.8249 5.81601Z" fill="#CBD5E1"/>
<path d="M19.2136 5.81601L19.1617 6.17951C19.1097 6.17951 19.1097 6.17951 19.0578 6.17951C18.4866 6.17951 18.0712 6.49108 17.9673 7.16616L17.6557 8.56824H17.2922L17.8115 5.81601H18.175L18.0712 6.3353C18.3308 5.9718 18.6943 5.81601 19.2136 5.81601Z" fill="#CBD5E1"/>
<path d="M21.4985 4.72551H21.862L21.0831 8.56824H20.7715L21.4985 4.72551Z" fill="#CBD5E1"/>
<path d="M22.485 7.32194C22.485 7.37387 22.485 7.37387 22.485 7.4258C22.485 7.99702 22.7966 8.25666 23.4197 8.25666C23.7832 8.25666 24.0948 8.1528 24.3025 7.89316L24.4583 8.1528C24.1987 8.41245 23.7832 8.56824 23.3678 8.56824C22.5889 8.56824 22.0696 8.10088 22.0696 7.4258C22.0696 6.49108 22.6927 5.81601 23.5755 5.81601C24.3025 5.81601 24.7699 6.23144 24.7699 6.95844C24.7699 7.0623 24.7699 7.16616 24.7179 7.27002L22.485 7.32194ZM22.5369 7.0623H24.5102C24.5102 7.01037 24.5102 7.01037 24.5102 6.95844C24.5102 6.43915 24.1467 6.12758 23.6274 6.12758C23.0562 6.12758 22.6408 6.49108 22.5369 7.0623Z" fill="#CBD5E1"/>
<path d="M28.3531 5.81601L27.8338 8.56824H27.4703L27.5742 8.1528C27.3145 8.41245 26.951 8.62016 26.4837 8.62016C25.8086 8.62016 25.2893 8.20473 25.2893 7.47773C25.2893 6.54301 25.9644 5.86794 26.8472 5.86794C27.3665 5.86794 27.73 6.07565 27.8857 6.43915L27.9896 5.86794L28.3531 5.81601ZM27.73 7.01037C27.73 6.49108 27.4184 6.17951 26.8472 6.17951C26.1721 6.17951 25.6528 6.6988 25.6528 7.47773C25.6528 7.99702 25.9644 8.30859 26.5356 8.30859C27.2107 8.25666 27.73 7.73737 27.73 7.01037Z" fill="#CBD5E1"/>
<path d="M30.7418 5.81601L30.6898 6.17951C30.6379 6.17951 30.6379 6.17951 30.586 6.17951C30.0147 6.17951 29.5993 6.49108 29.4955 7.16616L29.2358 8.56824H28.8723L29.3916 5.81601H29.7551L29.6512 6.3353C29.859 5.9718 30.2225 5.81601 30.7418 5.81601Z" fill="#CBD5E1"/>
<path d="M33.7017 6.6988C33.7017 6.80266 33.7017 6.90652 33.6498 7.01037L33.3382 8.56824H32.9747L33.2863 7.01037C33.2863 6.90652 33.3382 6.85459 33.3382 6.75073C33.3382 6.3353 33.0786 6.12759 32.6112 6.12759C32.04 6.12759 31.6246 6.43916 31.4688 7.0623L31.1572 8.51631H30.7937L31.313 5.76408H31.6765V6.28337C31.9361 5.9718 32.2996 5.81601 32.767 5.81601C33.3901 5.81601 33.7536 6.17951 33.7017 6.6988Z" fill="#CBD5E1"/>
<path d="M34.948 5.81601H35.3115L34.7922 8.56824H34.4287L34.948 5.81601ZM34.9999 4.98515C34.9999 4.82937 35.1038 4.72551 35.3115 4.72551C35.4673 4.72551 35.5711 4.82937 35.5711 4.93322C35.5711 5.08901 35.4673 5.2448 35.2596 5.2448C35.1557 5.2448 34.9999 5.14094 34.9999 4.98515Z" fill="#CBD5E1"/>
<path d="M38.6348 6.6988C38.6348 6.80266 38.6348 6.90652 38.5829 7.01038L38.2713 8.56824H37.9078L38.2194 7.01038C38.2194 6.90652 38.2713 6.85459 38.2713 6.75073C38.2713 6.3353 38.0636 6.12759 37.5443 6.12759C36.9731 6.12759 36.5577 6.43916 36.4019 7.06231L36.0903 8.51631H35.7268L36.2461 5.76409H36.6096L36.5057 6.17952C36.7654 5.86794 37.1289 5.71216 37.5962 5.71216C38.2713 5.81602 38.6348 6.17952 38.6348 6.6988Z" fill="#CBD5E1"/>
<path d="M42.4258 5.81601L41.9585 8.20474C41.7507 9.19138 41.2834 9.55488 40.3487 9.55488C39.8294 9.55488 39.4139 9.3991 39.1543 9.13946L39.362 8.87981C39.5697 9.08753 39.9332 9.24331 40.4006 9.24331C41.0757 9.24331 41.4392 8.93174 41.5949 8.25667L41.6469 7.94509C41.3872 8.25667 41.0237 8.41245 40.5564 8.41245C39.8294 8.41245 39.362 7.99702 39.362 7.32195C39.362 6.43916 39.9852 5.76408 40.9199 5.76408C41.4392 5.76408 41.8546 5.9718 42.0104 6.38723L42.1142 5.76408L42.4258 5.81601ZM41.8027 6.95845C41.8027 6.43916 41.4392 6.17951 40.9199 6.17951C40.2448 6.17951 39.7255 6.6988 39.7255 7.37388C39.7255 7.89316 40.0371 8.15281 40.6083 8.15281C41.2834 8.15281 41.8027 7.63352 41.8027 6.95845Z" fill="#CBD5E1"/>
<path d="M47.3589 6.95845C47.3589 7.89316 46.6838 8.56824 45.801 8.56824C45.2818 8.56824 44.9183 8.36052 44.7625 7.99702L44.4509 9.55488H44.0874L44.8144 5.81601H45.1779L45.0741 6.23144C45.3337 5.91987 45.6972 5.76408 46.1646 5.76408C46.8396 5.81601 47.3589 6.28337 47.3589 6.95845ZM46.9435 7.01037C46.9435 6.49109 46.6319 6.17951 46.0607 6.17951C45.3856 6.17951 44.8663 6.6988 44.8663 7.47773C44.8663 7.99702 45.1779 8.30859 45.7491 8.30859C46.4761 8.25667 46.9435 7.73738 46.9435 7.01037Z" fill="#CBD5E1"/>
<path d="M50.8381 5.81601L50.2669 8.56824H49.9034L50.0073 8.1528C49.7476 8.41245 49.3841 8.62016 48.9168 8.62016C48.2417 8.62016 47.7224 8.20473 47.7224 7.47773C47.7224 6.54301 48.3975 5.86794 49.2803 5.86794C49.7996 5.86794 50.1631 6.07565 50.3189 6.43915L50.4227 5.86794L50.8381 5.81601ZM50.215 7.01037C50.215 6.49108 49.9034 6.17951 49.3322 6.17951C48.6571 6.17951 48.1378 6.6988 48.1378 7.47773C48.1378 7.99702 48.4494 8.30859 49.0206 8.30859C49.7476 8.25666 50.215 7.73737 50.215 7.01037Z" fill="#CBD5E1"/>
<path d="M51.9287 7.73738C51.9287 7.78931 51.9287 7.84124 51.9287 7.89317C51.9287 8.10088 52.0326 8.25667 52.3441 8.25667C52.4999 8.25667 52.6557 8.20474 52.7596 8.10088L52.8634 8.36053C52.7076 8.46438 52.448 8.51631 52.2403 8.51631C51.8249 8.51631 51.5652 8.25667 51.5652 7.89317C51.5652 7.84124 51.5652 7.73738 51.5652 7.68545L51.8768 6.07566H51.4094L51.4614 5.76409H51.9287L52.0326 5.19287H52.3961L52.2922 5.76409H53.1231L53.0711 6.07566H52.2403L51.9287 7.73738Z" fill="#CBD5E1"/>
<path d="M56.2908 6.69881C56.2908 6.80266 56.2908 6.90652 56.2389 7.01038L55.9273 8.56824H55.5638L55.8754 7.01038C55.8754 6.90652 55.9273 6.85459 55.9273 6.75074C55.9273 6.33531 55.7196 6.12759 55.2003 6.12759C54.6291 6.12759 54.2137 6.43916 54.0579 7.06231L53.7463 8.51631H53.3828L54.1617 4.67358H54.5252L54.2137 6.23145C54.4733 5.91987 54.8368 5.81602 55.2522 5.81602C55.9273 5.81602 56.2908 6.17952 56.2908 6.69881Z" fill="#CBD5E1"/>
<path d="M58.939 7.73738C58.939 7.78931 58.939 7.84124 58.939 7.89317C58.939 8.10088 59.0428 8.25667 59.3544 8.25667C59.5102 8.25667 59.666 8.20474 59.7698 8.10088L59.8737 8.36053C59.7179 8.46438 59.4583 8.51631 59.2505 8.51631C58.8351 8.51631 58.5755 8.25667 58.5755 7.89317C58.5755 7.84124 58.5755 7.73738 58.5755 7.68545L58.887 6.07566H58.4197L58.4716 5.76409H58.939L59.0428 5.19287H59.4063L59.3025 5.76409H60.1333L60.0814 6.07566H59.2505L58.939 7.73738Z" fill="#CBD5E1"/>
<path d="M60.3411 7.4258C60.3411 6.49108 61.0161 5.81601 61.9509 5.81601C62.7298 5.81601 63.1971 6.28337 63.1971 6.95844C63.1971 7.89316 62.5221 8.56824 61.5874 8.56824C60.8084 8.62016 60.3411 8.1528 60.3411 7.4258ZM62.7817 7.01037C62.7817 6.49108 62.4701 6.17951 61.8989 6.17951C61.2239 6.17951 60.7046 6.6988 60.7046 7.47773C60.7046 7.99702 61.0161 8.30859 61.5874 8.30859C62.2624 8.25666 62.7817 7.73737 62.7817 7.01037Z" fill="#CBD5E1"/>
<path d="M68.0266 6.95845C68.0266 7.89316 67.3516 8.56824 66.4688 8.56824C65.9495 8.56824 65.586 8.36052 65.4302 7.99702L65.1186 9.55488H64.7551L65.4821 5.81601H65.8456L65.7418 6.23144C66.0014 5.91987 66.3649 5.76408 66.8323 5.76408C67.5593 5.81601 68.0266 6.28337 68.0266 6.95845ZM67.6631 7.01037C67.6631 6.49109 67.3516 6.17951 66.7804 6.17951C66.1053 6.17951 65.586 6.6988 65.586 7.47773C65.586 7.99702 65.8976 8.30859 66.4688 8.30859C67.1439 8.25667 67.6631 7.73738 67.6631 7.01037Z" fill="#CBD5E1"/>
<path d="M70.4153 5.81601L70.3634 6.17951C70.3115 6.17951 70.3115 6.17951 70.2595 6.17951C69.6883 6.17951 69.2729 6.49108 69.169 7.16616L68.9094 8.56824H68.5459L69.0652 5.81601H69.4287L69.3248 6.3353C69.5325 5.9718 69.896 5.81601 70.4153 5.81601Z" fill="#CBD5E1"/>
<path d="M70.8827 7.32194C70.8827 7.37387 70.8827 7.37387 70.8827 7.4258C70.8827 7.99702 71.1943 8.25666 71.8174 8.25666C72.1809 8.25666 72.4925 8.1528 72.7002 7.89316L72.856 8.1528C72.5964 8.41245 72.1809 8.56824 71.7655 8.56824C70.9866 8.56824 70.4673 8.10088 70.4673 7.4258C70.4673 6.49108 71.0904 5.81601 71.9732 5.81601C72.7002 5.81601 73.1676 6.23144 73.1676 6.95844C73.1676 7.0623 73.1676 7.16616 73.1157 7.27002L70.8827 7.32194ZM70.8827 7.0623H72.856C72.856 7.01037 72.856 7.01037 72.856 6.95844C72.856 6.43915 72.4925 6.12758 72.0251 6.12758C71.4539 6.12758 71.0385 6.49108 70.8827 7.0623Z" fill="#CBD5E1"/>
<path d="M76.7508 6.95845C76.7508 7.89316 76.0757 8.56824 75.1929 8.56824C74.6736 8.56824 74.3101 8.36052 74.1543 7.99702L73.8427 9.55488H73.4792L74.2062 5.81601H74.5698L74.4659 6.23144C74.7255 5.91987 75.089 5.76408 75.5564 5.76408C76.2315 5.81601 76.7508 6.28337 76.7508 6.95845ZM76.3873 7.01037C76.3873 6.49109 76.0757 6.17951 75.5045 6.17951C74.8294 6.17951 74.3101 6.6988 74.3101 7.47773C74.3101 7.99702 74.6217 8.30859 75.1929 8.30859C75.868 8.25667 76.3873 7.73738 76.3873 7.01037Z" fill="#CBD5E1"/>
<path d="M80.23 5.81601L79.6588 8.56824H79.2953L79.3991 8.1528C79.1395 8.41245 78.776 8.62016 78.3086 8.62016C77.5816 8.62016 77.1143 8.20473 77.1143 7.47773C77.1143 6.54301 77.7893 5.86794 78.6721 5.86794C79.1914 5.86794 79.5549 6.07565 79.7107 6.43915L79.8146 5.86794L80.23 5.81601ZM79.6588 7.01037C79.6588 6.49108 79.3472 6.17951 78.776 6.17951C78.1009 6.17951 77.5816 6.6988 77.5816 7.47773C77.5816 7.99702 77.8932 8.30859 78.4644 8.30859C79.1395 8.25666 79.6588 7.73737 79.6588 7.01037Z" fill="#CBD5E1"/>
<path d="M82.6705 5.81601L82.6185 6.17951C82.5666 6.17951 82.5666 6.17951 82.5147 6.17951C81.9435 6.17951 81.528 6.49108 81.4242 7.16616L81.1645 8.56824H80.801L81.3203 5.81601H81.6838L81.58 6.3353C81.7877 5.9718 82.1512 5.81601 82.6705 5.81601Z" fill="#CBD5E1"/>
<path d="M83.0861 7.32194C83.0861 7.37387 83.0861 7.37387 83.0861 7.4258C83.0861 7.99702 83.3977 8.25666 84.0208 8.25666C84.3843 8.25666 84.6959 8.1528 84.9036 7.89316L85.0594 8.1528C84.7997 8.41245 84.3843 8.56824 83.9689 8.56824C83.1899 8.56824 82.6707 8.10088 82.6707 7.4258C82.6707 6.49108 83.2938 5.81601 84.1766 5.81601C84.9036 5.81601 85.3709 6.23144 85.3709 6.95844C85.3709 7.0623 85.371 7.16616 85.319 7.27002L83.0861 7.32194ZM83.138 7.0623H85.1113C85.1113 7.01037 85.1113 7.01037 85.1113 6.95844C85.1113 6.43915 84.7478 6.12758 84.2804 6.12758C83.6573 6.12758 83.2419 6.49108 83.138 7.0623Z" fill="#CBD5E1"/>
<path d="M88.279 5.55637L88.227 5.86795H89.0579L89.006 6.17952H88.1751L87.7077 8.62017H87.3442L87.8116 6.17952H87.3442L87.3962 5.86795H87.8635L87.9155 5.50444C88.0193 4.98516 88.3309 4.67358 88.8502 4.67358C89.0579 4.67358 89.2656 4.72551 89.4214 4.82937L89.2656 5.08901C89.1617 4.98516 89.0579 4.93323 88.8502 4.93323C88.5386 4.98516 88.3828 5.19287 88.279 5.55637Z" fill="#CBD5E1"/>
<path d="M88.9539 7.4258C88.9539 6.49108 89.6289 5.81601 90.5636 5.81601C91.3426 5.81601 91.8099 6.28337 91.8099 6.95844C91.8099 7.89316 91.1349 8.56824 90.2001 8.56824C89.4212 8.62016 88.9539 8.1528 88.9539 7.4258ZM91.3945 7.01037C91.3945 6.49108 91.0829 6.17951 90.5117 6.17951C89.8366 6.17951 89.3174 6.6988 89.3174 7.47773C89.3174 7.99702 89.6289 8.30859 90.2001 8.30859C90.8752 8.25666 91.3945 7.73737 91.3945 7.01037Z" fill="#CBD5E1"/>
<path d="M94.1468 5.81601L94.0949 6.17951C94.0429 6.17951 94.0429 6.17951 93.991 6.17951C93.4198 6.17951 93.0043 6.49108 92.9005 7.16616L92.6408 8.56824H92.2773L92.7966 5.81601H93.1601L93.0563 6.3353C93.264 5.9718 93.6275 5.81601 94.1468 5.81601Z" fill="#CBD5E1"/>
<path d="M96.5355 4.72551H97.4702L97.4183 5.03708H96.847L96.0162 9.29524H96.5874L96.5355 9.60682H95.5488L96.5355 4.72551Z" fill="#CBD5E1"/>
<path d="M98.9242 5.2448H97.626L97.6779 4.93323H100.638L100.586 5.2448H99.2877L98.6126 8.56824H98.2491L98.9242 5.2448Z" fill="#CBD5E1"/>
<path d="M103.286 6.69881C103.286 6.80266 103.286 6.90652 103.234 7.01038L102.923 8.56824H102.559L102.871 7.01038C102.871 6.90652 102.923 6.85459 102.923 6.75074C102.923 6.33531 102.715 6.12759 102.196 6.12759C101.625 6.12759 101.209 6.43916 101.105 7.06231L100.794 8.51631H100.43L101.209 4.67358H101.573L101.261 6.23145C101.521 5.91987 101.884 5.81602 102.3 5.81602C102.975 5.81602 103.286 6.17952 103.286 6.69881Z" fill="#CBD5E1"/>
<path d="M104.325 7.32194C104.325 7.37387 104.325 7.37387 104.325 7.4258C104.325 7.99702 104.636 8.25666 105.26 8.25666C105.623 8.25666 105.935 8.1528 106.142 7.89316L106.298 8.1528C106.038 8.41245 105.623 8.56824 105.208 8.56824C104.429 8.56824 103.909 8.10088 103.909 7.4258C103.909 6.49108 104.533 5.81601 105.415 5.81601C106.142 5.81601 106.61 6.23144 106.61 6.95844C106.61 7.0623 106.61 7.16616 106.558 7.27002L104.325 7.32194ZM104.377 7.0623H106.35C106.35 7.01037 106.35 7.01037 106.35 6.95844C106.35 6.43915 105.987 6.12758 105.519 6.12758C104.896 6.12758 104.481 6.49108 104.377 7.0623Z" fill="#CBD5E1"/>
<path d="M109.622 5.2448L109.362 6.54302H111.231L111.18 6.8546H109.31L109.05 8.20474H111.231L111.18 8.51632H108.635L109.362 4.8813H111.855L111.803 5.19287L109.622 5.2448Z" fill="#CBD5E1"/>
<path d="M114.815 6.6988C114.815 6.80266 114.815 6.90652 114.763 7.01038L114.451 8.56824H114.088L114.399 7.01038C114.399 6.90652 114.451 6.85459 114.451 6.75073C114.451 6.3353 114.243 6.12759 113.724 6.12759C113.153 6.12759 112.737 6.43916 112.634 7.06231L112.322 8.51631H111.958L112.478 5.76409H112.841L112.737 6.17952C112.997 5.86794 113.361 5.71216 113.828 5.71216C114.451 5.81602 114.815 6.17952 114.815 6.6988Z" fill="#CBD5E1"/>
<path d="M118.605 5.81601L118.138 8.20474C117.93 9.19138 117.411 9.55488 116.528 9.55488C116.009 9.55488 115.593 9.3991 115.282 9.13946L115.489 8.87981C115.697 9.08753 116.061 9.24331 116.528 9.24331C117.203 9.24331 117.567 8.93174 117.722 8.25667L117.774 7.94509C117.515 8.25667 117.151 8.41245 116.684 8.41245C115.957 8.41245 115.489 7.99702 115.489 7.32195C115.489 6.43916 116.113 5.76408 117.047 5.76408C117.567 5.76408 117.982 5.9718 118.138 6.38723L118.242 5.76408L118.605 5.81601ZM117.982 6.95845C117.982 6.43916 117.67 6.17951 117.099 6.17951C116.424 6.17951 115.905 6.6988 115.905 7.37388C115.905 7.89316 116.216 8.15281 116.788 8.15281C117.463 8.15281 117.982 7.63352 117.982 6.95845Z" fill="#CBD5E1"/>
<path d="M119.851 4.72551H120.215L119.436 8.56824H119.073L119.851 4.72551Z" fill="#CBD5E1"/>
<path d="M121.046 5.81601H121.409L120.89 8.56824H120.475L121.046 5.81601ZM121.098 4.98515C121.098 4.82937 121.202 4.72551 121.409 4.72551C121.565 4.72551 121.669 4.82937 121.669 4.93322C121.669 5.08901 121.565 5.2448 121.357 5.2448C121.202 5.2448 121.098 5.14094 121.098 4.98515Z" fill="#CBD5E1"/>
<path d="M121.565 8.25666L121.721 7.94509C121.929 8.1528 122.292 8.25666 122.656 8.25666C123.175 8.25666 123.487 8.04895 123.487 7.7893C123.487 7.16616 121.929 7.58159 121.929 6.64687C121.929 6.12758 122.396 5.81601 123.123 5.81601C123.487 5.81601 123.85 5.91987 124.058 6.07565L123.902 6.38723C123.694 6.23144 123.383 6.17951 123.123 6.17951C122.604 6.17951 122.344 6.38723 122.344 6.6988C122.344 7.32194 123.902 6.90651 123.902 7.7893C123.902 8.30859 123.435 8.62016 122.708 8.62016C122.24 8.62016 121.825 8.46438 121.565 8.25666Z" fill="#CBD5E1"/>
<path d="M127.277 6.69881C127.277 6.80266 127.277 6.90652 127.226 7.01038L126.914 8.56824H126.55L126.862 7.01038C126.862 6.90652 126.914 6.85459 126.914 6.75074C126.914 6.33531 126.706 6.12759 126.187 6.12759C125.616 6.12759 125.2 6.43916 125.096 7.06231L124.785 8.51631H124.421L125.2 4.67358H125.564L125.252 6.23145C125.512 5.91987 125.875 5.81602 126.291 5.81602C126.914 5.81602 127.277 6.17952 127.277 6.69881Z" fill="#CBD5E1"/>
<path d="M132.366 7.63352H131.639L131.432 8.56824H131.068L131.276 7.63352H129.251L129.303 7.37388L131.691 4.98515H132.159L129.874 7.32195H131.432L131.588 6.49109H131.951L131.795 7.32195H132.522C132.418 7.27002 132.366 7.63352 132.366 7.63352Z" fill="#CBD5E1"/>
<path d="M133.768 5.2448L133.405 6.38724H133.872C134.807 6.38724 135.222 6.75074 135.222 7.32196C135.222 8.04896 134.651 8.56825 133.717 8.56825C133.145 8.56825 132.678 8.36053 132.47 8.10089L132.678 7.78931C132.886 8.04896 133.249 8.20474 133.717 8.20474C134.392 8.20474 134.807 7.89317 134.807 7.37388C134.807 6.95845 134.547 6.69881 133.768 6.69881H132.938L133.509 4.8813H135.482L135.43 5.19287L133.768 5.2448Z" fill="#CBD5E1"/>
<path d="M141.921 6.6988C141.921 6.80266 141.921 6.90652 141.869 7.01038L141.558 8.56824H141.194L141.506 7.01038C141.506 6.90652 141.506 6.85459 141.506 6.75073C141.506 6.38723 141.298 6.12759 140.831 6.12759C140.311 6.12759 139.896 6.43916 139.792 7.06231L139.481 8.56824H139.117L139.429 7.01038C139.429 6.90652 139.429 6.85459 139.429 6.75073C139.429 6.3353 139.221 6.12759 138.754 6.12759C138.182 6.12759 137.819 6.43916 137.663 7.06231L137.352 8.51631H136.988L137.507 5.76409H137.871L137.767 6.17952C138.027 5.86794 138.39 5.71216 138.806 5.71216C139.273 5.71216 139.584 5.91987 139.688 6.28338C139.948 5.91987 140.363 5.71216 140.831 5.71216C141.558 5.81602 141.921 6.12759 141.921 6.6988Z" fill="#CBD5E1"/>
<path d="M143.116 5.81601H143.479L142.96 8.56824H142.596L143.116 5.81601ZM143.22 4.98515C143.22 4.82937 143.323 4.72551 143.479 4.72551C143.635 4.72551 143.739 4.82937 143.739 4.93322C143.739 5.08901 143.635 5.2448 143.427 5.2448C143.323 5.2448 143.22 5.14094 143.22 4.98515Z" fill="#CBD5E1"/>
<path d="M146.855 6.6988C146.855 6.80266 146.855 6.90652 146.803 7.01038L146.491 8.56824H146.128L146.439 7.01038C146.439 6.90652 146.439 6.85459 146.439 6.75073C146.439 6.3353 146.179 6.12759 145.712 6.12759C145.141 6.12759 144.725 6.43916 144.622 7.06231L144.31 8.51631H143.947L144.466 5.76409H144.829L144.725 6.17952C144.985 5.86794 145.349 5.71216 145.816 5.71216C146.491 5.81602 146.855 6.17952 146.855 6.6988Z" fill="#CBD5E1"/>
<path d="M150.541 5.81601L150.022 8.56824H149.659L149.763 8.1528C149.503 8.46438 149.139 8.62016 148.724 8.62016C148.101 8.62016 147.737 8.30859 147.737 7.73737C147.737 7.63352 147.737 7.52966 147.789 7.4258L148.101 5.86794H148.464L148.153 7.4258C148.153 7.52966 148.153 7.58159 148.153 7.68545C148.153 8.10088 148.36 8.30859 148.828 8.30859C149.399 8.30859 149.814 7.99702 149.918 7.37387L150.23 5.91987L150.541 5.81601Z" fill="#CBD5E1"/>
<path d="M151.58 7.73738C151.58 7.78931 151.58 7.84124 151.58 7.89317C151.58 8.10088 151.684 8.25667 151.996 8.25667C152.151 8.25667 152.307 8.20474 152.411 8.10088L152.515 8.36053C152.359 8.46438 152.099 8.51631 151.892 8.51631C151.476 8.51631 151.217 8.25667 151.217 7.89317C151.217 7.84124 151.217 7.73738 151.217 7.68545L151.528 6.07566H151.061L151.113 5.76409H151.58L151.684 5.19287H152.047L151.944 5.76409H152.774L152.723 6.07566H151.892L151.58 7.73738Z" fill="#CBD5E1"/>
<path d="M153.346 7.32194C153.346 7.37387 153.346 7.37387 153.346 7.4258C153.346 7.99702 153.657 8.25666 154.28 8.25666C154.644 8.25666 154.955 8.1528 155.163 7.89316L155.319 8.1528C155.059 8.41245 154.644 8.56824 154.228 8.56824C153.449 8.56824 152.93 8.10088 152.93 7.4258C152.93 6.49108 153.553 5.81601 154.436 5.81601C155.163 5.81601 155.63 6.23144 155.63 6.95844C155.63 7.0623 155.63 7.16616 155.579 7.27002L153.346 7.32194ZM153.398 7.0623H155.371C155.371 7.01037 155.371 7.01037 155.371 6.95844C155.371 6.43915 155.007 6.12758 154.54 6.12758C153.969 6.12758 153.553 6.49108 153.398 7.0623Z" fill="#CBD5E1"/>
<path d="M155.89 8.25666L156.046 7.94509C156.254 8.1528 156.617 8.25666 156.981 8.25666C157.5 8.25666 157.811 8.04895 157.811 7.7893C157.811 7.16616 156.254 7.58159 156.254 6.64687C156.254 6.12758 156.721 5.81601 157.448 5.81601C157.812 5.81601 158.175 5.91987 158.383 6.07565L158.227 6.38723C158.019 6.23144 157.708 6.17951 157.448 6.17951C156.929 6.17951 156.669 6.38723 156.669 6.6988C156.669 7.32194 158.227 6.90651 158.227 7.7893C158.227 8.30859 157.76 8.62016 157.033 8.62016C156.513 8.62016 156.098 8.46438 155.89 8.25666Z" fill="#CBD5E1"/>
<path d="M160.667 7.73738C160.667 7.78931 160.667 7.84124 160.667 7.89317C160.667 8.10088 160.771 8.25667 161.083 8.25667C161.239 8.25667 161.394 8.20474 161.498 8.10088L161.602 8.36053C161.446 8.46438 161.187 8.51631 160.979 8.51631C160.564 8.51631 160.304 8.25667 160.304 7.89317C160.304 7.84124 160.304 7.73738 160.304 7.68545L160.616 6.07566H160.148L160.2 5.76409H160.667L160.771 5.19287H161.135L161.031 5.76409H161.862L161.81 6.07566H160.979L160.667 7.73738Z" fill="#CBD5E1"/>
<path d="M162.433 7.32194C162.433 7.37387 162.433 7.37387 162.433 7.4258C162.433 7.99702 162.745 8.25666 163.368 8.25666C163.731 8.25666 164.043 8.1528 164.251 7.89316L164.407 8.1528C164.147 8.41245 163.731 8.56824 163.316 8.56824C162.537 8.56824 162.018 8.10088 162.018 7.4258C162.018 6.49108 162.641 5.81601 163.524 5.81601C164.251 5.81601 164.718 6.23144 164.718 6.95844C164.718 7.0623 164.718 7.16616 164.666 7.27002L162.433 7.32194ZM162.485 7.0623H164.458C164.458 7.01037 164.458 7.01037 164.458 6.95844C164.458 6.43915 164.095 6.12758 163.628 6.12758C163.004 6.12758 162.589 6.49108 162.485 7.0623Z" fill="#CBD5E1"/>
<path d="M164.926 8.25666L165.082 7.94509C165.289 8.1528 165.653 8.25666 166.016 8.25666C166.536 8.25666 166.847 8.04895 166.847 7.7893C166.847 7.16616 165.289 7.58159 165.289 6.64687C165.289 6.12758 165.757 5.81601 166.484 5.81601C166.847 5.81601 167.211 5.91987 167.418 6.07565L167.263 6.38723C167.055 6.23144 166.743 6.17951 166.484 6.17951C165.964 6.17951 165.705 6.38723 165.705 6.6988C165.705 7.32194 167.263 6.90651 167.263 7.7893C167.263 8.30859 166.795 8.62016 166.068 8.62016C165.601 8.62016 165.185 8.46438 164.926 8.25666Z" fill="#CBD5E1"/>
<path d="M168.353 7.73738C168.353 7.78931 168.353 7.84124 168.353 7.89317C168.353 8.10088 168.457 8.25667 168.768 8.25667C168.924 8.25667 169.08 8.20474 169.184 8.10088L169.288 8.36053C169.132 8.46438 168.872 8.51631 168.665 8.51631C168.249 8.51631 167.99 8.25667 167.99 7.89317C167.99 7.84124 167.99 7.73738 167.99 7.68545L168.301 6.07566H167.834L167.886 5.76409H168.353L168.457 5.19287H168.82L168.717 5.76409H169.547L169.495 6.07566H168.665L168.353 7.73738Z" fill="#CBD5E1"/>
<path d="M169.288 9.60682L169.34 9.29524H169.911L170.742 5.03708H170.171L170.223 4.72551H171.157L170.171 9.60682C170.223 9.60682 169.288 9.60682 169.288 9.60682Z" fill="#CBD5E1"/>
<path d="M171.78 22.8487L171.521 24.1469H171.105L171.365 22.8487L170.326 20.3561H170.742L171.625 22.4852L173.338 20.3561H173.754L171.78 22.8487Z" fill="black"/>
<path d="M173.234 22.9525C173.234 21.9659 173.909 21.2389 174.896 21.2389C175.675 21.2389 176.194 21.7062 176.194 22.4332C176.194 23.4199 175.519 24.1469 174.533 24.1469C173.702 24.1469 173.234 23.6795 173.234 22.9525ZM175.779 22.4852C175.779 21.9139 175.415 21.6024 174.844 21.6024C174.117 21.6024 173.598 22.1736 173.598 22.9525C173.598 23.5237 173.961 23.8353 174.533 23.8353C175.26 23.8353 175.779 23.2641 175.779 22.4852Z" fill="black"/>
<path d="M179.778 21.2908L179.206 24.1469H178.843L178.947 23.6795C178.687 23.9911 178.272 24.1469 177.856 24.1469C177.233 24.1469 176.818 23.7834 176.818 23.2122C176.818 23.1083 176.818 23.0045 176.87 22.9006L177.181 21.2908H177.545L177.233 22.9006C177.233 23.0045 177.233 23.0564 177.233 23.1602C177.233 23.5757 177.493 23.8353 177.96 23.8353C178.583 23.8353 178.999 23.4718 179.102 22.8487L179.414 21.2908H179.778Z" fill="black"/>
<path d="M182.322 21.2389L182.27 21.6024C182.218 21.6024 182.218 21.6024 182.166 21.6024C181.543 21.6024 181.128 21.9659 181.024 22.641L180.764 24.095H180.401L180.972 21.2389H181.335L181.231 21.7582C181.387 21.3947 181.803 21.2389 182.322 21.2389Z" fill="black"/>
<path d="M187.151 21.2908L186.632 23.7834C186.424 24.822 185.905 25.2374 184.97 25.2374C184.451 25.2374 183.984 25.0816 183.672 24.822L183.88 24.5104C184.088 24.77 184.503 24.8739 184.97 24.8739C185.697 24.8739 186.061 24.5623 186.217 23.8353L186.269 23.5237C186.009 23.8353 185.593 23.9911 185.126 23.9911C184.347 23.9911 183.88 23.5757 183.88 22.8487C183.88 21.9139 184.555 21.2389 185.49 21.2389C186.009 21.2389 186.424 21.4466 186.58 21.914L186.684 21.2908C186.788 21.2908 187.151 21.2908 187.151 21.2908ZM186.476 22.4332C186.476 21.914 186.113 21.6024 185.542 21.6024C184.815 21.6024 184.295 22.1217 184.295 22.8487C184.295 23.368 184.659 23.6795 185.23 23.6795C185.957 23.6795 186.476 23.1602 186.476 22.4332Z" fill="black"/>
<path d="M187.619 22.9525C187.619 21.9659 188.294 21.2389 189.28 21.2389C190.059 21.2389 190.579 21.7062 190.579 22.4332C190.579 23.4199 189.904 24.1469 188.917 24.1469C188.138 24.1469 187.619 23.6795 187.619 22.9525ZM190.163 22.4852C190.163 21.9139 189.8 21.6024 189.228 21.6024C188.501 21.6024 187.982 22.1736 187.982 22.9525C187.982 23.5237 188.346 23.8353 188.917 23.8353C189.644 23.8353 190.163 23.2641 190.163 22.4852Z" fill="black"/>
<path d="M194.214 21.2908L193.642 24.1469H193.279L193.383 23.6795C193.123 23.9911 192.708 24.1469 192.292 24.1469C191.565 24.1469 191.046 23.6795 191.046 22.9525C191.046 21.9659 191.721 21.2389 192.656 21.2389C193.175 21.2389 193.59 21.4466 193.746 21.862L193.85 21.2389H194.214V21.2908ZM193.59 22.4852C193.59 21.9139 193.227 21.6024 192.656 21.6024C191.929 21.6024 191.409 22.1736 191.409 22.9525C191.409 23.5237 191.773 23.8353 192.344 23.8353C193.071 23.8353 193.59 23.2641 193.59 22.4852Z" fill="black"/>
<path d="M195.564 20.0964H195.927L195.148 24.1469H194.733L195.564 20.0964Z" fill="black"/>
</g>
<g clip-path="url(#clip1_555_781)">
<path d="M-15.8799 169.599C-15.8799 169.599 1.42279 119.753 34.1171 114.768C69.0652 109.44 116.985 120.937 121.648 108.318C126.633 94.8272 71.3553 77.6751 87.339 72.5445C106.34 66.4429 181.626 83.0445 187.629 76.8442C198.041 66.0898 131.52 51.6276 145.598 48.3042C159.676 44.9807 190.36 55.0809 192.91 51.6276C195.065 48.704 181.751 42.4829 181.751 42.4829L184.259 42.0831C184.259 42.0831 218.08 58.4666 175 52.0171C137.777 46.4451 210.893 69.4184 202.88 81.9281C194.868 94.4377 84.4102 67.658 113.148 84.862C141.885 102.066 176.62 127.433 119.01 123.57C66.5207 120.049 21.6542 143.069 38.9569 169.605H-15.8799V169.599Z" fill="#FFCB97"/>
</g>
<g clip-path="url(#clip2_555_781)">
<path d="M-15.8799 169.599L180.12 42.3064L182.607 42.4829L38.9569 169.599H-15.8799Z" fill="#FFEDD5"/>
</g>
<g clip-path="url(#clip3_555_781)">
<path d="M82.2034 299.733L159.577 235.912L185.542 264.473L267.433 206.573L318.999 299.681L82.2034 299.733Z" fill="#DE6501"/>
<path d="M157.864 241.728L142.908 263.435L140.26 257.567L90.4082 299.525H124.162L139.377 264.318L144.103 270.601L157.864 241.728Z" fill="#FB923C"/>
<path d="M203.457 292.982L298.383 292.255L295.786 263.383L200.964 264.058L203.457 292.982Z" fill="#1E293B"/>
<path d="M260.838 125.252L253.62 126.395L235.705 129.147L233.576 122.085C215.505 122.76 214.414 86.4095 214.414 86.4095C214.102 77.0623 225.423 72.3887 236.743 74.1543C244.896 75.4006 254.14 100.534 257.982 115.022C259.54 120.683 260.838 125.2 260.838 125.252Z" fill="#FED7AA"/>
<path d="M219.14 102.975C219.659 102.975 220.074 102.559 220.074 102.04C220.074 101.521 219.659 101.105 219.14 101.105C218.62 101.105 218.205 101.521 218.205 102.04C218.205 102.559 218.62 102.975 219.14 102.975Z" fill="#1E293B"/>
<path d="M222.255 100.482C221.944 100.482 221.632 100.223 221.58 99.911C221.424 99.0282 221.061 98.457 220.49 98.1454C219.295 97.4184 217.53 97.9896 217.53 97.9896C217.166 98.0935 216.751 97.8858 216.647 97.5223C216.543 97.1588 216.699 96.7433 217.114 96.6395C217.218 96.5875 219.503 95.8605 221.217 96.8991C222.151 97.4703 222.723 98.405 222.982 99.6513C223.034 100.015 222.774 100.378 222.411 100.482C222.359 100.43 222.307 100.43 222.255 100.482Z" fill="#1E293B"/>
<path d="M222.411 112.841C222.307 112.841 222.255 112.789 222.255 112.634C222.255 112.478 222.307 112.478 222.411 112.478C222.463 112.478 227.604 112.426 229.317 108.323C229.369 108.22 229.473 108.22 229.577 108.22C229.681 108.272 229.681 108.375 229.681 108.427C227.863 112.789 222.463 112.841 222.411 112.841Z" fill="#1E293B"/>
<path d="M235.705 100.482C235.705 100.482 237.107 96.951 233.939 93.4199C229.318 90.2003 214.829 94.4585 214.414 86.4095C213.947 78.3605 219.555 73.1677 229.733 72.9599C239.911 72.7522 246.662 79.3991 249.518 88.4866C250.245 90.8754 251.283 94.8739 251.283 94.8739L235.705 100.482Z" fill="#1E293B"/>
<path d="M234.043 93.5237C234.043 93.5237 236.847 90.3042 237.626 96.3279C238.405 102.352 236.639 104.221 235.341 102.819" fill="#FED7AA"/>
<path d="M236.172 103.442C235.86 103.442 235.497 103.286 235.185 102.975L235.445 102.715C235.653 102.975 236.016 103.234 236.432 103.027C237.315 102.611 237.938 100.378 237.418 96.3798C237.107 93.7834 236.38 93.0564 235.861 92.9006C235.03 92.6409 234.147 93.6795 234.147 93.6795L233.887 93.4718C233.939 93.4199 234.926 92.2774 235.964 92.589C236.847 92.8487 237.47 94.1469 237.73 96.3279C238.301 100.846 237.47 102.923 236.536 103.338C236.484 103.39 236.328 103.442 236.172 103.442Z" fill="#1E293B"/>
<path d="M235.705 129.147C235.705 129.147 220.697 142.233 211.973 164.51C197.797 200.601 201.224 252.737 200.964 264.058C219.763 265.2 291.632 265.2 295.786 263.383C299.941 261.565 292.723 198.16 291.684 175.519C291.113 163.004 276.469 131.639 260.527 124.214C250.245 125.616 235.705 129.147 235.705 129.147Z" fill="#FB7200"/>
<path d="M180.92 190.215C180.92 190.215 172.196 170.482 163.472 161.135C160.772 158.227 152.982 154.332 150.542 154.384C146.076 154.436 146.907 160.564 152.723 162.433C154.332 162.953 156.773 164.978 157.708 167.107C159.889 172.248 157.967 170.898 155.942 169.132C151.684 165.445 137.3 175.312 137.559 182.997C137.975 194.577 154.956 208.961 154.956 208.961L180.92 190.215Z" fill="#FED7AA"/>
<path d="M180.608 189.332C180.608 189.332 179.051 164.614 167.055 166.016C156.617 167.263 180.608 189.332 180.608 189.332Z" fill="#FED7AA"/>
<path d="M152.047 177.752C151.995 177.752 151.944 177.752 151.892 177.7L147.633 172.404C147.582 172.352 147.582 172.196 147.685 172.144C147.737 172.092 147.893 172.092 147.945 172.196L152.203 177.493C152.255 177.545 152.255 177.7 152.151 177.752C152.151 177.7 152.099 177.752 152.047 177.752Z" fill="#1E293B"/>
<path d="M145.141 184.295C145.089 184.295 145.037 184.295 144.985 184.243L140.779 178.843C140.727 178.791 140.727 178.635 140.831 178.583C140.883 178.531 141.039 178.531 141.091 178.635L145.297 184.036C145.349 184.088 145.349 184.243 145.297 184.295C145.193 184.295 145.141 184.295 145.141 184.295Z" fill="#1E293B"/>
<path d="M176.143 176.091C176.091 176.091 176.039 176.091 175.987 176.039L169.599 168.509C169.548 168.457 169.548 168.301 169.599 168.249C169.651 168.197 169.807 168.197 169.859 168.249L176.246 175.779C176.298 175.831 176.298 175.987 176.246 176.039C176.246 176.039 176.194 176.091 176.143 176.091Z" fill="#1E293B"/>
<path d="M149.607 160.927C149.555 160.927 149.503 160.927 149.503 160.875C149.451 160.875 146.024 157.76 148.049 155.267C150.074 152.774 155.319 155.682 155.527 155.838C155.631 155.89 155.631 155.994 155.579 156.098C155.527 156.202 155.423 156.202 155.319 156.15C155.267 156.15 150.126 153.294 148.309 155.527C146.491 157.76 149.659 160.616 149.711 160.616C149.763 160.668 149.815 160.772 149.711 160.875C149.711 160.875 149.659 160.927 149.607 160.927Z" fill="#1E293B"/>
<path d="M151.217 159.058L149.763 157.915C149.711 157.864 149.659 157.76 149.711 157.656C149.763 157.604 149.867 157.552 149.97 157.604L151.165 158.539L153.502 156.098C153.553 156.046 153.709 156.046 153.761 156.098C153.813 156.15 153.813 156.254 153.761 156.358L151.217 159.058Z" fill="#1E293B"/>
<path d="M158.435 162.329C158.383 162.329 158.331 162.329 158.331 162.277C158.279 162.226 158.279 162.122 158.331 162.018L160.304 160.045C160.356 159.993 160.512 159.993 160.564 160.045C160.616 160.096 160.616 160.2 160.564 160.304L158.591 162.277C158.539 162.277 158.487 162.329 158.435 162.329Z" fill="#1E293B"/>
<path d="M239.703 119.488C239.651 119.488 239.599 119.436 239.547 119.384C239.496 119.28 239.547 119.177 239.651 119.125C239.703 119.073 245.519 116.32 246.921 112.53C246.973 112.426 247.077 112.374 247.129 112.426C247.181 112.478 247.285 112.582 247.233 112.634C245.779 116.58 240.015 119.332 239.807 119.436C239.755 119.488 239.703 119.488 239.703 119.488Z" fill="#1E293B"/>
<path d="M235.134 96.1721C235.134 96.1721 235.964 95.7047 235.549 99.3917L235.134 96.1721Z" fill="#FED7AA"/>
<path d="M235.757 99.3917L235.393 99.3398C235.653 96.6914 235.341 96.3279 235.237 96.276L235.03 95.9644C235.134 95.9125 235.289 95.9125 235.393 95.9644C235.861 96.276 235.965 97.4184 235.757 99.3917Z" fill="#1E293B"/>
<path d="M232.953 208.286L180.712 185.074L154.956 209.065L221.165 255.593L232.953 208.286Z" fill="#FB7200"/>
<path d="M217.582 105.727C217.582 105.727 215.089 107.908 218.828 109.31L217.582 105.727Z" fill="#FED7AA"/>
<path d="M200.757 241.313C201.328 242.819 224.8 250.712 236.172 249.414V264.837C223.294 263.591 206.261 260.059 200.861 255.645L200.757 241.313Z" fill="#334155"/>
<path d="M238.613 128.16C238.613 128.16 237.834 127.018 235.705 129.147C233.576 131.276 229.525 135.586 229.525 135.586C229.525 135.586 238.872 135.742 240.274 139.896L238.613 128.16Z" fill="#334155"/>
<path d="M248.427 125.512C248.427 125.512 246.973 106.298 263.85 106.973C280.727 107.7 278.962 125.927 278.962 125.927H269.355C269.355 125.927 274.859 115.022 268.316 111.543C261.773 108.012 257.567 120.475 261.462 125.512H248.427Z" fill="#334155"/>
<path d="M237.99 127.589C237.99 127.589 261.15 118.709 282.181 123.591C298.798 127.485 320.401 150.957 322.218 174.169C324.036 197.381 361.113 230.304 346.677 250.972C332.189 271.639 294.8 275.326 276.002 271.276C257.203 267.277 237.99 127.589 237.99 127.589Z" fill="#FB923C"/>
<path d="M237.99 127.589C237.99 127.589 276.988 160.512 277.456 195.823C277.923 231.135 303.732 269.407 286.699 271.38C260.942 274.392 235.29 266.654 235.29 266.654L237.99 127.589Z" fill="#334155"/>
<path d="M282.025 191.565C281.922 191.565 281.87 191.513 281.87 191.41C281.87 191.306 281.922 191.254 282.025 191.202L326.788 189.488C326.892 189.488 326.944 189.54 326.944 189.644C326.944 189.748 326.892 189.8 326.788 189.852L282.025 191.565Z" fill="#334155"/>
<path d="M344.807 224.332H299.11V230.564H344.807V224.332Z" fill="#334155"/>
<path d="M247.96 221.58C247.96 221.58 245.312 202.522 259.54 202.522C273.769 202.522 271.899 221.58 271.899 221.58H247.96Z" fill="white"/>
<path d="M272.055 221.788H247.804V221.632C247.804 221.528 246.454 211.35 251.232 205.846C253.257 203.561 256.061 202.366 259.592 202.366C263.123 202.366 265.979 203.561 268.108 205.846C273.094 211.298 272.159 221.476 272.159 221.58L272.055 221.788ZM248.116 221.424H271.743C271.847 220.126 272.315 211.091 267.797 206.105C265.772 203.872 263.019 202.73 259.54 202.73C256.061 202.73 253.413 203.872 251.491 206.105C247.129 211.091 247.96 220.126 248.116 221.424Z" fill="#334155"/>
<path d="M275.794 218.724H243.235V224.384H275.794V218.724Z" fill="white"/>
<path d="M276.001 224.592H243.079V218.568H276.001V224.592ZM243.442 224.28H275.638V218.932H243.442V224.28Z" fill="#334155"/>
<path d="M262.604 196.031H255.957C255.022 196.031 254.243 196.81 254.243 197.745V201.536C254.243 202.47 255.022 203.249 255.957 203.249H262.604C263.539 203.249 264.318 202.47 264.318 201.536V197.745C264.318 196.81 263.539 196.031 262.604 196.031Z" fill="white"/>
<path d="M263.071 203.457H255.49C254.711 203.457 254.036 202.834 254.036 202.003V197.329C254.036 196.55 254.659 195.875 255.49 195.875H263.071C263.85 195.875 264.525 196.499 264.525 197.329V202.003C264.525 202.782 263.85 203.457 263.071 203.457ZM255.49 196.187C254.918 196.187 254.399 196.654 254.399 197.277V201.951C254.399 202.522 254.866 203.042 255.49 203.042H263.071C263.642 203.042 264.162 202.574 264.162 201.951V197.277C264.162 196.706 263.694 196.187 263.071 196.187H255.49Z" fill="#334155"/>
<path d="M298.902 180.089H289.399V200.861H298.902V180.089Z" fill="#334155"/>
<path d="M277.144 120.007C274.184 112.01 269.77 110.972 269.718 110.972L269.77 110.608C269.978 110.66 274.444 111.647 277.456 119.852L277.144 120.007Z" fill="white"/>
<path d="M322.114 180.089H312.611V200.861H322.114V180.089Z" fill="#334155"/>
<path d="M27.055 153.657C28.9763 153.657 30.4823 152.671 30.4823 151.528C30.4823 150.386 28.9244 149.399 27.055 149.399C25.1855 149.399 23.6277 150.386 23.6277 151.528C23.6277 152.671 25.1336 153.657 27.055 153.657Z" fill="#1E293B"/>
<path fill-rule="evenodd" clip-rule="evenodd" d="M27.0551 134.599C24.5106 134.599 22.3815 136.78 22.3815 139.585C22.3815 140.208 22.6411 140.935 23.1085 141.766C23.5758 142.596 24.2509 143.427 24.8741 144.154C25.5491 144.933 26.1723 145.556 26.6916 146.024C26.8473 146.18 26.9512 146.283 27.0551 146.387C27.1589 146.283 27.3147 146.18 27.4186 146.024C27.9379 145.556 28.561 144.881 29.2361 144.154C29.9111 143.375 30.5343 142.596 31.0017 141.766C31.469 140.935 31.7287 140.156 31.7287 139.585C31.7287 136.78 29.5996 134.599 27.0551 134.599ZM27.0551 147.322C26.7435 147.634 26.6396 147.841 26.6396 147.841C26.6396 147.841 26.6396 147.841 26.5877 147.789C26.5358 147.737 26.4838 147.685 26.4319 147.634C26.2761 147.478 26.0684 147.322 25.8088 147.062C25.2895 146.595 24.6144 145.868 23.9393 145.089C23.2643 144.31 22.5373 143.375 22.018 142.493C21.4987 141.558 21.0833 140.571 21.0833 139.636C21.0833 136.157 23.7316 133.301 27.107 133.301C30.4824 133.301 33.1307 136.157 33.1307 139.636C33.1307 140.571 32.7153 141.61 32.196 142.493C31.6767 143.427 30.9497 144.31 30.2746 145.089C29.5996 145.868 28.8726 146.595 28.4052 147.062C28.1456 147.322 27.9379 147.53 27.7821 147.634C27.6782 147.685 27.6263 147.737 27.6263 147.789L27.5744 147.841L27.0551 147.322ZM27.0551 147.322L27.4705 147.841L27.0551 148.205L26.6396 147.841L27.0551 147.322ZM27.0551 137.196C26.1203 137.196 25.3414 137.975 25.3414 138.961C25.3414 139.948 26.1203 140.727 27.0551 140.727C27.9898 140.727 28.7687 139.948 28.7687 138.961C28.7687 137.975 27.9898 137.196 27.0551 137.196ZM23.9913 138.961C23.9913 137.248 25.3414 135.846 27.0551 135.846C28.7687 135.846 30.1189 137.248 30.1189 138.961C30.1189 140.675 28.7687 142.077 27.0551 142.077C25.3414 142.077 23.9913 140.623 23.9913 138.961Z" fill="#1E293B"/>
<path d="M18.4348 159.785L18.1751 161.031H17.7597L18.0194 159.733L17.0327 157.292H17.4481L18.3309 159.421L20.0446 157.292H20.46L18.4348 159.785Z" fill="black"/>
<path d="M19.8369 159.889C19.8369 158.954 20.512 158.227 21.4467 158.227C22.2256 158.227 22.7449 158.694 22.7449 159.421C22.7449 160.408 22.0699 161.083 21.1351 161.083C20.3562 161.083 19.8369 160.616 19.8369 159.889ZM22.3814 159.421C22.3814 158.85 22.0699 158.539 21.4467 158.539C20.7716 158.539 20.2523 159.11 20.2523 159.837C20.2523 160.408 20.5639 160.72 21.1871 160.72C21.8621 160.772 22.3814 160.2 22.3814 159.421Z" fill="black"/>
<path d="M26.3279 158.227L25.7567 161.031H25.3932L25.4971 160.564C25.2374 160.875 24.822 161.031 24.4066 161.031C23.7834 161.031 23.4199 160.668 23.4199 160.096C23.4199 159.993 23.4199 159.889 23.4719 159.785L23.7834 158.175H24.1469L23.8354 159.785C23.8354 159.889 23.7834 159.941 23.7834 160.045C23.7834 160.46 24.0431 160.668 24.5104 160.668C25.0816 160.668 25.4971 160.356 25.6529 159.681L25.9644 158.175H26.3279V158.227Z" fill="black"/>
<path d="M31.3652 158.227L30.7939 161.031H30.4304L30.5343 160.564C30.2747 160.875 29.9112 161.031 29.4438 161.031C28.7168 161.031 28.1975 160.564 28.1975 159.837C28.1975 158.85 28.8726 158.175 29.8073 158.175C30.3266 158.175 30.742 158.383 30.8978 158.798L31.0017 158.227H31.3652ZM30.742 159.421C30.742 158.85 30.4304 158.539 29.8073 158.539C29.1322 158.539 28.6129 159.11 28.6129 159.837C28.6129 160.408 28.9245 160.72 29.5477 160.72C30.2227 160.772 30.742 160.2 30.742 159.421Z" fill="black"/>
<path d="M33.8576 158.227L33.8057 158.591C33.7538 158.591 33.7538 158.591 33.7019 158.591C33.0787 158.591 32.7152 158.954 32.5594 159.629L32.2998 161.083H31.9363L32.5075 158.279H32.871L32.7671 158.798C32.9229 158.383 33.2864 158.227 33.8576 158.227Z" fill="black"/>
<path d="M34.2732 159.733C34.2732 159.785 34.2732 159.785 34.2732 159.837C34.2732 160.408 34.5847 160.72 35.2598 160.72C35.6233 160.72 35.9868 160.564 36.1945 160.356L36.3503 160.616C36.0907 160.875 35.6752 161.031 35.2079 161.031C34.377 161.031 33.9097 160.564 33.9097 159.837C33.9097 158.902 34.5847 158.175 35.4675 158.175C36.1945 158.175 36.7138 158.642 36.7138 159.369C36.7138 159.473 36.7138 159.629 36.6619 159.733H34.2732ZM34.3251 159.473H36.3503C36.3503 159.421 36.3503 159.421 36.3503 159.369C36.3503 158.85 35.9868 158.539 35.4675 158.539C34.8963 158.539 34.4809 158.902 34.3251 159.473Z" fill="black"/>
<path d="M23.8355 165.549C23.8355 165.653 23.8355 165.757 23.7836 165.861L23.472 167.47H23.1085L23.4201 165.861C23.4201 165.757 23.472 165.705 23.472 165.601C23.472 165.185 23.2124 164.978 22.745 164.978C22.1219 164.978 21.7584 165.289 21.6026 165.964L21.291 167.47H20.9275L21.7064 163.524H22.0699L21.7584 165.082C22.018 164.77 22.3815 164.614 22.8489 164.614C23.472 164.666 23.8355 164.978 23.8355 165.549Z" fill="black"/>
<path d="M24.874 166.172C24.874 166.224 24.874 166.224 24.874 166.276C24.874 166.847 25.1856 167.159 25.8606 167.159C26.2241 167.159 26.5876 167.003 26.7954 166.795L26.9512 167.055C26.6915 167.315 26.2761 167.47 25.8087 167.47C24.9779 167.47 24.5105 167.003 24.5105 166.276C24.5105 165.341 25.1856 164.614 26.0684 164.614C26.7954 164.614 27.3147 165.082 27.3147 165.809C27.3147 165.912 27.3147 166.068 27.2627 166.172H24.874ZM24.9259 165.912H26.9512C26.9512 165.861 26.9512 165.861 26.9512 165.809C26.9512 165.289 26.5876 164.978 26.0684 164.978C25.4971 164.978 25.0817 165.341 24.9259 165.912Z" fill="black"/>
<path d="M29.7553 164.666L29.7034 165.03C29.6515 165.03 29.6515 165.03 29.5996 165.03C28.9764 165.03 28.6129 165.393 28.4571 166.068L28.1975 167.522H27.834L28.4052 164.718H28.7687L28.6648 165.237C28.8206 164.822 29.2361 164.666 29.7553 164.666Z" fill="black"/>
<path d="M30.1706 166.172C30.1706 166.224 30.1706 166.224 30.1706 166.276C30.1706 166.847 30.4822 167.159 31.1573 167.159C31.5208 167.159 31.8843 167.003 32.092 166.795L32.2478 167.055C31.9881 167.315 31.5727 167.47 31.1053 167.47C30.2745 167.47 29.8071 167.003 29.8071 166.276C29.8071 165.341 30.4822 164.614 31.365 164.614C32.092 164.614 32.6113 165.082 32.6113 165.809C32.6113 165.912 32.6113 166.068 32.5594 166.172H30.1706ZM30.2226 165.912H32.2478C32.2478 165.861 32.2478 165.861 32.2478 165.809C32.2478 165.289 31.8843 164.978 31.365 164.978C30.7938 164.978 30.3783 165.341 30.2226 165.912Z" fill="black"/>
</g>
<defs>
<clipPath id="clip0_555_781">
<rect width="350" height="289.088" fill="white"/>
</clipPath>
<clipPath id="clip1_555_781">
<rect width="350" height="289.243" fill="white"/>
</clipPath>
<clipPath id="clip2_555_781">
<rect width="350" height="289.243" fill="white"/>
</clipPath>
<clipPath id="clip3_555_781">
<rect width="350" height="289.088" fill="white"/>
</clipPath>
</defs>
</svg>
