<svg width="674" height="557" viewBox="0 0 674 557" fill="none" xmlns="http://www.w3.org/2000/svg">
<g clip-path="url(#clip0_555_780)">
<path d="M434.2 326.3H6C3 326.7 0.299999 324.3 0.299999 321.3V5.09999C0.299999 2.49999 2.2 0.399994 4.8 -6.50436e-06H433C436 -0.400007 438.7 1.99999 438.7 4.99999V321.2C438.7 323.8 436.8 326 434.2 326.3Z" fill="#FDBA74"/>
<path d="M438.7 23.3L0.299999 24.6V5.09995C0.299999 2.49995 2.2 0.299954 4.8 -4.6216e-05H433C436 -0.400046 438.7 1.99995 438.7 5.09995V23.3Z" fill="#334155"/>
<path d="M426.7 16.4C429.3 16.4 431.4 14.3 431.4 11.7C431.4 9.1 429.3 7 426.7 7C424.1 7 422 9.1 422 11.7C422 14.3 424.1 16.4 426.7 16.4Z" fill="#B90F0F"/>
<path d="M412.8 16.4C415.4 16.4 417.5 14.3 417.5 11.7C417.5 9.1 415.4 7 412.8 7C410.2 7 408 9 408 11.7C408 14.4 410.1 16.4 412.8 16.4Z" fill="#FB923C"/>
<path d="M398.8 16.4C401.4 16.4 403.5 14.3 403.5 11.7C403.5 9.1 401.4 7 398.8 7C396.2 7 394.1 9.1 394.1 11.7C394.1 14.3 396.2 16.4 398.8 16.4Z" fill="#34D399"/>
<path fill-rule="evenodd" clip-rule="evenodd" d="M350 80.8C345.8 80.8 342.2 79.1 342.2 77C342.2 74.9 345.8 73.2 350 73.2C354.2 73.2 357.8 74.9 357.8 77C357.8 79.1 354.2 80.8 350 80.8Z" fill="#1E293B"/>
<path d="M350 73.9C354.1 73.9 357.2 75.6 357.2 77C357.2 78.4 354.1 80.1 350 80.1C345.9 80.1 342.8 78.4 342.8 77C342.8 75.6 345.9 73.9 350 73.9ZM350 72.7C345.3 72.7 341.6 74.7 341.6 77.1C341.6 79.5 345.4 81.5 350 81.5C354.6 81.5 358.4 79.5 358.4 77.1C358.4 74.7 354.7 72.7 350 72.7Z" fill="#1E293B"/>
<path d="M350 77.7C349.6 77.7 349.4 77.4 349.4 77.1V55.2C349.4 54.9 349.7 54.6 350 54.6C350.3 54.6 350.6 54.9 350.6 55.2V77.1C350.6 77.4 350.4 77.7 350 77.7Z" fill="#1E293B"/>
<path fill-rule="evenodd" clip-rule="evenodd" d="M362.5 58.1999L350 54.8999V62.3999C350 62.4999 362.5 58.1999 362.5 58.1999Z" fill="#FB7200"/>
<path d="M349.4 63.3V54.1L364.7 58.1L349.4 63.3ZM350.6 55.7V61.5L360.3 58.2L350.6 55.7Z" fill="#FB7200"/>
<path d="M104 98.4999L105.8 89.4999L108.7 97.2999L112 86.3999L114.3 96.6999L117.8 88.5999L119.7 98.5999C119.7 98.4999 104 98.4999 104 98.4999Z" fill="#C15802"/>
<path d="M131.2 92.2L133 83.2L135.9 91L139.2 80.1L141.5 90.4L145 82.3L146.9 92.3L131.2 92.2Z" fill="#C15802"/>
<path d="M189.4 304.3L191.2 295.3L194.1 303.1L197.4 292.2L199.7 302.5L203.2 294.4L205.1 304.4L189.4 304.3Z" fill="#C15802"/>
<path d="M210.9 308.7L212.7 299.7L215.6 307.5L218.9 296.6L221.2 306.9L224.7 298.8L226.6 308.8L210.9 308.7Z" fill="#C15802"/>
<path d="M324.1 255.7L325.9 246.7L328.9 254.5L332.2 243.6L334.5 253.9L338 245.8L339.9 255.8H324.1V255.7Z" fill="#C15802"/>
<path d="M350.7 249.4L352.5 240.4L355.5 248.2L358.8 237.3L361.1 247.6L364.6 239.5L366.5 249.5H350.7V249.4Z" fill="#C15802"/>
<path d="M316.6 215.1L309.8 243.7H325.8L316.6 215.1Z" fill="#FB923C"/>
<path d="M326.2 244H309.4L316.5 213.9L326.2 244ZM310.2 243.3H325.3L316.6 216.2L310.2 243.3Z" fill="#FB923C"/>
<path d="M318.6 237.3H316.3V249.9H318.6V237.3Z" fill="#FB923C"/>
<path d="M319 250.2H316V237H318.9V250.2H319ZM316.7 249.5H318.4V237.5H316.7V249.5Z" fill="#FB923C"/>
<path d="M342.2 209.9L335.4 238.5H351.4L342.2 209.9Z" fill="#FB923C"/>
<path d="M351.8 238.8H335L342.1 208.7L351.8 238.8ZM335.8 238.1H350.9L342.2 211L335.8 238.1Z" fill="#FB923C"/>
<path d="M344.2 232.1H342V244.7H344.3L344.2 232.1Z" fill="#FB923C"/>
<path d="M344.6 245H341.7V231.8H344.6V245ZM342.3 244.3H344V232.3H342.3V244.3Z" fill="#FB923C"/>
<path d="M59.1 98.2999L52.3 126.9H68.3L59.1 98.2999Z" fill="#FB923C"/>
<path d="M68.8 127.2H51.9L59 97.1L68.8 127.2ZM52.7 126.5H67.8L59.1 99.4C59.1 99.4 52.7 126.5 52.7 126.5Z" fill="#FB923C"/>
<path d="M61.2 120.5H58.9V133.1H61.2V120.5Z" fill="#FB923C"/>
<path d="M61.5 133.4H58.6V120.2H61.5V133.4ZM59.2 132.7H60.9V120.7H59.2V132.7Z" fill="#FB923C"/>
<path d="M121.7 54.7L115 83.3H131C130.9 83.3 121.7 54.7 121.7 54.7Z" fill="#FB923C"/>
<path d="M131.4 83.6H114.6L121.7 53.5L131.4 83.6ZM115.4 83H130.5L121.8 55.9L115.4 83Z" fill="#FB923C"/>
<path d="M123.8 76.8999H121.5V89.4999H123.8V76.8999Z" fill="#FB923C"/>
<path d="M124.1 89.8H121.2V76.6H124.1V89.8ZM121.8 89.2H123.5V77.2H121.8V89.2Z" fill="#FB923C"/>
<path d="M168.2 75.8999L161.4 104.5H177.4L168.2 75.8999Z" fill="#FB923C"/>
<path d="M177.8 104.8H161L168.1 74.7L177.8 104.8ZM161.8 104.1H176.9L168.2 77L161.8 104.1Z" fill="#FB923C"/>
<path d="M170.2 98.1H167.9V110.7H170.2V98.1Z" fill="#FB923C"/>
<path d="M170.6 111H167.7V97.7999H170.6V111ZM168.3 110.4H170V98.3999H168.3V110.4Z" fill="#FB923C"/>
<path d="M48.5 137.7C33.3 135.7 20.8 139.9 16.5 142.2C8.5 145.2 41.5 148.2 64.5 147.2C87.5 146.2 67.5 140.2 48.5 137.7Z" fill="#FB923C"/>
<path d="M282.2 305.2C267 303.2 254.5 307.4 250.2 309.7C242.2 312.7 275.2 315.7 298.2 314.7C321.2 313.7 301.2 307.7 282.2 305.2Z" fill="#FB923C"/>
<path d="M139.2 105C129.5 103.8 121.5 106.3 118.8 107.6C113.7 109.3 134.8 111.1 149.4 110.5C164.1 110 151.3 106.5 139.2 105Z" fill="#FB923C"/>
<path d="M17.5 14.2L17 16.6H16.3L16.8 14.2L14.9 9.59996H15.6L17.2 13.5L20.4 9.59996H21.2C21.3 9.49996 17.5 14.2 17.5 14.2Z" fill="#CBD5E1"/>
<path d="M20.2 14.3C20.2 12.5 21.5 11.2 23.2 11.2C24.7 11.2 25.6 12.1 25.6 13.4C25.6 15.2 24.3 16.5 22.6 16.5C21.2 16.6 20.2 15.7 20.2 14.3ZM24.9 13.5C24.9 12.5 24.3 11.9 23.2 11.9C21.9 11.9 20.9 12.9 20.9 14.4C20.9 15.4 21.5 16 22.6 16C24 15.9 25 14.9 24.9 13.5Z" fill="#CBD5E1"/>
<path d="M32.4 11.2L31.4 16.5H30.7L30.9 15.7C30.4 16.3 29.7 16.6 28.9 16.6C27.7 16.6 27 16 27 14.9C27 14.7 27 14.5 27.1 14.3L27.7 11.3H28.4L27.8 14.3C27.8 14.5 27.8 14.6 27.8 14.8C27.8 15.6 28.2 16 29.1 16C30.2 16 31 15.4 31.2 14.2L31.8 11.4L32.4 11.2Z" fill="#CBD5E1"/>
<path d="M37 11.2L36.9 11.9C36.8 11.9 36.8 11.9 36.7 11.9C35.6 11.9 34.8 12.5 34.6 13.8L34 16.5H33.3L34.3 11.2H35L34.8 12.2C35.3 11.5 36 11.2 37 11.2Z" fill="#CBD5E1"/>
<path d="M41.4 9.09998H42.1L40.6 16.5H40L41.4 9.09998Z" fill="#CBD5E1"/>
<path d="M43.3 14.1C43.3 14.2 43.3 14.2 43.3 14.3C43.3 15.4 43.9 15.9 45.1 15.9C45.8 15.9 46.4 15.7 46.8 15.2L47.1 15.7C46.6 16.2 45.8 16.5 45 16.5C43.5 16.5 42.5 15.6 42.5 14.3C42.5 12.5 43.7 11.2 45.4 11.2C46.8 11.2 47.7 12 47.7 13.4C47.7 13.6 47.7 13.8 47.6 14L43.3 14.1ZM43.4 13.6H47.2C47.2 13.5 47.2 13.5 47.2 13.4C47.2 12.4 46.5 11.8 45.5 11.8C44.4 11.8 43.6 12.5 43.4 13.6Z" fill="#CBD5E1"/>
<path d="M54.6 11.2L53.6 16.5H52.9L53.1 15.7C52.6 16.2 51.9 16.6 51 16.6C49.7 16.6 48.7 15.8 48.7 14.4C48.7 12.6 50 11.3 51.7 11.3C52.7 11.3 53.4 11.7 53.7 12.4L53.9 11.3L54.6 11.2ZM53.4 13.5C53.4 12.5 52.8 11.9 51.7 11.9C50.4 11.9 49.4 12.9 49.4 14.4C49.4 15.4 50 16 51.1 16C52.4 15.9 53.4 14.9 53.4 13.5Z" fill="#CBD5E1"/>
<path d="M59.2 11.2L59.1 11.9C59 11.9 59 11.9 58.9 11.9C57.8 11.9 57 12.5 56.8 13.8L56.3 16.5H55.6L56.6 11.2H57.3L57.1 12.2C57.5 11.5 58.2 11.2 59.2 11.2Z" fill="#CBD5E1"/>
<path d="M64.9 12.9C64.9 13.1 64.9 13.3 64.8 13.5L64.2 16.5H63.5L64.1 13.5C64.1 13.3 64.2 13.2 64.2 13C64.2 12.2 63.7 11.8 62.8 11.8C61.7 11.8 60.9 12.4 60.6 13.6L60 16.4H59.3L60.3 11.1H61V12.1C61.5 11.5 62.2 11.2 63.1 11.2C64.3 11.2 65 11.9 64.9 12.9Z" fill="#CBD5E1"/>
<path d="M67.3 11.2H68L67 16.5H66.3L67.3 11.2ZM67.4 9.59998C67.4 9.29998 67.6 9.09998 68 9.09998C68.3 9.09998 68.5 9.29998 68.5 9.49998C68.5 9.79998 68.3 10.1 67.9 10.1C67.7 10.1 67.4 9.89998 67.4 9.59998Z" fill="#CBD5E1"/>
<path d="M74.4 12.9C74.4 13.1 74.4 13.3 74.3 13.5L73.7 16.5H73L73.6 13.5C73.6 13.3 73.7 13.2 73.7 13C73.7 12.2 73.3 11.8 72.3 11.8C71.2 11.8 70.4 12.4 70.1 13.6L69.5 16.4H68.8L69.8 11.1H70.5L70.3 11.9C70.8 11.3 71.5 11 72.4 11C73.7 11.2 74.4 11.9 74.4 12.9Z" fill="#CBD5E1"/>
<path d="M81.7 11.2L80.8 15.8C80.4 17.7 79.5 18.4 77.7 18.4C76.7 18.4 75.9 18.1 75.4 17.6L75.8 17.1C76.2 17.5 76.9 17.8 77.8 17.8C79.1 17.8 79.8 17.2 80.1 15.9L80.2 15.3C79.7 15.9 79 16.2 78.1 16.2C76.7 16.2 75.8 15.4 75.8 14.1C75.8 12.4 77 11.1 78.8 11.1C79.8 11.1 80.6 11.5 80.9 12.3L81.1 11.1L81.7 11.2ZM80.5 13.4C80.5 12.4 79.8 11.9 78.8 11.9C77.5 11.9 76.5 12.9 76.5 14.2C76.5 15.2 77.1 15.7 78.2 15.7C79.5 15.7 80.5 14.7 80.5 13.4Z" fill="#CBD5E1"/>
<path d="M91.2 13.4C91.2 15.2 89.9 16.5 88.2 16.5C87.2 16.5 86.5 16.1 86.2 15.4L85.6 18.4H84.9L86.3 11.2H87L86.8 12C87.3 11.4 88 11.1 88.9 11.1C90.2 11.2 91.2 12.1 91.2 13.4ZM90.4 13.5C90.4 12.5 89.8 11.9 88.7 11.9C87.4 11.9 86.4 12.9 86.4 14.4C86.4 15.4 87 16 88.1 16C89.5 15.9 90.4 14.9 90.4 13.5Z" fill="#CBD5E1"/>
<path d="M97.9 11.2L96.8 16.5H96.1L96.3 15.7C95.8 16.2 95.1 16.6 94.2 16.6C92.9 16.6 91.9 15.8 91.9 14.4C91.9 12.6 93.2 11.3 94.9 11.3C95.9 11.3 96.6 11.7 96.9 12.4L97.1 11.3L97.9 11.2ZM96.7 13.5C96.7 12.5 96.1 11.9 95 11.9C93.7 11.9 92.7 12.9 92.7 14.4C92.7 15.4 93.3 16 94.4 16C95.8 15.9 96.7 14.9 96.7 13.5Z" fill="#CBD5E1"/>
<path d="M100 14.9C100 15 100 15.1 100 15.2C100 15.6 100.2 15.9 100.8 15.9C101.1 15.9 101.4 15.8 101.6 15.6L101.8 16.1C101.5 16.3 101 16.4 100.6 16.4C99.8 16.4 99.3 15.9 99.3 15.2C99.3 15.1 99.3 14.9 99.3 14.8L99.9 11.7H99L99.1 11.1H100L100.2 10H100.9L100.7 11.1H102.3L102.2 11.7H100.6L100 14.9Z" fill="#CBD5E1"/>
<path d="M108.4 12.9C108.4 13.1 108.4 13.3 108.3 13.5L107.7 16.5H107L107.6 13.5C107.6 13.3 107.7 13.2 107.7 13C107.7 12.2 107.3 11.8 106.3 11.8C105.2 11.8 104.4 12.4 104.1 13.6L103.5 16.4H102.8L104.3 9H105L104.4 12C104.9 11.4 105.6 11.2 106.4 11.2C107.7 11.2 108.4 11.9 108.4 12.9Z" fill="#CBD5E1"/>
<path d="M113.5 14.9C113.5 15 113.5 15.1 113.5 15.2C113.5 15.6 113.7 15.9 114.3 15.9C114.6 15.9 114.9 15.8 115.1 15.6L115.3 16.1C115 16.3 114.5 16.4 114.1 16.4C113.3 16.4 112.8 15.9 112.8 15.2C112.8 15.1 112.8 14.9 112.8 14.8L113.4 11.7H112.5L112.6 11.1H113.5L113.7 10H114.4L114.2 11.1H115.8L115.7 11.7H114.1L113.5 14.9Z" fill="#CBD5E1"/>
<path d="M116.2 14.3C116.2 12.5 117.5 11.2 119.3 11.2C120.8 11.2 121.7 12.1 121.7 13.4C121.7 15.2 120.4 16.5 118.6 16.5C117.1 16.6 116.2 15.7 116.2 14.3ZM120.9 13.5C120.9 12.5 120.3 11.9 119.2 11.9C117.9 11.9 116.9 12.9 116.9 14.4C116.9 15.4 117.5 16 118.6 16C119.9 15.9 120.9 14.9 120.9 13.5Z" fill="#CBD5E1"/>
<path d="M131 13.4C131 15.2 129.7 16.5 128 16.5C127 16.5 126.3 16.1 126 15.4L125.4 18.4H124.7L126.1 11.2H126.8L126.6 12C127.1 11.4 127.8 11.1 128.7 11.1C130.1 11.2 131 12.1 131 13.4ZM130.3 13.5C130.3 12.5 129.7 11.9 128.6 11.9C127.3 11.9 126.3 12.9 126.3 14.4C126.3 15.4 126.9 16 128 16C129.3 15.9 130.3 14.9 130.3 13.5Z" fill="#CBD5E1"/>
<path d="M135.6 11.2L135.5 11.9C135.4 11.9 135.4 11.9 135.3 11.9C134.2 11.9 133.4 12.5 133.2 13.8L132.7 16.5H132L133 11.2H133.7L133.5 12.2C133.9 11.5 134.6 11.2 135.6 11.2Z" fill="#CBD5E1"/>
<path d="M136.5 14.1C136.5 14.2 136.5 14.2 136.5 14.3C136.5 15.4 137.1 15.9 138.3 15.9C139 15.9 139.6 15.7 140 15.2L140.3 15.7C139.8 16.2 139 16.5 138.2 16.5C136.7 16.5 135.7 15.6 135.7 14.3C135.7 12.5 136.9 11.2 138.6 11.2C140 11.2 140.9 12 140.9 13.4C140.9 13.6 140.9 13.8 140.8 14L136.5 14.1ZM136.5 13.6H140.3C140.3 13.5 140.3 13.5 140.3 13.4C140.3 12.4 139.6 11.8 138.7 11.8C137.6 11.8 136.8 12.5 136.5 13.6Z" fill="#CBD5E1"/>
<path d="M147.8 13.4C147.8 15.2 146.5 16.5 144.8 16.5C143.8 16.5 143.1 16.1 142.8 15.4L142.2 18.4H141.5L142.9 11.2H143.6L143.4 12C143.9 11.4 144.6 11.1 145.5 11.1C146.8 11.2 147.8 12.1 147.8 13.4ZM147.1 13.5C147.1 12.5 146.5 11.9 145.4 11.9C144.1 11.9 143.1 12.9 143.1 14.4C143.1 15.4 143.7 16 144.8 16C146.1 15.9 147.1 14.9 147.1 13.5Z" fill="#CBD5E1"/>
<path d="M154.5 11.2L153.4 16.5H152.7L152.9 15.7C152.4 16.2 151.7 16.6 150.8 16.6C149.4 16.6 148.5 15.8 148.5 14.4C148.5 12.6 149.8 11.3 151.5 11.3C152.5 11.3 153.2 11.7 153.5 12.4L153.7 11.3L154.5 11.2ZM153.4 13.5C153.4 12.5 152.8 11.9 151.7 11.9C150.4 11.9 149.4 12.9 149.4 14.4C149.4 15.4 150 16 151.1 16C152.4 15.9 153.4 14.9 153.4 13.5Z" fill="#CBD5E1"/>
<path d="M159.2 11.2L159.1 11.9C159 11.9 159 11.9 158.9 11.9C157.8 11.9 157 12.5 156.8 13.8L156.3 16.5H155.6L156.6 11.2H157.3L157.1 12.2C157.5 11.5 158.2 11.2 159.2 11.2Z" fill="#CBD5E1"/>
<path d="M160 14.1C160 14.2 160 14.2 160 14.3C160 15.4 160.6 15.9 161.8 15.9C162.5 15.9 163.1 15.7 163.5 15.2L163.8 15.7C163.3 16.2 162.5 16.5 161.7 16.5C160.2 16.5 159.2 15.6 159.2 14.3C159.2 12.5 160.4 11.2 162.1 11.2C163.5 11.2 164.4 12 164.4 13.4C164.4 13.6 164.4 13.8 164.3 14L160 14.1ZM160.1 13.6H163.9C163.9 13.5 163.9 13.5 163.9 13.4C163.9 12.4 163.2 11.8 162.3 11.8C161.1 11.8 160.3 12.5 160.1 13.6Z" fill="#CBD5E1"/>
<path d="M170 10.7L169.9 11.3H171.5L171.4 11.9H169.8L168.9 16.6H168.2L169.1 11.9H168.2L168.3 11.3H169.2L169.3 10.6C169.5 9.6 170.1 9 171.1 9C171.5 9 171.9 9.1 172.2 9.3L171.9 9.8C171.7 9.6 171.5 9.5 171.1 9.5C170.5 9.6 170.2 10 170 10.7Z" fill="#CBD5E1"/>
<path d="M171.3 14.3C171.3 12.5 172.6 11.2 174.4 11.2C175.9 11.2 176.8 12.1 176.8 13.4C176.8 15.2 175.5 16.5 173.7 16.5C172.2 16.6 171.3 15.7 171.3 14.3ZM176 13.5C176 12.5 175.4 11.9 174.3 11.9C173 11.9 172 12.9 172 14.4C172 15.4 172.6 16 173.7 16C175 15.9 176 14.9 176 13.5Z" fill="#CBD5E1"/>
<path d="M181.3 11.2L181.2 11.9C181.1 11.9 181.1 11.9 181 11.9C179.9 11.9 179.1 12.5 178.9 13.8L178.4 16.5H177.7L178.7 11.2H179.4L179.2 12.2C179.6 11.5 180.3 11.2 181.3 11.2Z" fill="#CBD5E1"/>
<path d="M185.9 9.09998H187.7L187.6 9.69998H186.5L184.9 17.9H186L185.9 18.5H184L185.9 9.09998Z" fill="#CBD5E1"/>
<path d="M190.5 10.1H188L188.1 9.5H193.8L193.7 10.1H191.2L189.9 16.5H189.2L190.5 10.1Z" fill="#CBD5E1"/>
<path d="M198.9 12.9C198.9 13.1 198.9 13.3 198.8 13.5L198.2 16.5H197.5L198.1 13.5C198.1 13.3 198.2 13.2 198.2 13C198.2 12.2 197.8 11.8 196.8 11.8C195.7 11.8 194.9 12.4 194.7 13.6L194.1 16.4H193.4L194.9 9H195.6L195 12C195.5 11.4 196.2 11.2 197 11.2C198.3 11.2 198.9 11.9 198.9 12.9Z" fill="#CBD5E1"/>
<path d="M200.9 14.1C200.9 14.2 200.9 14.2 200.9 14.3C200.9 15.4 201.5 15.9 202.7 15.9C203.4 15.9 204 15.7 204.4 15.2L204.7 15.7C204.2 16.2 203.4 16.5 202.6 16.5C201.1 16.5 200.1 15.6 200.1 14.3C200.1 12.5 201.3 11.2 203 11.2C204.4 11.2 205.3 12 205.3 13.4C205.3 13.6 205.3 13.8 205.2 14L200.9 14.1ZM201 13.6H204.8C204.8 13.5 204.8 13.5 204.8 13.4C204.8 12.4 204.1 11.8 203.2 11.8C202 11.8 201.2 12.5 201 13.6Z" fill="#CBD5E1"/>
<path d="M211.1 10.1L210.6 12.6H214.2L214.1 13.2H210.5L210 15.8H214.2L214.1 16.4H209.2L210.6 9.40002H215.4L215.3 10L211.1 10.1Z" fill="#CBD5E1"/>
<path d="M221.1 12.9C221.1 13.1 221.1 13.3 221 13.5L220.4 16.5H219.7L220.3 13.5C220.3 13.3 220.4 13.2 220.4 13C220.4 12.2 220 11.8 219 11.8C217.9 11.8 217.1 12.4 216.9 13.6L216.3 16.4H215.6L216.6 11.1H217.3L217.1 11.9C217.6 11.3 218.3 11 219.2 11C220.4 11.2 221.1 11.9 221.1 12.9Z" fill="#CBD5E1"/>
<path d="M228.4 11.2L227.5 15.8C227.1 17.7 226.1 18.4 224.4 18.4C223.4 18.4 222.6 18.1 222 17.6L222.4 17.1C222.8 17.5 223.5 17.8 224.4 17.8C225.7 17.8 226.4 17.2 226.7 15.9L226.8 15.3C226.3 15.9 225.6 16.2 224.7 16.2C223.3 16.2 222.4 15.4 222.4 14.1C222.4 12.4 223.6 11.1 225.4 11.1C226.4 11.1 227.2 11.5 227.5 12.3L227.7 11.1L228.4 11.2ZM227.2 13.4C227.2 12.4 226.6 11.9 225.5 11.9C224.2 11.9 223.2 12.9 223.2 14.2C223.2 15.2 223.8 15.7 224.9 15.7C226.2 15.7 227.2 14.7 227.2 13.4Z" fill="#CBD5E1"/>
<path d="M230.8 9.09998H231.5L230 16.5H229.3L230.8 9.09998Z" fill="#CBD5E1"/>
<path d="M233.1 11.2H233.8L232.8 16.5H232L233.1 11.2ZM233.2 9.59998C233.2 9.29998 233.4 9.09998 233.8 9.09998C234.1 9.09998 234.3 9.29998 234.3 9.49998C234.3 9.79998 234.1 10.1 233.7 10.1C233.4 10.1 233.2 9.89998 233.2 9.59998Z" fill="#CBD5E1"/>
<path d="M234.1 15.9L234.4 15.3C234.8 15.7 235.5 15.9 236.2 15.9C237.2 15.9 237.8 15.5 237.8 15C237.8 13.8 234.8 14.6 234.8 12.8C234.8 11.8 235.7 11.2 237.1 11.2C237.8 11.2 238.5 11.4 238.9 11.7L238.6 12.3C238.2 12 237.6 11.9 237.1 11.9C236.1 11.9 235.6 12.3 235.6 12.9C235.6 14.1 238.6 13.3 238.6 15C238.6 16 237.7 16.6 236.3 16.6C235.4 16.6 234.6 16.3 234.1 15.9Z" fill="#CBD5E1"/>
<path d="M245.1 12.9C245.1 13.1 245.1 13.3 245 13.5L244.4 16.5H243.7L244.3 13.5C244.3 13.3 244.4 13.2 244.4 13C244.4 12.2 244 11.8 243 11.8C241.9 11.8 241.1 12.4 240.9 13.6L240.3 16.4H239.6L241.1 9H241.8L241.2 12C241.7 11.4 242.4 11.2 243.2 11.2C244.4 11.2 245.1 11.9 245.1 12.9Z" fill="#CBD5E1"/>
<path d="M254.9 14.7H253.5L253.1 16.5H252.4L252.8 14.7H248.9L249 14.2L253.6 9.59998H254.5L250.1 14.1H253.1L253.4 12.5H254.1L253.8 14.1H255.2C255 14 254.9 14.7 254.9 14.7Z" fill="#CBD5E1"/>
<path d="M257.6 10.1L256.9 12.3H257.8C259.6 12.3 260.4 13 260.4 14.1C260.4 15.5 259.3 16.5 257.5 16.5C256.4 16.5 255.5 16.1 255.1 15.6L255.5 15C255.9 15.5 256.6 15.8 257.5 15.8C258.8 15.8 259.6 15.2 259.6 14.2C259.6 13.4 259.1 12.9 257.6 12.9H256L257.1 9.40002H260.9L260.8 10L257.6 10.1Z" fill="#CBD5E1"/>
<path d="M273.3 12.9C273.3 13.1 273.3 13.3 273.2 13.5L272.6 16.5H271.9L272.5 13.5C272.5 13.3 272.5 13.2 272.5 13C272.5 12.3 272.1 11.8 271.2 11.8C270.2 11.8 269.4 12.4 269.2 13.6L268.6 16.5H267.9L268.5 13.5C268.5 13.3 268.5 13.2 268.5 13C268.5 12.2 268.1 11.8 267.2 11.8C266.1 11.8 265.4 12.4 265.1 13.6L264.5 16.4H263.8L264.8 11.1H265.5L265.3 11.9C265.8 11.3 266.5 11 267.3 11C268.2 11 268.8 11.4 269 12.1C269.5 11.4 270.3 11 271.2 11C272.6 11.2 273.3 11.8 273.3 12.9Z" fill="#CBD5E1"/>
<path d="M275.6 11.2H276.3L275.3 16.5H274.6L275.6 11.2ZM275.8 9.59998C275.8 9.29998 276 9.09998 276.3 9.09998C276.6 9.09998 276.8 9.29998 276.8 9.49998C276.8 9.79998 276.6 10.1 276.2 10.1C276 10.1 275.8 9.89998 275.8 9.59998Z" fill="#CBD5E1"/>
<path d="M282.8 12.9C282.8 13.1 282.8 13.3 282.7 13.5L282.1 16.5H281.4L282 13.5C282 13.3 282 13.2 282 13C282 12.2 281.5 11.8 280.6 11.8C279.5 11.8 278.7 12.4 278.5 13.6L277.9 16.4H277.2L278.2 11.1H278.9L278.7 11.9C279.2 11.3 279.9 11 280.8 11C282.1 11.2 282.8 11.9 282.8 12.9Z" fill="#CBD5E1"/>
<path d="M289.9 11.2L288.9 16.5H288.2L288.4 15.7C287.9 16.3 287.2 16.6 286.4 16.6C285.2 16.6 284.5 16 284.5 14.9C284.5 14.7 284.5 14.5 284.6 14.3L285.2 11.3H285.9L285.3 14.3C285.3 14.5 285.3 14.6 285.3 14.8C285.3 15.6 285.7 16 286.6 16C287.7 16 288.5 15.4 288.7 14.2L289.3 11.4L289.9 11.2Z" fill="#CBD5E1"/>
<path d="M291.9 14.9C291.9 15 291.9 15.1 291.9 15.2C291.9 15.6 292.1 15.9 292.7 15.9C293 15.9 293.3 15.8 293.5 15.6L293.7 16.1C293.4 16.3 292.9 16.4 292.5 16.4C291.7 16.4 291.2 15.9 291.2 15.2C291.2 15.1 291.2 14.9 291.2 14.8L291.8 11.7H290.9L291 11.1H291.9L292.1 10H292.8L292.6 11.1H294.2L294.1 11.7H292.5L291.9 14.9Z" fill="#CBD5E1"/>
<path d="M295.3 14.1C295.3 14.2 295.3 14.2 295.3 14.3C295.3 15.4 295.9 15.9 297.1 15.9C297.8 15.9 298.4 15.7 298.8 15.2L299.1 15.7C298.6 16.2 297.8 16.5 297 16.5C295.5 16.5 294.5 15.6 294.5 14.3C294.5 12.5 295.7 11.2 297.4 11.2C298.8 11.2 299.7 12 299.7 13.4C299.7 13.6 299.7 13.8 299.6 14L295.3 14.1ZM295.4 13.6H299.2C299.2 13.5 299.2 13.5 299.2 13.4C299.2 12.4 298.5 11.8 297.6 11.8C296.5 11.8 295.7 12.5 295.4 13.6Z" fill="#CBD5E1"/>
<path d="M300.2 15.9L300.5 15.3C300.9 15.7 301.6 15.9 302.3 15.9C303.3 15.9 303.9 15.5 303.9 15C303.9 13.8 300.9 14.6 300.9 12.8C300.9 11.8 301.8 11.2 303.2 11.2C303.9 11.2 304.6 11.4 305 11.7L304.7 12.3C304.3 12 303.7 11.9 303.2 11.9C302.2 11.9 301.7 12.3 301.7 12.9C301.7 14.1 304.7 13.3 304.7 15C304.7 16 303.8 16.6 302.4 16.6C301.4 16.6 300.6 16.3 300.2 15.9Z" fill="#CBD5E1"/>
<path d="M309.4 14.9C309.4 15 309.4 15.1 309.4 15.2C309.4 15.6 309.6 15.9 310.2 15.9C310.5 15.9 310.8 15.8 311 15.6L311.2 16.1C310.9 16.3 310.4 16.4 310 16.4C309.2 16.4 308.7 15.9 308.7 15.2C308.7 15.1 308.7 14.9 308.7 14.8L309.3 11.7H308.4L308.5 11.1H309.4L309.6 10H310.3L310.1 11.1H311.7L311.6 11.7H310L309.4 14.9Z" fill="#CBD5E1"/>
<path d="M312.8 14.1C312.8 14.2 312.8 14.2 312.8 14.3C312.8 15.4 313.4 15.9 314.6 15.9C315.3 15.9 315.9 15.7 316.3 15.2L316.6 15.7C316.1 16.2 315.3 16.5 314.5 16.5C313 16.5 312 15.6 312 14.3C312 12.5 313.2 11.2 314.9 11.2C316.3 11.2 317.2 12 317.2 13.4C317.2 13.6 317.2 13.8 317.1 14L312.8 14.1ZM312.9 13.6H316.7C316.7 13.5 316.7 13.5 316.7 13.4C316.7 12.4 316 11.8 315.1 11.8C313.9 11.8 313.1 12.5 312.9 13.6Z" fill="#CBD5E1"/>
<path d="M317.6 15.9L317.9 15.3C318.3 15.7 319 15.9 319.7 15.9C320.7 15.9 321.3 15.5 321.3 15C321.3 13.8 318.3 14.6 318.3 12.8C318.3 11.8 319.2 11.2 320.6 11.2C321.3 11.2 322 11.4 322.4 11.7L322.1 12.3C321.7 12 321.1 11.9 320.6 11.9C319.6 11.9 319.1 12.3 319.1 12.9C319.1 14.1 322.1 13.3 322.1 15C322.1 16 321.2 16.6 319.8 16.6C318.9 16.6 318.1 16.3 317.6 15.9Z" fill="#CBD5E1"/>
<path d="M324.2 14.9C324.2 15 324.2 15.1 324.2 15.2C324.2 15.6 324.4 15.9 325 15.9C325.3 15.9 325.6 15.8 325.8 15.6L326 16.1C325.7 16.3 325.2 16.4 324.8 16.4C324 16.4 323.5 15.9 323.5 15.2C323.5 15.1 323.5 14.9 323.5 14.8L324.1 11.7H323.2L323.3 11.1H324.2L324.4 10H325.1L324.9 11.1H326.5L326.4 11.7H324.8L324.2 14.9Z" fill="#CBD5E1"/>
<path d="M326 18.5L326.1 17.9H327.2L328.8 9.69998H327.7L327.8 9.09998H329.6L327.7 18.5C327.8 18.5 326 18.5 326 18.5Z" fill="#CBD5E1"/>
<path d="M330.8 44L330.3 46.5H329.5L330 44L328 39.2H328.8L330.5 43.2999L333.8 39.2H334.6L330.8 44Z" fill="black"/>
<path d="M333.6 44.1999C333.6 42.2999 334.9 40.8999 336.8 40.8999C338.3 40.8999 339.3 41.7999 339.3 43.1999C339.3 45.0999 338 46.4999 336.1 46.4999C334.5 46.4999 333.6 45.5999 333.6 44.1999ZM338.5 43.2999C338.5 42.1999 337.8 41.5999 336.7 41.5999C335.3 41.5999 334.3 42.6999 334.3 44.1999C334.3 45.2999 335 45.8999 336.1 45.8999C337.5 45.8999 338.5 44.7999 338.5 43.2999Z" fill="black"/>
<path d="M346.2 41L345.1 46.5H344.4L344.6 45.6C344.1 46.2 343.3 46.5 342.5 46.5C341.3 46.5 340.5 45.8 340.5 44.7C340.5 44.5 340.5 44.3 340.6 44.1L341.2 41H341.9L341.3 44.1C341.3 44.3 341.3 44.4 341.3 44.6C341.3 45.4 341.8 45.9 342.7 45.9C343.9 45.9 344.7 45.2 344.9 44L345.5 41C345.5 41 346.2 41 346.2 41Z" fill="black"/>
<path d="M351.1 40.8999L351 41.5999C350.9 41.5999 350.9 41.5999 350.8 41.5999C349.6 41.5999 348.8 42.2999 348.6 43.5999L348.1 46.3999H347.4L348.5 40.8999H349.2L349 41.8999C349.3 41.1999 350.1 40.8999 351.1 40.8999Z" fill="black"/>
<path d="M360.4 40.9999L359.4 45.7999C359 47.7999 358 48.5999 356.2 48.5999C355.2 48.5999 354.3 48.2999 353.7 47.7999L354.1 47.1999C354.5 47.6999 355.3 47.8999 356.2 47.8999C357.6 47.8999 358.3 47.2999 358.6 45.8999L358.7 45.2999C358.2 45.8999 357.4 46.1999 356.5 46.1999C355 46.1999 354.1 45.3999 354.1 43.9999C354.1 42.1999 355.4 40.8999 357.2 40.8999C358.2 40.8999 359 41.2999 359.3 42.1999L359.5 40.9999C359.7 40.9999 360.4 40.9999 360.4 40.9999ZM359.1 43.1999C359.1 42.1999 358.4 41.5999 357.3 41.5999C355.9 41.5999 354.9 42.5999 354.9 43.9999C354.9 44.9999 355.6 45.5999 356.7 45.5999C358.1 45.5999 359.1 44.5999 359.1 43.1999Z" fill="black"/>
<path d="M361.3 44.1999C361.3 42.2999 362.6 40.8999 364.5 40.8999C366 40.8999 367 41.7999 367 43.1999C367 45.0999 365.7 46.4999 363.8 46.4999C362.3 46.4999 361.3 45.5999 361.3 44.1999ZM366.2 43.2999C366.2 42.1999 365.5 41.5999 364.4 41.5999C363 41.5999 362 42.6999 362 44.1999C362 45.2999 362.7 45.8999 363.8 45.8999C365.2 45.8999 366.2 44.7999 366.2 43.2999Z" fill="black"/>
<path d="M374 40.9999L372.9 46.4999H372.2L372.4 45.5999C371.9 46.1999 371.1 46.4999 370.3 46.4999C368.9 46.4999 367.9 45.5999 367.9 44.1999C367.9 42.2999 369.2 40.8999 371 40.8999C372 40.8999 372.8 41.2999 373.1 42.0999L373.3 40.8999H374V40.9999ZM372.8 43.2999C372.8 42.1999 372.1 41.5999 371 41.5999C369.6 41.5999 368.6 42.6999 368.6 44.1999C368.6 45.2999 369.3 45.8999 370.4 45.8999C371.8 45.8999 372.8 44.7999 372.8 43.2999Z" fill="black"/>
<path d="M376.6 38.7H377.3L375.8 46.5H375L376.6 38.7Z" fill="black"/>
</g>
<g clip-path="url(#clip1_555_780)">
<path d="M-30.58 326.6C-30.58 326.6 2.74 230.61 65.7 221.01C133 210.75 225.28 232.89 234.26 208.59C243.86 182.61 137.41 149.58 168.19 139.7C204.78 127.95 349.76 159.92 361.32 147.98C381.37 127.27 253.27 99.42 280.38 93.02C307.49 86.62 366.58 106.07 371.49 99.42C375.64 93.79 350 81.81 350 81.81L354.83 81.04C354.83 81.04 419.96 112.59 337 100.17C265.32 89.44 406.12 133.68 390.69 157.77C375.26 181.86 162.55 130.29 217.89 163.42C273.23 196.55 340.12 245.4 229.18 237.96C128.1 231.18 41.7 275.51 75.02 326.61H-30.58V326.6Z" fill="#FFCB97"/>
</g>
<g clip-path="url(#clip2_555_780)">
<path d="M-30.58 326.6L346.86 81.47L351.65 81.81L75.02 326.6H-30.58Z" fill="#FFEDD5"/>
</g>
<g clip-path="url(#clip3_555_780)">
<path d="M158.3 577.2L307.3 454.3L357.3 509.3L515 397.8L614.3 577.1L158.3 577.2Z" fill="#DE6501"/>
<path d="M304 465.5L275.2 507.3L270.1 496L174.1 576.8H239.1L268.4 509L277.5 521.1L304 465.5Z" fill="#FB923C"/>
<path d="M391.8 564.2L574.6 562.8L569.6 507.2L387 508.5L391.8 564.2Z" fill="#1E293B"/>
<path d="M502.3 241.2L488.4 243.4L453.9 248.7L449.8 235.1C415 236.4 412.9 166.4 412.9 166.4C412.3 148.4 434.1 139.4 455.9 142.8C471.6 145.2 489.4 193.6 496.8 221.5C499.8 232.4 502.3 241.1 502.3 241.2Z" fill="#FED7AA"/>
<path d="M422 198.3C423 198.3 423.8 197.5 423.8 196.5C423.8 195.5 423 194.7 422 194.7C421 194.7 420.2 195.5 420.2 196.5C420.2 197.5 421 198.3 422 198.3Z" fill="#1E293B"/>
<path d="M428 193.5C427.4 193.5 426.8 193 426.7 192.4C426.4 190.7 425.7 189.6 424.6 189C422.3 187.6 418.9 188.7 418.9 188.7C418.2 188.9 417.4 188.5 417.2 187.8C417 187.1 417.3 186.3 418.1 186.1C418.3 186 422.7 184.6 426 186.6C427.8 187.7 428.9 189.5 429.4 191.9C429.5 192.6 429 193.3 428.3 193.5C428.2 193.4 428.1 193.4 428 193.5Z" fill="#1E293B"/>
<path d="M428.3 217.3C428.1 217.3 428 217.2 428 216.9C428 216.6 428.1 216.6 428.3 216.6C428.4 216.6 438.3 216.5 441.6 208.6C441.7 208.4 441.9 208.4 442.1 208.4C442.3 208.5 442.3 208.7 442.3 208.8C438.8 217.2 428.4 217.3 428.3 217.3Z" fill="#1E293B"/>
<path d="M453.9 193.5C453.9 193.5 456.6 186.7 450.5 179.9C441.6 173.7 413.7 181.9 412.9 166.4C412 150.9 422.8 140.9 442.4 140.5C462 140.1 475 152.9 480.5 170.4C481.9 175 483.9 182.7 483.9 182.7L453.9 193.5Z" fill="#1E293B"/>
<path d="M450.7 180.1C450.7 180.1 456.1 173.9 457.6 185.5C459.1 197.1 455.7 200.7 453.2 198" fill="#FED7AA"/>
<path d="M454.8 199.2C454.2 199.2 453.5 198.9 452.9 198.3L453.4 197.8C453.8 198.3 454.5 198.8 455.3 198.4C457 197.6 458.2 193.3 457.2 185.6C456.6 180.6 455.2 179.2 454.2 178.9C452.6 178.4 450.9 180.4 450.9 180.4L450.4 180C450.5 179.9 452.4 177.7 454.4 178.3C456.1 178.8 457.3 181.3 457.8 185.5C458.9 194.2 457.3 198.2 455.5 199C455.4 199.1 455.1 199.2 454.8 199.2Z" fill="#1E293B"/>
<path d="M453.9 248.7C453.9 248.7 425 273.9 408.2 316.8C380.9 386.3 387.5 486.7 387 508.5C423.2 510.7 561.6 510.7 569.6 507.2C577.6 503.7 563.7 381.6 561.7 338C560.6 313.9 532.4 253.5 501.7 239.2C481.9 241.9 453.9 248.7 453.9 248.7Z" fill="#FB7200"/>
<path d="M348.4 366.3C348.4 366.3 331.6 328.3 314.8 310.3C309.6 304.7 294.6 297.2 289.9 297.3C281.3 297.4 282.9 309.2 294.1 312.8C297.2 313.8 301.9 317.7 303.7 321.8C307.9 331.7 304.2 329.1 300.3 325.7C292.1 318.6 264.4 337.6 264.9 352.4C265.7 374.7 298.4 402.4 298.4 402.4L348.4 366.3Z" fill="#FED7AA"/>
<path d="M347.8 364.6C347.8 364.6 344.8 317 321.7 319.7C301.6 322.1 347.8 364.6 347.8 364.6Z" fill="#FED7AA"/>
<path d="M292.8 342.3C292.7 342.3 292.6 342.3 292.5 342.2L284.3 332C284.2 331.9 284.2 331.6 284.4 331.5C284.5 331.4 284.8 331.4 284.9 331.6L293.1 341.8C293.2 341.9 293.2 342.2 293 342.3C293 342.2 292.9 342.3 292.8 342.3Z" fill="#1E293B"/>
<path d="M279.5 354.9C279.4 354.9 279.3 354.9 279.2 354.8L271.1 344.4C271 344.3 271 344 271.2 343.9C271.3 343.8 271.6 343.8 271.7 344L279.8 354.4C279.9 354.5 279.9 354.8 279.8 354.9C279.6 354.9 279.5 354.9 279.5 354.9Z" fill="#1E293B"/>
<path d="M339.2 339.1C339.1 339.1 339 339.1 338.9 339L326.6 324.5C326.5 324.4 326.5 324.1 326.6 324C326.7 323.9 327 323.9 327.1 324L339.4 338.5C339.5 338.6 339.5 338.9 339.4 339C339.4 339 339.3 339.1 339.2 339.1Z" fill="#1E293B"/>
<path d="M288.1 309.9C288 309.9 287.9 309.9 287.9 309.8C287.8 309.8 281.2 303.8 285.1 299C289 294.2 299.1 299.8 299.5 300.1C299.7 300.2 299.7 300.4 299.6 300.6C299.5 300.8 299.3 300.8 299.1 300.7C299 300.7 289.1 295.2 285.6 299.5C282.1 303.8 288.2 309.3 288.3 309.3C288.4 309.4 288.5 309.6 288.3 309.8C288.3 309.8 288.2 309.9 288.1 309.9Z" fill="#1E293B"/>
<path d="M291.2 306.3L288.4 304.1C288.3 304 288.2 303.8 288.3 303.6C288.4 303.5 288.6 303.4 288.8 303.5L291.1 305.3L295.6 300.6C295.7 300.5 296 300.5 296.1 300.6C296.2 300.7 296.2 300.9 296.1 301.1L291.2 306.3Z" fill="#1E293B"/>
<path d="M305.1 312.6C305 312.6 304.9 312.6 304.9 312.5C304.8 312.4 304.8 312.2 304.9 312L308.7 308.2C308.8 308.1 309.1 308.1 309.2 308.2C309.3 308.3 309.3 308.5 309.2 308.7L305.4 312.5C305.3 312.5 305.2 312.6 305.1 312.6Z" fill="#1E293B"/>
<path d="M461.6 230.1C461.5 230.1 461.4 230 461.3 229.9C461.2 229.7 461.3 229.5 461.5 229.4C461.6 229.3 472.8 224 475.5 216.7C475.6 216.5 475.8 216.4 475.9 216.5C476 216.6 476.2 216.8 476.1 216.9C473.3 224.5 462.2 229.8 461.8 230C461.7 230.1 461.6 230.1 461.6 230.1Z" fill="#1E293B"/>
<path d="M452.8 185.2C452.8 185.2 454.4 184.3 453.6 191.4L452.8 185.2Z" fill="#FED7AA"/>
<path d="M454 191.4L453.3 191.3C453.8 186.2 453.2 185.5 453 185.4L452.6 184.8C452.8 184.7 453.1 184.7 453.3 184.8C454.2 185.4 454.4 187.6 454 191.4Z" fill="#1E293B"/>
<path d="M448.6 401.1L348 356.4L298.4 402.6L425.9 492.2L448.6 401.1Z" fill="#FB7200"/>
<path d="M419 203.6C419 203.6 414.2 207.8 421.4 210.5L419 203.6Z" fill="#FED7AA"/>
<path d="M386.6 464.7C387.7 467.6 432.9 482.8 454.8 480.3V510C430 507.6 397.2 500.8 386.8 492.3L386.6 464.7Z" fill="#334155"/>
<path d="M459.5 246.8C459.5 246.8 458 244.6 453.9 248.7C449.8 252.8 442 261.1 442 261.1C442 261.1 460 261.4 462.7 269.4L459.5 246.8Z" fill="#334155"/>
<path d="M478.4 241.7C478.4 241.7 475.6 204.7 508.1 206C540.6 207.4 537.2 242.5 537.2 242.5H518.7C518.7 242.5 529.3 221.5 516.7 214.8C504.1 208 496 232 503.5 241.7H478.4V241.7Z" fill="#334155"/>
<path d="M458.3 245.7C458.3 245.7 502.9 228.6 543.4 238C575.4 245.5 617 290.7 620.5 335.4C624 380.1 695.4 443.5 667.6 483.3C639.7 523.1 567.7 530.2 531.5 522.4C495.3 514.7 458.3 245.7 458.3 245.7Z" fill="#FB923C"/>
<path d="M458.3 245.7C458.3 245.7 533.4 309.1 534.3 377.1C535.2 445.1 584.9 518.8 552.1 522.6C502.5 528.4 453.1 513.5 453.1 513.5L458.3 245.7Z" fill="#334155"/>
<path d="M543.1 368.9C542.9 368.9 542.8 368.8 542.8 368.6C542.8 368.4 542.9 368.3 543.1 368.2L629.3 364.9C629.5 364.9 629.6 365 629.6 365.2C629.6 365.4 629.5 365.5 629.3 365.6L543.1 368.9Z" fill="#334155"/>
<path d="M664 432H576V444H664V432Z" fill="#334155"/>
<path d="M477.5 426.7C477.5 426.7 472.4 390 499.8 390C527.2 390 523.6 426.7 523.6 426.7H477.5Z" fill="white"/>
<path d="M523.9 427.1H477.2V426.8C477.2 426.6 474.6 407 483.8 396.4C487.7 392 493.1 389.7 499.9 389.7C506.7 389.7 512.2 392 516.3 396.4C525.9 406.9 524.1 426.5 524.1 426.7L523.9 427.1ZM477.8 426.4H523.3C523.5 423.9 524.4 406.5 515.7 396.9C511.8 392.6 506.5 390.4 499.8 390.4C493.1 390.4 488 392.6 484.3 396.9C475.9 406.5 477.5 423.9 477.8 426.4Z" fill="#334155"/>
<path d="M531.1 421.2H468.4V432.1H531.1V421.2Z" fill="white"/>
<path d="M531.5 432.5H468.1V420.9H531.5V432.5ZM468.8 431.9H530.8V421.6H468.8V431.9Z" fill="#334155"/>
<path d="M505.7 377.5H492.9C491.1 377.5 489.6 379 489.6 380.8V388.1C489.6 389.9 491.1 391.4 492.9 391.4H505.7C507.5 391.4 509 389.9 509 388.1V380.8C509 379 507.5 377.5 505.7 377.5Z" fill="white"/>
<path d="M506.6 391.8H492C490.5 391.8 489.2 390.6 489.2 389V380C489.2 378.5 490.4 377.2 492 377.2H506.6C508.1 377.2 509.4 378.4 509.4 380V389C509.4 390.5 508.1 391.8 506.6 391.8ZM492 377.8C490.9 377.8 489.9 378.7 489.9 379.9V388.9C489.9 390 490.8 391 492 391H506.6C507.7 391 508.7 390.1 508.7 388.9V379.9C508.7 378.8 507.8 377.8 506.6 377.8H492Z" fill="#334155"/>
<path d="M575.6 346.8H557.3V386.8H575.6V346.8Z" fill="#334155"/>
<path d="M533.7 231.1C528 215.7 519.5 213.7 519.4 213.7L519.5 213C519.9 213.1 528.5 215 534.3 230.8L533.7 231.1Z" fill="white"/>
<path d="M620.3 346.8H602V386.8H620.3V346.8Z" fill="#334155"/>
<path d="M52.1 295.9C55.8 295.9 58.7 294 58.7 291.8C58.7 289.6 55.7 287.7 52.1 287.7C48.5 287.7 45.5 289.6 45.5 291.8C45.5 294 48.4 295.9 52.1 295.9Z" fill="#1E293B"/>
<path fill-rule="evenodd" clip-rule="evenodd" d="M52.1 259.2C47.2 259.2 43.1 263.4 43.1 268.8C43.1 270 43.6 271.4 44.5 273C45.4 274.6 46.7 276.2 47.9 277.6C49.2 279.1 50.4 280.3 51.4 281.2C51.7 281.5 51.9 281.7 52.1 281.9C52.3 281.7 52.6 281.5 52.8 281.2C53.8 280.3 55 279 56.3 277.6C57.6 276.1 58.8 274.6 59.7 273C60.6 271.4 61.1 269.9 61.1 268.8C61.1 263.4 57 259.2 52.1 259.2ZM52.1 283.7C51.5 284.3 51.3 284.7 51.3 284.7C51.3 284.7 51.3 284.7 51.2 284.6C51.1 284.5 51 284.4 50.9 284.3C50.6 284 50.2 283.7 49.7 283.2C48.7 282.3 47.4 280.9 46.1 279.4C44.8 277.9 43.4 276.1 42.4 274.4C41.4 272.6 40.6 270.7 40.6 268.9C40.6 262.2 45.7 256.7 52.2 256.7C58.7 256.7 63.8 262.2 63.8 268.9C63.8 270.7 63 272.7 62 274.4C61 276.2 59.6 277.9 58.3 279.4C57 280.9 55.6 282.3 54.7 283.2C54.2 283.7 53.8 284.1 53.5 284.3C53.3 284.4 53.2 284.5 53.2 284.6L53.1 284.7L52.1 283.7ZM52.1 283.7L52.9 284.7L52.1 285.4L51.3 284.7L52.1 283.7ZM52.1 264.2C50.3 264.2 48.8 265.7 48.8 267.6C48.8 269.5 50.3 271 52.1 271C53.9 271 55.4 269.5 55.4 267.6C55.4 265.7 53.9 264.2 52.1 264.2ZM46.2 267.6C46.2 264.3 48.8 261.6 52.1 261.6C55.4 261.6 58 264.3 58 267.6C58 270.9 55.4 273.6 52.1 273.6C48.8 273.6 46.2 270.8 46.2 267.6Z" fill="#1E293B"/>
<path d="M35.5 307.7L35 310.1H34.2L34.7 307.6L32.8 302.9H33.6L35.3 307L38.6 302.9H39.4L35.5 307.7Z" fill="black"/>
<path d="M38.2 307.9C38.2 306.1 39.5 304.7 41.3 304.7C42.8 304.7 43.8 305.6 43.8 307C43.8 308.9 42.5 310.2 40.7 310.2C39.2 310.2 38.2 309.3 38.2 307.9ZM43.1 307C43.1 305.9 42.5 305.3 41.3 305.3C40 305.3 39 306.4 39 307.8C39 308.9 39.6 309.5 40.8 309.5C42.1 309.6 43.1 308.5 43.1 307Z" fill="black"/>
<path d="M50.7 304.7L49.6 310.1H48.9L49.1 309.2C48.6 309.8 47.8 310.1 47 310.1C45.8 310.1 45.1 309.4 45.1 308.3C45.1 308.1 45.1 307.9 45.2 307.7L45.8 304.6H46.5L45.9 307.7C45.9 307.9 45.8 308 45.8 308.2C45.8 309 46.3 309.4 47.2 309.4C48.3 309.4 49.1 308.8 49.4 307.5L50 304.6H50.7V304.7Z" fill="black"/>
<path d="M60.4 304.7L59.3 310.1H58.6L58.8 309.2C58.3 309.8 57.6 310.1 56.7 310.1C55.3 310.1 54.3 309.2 54.3 307.8C54.3 305.9 55.6 304.6 57.4 304.6C58.4 304.6 59.2 305 59.5 305.8L59.7 304.7H60.4V304.7ZM59.2 307C59.2 305.9 58.6 305.3 57.4 305.3C56.1 305.3 55.1 306.4 55.1 307.8C55.1 308.9 55.7 309.5 56.9 309.5C58.2 309.6 59.2 308.5 59.2 307Z" fill="black"/>
<path d="M65.2 304.7L65.1 305.4C65 305.4 65 305.4 64.9 305.4C63.7 305.4 63 306.1 62.7 307.4L62.2 310.2H61.5L62.6 304.8H63.3L63.1 305.8C63.4 305 64.1 304.7 65.2 304.7Z" fill="black"/>
<path d="M66 307.6C66 307.7 66 307.7 66 307.8C66 308.9 66.6 309.5 67.9 309.5C68.6 309.5 69.3 309.2 69.7 308.8L70 309.3C69.5 309.8 68.7 310.1 67.8 310.1C66.2 310.1 65.3 309.2 65.3 307.8C65.3 306 66.6 304.6 68.3 304.6C69.7 304.6 70.7 305.5 70.7 306.9C70.7 307.1 70.7 307.4 70.6 307.6H66ZM66.1 307.1H70C70 307 70 307 70 306.9C70 305.9 69.3 305.3 68.3 305.3C67.2 305.3 66.4 306 66.1 307.1Z" fill="black"/>
<path d="M45.9 318.8C45.9 319 45.9 319.2 45.8 319.4L45.2 322.5H44.5L45.1 319.4C45.1 319.2 45.2 319.1 45.2 318.9C45.2 318.1 44.7 317.7 43.8 317.7C42.6 317.7 41.9 318.3 41.6 319.6L41 322.5H40.3L41.8 314.9H42.5L41.9 317.9C42.4 317.3 43.1 317 44 317C45.2 317.1 45.9 317.7 45.9 318.8Z" fill="black"/>
<path d="M47.9 320C47.9 320.1 47.9 320.1 47.9 320.2C47.9 321.3 48.5 321.9 49.8 321.9C50.5 321.9 51.2 321.6 51.6 321.2L51.9 321.7C51.4 322.2 50.6 322.5 49.7 322.5C48.1 322.5 47.2 321.6 47.2 320.2C47.2 318.4 48.5 317 50.2 317C51.6 317 52.6 317.9 52.6 319.3C52.6 319.5 52.6 319.8 52.5 320H47.9ZM48 319.5H51.9C51.9 319.4 51.9 319.4 51.9 319.3C51.9 318.3 51.2 317.7 50.2 317.7C49.1 317.7 48.3 318.4 48 319.5Z" fill="black"/>
<path d="M57.3 317.1L57.2 317.8C57.1 317.8 57.1 317.8 57 317.8C55.8 317.8 55.1 318.5 54.8 319.8L54.3 322.6H53.6L54.7 317.2H55.4L55.2 318.2C55.5 317.4 56.3 317.1 57.3 317.1Z" fill="black"/>
<path d="M58.1 320C58.1 320.1 58.1 320.1 58.1 320.2C58.1 321.3 58.7 321.9 60 321.9C60.7 321.9 61.4 321.6 61.8 321.2L62.1 321.7C61.6 322.2 60.8 322.5 59.9 322.5C58.3 322.5 57.4 321.6 57.4 320.2C57.4 318.4 58.7 317 60.4 317C61.8 317 62.8 317.9 62.8 319.3C62.8 319.5 62.8 319.8 62.7 320H58.1ZM58.2 319.5H62.1C62.1 319.4 62.1 319.4 62.1 319.3C62.1 318.3 61.4 317.7 60.4 317.7C59.3 317.7 58.5 318.4 58.2 319.5Z" fill="black"/>
</g>
<defs>
<clipPath id="clip0_555_780">
<rect width="674" height="556.7" fill="white"/>
</clipPath>
<clipPath id="clip1_555_780">
<rect width="674" height="557" fill="white"/>
</clipPath>
<clipPath id="clip2_555_780">
<rect width="674" height="557" fill="white"/>
</clipPath>
<clipPath id="clip3_555_780">
<rect width="674" height="556.7" fill="white"/>
</clipPath>
</defs>
</svg>
