<svg width="363" height="328" viewBox="0 0 363 328" fill="none" xmlns="http://www.w3.org/2000/svg">
<g clip-path="url(#clip0_559_2825)">
<path d="M253.237 166.343H35.4553C33.8934 166.551 32.5398 165.302 32.5398 163.792V2.81143C32.5398 1.50984 33.529 0.416509 34.8306 0.260319H252.612C254.174 0.0520646 255.528 1.30159 255.528 2.81143V163.792C255.528 165.093 254.539 166.187 253.237 166.343Z" fill="#FDBA74"/>
<path d="M35.1429 166.603C34.4661 166.603 33.7893 166.343 33.3207 165.874C32.6959 165.354 32.3835 164.573 32.3835 163.792V2.81143C32.3835 1.40571 33.4248 0.208251 34.8305 0.0520604H252.612C253.393 -0.0520666 254.174 0.208251 254.799 0.728886C255.424 1.24952 255.736 2.03047 255.736 2.81143V163.792C255.736 165.197 254.695 166.395 253.289 166.551H35.5074C35.3512 166.603 35.247 166.603 35.1429 166.603ZM252.924 0.416505C252.82 0.416505 252.716 0.416505 252.664 0.416505H34.8826C33.7372 0.572695 32.8001 1.5619 32.8001 2.75936V163.74C32.8001 164.416 33.1124 165.041 33.6331 165.51C34.1537 165.978 34.8305 166.187 35.5074 166.083H253.289C254.486 165.926 255.371 164.937 255.371 163.74V2.81143C255.371 2.1346 255.059 1.50984 254.591 1.04127C254.07 0.624759 253.497 0.416505 252.924 0.416505Z" fill="#1E293B"/>
<path d="M255.528 12.0787L32.5398 12.7556V2.86349C32.5398 1.56191 33.529 0.416509 34.8306 0.260319H252.56C254.122 0.0520646 255.476 1.30159 255.476 2.81143L255.528 12.0787Z" fill="#334155"/>
<path d="M249.384 8.53841C250.738 8.53841 251.779 7.44507 251.779 6.14349C251.779 4.8419 250.686 3.74857 249.384 3.74857C248.083 3.74857 246.989 4.8419 246.989 6.14349C246.989 7.44507 248.083 8.53841 249.384 8.53841Z" fill="#B90F0F"/>
<path d="M242.304 8.53841C243.657 8.53841 244.699 7.44507 244.699 6.14349C244.699 4.8419 243.605 3.74857 242.304 3.74857C241.002 3.74857 239.909 4.8419 239.909 6.14349C239.909 7.44507 241.002 8.53841 242.304 8.53841Z" fill="#FB923C"/>
<path d="M235.223 8.53841C236.576 8.53841 237.618 7.44507 237.618 6.14349C237.618 4.8419 236.524 3.74857 235.223 3.74857C233.921 3.74857 232.828 4.8419 232.828 6.14349C232.828 7.44507 233.921 8.53841 235.223 8.53841Z" fill="#34D399"/>
<path d="M202.371 30.3009H53.2088C51.3345 30.3009 49.8247 31.8108 49.8247 33.6851V147.548C49.8247 149.422 51.3345 150.932 53.2088 150.932H202.319C204.193 150.932 205.703 149.422 205.703 147.548V33.6851C205.755 31.8108 204.245 30.3009 202.371 30.3009Z" fill="#334155"/>
<path d="M197.685 26.5003H48.5753C46.701 26.5003 45.1912 28.0102 45.1912 29.8844V143.747C45.1912 145.622 46.701 147.131 48.5753 147.131H197.685C199.559 147.131 201.069 145.622 201.069 143.747V29.8844C201.069 28.0102 199.559 26.5003 197.685 26.5003Z" fill="white"/>
<path d="M197.685 147.34H48.5753C46.5969 147.34 44.9829 145.726 44.9829 143.747V29.8845C44.9829 27.906 46.5969 26.2921 48.5753 26.2921H197.685C199.664 26.2921 201.278 27.906 201.278 29.8845V143.747C201.278 145.778 199.664 147.392 197.685 147.34ZM48.5753 26.7086C46.8051 26.7086 45.3994 28.1143 45.3994 29.8845V143.747C45.3994 145.517 46.8051 146.923 48.5753 146.923H197.685C199.455 146.923 200.861 145.517 200.861 143.747V29.8845C200.861 28.1143 199.455 26.7086 197.685 26.7086H48.5753Z" fill="#1E293B"/>
<path d="M169.727 41.3384H57.478V49.8248H169.727V41.3384Z" fill="#E2E8F0"/>
<path d="M169.727 52.7403H57.478V61.2267H169.727V52.7403Z" fill="#E2E8F0"/>
<path d="M169.727 64.1943H57.478V72.6806H169.727V64.1943Z" fill="#E2E8F0"/>
<path d="M179.463 91.2673H67.2139V99.7537H179.463V91.2673Z" fill="#E2E8F0"/>
<path d="M179.463 102.721H67.2139V111.208H179.463V102.721Z" fill="#E2E8F0"/>
<path d="M179.463 114.123H67.2139V122.61H179.463V114.123Z" fill="#E2E8F0"/>
<path d="M179.463 125.994H67.2139V134.48H179.463V125.994Z" fill="#E2E8F0"/>
<path d="M246.416 20.1486H144.945C143.07 20.1486 141.561 21.6584 141.561 23.5327V122.818C141.561 124.692 143.07 126.202 144.945 126.202H246.416C248.291 126.202 249.801 124.692 249.801 122.818V23.5327C249.801 21.6584 248.291 20.1486 246.416 20.1486Z" fill="#475569"/>
<path d="M246.416 126.41H144.945C142.966 126.41 141.352 124.796 141.352 122.818V23.5327C141.352 21.5543 142.966 19.9403 144.945 19.9403H246.416C248.395 19.9403 250.009 21.5543 250.009 23.5327V122.818C250.009 124.796 248.395 126.41 246.416 126.41ZM144.945 20.3568C143.175 20.3568 141.769 21.7625 141.769 23.5327V122.818C141.769 124.588 143.175 125.994 144.945 125.994H246.416C248.187 125.994 249.592 124.588 249.592 122.818V23.5327C249.592 21.7625 248.187 20.3568 246.416 20.3568H144.945Z" fill="white"/>
<path d="M134.272 82.5727C134.272 82.5727 121.829 68.3073 118.236 73.3575C118.236 73.3575 108.396 67.4743 107.251 66.5371C105.22 64.8711 102.305 65.9124 106.001 70.7543C107.824 73.1492 113.811 76.9498 113.811 76.9498C113.811 76.9498 105.325 87.2063 109.646 91.2152C113.967 95.2241 126.306 97.4629 126.306 97.4629L134.272 82.5727Z" fill="#FEE2E2"/>
<path d="M117.403 91.5797C117.299 91.5797 117.195 91.5276 117.195 91.4235C117.143 91.3194 117.247 91.2152 117.351 91.1632C118.861 90.8508 123.338 83.666 123.286 82.6768C123.286 81.6876 122.349 81.3752 122.349 81.3232C122.245 81.2711 122.193 81.167 122.193 81.0629C122.245 80.9587 122.349 80.9067 122.453 80.9067C122.87 81.0629 123.703 81.5835 123.703 82.6248C123.755 83.8743 119.121 91.2152 117.403 91.5797Z" fill="#1E293B"/>
<path d="M120.527 84.4991C120.475 84.4991 120.475 84.4991 120.423 84.447L114.435 81.0629C114.331 81.0108 114.279 80.8546 114.383 80.7505C114.435 80.6464 114.592 80.5943 114.696 80.6984L120.683 84.0825C120.787 84.1346 120.839 84.2908 120.735 84.3949C120.683 84.447 120.631 84.4991 120.527 84.4991Z" fill="#1E293B"/>
<path d="M117.611 88.4559H117.559L111.312 85.8006C111.208 85.7486 111.156 85.6444 111.208 85.5403C111.26 85.4362 111.364 85.3841 111.468 85.4362L117.716 88.0914C117.82 88.1435 117.872 88.2476 117.82 88.3517C117.82 88.4038 117.716 88.4559 117.611 88.4559Z" fill="#1E293B"/>
<path d="M114.436 91.059C114.383 91.059 114.279 91.007 114.227 90.9549C114.019 90.5905 112.978 90.5384 112.405 90.5905C112.301 90.5905 112.197 90.5384 112.197 90.3822C112.197 90.226 112.249 90.174 112.405 90.174C112.561 90.174 114.175 90.0178 114.592 90.7467C114.644 90.8508 114.644 90.9549 114.54 91.059C114.488 91.059 114.488 91.059 114.436 91.059Z" fill="#1E293B"/>
<path d="M118.549 74.3467C118.549 74.3467 117.091 81.5314 116.57 83.4057C116.05 85.28 119.902 85.4883 121.516 82.833" fill="#FEE2E2"/>
<path d="M118.705 84.2387C118.653 84.2387 118.601 84.2387 118.601 84.2387C117.455 84.0825 116.622 83.614 116.57 83.5619L116.414 83.4578L116.987 81.8438L117.976 75.8565C117.976 75.7524 118.08 75.6482 118.236 75.7003C118.392 75.7524 118.445 75.8044 118.392 75.9606L117.351 82L116.883 83.3016C117.143 83.4578 117.82 83.7181 118.549 83.8222C119.173 83.8743 119.85 82.833 120.111 82.1562L117.924 82C117.82 82 117.716 81.8959 117.716 81.7917C117.716 81.6876 117.82 81.5835 117.924 81.5835L120.683 81.7917L120.579 82.0521C120.579 82.2603 119.85 84.2387 118.705 84.2387Z" fill="#1E293B"/>
<path d="M118.132 84.9676C116.778 84.9676 116.414 84.1346 116.362 84.0825C116.31 83.9784 116.362 83.8743 116.466 83.8222C116.57 83.7702 116.674 83.8222 116.726 83.9264C116.726 83.9784 117.247 85.0197 119.486 84.2908C119.538 84.2908 121.36 83.7702 123.495 78.7721C123.547 78.6679 123.651 78.6159 123.755 78.6679C123.859 78.72 123.911 78.8241 123.859 78.9283C121.568 84.1867 119.642 84.7073 119.538 84.7073C119.017 84.9156 118.497 84.9676 118.132 84.9676Z" fill="#1E293B"/>
<path d="M121.152 78.6679L119.121 78.3035C119.017 78.3035 118.913 78.1994 118.965 78.0432C119.017 77.887 119.121 77.8349 119.225 77.887L121.204 78.2514C121.308 78.2514 121.412 78.3556 121.36 78.5117C121.308 78.6159 121.256 78.72 121.152 78.6679Z" fill="#1E293B"/>
<path d="M120.735 77.9391L119.434 77.7308C119.33 77.7308 119.225 77.6267 119.278 77.4705C119.278 77.3664 119.382 77.2622 119.538 77.3143L120.787 77.5225C120.891 77.5225 120.996 77.6267 120.944 77.7829C120.944 77.887 120.839 77.9911 120.735 77.9391Z" fill="#1E293B"/>
<path d="M106.834 70.7543C106.782 70.7543 106.73 70.7022 106.678 70.7022C106.626 70.5981 106.626 70.494 106.73 70.3898L108.761 68.7759C108.865 68.7238 108.969 68.7238 109.073 68.8279C109.125 68.9321 109.125 69.0362 109.021 69.1403L106.99 70.7543C106.938 70.7022 106.886 70.7543 106.834 70.7543Z" fill="#1E293B"/>
<path d="M110.01 73.5137C109.958 73.5137 109.906 73.5137 109.854 73.4616C109.75 73.4095 109.75 73.2533 109.854 73.1492L111.728 70.9626C111.78 70.8584 111.937 70.8584 112.041 70.9626C112.145 71.0146 112.145 71.1708 112.041 71.2749L110.166 73.4616C110.166 73.4616 110.114 73.5137 110.01 73.5137Z" fill="#1E293B"/>
<path d="M158.013 94.8597L130.471 79.0324L123.39 102.149L159.731 122.87L158.013 94.8597Z" fill="#FB923C"/>
<path d="M186.231 58.5714L172.538 62.0076L171.289 54.3022C158.013 53.261 166.135 33.3727 166.135 33.3727C169.779 29.3117 176.131 28.1663 181.962 31.8629C186.127 34.5181 185.71 40.4013 184.305 49.3562C183.732 52.8965 186.231 58.5714 186.231 58.5714Z" fill="#FEE2E2"/>
<path d="M166.03 40.7657C166.343 40.7657 166.603 40.5054 166.603 40.193C166.603 39.8806 166.343 39.6203 166.03 39.6203C165.718 39.6203 165.458 39.8806 165.458 40.193C165.458 40.5054 165.718 40.7657 166.03 40.7657Z" fill="#1E293B"/>
<path d="M169.571 38.6832C169.363 38.6832 169.206 38.6311 168.998 38.527C167.749 37.746 166.551 38.1105 166.499 38.1105C165.926 38.2667 165.354 37.9543 165.197 37.4337C165.041 36.861 165.302 36.2883 165.874 36.1321C165.978 36.08 168.061 35.4552 170.144 36.7568C170.664 37.0692 170.768 37.694 170.456 38.2146C170.248 38.527 169.883 38.6832 169.571 38.6832Z" fill="#1E293B"/>
<path d="M166.811 48.4711C166.759 48.4711 166.707 48.4711 166.655 48.4711C165.614 48.367 165.093 47.0133 165.041 46.9613L164.937 46.701L169.414 46.2845L169.154 46.6489C168.373 47.8464 167.592 48.4711 166.811 48.4711ZM165.614 47.0133C165.822 47.3778 166.187 47.9505 166.759 48.0025C167.28 48.0546 167.957 47.6381 168.634 46.753L165.614 47.0133Z" fill="#1E293B"/>
<path d="M172.33 60.0813C172.33 60.0813 162.126 68.2032 156.815 81.6356C153.639 89.6533 155.514 94.9117 156.086 103.658C157.023 118.601 158.742 121.777 158.637 126.098C169.987 126.775 191.542 125.837 201.694 126.254C204.453 112.822 205.547 101.94 204.87 88.2997C204.505 80.7505 195.707 61.7994 186.075 57.3219C179.931 58.1549 172.33 60.0813 172.33 60.0813Z" fill="#FB923C"/>
<path d="M173.215 54.927C173.111 54.927 173.007 54.8229 173.007 54.7187C173.007 54.6146 173.111 54.5105 173.215 54.5105C173.267 54.5105 177.068 54.4063 178.734 52.6362C178.786 52.5321 178.942 52.5321 179.046 52.6362C179.151 52.7403 179.151 52.8444 179.046 52.9486C177.276 54.7708 173.372 54.927 173.215 54.927Z" fill="#1E293B"/>
<path d="M163.844 42.2756C163.844 42.2756 161.917 42.9003 163.688 44.5664L163.844 42.2756Z" fill="#FEE2E2"/>
<path d="M177.641 42.9003C177.641 42.9003 179.046 42.0152 178.109 39.3079C177.484 35.7156 175.87 35.9759 166.135 33.3727C167.853 28.7911 171.705 25.8756 177.484 28.0622C183.263 30.2489 186.752 34.3098 186.127 40.0368C185.971 41.5467 183.68 48.367 185.606 52.8444C188.99 60.7581 178.317 74.3987 178.317 74.3987C178.317 74.3987 180.452 63.3092 176.391 56.6971C172.33 50.033 177.641 42.9003 177.641 42.9003Z" fill="#1E293B"/>
<path d="M177.797 39.4641C177.797 39.4641 180.608 38.1625 179.619 41.6508C178.63 45.1391 177.172 45.8679 176.339 45.1911" fill="#FEE2E2"/>
<path d="M176.912 45.6597C176.651 45.6597 176.391 45.5556 176.183 45.3994L176.443 45.0349C176.703 45.1911 176.912 45.2432 177.224 45.1391C177.589 45.0349 178.578 44.4102 179.411 41.5467C179.723 40.5054 179.723 39.8286 179.359 39.5162C178.994 39.2038 178.161 39.4641 177.901 39.5683L177.745 39.2038C177.797 39.1518 178.994 38.6311 179.671 39.2038C180.14 39.6203 180.192 40.4533 179.827 41.6508C179.203 43.8375 178.317 45.1911 177.38 45.5035C177.172 45.6597 177.016 45.6597 176.912 45.6597Z" fill="#1E293B"/>
<path d="M178.213 40.974C178.213 40.974 178.786 40.9219 177.693 42.8483L178.213 40.974Z" fill="#FEE2E2"/>
<path d="M177.849 42.9524L177.484 42.7441C178.265 41.3905 178.161 41.1302 178.161 41.1302C178.161 41.1302 178.161 41.1822 178.265 41.1822L178.213 40.7657C178.317 40.7657 178.422 40.8178 178.526 40.9219C178.63 41.1302 178.682 41.5467 177.849 42.9524Z" fill="#1E293B"/>
<path d="M185.19 51.647C185.19 51.647 186.491 56.7492 192.375 62.1638C192.375 62.1638 187.585 58.5194 184.929 62.1638C184.409 62.8927 185.19 51.6991 185.19 51.647Z" fill="#1E293B"/>
<path d="M158.273 122.037L157.024 114.123L151.349 118.08L158.273 122.037Z" fill="#1E293B"/>
<path d="M180.088 126.202C179.984 126.202 179.879 126.098 179.879 125.994V107.98C179.879 107.876 179.984 107.771 180.088 107.771C180.192 107.771 180.296 107.876 180.296 107.98V125.994C180.296 126.098 180.192 126.202 180.088 126.202Z" fill="#1E293B"/>
<path d="M179.463 77.2102C179.411 77.2102 179.359 77.2102 179.307 77.1581C179.202 77.106 179.202 76.9498 179.307 76.8457L181.91 74.1905C181.962 74.0863 182.118 74.0863 182.222 74.1905C182.326 74.2425 182.326 74.3987 182.222 74.5029L179.619 77.1581C179.567 77.2102 179.515 77.2102 179.463 77.2102Z" fill="#1E293B"/>
<path d="M234.546 44.0978C239.128 44.0978 242.824 40.4013 242.824 35.8718C242.824 31.3422 239.076 27.5937 234.546 27.5937C230.017 27.5937 226.268 31.2902 226.268 35.8197C226.268 40.3492 229.965 44.0978 234.546 44.0978Z" fill="#B90F0F"/>
<path fill-rule="evenodd" clip-rule="evenodd" d="M239.961 37.5898C239.804 37.746 239.596 37.8502 239.388 37.8502H237.149C236.681 37.8502 236.368 37.4857 236.316 37.0692V36.3403V36.2882C236.316 36.2362 236.264 36.2362 236.264 36.1841C235.848 36.08 235.223 35.8717 234.546 35.9238C233.817 35.9238 233.14 36.1841 232.776 36.3403C232.776 36.3403 232.776 36.3403 232.724 36.3403V37.0692C232.724 37.5378 232.411 37.9022 231.943 37.9022L229.756 37.9543C229.496 38.0063 229.288 37.8502 229.131 37.694C228.975 37.5378 228.923 37.2775 228.923 37.0692V37.0171L229.235 35.247V35.1949C229.288 35.0908 229.392 34.8305 229.652 34.6743C230.016 34.466 231.006 34.0495 232.62 33.7371C233.192 33.6851 233.817 33.5809 234.494 33.5809C237.045 33.5809 238.763 34.2578 239.388 34.5181C239.492 34.5702 239.596 34.6222 239.648 34.7263C239.7 34.8305 239.804 34.9346 239.804 35.0908L240.169 36.8089C240.221 37.2254 240.117 37.4857 239.961 37.5898ZM239.336 37.0692L238.971 35.4032C238.451 35.1949 236.837 34.5181 234.442 34.5181C233.869 34.5181 233.244 34.6222 232.672 34.6743C231.162 34.9346 230.277 35.299 229.964 35.5073L229.652 37.2254L231.839 37.1733V36.4444C231.839 36.1321 231.995 35.8197 232.359 35.6635H232.411C232.776 35.5073 233.609 35.1949 234.494 35.1949C235.275 35.1949 236.004 35.4032 236.42 35.5073C236.472 35.5073 236.524 35.5594 236.576 35.5594C236.681 35.6114 236.733 35.6635 236.785 35.7156C236.837 35.8197 236.941 35.9238 236.993 36.0279C237.045 36.1321 237.097 36.2882 237.097 36.4444V37.1213L239.336 37.0692Z" fill="#FEE2E2"/>
<path d="M40.0368 7.18476L39.7764 8.43429H39.412L39.6723 7.18476L38.6831 4.78984H39.0475L39.8806 6.82032L41.5466 4.78984H41.9631L40.0368 7.18476Z" fill="#CBD5E1"/>
<path d="M41.4424 7.2889C41.4424 6.35175 42.1192 5.67493 43.0564 5.67493C43.8373 5.67493 44.3059 6.1435 44.3059 6.82032C44.3059 7.75747 43.6291 8.43429 42.6919 8.43429C41.911 8.43429 41.4424 7.96572 41.4424 7.2889ZM43.8894 6.82032C43.8894 6.29969 43.577 5.98731 43.0043 5.98731C42.3275 5.98731 41.8068 6.50794 41.8068 7.2889C41.8068 7.80953 42.1192 8.12191 42.6919 8.12191C43.3687 8.12191 43.8894 7.60128 43.8894 6.82032Z" fill="#CBD5E1"/>
<path d="M47.7421 5.67493L47.1694 8.43429H46.857L46.9611 8.01778C46.7008 8.33016 46.3364 8.48636 45.9199 8.48636C45.2951 8.48636 44.9307 8.17397 44.9307 7.60128C44.9307 7.49715 44.9307 7.39302 44.9827 7.2889L45.2951 5.72699H45.6595L45.3472 7.2889C45.3472 7.39302 45.2951 7.44509 45.2951 7.54921C45.2951 7.96572 45.5034 8.17397 45.9719 8.17397C46.5446 8.17397 46.9611 7.86159 47.0653 7.23683L47.3776 5.77905L47.7421 5.67493Z" fill="#CBD5E1"/>
<path d="M50.189 5.67493L50.137 6.03937H49.9808C49.4081 6.03937 48.9916 6.35175 48.8875 7.02858L48.6271 8.43429H48.2627L48.7833 5.67493H49.1478L49.0436 6.19556C49.304 5.83112 49.6684 5.67493 50.189 5.67493Z" fill="#CBD5E1"/>
<path d="M52.4799 4.52953H52.8444L52.0634 8.38222H51.699L52.4799 4.52953Z" fill="#CBD5E1"/>
<path d="M53.4692 7.1327V7.23683C53.4692 7.80953 53.7816 8.06985 54.4064 8.06985C54.7708 8.06985 55.0832 7.96572 55.2915 7.7054L55.4477 7.96572C55.1873 8.22604 54.7708 8.38223 54.3543 8.38223C53.5734 8.38223 53.0527 7.91366 53.0527 7.23683C53.0527 6.29969 53.6775 5.62286 54.5626 5.62286C55.2915 5.62286 55.76 6.03937 55.76 6.76826C55.76 6.87239 55.76 6.97651 55.708 7.08064L53.4692 7.1327ZM53.4692 6.87239H55.4477C55.4477 6.82032 55.4477 6.82032 55.4477 6.76826C55.4477 6.24763 55.0832 5.93524 54.5626 5.93524C54.0419 5.98731 53.6254 6.35175 53.4692 6.87239Z" fill="#CBD5E1"/>
<path d="M59.3003 5.67493L58.7276 8.43429H58.3632L58.4673 8.01778C58.207 8.33016 57.8425 8.48636 57.374 8.48636C56.6971 8.48636 56.1765 8.06985 56.1765 7.34096C56.1765 6.40382 56.8533 5.72699 57.7384 5.72699C58.2591 5.72699 58.6235 5.93524 58.7797 6.29969L58.8838 5.72699L59.3003 5.67493ZM58.6756 6.82032C58.6756 6.29969 58.3632 5.98731 57.7905 5.98731C57.1137 5.98731 56.593 6.50794 56.593 7.2889C56.593 7.80953 56.9054 8.12191 57.4781 8.12191C58.207 8.12191 58.6756 7.60128 58.6756 6.82032Z" fill="#CBD5E1"/>
<path d="M61.7473 5.67493L61.6953 6.03937H61.5911C61.0184 6.03937 60.6019 6.35175 60.4978 7.02858L60.2375 8.43429H59.873L60.3937 5.67493H60.7581L60.654 6.19556C60.8623 5.83112 61.2267 5.67493 61.7473 5.67493Z" fill="#CBD5E1"/>
<path d="M64.7149 6.56001C64.7149 6.66413 64.7149 6.76826 64.6628 6.87239L64.3504 8.43429H63.986L64.2984 6.87239C64.2984 6.76826 64.3504 6.7162 64.3504 6.61207C64.3504 6.19556 64.1422 5.98731 63.6215 5.98731C63.0488 5.98731 62.6323 6.29969 62.4761 6.92445L62.1638 8.38223H61.7993L62.32 5.62286H62.6844L62.5803 6.03937C62.8406 5.72699 63.205 5.5708 63.6736 5.5708C64.3504 5.67493 64.7149 5.98731 64.7149 6.56001Z" fill="#CBD5E1"/>
<path d="M65.9122 5.67492H66.2767L65.756 8.43429H65.3916L65.9122 5.67492ZM66.0164 4.84191C66.0164 4.68572 66.1205 4.58159 66.3287 4.58159C66.4849 4.58159 66.5891 4.68572 66.5891 4.78984C66.5891 4.94603 66.4849 5.10222 66.2767 5.10222C66.1205 5.10222 66.0164 4.94603 66.0164 4.84191Z" fill="#CBD5E1"/>
<path d="M69.6609 6.56001C69.6609 6.66413 69.6609 6.76826 69.6088 6.87239L69.2964 8.43429H68.932L69.2443 6.87239C69.2443 6.76826 69.2964 6.7162 69.2964 6.61207C69.2964 6.19556 69.0882 5.98731 68.5675 5.98731C67.9948 5.98731 67.5783 6.29969 67.4742 6.92445L67.1618 8.38223H66.7974L67.318 5.62286H67.6824L67.5783 6.03937C67.8386 5.72699 68.2031 5.5708 68.6716 5.5708C69.2964 5.67493 69.6609 5.98731 69.6609 6.56001Z" fill="#CBD5E1"/>
<path d="M73.4095 5.67493L72.9409 8.06985C72.7326 9.05905 72.212 9.4235 71.3269 9.4235C70.8063 9.4235 70.3898 9.26731 70.0774 9.00699L70.2856 8.74667C70.4939 8.95493 70.8583 9.11112 71.3269 9.11112C72.0037 9.11112 72.3682 8.79874 72.5244 8.12191L72.5764 7.80953C72.3161 8.12191 71.9517 8.2781 71.4831 8.2781C70.7542 8.2781 70.2856 7.86159 70.2856 7.18477C70.2856 6.29969 70.9104 5.62286 71.8475 5.62286C72.3682 5.62286 72.7847 5.83112 72.9409 6.24763L73.045 5.62286L73.4095 5.67493ZM72.7847 6.76826C72.7847 6.24763 72.4723 5.98731 71.8996 5.98731C71.2228 5.98731 70.7022 6.50794 70.7022 7.18477C70.7022 7.7054 71.0145 7.96572 71.5872 7.96572C72.2641 7.96572 72.7847 7.49715 72.7847 6.76826Z" fill="#CBD5E1"/>
<path d="M78.3554 6.82032C78.3554 7.75747 77.6786 8.43429 76.7935 8.43429C76.2729 8.43429 75.9085 8.22604 75.7523 7.86159L75.4399 9.4235H75.0754L75.8043 5.67493H76.1688L76.0647 6.09144C76.325 5.77905 76.6894 5.62286 77.158 5.62286C77.8869 5.67493 78.3554 6.09144 78.3554 6.82032ZM77.991 6.82032C77.991 6.29969 77.6786 5.98731 77.1059 5.98731C76.4291 5.98731 75.9085 6.50794 75.9085 7.2889C75.9085 7.80953 76.2208 8.12191 76.7935 8.12191C77.4704 8.12191 77.991 7.60128 77.991 6.82032Z" fill="#CBD5E1"/>
<path d="M81.8958 5.67493L81.3231 8.43429H80.9586L81.0628 8.01778C80.8024 8.33016 80.438 8.48636 79.9694 8.48636C79.2405 8.48636 78.772 8.06985 78.772 7.34096C78.772 6.40382 79.4488 5.72699 80.3339 5.72699C80.8545 5.72699 81.219 5.93524 81.3751 6.29969L81.4793 5.72699L81.8958 5.67493ZM81.271 6.82032C81.271 6.29969 80.9586 5.98731 80.3859 5.98731C79.7091 5.98731 79.1885 6.50794 79.1885 7.2889C79.1885 7.80953 79.5009 8.12191 80.0736 8.12191C80.7504 8.12191 81.271 7.60128 81.271 6.82032Z" fill="#CBD5E1"/>
<path d="M82.9371 7.60127C82.9371 7.65333 82.9371 7.70539 82.9371 7.75746C82.9371 7.96571 83.0413 8.1219 83.3536 8.1219C83.5098 8.1219 83.666 8.06984 83.7702 7.96571L83.8743 8.22603C83.7181 8.33016 83.4578 8.38222 83.2495 8.38222C82.833 8.38222 82.5727 8.17396 82.5727 7.75746C82.5727 7.70539 82.5727 7.60127 82.5727 7.5492L82.8851 5.93523H82.4165L82.4686 5.62285H82.9371L83.0413 5.05016H83.4057L83.3016 5.62285H84.1346L84.0825 5.93523H83.2495L82.9371 7.60127Z" fill="#CBD5E1"/>
<path d="M87.3625 6.56C87.3625 6.66413 87.3625 6.76826 87.3104 6.87238L86.9981 8.43429H86.6336L86.946 6.87238C86.946 6.76826 86.9981 6.71619 86.9981 6.61207C86.9981 6.19556 86.7898 5.9873 86.2692 5.9873C85.6965 5.9873 85.28 6.29968 85.1759 6.92445L84.8635 8.38222H84.499L85.28 4.52953H85.6444L85.332 6.09143C85.5924 5.77905 85.9568 5.67492 86.3733 5.67492C86.9981 5.67492 87.3625 5.9873 87.3625 6.56Z" fill="#CBD5E1"/>
<path d="M89.9657 7.60127C89.9657 7.65333 89.9657 7.70539 89.9657 7.75746C89.9657 7.96571 90.0698 8.1219 90.3822 8.1219C90.5384 8.1219 90.6946 8.06984 90.7987 7.96571L90.9028 8.22603C90.7467 8.33016 90.4863 8.38222 90.2781 8.38222C89.8616 8.38222 89.6013 8.17396 89.6013 7.75746C89.6013 7.70539 89.6013 7.60127 89.6013 7.5492L89.9136 5.93523H89.4451L89.4971 5.62285H89.9657L90.0698 5.05016H90.4343L90.3301 5.62285H91.1632L91.1111 5.93523H90.2781L89.9657 7.60127Z" fill="#CBD5E1"/>
<path d="M91.3713 7.2889C91.3713 6.35175 92.0482 5.67493 92.9853 5.67493C93.7663 5.67493 94.2348 6.1435 94.2348 6.82032C94.2348 7.75747 93.558 8.43429 92.6209 8.43429C91.8399 8.43429 91.3713 7.96572 91.3713 7.2889ZM93.8183 6.82032C93.8183 6.29969 93.5059 5.98731 92.9332 5.98731C92.2564 5.98731 91.7358 6.50794 91.7358 7.2889C91.7358 7.80953 92.0482 8.12191 92.6209 8.12191C93.3497 8.12191 93.8183 7.60128 93.8183 6.82032Z" fill="#CBD5E1"/>
<path d="M99.1289 6.82032C99.1289 7.75747 98.452 8.43429 97.567 8.43429C97.0463 8.43429 96.6819 8.22604 96.5257 7.86159L96.2133 9.4235H95.8489L96.5778 5.67493H96.9422L96.8381 6.09144C97.0984 5.77905 97.4628 5.62286 97.9314 5.62286C98.6082 5.67493 99.1289 6.09144 99.1289 6.82032ZM98.7644 6.82032C98.7644 6.29969 98.452 5.98731 97.8793 5.98731C97.2025 5.98731 96.6819 6.50794 96.6819 7.2889C96.6819 7.80953 96.9943 8.12191 97.567 8.12191C98.2438 8.12191 98.7644 7.60128 98.7644 6.82032Z" fill="#CBD5E1"/>
<path d="M101.524 5.67493L101.472 6.03937H101.368C100.795 6.03937 100.378 6.35175 100.274 7.02858L100.014 8.43429H99.6494L100.17 5.67493H100.534L100.43 6.19556C100.639 5.83112 101.003 5.67493 101.524 5.67493Z" fill="#CBD5E1"/>
<path d="M101.94 7.1327C101.94 7.18477 101.94 7.18477 101.94 7.23683C101.94 7.80953 102.253 8.06985 102.877 8.06985C103.242 8.06985 103.554 7.96572 103.762 7.7054L103.919 7.96572C103.658 8.22604 103.242 8.38223 102.825 8.38223C102.044 8.38223 101.524 7.91366 101.524 7.23683C101.524 6.29969 102.148 5.62286 103.034 5.62286C103.762 5.62286 104.231 6.03937 104.231 6.76826C104.231 6.87239 104.231 6.97651 104.179 7.08064L101.94 7.1327ZM101.992 6.87239H103.971V6.76826C103.971 6.24763 103.606 5.93524 103.138 5.93524C102.513 5.98731 102.148 6.35175 101.992 6.87239Z" fill="#CBD5E1"/>
<path d="M107.823 6.82032C107.823 7.75747 107.147 8.43429 106.262 8.43429C105.741 8.43429 105.376 8.22604 105.22 7.86159L104.908 9.4235H104.543L105.272 5.67493H105.637L105.533 6.09144C105.793 5.77905 106.157 5.62286 106.626 5.62286C107.355 5.67493 107.823 6.09144 107.823 6.82032ZM107.459 6.82032C107.459 6.29969 107.147 5.98731 106.574 5.98731C105.897 5.98731 105.376 6.50794 105.376 7.2889C105.376 7.80953 105.689 8.12191 106.262 8.12191C106.938 8.12191 107.459 7.60128 107.459 6.82032Z" fill="#CBD5E1"/>
<path d="M111.364 5.67493L110.791 8.43429H110.427L110.531 8.01778C110.27 8.33016 109.906 8.48636 109.437 8.48636C108.709 8.48636 108.24 8.06985 108.24 7.34096C108.24 6.40382 108.917 5.72699 109.802 5.72699C110.323 5.72699 110.687 5.93524 110.843 6.29969L110.947 5.72699L111.364 5.67493ZM110.739 6.82032C110.739 6.29969 110.427 5.98731 109.854 5.98731C109.177 5.98731 108.656 6.50794 108.656 7.2889C108.656 7.80953 108.969 8.12191 109.542 8.12191C110.218 8.12191 110.739 7.60128 110.739 6.82032Z" fill="#CBD5E1"/>
<path d="M113.759 5.67493L113.706 6.03937H113.602C113.03 6.03937 112.613 6.35175 112.509 7.02858L112.249 8.43429H111.884L112.405 5.67493H112.769L112.665 6.19556C112.873 5.83112 113.238 5.67493 113.759 5.67493Z" fill="#CBD5E1"/>
<path d="M114.227 7.1327V7.23683C114.227 7.80953 114.54 8.06985 115.164 8.06985C115.529 8.06985 115.841 7.96572 116.05 7.7054L116.206 7.96572C115.945 8.22604 115.529 8.38223 115.112 8.38223C114.331 8.38223 113.811 7.91366 113.811 7.23683C113.811 6.29969 114.436 5.62286 115.321 5.62286C116.05 5.62286 116.518 6.03937 116.518 6.76826C116.518 6.87239 116.518 6.97651 116.466 7.08064L114.227 7.1327ZM114.227 6.87239H116.206C116.206 6.82032 116.206 6.82032 116.206 6.76826C116.206 6.24763 115.841 5.93524 115.373 5.93524C114.8 5.98731 114.383 6.35175 114.227 6.87239Z" fill="#CBD5E1"/>
<path d="M119.433 5.36254L119.381 5.67492H120.214L120.162 5.9873H119.329L118.861 8.43429H118.496L118.965 5.9873H118.496L118.548 5.67492H119.017L119.069 5.31048C119.173 4.78984 119.486 4.47746 120.006 4.47746C120.214 4.47746 120.423 4.52953 120.579 4.63365L120.423 4.89397C120.319 4.78984 120.214 4.73778 120.006 4.73778C119.694 4.84191 119.486 4.9981 119.433 5.36254Z" fill="#CBD5E1"/>
<path d="M120.058 7.2889C120.058 6.35175 120.735 5.67493 121.672 5.67493C122.453 5.67493 122.922 6.1435 122.922 6.82032C122.922 7.75747 122.245 8.43429 121.308 8.43429C120.579 8.43429 120.058 7.96572 120.058 7.2889ZM122.557 6.82032C122.557 6.29969 122.245 5.98731 121.672 5.98731C120.995 5.98731 120.475 6.50794 120.475 7.2889C120.475 7.80953 120.787 8.12191 121.36 8.12191C122.037 8.12191 122.557 7.60128 122.557 6.82032Z" fill="#CBD5E1"/>
<path d="M125.317 5.67493L125.265 6.03937H125.161C124.588 6.03937 124.171 6.35175 124.067 7.02858L123.807 8.43429H123.39L123.911 5.67493H124.275L124.171 6.19556C124.432 5.83112 124.796 5.67493 125.317 5.67493Z" fill="#CBD5E1"/>
<path d="M127.659 4.52953H128.597V4.84191H128.024L127.191 9.11111H127.764L127.712 9.42349H126.774L127.659 4.52953Z" fill="#CBD5E1"/>
<path d="M130.055 5.10222H128.753L128.805 4.78984H131.773L131.721 5.10222H130.419L129.742 8.43429H129.378L130.055 5.10222Z" fill="#CBD5E1"/>
<path d="M134.48 6.56C134.48 6.66413 134.48 6.76826 134.428 6.87238L134.116 8.43429H133.751L134.064 6.87238C134.064 6.76826 134.064 6.71619 134.064 6.61207C134.064 6.19556 133.803 5.9873 133.335 5.9873C132.762 5.9873 132.345 6.29968 132.241 6.92445L131.929 8.38222H131.564L132.345 4.52953H132.71L132.397 6.09143C132.658 5.77905 133.022 5.67492 133.439 5.67492C134.116 5.67492 134.48 5.9873 134.48 6.56Z" fill="#CBD5E1"/>
<path d="M135.469 7.1327C135.469 7.18477 135.469 7.18477 135.469 7.23683C135.469 7.80953 135.782 8.06985 136.406 8.06985C136.771 8.06985 137.083 7.96572 137.291 7.7054L137.448 7.96572C137.187 8.22604 136.771 8.38223 136.354 8.38223C135.573 8.38223 135.053 7.91366 135.053 7.23683C135.053 6.29969 135.677 5.62286 136.563 5.62286C137.291 5.62286 137.76 6.03937 137.76 6.76826C137.76 6.87239 137.76 6.97651 137.708 7.08064L135.469 7.1327ZM135.521 6.87239H137.5V6.76826C137.5 6.24763 137.135 5.93524 136.667 5.93524C136.094 5.98731 135.677 6.35175 135.521 6.87239Z" fill="#CBD5E1"/>
<path d="M140.78 5.10222L140.519 6.40381H142.394L142.341 6.71619H140.467L140.207 8.06984H142.394L142.341 8.38222H139.738L140.467 4.73778H142.966L142.914 5.05016H140.78V5.10222Z" fill="#CBD5E1"/>
<path d="M146.038 6.56001C146.038 6.66413 146.038 6.76826 145.986 6.87239L145.674 8.43429H145.309L145.622 6.87239C145.622 6.76826 145.622 6.7162 145.622 6.61207C145.622 6.19556 145.361 5.98731 144.893 5.98731C144.32 5.98731 143.903 6.29969 143.799 6.92445L143.487 8.38223H143.175L143.695 5.62286H144.06L143.956 6.03937C144.216 5.72699 144.58 5.5708 145.049 5.5708C145.674 5.67493 146.038 5.98731 146.038 6.56001Z" fill="#CBD5E1"/>
<path d="M149.787 5.67493L149.318 8.06985C149.11 9.05905 148.589 9.4235 147.704 9.4235C147.183 9.4235 146.767 9.26731 146.455 9.00699L146.663 8.74667C146.871 8.95493 147.236 9.11112 147.704 9.11112C148.381 9.11112 148.745 8.79874 148.902 8.12191L148.954 7.80953C148.693 8.12191 148.329 8.2781 147.86 8.2781C147.131 8.2781 146.663 7.86159 146.663 7.18477C146.663 6.29969 147.288 5.62286 148.225 5.62286C148.745 5.62286 149.162 5.83112 149.318 6.24763L149.422 5.62286L149.787 5.67493ZM149.162 6.76826C149.162 6.24763 148.85 5.98731 148.277 5.98731C147.6 5.98731 147.079 6.50794 147.079 7.18477C147.079 7.7054 147.392 7.96572 147.964 7.96572C148.693 7.96572 149.162 7.49715 149.162 6.76826Z" fill="#CBD5E1"/>
<path d="M151.036 4.52953H151.401L150.62 8.38222H150.255L151.036 4.52953Z" fill="#CBD5E1"/>
<path d="M152.234 5.67492H152.598L152.077 8.43429H151.713L152.234 5.67492ZM152.338 4.84191C152.338 4.68572 152.442 4.58159 152.598 4.58159C152.754 4.58159 152.858 4.68572 152.858 4.78984C152.858 4.94603 152.754 5.10222 152.546 5.10222C152.442 5.10222 152.338 4.94603 152.338 4.84191Z" fill="#CBD5E1"/>
<path d="M152.806 8.12191L152.963 7.80953C153.171 8.01778 153.535 8.12191 153.9 8.12191C154.42 8.12191 154.733 7.91366 154.733 7.65334C154.733 7.02858 153.171 7.44509 153.171 6.50794C153.171 5.98731 153.639 5.67493 154.368 5.67493C154.733 5.67493 155.097 5.77905 155.305 5.93524L155.149 6.24763C154.941 6.09143 154.629 6.03937 154.368 6.03937C153.848 6.03937 153.587 6.24763 153.587 6.56001C153.587 7.18477 155.149 6.76826 155.149 7.7054C155.149 8.22604 154.681 8.53842 153.952 8.53842C153.431 8.43429 153.015 8.33017 152.806 8.12191Z" fill="#CBD5E1"/>
<path d="M158.533 6.56C158.533 6.66413 158.533 6.76826 158.481 6.87238L158.169 8.43429H157.804L158.117 6.87238C158.117 6.76826 158.117 6.71619 158.117 6.61207C158.117 6.19556 157.856 5.9873 157.388 5.9873C156.815 5.9873 156.399 6.29968 156.294 6.92445L155.982 8.38222H155.67L156.451 4.52953H156.815L156.503 6.09143C156.763 5.77905 157.127 5.67492 157.544 5.67492C158.169 5.67492 158.533 5.9873 158.533 6.56Z" fill="#CBD5E1"/>
<path d="M163.583 7.44508H162.854L162.646 8.38222H162.282L162.49 7.44508H160.407L160.46 7.18476L162.854 4.78984H163.323L160.98 7.1327H162.542L162.698 6.29968H163.063L162.907 7.1327H163.635L163.583 7.44508Z" fill="#CBD5E1"/>
<path d="M165.041 5.10222L164.677 6.24762H165.145C166.082 6.24762 166.499 6.61206 166.499 7.18476C166.499 7.91365 165.926 8.43429 164.989 8.43429C164.416 8.43429 163.948 8.22603 163.74 7.96571L163.948 7.65333C164.156 7.91365 164.52 8.06984 164.989 8.06984C165.666 8.06984 166.082 7.75746 166.082 7.23682C166.082 6.82032 165.822 6.56 165.041 6.56H164.208L164.781 4.73778H166.759L166.707 5.05016L165.041 5.10222Z" fill="#CBD5E1"/>
<path d="M173.163 6.56001C173.163 6.66413 173.163 6.76826 173.111 6.87239L172.799 8.43429H172.434L172.747 6.87239C172.747 6.76826 172.747 6.7162 172.747 6.61207C172.747 6.24763 172.538 5.98731 172.07 5.98731C171.549 5.98731 171.133 6.29969 171.028 6.92445L170.716 8.43429H170.352L170.664 6.87239C170.664 6.76826 170.664 6.7162 170.664 6.61207C170.664 6.19556 170.456 5.98731 169.987 5.98731C169.414 5.98731 169.05 6.29969 168.894 6.92445L168.581 8.38223H168.217L168.738 5.62286H169.102L168.998 6.03937C169.258 5.72699 169.623 5.5708 170.039 5.5708C170.508 5.5708 170.82 5.77905 170.924 6.1435C171.185 5.77905 171.601 5.5708 172.07 5.5708C172.851 5.67493 173.215 5.98731 173.163 6.56001C173.215 6.56001 173.163 6.56001 173.163 6.56001Z" fill="#CBD5E1"/>
<path d="M174.413 5.67492H174.777L174.257 8.43429H173.892L174.413 5.67492ZM174.465 4.84191C174.465 4.68572 174.569 4.58159 174.725 4.58159C174.881 4.58159 174.985 4.68572 174.985 4.78984C174.985 4.94603 174.881 5.10222 174.673 5.10222C174.569 5.10222 174.465 4.94603 174.465 4.84191Z" fill="#CBD5E1"/>
<path d="M178.109 6.56001C178.109 6.66413 178.109 6.76826 178.057 6.87239L177.745 8.43429H177.38L177.693 6.87239C177.693 6.76826 177.693 6.7162 177.693 6.61207C177.693 6.19556 177.432 5.98731 176.964 5.98731C176.391 5.98731 175.975 6.29969 175.87 6.92445L175.558 8.38223H175.194L175.714 5.62286H176.079L175.975 6.03937C176.235 5.72699 176.599 5.5708 177.068 5.5708C177.745 5.67493 178.109 5.98731 178.109 6.56001Z" fill="#CBD5E1"/>
<path d="M181.806 5.67493L181.285 8.43429H180.92L181.025 8.01778C180.764 8.33016 180.4 8.48636 179.983 8.48636C179.359 8.48636 178.994 8.17397 178.994 7.60128C178.994 7.49715 178.994 7.39302 179.046 7.2889L179.359 5.72699H179.723L179.411 7.2889C179.411 7.39302 179.411 7.44509 179.411 7.54921C179.411 7.96572 179.619 8.17397 180.087 8.17397C180.66 8.17397 181.077 7.86159 181.181 7.23683L181.493 5.77905L181.806 5.67493Z" fill="#CBD5E1"/>
<path d="M182.899 7.60127C182.899 7.65333 182.899 7.70539 182.899 7.75746C182.899 7.96571 183.003 8.1219 183.316 8.1219C183.472 8.1219 183.628 8.06984 183.732 7.96571L183.836 8.22603C183.68 8.33016 183.42 8.38222 183.211 8.38222C182.795 8.38222 182.535 8.17396 182.535 7.75746C182.535 7.70539 182.535 7.60127 182.535 7.5492L182.847 5.93523H182.378L182.43 5.62285H182.899L183.003 5.05016H183.368L183.264 5.62285H184.097L184.044 5.93523H183.211L182.899 7.60127Z" fill="#CBD5E1"/>
<path d="M184.669 7.1327V7.23683C184.669 7.80953 184.982 8.06985 185.606 8.06985C185.971 8.06985 186.283 7.96572 186.491 7.7054L186.648 7.96572C186.387 8.22604 185.971 8.38223 185.554 8.38223C184.773 8.38223 184.253 7.91366 184.253 7.23683C184.253 6.29969 184.877 5.62286 185.763 5.62286C186.491 5.62286 186.96 6.03937 186.96 6.76826C186.96 6.87239 186.96 6.97651 186.908 7.08064L184.669 7.1327ZM184.721 6.87239H186.7C186.7 6.82032 186.7 6.82032 186.7 6.76826C186.7 6.24763 186.335 5.93524 185.867 5.93524C185.242 5.98731 184.825 6.35175 184.721 6.87239Z" fill="#CBD5E1"/>
<path d="M187.168 8.12191L187.324 7.80953C187.533 8.01778 187.897 8.12191 188.262 8.12191C188.782 8.12191 189.095 7.91366 189.095 7.65334C189.095 7.02858 187.533 7.44509 187.533 6.50794C187.533 5.98731 188.001 5.67493 188.73 5.67493C189.095 5.67493 189.459 5.77905 189.667 5.93524L189.511 6.24763C189.303 6.09143 188.99 6.03937 188.73 6.03937C188.209 6.03937 187.949 6.24763 187.949 6.56001C187.949 7.18477 189.511 6.76826 189.511 7.7054C189.511 8.22604 189.043 8.53842 188.314 8.53842C187.845 8.43429 187.376 8.33017 187.168 8.12191Z" fill="#CBD5E1"/>
<path d="M192.01 7.60127C192.01 7.65333 192.01 7.70539 192.01 7.75746C192.01 7.96571 192.114 8.1219 192.427 8.1219C192.583 8.1219 192.739 8.06984 192.843 7.96571L192.947 8.22603C192.791 8.33016 192.531 8.38222 192.323 8.38222C191.906 8.38222 191.646 8.17396 191.646 7.75746C191.646 7.70539 191.646 7.60127 191.646 7.5492L191.958 5.93523H191.49L191.542 5.62285H192.01L192.114 5.05016H192.479L192.375 5.62285H193.208L193.156 5.93523H192.323L192.01 7.60127Z" fill="#CBD5E1"/>
<path d="M193.728 7.1327V7.23683C193.728 7.80953 194.041 8.06985 194.665 8.06985C195.03 8.06985 195.342 7.96572 195.551 7.7054L195.707 7.96572C195.446 8.22604 195.03 8.38223 194.613 8.38223C193.832 8.38223 193.312 7.91366 193.312 7.23683C193.312 6.29969 193.937 5.62286 194.822 5.62286C195.551 5.62286 196.019 6.03937 196.019 6.76826C196.019 6.87239 196.019 6.97651 195.967 7.08064L193.728 7.1327ZM193.78 6.87239H195.759C195.759 6.82032 195.759 6.82032 195.759 6.76826C195.759 6.24763 195.394 5.93524 194.926 5.93524C194.353 5.98731 193.937 6.35175 193.78 6.87239Z" fill="#CBD5E1"/>
<path d="M196.279 8.12191L196.435 7.80953C196.644 8.01778 197.008 8.12191 197.373 8.12191C197.893 8.12191 198.206 7.91366 198.206 7.65334C198.206 7.02858 196.644 7.44509 196.644 6.50794C196.644 5.98731 197.112 5.67493 197.841 5.67493C198.206 5.67493 198.57 5.77905 198.778 5.93524L198.622 6.24763C198.414 6.09143 198.102 6.03937 197.841 6.03937C197.321 6.03937 197.06 6.24763 197.06 6.56001C197.06 7.18477 198.622 6.76826 198.622 7.7054C198.622 8.22604 198.154 8.53842 197.425 8.53842C196.904 8.43429 196.488 8.33017 196.279 8.12191Z" fill="#CBD5E1"/>
<path d="M199.715 7.60127C199.715 7.65333 199.715 7.70539 199.715 7.75746C199.715 7.96571 199.82 8.1219 200.132 8.1219C200.288 8.1219 200.444 8.06984 200.548 7.96571L200.653 8.22603C200.496 8.33016 200.236 8.38222 200.028 8.38222C199.611 8.38222 199.351 8.17396 199.351 7.75746C199.351 7.70539 199.351 7.60127 199.351 7.5492L199.663 5.93523H199.195L199.247 5.62285H199.715L199.82 5.05016H200.184L200.08 5.62285H200.913L200.861 5.93523H200.028L199.715 7.60127Z" fill="#CBD5E1"/>
<path d="M200.653 9.42349L200.705 9.11111H201.277L202.11 4.84191H201.538L201.59 4.52953H202.527L201.538 9.42349C201.59 9.42349 200.653 9.42349 200.653 9.42349Z" fill="#CBD5E1"/>
</g>
<g clip-path="url(#clip1_559_2825)">
<path d="M125.629 299.834C125.629 299.834 147.86 278.279 150.776 275.989C153.691 273.698 188.678 255.684 188.678 255.684C188.678 255.684 216.22 234.754 219.291 233.453C222.363 232.151 269.845 222.624 269.845 222.624C269.845 222.624 352.626 155.982 355.854 153.691C359.082 151.401 380.116 139.738 387.3 129.326C388.237 128.024 401.305 116.206 405.991 113.811C407.969 112.822 405.887 102.409 408.594 95.953C411.197 89.8095 417.341 80.6984 417.341 80.6984L441.655 96.2654L407.969 178.63C407.969 178.63 387.873 211.69 387.248 218.198C386.623 224.706 380.115 255.476 380.115 255.476L377.669 282.705L370.692 297.907L125.629 299.834Z" fill="white"/>
<path d="M132.658 282.028L136.458 262.973L142.706 279.373L149.63 256.413L154.42 278.123L161.709 261.046L165.718 282.08L132.658 282.028Z" fill="#FED7AA"/>
<path d="M140.78 222.832L144.112 206.171L149.526 220.489L155.566 200.444L159.731 219.396L166.134 204.505L169.623 222.884H140.78V222.832Z" fill="#475569"/>
<path d="M331.384 108.709L333.467 98.2438L336.903 107.251L340.703 94.6514L343.307 106.574L347.315 97.2025L349.502 108.761L331.384 108.709Z" fill="#FED7AA"/>
<path d="M296.606 143.747L292.961 143.956L279.164 144.684L278.488 139.53C266.773 138.541 270.782 114.852 270.782 114.852C271.303 108.761 279.008 106.626 286.245 108.657C291.399 110.114 294.523 127.556 295.877 137.291C296.345 141.092 296.606 143.747 296.606 143.747Z" fill="#FED7AA"/>
<path d="M277.394 125.421C277.707 125.421 278.019 125.161 278.019 124.796C278.019 124.432 277.759 124.171 277.394 124.171C277.03 124.171 276.77 124.432 276.77 124.796C276.77 125.161 277.03 125.421 277.394 125.421Z" fill="#1E293B"/>
<path d="M271.615 125.213C271.928 125.213 272.24 124.952 272.24 124.588C272.24 124.223 271.98 123.963 271.615 123.963C271.251 123.963 270.99 124.223 270.99 124.588C270.99 124.952 271.251 125.213 271.615 125.213Z" fill="#1E293B"/>
<path d="M269.897 122.974C269.793 122.974 269.741 122.974 269.637 122.922C269.272 122.766 269.064 122.349 269.22 121.985C269.272 121.881 269.637 120.996 270.626 120.579C271.407 120.267 272.24 120.371 273.229 120.839C273.594 120.996 273.75 121.464 273.541 121.829C273.385 122.193 272.917 122.349 272.604 122.141C272.032 121.881 271.563 121.776 271.199 121.933C270.782 122.089 270.626 122.505 270.574 122.505C270.47 122.818 270.209 122.974 269.897 122.974Z" fill="#1E293B"/>
<path d="M280.362 122.87C280.206 122.87 280.049 122.818 279.945 122.714C278.123 121.412 277.082 122.245 276.978 122.349C276.665 122.61 276.249 122.61 275.936 122.349C275.676 122.089 275.676 121.62 275.936 121.36C276.561 120.735 278.436 119.902 280.726 121.568C281.039 121.777 281.143 122.245 280.882 122.557C280.778 122.766 280.57 122.87 280.362 122.87Z" fill="#1E293B"/>
<path d="M272.396 128.857C272.292 128.857 272.136 128.753 272.136 128.649C272.084 127.972 272.292 127.503 272.604 127.295C273.125 126.983 273.802 127.347 273.802 127.347C273.906 127.399 273.958 127.556 273.906 127.66C273.854 127.764 273.698 127.816 273.594 127.764C273.49 127.712 273.073 127.556 272.865 127.712C272.709 127.816 272.604 128.128 272.604 128.649C272.657 128.753 272.552 128.857 272.396 128.857Z" fill="#1E293B"/>
<path d="M275.988 133.178C275.884 133.178 275.78 133.178 275.728 133.178C274.843 133.074 274.166 132.45 273.698 131.408L273.594 131.148L273.906 131.096C273.958 131.096 276.926 130.471 279.841 130.367H280.362L279.997 130.783C279.893 130.836 277.915 133.178 275.988 133.178ZM274.27 131.46C274.687 132.189 275.207 132.606 275.78 132.71C277.082 132.866 278.54 131.564 279.216 130.836C277.082 130.94 274.999 131.304 274.27 131.46Z" fill="#1E293B"/>
<path d="M290.931 125.265C290.931 125.265 291.451 120.006 288.692 117.507C285.933 115.008 270.366 120.11 270.73 114.852C271.095 109.594 275.103 106.678 281.716 107.355C288.328 108.032 292.284 113.811 293.17 119.954C294.055 126.098 292.701 123.338 292.701 123.338L290.931 125.265Z" fill="#1E293B"/>
<path d="M289.473 118.861C289.473 118.861 293.013 117.143 293.43 121.152C293.846 125.161 291.608 126.098 290.202 125.004" fill="#FED7AA"/>
<path d="M291.399 125.681C290.931 125.681 290.514 125.525 290.098 125.213L290.41 124.848C290.931 125.265 291.555 125.317 292.128 125.057C292.545 124.796 293.534 123.963 293.274 121.204C293.169 120.11 292.753 119.33 292.128 119.017C291.087 118.444 289.629 119.121 289.629 119.121L289.421 118.705C289.473 118.653 291.087 117.924 292.388 118.653C293.169 119.069 293.638 119.954 293.742 121.256C293.95 123.39 293.482 124.952 292.388 125.577C292.024 125.629 291.712 125.733 291.399 125.681Z" fill="#1E293B"/>
<path d="M284.475 138.437C284.371 138.437 284.267 138.385 284.267 138.281C284.215 138.177 284.267 138.02 284.423 137.968C284.475 137.968 288.38 136.615 289.577 134.324C289.629 134.22 289.785 134.168 289.889 134.22C289.994 134.272 290.046 134.428 289.994 134.532C288.692 137.031 284.735 138.385 284.579 138.437C284.527 138.437 284.527 138.437 284.475 138.437Z" fill="#1E293B"/>
<path d="M289.837 123.182C289.837 123.182 290.41 120.839 292.18 121.308C292.18 121.308 292.18 120.475 291.451 120.631" fill="#FED7AA"/>
<path d="M290.046 123.234L289.577 123.13C289.577 123.078 289.942 121.777 290.879 121.256C291.191 121.1 291.556 120.996 291.92 121.048C291.92 120.996 291.868 120.996 291.816 120.943C291.764 120.891 291.66 120.891 291.556 120.943L291.451 120.475C291.816 120.371 292.024 120.475 292.128 120.579C292.441 120.839 292.441 121.308 292.441 121.36V121.672L292.128 121.568C291.764 121.464 291.399 121.516 291.139 121.672C290.358 122.089 290.046 123.234 290.046 123.234Z" fill="#1E293B"/>
<path d="M296.502 140.884C296.502 140.884 321.284 146.559 324.928 149.578C328.573 152.598 322.846 238.659 323.002 246.052C310.767 246.833 257.818 250.165 255.059 248.968C252.352 247.77 250.946 151.192 256.048 148.641C260.838 146.246 275.78 140.311 281.976 141.613C288.171 142.914 296.502 140.884 296.502 140.884Z" fill="#FB7200"/>
<path d="M264.899 234.598C264.899 234.598 237.774 214.45 227.361 222.571C217.053 230.641 211.43 255.111 236.628 269.168C261.827 283.225 320.607 295.304 320.607 295.304L331.124 264.639L264.899 234.598Z" fill="#1E293B"/>
<path d="M320.607 295.304L327.271 296.918L331.124 264.639L320.607 295.304Z" fill="#FED7AA"/>
<path d="M315.297 304.207C315.036 305.561 314.776 307.227 314.828 309.153C314.828 309.83 314.88 310.507 314.932 311.236C315.14 313.006 315.557 314.88 316.39 316.806C317.483 319.305 319.201 321.909 321.857 324.251C323.21 325.449 324.772 326.594 326.646 327.636L350.491 285.308L345.65 282.028L330.135 271.563L316.234 300.927C316.234 300.927 315.713 302.176 315.297 304.207Z" fill="#FB7200"/>
<path d="M321.908 324.251C323.262 325.449 324.824 326.594 326.698 327.636L350.543 285.308L345.701 282.028L321.908 324.251Z" fill="#1E293B"/>
<path d="M316.025 232.203C316.025 232.203 343.202 212.055 353.511 220.177C363.872 228.246 369.494 252.716 344.296 266.773C319.097 280.83 260.317 292.909 260.317 292.909L249.801 262.244L316.025 232.203Z" fill="#1E293B"/>
<path d="M260.369 292.857L253.705 294.471L249.853 262.192L260.369 292.857Z" fill="#FED7AA"/>
<path d="M253.549 297.907C253.393 299.261 253.029 300.927 252.456 302.749C252.248 303.374 251.987 304.051 251.675 304.676C250.946 306.29 249.905 307.956 248.551 309.517C246.729 311.548 244.282 313.422 241.002 314.828C239.336 315.505 237.514 316.077 235.379 316.494L226.216 268.752L231.839 267.19L249.905 262.244L253.757 294.523C253.653 294.523 253.757 295.877 253.549 297.907Z" fill="#FB7200"/>
<path d="M240.898 314.828C239.232 315.505 237.409 316.077 235.275 316.494L226.112 268.752L231.734 267.19L240.898 314.828Z" fill="#1E293B"/>
<path d="M320.555 147.652C341.745 151.973 365.746 206.692 347.524 218.094C342.682 221.114 335.966 223.404 315.244 227.257L310.923 206.015L323.939 197.321L320.555 147.652Z" fill="#FB7200"/>
<path d="M264.222 145.257C264.222 145.257 263.962 145.465 253.601 149.578C243.969 153.431 227.101 176.495 227.101 203.1C227.101 217.938 253.133 228.194 253.133 228.194L261.411 205.39C261.411 205.39 257.922 193.468 258.287 190.188C258.651 186.908 256.881 182.951 256.881 182.951L264.222 145.257Z" fill="#FB7200"/>
<path d="M254.07 199.768C254.07 199.768 260.317 200.236 264.691 197.841C269.481 195.186 272.032 204.61 272.032 204.61C272.032 204.61 277.29 219.135 266.669 224.654L254.07 199.768Z" fill="#FED7AA"/>
<path d="M246.625 219.76C246.625 219.76 243.501 202.579 251.675 203.1C258.912 203.568 263.337 207.421 263.702 208.41C267.554 217.521 269.481 226.737 264.691 225.799C256.985 224.29 252.144 225.331 246.625 219.76Z" fill="#FED7AA"/>
<path d="M265.42 215.178C265.367 215.178 265.315 215.178 265.263 215.126C261.515 211.846 254.122 210.024 254.07 210.024C253.966 209.972 253.861 209.868 253.914 209.712C253.966 209.556 254.07 209.503 254.226 209.556C254.538 209.608 261.775 211.378 265.628 214.762C265.732 214.866 265.732 215.022 265.628 215.074C265.576 215.178 265.472 215.178 265.42 215.178Z" fill="#1E293B"/>
<path d="M264.534 221.062C264.482 221.062 264.43 221.062 264.378 221.01C262.14 218.771 255.788 217.157 255.736 217.105C255.632 217.053 255.527 216.949 255.58 216.792C255.632 216.688 255.736 216.584 255.892 216.636C256.152 216.688 262.4 218.302 264.743 220.645C264.847 220.749 264.847 220.905 264.743 220.957C264.639 221.062 264.587 221.062 264.534 221.062Z" fill="#1E293B"/>
<path d="M263.702 219.083C263.597 219.083 263.493 219.031 263.441 218.875L262.504 214.502C262.504 214.397 262.556 214.241 262.712 214.241C262.817 214.241 262.973 214.293 262.973 214.45L263.91 218.823C263.91 218.927 263.858 219.083 263.702 219.083Z" fill="#1E293B"/>
<path d="M264.743 224.862C264.639 224.862 264.535 224.758 264.482 224.654L264.222 222.623C264.222 222.467 264.274 222.363 264.43 222.363C264.535 222.363 264.691 222.415 264.691 222.571L264.951 224.602C265.003 224.706 264.951 224.862 264.743 224.862Z" fill="#1E293B"/>
<path d="M273.594 224.914V230.381L268.596 226.684L257.194 193.884L262.192 192.114L273.594 224.914Z" fill="white"/>
<path d="M273.854 230.85L268.439 226.789V226.737L256.985 193.728L262.452 191.854L262.504 192.062L273.854 224.914V230.85ZM268.804 226.528L273.333 229.912V224.966L262.036 192.427L257.506 193.989L268.804 226.528Z" fill="#1E293B"/>
<path d="M249.28 203.62C249.28 203.62 250.998 199.195 255.528 199.768C257.923 200.08 262.036 202.944 265.159 206.015C267.086 207.942 264.587 211.378 262.296 210.337C260.005 209.295 249.28 203.62 249.28 203.62Z" fill="#FED7AA"/>
<path d="M263.337 209.972C263.233 209.972 263.181 209.92 263.129 209.868C263.077 209.764 263.077 209.608 263.233 209.556C263.233 209.556 264.691 208.67 264.899 207.733C264.951 207.473 264.899 207.213 264.743 206.952C264.066 205.911 263.389 205.703 263.129 205.651L261.775 207.473C261.723 207.577 261.515 207.577 261.463 207.525C261.359 207.473 261.359 207.265 261.411 207.213L262.92 205.182H263.025C263.077 205.182 264.118 205.182 265.159 206.744C265.42 207.109 265.472 207.473 265.367 207.89C265.107 209.035 263.545 209.972 263.441 210.024C263.389 209.92 263.337 209.972 263.337 209.972Z" fill="#1E293B"/>
<path d="M253.914 205.547H253.861C253.757 205.495 253.653 205.39 253.705 205.234L254.59 201.85C254.642 201.746 254.747 201.642 254.903 201.694C255.059 201.746 255.111 201.85 255.059 202.006L254.174 205.39C254.122 205.443 254.018 205.547 253.914 205.547Z" fill="#1E293B"/>
<path d="M253.341 204.089H253.289C253.185 204.037 253.081 203.933 253.133 203.777L253.601 202.319C253.653 202.215 253.758 202.11 253.914 202.163C254.07 202.215 254.122 202.319 254.07 202.475L253.601 203.933C253.549 204.037 253.445 204.089 253.341 204.089Z" fill="#1E293B"/>
<path d="M260.161 207.733C260.109 207.733 260.057 207.733 260.005 207.681C259.901 207.629 259.901 207.473 259.953 207.369L262.088 204.453C262.14 204.349 262.296 204.349 262.4 204.401C262.504 204.453 262.504 204.61 262.452 204.714L260.317 207.629C260.265 207.733 260.213 207.733 260.161 207.733Z" fill="#1E293B"/>
<path d="M263.285 199.351C263.285 199.351 261.827 207.837 265.316 209.243C268.804 210.649 273.75 202.527 270.99 197.425C269.377 194.405 263.181 196.123 263.285 199.351Z" fill="#FED7AA"/>
<path d="M270.21 197.685L266.409 197.321C266.253 197.321 266.201 197.217 266.201 197.06C266.201 196.904 266.305 196.852 266.461 196.852L270.21 197.217C270.366 197.217 270.418 197.321 270.418 197.477C270.47 197.581 270.366 197.685 270.21 197.685Z" fill="#1E293B"/>
<path d="M265.94 208.358C265.888 208.358 265.888 208.358 265.836 208.306C265.836 208.306 263.597 207.004 264.534 204.453L264.587 204.245L269.585 205.599C269.689 205.651 269.793 205.755 269.741 205.911C269.689 206.015 269.585 206.119 269.428 206.067L264.899 204.818C264.274 206.848 265.94 207.837 266.044 207.837C266.148 207.89 266.2 208.046 266.148 208.15C266.096 208.358 265.992 208.358 265.94 208.358Z" fill="#1E293B"/>
<path d="M314.776 207.942C314.776 207.942 291.243 223.925 296.241 234.442L324.876 221.27L314.776 207.942Z" fill="#FED7AA"/>
<path d="M301.604 231.162C301.552 231.162 300.302 231.006 299.886 230.016C299.469 229.183 299.781 228.038 300.719 226.58L300.771 226.528L307.799 221.374C307.903 221.322 308.06 221.322 308.112 221.426C308.216 221.53 308.164 221.686 308.06 221.738L301.031 226.841C300.198 228.09 299.938 229.131 300.25 229.756C300.614 230.485 301.552 230.589 301.604 230.589C301.76 230.589 301.812 230.745 301.812 230.85C301.812 231.058 301.708 231.162 301.604 231.162Z" fill="#1E293B"/>
<path d="M297.491 233.349C297.439 233.349 297.335 233.297 297.282 233.244C297.282 233.192 296.658 232.359 296.658 230.954C296.658 229.652 297.23 227.622 299.782 225.227C299.886 225.123 300.042 225.123 300.146 225.227C300.25 225.331 300.25 225.487 300.146 225.539C295.564 229.86 297.647 232.776 297.751 232.88C297.855 232.984 297.803 233.14 297.699 233.192C297.595 233.349 297.543 233.349 297.491 233.349Z" fill="#1E293B"/>
<path d="M300.927 229.548C300.823 229.548 300.771 229.496 300.719 229.444C300.667 229.34 300.719 229.183 300.823 229.131L303.582 227.674L302.541 226.476C302.437 226.372 302.437 226.216 302.541 226.164C302.645 226.112 302.801 226.112 302.905 226.164L304.311 227.83L301.031 229.6C300.979 229.548 300.927 229.548 300.927 229.548Z" fill="#1E293B"/>
<path d="M309.518 214.241C309.518 214.241 297.178 218.25 296.97 227.153L309.518 214.241Z" fill="#FED7AA"/>
<path d="M298.324 224.342C298.272 224.342 298.22 224.342 298.167 224.29C298.063 224.185 298.063 224.029 298.167 223.977L303.582 218.927C303.686 218.823 303.842 218.823 303.946 218.927C304.051 219.031 304.051 219.187 303.946 219.239L298.532 224.29C298.48 224.342 298.376 224.342 298.324 224.342Z" fill="#1E293B"/>
<path d="M287.078 241.47L238.867 216.74L237.045 220.333L287.807 245.427L339.87 219.968L338.1 215.855L287.078 241.47Z" fill="white"/>
<path d="M287.807 245.74L287.703 245.688L236.733 220.489L238.763 216.428L287.078 241.21L338.256 215.595L340.235 220.124L340.027 220.229L287.807 245.74ZM237.357 220.281L287.807 245.219L339.61 219.916L338.048 216.272L287.13 241.783L287.026 241.731L238.971 217.105L237.357 220.281Z" fill="#1E293B"/>
<path d="M241.783 218.354C241.783 218.354 245.063 214.241 245.635 214.502C246.416 214.866 272.032 226.945 286.766 240.013C286.766 240.013 320.294 214.97 333.779 213.512L336.174 216.897L287.026 241.47L241.783 218.354Z" fill="white"/>
<path d="M287.078 241.731L241.418 218.406L241.627 218.146C243.918 215.335 245.271 213.981 245.792 214.241C246.885 214.762 272.136 226.684 286.818 239.648C289.317 237.774 320.867 214.658 333.779 213.252H333.935L336.591 216.949L287.078 241.731ZM242.199 218.25L287.13 241.21L335.914 216.792L333.727 213.773C320.347 215.335 287.286 239.909 286.974 240.169L286.818 240.273L286.662 240.169C272.136 227.309 247.041 215.387 245.584 214.71C245.167 214.762 243.553 216.532 242.199 218.25Z" fill="#1E293B"/>
<path d="M322.95 193.937C322.95 193.937 322.898 193.937 322.846 193.937C322.741 193.884 322.637 193.728 322.689 193.624L323.627 191.177L321.075 188.626C320.971 188.522 320.971 188.366 321.075 188.314C321.18 188.262 321.336 188.21 321.44 188.314L324.199 191.073L323.158 193.832C323.158 193.884 323.054 193.937 322.95 193.937Z" fill="#1E293B"/>
<path d="M254.382 191.281L249.28 190.709C249.124 190.709 249.072 190.552 249.072 190.448C249.072 190.292 249.228 190.24 249.332 190.24L254.434 190.813C254.591 190.813 254.643 190.969 254.643 191.073C254.591 191.177 254.486 191.281 254.382 191.281Z" fill="#1E293B"/>
<path d="M253.861 189.615C253.809 189.615 253.757 189.615 253.757 189.563L250.79 187.637C250.686 187.585 250.634 187.429 250.738 187.324C250.79 187.22 250.946 187.168 251.05 187.272L254.018 189.199C254.122 189.251 254.174 189.407 254.07 189.511C254.018 189.563 253.914 189.615 253.861 189.615Z" fill="#1E293B"/>
<path d="M238.659 171.081C238.659 171.081 238.607 171.081 238.555 171.081C238.451 171.029 238.347 170.872 238.399 170.768C238.451 170.664 242.72 159.106 250.738 154.524C250.842 154.472 250.998 154.524 251.05 154.629C251.102 154.733 251.05 154.889 250.946 154.941C243.084 159.47 238.867 170.82 238.815 170.924C238.867 171.029 238.763 171.081 238.659 171.081Z" fill="white"/>
<path d="M350.648 193.937C350.543 193.937 350.439 193.884 350.387 193.728C348.721 185.867 344.452 178.734 344.452 178.682C344.4 178.578 344.4 178.422 344.556 178.37C344.66 178.317 344.817 178.317 344.869 178.474C344.921 178.526 349.19 185.71 350.856 193.676C350.908 193.728 350.804 193.884 350.648 193.937C350.648 193.884 350.648 193.884 350.648 193.937Z" fill="white"/>
</g>
<path d="M325.527 122.651C334.237 122.651 341.297 115.633 341.297 106.98C341.297 98.3271 334.237 91.309 325.527 91.309C316.817 91.309 309.757 98.3271 309.757 106.98C309.757 115.633 316.817 122.651 325.527 122.651Z" fill="#FB923C"/>
<path d="M325.308 119.246C332.098 119.246 337.595 113.78 337.595 107.037C337.595 100.295 332.092 94.8284 325.308 94.8284C318.525 94.8284 313.021 100.295 313.021 107.037C313.021 113.78 318.525 119.246 325.308 119.246Z" fill="white"/>
<path d="M325.288 119.481C323.294 119.481 321.32 119.002 319.509 118.059C316.546 116.518 314.365 113.925 313.365 110.755C312.366 107.584 312.667 104.215 314.219 101.279C315.77 98.3323 318.379 96.1665 321.57 95.1721C324.762 94.1777 328.151 94.4796 331.108 96.0207C337.221 99.1966 339.6 106.725 336.403 112.801C334.852 115.742 332.243 117.913 329.052 118.908C327.818 119.293 326.553 119.481 325.293 119.481H325.288ZM325.314 95.0471C324.101 95.0471 322.882 95.2293 321.69 95.6042C318.618 96.5622 316.098 98.6551 314.604 101.487C313.115 104.325 312.818 107.574 313.782 110.625C314.745 113.681 316.848 116.18 319.701 117.663C322.56 119.147 325.824 119.439 328.896 118.481C331.967 117.523 334.487 115.43 335.976 112.598C339.058 106.741 336.768 99.4829 330.874 96.4216C329.125 95.5105 327.219 95.0523 325.298 95.0523L325.314 95.0471Z" fill="#1E293B"/>
<path d="M316.937 131.398L309.955 127.769C309.565 127.566 309.387 127.108 309.538 126.697L313.36 116.409C313.547 115.914 314.12 115.696 314.583 115.94L324.075 120.871C324.543 121.11 324.689 121.714 324.387 122.141L318.066 131.132C317.817 131.492 317.332 131.606 316.947 131.403L316.937 131.398Z" fill="#CBD5E1"/>
<path d="M317.343 131.721C317.171 131.721 316.994 131.679 316.832 131.596L309.846 127.972C309.356 127.717 309.132 127.139 309.325 126.624L313.146 116.336C313.256 116.039 313.49 115.81 313.782 115.695C314.073 115.586 314.406 115.602 314.687 115.742L324.179 120.673C324.46 120.819 324.663 121.074 324.736 121.381C324.814 121.683 324.751 122.006 324.569 122.266L318.249 131.257C318.035 131.559 317.692 131.721 317.343 131.721ZM314.177 116.065C314.099 116.065 314.021 116.081 313.943 116.112C313.766 116.18 313.631 116.32 313.568 116.492L309.747 126.775C309.632 127.077 309.767 127.42 310.059 127.571L317.041 131.2C317.327 131.351 317.692 131.262 317.874 130.997L324.194 122.006C324.304 121.855 324.34 121.662 324.293 121.48C324.246 121.303 324.127 121.147 323.965 121.058L314.474 116.128C314.38 116.081 314.276 116.055 314.172 116.055L314.177 116.065Z" fill="#1E293B"/>
<path d="M312.506 118.788L312.298 119.184L322.7 124.588L322.908 124.192L312.506 118.788Z" fill="#1E293B"/>
<path d="M311.246 122.167L311.038 122.563L320.618 127.54L320.826 127.144L311.246 122.167Z" fill="#1E293B"/>
<path d="M310.054 125.39L309.845 125.785L318.613 130.341L318.821 129.945L310.054 125.39Z" fill="#1E293B"/>
<path d="M319.81 117.965L319.415 117.757L323.117 110.729L330.827 108.823L330.936 109.255L323.418 111.114L319.816 117.965H319.81Z" fill="#1E293B"/>
<path d="M323.044 110.973L321.273 103.7L321.711 103.596L323.481 110.869L323.044 110.979V110.973Z" fill="#1E293B"/>
<path d="M57.9467 90.4343H22.1895C21.0441 90.4343 20.1226 91.361 20.1226 92.5012V107.027C20.1226 108.172 21.0493 109.094 22.1895 109.094H49.2625L57.8478 114.774L54.6094 109.094H57.9415C59.0869 109.094 60.0084 108.167 60.0084 107.027V92.5012C60.0084 91.3558 59.0817 90.4343 57.9415 90.4343H57.9467Z" fill="white"/>
<path d="M58.4726 115.435L49.2001 109.302H22.1896C20.9296 109.302 19.9092 108.282 19.9092 107.022V92.496C19.9092 91.2361 20.9296 90.2208 22.1896 90.2208H57.9416C59.2015 90.2208 60.2219 91.2413 60.2219 92.496V107.022C60.2219 108.282 59.2015 109.302 57.9416 109.302H54.9739L58.4674 115.435H58.4726ZM22.1948 90.6425C21.1691 90.6425 20.3413 91.4704 20.3413 92.496V107.022C20.3413 108.047 21.1743 108.875 22.1948 108.875H49.3303L57.2283 114.097L54.2503 108.875H57.9468C58.9724 108.875 59.8002 108.047 59.8002 107.022V92.496C59.8002 91.4704 58.9724 90.6425 57.9468 90.6425H22.1948Z" fill="#1E293B"/>
<path d="M111.572 162.61H147.324C148.469 162.61 149.391 161.683 149.391 160.543V146.017C149.391 144.872 148.464 143.95 147.324 143.95H120.251L111.666 138.27L114.904 143.95H111.572C110.427 143.95 109.505 144.877 109.505 146.017V160.543C109.505 161.688 110.432 162.61 111.572 162.61Z" fill="white"/>
<path d="M147.329 162.818H111.577C110.317 162.818 109.297 161.798 109.297 160.543V146.017C109.297 144.757 110.317 143.742 111.577 143.742H114.545L111.051 137.609L120.324 143.742H147.334C148.594 143.742 149.615 144.763 149.615 146.017V160.543C149.615 161.803 148.594 162.818 147.334 162.818H147.329ZM111.577 144.159C110.552 144.159 109.724 144.986 109.724 146.012V160.538C109.724 161.563 110.557 162.391 111.577 162.391H147.329C148.355 162.391 149.183 161.563 149.183 160.538V146.012C149.183 144.986 148.35 144.159 147.329 144.159H120.194L112.296 138.937L115.274 144.159H111.577Z" fill="#1E293B"/>
<path d="M38.6518 26.5107H2.89456C1.74916 26.5107 0.827637 27.4375 0.827637 28.5777V43.1034C0.827637 44.2488 1.75437 45.1703 2.89456 45.1703H29.9676L38.5528 50.8504L35.3145 45.1703H38.6466C39.792 45.1703 40.7135 44.2436 40.7135 43.1034V28.5777C40.7135 27.4323 39.7868 26.5107 38.6466 26.5107H38.6518Z" fill="white"/>
<path d="M39.1777 51.5168L29.9052 45.3838H2.89464C1.6347 45.3838 0.614258 44.3633 0.614258 43.1086V28.5829C0.614258 27.3281 1.6347 26.3077 2.89464 26.3077H38.6518C39.9118 26.3077 40.9322 27.3281 40.9322 28.5829V43.1086C40.9322 44.3633 39.9118 45.3838 38.6518 45.3838H35.6842L39.1777 51.5168ZM2.89464 26.7242C1.86899 26.7242 1.04118 27.552 1.04118 28.5777V43.1034C1.04118 44.129 1.87419 44.9568 2.89464 44.9568H30.0301L37.9282 50.1788L34.9501 44.9568H38.6466C39.6723 44.9568 40.5001 44.129 40.5001 43.1034V28.5777C40.5001 27.552 39.6723 26.7242 38.6466 26.7242H2.89464Z" fill="#1E293B"/>
<defs>
<clipPath id="clip0_559_2825">
<rect width="361.945" height="328" fill="white"/>
</clipPath>
<clipPath id="clip1_559_2825">
<rect width="362.31" height="328" fill="white"/>
</clipPath>
</defs>
</svg>
