<svg width="696" height="630" viewBox="0 0 696 630" fill="none" xmlns="http://www.w3.org/2000/svg">
<g clip-path="url(#clip0_559_2715)">
<path d="M486.4 319.5H68.1C65.1 319.9 62.5 317.5 62.5 314.6V5.40003C62.5 2.90003 64.4 0.800033 66.9 0.500033H485.2C488.2 0.100033 490.8 2.50003 490.8 5.40003V314.6C490.8 317.1 488.9 319.2 486.4 319.5Z" fill="#FDBA74"/>
<path d="M67.5 320C66.2 320 64.9 319.5 64 318.6C62.8 317.6 62.2 316.1 62.2 314.6V5.39998C62.2 2.69998 64.2 0.399977 66.9 0.0999774H485.2C486.7 -0.100023 488.2 0.399977 489.4 1.39998C490.6 2.39998 491.2 3.89998 491.2 5.39998V314.6C491.2 317.3 489.2 319.6 486.5 319.9H68.1999C67.8999 320 67.7 320 67.5 320ZM485.8 0.799977C485.6 0.799977 485.4 0.799977 485.3 0.799977H67C64.8 1.09998 63 2.99998 63 5.29998V314.5C63 315.8 63.5999 317 64.5999 317.9C65.5999 318.8 66.8999 319.2 68.1999 319H486.5C488.8 318.7 490.5 316.8 490.5 314.5V5.39998C490.5 4.09998 489.9 2.89998 489 1.99998C488 1.19998 486.9 0.799977 485.8 0.799977Z" fill="#1E293B"/>
<path d="M490.8 23.2L62.5 24.5V5.50003C62.5 3.00003 64.4 0.800033 66.9 0.500033H485.1C488.1 0.100033 490.7 2.50003 490.7 5.40003L490.8 23.2Z" fill="#334155"/>
<path d="M479 16.4C481.6 16.4 483.6 14.3 483.6 11.8C483.6 9.29995 481.5 7.19995 479 7.19995C476.5 7.19995 474.4 9.29995 474.4 11.8C474.4 14.3 476.5 16.4 479 16.4Z" fill="#B90F0F"/>
<path d="M465.4 16.4C468 16.4 470 14.3 470 11.8C470 9.29995 467.9 7.19995 465.4 7.19995C462.9 7.19995 460.8 9.29995 460.8 11.8C460.8 14.3 462.9 16.4 465.4 16.4Z" fill="#FB923C"/>
<path d="M451.8 16.4C454.4 16.4 456.4 14.3 456.4 11.8C456.4 9.29995 454.3 7.19995 451.8 7.19995C449.3 7.19995 447.2 9.29995 447.2 11.8C447.2 14.3 449.3 16.4 451.8 16.4Z" fill="#34D399"/>
<path d="M388.7 58.2H102.2C98.6 58.2 95.7 61.0999 95.7 64.6999V283.4C95.7 287 98.6 289.9 102.2 289.9H388.6C392.2 289.9 395.1 287 395.1 283.4V64.6999C395.2 61.0999 392.3 58.2 388.7 58.2Z" fill="#334155"/>
<path d="M379.7 50.9H93.2999C89.6999 50.9 86.7999 53.8 86.7999 57.4V276.1C86.7999 279.7 89.6999 282.6 93.2999 282.6H379.7C383.3 282.6 386.2 279.7 386.2 276.1V57.4C386.2 53.8 383.3 50.9 379.7 50.9Z" fill="white"/>
<path d="M379.7 283H93.2999C89.4999 283 86.3999 279.9 86.3999 276.1V57.4C86.3999 53.6 89.4999 50.5 93.2999 50.5H379.7C383.5 50.5 386.6 53.6 386.6 57.4V276.1C386.6 280 383.5 283.1 379.7 283ZM93.2999 51.3C89.8999 51.3 87.1999 54 87.1999 57.4V276.1C87.1999 279.5 89.8999 282.2 93.2999 282.2H379.7C383.1 282.2 385.8 279.5 385.8 276.1V57.4C385.8 54 383.1 51.3 379.7 51.3H93.2999Z" fill="#1E293B"/>
<path d="M326 79.4H110.4V95.7H326V79.4Z" fill="#E2E8F0"/>
<path d="M326 101.3H110.4V117.6H326V101.3Z" fill="#E2E8F0"/>
<path d="M326 123.3H110.4V139.6H326V123.3Z" fill="#E2E8F0"/>
<path d="M344.7 175.3H129.1V191.6H344.7V175.3Z" fill="#E2E8F0"/>
<path d="M344.7 197.3H129.1V213.6H344.7V197.3Z" fill="#E2E8F0"/>
<path d="M344.7 219.2H129.1V235.5H344.7V219.2Z" fill="#E2E8F0"/>
<path d="M344.7 242H129.1V258.3H344.7V242Z" fill="#E2E8F0"/>
<path d="M473.3 38.7H278.4C274.8 38.7 271.9 41.6 271.9 45.2V235.9C271.9 239.5 274.8 242.4 278.4 242.4H473.3C476.9 242.4 479.8 239.5 479.8 235.9V45.2C479.8 41.6 476.9 38.7 473.3 38.7Z" fill="#475569"/>
<path d="M473.3 242.8H278.4C274.6 242.8 271.5 239.7 271.5 235.9V45.2001C271.5 41.4001 274.6 38.3 278.4 38.3H473.3C477.1 38.3 480.2 41.4001 480.2 45.2001V235.9C480.2 239.7 477.1 242.8 473.3 242.8ZM278.4 39.1C275 39.1 272.3 41.8001 272.3 45.2001V235.9C272.3 239.3 275 242 278.4 242H473.3C476.7 242 479.4 239.3 479.4 235.9V45.2001C479.4 41.8001 476.7 39.1 473.3 39.1H278.4Z" fill="white"/>
<path d="M257.9 158.6C257.9 158.6 234 131.2 227.1 140.9C227.1 140.9 208.2 129.6 206 127.8C202.1 124.6 196.5 126.6 203.6 135.9C207.1 140.5 218.6 147.8 218.6 147.8C218.6 147.8 202.3 167.5 210.6 175.2C218.9 182.9 242.6 187.2 242.6 187.2L257.9 158.6Z" fill="#FEE2E2"/>
<path d="M225.5 175.9C225.3 175.9 225.1 175.8 225.1 175.6C225 175.4 225.2 175.2 225.4 175.1C228.3 174.5 236.9 160.7 236.8 158.8C236.8 156.9 235 156.3 235 156.2C234.8 156.1 234.7 155.9 234.7 155.7C234.8 155.5 235 155.4 235.2 155.4C236 155.7 237.6 156.7 237.6 158.7C237.7 161.1 228.8 175.2 225.5 175.9Z" fill="#1E293B"/>
<path d="M231.5 162.3C231.4 162.3 231.4 162.3 231.3 162.2L219.8 155.7C219.6 155.6 219.5 155.3 219.7 155.1C219.8 154.9 220.1 154.8 220.3 155L231.8 161.5C232 161.6 232.1 161.9 231.9 162.1C231.8 162.2 231.7 162.3 231.5 162.3Z" fill="#1E293B"/>
<path d="M225.9 169.9H225.8L213.8 164.8C213.6 164.7 213.5 164.5 213.6 164.3C213.7 164.1 213.9 164 214.1 164.1L226.1 169.2C226.3 169.3 226.4 169.5 226.3 169.7C226.3 169.8 226.1 169.9 225.9 169.9Z" fill="#1E293B"/>
<path d="M219.8 174.9C219.7 174.9 219.5 174.8 219.4 174.7C219 174 217 173.9 215.9 174C215.7 174 215.5 173.9 215.5 173.6C215.5 173.3 215.6 173.2 215.9 173.2C216.2 173.2 219.3 172.9 220.1 174.3C220.2 174.5 220.2 174.7 220 174.9C219.9 174.9 219.9 174.9 219.8 174.9Z" fill="#1E293B"/>
<path d="M227.7 142.8C227.7 142.8 224.9 156.6 223.9 160.2C222.9 163.8 230.3 164.2 233.4 159.1" fill="#FEE2E2"/>
<path d="M228 161.8C227.9 161.8 227.8 161.8 227.8 161.8C225.6 161.5 224 160.6 223.9 160.5L223.6 160.3L224.7 157.2L226.6 145.7C226.6 145.5 226.8 145.3 227.1 145.4C227.4 145.5 227.5 145.6 227.4 145.9L225.4 157.5L224.5 160C225 160.3 226.3 160.8 227.7 161C228.9 161.1 230.2 159.1 230.7 157.8L226.5 157.5C226.3 157.5 226.1 157.3 226.1 157.1C226.1 156.9 226.3 156.7 226.5 156.7L231.8 157.1L231.6 157.6C231.6 158 230.2 161.8 228 161.8Z" fill="#1E293B"/>
<path d="M226.9 163.2C224.3 163.2 223.6 161.6 223.5 161.5C223.4 161.3 223.5 161.1 223.7 161C223.9 160.9 224.1 161 224.2 161.2C224.2 161.3 225.2 163.3 229.5 161.9C229.6 161.9 233.1 160.9 237.2 151.3C237.3 151.1 237.5 151 237.7 151.1C237.9 151.2 238 151.4 237.9 151.6C233.5 161.7 229.8 162.7 229.6 162.7C228.6 163.1 227.6 163.2 226.9 163.2Z" fill="#1E293B"/>
<path d="M232.7 151.1L228.8 150.4C228.6 150.4 228.4 150.2 228.5 149.9C228.6 149.6 228.8 149.5 229 149.6L232.8 150.3C233 150.3 233.2 150.5 233.1 150.8C233 151 232.9 151.2 232.7 151.1Z" fill="#1E293B"/>
<path d="M231.9 149.7L229.4 149.3C229.2 149.3 229 149.1 229.1 148.8C229.1 148.6 229.3 148.4 229.6 148.5L232 148.9C232.2 148.9 232.4 149.1 232.3 149.4C232.3 149.6 232.1 149.8 231.9 149.7Z" fill="#1E293B"/>
<path d="M205.2 135.9C205.1 135.9 205 135.8 204.9 135.8C204.8 135.6 204.8 135.4 205 135.2L208.9 132.1C209.1 132 209.3 132 209.5 132.2C209.6 132.4 209.6 132.6 209.4 132.8L205.5 135.9C205.4 135.8 205.3 135.9 205.2 135.9Z" fill="#1E293B"/>
<path d="M211.3 141.2C211.2 141.2 211.1 141.2 211 141.1C210.8 141 210.8 140.7 211 140.5L214.6 136.3C214.7 136.1 215 136.1 215.2 136.3C215.4 136.4 215.4 136.7 215.2 136.9L211.6 141.1C211.6 141.1 211.5 141.2 211.3 141.2Z" fill="#1E293B"/>
<path d="M303.5 182.2L250.6 151.8L237 196.2L306.8 236L303.5 182.2Z" fill="#FB923C"/>
<path d="M357.7 112.5L331.4 119.1L329 104.3C303.5 102.3 319.1 64.1 319.1 64.1C326.1 56.3 338.3 54.1 349.5 61.2C357.5 66.3 356.7 77.6 354 94.8C352.9 101.6 357.7 112.5 357.7 112.5Z" fill="#FEE2E2"/>
<path d="M318.9 78.3C319.5 78.3 320 77.8 320 77.2C320 76.6 319.5 76.1 318.9 76.1C318.3 76.1 317.8 76.6 317.8 77.2C317.8 77.8 318.3 78.3 318.9 78.3Z" fill="#1E293B"/>
<path d="M325.7 74.3C325.3 74.3 325 74.2 324.6 74C322.2 72.5 319.9 73.2 319.8 73.2C318.7 73.5 317.6 72.9 317.3 71.9C317 70.8 317.5 69.7 318.6 69.4C318.8 69.3 322.8 68.1 326.8 70.6C327.8 71.2 328 72.4 327.4 73.4C327 74 326.3 74.3 325.7 74.3Z" fill="#1E293B"/>
<path d="M320.4 93.1C320.3 93.1 320.2 93.1 320.1 93.1C318.1 92.9 317.1 90.3 317 90.2L316.8 89.7L325.4 88.9L324.9 89.6C323.4 91.9 321.9 93.1 320.4 93.1ZM318.1 90.3C318.5 91 319.2 92.1 320.3 92.2C321.3 92.3 322.6 91.5 323.9 89.8L318.1 90.3Z" fill="#1E293B"/>
<path d="M331 115.4C331 115.4 311.4 131 301.2 156.8C295.1 172.2 298.7 182.3 299.8 199.1C301.6 227.8 304.9 233.9 304.7 242.2C326.5 243.5 367.9 241.7 387.4 242.5C392.7 216.7 394.8 195.8 393.5 169.6C392.8 155.1 375.9 118.7 357.4 110.1C345.6 111.7 331 115.4 331 115.4Z" fill="#FB923C"/>
<path d="M332.7 105.5C332.5 105.5 332.3 105.3 332.3 105.1C332.3 104.9 332.5 104.7 332.7 104.7C332.8 104.7 340.1 104.5 343.3 101.1C343.4 100.9 343.7 100.9 343.9 101.1C344.1 101.3 344.1 101.5 343.9 101.7C340.5 105.2 333 105.5 332.7 105.5Z" fill="#1E293B"/>
<path d="M314.7 81.2C314.7 81.2 311 82.4 314.4 85.6L314.7 81.2Z" fill="#FEE2E2"/>
<path d="M341.2 82.4C341.2 82.4 343.9 80.7 342.1 75.5C340.9 68.6 337.8 69.1 319.1 64.1C322.4 55.3 329.8 49.7 340.9 53.9C352 58.1 358.7 65.9 357.5 76.9C357.2 79.8 352.8 92.9 356.5 101.5C363 116.7 342.5 142.9 342.5 142.9C342.5 142.9 346.6 121.6 338.8 108.9C331 96.1 341.2 82.4 341.2 82.4Z" fill="#1E293B"/>
<path d="M341.5 75.8C341.5 75.8 346.9 73.3 345 80C343.1 86.7 340.3 88.1 338.7 86.8" fill="#FEE2E2"/>
<path d="M339.8 87.7C339.3 87.7 338.8 87.5 338.4 87.2L338.9 86.5C339.4 86.8 339.8 86.9 340.4 86.7C341.1 86.5 343 85.3 344.6 79.8C345.2 77.8 345.2 76.5 344.5 75.9C343.8 75.3 342.2 75.8 341.7 76L341.4 75.3C341.5 75.2 343.8 74.2 345.1 75.3C346 76.1 346.1 77.7 345.4 80C344.2 84.2 342.5 86.8 340.7 87.4C340.3 87.7 340 87.7 339.8 87.7Z" fill="#1E293B"/>
<path d="M342.3 78.7C342.3 78.7 343.4 78.6 341.3 82.3L342.3 78.7Z" fill="#FEE2E2"/>
<path d="M341.6 82.5L340.9 82.1C342.4 79.5 342.2 79 342.2 79C342.2 79 342.2 79.1 342.4 79.1L342.3 78.3C342.5 78.3 342.7 78.4 342.9 78.6C343.1 79 343.2 79.8 341.6 82.5Z" fill="#1E293B"/>
<path d="M355.7 99.2C355.7 99.2 358.2 109 369.5 119.4C369.5 119.4 360.3 112.4 355.2 119.4C354.2 120.8 355.7 99.3 355.7 99.2Z" fill="#1E293B"/>
<path d="M304 234.4L301.6 219.2L290.7 226.8L304 234.4Z" fill="#1E293B"/>
<path d="M345.9 242.4C345.7 242.4 345.5 242.2 345.5 242V207.4C345.5 207.2 345.7 207 345.9 207C346.1 207 346.3 207.2 346.3 207.4V242C346.3 242.2 346.1 242.4 345.9 242.4Z" fill="#1E293B"/>
<path d="M344.7 148.3C344.6 148.3 344.5 148.3 344.4 148.2C344.2 148.1 344.2 147.8 344.4 147.6L349.4 142.5C349.5 142.3 349.8 142.3 350 142.5C350.2 142.6 350.2 142.9 350 143.1L345 148.2C344.9 148.3 344.8 148.3 344.7 148.3Z" fill="#1E293B"/>
<path d="M450.5 84.7C459.3 84.7 466.4 77.6 466.4 68.9C466.4 60.2 459.2 53 450.5 53C441.8 53 434.6 60.1 434.6 68.8C434.6 77.5 441.7 84.7 450.5 84.7Z" fill="#B90F0F"/>
<path fill-rule="evenodd" clip-rule="evenodd" d="M460.9 72.2C460.6 72.5 460.2 72.7 459.8 72.7H455.5C454.6 72.7 454 72 453.9 71.2V69.8V69.7C453.9 69.6 453.8 69.6 453.8 69.5C453 69.3 451.8 68.9 450.5 69C449.1 69 447.8 69.5 447.1 69.8C447.1 69.8 447.1 69.8 447 69.8V71.2C447 72.1 446.4 72.8 445.5 72.8L441.3 72.9C440.8 73 440.4 72.7 440.1 72.4C439.8 72.1 439.7 71.6 439.7 71.2V71.1L440.3 67.7V67.6C440.4 67.4 440.6 66.9 441.1 66.6C441.8 66.2 443.7 65.4 446.8 64.8C447.9 64.7 449.1 64.5 450.4 64.5C455.3 64.5 458.6 65.8 459.8 66.3C460 66.4 460.2 66.5 460.3 66.7C460.4 66.9 460.6 67.1 460.6 67.4L461.3 70.7C461.4 71.5 461.2 72 460.9 72.2ZM459.7 71.2L459 68C458 67.6 454.9 66.3 450.3 66.3C449.2 66.3 448 66.5 446.9 66.6C444 67.1 442.3 67.8 441.7 68.2L441.1 71.5L445.3 71.4V70C445.3 69.4 445.6 68.8 446.3 68.5H446.4C447.1 68.2 448.7 67.6 450.4 67.6C451.9 67.6 453.3 68 454.1 68.2C454.2 68.2 454.3 68.3 454.4 68.3C454.6 68.4 454.7 68.5 454.8 68.6C454.9 68.8 455.1 69 455.2 69.2C455.3 69.4 455.4 69.7 455.4 70V71.3L459.7 71.2Z" fill="#FEE2E2"/>
<path d="M76.8999 13.8L76.3999 16.2H75.6999L76.1999 13.8L74.2999 9.19995H74.9999L76.5999 13.1L79.7999 9.19995H80.5999L76.8999 13.8Z" fill="#CBD5E1"/>
<path d="M79.6 14C79.6 12.2 80.9 10.9 82.7 10.9C84.2 10.9 85.1 11.8 85.1 13.1C85.1 14.9 83.8 16.2 82 16.2C80.5 16.2 79.6 15.3 79.6 14ZM84.3 13.1C84.3 12.1 83.7 11.5 82.6 11.5C81.3 11.5 80.3 12.5 80.3 14C80.3 15 80.9 15.6 82 15.6C83.3 15.6 84.3 14.6 84.3 13.1Z" fill="#CBD5E1"/>
<path d="M91.6999 10.9L90.5999 16.2H89.9999L90.1999 15.4C89.6999 16 88.9999 16.3 88.1999 16.3C86.9999 16.3 86.2999 15.7 86.2999 14.6C86.2999 14.4 86.2999 14.2 86.3999 14L86.9999 11H87.6999L87.0999 14C87.0999 14.2 86.9999 14.3 86.9999 14.5C86.9999 15.3 87.3999 15.7 88.2999 15.7C89.3999 15.7 90.1999 15.1 90.3999 13.9L90.9999 11.1L91.6999 10.9Z" fill="#CBD5E1"/>
<path d="M96.4 10.9L96.3 11.6H96C94.9 11.6 94.1 12.2 93.9 13.5L93.4 16.2H92.7L93.7 10.9H94.4L94.2 11.9C94.7 11.2 95.4 10.9 96.4 10.9Z" fill="#CBD5E1"/>
<path d="M100.8 8.69995H101.5L99.9999 16.1H99.2999L100.8 8.69995Z" fill="#CBD5E1"/>
<path d="M102.7 13.6999V13.8999C102.7 14.9999 103.3 15.4999 104.5 15.4999C105.2 15.4999 105.8 15.2999 106.2 14.7999L106.5 15.2999C106 15.7999 105.2 16.0999 104.4 16.0999C102.9 16.0999 101.9 15.1999 101.9 13.8999C101.9 12.0999 103.1 10.7999 104.8 10.7999C106.2 10.7999 107.1 11.5999 107.1 12.9999C107.1 13.1999 107.1 13.3999 107 13.5999L102.7 13.6999ZM102.7 13.1999H106.5C106.5 13.0999 106.5 13.0999 106.5 12.9999C106.5 11.9999 105.8 11.3999 104.8 11.3999C103.8 11.4999 103 12.1999 102.7 13.1999Z" fill="#CBD5E1"/>
<path d="M113.9 10.9L112.8 16.2H112.1L112.3 15.4C111.8 16 111.1 16.3 110.2 16.3C108.9 16.3 107.9 15.5 107.9 14.1C107.9 12.3 109.2 11 110.9 11C111.9 11 112.6 11.4 112.9 12.1L113.1 11L113.9 10.9ZM112.7 13.1C112.7 12.1 112.1 11.5 111 11.5C109.7 11.5 108.7 12.5 108.7 14C108.7 15 109.3 15.6 110.4 15.6C111.8 15.6 112.7 14.6 112.7 13.1Z" fill="#CBD5E1"/>
<path d="M118.6 10.9L118.5 11.6H118.3C117.2 11.6 116.4 12.2 116.2 13.5L115.7 16.2H115L116 10.9H116.7L116.5 11.9C116.9 11.2 117.6 10.9 118.6 10.9Z" fill="#CBD5E1"/>
<path d="M124.3 12.6C124.3 12.8 124.3 13 124.2 13.2L123.6 16.2H122.9L123.5 13.2C123.5 13 123.6 12.9 123.6 12.7C123.6 11.9 123.2 11.5 122.2 11.5C121.1 11.5 120.3 12.1 120 13.3L119.4 16.1H118.7L119.7 10.8H120.4L120.2 11.6C120.7 11 121.4 10.7 122.3 10.7C123.6 10.9 124.3 11.5 124.3 12.6Z" fill="#CBD5E1"/>
<path d="M126.6 10.8999H127.3L126.3 16.1999H125.6L126.6 10.8999ZM126.8 9.29993C126.8 8.99993 127 8.79993 127.4 8.79993C127.7 8.79993 127.9 8.99993 127.9 9.19993C127.9 9.49993 127.7 9.79993 127.3 9.79993C127 9.79993 126.8 9.49993 126.8 9.29993Z" fill="#CBD5E1"/>
<path d="M133.8 12.6C133.8 12.8 133.8 13 133.7 13.2L133.1 16.2H132.4L133 13.2C133 13 133.1 12.9 133.1 12.7C133.1 11.9 132.7 11.5 131.7 11.5C130.6 11.5 129.8 12.1 129.6 13.3L129 16.1H128.3L129.3 10.8H130L129.8 11.6C130.3 11 131 10.7 131.9 10.7C133.1 10.9 133.8 11.5 133.8 12.6Z" fill="#CBD5E1"/>
<path d="M141 10.8999L140.1 15.4999C139.7 17.3999 138.7 18.0999 137 18.0999C136 18.0999 135.2 17.7999 134.6 17.2999L135 16.7999C135.4 17.1999 136.1 17.4999 137 17.4999C138.3 17.4999 139 16.8999 139.3 15.5999L139.4 14.9999C138.9 15.5999 138.2 15.8999 137.3 15.8999C135.9 15.8999 135 15.0999 135 13.7999C135 12.0999 136.2 10.7999 138 10.7999C139 10.7999 139.8 11.1999 140.1 11.9999L140.3 10.7999L141 10.8999ZM139.8 12.9999C139.8 11.9999 139.2 11.4999 138.1 11.4999C136.8 11.4999 135.8 12.4999 135.8 13.7999C135.8 14.7999 136.4 15.2999 137.5 15.2999C138.8 15.2999 139.8 14.3999 139.8 12.9999Z" fill="#CBD5E1"/>
<path d="M150.5 13.0999C150.5 14.8999 149.2 16.1999 147.5 16.1999C146.5 16.1999 145.8 15.7999 145.5 15.0999L144.9 18.0999H144.2L145.6 10.8999H146.3L146.1 11.6999C146.6 11.0999 147.3 10.7999 148.2 10.7999C149.6 10.8999 150.5 11.6999 150.5 13.0999ZM149.8 13.0999C149.8 12.0999 149.2 11.4999 148.1 11.4999C146.8 11.4999 145.8 12.4999 145.8 13.9999C145.8 14.9999 146.4 15.5999 147.5 15.5999C148.8 15.5999 149.8 14.5999 149.8 13.0999Z" fill="#CBD5E1"/>
<path d="M157.3 10.9L156.2 16.2H155.5L155.7 15.4C155.2 16 154.5 16.3 153.6 16.3C152.2 16.3 151.3 15.5 151.3 14.1C151.3 12.3 152.6 11 154.3 11C155.3 11 156 11.4 156.3 12.1L156.5 11L157.3 10.9ZM156.1 13.1C156.1 12.1 155.5 11.5 154.4 11.5C153.1 11.5 152.1 12.5 152.1 14C152.1 15 152.7 15.6 153.8 15.6C155.1 15.6 156.1 14.6 156.1 13.1Z" fill="#CBD5E1"/>
<path d="M159.3 14.6C159.3 14.7 159.3 14.8 159.3 14.9C159.3 15.3 159.5 15.6 160.1 15.6C160.4 15.6 160.7 15.5 160.9 15.3L161.1 15.8C160.8 16 160.3 16.1 159.9 16.1C159.1 16.1 158.6 15.7 158.6 14.9C158.6 14.8 158.6 14.6 158.6 14.5L159.2 11.4H158.3L158.4 10.8H159.3L159.5 9.69995H160.2L160 10.8H161.6L161.5 11.4H159.9L159.3 14.6Z" fill="#CBD5E1"/>
<path d="M167.8 12.6C167.8 12.8 167.8 13 167.7 13.2L167.1 16.2H166.4L167 13.2C167 13 167.1 12.9 167.1 12.7C167.1 11.9 166.7 11.5 165.7 11.5C164.6 11.5 163.8 12.1 163.6 13.3L163 16.1H162.3L163.8 8.69995H164.5L163.9 11.7C164.4 11.1 165.1 10.9 165.9 10.9C167.1 10.9 167.8 11.5 167.8 12.6Z" fill="#CBD5E1"/>
<path d="M172.8 14.6C172.8 14.7 172.8 14.8 172.8 14.9C172.8 15.3 173 15.6 173.6 15.6C173.9 15.6 174.2 15.5 174.4 15.3L174.6 15.8C174.3 16 173.8 16.1 173.4 16.1C172.6 16.1 172.1 15.7 172.1 14.9C172.1 14.8 172.1 14.6 172.1 14.5L172.7 11.4H171.8L171.9 10.8H172.8L173 9.69995H173.7L173.5 10.8H175.1L175 11.4H173.4L172.8 14.6Z" fill="#CBD5E1"/>
<path d="M175.5 14C175.5 12.2 176.8 10.9 178.6 10.9C180.1 10.9 181 11.8 181 13.1C181 14.9 179.7 16.2 177.9 16.2C176.4 16.2 175.5 15.3 175.5 14ZM180.2 13.1C180.2 12.1 179.6 11.5 178.5 11.5C177.2 11.5 176.2 12.5 176.2 14C176.2 15 176.8 15.6 177.9 15.6C179.3 15.6 180.2 14.6 180.2 13.1Z" fill="#CBD5E1"/>
<path d="M190.4 13.0999C190.4 14.8999 189.1 16.1999 187.4 16.1999C186.4 16.1999 185.7 15.7999 185.4 15.0999L184.8 18.0999H184.1L185.5 10.8999H186.2L186 11.6999C186.5 11.0999 187.2 10.7999 188.1 10.7999C189.4 10.8999 190.4 11.6999 190.4 13.0999ZM189.7 13.0999C189.7 12.0999 189.1 11.4999 188 11.4999C186.7 11.4999 185.7 12.4999 185.7 13.9999C185.7 14.9999 186.3 15.5999 187.4 15.5999C188.7 15.5999 189.7 14.5999 189.7 13.0999Z" fill="#CBD5E1"/>
<path d="M195 10.9L194.9 11.6H194.7C193.6 11.6 192.8 12.2 192.6 13.5L192.1 16.2H191.4L192.4 10.9H193.1L192.9 11.9C193.3 11.2 194 10.9 195 10.9Z" fill="#CBD5E1"/>
<path d="M195.8 13.6999C195.8 13.7999 195.8 13.7999 195.8 13.8999C195.8 14.9999 196.4 15.4999 197.6 15.4999C198.3 15.4999 198.9 15.2999 199.3 14.7999L199.6 15.2999C199.1 15.7999 198.3 16.0999 197.5 16.0999C196 16.0999 195 15.1999 195 13.8999C195 12.0999 196.2 10.7999 197.9 10.7999C199.3 10.7999 200.2 11.5999 200.2 12.9999C200.2 13.1999 200.2 13.3999 200.1 13.5999L195.8 13.6999ZM195.9 13.1999H199.7V12.9999C199.7 11.9999 199 11.3999 198.1 11.3999C196.9 11.4999 196.2 12.1999 195.9 13.1999Z" fill="#CBD5E1"/>
<path d="M207.1 13.0999C207.1 14.8999 205.8 16.1999 204.1 16.1999C203.1 16.1999 202.4 15.7999 202.1 15.0999L201.5 18.0999H200.8L202.2 10.8999H202.9L202.7 11.6999C203.2 11.0999 203.9 10.7999 204.8 10.7999C206.2 10.8999 207.1 11.6999 207.1 13.0999ZM206.4 13.0999C206.4 12.0999 205.8 11.4999 204.7 11.4999C203.4 11.4999 202.4 12.4999 202.4 13.9999C202.4 14.9999 203 15.5999 204.1 15.5999C205.4 15.5999 206.4 14.5999 206.4 13.0999Z" fill="#CBD5E1"/>
<path d="M213.9 10.9L212.8 16.2H212.1L212.3 15.4C211.8 16 211.1 16.3 210.2 16.3C208.8 16.3 207.9 15.5 207.9 14.1C207.9 12.3 209.2 11 210.9 11C211.9 11 212.6 11.4 212.9 12.1L213.1 11L213.9 10.9ZM212.7 13.1C212.7 12.1 212.1 11.5 211 11.5C209.7 11.5 208.7 12.5 208.7 14C208.7 15 209.3 15.6 210.4 15.6C211.7 15.6 212.7 14.6 212.7 13.1Z" fill="#CBD5E1"/>
<path d="M218.5 10.9L218.4 11.6H218.2C217.1 11.6 216.3 12.2 216.1 13.5L215.6 16.2H214.9L215.9 10.9H216.6L216.4 11.9C216.8 11.2 217.5 10.9 218.5 10.9Z" fill="#CBD5E1"/>
<path d="M219.4 13.6999V13.8999C219.4 14.9999 220 15.4999 221.2 15.4999C221.9 15.4999 222.5 15.2999 222.9 14.7999L223.2 15.2999C222.7 15.7999 221.9 16.0999 221.1 16.0999C219.6 16.0999 218.6 15.1999 218.6 13.8999C218.6 12.0999 219.8 10.7999 221.5 10.7999C222.9 10.7999 223.8 11.5999 223.8 12.9999C223.8 13.1999 223.8 13.3999 223.7 13.5999L219.4 13.6999ZM219.4 13.1999H223.2C223.2 13.0999 223.2 13.0999 223.2 12.9999C223.2 11.9999 222.5 11.3999 221.6 11.3999C220.5 11.4999 219.7 12.1999 219.4 13.1999Z" fill="#CBD5E1"/>
<path d="M229.4 10.3L229.3 10.9H230.9L230.8 11.5H229.2L228.3 16.2H227.6L228.5 11.5H227.6L227.7 10.9H228.6L228.7 10.2C228.9 9.19998 229.5 8.59998 230.5 8.59998C230.9 8.59998 231.3 8.69997 231.6 8.89997L231.3 9.39997C231.1 9.19997 230.9 9.09998 230.5 9.09998C229.9 9.29998 229.5 9.59998 229.4 10.3Z" fill="#CBD5E1"/>
<path d="M230.6 14C230.6 12.2 231.9 10.9 233.7 10.9C235.2 10.9 236.1 11.8 236.1 13.1C236.1 14.9 234.8 16.2 233 16.2C231.6 16.2 230.6 15.3 230.6 14ZM235.4 13.1C235.4 12.1 234.8 11.5 233.7 11.5C232.4 11.5 231.4 12.5 231.4 14C231.4 15 232 15.6 233.1 15.6C234.4 15.6 235.4 14.6 235.4 13.1Z" fill="#CBD5E1"/>
<path d="M240.7 10.9L240.6 11.6H240.4C239.3 11.6 238.5 12.2 238.3 13.5L237.8 16.2H237L238 10.9H238.7L238.5 11.9C239 11.2 239.7 10.9 240.7 10.9Z" fill="#CBD5E1"/>
<path d="M245.2 8.69995H247V9.29995H245.9L244.3 17.5H245.4L245.3 18.1H243.5L245.2 8.69995Z" fill="#CBD5E1"/>
<path d="M249.8 9.79995H247.3L247.4 9.19995H253.1L253 9.79995H250.5L249.2 16.2H248.5L249.8 9.79995Z" fill="#CBD5E1"/>
<path d="M258.3 12.6C258.3 12.8 258.3 13 258.2 13.2L257.6 16.2H256.9L257.5 13.2C257.5 13 257.5 12.9 257.5 12.7C257.5 11.9 257 11.5 256.1 11.5C255 11.5 254.2 12.1 254 13.3L253.4 16.1H252.7L254.2 8.69995H254.9L254.3 11.7C254.8 11.1 255.5 10.9 256.3 10.9C257.6 10.9 258.3 11.5 258.3 12.6Z" fill="#CBD5E1"/>
<path d="M260.2 13.6999C260.2 13.7999 260.2 13.7999 260.2 13.8999C260.2 14.9999 260.8 15.4999 262 15.4999C262.7 15.4999 263.3 15.2999 263.7 14.7999L264 15.2999C263.5 15.7999 262.7 16.0999 261.9 16.0999C260.4 16.0999 259.4 15.1999 259.4 13.8999C259.4 12.0999 260.6 10.7999 262.3 10.7999C263.7 10.7999 264.6 11.5999 264.6 12.9999C264.6 13.1999 264.6 13.3999 264.5 13.5999L260.2 13.6999ZM260.3 13.1999H264.1V12.9999C264.1 11.9999 263.4 11.3999 262.5 11.3999C261.4 11.4999 260.6 12.1999 260.3 13.1999Z" fill="#CBD5E1"/>
<path d="M270.4 9.79998L269.9 12.3H273.5L273.4 12.9H269.8L269.3 15.5H273.5L273.4 16.1H268.4L269.8 9.09998H274.6L274.5 9.69998H270.4V9.79998Z" fill="#CBD5E1"/>
<path d="M280.5 12.6C280.5 12.8 280.5 13 280.4 13.2L279.8 16.2H279.1L279.7 13.2C279.7 13 279.7 12.9 279.7 12.7C279.7 11.9 279.2 11.5 278.3 11.5C277.2 11.5 276.4 12.1 276.2 13.3L275.6 16.1H275L276 10.8H276.7L276.5 11.6C277 11 277.7 10.7 278.6 10.7C279.8 10.9 280.5 11.5 280.5 12.6Z" fill="#CBD5E1"/>
<path d="M287.7 10.8999L286.8 15.4999C286.4 17.3999 285.4 18.0999 283.7 18.0999C282.7 18.0999 281.9 17.7999 281.3 17.2999L281.7 16.7999C282.1 17.1999 282.8 17.4999 283.7 17.4999C285 17.4999 285.7 16.8999 286 15.5999L286.1 14.9999C285.6 15.5999 284.9 15.8999 284 15.8999C282.6 15.8999 281.7 15.0999 281.7 13.7999C281.7 12.0999 282.9 10.7999 284.7 10.7999C285.7 10.7999 286.5 11.1999 286.8 11.9999L287 10.7999L287.7 10.8999ZM286.5 12.9999C286.5 11.9999 285.9 11.4999 284.8 11.4999C283.5 11.4999 282.5 12.4999 282.5 13.7999C282.5 14.7999 283.1 15.2999 284.2 15.2999C285.6 15.2999 286.5 14.3999 286.5 12.9999Z" fill="#CBD5E1"/>
<path d="M290.1 8.69995H290.8L289.3 16.1H288.6L290.1 8.69995Z" fill="#CBD5E1"/>
<path d="M292.4 10.8999H293.1L292.1 16.1999H291.4L292.4 10.8999ZM292.6 9.29993C292.6 8.99993 292.8 8.79993 293.1 8.79993C293.4 8.79993 293.6 8.99993 293.6 9.19993C293.6 9.49993 293.4 9.79993 293 9.79993C292.8 9.79993 292.6 9.49993 292.6 9.29993Z" fill="#CBD5E1"/>
<path d="M293.5 15.6L293.8 15C294.2 15.4 294.9 15.6 295.6 15.6C296.6 15.6 297.2 15.2 297.2 14.7C297.2 13.5 294.2 14.3 294.2 12.5C294.2 11.5 295.1 10.9 296.5 10.9C297.2 10.9 297.9 11.1 298.3 11.4L298 12C297.6 11.7 297 11.6 296.5 11.6C295.5 11.6 295 12 295 12.6C295 13.8 298 13 298 14.8C298 15.8 297.1 16.4 295.7 16.4C294.7 16.2 293.9 16 293.5 15.6Z" fill="#CBD5E1"/>
<path d="M304.5 12.6C304.5 12.8 304.5 13 304.4 13.2L303.8 16.2H303.1L303.7 13.2C303.7 13 303.7 12.9 303.7 12.7C303.7 11.9 303.2 11.5 302.3 11.5C301.2 11.5 300.4 12.1 300.2 13.3L299.6 16.1H299L300.5 8.69995H301.2L300.6 11.7C301.1 11.1 301.8 10.9 302.6 10.9C303.8 10.9 304.5 11.5 304.5 12.6Z" fill="#CBD5E1"/>
<path d="M314.2 14.3H312.8L312.4 16.1H311.7L312.1 14.3H308.1L308.2 13.8L312.8 9.19995H313.7L309.2 13.7H312.2L312.5 12.1H313.2L312.9 13.7H314.3L314.2 14.3Z" fill="#CBD5E1"/>
<path d="M317 9.79998L316.3 12H317.2C319 12 319.8 12.7 319.8 13.8C319.8 15.2 318.7 16.2 316.9 16.2C315.8 16.2 314.9 15.8 314.5 15.3L314.9 14.7C315.3 15.2 316 15.5 316.9 15.5C318.2 15.5 319 14.9 319 13.9C319 13.1 318.5 12.6 317 12.6H315.4L316.5 9.09998H320.3L320.2 9.69998L317 9.79998Z" fill="#CBD5E1"/>
<path d="M332.6 12.6C332.6 12.8 332.6 13 332.5 13.2L331.9 16.2H331.2L331.8 13.2C331.8 13 331.8 12.9 331.8 12.7C331.8 12 331.4 11.5 330.5 11.5C329.5 11.5 328.7 12.1 328.5 13.3L327.9 16.2H327.2L327.8 13.2C327.8 13 327.8 12.9 327.8 12.7C327.8 11.9 327.4 11.5 326.5 11.5C325.4 11.5 324.7 12.1 324.4 13.3L323.8 16.1H323.1L324.1 10.8H324.8L324.6 11.6C325.1 11 325.8 10.7 326.6 10.7C327.5 10.7 328.1 11.1 328.3 11.8C328.8 11.1 329.6 10.7 330.5 10.7C332 10.9 332.7 11.5 332.6 12.6C332.7 12.6 332.6 12.6 332.6 12.6Z" fill="#CBD5E1"/>
<path d="M335 10.8999H335.7L334.7 16.1999H334L335 10.8999ZM335.1 9.29993C335.1 8.99993 335.3 8.79993 335.6 8.79993C335.9 8.79993 336.1 8.99993 336.1 9.19993C336.1 9.49993 335.9 9.79993 335.5 9.79993C335.3 9.79993 335.1 9.49993 335.1 9.29993Z" fill="#CBD5E1"/>
<path d="M342.1 12.6C342.1 12.8 342.1 13 342 13.2L341.4 16.2H340.7L341.3 13.2C341.3 13 341.3 12.9 341.3 12.7C341.3 11.9 340.8 11.5 339.9 11.5C338.8 11.5 338 12.1 337.8 13.3L337.2 16.1H336.5L337.5 10.8H338.2L338 11.6C338.5 11 339.2 10.7 340.1 10.7C341.4 10.9 342.1 11.5 342.1 12.6Z" fill="#CBD5E1"/>
<path d="M349.2 10.9L348.2 16.2H347.5L347.7 15.4C347.2 16 346.5 16.3 345.7 16.3C344.5 16.3 343.8 15.7 343.8 14.6C343.8 14.4 343.8 14.2 343.9 14L344.5 11H345.2L344.6 14C344.6 14.2 344.6 14.3 344.6 14.5C344.6 15.3 345 15.7 345.9 15.7C347 15.7 347.8 15.1 348 13.9L348.6 11.1L349.2 10.9Z" fill="#CBD5E1"/>
<path d="M351.3 14.6C351.3 14.7 351.3 14.8 351.3 14.9C351.3 15.3 351.5 15.6 352.1 15.6C352.4 15.6 352.7 15.5 352.9 15.3L353.1 15.8C352.8 16 352.3 16.1 351.9 16.1C351.1 16.1 350.6 15.7 350.6 14.9C350.6 14.8 350.6 14.6 350.6 14.5L351.2 11.4H350.3L350.4 10.8H351.3L351.5 9.69995H352.2L352 10.8H353.6L353.5 11.4H351.9L351.3 14.6Z" fill="#CBD5E1"/>
<path d="M354.7 13.6999V13.8999C354.7 14.9999 355.3 15.4999 356.5 15.4999C357.2 15.4999 357.8 15.2999 358.2 14.7999L358.5 15.2999C358 15.7999 357.2 16.0999 356.4 16.0999C354.9 16.0999 353.9 15.1999 353.9 13.8999C353.9 12.0999 355.1 10.7999 356.8 10.7999C358.2 10.7999 359.1 11.5999 359.1 12.9999C359.1 13.1999 359.1 13.3999 359 13.5999L354.7 13.6999ZM354.8 13.1999H358.6C358.6 13.0999 358.6 13.0999 358.6 12.9999C358.6 11.9999 357.9 11.3999 357 11.3999C355.8 11.4999 355 12.1999 354.8 13.1999Z" fill="#CBD5E1"/>
<path d="M359.5 15.6L359.8 15C360.2 15.4 360.9 15.6 361.6 15.6C362.6 15.6 363.2 15.2 363.2 14.7C363.2 13.5 360.2 14.3 360.2 12.5C360.2 11.5 361.1 10.9 362.5 10.9C363.2 10.9 363.9 11.1 364.3 11.4L364 12C363.6 11.7 363 11.6 362.5 11.6C361.5 11.6 361 12 361 12.6C361 13.8 364 13 364 14.8C364 15.8 363.1 16.4 361.7 16.4C360.8 16.2 359.9 16 359.5 15.6Z" fill="#CBD5E1"/>
<path d="M368.8 14.6C368.8 14.7 368.8 14.8 368.8 14.9C368.8 15.3 369 15.6 369.6 15.6C369.9 15.6 370.2 15.5 370.4 15.3L370.6 15.8C370.3 16 369.8 16.1 369.4 16.1C368.6 16.1 368.1 15.7 368.1 14.9C368.1 14.8 368.1 14.6 368.1 14.5L368.7 11.4H367.8L367.9 10.8H368.8L369 9.69995H369.7L369.5 10.8H371.1L371 11.4H369.4L368.8 14.6Z" fill="#CBD5E1"/>
<path d="M372.1 13.6999V13.8999C372.1 14.9999 372.7 15.4999 373.9 15.4999C374.6 15.4999 375.2 15.2999 375.6 14.7999L375.9 15.2999C375.4 15.7999 374.6 16.0999 373.8 16.0999C372.3 16.0999 371.3 15.1999 371.3 13.8999C371.3 12.0999 372.5 10.7999 374.2 10.7999C375.6 10.7999 376.5 11.5999 376.5 12.9999C376.5 13.1999 376.5 13.3999 376.4 13.5999L372.1 13.6999ZM372.2 13.1999H376C376 13.0999 376 13.0999 376 12.9999C376 11.9999 375.3 11.3999 374.4 11.3999C373.3 11.4999 372.5 12.1999 372.2 13.1999Z" fill="#CBD5E1"/>
<path d="M377 15.6L377.3 15C377.7 15.4 378.4 15.6 379.1 15.6C380.1 15.6 380.7 15.2 380.7 14.7C380.7 13.5 377.7 14.3 377.7 12.5C377.7 11.5 378.6 10.9 380 10.9C380.7 10.9 381.4 11.1 381.8 11.4L381.5 12C381.1 11.7 380.5 11.6 380 11.6C379 11.6 378.5 12 378.5 12.6C378.5 13.8 381.5 13 381.5 14.8C381.5 15.8 380.6 16.4 379.2 16.4C378.2 16.2 377.4 16 377 15.6Z" fill="#CBD5E1"/>
<path d="M383.6 14.6C383.6 14.7 383.6 14.8 383.6 14.9C383.6 15.3 383.8 15.6 384.4 15.6C384.7 15.6 385 15.5 385.2 15.3L385.4 15.8C385.1 16 384.6 16.1 384.2 16.1C383.4 16.1 382.9 15.7 382.9 14.9C382.9 14.8 382.9 14.6 382.9 14.5L383.5 11.4H382.6L382.7 10.8H383.6L383.8 9.69995H384.5L384.3 10.8H385.9L385.8 11.4H384.2L383.6 14.6Z" fill="#CBD5E1"/>
<path d="M385.4 18.1L385.5 17.5H386.6L388.2 9.29995H387.1L387.2 8.69995H389L387.1 18.1C387.2 18.1 385.4 18.1 385.4 18.1Z" fill="#CBD5E1"/>
</g>
<g clip-path="url(#clip1_559_2715)">
<path d="M241.3 575.9C241.3 575.9 284 534.5 289.6 530.1C295.2 525.7 362.4 491.1 362.4 491.1C362.4 491.1 415.3 450.9 421.2 448.4C427.1 445.9 518.3 427.6 518.3 427.6C518.3 427.6 677.3 299.6 683.5 295.2C689.7 290.8 730.1 268.4 743.9 248.4C745.7 245.9 770.8 223.2 779.8 218.6C783.6 216.7 779.6 196.7 784.8 184.3C789.8 172.5 801.6 155 801.6 155L848.3 184.9L783.6 343.1C783.6 343.1 745 406.6 743.8 419.1C742.6 431.6 730.1 490.7 730.1 490.7L725.4 543L712 572.2L241.3 575.9Z" fill="white"/>
<path d="M254.8 541.7L262.1 505.1L274.1 536.6L287.4 492.5L296.6 534.2L310.6 501.4L318.3 541.8L254.8 541.7Z" fill="#FED7AA"/>
<path d="M270.4 428L276.8 396L287.2 423.5L298.8 385L306.8 421.4L319.1 392.8L325.8 428.1H270.4V428Z" fill="#475569"/>
<path d="M636.5 208.8L640.5 188.7L647.1 206L654.4 181.8L659.4 204.7L667.1 186.7L671.3 208.9L636.5 208.8Z" fill="#FED7AA"/>
<path d="M569.7 276.1L562.7 276.5L536.2 277.9L534.9 268C512.4 266.1 520.1 220.6 520.1 220.6C521.1 208.9 535.9 204.8 549.8 208.7C559.7 211.5 565.7 245 568.3 263.7C569.2 271 569.7 276.1 569.7 276.1Z" fill="#FED7AA"/>
<path d="M532.8 240.9C533.4 240.9 534 240.4 534 239.7C534 239 533.5 238.5 532.8 238.5C532.1 238.5 531.6 239 531.6 239.7C531.6 240.4 532.1 240.9 532.8 240.9Z" fill="#1E293B"/>
<path d="M521.7 240.5C522.3 240.5 522.9 240 522.9 239.3C522.9 238.6 522.4 238.1 521.7 238.1C521 238.1 520.5 238.6 520.5 239.3C520.5 240 521 240.5 521.7 240.5Z" fill="#1E293B"/>
<path d="M518.4 236.2C518.2 236.2 518.1 236.2 517.9 236.1C517.2 235.8 516.8 235 517.1 234.3C517.2 234.1 517.9 232.4 519.8 231.6C521.3 231 522.9 231.2 524.8 232.1C525.5 232.4 525.8 233.3 525.4 234C525.1 234.7 524.2 235 523.6 234.6C522.5 234.1 521.6 233.9 520.9 234.2C520.1 234.5 519.8 235.3 519.7 235.3C519.5 235.9 519 236.2 518.4 236.2Z" fill="#1E293B"/>
<path d="M538.5 236C538.2 236 537.9 235.9 537.7 235.7C534.2 233.2 532.2 234.8 532 235C531.4 235.5 530.6 235.5 530 235C529.5 234.5 529.5 233.6 530 233.1C531.2 231.9 534.8 230.3 539.2 233.5C539.8 233.9 540 234.8 539.5 235.4C539.3 235.8 538.9 236 538.5 236Z" fill="#1E293B"/>
<path d="M523.2 247.5C523 247.5 522.7 247.3 522.7 247.1C522.6 245.8 523 244.9 523.6 244.5C524.6 243.9 525.9 244.6 525.9 244.6C526.1 244.7 526.2 245 526.1 245.2C526 245.4 525.7 245.5 525.5 245.4C525.3 245.3 524.5 245 524.1 245.3C523.8 245.5 523.6 246.1 523.6 247.1C523.7 247.3 523.5 247.5 523.2 247.5Z" fill="#1E293B"/>
<path d="M530.1 255.8C529.9 255.8 529.7 255.8 529.6 255.8C527.9 255.6 526.6 254.4 525.7 252.4L525.5 251.9L526.1 251.8C526.2 251.8 531.9 250.6 537.5 250.4H538.5L537.8 251.2C537.6 251.3 533.8 255.8 530.1 255.8ZM526.8 252.5C527.6 253.9 528.6 254.7 529.7 254.9C532.2 255.2 535 252.7 536.3 251.3C532.2 251.5 528.2 252.2 526.8 252.5Z" fill="#1E293B"/>
<path d="M558.8 240.6C558.8 240.6 559.8 230.5 554.5 225.7C549.2 220.9 519.3 230.7 520 220.6C520.7 210.5 528.4 204.9 541.1 206.2C553.8 207.5 561.4 218.6 563.1 230.4C564.8 242.2 562.2 236.9 562.2 236.9L558.8 240.6Z" fill="#1E293B"/>
<path d="M556 228.3C556 228.3 562.8 225 563.6 232.7C564.4 240.4 560.1 242.2 557.4 240.1" fill="#FED7AA"/>
<path d="M559.7 241.4C558.8 241.4 558 241.1 557.2 240.5L557.8 239.8C558.8 240.6 560 240.7 561.1 240.2C561.9 239.7 563.8 238.1 563.3 232.8C563.1 230.7 562.3 229.2 561.1 228.6C559.1 227.5 556.3 228.8 556.3 228.8L555.9 228C556 227.9 559.1 226.5 561.6 227.9C563.1 228.7 564 230.4 564.2 232.9C564.6 237 563.7 240 561.6 241.2C560.9 241.3 560.3 241.5 559.7 241.4Z" fill="#1E293B"/>
<path d="M546.4 265.9C546.2 265.9 546 265.8 546 265.6C545.9 265.4 546 265.1 546.3 265C546.4 265 553.9 262.4 556.2 258C556.3 257.8 556.6 257.7 556.8 257.8C557 257.9 557.1 258.2 557 258.4C554.5 263.2 546.9 265.8 546.6 265.9C546.5 265.9 546.5 265.9 546.4 265.9Z" fill="#1E293B"/>
<path d="M556.7 236.6C556.7 236.6 557.8 232.1 561.2 233C561.2 233 561.2 231.4 559.8 231.7" fill="#FED7AA"/>
<path d="M557.1 236.7L556.2 236.5C556.2 236.4 556.9 233.9 558.7 232.9C559.3 232.6 560 232.4 560.7 232.5C560.7 232.4 560.6 232.4 560.5 232.3C560.4 232.2 560.2 232.2 560 232.3L559.8 231.4C560.5 231.2 560.9 231.4 561.1 231.6C561.7 232.1 561.7 233 561.7 233.1V233.7L561.1 233.5C560.4 233.3 559.7 233.4 559.2 233.7C557.7 234.5 557.1 236.7 557.1 236.7Z" fill="#1E293B"/>
<path d="M569.5 270.6C569.5 270.6 617.1 281.5 624.1 287.3C631.1 293.1 620.1 458.4 620.4 472.6C596.9 474.1 495.2 480.5 489.9 478.2C484.7 475.9 482 290.4 491.8 285.5C501 280.9 529.7 269.5 541.6 272C553.5 274.5 569.5 270.6 569.5 270.6Z" fill="#FB7200"/>
<path d="M508.8 450.6C508.8 450.6 456.7 411.9 436.7 427.5C416.9 443 406.1 490 454.5 517C502.9 544 615.8 567.2 615.8 567.2L636 508.3L508.8 450.6Z" fill="#1E293B"/>
<path d="M615.8 567.2L628.6 570.3L636 508.3L615.8 567.2Z" fill="#FED7AA"/>
<path d="M605.6 584.3C605.1 586.9 604.6 590.1 604.7 593.8C604.7 595.1 604.8 596.4 604.9 597.8C605.3 601.2 606.1 604.8 607.7 608.5C609.8 613.3 613.1 618.3 618.2 622.8C620.8 625.1 623.8 627.3 627.4 629.3L673.2 548L663.9 541.7L634.1 521.6L607.4 578C607.4 578 606.4 580.4 605.6 584.3Z" fill="#FB7200"/>
<path d="M618.3 622.8C620.9 625.1 623.9 627.3 627.5 629.3L673.3 548L664 541.7L618.3 622.8Z" fill="#1E293B"/>
<path d="M607 446C607 446 659.2 407.3 679 422.9C698.9 438.4 709.7 485.4 661.3 512.4C612.9 539.4 500 562.6 500 562.6L479.8 503.7L607 446Z" fill="#1E293B"/>
<path d="M500.1 562.5L487.3 565.6L479.9 503.6L500.1 562.5Z" fill="#FED7AA"/>
<path d="M487 572.2C486.7 574.8 486 578 484.9 581.5C484.5 582.7 484 584 483.4 585.2C482 588.3 480 591.5 477.4 594.5C473.9 598.4 469.2 602 462.9 604.7C459.7 606 456.2 607.1 452.1 607.9L434.5 516.2L445.3 513.2L480 503.7L487.4 565.7C487.2 565.7 487.4 568.3 487 572.2Z" fill="#FB7200"/>
<path d="M462.7 604.7C459.5 606 456 607.1 451.9 607.9L434.3 516.2L445.1 513.2L462.7 604.7Z" fill="#1E293B"/>
<path d="M615.7 283.6C656.4 291.9 702.5 397 667.5 418.9C658.2 424.7 645.3 429.1 605.5 436.5L597.2 395.7L622.2 379L615.7 283.6Z" fill="#FB7200"/>
<path d="M507.5 279C507.5 279 507 279.4 487.1 287.3C468.6 294.7 436.2 339 436.2 390.1C436.2 418.6 486.2 438.3 486.2 438.3L502.1 394.5C502.1 394.5 495.4 371.6 496.1 365.3C496.8 359 493.4 351.4 493.4 351.4L507.5 279Z" fill="#FB7200"/>
<path d="M488 383.7C488 383.7 500 384.6 508.4 380C517.6 374.9 522.5 393 522.5 393C522.5 393 532.6 420.9 512.2 431.5L488 383.7Z" fill="#FED7AA"/>
<path d="M473.7 422.1C473.7 422.1 467.7 389.1 483.4 390.1C497.3 391 505.8 398.4 506.5 400.3C513.9 417.8 517.6 435.5 508.4 433.7C493.6 430.8 484.3 432.8 473.7 422.1Z" fill="#FED7AA"/>
<path d="M509.8 413.3C509.7 413.3 509.6 413.3 509.5 413.2C502.3 406.9 488.1 403.4 488 403.4C487.8 403.3 487.6 403.1 487.7 402.8C487.8 402.5 488 402.4 488.3 402.5C488.9 402.6 502.8 406 510.2 412.5C510.4 412.7 510.4 413 510.2 413.1C510.1 413.3 509.9 413.3 509.8 413.3Z" fill="#1E293B"/>
<path d="M508.1 424.6C508 424.6 507.9 424.6 507.8 424.5C503.5 420.2 491.3 417.1 491.2 417C491 416.9 490.8 416.7 490.9 416.4C491 416.2 491.2 416 491.5 416.1C492 416.2 504 419.3 508.5 423.8C508.7 424 508.7 424.3 508.5 424.4C508.3 424.6 508.2 424.6 508.1 424.6Z" fill="#1E293B"/>
<path d="M506.5 420.8C506.3 420.8 506.1 420.7 506 420.4L504.2 412C504.2 411.8 504.3 411.5 504.6 411.5C504.8 411.5 505.1 411.6 505.1 411.9L506.9 420.3C506.9 420.5 506.8 420.8 506.5 420.8Z" fill="#1E293B"/>
<path d="M508.5 431.9C508.3 431.9 508.1 431.7 508 431.5L507.5 427.6C507.5 427.3 507.6 427.1 507.9 427.1C508.1 427.1 508.4 427.2 508.4 427.5L508.9 431.4C509 431.6 508.9 431.9 508.5 431.9Z" fill="#1E293B"/>
<path d="M525.5 432V442.5L515.9 435.4L494 372.4L503.6 369L525.5 432Z" fill="white"/>
<path d="M526 443.4L515.6 435.6V435.5L493.6 372.1L504.1 368.5L504.2 368.9L526 432V443.4ZM516.3 435.1L525 441.6V432.1L503.3 369.6L494.6 372.6L516.3 435.1Z" fill="#1E293B"/>
<path d="M478.8 391.1C478.8 391.1 482.1 382.6 490.8 383.7C495.4 384.3 503.3 389.8 509.3 395.7C513 399.4 508.2 406 503.8 404C499.4 402 478.8 391.1 478.8 391.1Z" fill="#FED7AA"/>
<path d="M505.8 403.3C505.6 403.3 505.5 403.2 505.4 403.1C505.3 402.9 505.3 402.6 505.6 402.5C505.6 402.5 508.4 400.8 508.8 399C508.9 398.5 508.8 398 508.5 397.5C507.2 395.5 505.9 395.1 505.4 395L502.8 398.5C502.7 398.7 502.3 398.7 502.2 398.6C502 398.5 502 398.1 502.1 398L505 394.1H505.2C505.3 394.1 507.3 394.1 509.3 397.1C509.8 397.8 509.9 398.5 509.7 399.3C509.2 401.5 506.2 403.3 506 403.4C505.9 403.2 505.8 403.3 505.8 403.3Z" fill="#1E293B"/>
<path d="M487.7 394.8H487.6C487.4 394.7 487.2 394.5 487.3 394.2L489 387.7C489.1 387.5 489.3 387.3 489.6 387.4C489.9 387.5 490 387.7 489.9 388L488.2 394.5C488.1 394.6 487.9 394.8 487.7 394.8Z" fill="#1E293B"/>
<path d="M486.6 392H486.5C486.3 391.9 486.1 391.7 486.2 391.4L487.1 388.6C487.2 388.4 487.4 388.2 487.7 388.3C488 388.4 488.1 388.6 488 388.9L487.1 391.7C487 391.9 486.8 392 486.6 392Z" fill="#1E293B"/>
<path d="M499.7 399C499.6 399 499.5 399 499.4 398.9C499.2 398.8 499.2 398.5 499.3 398.3L503.4 392.7C503.5 392.5 503.8 392.5 504 392.6C504.2 392.7 504.2 393 504.1 393.2L500 398.8C499.9 399 499.8 399 499.7 399Z" fill="#1E293B"/>
<path d="M505.7 382.9C505.7 382.9 502.9 399.2 509.6 401.9C516.3 404.6 525.8 389 520.5 379.2C517.4 373.4 505.5 376.7 505.7 382.9Z" fill="#FED7AA"/>
<path d="M519 379.7L511.7 379C511.4 379 511.3 378.8 511.3 378.5C511.3 378.2 511.5 378.1 511.8 378.1L519 378.8C519.3 378.8 519.4 379 519.4 379.3C519.5 379.5 519.3 379.7 519 379.7Z" fill="#1E293B"/>
<path d="M510.8 400.2C510.7 400.2 510.7 400.2 510.6 400.1C510.6 400.1 506.3 397.6 508.1 392.7L508.2 392.3L517.8 394.9C518 395 518.2 395.2 518.1 395.5C518 395.7 517.8 395.9 517.5 395.8L508.8 393.4C507.6 397.3 510.8 399.2 511 399.2C511.2 399.3 511.3 399.6 511.2 399.8C511.1 400.2 510.9 400.2 510.8 400.2Z" fill="#1E293B"/>
<path d="M604.6 399.4C604.6 399.4 559.4 430.1 569 450.3L624 425L604.6 399.4Z" fill="#FED7AA"/>
<path d="M579.3 444C579.2 444 576.8 443.7 576 441.8C575.2 440.2 575.8 438 577.6 435.2L577.7 435.1L591.2 425.2C591.4 425.1 591.7 425.1 591.8 425.3C592 425.5 591.9 425.8 591.7 425.9L578.2 435.7C576.6 438.1 576.1 440.1 576.7 441.3C577.4 442.7 579.2 442.9 579.3 442.9C579.6 442.9 579.7 443.2 579.7 443.4C579.7 443.8 579.5 444 579.3 444Z" fill="#1E293B"/>
<path d="M571.4 448.2C571.3 448.2 571.1 448.1 571 448C571 447.9 569.8 446.3 569.8 443.6C569.8 441.1 570.9 437.2 575.8 432.6C576 432.4 576.3 432.4 576.5 432.6C576.7 432.8 576.7 433.1 576.5 433.2C567.7 441.5 571.7 447.1 571.9 447.3C572.1 447.5 572 447.8 571.8 447.9C571.6 448.2 571.5 448.2 571.4 448.2Z" fill="#1E293B"/>
<path d="M578 440.9C577.8 440.9 577.7 440.8 577.6 440.7C577.5 440.5 577.6 440.2 577.8 440.1L583.1 437.3L581.1 435C580.9 434.8 580.9 434.5 581.1 434.4C581.3 434.3 581.6 434.3 581.8 434.4L584.5 437.6L578.2 441C578.1 440.9 578 440.9 578 440.9Z" fill="#1E293B"/>
<path d="M594.5 411.5C594.5 411.5 570.8 419.2 570.4 436.3L594.5 411.5Z" fill="#FED7AA"/>
<path d="M573 430.9C572.9 430.9 572.8 430.9 572.7 430.8C572.5 430.6 572.5 430.3 572.7 430.2L583.1 420.5C583.3 420.3 583.6 420.3 583.8 420.5C584 420.7 584 421 583.8 421.1L573.4 430.8C573.3 430.9 573.1 430.9 573 430.9Z" fill="#1E293B"/>
<path d="M551.4 463.8L458.8 416.3L455.3 423.2L552.8 471.4L652.8 422.5L649.4 414.6L551.4 463.8Z" fill="white"/>
<path d="M552.8 472L552.6 471.9L454.7 423.5L458.6 415.7L551.4 463.3L649.7 414.1L653.5 422.8L653.1 423L552.8 472ZM455.9 423.1L552.8 471L652.3 422.4L649.3 415.4L551.5 464.4L551.3 464.3L459 417L455.9 423.1Z" fill="#1E293B"/>
<path d="M464.4 419.4C464.4 419.4 470.7 411.5 471.8 412C473.3 412.7 522.5 435.9 550.8 461C550.8 461 615.2 412.9 641.1 410.1L645.7 416.6L551.3 463.8L464.4 419.4Z" fill="white"/>
<path d="M551.4 464.3L463.7 419.5L464.1 419C468.5 413.6 471.1 411 472.1 411.5C474.2 412.5 522.7 435.4 550.9 460.3C555.7 456.7 616.3 412.3 641.1 409.6H641.4L646.5 416.7L551.4 464.3ZM465.2 419.2L551.5 463.3L645.2 416.4L641 410.6C615.3 413.6 551.8 460.8 551.2 461.3L550.9 461.5L550.6 461.3C522.7 436.6 474.5 413.7 471.7 412.4C470.9 412.5 467.8 415.9 465.2 419.2Z" fill="#1E293B"/>
<path d="M620.3 372.5C620.3 372.5 620.2 372.5 620.1 372.5C619.9 372.4 619.7 372.1 619.8 371.9L621.6 367.2L616.7 362.3C616.5 362.1 616.5 361.8 616.7 361.7C616.9 361.6 617.2 361.5 617.4 361.7L622.7 367L620.7 372.3C620.7 372.4 620.5 372.5 620.3 372.5Z" fill="#1E293B"/>
<path d="M488.6 367.4L478.8 366.3C478.5 366.3 478.4 366 478.4 365.8C478.4 365.5 478.7 365.4 478.9 365.4L488.7 366.5C489 366.5 489.1 366.8 489.1 367C489 367.2 488.8 367.4 488.6 367.4Z" fill="#1E293B"/>
<path d="M487.6 364.2C487.5 364.2 487.4 364.2 487.4 364.1L481.7 360.4C481.5 360.3 481.4 360 481.6 359.8C481.7 359.6 482 359.5 482.2 359.7L487.9 363.4C488.1 363.5 488.2 363.8 488 364C487.9 364.1 487.7 364.2 487.6 364.2Z" fill="#1E293B"/>
<path d="M458.4 328.6C458.4 328.6 458.3 328.6 458.2 328.6C458 328.5 457.8 328.2 457.9 328C458 327.8 466.2 305.6 481.6 296.8C481.8 296.7 482.1 296.8 482.2 297C482.3 297.2 482.2 297.5 482 297.6C466.9 306.3 458.8 328.1 458.7 328.3C458.8 328.5 458.6 328.6 458.4 328.6Z" fill="white"/>
<path d="M673.5 372.5C673.3 372.5 673.1 372.4 673 372.1C669.8 357 661.6 343.3 661.6 343.2C661.5 343 661.5 342.7 661.8 342.6C662 342.5 662.3 342.5 662.4 342.8C662.5 342.9 670.7 356.7 673.9 372C674 372.1 673.8 372.4 673.5 372.5C673.5 372.4 673.5 372.4 673.5 372.5Z" fill="white"/>
</g>
<path d="M625.25 235.58C641.98 235.58 655.54 222.1 655.54 205.48C655.54 188.86 641.98 175.38 625.25 175.38C608.52 175.38 594.96 188.86 594.96 205.48C594.96 222.1 608.52 235.58 625.25 235.58Z" fill="#FB923C"/>
<path d="M624.83 229.04C637.87 229.04 648.43 218.54 648.43 205.59C648.43 192.64 637.86 182.14 624.83 182.14C611.8 182.14 601.23 192.64 601.23 205.59C601.23 218.54 611.8 229.04 624.83 229.04Z" fill="white"/>
<path d="M624.79 229.49C620.96 229.49 617.17 228.57 613.69 226.76C608 223.8 603.81 218.82 601.89 212.73C599.97 206.64 600.55 200.17 603.53 194.53C606.51 188.87 611.52 184.71 617.65 182.8C623.78 180.89 630.29 181.47 635.97 184.43C647.71 190.53 652.28 204.99 646.14 216.66C643.16 222.31 638.15 226.48 632.02 228.39C629.65 229.13 627.22 229.49 624.8 229.49H624.79ZM624.84 182.56C622.51 182.56 620.17 182.91 617.88 183.63C611.98 185.47 607.14 189.49 604.27 194.93C601.41 200.38 600.84 206.62 602.69 212.48C604.54 218.35 608.58 223.15 614.06 226C619.55 228.85 625.82 229.41 631.72 227.57C637.62 225.73 642.46 221.71 645.32 216.27C651.24 205.02 646.84 191.08 635.52 185.2C632.16 183.45 628.5 182.57 624.81 182.57L624.84 182.56Z" fill="#1E293B"/>
<path d="M608.75 252.38L595.34 245.41C594.59 245.02 594.25 244.14 594.54 243.35L601.88 223.59C602.24 222.64 603.34 222.22 604.23 222.69L622.46 232.16C623.36 232.62 623.64 233.78 623.06 234.6L610.92 251.87C610.44 252.56 609.51 252.78 608.77 252.39L608.75 252.38Z" fill="#CBD5E1"/>
<path d="M609.53 253C609.2 253 608.86 252.92 608.55 252.76L595.13 245.8C594.19 245.31 593.76 244.2 594.13 243.21L601.47 223.45C601.68 222.88 602.13 222.44 602.69 222.22C603.25 222.01 603.89 222.04 604.43 222.31L622.66 231.78C623.2 232.06 623.59 232.55 623.73 233.14C623.88 233.72 623.76 234.34 623.41 234.84L611.27 252.11C610.86 252.69 610.2 253 609.53 253ZM603.45 222.93C603.3 222.93 603.15 222.96 603 223.02C602.66 223.15 602.4 223.42 602.28 223.75L594.94 243.5C594.72 244.08 594.98 244.74 595.54 245.03L608.95 252C609.5 252.29 610.2 252.12 610.55 251.61L622.69 234.34C622.9 234.05 622.97 233.68 622.88 233.33C622.79 232.99 622.56 232.69 622.25 232.52L604.02 223.05C603.84 222.96 603.64 222.91 603.44 222.91L603.45 222.93Z" fill="#1E293B"/>
<path d="M600.24 228.16L599.84 228.92L619.82 239.3L620.22 238.54L600.24 228.16Z" fill="#1E293B"/>
<path d="M597.82 234.65L597.42 235.41L615.82 244.97L616.22 244.21L597.82 234.65Z" fill="#1E293B"/>
<path d="M595.53 240.84L595.13 241.6L611.97 250.35L612.37 249.59L595.53 240.84Z" fill="#1E293B"/>
<path d="M614.27 226.58L613.51 226.18L620.62 212.68L635.43 209.02L635.64 209.85L621.2 213.42L614.28 226.58H614.27Z" fill="#1E293B"/>
<path d="M620.48 213.15L617.08 199.18L617.92 198.98L621.32 212.95L620.48 213.16V213.15Z" fill="#1E293B"/>
<path d="M111.3 173.7H42.62C40.42 173.7 38.65 175.48 38.65 177.67V205.57C38.65 207.77 40.43 209.54 42.62 209.54H94.62L111.11 220.45L104.89 209.54H111.29C113.49 209.54 115.26 207.76 115.26 205.57V177.67C115.26 175.47 113.48 173.7 111.29 173.7H111.3Z" fill="white"/>
<path d="M112.31 221.72L94.5 209.94H42.62C40.2 209.94 38.24 207.98 38.24 205.56V177.66C38.24 175.24 40.2 173.29 42.62 173.29H111.29C113.71 173.29 115.67 175.25 115.67 177.66V205.56C115.67 207.98 113.71 209.94 111.29 209.94H105.59L112.3 221.72H112.31ZM42.63 174.1C40.66 174.1 39.07 175.69 39.07 177.66V205.56C39.07 207.53 40.67 209.12 42.63 209.12H94.75L109.92 219.15L104.2 209.12H111.3C113.27 209.12 114.86 207.53 114.86 205.56V177.66C114.86 175.69 113.27 174.1 111.3 174.1H42.63Z" fill="#1E293B"/>
<path d="M214.3 312.33H282.97C285.17 312.33 286.94 310.55 286.94 308.36V280.46C286.94 278.26 285.16 276.49 282.97 276.49H230.97L214.48 265.58L220.7 276.49H214.3C212.1 276.49 210.33 278.27 210.33 280.46V308.36C210.33 310.56 212.11 312.33 214.3 312.33Z" fill="white"/>
<path d="M282.98 312.73H214.31C211.89 312.73 209.93 310.77 209.93 308.36V280.46C209.93 278.04 211.89 276.09 214.31 276.09H220.01L213.3 264.31L231.11 276.09H282.99C285.41 276.09 287.37 278.05 287.37 280.46V308.36C287.37 310.78 285.41 312.73 282.99 312.73H282.98ZM214.31 276.89C212.34 276.89 210.75 278.48 210.75 280.45V308.35C210.75 310.32 212.35 311.91 214.31 311.91H282.98C284.95 311.91 286.54 310.32 286.54 308.35V280.45C286.54 278.48 284.94 276.89 282.98 276.89H230.86L215.69 266.86L221.41 276.89H214.31Z" fill="#1E293B"/>
<path d="M74.2401 50.92H5.56009C3.36009 50.92 1.59009 52.7 1.59009 54.89V82.79C1.59009 84.99 3.37009 86.76 5.56009 86.76H57.5601L74.0501 97.67L67.8301 86.76H74.2301C76.4301 86.76 78.2001 84.98 78.2001 82.79V54.89C78.2001 52.69 76.4201 50.92 74.2301 50.92H74.2401Z" fill="white"/>
<path d="M75.2501 98.95L57.4401 87.17H5.56005C3.14005 87.17 1.18005 85.21 1.18005 82.8V54.9C1.18005 52.49 3.14005 50.53 5.56005 50.53H74.2401C76.66 50.53 78.6201 52.49 78.6201 54.9V82.8C78.6201 85.21 76.66 87.17 74.2401 87.17H68.5401L75.2501 98.95ZM5.56005 51.33C3.59005 51.33 2.00005 52.92 2.00005 54.89V82.79C2.00005 84.76 3.60005 86.35 5.56005 86.35H57.6801L72.8501 96.38L67.1301 86.35H74.2301C76.2001 86.35 77.7901 84.76 77.7901 82.79V54.89C77.7901 52.92 76.2001 51.33 74.2301 51.33H5.56005Z" fill="#1E293B"/>
<defs>
<clipPath id="clip0_559_2715">
<rect width="695.2" height="630" fill="white"/>
</clipPath>
<clipPath id="clip1_559_2715">
<rect width="695.9" height="630" fill="white"/>
</clipPath>
</defs>
</svg>
