<?xml version="1.0" encoding="UTF-8"?> <svg xmlns="http://www.w3.org/2000/svg" width="378.859" height="99.406" viewBox="0 0 378.859 99.406"><defs><style> .cls-1 { fill: #0092df; } .cls-2 { fill: #7ba725; } </style></defs><g id="Group_3" data-name="Group 3" transform="translate(-131.1 -140.271)"><path id="Path_48" data-name="Path 48" class="cls-1" d="M444.123,194.773c-1.923,15.121-12.978,25.663-29.095,25.663-17.776,0-29.4-12.821-29.4-30.46s11.625-30.464,29.4-30.464c13.5,0,23.443,7.4,27.437,18.689H464.9c-4.859-23.481-24.371-37.93-49.874-37.93-29.542,0-51.054,19.371-51.054,49.705s21.512,49.7,51.054,49.7c27.943,0,48.693-17.344,50.855-44.9Z"></path><path id="Path_49" data-name="Path 49" class="cls-1" d="M403.192,189.972a11.834,11.834,0,1,0,11.831-11.834A11.842,11.842,0,0,0,403.192,189.972Z"></path><path id="Path_50" data-name="Path 50" class="cls-2" d="M131.1,142.68h35.271c16.566,0,34.615,3.468,34.615,24.046,0,10.554-6.549,17.764-16.295,20.85v.269c12.424,1.6,20.705,10.816,20.705,23.112,0,19.778-18.711,26.319-35.543,26.319H131.1Zm20.842,37.812h15.1c6.429,0,13.1-2.673,13.1-10.295,0-7.878-7.481-9.881-14.033-9.881H151.942Zm0,39.144h18.715c6.545,0,13.889-2.8,13.889-11.086,0-8.956-10.017-10.427-16.833-10.427H151.942Z"></path><path id="Path_51" data-name="Path 51" class="cls-2" d="M264.453,165.788c-3.342-4.273-10.018-6.276-15.1-6.276-5.877,0-14.023,2.678-14.023,9.757,0,17.235,43.555,6.15,43.555,39.281,0,21.118-16.978,31.127-36.476,31.127-12.164,0-22.85-3.6-31.806-11.884l14.835-16.307a23.149,23.149,0,0,0,18.171,8.95c6.817,0,14.429-3.2,14.429-9.878,0-17.374-44.355-8.024-44.355-39.555,0-20.168,17.5-30.732,36.069-30.732,10.69,0,20.986,2.813,29,9.887Z"></path><path id="Path_52" data-name="Path 52" class="cls-2" d="M340.481,165.788c-3.331-4.273-10.019-6.276-15.1-6.276-5.87,0-14.024,2.678-14.024,9.757,0,17.235,43.557,6.15,43.557,39.281,0,21.118-16.97,31.127-36.486,31.127-12.151,0-22.847-3.6-31.785-11.884l14.814-16.307a23.188,23.188,0,0,0,18.182,8.95c6.813,0,14.431-3.2,14.431-9.878,0-17.374-44.368-8.024-44.368-39.555,0-20.168,17.508-30.732,36.085-30.732,10.681,0,20.972,2.813,28.993,9.887Z"></path><path id="Path_53" data-name="Path 53" class="cls-1" d="M509.959,194.773v18.949H499v-8.707h-7.941v8.707H478.865v-8.463H457.406l1.654-10.486Z"></path></g></svg> 