<?xml version="1.0" encoding="UTF-8"?><svg id="Layer_2" xmlns="http://www.w3.org/2000/svg" xmlns:xlink="http://www.w3.org/1999/xlink" viewBox="0 0 1440 800"><defs><style>.cls-1{fill:none;}.cls-2{clip-path:url(#clippath);}.cls-3{fill:#eaf7ff;}.cls-4{fill:#fff;}.cls-5{fill:#b6e5ff;}.cls-6{fill:#d0eeff;}.cls-7{fill:#258ac2;}</style><clipPath id="clippath"><rect class="cls-1" width="1440" height="800"/></clipPath></defs><g id="Layer_1-2"><g class="cls-2"><g><path class="cls-6" d="M1190.89,1118.48l-1475.89,33.54,17.97-384.55s121.23-127.82,215.99-224.14c57.62-58.58,105.54-105.66,110.45-105.18,7.67,.6,82.06,56.18,144.59,102.67,42.17,31.39,78.95,58.58,86.25,62.06,17.97,8.62,16.89-3.24,27.67-16.17,10.78-12.94,37.74-58.1,47.44-51.63,9.58,6.35,825.52,583.41,825.52,583.41Z"/><path class="cls-7" d="M212.66,613.57l-5.75,24.48h13.62l-7.88-24.48Z"/><path class="cls-7" d="M214.47,632.63h-2.02v10.86h2.02v-10.86Z"/><path class="cls-4" d="M366,759.73l-5.75,24.48h13.62l-7.88-24.48Z"/><path class="cls-4" d="M367.81,778.78h-2.02v10.86h2.02v-10.86Z"/><path class="cls-7" d="M189.26,597.08l-6.53,27.8h15.47l-8.94-27.8Z"/><path class="cls-7" d="M191.31,618.72h-2.3v12.33h2.3v-12.33Z"/><path class="cls-7" d="M76.12,626.12l-6.53,27.8h15.47l-8.94-27.8Z"/><path class="cls-7" d="M78.18,647.75h-2.3v12.33h2.3v-12.33Z"/><path class="cls-4" d="M173.16,585.38l-6.53,27.8h15.47l-8.94-27.8Z"/><path class="cls-4" d="M175.21,607.02h-2.3v12.33h2.3v-12.33Z"/><path class="cls-7" d="M342.59,743.23l-6.53,27.8h15.47l-8.94-27.8Z"/><path class="cls-7" d="M344.65,764.87h-2.3v12.33h2.3v-12.33Z"/><path class="cls-3" d="M405.03,698.59l-86.85-70.08,83.26,59.3,3.59-16.17,155.14,129.98h-23.96l-125.79-113.81-5.39,10.78Z"/><path class="cls-7" d="M195.38,743.53l1.73-12.45,2.87,10.67,3.19-15,2.22,14.18,3.36-11.15,1.84,13.7h-15.21v.06Z"/><path class="cls-4" d="M225.33,718.36l1.52-11.6,2.49,9.97,2.79-13.95,1.88,13.16,2.91-10.36,1.58,12.77h-13.18Z"/><path class="cls-4" d="M210.96,727.01l1.66-12.49,2.72,10.74,3.05-15.02,2.05,14.18,3.18-11.16,1.72,13.75h-14.38Z"/><path class="cls-5" d="M34.86,642.89c-14.38,6.71,8.39-135.17,22.76-206.65L-209.53,707.58l-49.12,437.26c260.76,8.79,762.38,24.44,682.84,16.77-99.43-9.58-198.86-212.04-252.77-270.74-53.91-58.7-16.77-82.66-71.88-93.44-55.11-10.78-29.95-7.19-39.53-71.88-9.58-64.69-7.19-91.04-25.16-82.66Z"/><path class="cls-5" d="M224.85,556.27c-3.71,.12-8.15-.36-13.66-1.56,0,0-41.93-22.28-46.84-8.75-4.91,13.54,14.14,39.29-29.11,25.76-43.25-13.54-24.8,4.07-31.63,15.57-6.71,11.5-49.83-60.02-78.59-57.38-28.75,2.64-53.31,40.01-90.81,29.35C0,492.42,54.5,438.75,60.01,439.23c8.86,.72,93.56,64.09,164.84,117.04Z"/><path class="cls-3" d="M712.3,808.21c-5.27,2.4-147.15-120.4-217.43-182.09l230.01,161.72c-3.39,6.19-7.31,17.97-12.58,20.37Z"/></g></g></g></svg>