<?xml version="1.0" encoding="UTF-8"?><svg id="Layer_2" xmlns="http://www.w3.org/2000/svg" xmlns:xlink="http://www.w3.org/1999/xlink" viewBox="0 0 1440 800"><defs><style>.cls-1{fill:none;}.cls-2{clip-path:url(#clippath);}.cls-3{fill:#eaf7ff;}.cls-4{fill:#fff;}.cls-5{fill:#b6e5ff;}.cls-6{fill:#d0eeff;}.cls-7{fill:#258ac2;}</style><clipPath id="clippath"><rect class="cls-1" width="1440" height="800"/></clipPath></defs><g id="Layer_1-2"><g class="cls-2"><path class="cls-6" d="M1916.91,1116.08H453s520.28-480.62,541.84-499.55c21.44-18.93,23.36-8.03,32.47,0,9.1,8.03,29.23,37.97,39.41,34.14,10.06-3.83,137.65-106.86,145.55-103.5,7.79,3.35,30.19,31.39,44.8,22.4,14.61-8.98,324.65-227.49,324.65-227.49l51.15,81.34,170.83,271.46,113.21,421.21Z"/><path class="cls-3" d="M853.12,747.11c34.94-27.95,110.09-89.49,131.18-112.01,18.62-19.89,35.18-20.38,43.33-17.47-9.42-17.33-21.63-12.74-26.56-8.29l-147.95,137.77Z"/><path class="cls-5" d="M1526.38,629.71c23,5.75,44.72-168.51,52.71-256.36l64.69,59.9v378.56h-445.65c23.96,0,92.24-123.39,113.81-89.85s109.02-44.32,149.75-92.24c40.73-47.92,35.93-7.19,64.69,0Z"/><path class="cls-7" d="M1394.35,529.08l-5.74,24.44h13.6l-7.86-24.44Z"/><path class="cls-7" d="M1396.16,548.1h-2.02v10.84h2.02v-10.84Z"/><path class="cls-7" d="M1351.54,676.93l-7.26,30.9h17.2l-9.94-30.9Z"/><path class="cls-7" d="M1353.82,700.98h-2.55v13.7h2.55v-13.7Z"/><path class="cls-7" d="M1360.09,563.82l-6.22,26.48h14.73l-8.52-26.48Z"/><path class="cls-7" d="M1362.04,584.43h-2.19v11.74h2.19v-11.74Z"/><path class="cls-7" d="M1371.69,663.25l-8.24,35.08h19.53l-11.29-35.08Z"/><path class="cls-7" d="M1374.28,690.56h-2.9v15.56h2.9v-15.56Z"/><path class="cls-7" d="M1194.07,618.93l-6.72,28.63h15.93l-9.21-28.63Z"/><path class="cls-7" d="M1196.19,641.21h-2.37v12.7h2.37v-12.7Z"/><path class="cls-4" d="M1010.72,700l-6.72,28.63h15.93l-9.21-28.63Z"/><path class="cls-4" d="M1012.84,722.28h-2.36v12.7h2.36v-12.7Z"/><path class="cls-4" d="M1378.6,542.26l-5.56,23.68h13.18l-7.62-23.68Z"/><path class="cls-4" d="M1380.6,565.94h-1.96v10.5h1.96v-10.5Z"/><path class="cls-4" d="M1389.98,644.08l-5.56,23.68h13.18l-7.62-23.68Z"/><path class="cls-4" d="M1391.98,667.76h-1.96v10.5h1.96v-10.5Z"/><path class="cls-5" d="M1582.08,341l-183.89,129.38c27.55,11.98,53.91-29.95,72.48-21.56,10.92,4.93,0,40.43,14.38,49.12,23.96,14.48,33.13-17.69,64.69-10.18,25.15,5.99,10.18,35.94,43.12,29.35,26.36-5.27,76.87,2.2,98.83,6.59l-109.61-182.69Z"/><path class="cls-4" d="M1202.92,646.48l2.07-13.38,3.4,11.5,3.81-16.09,2.57,15.19,3.97-11.96,2.15,14.74h-17.97Z"/><path class="cls-7" d="M994,750.97l2.07-13.38,3.4,11.5,3.81-16.09,2.57,15.19,3.97-11.95,2.15,14.74h-17.97Z"/><path class="cls-4" d="M1178.97,664.45l2.07-13.38,3.4,11.5,3.81-16.09,2.57,15.19,3.97-11.95,2.15,14.74h-17.97Z"/><path class="cls-4" d="M970,743.52l2.07-13.38,3.4,11.5,3.81-16.09,2.57,15.19,3.97-11.95,2.15,14.74h-17.97Z"/></g></g></svg>