<svg width="704" height="436" viewBox="0 0 704 436" fill="none" xmlns="http://www.w3.org/2000/svg">
<path d="M703 9.00001C703 4.58173 699.418 1 695 1H8.49999C4.08171 1 0.5 4.58172 0.5 9V427.5C0.5 431.918 4.08172 435.5 8.5 435.5H695C699.418 435.5 703 431.918 703 427.5V9.00001Z" fill="#D0EEFF"/>
<path d="M703.5 30L443 420.1L703 419.7L703.5 30Z" fill="#B6E5FF"/>
<path d="M442.7 15.9H94.5C90.1 15.9 86.6 19.4 86.6 23.8V290.1C86.6 294.5 90.1 298 94.5 298H442.8C447.2 298 450.7 294.5 450.7 290.1V23.9C450.7 19.5 447.1 15.9 442.7 15.9Z" fill="white"/>
<path d="M369.7 62.3H120.2V81.1H369.7V62.3Z" fill="#E2E8F0"/>
<path d="M369.7 87.7H120.2V106.5H369.7V87.7Z" fill="#E2E8F0"/>
<path d="M369.7 113.1H120.2V132H369.7V113.1Z" fill="#E2E8F0"/>
<path d="M391.3 167.7H141.9V186.5H391.4V167.7H391.3Z" fill="#E2E8F0"/>
<path d="M391.3 193.2H141.9V212H391.4V193.2H391.3Z" fill="#E2E8F0"/>
<path d="M391.3 218.6H141.9V237.4H391.4V218.6H391.3Z" fill="#E2E8F0"/>
<path d="M391.3 245H141.9V263.8H391.4V245H391.3Z" fill="#E2E8F0"/>
<path d="M554.6 95.8H445.5C441.1 95.8 437.6 99.3 437.6 103.7V139.6C437.6 144 441.1 147.5 445.5 147.5H554.6C559 147.5 562.5 144 562.5 139.6V103.7C562.5 99.3 559 95.8 554.6 95.8Z" fill="#334155"/>
<path d="M546.9 89.2H437.8C433.4 89.2 429.9 92.7 429.9 97.1V133C429.9 137.4 433.4 140.9 437.8 140.9H546.9C551.3 140.9 554.8 137.4 554.8 133V97.1C554.8 92.7 551.3 89.2 546.9 89.2Z" fill="white"/>
<path d="M546.9 141.4H437.8C433.2 141.4 429.4 137.6 429.4 133V97.1C429.4 92.5 433.2 88.7 437.8 88.7H546.9C551.5 88.7 555.3 92.5 555.3 97.1V133C555.3 137.6 551.5 141.4 546.9 141.4ZM437.8 89.7C433.7 89.7 430.4 93 430.4 97.1V133C430.4 137.1 433.7 140.4 437.8 140.4H546.9C551 140.4 554.3 137.1 554.3 133V97.1C554.3 93 551 89.7 546.9 89.7H437.8Z" fill="#94A3B8"/>
<path d="M552.8 172.2L532.4 151.8L526.4 169.9L512 122L559.8 136.4L541.8 142.4L562.2 162.8L552.8 172.2Z" fill="#FB7200"/>
<path d="M552.8 172.9L532.6 152.7L526.4 171.5L511.3 121.3L561.5 136.4L542.7 142.6L562.9 162.8L552.8 172.9ZM532.1 150.9L552.8 171.6L561.5 162.8L540.8 142.1L558.1 136.4L512.7 122.8L526.3 168.3L532.1 150.9Z" fill="white"/>
<path d="M160.6 330.8L120 419.2H209L160.6 330.8Z" fill="#B6E5FF"/>
<path d="M353.2 178.9C353.2 178.9 355.4 209.6 346.2 210.8C346.2 210.8 354.9 215.9 379.4 211.6L359.8 181L353.2 178.9Z" fill="#1E293B"/>
<path d="M414.6 221.6L409.1 220.5L376.4 220.4L375.2 210.8C346.1 208.3 353.7 154.6 353.7 154.6C355 139.5 374.1 134 391.9 139.1C404.7 142.7 409.3 181.2 412.7 205.3C414 214.8 414.6 221.6 414.6 221.6Z" fill="#FEE2E2"/>
<path d="M374 177.1C374.8 177.1 375.5 176.4 375.5 175.6C375.5 174.8 374.8 174.1 374 174.1C373.2 174.1 372.5 174.8 372.5 175.6C372.5 176.4 373.2 177.1 374 177.1Z" fill="#1E293B"/>
<path d="M359.7 176.6C360.5 176.6 361.2 175.9 361.2 175.1C361.2 174.3 360.5 173.6 359.7 173.6C358.9 173.6 358.2 174.3 358.2 175.1C358.2 175.9 358.9 176.6 359.7 176.6Z" fill="#1E293B"/>
<path d="M355.5 170.8C355.3 170.8 355.1 170.8 355 170.7C354.2 170.4 353.9 169.6 354.2 168.8C354.3 168.6 355.2 166.4 357.5 165.5C359.3 164.8 361.3 165 363.6 166.1C364.3 166.5 364.6 167.3 364.3 168.1C363.9 168.8 363.1 169.1 362.3 168.8C360.8 168.1 359.5 167.9 358.6 168.3C357.4 168.7 357 169.9 356.9 169.9C356.7 170.4 356.1 170.8 355.5 170.8Z" fill="#1E293B"/>
<path d="M381.5 170.5C381.2 170.5 380.9 170.4 380.6 170.2C375.7 166.7 373 169.2 372.9 169.3C372.3 169.9 371.4 169.8 370.8 169.3C370.2 168.7 370.2 167.8 370.8 167.2C372.3 165.7 376.8 163.8 382.3 167.8C383 168.3 383.1 169.2 382.6 169.9C382.4 170.2 382 170.4 381.5 170.5Z" fill="#1E293B"/>
<path d="M362.9 183.1C362.6 183.1 362.4 182.9 362.4 182.6C362.3 181 362.7 179.9 363.5 179.4C364.7 178.6 366.4 179.5 366.4 179.6C366.6 179.7 366.7 180 366.6 180.3C366.5 180.5 366.2 180.6 365.9 180.5C365.6 180.3 364.6 179.9 364 180.3C363.4 180.7 363.3 181.8 363.3 182.6C363.4 182.9 363.2 183.1 362.9 183.1Z" fill="#1E293B"/>
<path d="M404.1 174.3C404.1 174.3 405.8 160.8 399 154.6C394.9 150.9 378.7 163 369.1 148.6C363.1 153.4 353.2 156 353.6 154.6C356.8 141.9 365.8 134.1 382.3 135.5C396.6 136.7 407.4 145.8 409.6 161.1C411.8 176.4 408.5 169.5 408.5 169.5L404.1 174.3Z" fill="#1E293B"/>
<path d="M388.1 206.9C387.9 206.9 387.7 206.8 387.6 206.6C387.5 206.3 387.7 206.1 387.9 206C388 206 397.8 202.7 400.8 196.9C400.9 196.7 401.2 196.6 401.5 196.7C401.7 196.8 401.8 197.1 401.7 197.4C398.5 203.6 388.7 206.9 388.3 207C388.2 206.9 388.2 206.9 388.1 206.9Z" fill="#1E293B"/>
<path d="M413.4 213.2C413.4 213.2 465.3 222.4 474.4 229.9C483.4 237.4 485 411.1 485.4 429.5C455 431.4 346.9 429.5 324.1 429.5C316.7 429.5 316 235 328.6 228.7C340.6 222.7 360.9 214.4 376.4 214.4C391.7 217.7 413.4 213.2 413.4 213.2Z" fill="#FDBA74"/>
<path d="M470.8 227.6C523.4 238.4 589.8 376.1 544.6 404.4C532.6 411.9 515.9 417.6 464.5 427.1L453.7 374.5L479.1 353.2L470.8 227.6Z" fill="#FDBA74"/>
<path d="M337.8 225C337.8 225 337.2 224.3 311.5 234.6C287.6 244.2 246.1 301.4 246.1 367.5C246.1 404.3 310.3 429.5 310.3 429.5L330.8 372.9C330.8 372.9 322.2 343.4 323.1 335.2C324 327 319.6 317.3 319.6 317.3L337.8 225Z" fill="#FDBA74"/>
<path d="M476.7 344.3C476.6 344.3 476.6 344.3 476.5 344.3C476.2 344.2 476.1 343.9 476.2 343.7L478.5 337.6L472.1 331.2C471.9 331 471.9 330.7 472.1 330.5C472.3 330.3 472.6 330.3 472.8 330.5L479.6 337.3L477.1 344C477 344.2 476.9 344.3 476.7 344.3Z" fill="white"/>
<path d="M313.4 337.8L300.7 336.4C300.4 336.4 300.2 336.1 300.3 335.9C300.3 335.6 300.6 335.4 300.8 335.5L313.5 336.9C313.8 336.9 314 337.2 313.9 337.4C313.9 337.6 313.6 337.8 313.4 337.8Z" fill="#1E293B"/>
<path d="M312.1 333.7C312 333.7 311.9 333.7 311.8 333.6L304.5 328.8C304.3 328.7 304.2 328.3 304.4 328.1C304.5 327.9 304.9 327.8 305.1 328L312.4 332.8C312.6 332.9 312.7 333.3 312.5 333.5C312.4 333.6 312.3 333.7 312.1 333.7Z" fill="#1E293B"/>
<path d="M274.5 287.7C274.4 287.7 274.4 287.7 274.3 287.7C274 287.6 273.9 287.3 274 287.1C274.1 286.8 284.7 258.3 304.5 246.9C304.7 246.8 305 246.8 305.2 247.1C305.3 247.3 305.2 247.6 305 247.8C285.5 259 275 287.2 274.9 287.5C274.9 287.6 274.7 287.7 274.5 287.7Z" fill="white"/>
<path d="M552.2 344.3C552 344.3 551.8 344.1 551.7 343.9C547.5 324.3 537 306.7 536.9 306.5C536.8 306.3 536.8 306 537.1 305.8C537.3 305.7 537.6 305.7 537.8 306C537.9 306.2 548.5 323.9 552.7 343.7C552.8 344 552.6 344.2 552.3 344.3C552.3 344.3 552.3 344.3 552.2 344.3Z" fill="white"/>
<path d="M367.4 191.6C367.1 191.6 366.9 191.4 366.9 191.1C366.9 190.8 367.1 190.6 367.4 190.6C367.5 190.6 374.4 190.5 379 186C379.2 185.8 379.5 185.8 379.7 186C379.9 186.2 379.9 186.5 379.7 186.7C374.8 191.6 367.7 191.6 367.4 191.6Z" fill="#1E293B"/>
<path d="M406.2 175C406.2 175 408.6 206.1 405 210.9C405 210.9 415.8 209.7 425.3 208.5C425.3 208.5 415.7 195.3 409.6 161.2C409.6 161.1 409.6 171.2 406.2 175Z" fill="#1E293B"/>
<path d="M400.4 158.4C400.4 158.4 409.2 154.2 410.3 164.2C411.3 174.2 405.8 176.5 402.3 173.8" fill="#FEE2E2"/>
<path d="M405.2 175.3C404.1 175.3 403 174.9 402 174.2L402.6 173.4C404 174.4 405.6 174.6 406.9 173.9C408 173.3 410.5 171.1 409.7 164.3C409.4 161.5 408.5 159.6 406.9 158.7C404.2 157.2 400.6 158.9 400.6 158.9L400.2 158C400.4 157.9 404.3 156.1 407.4 157.8C409.3 158.9 410.4 161 410.7 164.1C411.3 169.4 410 173.2 407.4 174.7C406.7 175.1 406 175.3 405.2 175.3Z" fill="#1E293B"/>
<path d="M401.4 169.1C401.4 169.1 402.9 163.2 407.2 164.5C407.2 164.5 407.2 162.4 405.4 162.8" fill="#FEE2E2"/>
<path d="M401.9 169.2L400.9 169C400.9 168.9 401.8 165.7 404 164.4C404.8 163.9 405.7 163.8 406.6 163.9C406.5 163.7 406.5 163.5 406.3 163.4C406.2 163.4 406 163.2 405.5 163.3L405.3 162.3C406.1 162.1 406.7 162.3 407 162.6C407.8 163.2 407.8 164.4 407.8 164.5V165.1L407.2 164.9C406.2 164.6 405.4 164.7 404.6 165.1C402.6 166.3 401.9 169.2 401.9 169.2Z" fill="#1E293B"/>
<path d="M349.7 406.9L326.1 293.3H152.9L179.2 420H323.8H352.5H440.9V406.9H349.7Z" fill="#FB7200"/>
<path d="M312.1 408.1H193.7V409.1H312.1V408.1Z" fill="#1E293B"/>
<path d="M703 419.7H0.5V435.5H703V419.7Z" fill="#315D93"/>
<path d="M703.5 436H0V419.2H703.5V436ZM1 435H702.5V420.2H1V435Z" fill="white"/>
<path d="M442 377.9C442 377.9 383.9 383 382.3 406.9L446.9 411.9L442 377.9Z" fill="#FEE2E2"/>
<path d="M395.4 406.3C395.3 406.3 395.2 406.3 395.1 406.2C395 406.1 393 404.7 393.2 402.4C393.3 400.5 395 398.7 398.2 397.1L398.4 397L416 395C416.3 395 416.5 395.2 416.6 395.4C416.6 395.7 416.4 395.9 416.2 396L398.5 398.1C395.8 399.5 394.3 401.1 394.1 402.6C394 404.3 395.6 405.5 395.6 405.5C395.8 405.7 395.9 406 395.7 406.2C395.7 406.3 395.5 406.3 395.4 406.3Z" fill="#1E293B"/>
<path d="M385.8 406.2C385.6 406.2 385.3 406 385.3 405.8C385.3 405.7 385 403.6 386.4 401.1C387.7 398.8 390.7 395.7 397.7 394C398 393.9 398.2 394.1 398.3 394.4C398.4 394.7 398.2 394.9 397.9 395C385.4 398.1 386.2 405.4 386.3 405.7C386.3 405.9 386.2 406.1 385.8 406.2C385.9 406.2 385.8 406.2 385.8 406.2Z" fill="#1E293B"/>
<path d="M403.4 402.9L395.8 402.8C395.5 402.8 395.3 402.6 395.3 402.3C395.3 402 395.5 401.8 395.8 401.8L402.2 401.9L401.6 398.7C401.6 398.4 401.7 398.2 402 398.1C402.3 398.1 402.5 398.2 402.6 398.5L403.4 402.9Z" fill="#1E293B"/>
<path d="M426.3 383.8C426.3 383.8 400.1 378.7 390.9 394.4L426.3 383.8Z" fill="#FEE2E2"/>
<path d="M396.4 390.9C396.2 390.9 396 390.8 395.9 390.5C395.8 390.2 396 390 396.3 389.9L411 386.3C411.3 386.2 411.5 386.4 411.6 386.7C411.7 387 411.5 387.2 411.2 387.3L396.5 390.9H396.4Z" fill="#1E293B"/>
<path d="M442.5 377.7L441.5 377.9L446.4 405.7L447.4 405.5L442.5 377.7Z" fill="#1E293B"/>
<path d="M323 288.4L319.9 282.2L320.8 281.8L322.9 286.1L324.7 281.9L325.6 282.3L323 288.4Z" fill="white"/>
<path d="M120.7 46.3C120.7 44 122.4 42.4 124.8 42.4C126 42.4 127 42.8 127.7 43.6L127 44.3C126.4 43.7 125.7 43.4 124.8 43.4C123.1 43.4 121.8 44.7 121.8 46.4C121.8 48.1 123.1 49.4 124.8 49.4C125.6 49.4 126.4 49.1 127 48.5L127.7 49.2C127 50 126 50.4 124.8 50.4C122.5 50.3 120.7 48.6 120.7 46.3Z" fill="black"/>
<path d="M133.7 46.7V50.2H132.7V49.4C132.3 49.9 131.7 50.2 130.8 50.2C129.5 50.2 128.6 49.5 128.6 48.5C128.6 47.6 129.2 46.8 130.9 46.8H132.6V46.6C132.6 45.7 132.1 45.2 131 45.2C130.3 45.2 129.6 45.4 129.2 45.8L128.8 45C129.4 44.5 130.3 44.3 131.2 44.3C132.8 44.3 133.7 45.1 133.7 46.7ZM130.3 43.5H129.3L130.8 42.1H131.8L133.3 43.5H132.3L131.3 42.7L130.3 43.5ZM132.7 48.4V47.6H131C130 47.6 129.7 48 129.7 48.5C129.7 49.1 130.2 49.4 131 49.4C131.8 49.4 132.4 49.1 132.7 48.4Z" fill="black"/>
<path d="M141.1 44.4V50.2H140.1V49.3C139.7 49.9 138.9 50.2 138.1 50.2C136.6 50.2 135.6 49.4 135.6 47.7V44.3H136.7V47.5C136.7 48.6 137.3 49.2 138.3 49.2C139.4 49.2 140.1 48.5 140.1 47.3V44.3H141.1V44.4Z" fill="black"/>
<path d="M151.6 46.8V50.2H150.5V47C150.5 45.9 149.9 45.3 148.9 45.3C147.8 45.3 147.1 46 147.1 47.2V50.2H146V42H147.1V45.2C147.5 44.6 148.3 44.3 149.2 44.3C150.6 44.3 151.6 45.1 151.6 46.8Z" fill="black"/>
<path d="M153.1 47.3C153.1 45.6 154.4 44.3 156.1 44.3C157.8 44.3 159.1 45.5 159.1 47.3C159.1 49.1 157.8 50.3 156.1 50.3C154.3 50.3 153.1 49 153.1 47.3ZM158 47.3C158 46.1 157.2 45.3 156 45.3C154.8 45.3 154 46.1 154 47.3C154 48.5 154.8 49.4 156 49.4C157.2 49.4 158 48.5 158 47.3ZM155.9 43.2C156.3 43 156.5 42.8 156.5 42.5C156.5 42.2 156.3 42 155.9 42C155.7 42 155.5 42.1 155.2 42.2L155 41.7C155.3 41.5 155.6 41.4 156 41.4C156.7 41.4 157.1 41.8 157.1 42.4C157.1 42.9 156.8 43.4 156.2 43.7L155.9 43.2Z" fill="black"/>
<path d="M160.4 42.6C160.4 42.2 160.7 41.9 161.1 41.9C161.5 41.9 161.8 42.2 161.8 42.6C161.8 43 161.5 43.3 161.1 43.3C160.7 43.2 160.4 42.9 160.4 42.6ZM160.6 44.4H161.7V50.2H160.6V44.4Z" fill="black"/>
<path d="M166.1 47.3C166.1 45.6 167.4 44.3 169.2 44.3C170.2 44.3 171.1 44.7 171.6 45.5L170.8 46C170.4 45.4 169.9 45.2 169.2 45.2C168.1 45.2 167.2 46 167.2 47.2C167.2 48.5 168.1 49.3 169.2 49.3C169.8 49.3 170.4 49 170.8 48.5L171.6 49C171.1 49.8 170.3 50.3 169.2 50.3C167.4 50.3 166.1 49 166.1 47.3Z" fill="black"/>
<path d="M178.3 44.4V50.2H177.3V49.3C176.9 49.9 176.1 50.2 175.3 50.2C173.8 50.2 172.8 49.4 172.8 47.7V44.3H173.9V47.5C173.9 48.6 174.5 49.2 175.5 49.2C176.6 49.2 177.3 48.5 177.3 47.3V44.3H178.3V44.4ZM174.8 42.1L174.6 41.6C174.9 41.4 175.2 41.3 175.6 41.3C176.3 41.3 176.7 41.7 176.7 42.3C176.7 42.8 176.4 43.3 175.8 43.6L175.4 43.2C175.8 43 176 42.8 176 42.5C176 42.2 175.8 42 175.4 42C175.2 41.9 175 42 174.8 42.1Z" fill="black"/>
<path d="M185 46.7V50.2H184V49.4C183.6 49.9 183 50.2 182.1 50.2C180.8 50.2 179.9 49.5 179.9 48.5C179.9 47.6 180.5 46.8 182.2 46.8H183.9V46.6C183.9 45.7 183.4 45.2 182.3 45.2C181.6 45.2 180.9 45.4 180.5 45.8L180.1 45C180.7 44.5 181.6 44.3 182.5 44.3C184.1 44.3 185 45.1 185 46.7ZM183.9 48.4V47.6H182.3C181.3 47.6 181 48 181 48.5C181 49.1 181.5 49.4 182.3 49.4C183 49.4 183.6 49.1 183.9 48.4Z" fill="black"/>
<path d="M195.9 47.3C195.9 49.1 194.7 50.3 193 50.3C192.1 50.3 191.4 50 190.9 49.3V50.2H189.9V42H191V45.2C191.5 44.6 192.2 44.3 193 44.3C194.7 44.3 195.9 45.5 195.9 47.3ZM194.8 47.3C194.8 46.1 194 45.3 192.8 45.3C191.7 45.3 190.8 46.1 190.8 47.3C190.8 48.5 191.6 49.4 192.8 49.4C194 49.3 194.8 48.5 194.8 47.3Z" fill="black"/>
<path d="M201.9 46.7V50.2H200.9V49.4C200.5 49.9 199.9 50.2 199 50.2C197.7 50.2 196.8 49.5 196.8 48.5C196.8 47.6 197.4 46.8 199.1 46.8H200.8V46.6C200.8 45.7 200.3 45.2 199.2 45.2C198.5 45.2 197.8 45.4 197.4 45.8L197 45C197.6 44.5 198.5 44.3 199.4 44.3C201 44.3 201.9 45.1 201.9 46.7ZM200.9 48.4V47.6H199.3C198.3 47.6 198 48 198 48.5C198 49.1 198.5 49.4 199.3 49.4C200 49.4 200.6 49.1 200.9 48.4ZM200.1 51.8C200.1 52.1 199.8 52.3 199.5 52.3C199.2 52.3 198.9 52.1 198.9 51.8C198.9 51.5 199.2 51.2 199.5 51.2C199.8 51.2 200.1 51.5 200.1 51.8Z" fill="black"/>
<path d="M209.4 46.8V50.2H208.3V47C208.3 45.9 207.7 45.3 206.7 45.3C205.6 45.3 204.9 46 204.9 47.2V50.2H203.8V44.4H204.8V45.3C205.2 44.7 206 44.4 206.9 44.4C208.4 44.3 209.4 45.1 209.4 46.8Z" fill="black"/>
<path d="M210.9 45.1C210.9 44.7 211.2 44.4 211.6 44.4C212 44.4 212.3 44.7 212.3 45.1C212.3 45.5 212 45.9 211.6 45.9C211.2 45.8 210.9 45.5 210.9 45.1ZM210.9 49.5C210.9 49.1 211.2 48.8 211.6 48.8C212 48.8 212.3 49.1 212.3 49.5C212.3 49.9 212 50.3 211.6 50.3C211.2 50.3 210.9 49.9 210.9 49.5Z" fill="black"/>
<path d="M466.7 114.1H467.8V117.1C467 117.7 466 118.1 464.9 118.1C462.5 118.1 460.8 116.4 460.8 114.2C460.8 112 462.5 110.3 464.9 110.3C466.1 110.3 467.2 110.7 467.9 111.5L467.2 112.2C466.6 111.6 465.8 111.3 465 111.3C463.2 111.3 461.9 112.5 461.9 114.3C461.9 116 463.2 117.3 465 117.3C465.6 117.3 466.3 117.2 466.8 116.8V114.1H466.7Z" fill="#FB7200"/>
<path d="M475.1 112.9V118H474.1V117.1C473.7 117.7 472.9 118 472.1 118C470.6 118 469.6 117.2 469.6 115.5V112.1H470.7V115.3C470.7 116.4 471.3 117 472.3 117C473.4 117 474.1 116.3 474.1 115.1V112.1H474.6C475.1 112.1 475.3 111.8 475.3 111.4C475.3 111.1 475.2 110.9 475.1 110.7L475.8 110.4C476 110.7 476.1 111 476.1 111.4C476.1 112.2 475.7 112.7 475.1 112.9ZM471.6 109.9L471.4 109.4C471.7 109.2 472 109.1 472.4 109.1C473.1 109.1 473.5 109.5 473.5 110.1C473.5 110.6 473.2 111.1 472.6 111.4L472.2 111C472.6 110.8 472.8 110.6 472.8 110.3C472.8 110 472.6 109.8 472.2 109.8C472 109.7 471.8 109.8 471.6 109.9Z" fill="#FB7200"/>
<path d="M476.9 110.3C476.9 109.9 477.2 109.6 477.6 109.6C478 109.6 478.3 109.9 478.3 110.3C478.3 110.7 478 111 477.6 111C477.2 111 476.9 110.7 476.9 110.3ZM477.1 112.1H478.2V117.9H477.1V112.1Z" fill="#FB7200"/>
<path d="M482.6 115.1C482.6 113.4 483.9 112.1 485.7 112.1C486.7 112.1 487.6 112.5 488.1 113.3L487.3 113.8C486.9 113.2 486.4 113 485.7 113C484.6 113 483.7 113.8 483.7 115C483.7 116.3 484.6 117.1 485.7 117.1C486.3 117.1 486.9 116.8 487.3 116.3L488.1 116.8C487.6 117.6 486.8 118.1 485.7 118.1C483.9 118 482.6 116.8 482.6 115.1Z" fill="#FB7200"/>
<path d="M494 114.4V117.9H493V117.1C492.6 117.6 492 117.9 491.1 117.9C489.8 117.9 488.9 117.2 488.9 116.2C488.9 115.3 489.5 114.5 491.2 114.5H492.9V114.3C492.9 113.4 492.4 112.9 491.3 112.9C490.6 112.9 489.9 113.1 489.5 113.5L489.1 112.7C489.7 112.2 490.6 112 491.5 112C493.1 112.1 494 112.9 494 114.4ZM490.6 111.3H489.6L491.1 109.9H492.1L493.6 111.3H492.6L491.6 110.5L490.6 111.3ZM493 116.2V115.4H491.4C490.4 115.4 490.1 115.8 490.1 116.3C490.1 116.9 490.6 117.2 491.4 117.2C492.1 117.2 492.7 116.9 493 116.2Z" fill="#FB7200"/>
<path d="M501.4 112.1V117.9H500.4V117C500 117.6 499.2 117.9 498.4 117.9C496.9 117.9 495.9 117.1 495.9 115.4V112H497V115.2C497 116.3 497.6 116.9 498.6 116.9C499.7 116.9 500.4 116.2 500.4 115V112H501.4V112.1Z" fill="#FB7200"/>
<path d="M511.9 114.6V118H510.8V114.8C510.8 113.7 510.2 113.1 509.2 113.1C508.1 113.1 507.4 113.8 507.4 115V118H506.3V109.8H507.4V113C507.8 112.4 508.6 112.1 509.5 112.1C510.9 112.1 511.9 112.9 511.9 114.6Z" fill="#FB7200"/>
<path d="M513.4 115.1C513.4 113.4 514.7 112.1 516.4 112.1C518.1 112.1 519.4 113.3 519.4 115.1C519.4 116.9 518.1 118.1 516.4 118.1C514.6 118 513.4 116.8 513.4 115.1ZM518.4 115.1C518.4 113.9 517.6 113.1 516.4 113.1C515.3 113.1 514.4 113.9 514.4 115.1C514.4 116.3 515.2 117.2 516.4 117.2C517.5 117.1 518.4 116.3 518.4 115.1ZM516.2 111C516.6 110.8 516.8 110.6 516.8 110.3C516.8 110 516.6 109.8 516.2 109.8C516 109.8 515.8 109.9 515.5 110L515.3 109.5C515.6 109.3 515.9 109.2 516.3 109.2C517 109.2 517.4 109.6 517.4 110.2C517.4 110.7 517.1 111.2 516.5 111.5L516.2 111Z" fill="#FB7200"/>
<path d="M520.7 110.3C520.7 109.9 521 109.6 521.4 109.6C521.8 109.6 522.1 109.9 522.1 110.3C522.1 110.7 521.8 111 521.4 111C521 111 520.7 110.7 520.7 110.3ZM520.9 112.1H522V117.9H520.9V112.1Z" fill="#FB7200"/>
<path d="M120.7 151C120.7 148.7 122.4 147.1 124.8 147.1C126 147.1 127 147.5 127.7 148.3L127 149C126.4 148.4 125.7 148.1 124.8 148.1C123.1 148.1 121.8 149.4 121.8 151.1C121.8 152.8 123.1 154.1 124.8 154.1C125.6 154.1 126.4 153.8 127 153.2L127.7 153.9C127 154.7 126 155.1 124.8 155.1C122.5 155 120.7 153.3 120.7 151Z" fill="black"/>
<path d="M133.7 151.3V154.8H132.7V154C132.3 154.5 131.7 154.8 130.8 154.8C129.5 154.8 128.6 154.1 128.6 153.1C128.6 152.2 129.2 151.4 130.9 151.4H132.6V151.2C132.6 150.3 132.1 149.8 131 149.8C130.3 149.8 129.6 150 129.2 150.4L128.8 149.6C129.4 149.1 130.3 148.9 131.2 148.9C132.8 149 133.7 149.8 133.7 151.3ZM130.3 148.2H129.3L130.8 146.8H131.8L133.3 148.2H132.3L131.3 147.4L130.3 148.2ZM132.7 153.1V152.3H131C130 152.3 129.7 152.7 129.7 153.2C129.7 153.8 130.2 154.1 131 154.1C131.8 154.1 132.4 153.8 132.7 153.1Z" fill="black"/>
<path d="M141.1 149V154.8H140.1V154C139.7 154.6 138.9 154.9 138.1 154.9C136.6 154.9 135.6 154.1 135.6 152.4V149H136.7V152.2C136.7 153.3 137.3 153.9 138.3 153.9C139.4 153.9 140.1 153.2 140.1 152V149H141.1Z" fill="black"/>
<path d="M149.3 154.5C149 154.8 148.5 154.9 148 154.9C146.8 154.9 146.2 154.3 146.2 153.1V149.9H145.2V149H146.2V147.7H147.3V149H149V149.9H147.3V153.1C147.3 153.7 147.6 154.1 148.2 154.1C148.5 154.1 148.8 154 149 153.8L149.3 154.5Z" fill="black"/>
<path d="M153.8 149V150C153.7 150 153.6 150 153.6 150C152.5 150 151.8 150.7 151.8 152V154.9H150.7V149H151.7V150C152 149.3 152.7 149 153.8 149Z" fill="black"/>
<path d="M159.7 151.3V154.8H158.7V154C158.3 154.5 157.7 154.8 156.8 154.8C155.5 154.8 154.6 154.1 154.6 153.1C154.6 152.2 155.2 151.4 156.9 151.4H158.6V151.2C158.6 150.3 158.1 149.8 157 149.8C156.3 149.8 155.6 150 155.2 150.4L154.8 149.6C155.4 149.1 156.3 148.9 157.2 148.9C158.8 149 159.7 149.8 159.7 151.3ZM158.6 153.1V152.3H157C156 152.3 155.7 152.7 155.7 153.2C155.7 153.8 156.2 154.1 157 154.1C157.7 154.1 158.3 153.8 158.6 153.1ZM156.5 146.8L156.3 146.3C156.6 146.1 156.9 146 157.3 146C158 146 158.4 146.4 158.4 147C158.4 147.5 158.1 148 157.5 148.3L157.1 147.9C157.5 147.7 157.7 147.5 157.7 147.2C157.7 146.9 157.5 146.7 157.1 146.7C156.9 146.6 156.7 146.7 156.5 146.8Z" fill="black"/>
<path d="M164.6 146.7H165.7V154.9H164.6V146.7Z" fill="black"/>
<path d="M173.2 152C173.2 153.7 171.9 155 170.2 155C168.5 155 167.2 153.8 167.2 152C167.2 150.2 168.5 149 170.2 149C170.8 149 171 149.1 171.5 149.1C172.1 149.1 172.3 148.8 172.3 148.4C172.3 148.1 172.2 147.9 172.1 147.7L172.8 147.4C173 147.7 173.1 148 173.1 148.4C173.1 149 172.8 149.5 172.1 149.7C172.8 150.2 173.2 151 173.2 152ZM170 148.2L168.2 146.8H169.5L171 148.2H170ZM172.1 152C172.1 150.8 171.3 150 170.1 150C168.9 150 168.1 150.8 168.1 152C168.1 153.2 168.9 154.1 170.1 154.1C171.3 154 172.1 153.2 172.1 152Z" fill="black"/>
<path d="M174.4 147.2C174.4 146.8 174.7 146.5 175.1 146.5C175.5 146.5 175.8 146.8 175.8 147.2C175.8 147.6 175.5 147.9 175.1 147.9C174.8 147.9 174.4 147.6 174.4 147.2ZM174.6 149H175.7V154.8H174.6V149Z" fill="black"/>
<path d="M177.2 149.7C177.2 149.3 177.5 149 177.9 149C178.3 149 178.6 149.3 178.6 149.7C178.6 150.1 178.3 150.5 177.9 150.5C177.6 150.5 177.2 150.2 177.2 149.7ZM177.2 154.2C177.2 153.8 177.5 153.5 177.9 153.5C178.3 153.5 178.6 153.8 178.6 154.2C178.6 154.6 178.3 155 177.9 155C177.6 154.9 177.2 154.6 177.2 154.2Z" fill="black"/>
</svg>
