<svg width="356" height="294" viewBox="0 0 356 294" fill="none" xmlns="http://www.w3.org/2000/svg">
<path d="M229.34 172.497H3.16913C1.58456 172.707 0.158447 171.446 0.158447 169.87V3.72684C0.158447 2.36071 1.16201 1.25729 2.5353 1.04711H228.706C230.291 0.836939 231.717 2.09799 231.717 3.6743V169.817C231.717 171.184 230.713 172.34 229.34 172.497Z" fill="#FDBA74"/>
<path d="M231.717 13.2898L0.158447 13.9729V3.72687C0.158447 2.36073 1.16201 1.20477 2.5353 1.04714H228.706C230.291 0.836964 231.717 2.09801 231.717 3.72687V13.2898Z" fill="#334155"/>
<path d="M225.379 9.66428C226.752 9.66428 227.861 8.56086 227.861 7.19473C227.861 5.82859 226.752 4.72517 225.379 4.72517C224.005 4.72517 222.896 5.82859 222.896 7.19473C222.896 8.56086 224.005 9.66428 225.379 9.66428Z" fill="#B90F0F"/>
<path d="M218.037 9.66428C219.41 9.66428 220.519 8.56086 220.519 7.19473C220.519 5.82859 219.41 4.72517 218.037 4.72517C216.663 4.72517 215.501 5.77605 215.501 7.19473C215.501 8.61341 216.611 9.66428 218.037 9.66428Z" fill="#FB923C"/>
<path d="M210.642 9.66428C212.015 9.66428 213.125 8.56086 213.125 7.19473C213.125 5.82859 212.015 4.72517 210.642 4.72517C209.269 4.72517 208.16 5.82859 208.16 7.19473C208.16 8.56086 209.269 9.66428 210.642 9.66428Z" fill="#34D399"/>
<path fill-rule="evenodd" clip-rule="evenodd" d="M184.866 43.5024C182.648 43.5024 180.747 42.6092 180.747 41.5058C180.747 40.4024 182.648 39.5091 184.866 39.5091C187.085 39.5091 188.986 40.4024 188.986 41.5058C188.986 42.6092 187.085 43.5024 184.866 43.5024Z" fill="#1E293B"/>
<path d="M184.866 39.8769C187.032 39.8769 188.669 40.7702 188.669 41.5058C188.669 42.2414 187.032 43.1346 184.866 43.1346C182.701 43.1346 181.064 42.2414 181.064 41.5058C181.064 40.7702 182.701 39.8769 184.866 39.8769ZM184.866 39.2464C182.384 39.2464 180.43 40.2973 180.43 41.5583C180.43 42.8194 182.437 43.8702 184.866 43.8702C187.296 43.8702 189.303 42.8194 189.303 41.5583C189.303 40.2973 187.349 39.2464 184.866 39.2464Z" fill="#1E293B"/>
<path d="M184.866 41.8736C184.655 41.8736 184.55 41.7159 184.55 41.5583V30.0512C184.55 29.8936 184.708 29.736 184.866 29.736C185.025 29.736 185.183 29.8936 185.183 30.0512V41.5583C185.183 41.7159 185.078 41.8736 184.866 41.8736Z" fill="#1E293B"/>
<path fill-rule="evenodd" clip-rule="evenodd" d="M191.469 31.6276L184.866 29.8936V33.8344C184.866 33.8869 191.469 31.6276 191.469 31.6276Z" fill="#FB7200"/>
<path d="M184.55 34.3073V29.4733L192.631 31.575L184.55 34.3073ZM185.183 30.314V33.3615L190.307 31.6276L185.183 30.314Z" fill="#FB7200"/>
<path d="M54.9316 52.8027L55.8824 48.0737L57.4141 52.1722L59.1572 46.4449L60.372 51.8569L62.2207 47.6008L63.2242 52.8552C63.2242 52.8027 54.9316 52.8027 54.9316 52.8027Z" fill="#C15802"/>
<path d="M69.2986 49.4924L70.2493 44.7635L71.7811 48.8619L73.5241 43.1346L74.7389 48.5466L76.5876 44.2906L77.5912 49.545L69.2986 49.4924Z" fill="#C15802"/>
<path d="M100.039 160.938L100.99 156.209L102.522 160.307L104.265 154.58L105.479 159.992L107.328 155.736L108.332 160.99L100.039 160.938Z" fill="#C15802"/>
<path d="M111.395 163.25L112.346 158.521L113.878 162.619L115.621 156.892L116.836 162.304L118.684 158.048L119.688 163.302L111.395 163.25Z" fill="#C15802"/>
<path d="M171.186 135.401L172.137 130.672L173.722 134.771L175.465 129.044L176.679 134.456L178.528 130.2L179.532 135.454H171.186V135.401Z" fill="#C15802"/>
<path d="M185.236 132.091L186.187 127.362L187.771 131.461L189.514 125.733L190.729 131.145L192.578 126.889L193.581 132.144H185.236V132.091Z" fill="#C15802"/>
<path d="M167.225 114.069L163.633 129.096H172.084L167.225 114.069Z" fill="#FB923C"/>
<path d="M172.295 129.254H163.422L167.172 113.438L172.295 129.254ZM163.844 128.886H171.82L167.225 114.647L163.844 128.886Z" fill="#FB923C"/>
<path d="M168.281 125.733H167.066V132.354H168.281V125.733Z" fill="#FB923C"/>
<path d="M168.493 132.511H166.908V125.576H168.44V132.511H168.493ZM167.278 132.144H168.176V125.838H167.278V132.144Z" fill="#FB923C"/>
<path d="M180.746 111.336L177.155 126.364H185.606L180.746 111.336Z" fill="#FB923C"/>
<path d="M185.817 126.522H176.944L180.694 110.706L185.817 126.522ZM177.366 126.154H185.342L180.747 111.914L177.366 126.154Z" fill="#FB923C"/>
<path d="M181.803 123.001H180.641V129.622H181.856L181.803 123.001Z" fill="#FB923C"/>
<path d="M182.014 129.779H180.482V122.843H182.014V129.779ZM180.799 129.411H181.697V123.106H180.799V129.411Z" fill="#FB923C"/>
<path d="M31.216 52.6976L27.6243 67.7251H36.0753L31.216 52.6976Z" fill="#FB923C"/>
<path d="M36.3395 67.8827H27.4131L31.1632 52.0671L36.3395 67.8827ZM27.8356 67.5149H35.8113L31.2161 53.2756L27.8356 67.5149Z" fill="#FB923C"/>
<path d="M32.3252 64.3623H31.1104V70.9828H32.3252V64.3623Z" fill="#FB923C"/>
<path d="M32.4837 71.1404H30.9519V64.2047H32.4837V71.1404ZM31.2688 70.7726H32.1667V64.4674H31.2688V70.7726Z" fill="#FB923C"/>
<path d="M64.2808 29.7885L60.7419 44.816H69.193C69.1402 44.816 64.2808 29.7885 64.2808 29.7885Z" fill="#FB923C"/>
<path d="M69.4041 44.9737H60.5305L64.2807 29.158L69.4041 44.9737ZM60.9531 44.6584H68.9287L64.3335 30.4191L60.9531 44.6584Z" fill="#FB923C"/>
<path d="M65.3899 41.4532H64.175V48.0737H65.3899V41.4532Z" fill="#FB923C"/>
<path d="M65.5484 48.2314H64.0166V41.2956H65.5484V48.2314ZM64.3335 47.9161H65.2314V41.6109H64.3335V47.9161Z" fill="#FB923C"/>
<path d="M88.8414 40.9278L85.2498 55.9553H93.7008L88.8414 40.9278Z" fill="#FB923C"/>
<path d="M93.9122 56.1129H85.0386L88.7887 40.2973L93.9122 56.1129ZM85.4611 55.7451H93.4368L88.8415 41.5058L85.4611 55.7451Z" fill="#FB923C"/>
<path d="M89.8979 52.5925H88.6831V59.213H89.8979V52.5925Z" fill="#FB923C"/>
<path d="M90.1091 59.3706H88.5774V52.4349H90.1091V59.3706ZM88.8943 59.0554H89.7922V52.7501H88.8943V59.0554Z" fill="#FB923C"/>
<path d="M8.23975 9.82192H10.7222L10.7751 9.50666H8.71512L9.40176 6.14386H8.97921L8.23975 9.82192Z" fill="#CBD5E1"/>
<path d="M13.0463 6.1964L13.5217 6.61675H13.8386L13.2576 5.98622H12.8879L12.1484 6.61675H12.5181L13.0463 6.1964ZM12.8351 7.0371C11.8843 7.0371 11.2505 7.72016 11.2505 8.66595C11.2505 9.34902 11.7259 9.82191 12.5181 9.82191C13.4689 9.82191 14.1027 9.13884 14.1027 8.19306C14.1027 7.50999 13.5745 7.0371 12.8351 7.0371ZM12.5181 9.50665C11.9371 9.50665 11.6202 9.19139 11.6202 8.66595C11.6202 7.93034 12.1484 7.35236 12.8351 7.35236C13.4161 7.35236 13.733 7.66762 13.733 8.19306C13.733 8.98121 13.2048 9.50665 12.5181 9.50665ZM12.254 10.3473C12.0956 10.3473 11.99 10.4524 11.99 10.6101C11.99 10.7152 12.0428 10.8202 12.2012 10.8202C12.3597 10.8202 12.4653 10.7152 12.4653 10.5575C12.4653 10.4524 12.3597 10.3473 12.254 10.3473Z" fill="#CBD5E1"/>
<path d="M16.8493 7.35236H17.6944L17.7472 7.0371H16.9021L17.0077 6.45912H16.638L16.5323 7.0371H16.057L16.0042 7.35236H16.4795L16.1626 8.98122C16.1626 9.03376 16.1626 9.13885 16.1626 9.19139C16.1626 9.61174 16.4267 9.82192 16.8493 9.82192C17.0605 9.82192 17.2718 9.76938 17.4831 9.66429L17.3774 9.40157C17.2718 9.50666 17.1133 9.5592 16.9549 9.5592C16.6908 9.5592 16.5323 9.45411 16.5323 9.19139C16.5323 9.13885 16.5323 9.08631 16.5323 9.03376C16.5323 8.98122 16.8493 7.35236 16.8493 7.35236Z" fill="#CBD5E1"/>
<path d="M18.9092 7.56253L19.0149 7.03709H18.6451L18.1169 9.82191H18.4867L18.7508 8.40323C18.9092 7.72016 19.279 7.4049 19.86 7.4049C19.9128 7.4049 19.9128 7.4049 19.9656 7.4049L20.0184 7.03709C19.4902 7.03709 19.1205 7.19473 18.9092 7.56253Z" fill="#CBD5E1"/>
<path d="M20.969 6.61675H21.3388L20.7578 5.98622H20.2824L20.969 6.61675ZM20.1768 9.82191H20.5465L21.0747 7.0371H20.7049L20.1768 9.82191Z" fill="#CBD5E1"/>
<path d="M23.5045 7.03709C23.082 7.03709 22.7122 7.19473 22.3953 7.50999L22.5009 7.08964H22.1312L21.603 9.87445H21.9728L22.2897 8.40323C22.3953 7.77271 22.8179 7.45744 23.3989 7.45744C23.8742 7.45744 24.1383 7.66762 24.1383 8.08797C24.1383 8.14051 24.1383 8.2456 24.1383 8.35069L23.7686 9.82191H24.1383L24.4553 8.2456C24.4553 8.14051 24.5081 8.03542 24.5081 7.93034C24.4553 7.35236 24.0855 7.03709 23.5045 7.03709Z" fill="#CBD5E1"/>
<path d="M27.0433 7.0371C26.6208 7.0371 26.251 7.19473 25.987 7.45745L26.3039 5.93369H25.9341L25.1418 9.82192H25.5116L25.8285 8.3507C25.9341 7.72017 26.3567 7.40491 26.9377 7.40491C27.4131 7.40491 27.6772 7.61508 27.6772 8.03543C27.6772 8.08798 27.6772 8.19306 27.6772 8.29815L27.3602 9.87446H27.73L28.0469 8.29815C28.0469 8.19306 28.0997 8.08798 28.0997 7.98289C28.0469 7.35237 27.6772 7.0371 27.0433 7.0371Z" fill="#CBD5E1"/>
<path d="M32.0084 7.0371C31.5859 7.0371 31.2161 7.19473 30.952 7.45745L31.269 5.93369H30.8992L30.1069 9.82192H30.4767L30.7936 8.3507C30.8992 7.72017 31.3218 7.40491 31.9028 7.40491C32.3782 7.40491 32.6422 7.61508 32.6422 8.03543C32.6422 8.08798 32.6422 8.19306 32.6422 8.29815L32.3253 9.87446H32.6951L33.012 8.29815C33.012 8.19306 33.0648 8.08798 33.0648 7.98289C33.012 7.35237 32.6422 7.0371 32.0084 7.0371Z" fill="#CBD5E1"/>
<path d="M34.9134 9.82191C35.8641 9.82191 36.498 9.13884 36.498 8.19306C36.498 7.45744 36.0226 7.03709 35.2303 7.03709C34.2796 7.03709 33.6458 7.72016 33.6458 8.66595C33.6458 9.40156 34.1739 9.82191 34.9134 9.82191ZM34.9662 9.50665C34.3852 9.50665 34.0683 9.19139 34.0683 8.66595C34.0683 7.93034 34.5965 7.35236 35.2831 7.35236C35.8642 7.35236 36.1811 7.66762 36.1811 8.19306C36.1811 8.98121 35.6529 9.50665 34.9662 9.50665ZM34.6493 10.8202C34.8078 10.8202 34.9134 10.7152 34.9134 10.5575C34.9134 10.4524 34.8078 10.3473 34.7021 10.3473C34.5437 10.3473 34.438 10.4524 34.438 10.6101C34.438 10.7152 34.4909 10.8202 34.6493 10.8202Z" fill="#CBD5E1"/>
<path d="M38.241 9.82192C38.7163 9.82192 39.1389 9.61174 39.403 9.29648L39.1389 9.08631C38.9276 9.34903 38.6107 9.50666 38.241 9.50666C37.66 9.50666 37.2902 9.19139 37.2902 8.66596C37.2902 7.93034 37.8184 7.35236 38.5051 7.35236C38.8748 7.35236 39.1389 7.51 39.2973 7.77271L39.6143 7.56254C39.403 7.19473 39.0333 6.98456 38.5051 6.98456C37.5543 6.98456 36.8677 7.66763 36.8677 8.61341C36.9733 9.40157 37.4487 9.82192 38.241 9.82192Z" fill="#CBD5E1"/>
<path d="M42.308 7.35236H43.1531L43.2059 7.0371H42.3608L42.4665 6.45912H42.0967L41.9911 7.0371H41.5157L41.4629 7.35236H41.9383L41.6213 8.98122C41.6213 9.03376 41.6213 9.13885 41.6213 9.19139C41.6213 9.61174 41.8854 9.82192 42.308 9.82192C42.5193 9.82192 42.7305 9.76938 42.9418 9.66429L42.7834 9.40157C42.6777 9.50666 42.5193 9.5592 42.3608 9.5592C42.0967 9.5592 41.9383 9.45411 41.9383 9.19139C41.9383 9.13885 41.9383 9.08631 41.9383 9.03376C41.9383 8.98122 42.308 7.35236 42.308 7.35236Z" fill="#CBD5E1"/>
<path d="M45.3186 6.1964L45.7939 6.61675H46.1108L45.477 5.98622H45.1073L44.3678 6.61675H44.7376L45.3186 6.1964ZM46.1108 7.0371L46.0052 7.61508C45.8468 7.24727 45.477 7.0371 44.9488 7.0371C44.0509 7.0371 43.3643 7.72016 43.3643 8.66595C43.3643 9.40156 43.8396 9.82191 44.5791 9.82191C45.0016 9.82191 45.4242 9.66428 45.6883 9.34902L45.5827 9.82191H45.9524L46.5334 7.0371C46.4806 7.0371 46.1108 7.0371 46.1108 7.0371ZM44.6847 9.50665C44.1037 9.50665 43.7868 9.19139 43.7868 8.66595C43.7868 7.93034 44.315 7.35236 45.0016 7.35236C45.5827 7.35236 45.8996 7.66762 45.8996 8.19306C45.8996 8.98121 45.3714 9.50665 44.6847 9.50665ZM44.5263 10.3473C44.3678 10.3473 44.2622 10.4524 44.2622 10.6101C44.2622 10.7152 44.3678 10.8202 44.4735 10.8202C44.6319 10.8202 44.7376 10.7152 44.7376 10.5575C44.6847 10.4524 44.6319 10.3473 44.5263 10.3473Z" fill="#CBD5E1"/>
<path d="M48.9104 7.03709C48.4878 7.03709 48.0653 7.19473 47.8012 7.50999L47.9068 7.08964H47.5371L46.7976 10.8728H47.1673L47.4843 9.29647C47.6427 9.66428 48.0124 9.927 48.5406 9.927C49.4386 9.927 50.1252 9.24393 50.1252 8.29814C50.1252 7.45744 49.597 7.03709 48.9104 7.03709ZM48.5406 9.50665C47.9596 9.50665 47.6427 9.19139 47.6427 8.66595C47.6427 7.93034 48.1709 7.35236 48.8575 7.35236C49.4386 7.35236 49.7555 7.66762 49.7555 8.19306C49.7027 8.98121 49.2273 9.50665 48.5406 9.50665Z" fill="#CBD5E1"/>
<path d="M55.7241 6.35403H55.1959L55.3016 5.93369H54.9318L54.8262 6.35403H53.6642L53.6113 6.61675H54.7734L54.5621 7.61508C54.4036 7.24728 54.0339 7.0371 53.5057 7.0371C52.6078 7.0371 51.9211 7.72017 51.9211 8.66596C51.9211 9.40157 52.3965 9.82192 53.136 9.82192C53.5585 9.82192 53.9811 9.66429 54.2452 9.34903L54.1395 9.76938H54.5093L55.1431 6.56421H55.6713C55.6713 6.61675 55.7241 6.35403 55.7241 6.35403ZM53.2416 9.50666C52.6606 9.50666 52.3437 9.1914 52.3437 8.66596C52.3437 7.93035 52.8719 7.35237 53.5585 7.35237C54.1395 7.35237 54.4565 7.66763 54.4565 8.19306C54.4036 8.98122 53.9283 9.50666 53.2416 9.50666Z" fill="#CBD5E1"/>
<path d="M57.9424 5.7235C58.048 5.7235 58.1008 5.77605 58.1008 5.88113C58.1008 5.98622 57.9952 6.09131 57.8367 6.14385L57.9424 6.24894C58.1536 6.14385 58.3121 5.98622 58.3121 5.77605C58.3121 5.56587 58.1536 5.46078 57.9424 5.46078C57.8367 5.46078 57.7311 5.51333 57.5726 5.56587L57.6255 5.7235C57.7311 5.7235 57.8367 5.7235 57.9424 5.7235ZM57.2557 6.30148L57.7311 6.61675H58.1008L57.467 6.14385H57.0973L56.3578 6.61675H56.7275L57.2557 6.30148ZM57.0444 7.0371C56.1465 7.0371 55.5127 7.72016 55.5127 8.66595C55.5127 9.40156 55.9881 9.82191 56.7804 9.82191C57.2029 9.82191 57.6255 9.66428 57.8895 9.40156L57.7311 9.13884C57.5198 9.34902 57.2029 9.50665 56.8332 9.50665C56.1993 9.50665 55.8824 9.19139 55.8824 8.66595C55.8824 8.61341 55.8824 8.61341 55.8824 8.56086H58.2065C58.2065 8.45578 58.2593 8.35069 58.2593 8.2456C58.2593 7.45745 57.7839 7.0371 57.0444 7.0371ZM57.0444 7.35236C57.5726 7.35236 57.9424 7.66762 57.9424 8.19306C57.9424 8.2456 57.9424 8.2456 57.9424 8.29815H55.9352C56.0409 7.72016 56.4634 7.35236 57.0444 7.35236Z" fill="#CBD5E1"/>
<path d="M61.3757 9.82192C61.8511 9.82192 62.2737 9.61174 62.5378 9.29648L62.2737 9.08631C62.0624 9.34903 61.7455 9.50666 61.3757 9.50666C60.7947 9.50666 60.425 9.19139 60.425 8.66596C60.425 7.93034 60.9532 7.35236 61.6398 7.35236C62.0096 7.35236 62.2737 7.51 62.4321 7.77271L62.749 7.56254C62.5378 7.19473 62.168 6.98456 61.6398 6.98456C60.6891 6.98456 60.0024 7.66763 60.0024 8.61341C60.0553 9.40157 60.5834 9.82192 61.3757 9.82192Z" fill="#CBD5E1"/>
<path d="M64.9674 7.0371C64.5448 7.0371 64.1751 7.19473 63.911 7.45745L64.2279 5.93369H63.8582L63.0659 9.82192H63.4356L63.7526 8.3507C63.8582 7.72017 64.2808 7.40491 64.8618 7.40491C65.3371 7.40491 65.6012 7.61508 65.6012 8.03543C65.6012 8.08798 65.6012 8.19306 65.5484 8.29815L65.2315 9.87446H65.6012L65.9181 8.29815C65.9181 8.19306 65.971 8.08798 65.971 7.98289C65.9181 7.35237 65.5484 7.0371 64.9674 7.0371Z" fill="#CBD5E1"/>
<path d="M69.2984 7.03709L68.9815 8.50832C68.8759 9.13884 68.4533 9.4541 67.8723 9.4541C67.3969 9.4541 67.1856 9.24393 67.1856 8.82358C67.1856 8.77104 67.1857 8.66595 67.2385 8.56086L67.5554 6.98455H67.1856L66.8687 8.56086C66.8687 8.66595 66.8159 8.77104 66.8159 8.87612C66.8159 9.4541 67.1856 9.76937 67.8195 9.76937C68.242 9.76937 68.6118 9.61174 68.8759 9.29647L68.7702 9.71682H69.14L69.721 6.93201H69.2984V7.03709Z" fill="#CBD5E1"/>
<path d="M72.7317 5.7235C72.8373 5.7235 72.8901 5.77605 72.8901 5.88113C72.8901 5.98622 72.8373 6.09131 72.626 6.14385L72.7317 6.24894C72.943 6.14385 73.1014 5.98622 73.1014 5.77605C73.1014 5.56587 72.943 5.46078 72.7317 5.46078C72.626 5.46078 72.5204 5.51333 72.4148 5.56587L72.4676 5.7235C72.5732 5.7235 72.626 5.7235 72.7317 5.7235ZM72.045 6.30148L72.5204 6.61675H72.8901L72.2563 6.14385H71.8866L71.1471 6.61675H71.5168L72.045 6.30148ZM72.8901 7.0371L72.7845 7.61508C72.626 7.24727 72.2563 7.0371 71.7281 7.0371C70.8302 7.0371 70.1436 7.72016 70.1436 8.66595C70.1436 9.40156 70.6189 9.82191 71.3584 9.82191C71.8338 9.82191 72.2035 9.66428 72.4676 9.34902L72.362 9.82191H72.7317L73.3127 7.0371H72.8901ZM71.4112 9.50665C70.8302 9.50665 70.5133 9.19139 70.5133 8.66595C70.5133 7.93034 71.0415 7.35236 71.7281 7.35236C72.3091 7.35236 72.626 7.66762 72.626 8.19306C72.626 8.98121 72.0979 9.50665 71.4112 9.50665Z" fill="#CBD5E1"/>
<path d="M75.6368 7.03709C75.2143 7.03709 74.7917 7.19473 74.5276 7.50999L74.6333 7.08964H74.2635L73.7354 9.87445H74.1051L74.422 8.40323C74.5276 7.77271 74.9502 7.45744 75.5312 7.45744C76.0066 7.45744 76.2707 7.66762 76.2707 8.08797C76.2707 8.14051 76.2707 8.2456 76.2178 8.35069L75.9009 9.927H76.2707L76.5876 8.35069C76.5876 8.2456 76.6404 8.14051 76.6404 8.03542C76.6404 7.35236 76.2707 7.03709 75.6368 7.03709Z" fill="#CBD5E1"/>
<path d="M80.6017 7.0371C80.1791 7.0371 79.8094 7.19473 79.5453 7.45745L79.8622 5.93369H79.4925L78.7002 9.82192H79.0699L79.1756 9.24394C79.334 9.66429 79.7038 9.87446 80.2319 9.87446C81.1299 9.87446 81.8165 9.1914 81.8165 8.24561C81.8165 7.45745 81.2883 7.0371 80.6017 7.0371ZM80.2319 9.50666C79.6509 9.50666 79.334 9.1914 79.334 8.66596C79.334 7.93035 79.8622 7.35237 80.5489 7.35237C81.1299 7.35237 81.4468 7.66763 81.4468 8.19306C81.4468 8.98122 80.9186 9.50666 80.2319 9.50666Z" fill="#CBD5E1"/>
<path d="M83.19 6.45912C83.3485 6.45912 83.5069 6.35403 83.5069 6.14386C83.5069 6.03877 83.4013 5.93369 83.2428 5.93369C83.0844 5.93369 82.9259 6.03877 82.9259 6.1964C82.9259 6.35404 83.0316 6.45912 83.19 6.45912ZM82.2921 9.82192H82.6618L83.19 7.0371H82.8203L82.2921 9.82192ZM82.2921 10.8203C82.4505 10.8203 82.5562 10.7152 82.5562 10.5575C82.5562 10.4524 82.4505 10.3474 82.3449 10.3474C82.1864 10.3474 82.0808 10.4524 82.0808 10.6101C82.0808 10.7152 82.1865 10.8203 82.2921 10.8203Z" fill="#CBD5E1"/>
<path d="M86.3591 9.82192C86.8345 9.82192 87.2571 9.61174 87.5212 9.29648L87.2571 9.08631C87.0458 9.34903 86.7289 9.50666 86.3591 9.50666C85.7781 9.50666 85.4084 9.19139 85.4084 8.66596C85.4084 7.93034 85.9366 7.35236 86.6232 7.35236C86.993 7.35236 87.2571 7.51 87.4155 7.77271L87.7324 7.56254C87.5212 7.19473 87.1514 6.98456 86.6232 6.98456C85.6725 6.98456 84.9858 7.66763 84.9858 8.61341C85.0387 9.40157 85.5669 9.82192 86.3591 9.82192Z" fill="#CBD5E1"/>
<path d="M89.8978 7.0371C89.4753 7.0371 89.1055 7.19473 88.8414 7.45745L89.1584 5.93369H88.7886L87.9963 9.82192H88.3661L88.683 8.3507C88.7886 7.72017 89.2112 7.40491 89.7922 7.40491C90.2676 7.40491 90.5316 7.61508 90.5316 8.03543C90.5316 8.08798 90.5316 8.19306 90.4788 8.29815L90.1619 9.87446H90.5316L90.8486 8.29815C90.8486 8.19306 90.9014 8.08798 90.9014 7.98289C90.9014 7.35237 90.5316 7.0371 89.8978 7.0371Z" fill="#CBD5E1"/>
<path d="M92.8558 9.82191C93.8065 9.82191 94.4404 9.13884 94.4404 8.19306C94.4404 7.45744 93.965 7.03709 93.1727 7.03709C92.222 7.03709 91.5881 7.72016 91.5881 8.66595C91.5881 9.40156 92.0635 9.82191 92.8558 9.82191ZM92.8558 9.50665C92.2748 9.50665 91.9579 9.19139 91.9579 8.66595C91.9579 7.93034 92.4861 7.35236 93.1727 7.35236C93.7537 7.35236 94.0706 7.66762 94.0706 8.19306C94.0706 8.98121 93.5424 9.50665 92.8558 9.50665Z" fill="#CBD5E1"/>
<path d="M96.1833 10.8202H97.1341L97.1869 10.505H96.6059L97.451 6.1964H98.032L98.0848 5.88113H97.1341L96.1833 10.8202Z" fill="#CBD5E1"/>
<path d="M99.8278 7.82526L101.835 6.14386H101.307L98.7186 8.3507L99.1412 6.14386H98.7714L98.032 9.82192H98.4017L98.613 8.87613L99.5109 8.08798L100.726 9.82192H101.148L99.8278 7.82526Z" fill="#CBD5E1"/>
<path d="M102.574 6.45912C102.733 6.45912 102.891 6.35403 102.891 6.14386C102.891 6.03877 102.786 5.93369 102.627 5.93369C102.469 5.93369 102.31 6.03877 102.31 6.1964C102.31 6.35403 102.416 6.45912 102.574 6.45912ZM101.677 9.82192H102.046L102.574 7.0371H102.205L101.677 9.82192Z" fill="#CBD5E1"/>
<path d="M105.479 5.7235C105.585 5.7235 105.638 5.77605 105.638 5.88113C105.638 5.98622 105.585 6.09131 105.374 6.14385L105.479 6.24894C105.691 6.14385 105.849 5.98622 105.849 5.77605C105.849 5.56587 105.691 5.46078 105.479 5.46078C105.374 5.46078 105.268 5.51333 105.162 5.56587L105.215 5.7235C105.321 5.7235 105.427 5.7235 105.479 5.7235ZM104.846 6.30148L105.321 6.61675H105.691L105.057 6.14385H104.687L103.948 6.61675H104.317L104.846 6.30148ZM104.634 7.0371C103.736 7.0371 103.103 7.72016 103.103 8.66595C103.103 9.40156 103.578 9.82191 104.37 9.82191C104.793 9.82191 105.215 9.66428 105.479 9.40156L105.321 9.13884C105.11 9.34902 104.793 9.50665 104.423 9.50665C103.789 9.50665 103.472 9.19139 103.472 8.66595C103.472 8.61341 103.472 8.61341 103.472 8.56086H105.796C105.796 8.45578 105.849 8.35069 105.849 8.2456C105.849 7.45745 105.374 7.0371 104.634 7.0371ZM104.634 7.35236C105.162 7.35236 105.479 7.66762 105.479 8.19306C105.479 8.2456 105.479 8.2456 105.479 8.29815H103.472C103.631 7.72016 104.053 7.35236 104.634 7.35236Z" fill="#CBD5E1"/>
<path d="M110.233 7.03709C109.758 7.03709 109.335 7.24727 109.071 7.61508C108.966 7.24727 108.649 7.03709 108.173 7.03709C107.751 7.03709 107.381 7.19473 107.117 7.50999L107.223 7.08964H106.853L106.325 9.87445H106.694L107.011 8.40323C107.117 7.77271 107.54 7.45744 108.121 7.45744C108.596 7.45744 108.807 7.66762 108.807 8.08797C108.807 8.14051 108.807 8.2456 108.754 8.35069L108.437 9.927H108.807L109.124 8.40323C109.23 7.77271 109.652 7.45744 110.18 7.45744C110.656 7.45744 110.867 7.66762 110.867 8.08797C110.867 8.14051 110.867 8.2456 110.814 8.35069L110.497 9.927H110.867L111.184 8.35069C111.184 8.2456 111.237 8.14051 111.237 8.03542C111.237 7.35236 110.867 7.03709 110.233 7.03709Z" fill="#CBD5E1"/>
<path d="M114.195 7.35236H115.04L115.093 7.0371H114.248L114.353 6.45912H113.983L113.878 7.0371H113.402L113.35 7.35236H113.825L113.508 8.98122C113.508 9.03376 113.508 9.13885 113.508 9.19139C113.508 9.61174 113.772 9.82192 114.195 9.82192C114.406 9.82192 114.617 9.76938 114.829 9.66429L114.723 9.40157C114.617 9.50666 114.459 9.5592 114.3 9.5592C114.036 9.5592 113.878 9.45411 113.878 9.19139C113.878 9.13885 113.878 9.08631 113.878 9.03376L114.195 7.35236Z" fill="#CBD5E1"/>
<path d="M116.255 7.56253L116.36 7.03709H115.991L115.462 9.82191H115.832L116.096 8.40323C116.255 7.72016 116.624 7.4049 117.205 7.4049C117.258 7.4049 117.258 7.4049 117.311 7.4049L117.364 7.03709C116.836 7.03709 116.466 7.19473 116.255 7.56253Z" fill="#CBD5E1"/>
<path d="M120.216 7.0371L120.11 7.61508C119.952 7.24728 119.582 7.0371 119.054 7.0371C118.156 7.0371 117.469 7.72017 117.469 8.66596C117.469 9.40157 117.945 9.82192 118.684 9.82192C119.16 9.82192 119.529 9.66429 119.794 9.34903L119.688 9.76937H120.058L120.639 6.98456H120.216V7.0371ZM118.737 9.50666C118.156 9.50666 117.839 9.19139 117.839 8.66596C117.839 7.93034 118.367 7.35236 119.054 7.35236C119.635 7.35236 119.952 7.66763 119.952 8.19306C119.952 8.98122 119.424 9.50666 118.737 9.50666Z" fill="#CBD5E1"/>
<path d="M122.699 6.14386L122.646 6.45912H123.491L122.804 9.82192H123.174L123.913 6.14386H122.699Z" fill="#CBD5E1"/>
<path d="M126.66 7.35236H127.505L127.558 7.0371H126.713L126.819 6.45912H126.449L126.343 7.0371H125.868L125.815 7.35236H126.29L125.973 8.98122C125.973 9.03376 125.973 9.13885 125.973 9.19139C125.973 9.61174 126.237 9.82192 126.66 9.82192C126.871 9.82192 127.083 9.76938 127.294 9.66429L127.188 9.40157C127.083 9.50666 126.924 9.5592 126.766 9.5592C126.502 9.5592 126.343 9.45411 126.343 9.19139C126.343 9.13885 126.343 9.08631 126.343 9.03376L126.66 7.35236Z" fill="#CBD5E1"/>
<path d="M128.773 6.45912C128.931 6.45912 129.09 6.35403 129.09 6.14386C129.09 6.03877 128.984 5.93369 128.825 5.93369C128.667 5.93369 128.509 6.03877 128.509 6.1964C128.509 6.35403 128.614 6.45912 128.773 6.45912ZM127.875 9.82192H128.244L128.773 7.0371H128.403L127.875 9.82192Z" fill="#CBD5E1"/>
<path d="M132.628 5.61842H132.153L131.466 6.1964H131.836L132.628 5.61842ZM131.044 6.35404L131.519 6.6693H131.889L131.255 6.1964H130.885L130.146 6.6693H130.516L131.044 6.35404ZM130.833 7.0371C129.935 7.0371 129.301 7.72017 129.301 8.66596C129.301 9.40157 129.776 9.82192 130.568 9.82192C130.991 9.82192 131.414 9.66429 131.678 9.40157L131.519 9.13885C131.308 9.34903 130.991 9.50666 130.621 9.50666C129.987 9.50666 129.671 9.1914 129.671 8.66596C129.671 8.61341 129.671 8.61342 129.671 8.56087H131.995C131.995 8.45578 132.047 8.3507 132.047 8.24561C131.995 7.45745 131.519 7.0371 130.833 7.0371ZM130.78 7.35237C131.308 7.35237 131.625 7.66763 131.625 8.19306C131.625 8.24561 131.625 8.24561 131.625 8.29815H129.618C129.829 7.72017 130.252 7.35237 130.78 7.35237Z" fill="#CBD5E1"/>
<path d="M133.421 7.35236H134.266L134.319 7.0371H133.474L133.579 6.45912H133.21L133.104 7.0371H132.576L132.523 7.35236H132.998L132.681 8.98122C132.681 9.03376 132.681 9.13885 132.681 9.19139C132.681 9.61174 132.946 9.82192 133.368 9.82192C133.579 9.82192 133.791 9.76938 134.002 9.66429L133.896 9.40157C133.791 9.50666 133.632 9.5592 133.474 9.5592C133.21 9.5592 133.051 9.45411 133.051 9.19139C133.051 9.13885 133.051 9.08631 133.051 9.03376L133.421 7.35236Z" fill="#CBD5E1"/>
<path d="M136.801 9.82192H137.171L137.857 6.45912H139.178L139.231 6.14386H136.22L136.167 6.45912H137.488L136.801 9.82192Z" fill="#CBD5E1"/>
<path d="M139.865 6.45912C140.023 6.45912 140.182 6.35403 140.182 6.14386C140.182 6.03877 140.076 5.93369 139.918 5.93369C139.759 5.93369 139.653 6.03877 139.653 6.1964C139.601 6.35403 139.706 6.45912 139.865 6.45912ZM138.967 9.82192H139.337L139.865 7.0371H139.495L138.967 9.82192Z" fill="#CBD5E1"/>
<path d="M143.72 5.61842H143.245L142.558 6.1964H142.928L143.72 5.61842ZM142.136 6.35404L142.611 6.6693H142.981L142.347 6.1964H141.977L141.238 6.6693H141.608L142.136 6.35404ZM141.872 7.0371C140.974 7.0371 140.34 7.72017 140.34 8.66596C140.34 9.40157 140.815 9.82192 141.661 9.82192C142.083 9.82192 142.506 9.66429 142.77 9.40157L142.611 9.13885C142.4 9.34903 142.083 9.50666 141.713 9.50666C141.08 9.50666 140.763 9.1914 140.763 8.66596C140.763 8.61341 140.763 8.61342 140.763 8.56087H143.087C143.087 8.45578 143.139 8.3507 143.139 8.24561C143.087 7.45745 142.611 7.0371 141.872 7.0371ZM141.872 7.35237C142.4 7.35237 142.717 7.66763 142.717 8.19306C142.717 8.24561 142.717 8.24561 142.717 8.29815H140.71C140.921 7.72017 141.344 7.35237 141.872 7.35237Z" fill="#CBD5E1"/>
<path d="M145.463 7.03709C145.041 7.03709 144.671 7.19473 144.354 7.50999L144.46 7.08964H144.09L143.562 9.87445H143.932L144.249 8.40323C144.354 7.77271 144.777 7.45744 145.358 7.45744C145.833 7.45744 146.097 7.66762 146.097 8.08797C146.097 8.14051 146.097 8.2456 146.097 8.35069L145.78 9.927H146.15L146.467 8.35069C146.467 8.2456 146.52 8.14051 146.52 8.03542C146.467 7.35236 146.097 7.03709 145.463 7.03709Z" fill="#CBD5E1"/>
<path d="M149.953 7.03709L149.847 7.66762C149.689 7.24727 149.266 7.03709 148.791 7.03709C147.84 7.03709 147.206 7.72016 147.206 8.61341C147.206 9.29647 147.682 9.71682 148.421 9.71682C148.897 9.71682 149.266 9.55919 149.53 9.24393L149.478 9.55919C149.372 10.2423 148.949 10.5575 148.263 10.5575C147.84 10.5575 147.471 10.3999 147.206 10.1897L146.995 10.4524C147.259 10.7152 147.735 10.8728 148.21 10.8728C149.108 10.8728 149.636 10.4524 149.847 9.50665L150.323 7.08964L149.953 7.03709ZM148.421 9.40156C147.84 9.40156 147.523 9.0863 147.523 8.61341C147.523 7.93034 148.052 7.4049 148.738 7.4049C149.319 7.4049 149.636 7.72016 149.636 8.19306C149.636 8.87612 149.161 9.40156 148.421 9.40156Z" fill="#CBD5E1"/>
<path d="M155.024 9.82192H155.393L154.443 6.14386H154.073L151.643 9.82192H152.066L152.7 8.82359H154.76L155.024 9.82192ZM152.911 8.50833L154.179 6.51167L154.707 8.50833H152.911Z" fill="#CBD5E1"/>
<path d="M157.876 7.03709C157.453 7.03709 157.084 7.19473 156.767 7.50999L156.872 7.08964H156.503L155.974 9.87445H156.344L156.661 8.40323C156.767 7.77271 157.189 7.45744 157.77 7.45744C158.246 7.45744 158.51 7.66762 158.51 8.08797C158.51 8.14051 158.51 8.2456 158.51 8.35069L158.193 9.927H158.563L158.879 8.35069C158.879 8.2456 158.932 8.14051 158.932 8.03542C158.827 7.35236 158.457 7.03709 157.876 7.03709Z" fill="#CBD5E1"/>
<path d="M161.415 7.0371C160.992 7.0371 160.623 7.19473 160.359 7.45745L160.675 5.93369H160.306L159.513 9.82192H159.883L160.2 8.3507C160.306 7.72017 160.728 7.40491 161.309 7.40491C161.785 7.40491 162.049 7.61508 162.049 8.03543C162.049 8.08798 162.049 8.19306 162.049 8.29815L161.732 9.87446H162.102L162.418 8.29815C162.418 8.19306 162.471 8.08798 162.471 7.98289C162.418 7.35237 162.049 7.0371 161.415 7.0371Z" fill="#CBD5E1"/>
<path d="M163.475 10.8202L164.478 5.88113H163.528L163.475 6.1964H164.056L163.211 10.505H162.63L162.577 10.8202H163.475Z" fill="#CBD5E1"/>
<path d="M176.416 20.3307L177.155 16.6526H177.736L178.792 19.3323H178.528L180.641 16.6526H181.222L180.483 20.3307H179.849L180.377 17.6509H180.535L178.74 19.9103H178.423L177.472 17.6509H177.578L177.049 20.3307H176.416Z" fill="#1E293B"/>
<path d="M182.595 20.3832C182.331 20.3832 182.173 20.3307 182.014 20.2256C181.856 20.1205 181.75 19.9629 181.645 19.8052C181.592 19.595 181.592 19.3849 181.645 19.1222L181.962 17.5458H182.595L182.278 19.0696C182.226 19.2798 182.278 19.49 182.331 19.595C182.437 19.7001 182.595 19.8052 182.807 19.8052C183.018 19.8052 183.229 19.7527 183.388 19.595C183.546 19.49 183.652 19.2798 183.705 18.9645L184.021 17.4933H184.655L184.074 20.2781H183.44L183.599 19.49L183.705 19.7527C183.599 19.9629 183.388 20.1205 183.176 20.173C183.071 20.3307 182.859 20.3832 182.595 20.3832ZM182.543 21.3815C182.437 21.3815 182.384 21.3815 182.331 21.2764C182.278 21.2239 182.278 21.1714 182.278 21.0663C182.278 20.9612 182.331 20.9086 182.384 20.8036C182.437 20.6985 182.543 20.6985 182.648 20.6985C182.701 20.6985 182.807 20.6985 182.859 20.751C182.912 20.8036 182.965 20.8561 182.965 20.9612C182.965 21.0663 182.912 21.1714 182.859 21.2239C182.754 21.3815 182.648 21.3815 182.543 21.3815Z" fill="#1E293B"/>
<path d="M186.398 20.3832C186.134 20.3832 185.87 20.3307 185.659 20.2256C185.447 20.1205 185.289 19.9628 185.183 19.8052C185.078 19.6476 185.025 19.3849 185.025 19.1747C185.025 18.8594 185.078 18.5967 185.236 18.334C185.395 18.0713 185.553 17.9136 185.817 17.756C186.081 17.5984 186.345 17.5458 186.715 17.5458C186.979 17.5458 187.243 17.5984 187.455 17.7035C187.666 17.8086 187.824 17.9662 187.93 18.1764L187.349 18.4391C187.296 18.334 187.19 18.2289 187.085 18.1238C186.979 18.0713 186.821 18.0187 186.662 18.0187C186.451 18.0187 186.293 18.0713 186.187 18.1764C186.081 18.2814 185.923 18.3865 185.817 18.5442C185.712 18.7018 185.712 18.912 185.712 19.0696C185.712 19.2798 185.764 19.4374 185.923 19.595C186.028 19.7001 186.24 19.8052 186.451 19.8052C186.609 19.8052 186.768 19.7527 186.874 19.7001C186.979 19.6476 187.138 19.5425 187.19 19.3849L187.666 19.7001C187.56 19.9103 187.349 20.0679 187.138 20.173C186.926 20.3307 186.662 20.3832 186.398 20.3832Z" fill="#1E293B"/>
<path d="M190.571 20.3832C190.36 20.3832 190.254 20.3307 190.095 20.2781C189.937 20.2256 189.884 20.0679 189.831 19.9629C189.779 19.8052 189.779 19.6476 189.831 19.4374L190.36 16.9679H190.993L190.465 19.4374C190.465 19.5425 190.465 19.7001 190.518 19.7527C190.571 19.8578 190.677 19.8578 190.782 19.8578C190.835 19.8578 190.888 19.8578 190.993 19.8578C191.046 19.8578 191.099 19.8052 191.152 19.7527L191.258 20.2256C191.152 20.2781 191.046 20.3307 190.941 20.3307C190.782 20.3307 190.676 20.3832 190.571 20.3832ZM189.62 18.0713L189.726 17.5458H191.574L191.469 18.0713H189.62Z" fill="#1E293B"/>
<path d="M191.733 20.3307L192.314 17.5458H192.948L192.367 20.3307H191.733ZM192.789 17.0729C192.684 17.0729 192.578 17.0204 192.525 16.9679C192.472 16.9153 192.42 16.8102 192.42 16.7051C192.42 16.6001 192.472 16.495 192.525 16.3899C192.631 16.3373 192.736 16.2848 192.842 16.2848C192.948 16.2848 193.053 16.3373 193.106 16.3899C193.159 16.4424 193.212 16.5475 193.212 16.6526C193.212 16.7577 193.159 16.9153 193.106 16.9679C193.053 17.0204 192.948 17.0729 192.789 17.0729Z" fill="#1E293B"/>
<path d="M194.691 20.3832C194.427 20.3832 194.162 20.3307 193.951 20.2256C193.74 20.1205 193.581 19.9629 193.476 19.8052C193.37 19.6476 193.317 19.3849 193.317 19.1747C193.317 18.8594 193.37 18.5967 193.529 18.334C193.687 18.0713 193.846 17.9136 194.11 17.756C194.374 17.5984 194.638 17.5458 194.955 17.5458C195.219 17.5458 195.43 17.5984 195.641 17.7035C195.853 17.8086 195.958 17.9662 196.117 18.1238C196.222 18.2815 196.275 18.5442 196.275 18.7543C196.275 18.8069 196.275 18.912 196.275 18.9645C196.275 19.0171 196.275 19.1222 196.222 19.1747H193.846L193.898 18.7543H195.906L195.641 18.912C195.641 18.7543 195.641 18.5967 195.589 18.4916C195.536 18.3865 195.43 18.2815 195.324 18.2289C195.219 18.1764 195.06 18.1238 194.902 18.1238C194.691 18.1238 194.532 18.1764 194.374 18.2815C194.215 18.3865 194.11 18.4916 194.057 18.6493C194.004 18.8069 193.951 19.0171 193.951 19.2272C193.951 19.4374 194.004 19.6476 194.162 19.7527C194.321 19.8578 194.479 19.9103 194.796 19.9103C194.955 19.9103 195.113 19.9103 195.272 19.8578C195.43 19.8052 195.536 19.7527 195.641 19.6476L195.906 20.1205C195.747 20.2256 195.589 20.3307 195.377 20.4357C195.113 20.3307 194.902 20.3832 194.691 20.3832ZM194.11 17.1255L194.902 16.3899H195.483L196.117 17.1255H195.589L194.955 16.5475H195.483L194.691 17.1255H194.11Z" fill="#1E293B"/>
<path d="M197.754 20.3832C197.49 20.3832 197.332 20.3307 197.173 20.2256C197.015 20.1205 196.909 19.9629 196.804 19.8052C196.751 19.595 196.751 19.3849 196.804 19.1222L197.12 17.5458H197.754L197.437 19.0696C197.385 19.2798 197.437 19.49 197.49 19.595C197.596 19.7001 197.754 19.8052 197.966 19.8052C198.177 19.8052 198.388 19.7527 198.547 19.595C198.705 19.49 198.811 19.2798 198.863 18.9645L199.18 17.4933H199.814L199.233 20.2781H198.599L198.758 19.49L198.863 19.7527C198.758 19.9629 198.547 20.1205 198.335 20.173C198.23 20.3307 198.018 20.3832 197.754 20.3832Z" fill="#1E293B"/>
<path d="M178.37 26.6884C178.106 26.6884 177.841 26.6359 177.63 26.5308C177.419 26.4257 177.26 26.2681 177.155 26.1105C177.049 25.9528 176.996 25.6901 176.996 25.4799C176.996 25.1647 177.049 24.902 177.208 24.6392C177.366 24.3765 177.525 24.2189 177.789 24.0613C178.053 23.9036 178.317 23.8511 178.687 23.8511C178.951 23.8511 179.215 23.9036 179.426 24.0087C179.637 24.1138 179.796 24.2714 179.901 24.4816L179.32 24.7443C179.268 24.6392 179.162 24.5342 179.056 24.4291C178.951 24.3765 178.792 24.324 178.634 24.324C178.422 24.324 178.264 24.3765 178.158 24.4816C178.053 24.5867 177.894 24.6918 177.789 24.8494C177.683 25.007 177.683 25.2172 177.683 25.3749C177.683 25.585 177.736 25.7427 177.894 25.9003C178 26.0054 178.211 26.1105 178.422 26.1105C178.581 26.1105 178.739 26.0579 178.845 26.0054C178.951 25.9528 179.109 25.8478 179.162 25.6901L179.637 26.0054C179.532 26.2156 179.32 26.3732 179.109 26.4783C178.898 26.6359 178.634 26.6884 178.37 26.6884Z" fill="#1E293B"/>
<path d="M181.222 26.6885C180.958 26.6885 180.799 26.6359 180.641 26.5308C180.482 26.4257 180.377 26.2681 180.271 26.1105C180.218 25.9003 180.218 25.6901 180.271 25.4274L180.588 23.8511H181.222L180.905 25.3749C180.852 25.585 180.905 25.7952 180.958 25.9003C181.063 26.0054 181.222 26.1105 181.433 26.1105C181.644 26.1105 181.856 26.0579 182.014 25.9003C182.173 25.7952 182.278 25.585 182.331 25.2698L182.648 23.7985H183.282L182.754 26.6359H182.12L182.278 25.8478L182.384 26.1105C182.278 26.3206 182.067 26.4783 181.856 26.5308C181.697 26.6359 181.433 26.6885 181.222 26.6885ZM182.173 23.4833L182.014 23.2206C182.12 23.168 182.225 23.1155 182.278 23.0629C182.331 23.0104 182.331 22.9578 182.331 22.8528C182.331 22.8002 182.331 22.7477 182.278 22.6951C182.225 22.6426 182.173 22.6426 182.12 22.6426C182.014 22.6426 181.908 22.6951 181.803 22.7477L181.697 22.4324C181.75 22.3799 181.856 22.3273 181.961 22.3273C182.067 22.3273 182.173 22.2748 182.225 22.2748C182.384 22.2748 182.489 22.3273 182.595 22.3799C182.701 22.485 182.754 22.59 182.754 22.6951C182.754 22.8528 182.701 22.9578 182.595 23.1155C182.489 23.3257 182.331 23.4307 182.173 23.4833Z" fill="#1E293B"/>
<path d="M184.867 26.6884C184.655 26.6884 184.444 26.6359 184.233 26.5308C184.021 26.4257 183.916 26.2681 183.757 26.1105C183.599 25.9528 183.599 25.6901 183.599 25.4274C183.599 25.1647 183.652 24.9545 183.705 24.7969C183.757 24.6392 183.916 24.4291 184.021 24.2714C184.18 24.1138 184.338 24.0087 184.55 23.9036C184.761 23.7985 184.972 23.7985 185.183 23.7985C185.395 23.7985 185.606 23.8511 185.764 23.9036C185.923 24.0087 186.081 24.1138 186.134 24.2714C186.24 24.4291 186.24 24.6392 186.24 24.902C186.24 25.2698 186.187 25.5325 186.029 25.7952C185.923 26.0579 185.764 26.2681 185.5 26.4257C185.236 26.5834 185.183 26.6884 184.867 26.6884ZM185.078 26.1105C185.289 26.1105 185.448 26.0579 185.606 26.0054C185.764 25.9003 185.87 25.7952 185.923 25.6376C185.976 25.4799 186.029 25.2698 186.029 25.1121C186.029 24.902 185.976 24.7443 185.817 24.5867C185.712 24.4816 185.5 24.3765 185.289 24.3765C185.078 24.3765 184.919 24.4291 184.761 24.5342C184.602 24.6392 184.497 24.7443 184.444 24.902C184.391 25.0596 184.338 25.2698 184.338 25.4274C184.338 25.6376 184.391 25.7952 184.55 25.9528C184.655 26.0579 184.814 26.1105 185.078 26.1105ZM185.764 26.6359L185.87 26.0054L186.029 25.2698L186.134 24.5342L186.24 23.8511H186.874L186.293 26.6359H185.764Z" fill="#1E293B"/>
<path d="M188.669 26.6359L189.462 22.7477H190.096L189.726 24.4816L189.515 25.2172L189.409 25.9003L189.25 26.6884L188.669 26.6359ZM190.412 26.6884C190.201 26.6884 189.99 26.6359 189.831 26.5834C189.673 26.4783 189.515 26.3732 189.462 26.2156C189.356 26.0579 189.303 25.8477 189.303 25.6376C189.303 25.3749 189.356 25.1121 189.409 24.902C189.462 24.6918 189.567 24.4816 189.673 24.324C189.779 24.1663 189.937 24.0613 190.148 23.9562C190.36 23.8511 190.518 23.8511 190.782 23.8511C191.046 23.8511 191.205 23.9036 191.416 24.0087C191.627 24.1138 191.733 24.2714 191.839 24.4291C191.944 24.5867 191.997 24.8494 191.997 25.1121C191.997 25.3749 191.944 25.585 191.891 25.7427C191.839 25.9528 191.68 26.1105 191.574 26.2681C191.416 26.4257 191.258 26.5308 191.046 26.6359C190.835 26.6359 190.624 26.6884 190.412 26.6884ZM190.36 26.1105C190.571 26.1105 190.729 26.0579 190.888 26.0054C191.046 25.9003 191.152 25.7952 191.205 25.6376C191.258 25.4799 191.31 25.2698 191.31 25.1121C191.31 24.902 191.258 24.7443 191.099 24.5867C190.993 24.4816 190.782 24.3765 190.571 24.3765C190.36 24.3765 190.201 24.4291 190.043 24.5342C189.884 24.6392 189.779 24.7443 189.726 24.902C189.673 25.0596 189.62 25.2698 189.62 25.4274C189.62 25.6376 189.673 25.7952 189.831 25.9528C189.937 26.0579 190.096 26.1105 190.36 26.1105Z" fill="#1E293B"/>
<path d="M193.582 26.6884C193.37 26.6884 193.159 26.6359 192.948 26.5308C192.737 26.4257 192.631 26.2681 192.472 26.1105C192.314 25.9528 192.314 25.6901 192.314 25.4274C192.314 25.1647 192.367 24.9545 192.42 24.7969C192.472 24.6392 192.631 24.4291 192.737 24.2714C192.895 24.1138 193.053 24.0087 193.265 23.9036C193.476 23.7985 193.687 23.7985 193.899 23.7985C194.11 23.7985 194.321 23.8511 194.48 23.9036C194.638 24.0087 194.796 24.1138 194.849 24.2714C194.955 24.4291 194.955 24.6392 194.955 24.902C194.955 25.2698 194.902 25.5325 194.744 25.7952C194.638 26.0579 194.48 26.2681 194.215 26.4257C193.951 26.5834 193.899 26.6884 193.582 26.6884ZM193.74 26.1105C193.951 26.1105 194.11 26.0579 194.268 26.0054C194.427 25.9003 194.532 25.7952 194.585 25.6376C194.638 25.4799 194.691 25.2698 194.691 25.1121C194.691 24.902 194.638 24.7443 194.48 24.5867C194.374 24.4816 194.163 24.3765 193.951 24.3765C193.74 24.3765 193.582 24.4291 193.423 24.5342C193.265 24.6392 193.159 24.7443 193.106 24.902C193.053 25.0596 193.001 25.2698 193.001 25.4274C193.001 25.6376 193.053 25.7952 193.212 25.9528C193.318 26.0579 193.529 26.1105 193.74 26.1105ZM194.427 26.6359L194.532 26.0054L194.691 25.2698L194.796 24.5342L194.902 23.8511H195.536L194.955 26.6359H194.427ZM193.529 27.6868C193.423 27.6868 193.37 27.6868 193.318 27.5817C193.265 27.5291 193.265 27.4766 193.265 27.3715C193.265 27.2664 193.318 27.2139 193.37 27.1088C193.423 27.0037 193.529 27.0037 193.634 27.0037C193.687 27.0037 193.793 27.0037 193.846 27.0562C193.899 27.1088 193.951 27.1613 193.951 27.2664C193.951 27.3715 193.899 27.4766 193.846 27.5291C193.687 27.6868 193.634 27.6868 193.529 27.6868Z" fill="#1E293B"/>
<path d="M198.018 23.7985C198.283 23.7985 198.494 23.8511 198.652 23.9562C198.811 24.0613 198.916 24.2189 199.022 24.3765C199.075 24.5867 199.075 24.7969 199.022 25.0596L198.705 26.6359H198.071L198.388 25.1121C198.441 24.902 198.388 24.6918 198.335 24.5867C198.23 24.4816 198.071 24.3765 197.86 24.3765C197.649 24.3765 197.437 24.4291 197.279 24.5867C197.121 24.6918 197.015 24.902 196.962 25.2172L196.645 26.6884H195.958L196.54 23.9036H197.173L197.015 24.6918L196.909 24.4291C197.015 24.2189 197.226 24.0613 197.437 24.0087C197.596 23.8511 197.807 23.7985 198.018 23.7985Z" fill="#1E293B"/>
<path d="M25.6172 73.3998C17.5887 72.3489 10.9863 74.5558 8.71507 75.7643C4.48956 77.3406 21.9198 78.9169 34.0682 78.3915C46.2166 77.866 35.6528 74.7134 25.6172 73.3998Z" fill="#FB923C"/>
<path d="M149.055 161.411C141.027 160.36 134.424 162.566 132.153 163.775C127.928 165.351 145.358 166.928 157.506 166.402C169.655 165.877 159.091 162.724 149.055 161.411Z" fill="#FB923C"/>
<path d="M73.5241 56.218C68.4006 55.5875 64.1751 56.9011 62.749 57.5842C60.0552 58.4774 71.2 59.4232 78.9116 59.1079C86.676 58.8452 79.9152 57.0062 73.5241 56.218Z" fill="#FB923C"/>
<g clip-path="url(#clip0_559_2074)">
<path d="M-16.1521 172.497C-16.1521 172.497 1.44719 122.061 34.702 117.016C70.2492 111.625 118.991 123.259 123.734 110.49C128.804 96.8395 72.5785 79.4844 88.8362 74.293C108.163 68.1192 184.74 84.9174 190.845 78.6437C201.436 67.7619 133.775 53.1284 148.094 49.7656C162.413 46.4028 193.624 56.6226 196.217 53.1284C198.409 50.1702 184.866 43.8755 184.866 43.8755L187.418 43.4709C187.418 43.4709 221.819 60.0484 178 53.5225C140.139 47.8846 214.508 71.1299 206.358 83.7877C198.208 96.4455 85.8572 69.3487 115.087 86.7564C144.317 104.164 179.648 129.832 121.05 125.922C67.661 122.36 22.0255 145.653 39.6247 172.502H-16.1521V172.497Z" fill="#FFCB97"/>
</g>
<g clip-path="url(#clip1_559_2074)">
<path d="M-16.1521 172.497L183.208 43.6968L185.738 43.8755L39.6248 172.497H-16.1521Z" fill="#FFEDD5"/>
</g>
<path d="M26.4624 156.366C28.4167 156.366 29.9484 155.368 29.9484 154.212C29.9484 153.056 28.3639 152.058 26.4624 152.058C24.5609 152.058 22.9763 153.056 22.9763 154.212C22.9763 155.368 24.5081 156.366 26.4624 156.366Z" fill="#1E293B"/>
<path fill-rule="evenodd" clip-rule="evenodd" d="M26.4624 137.083C23.8742 137.083 21.7087 139.29 21.7087 142.127C21.7087 142.758 21.9728 143.493 22.4481 144.334C22.9235 145.175 23.6101 146.015 24.244 146.751C24.9306 147.539 25.5644 148.17 26.0926 148.642C26.2511 148.8 26.3567 148.905 26.4624 149.01C26.568 148.905 26.7265 148.8 26.8321 148.642C27.3603 148.17 27.9941 147.486 28.6808 146.751C29.3674 145.963 30.0012 145.175 30.4766 144.334C30.952 143.493 31.2161 142.705 31.2161 142.127C31.2161 139.29 29.0505 137.083 26.4624 137.083ZM26.4624 149.956C26.1455 150.271 26.0398 150.481 26.0398 150.481C26.0398 150.481 26.0398 150.481 25.987 150.429C25.9342 150.376 25.8814 150.324 25.8285 150.271C25.6701 150.114 25.4588 149.956 25.1947 149.693C24.6665 149.22 23.9799 148.485 23.2932 147.697C22.6066 146.908 21.8671 145.963 21.3389 145.069C20.8107 144.124 20.3882 143.125 20.3882 142.18C20.3882 138.659 23.082 135.769 26.5152 135.769C29.9484 135.769 32.6422 138.659 32.6422 142.18C32.6422 143.125 32.2196 144.176 31.6914 145.069C31.1633 146.015 30.4238 146.908 29.7371 147.697C29.0505 148.485 28.311 149.22 27.8357 149.693C27.5716 149.956 27.3603 150.166 27.2018 150.271C27.0962 150.324 27.0434 150.376 27.0434 150.429L26.9906 150.481L26.4624 149.956ZM26.4624 149.956L26.8849 150.481L26.4624 150.849L26.0398 150.481L26.4624 149.956ZM26.4624 139.71C25.5116 139.71 24.7193 140.498 24.7193 141.496C24.7193 142.495 25.5116 143.283 26.4624 143.283C27.4131 143.283 28.2054 142.495 28.2054 141.496C28.2054 140.498 27.4131 139.71 26.4624 139.71ZM23.346 141.496C23.346 139.763 24.7193 138.344 26.4624 138.344C28.2054 138.344 29.5787 139.763 29.5787 141.496C29.5787 143.23 28.2054 144.649 26.4624 144.649C24.7193 144.649 23.346 143.178 23.346 141.496Z" fill="#1E293B"/>
<path d="M12.9934 163.565L13.7329 159.887H15.4231C15.7928 159.887 16.1097 159.939 16.321 160.097C16.5323 160.255 16.6379 160.465 16.6379 160.727C16.6379 160.938 16.5851 161.148 16.4795 161.305C16.3738 161.463 16.2154 161.568 16.0041 161.673C15.7928 161.778 15.6344 161.778 15.4231 161.778L15.5287 161.621C15.7928 161.621 16.0569 161.673 16.2154 161.831C16.3738 161.989 16.4795 162.146 16.4795 162.409C16.4795 162.672 16.4266 162.882 16.2682 163.039C16.1097 163.197 15.9513 163.355 15.6872 163.407C15.4231 163.512 15.159 163.512 14.8421 163.512L12.9934 163.565ZM13.7857 163.039H14.8949C15.159 163.039 15.4231 162.987 15.5815 162.882C15.74 162.777 15.8456 162.619 15.8456 162.409C15.8456 162.251 15.7928 162.146 15.6872 162.094C15.5815 162.041 15.4231 161.989 15.2118 161.989H13.997L14.1026 161.463H15.159C15.3174 161.463 15.4759 161.463 15.5815 161.411C15.6872 161.358 15.7928 161.305 15.8985 161.2C15.9513 161.095 16.0041 160.99 16.0041 160.885C16.0041 160.727 15.9513 160.622 15.8456 160.57C15.74 160.517 15.5815 160.465 15.3703 160.465H14.2611C14.2611 160.412 13.7857 163.039 13.7857 163.039Z" fill="#1E293B"/>
<path d="M18.1697 163.617C17.9584 163.617 17.7471 163.565 17.5358 163.46C17.3774 163.355 17.2189 163.197 17.1133 163.039C17.0077 162.829 16.9548 162.619 16.9548 162.356C16.9548 162.094 17.0077 161.883 17.0605 161.726C17.1133 161.516 17.2717 161.358 17.3774 161.2C17.483 161.043 17.6943 160.938 17.9056 160.885C18.1169 160.833 18.3281 160.78 18.5394 160.78C18.7507 160.78 18.962 160.833 19.1204 160.885C19.2789 160.99 19.4373 161.095 19.4901 161.253C19.5958 161.411 19.5958 161.621 19.5958 161.883C19.5958 162.251 19.543 162.514 19.3845 162.777C19.2789 163.039 19.1204 163.25 18.8563 163.355C18.5922 163.46 18.4866 163.617 18.1697 163.617ZM18.3809 163.039C18.5922 163.039 18.7507 162.987 18.9091 162.934C19.0676 162.882 19.1732 162.724 19.2261 162.566C19.2789 162.409 19.3317 162.251 19.3317 162.041C19.3317 161.831 19.2789 161.673 19.1204 161.516C19.0148 161.411 18.8035 161.305 18.5922 161.305C18.3809 161.305 18.2225 161.358 18.064 161.463C17.9056 161.568 17.7999 161.673 17.6943 161.831C17.5887 161.989 17.5887 162.146 17.5887 162.356C17.5887 162.566 17.6415 162.724 17.7999 162.882C17.9584 162.987 18.1169 163.039 18.3809 163.039ZM19.0676 163.565L19.1732 162.934L19.3317 162.199L19.4373 161.463L19.543 160.78H20.1768L19.5958 163.565H19.0676ZM18.1169 164.616C18.0112 164.616 17.9584 164.616 17.9056 164.563C17.8528 164.511 17.8528 164.458 17.8528 164.353C17.8528 164.248 17.9056 164.195 17.9584 164.09C18.0112 164.038 18.1169 163.985 18.2225 163.985C18.3281 163.985 18.3809 163.985 18.4338 164.038C18.4866 164.09 18.5394 164.143 18.5394 164.248C18.5394 164.353 18.4866 164.458 18.4338 164.511C18.2753 164.616 18.2225 164.616 18.1169 164.616Z" fill="#1E293B"/>
<path d="M22.6592 160.727C22.9233 160.727 23.0818 160.78 23.293 160.885C23.5043 160.99 23.5571 161.148 23.6628 161.305C23.7156 161.516 23.7684 161.726 23.6628 161.989L23.3459 163.565H22.712L23.029 162.041C23.0818 161.831 23.029 161.621 22.9761 161.516C22.8705 161.411 22.712 161.305 22.5008 161.305C22.2895 161.305 22.0782 161.358 21.9198 161.516C21.7613 161.673 21.6557 161.831 21.6028 162.146L21.2859 163.617H20.6521L21.2331 160.833H21.8669L21.7085 161.621L21.6028 161.358C21.7085 161.148 21.9198 160.99 22.131 160.938C22.1839 160.78 22.3951 160.727 22.6592 160.727Z" fill="#1E293B"/>
<path d="M26.8848 163.617C26.6735 163.617 26.4622 163.565 26.2509 163.46C26.0397 163.355 25.934 163.197 25.8284 163.039C25.7227 162.829 25.6699 162.619 25.6699 162.356C25.6699 162.094 25.7227 161.883 25.7756 161.726C25.8284 161.568 25.9868 161.358 26.0925 161.2C26.1981 161.043 26.4094 160.938 26.6207 160.885C26.8319 160.833 27.0432 160.78 27.2545 160.78C27.4658 160.78 27.677 160.833 27.8355 160.885C27.994 160.938 28.1524 161.095 28.2052 161.253C28.3109 161.411 28.3637 161.621 28.3637 161.831C28.3637 162.094 28.3109 162.356 28.2581 162.566C28.2052 162.777 28.0996 162.987 27.994 163.144C27.8883 163.302 27.7299 163.407 27.5186 163.512C27.3601 163.565 27.1489 163.617 26.8848 163.617ZM27.0432 163.039C27.2017 163.039 27.4129 162.987 27.5186 162.934C27.677 162.829 27.7827 162.724 27.8883 162.566C27.994 162.409 27.994 162.251 27.994 162.041C27.994 161.831 27.9411 161.673 27.7827 161.516C27.677 161.411 27.4658 161.305 27.2545 161.305C27.096 161.305 26.8848 161.358 26.7791 161.463C26.6735 161.568 26.515 161.673 26.4094 161.831C26.3038 161.989 26.3038 162.146 26.3038 162.356C26.3038 162.566 26.3566 162.724 26.515 162.882C26.6207 162.987 26.8319 163.039 27.0432 163.039ZM27.7299 163.565L27.8355 162.934L27.994 162.199L28.0996 161.463L28.4693 159.677H29.1032L28.3109 163.565H27.7299ZM27.3073 160.412L27.413 159.992H29.5257L29.4201 160.412H27.3073Z" fill="#1E293B"/>
<path d="M30.5293 163.617C30.318 163.617 30.1067 163.565 29.8955 163.46C29.737 163.355 29.5785 163.197 29.4729 163.039C29.3673 162.829 29.3145 162.619 29.3145 162.356C29.3145 162.094 29.3673 161.883 29.4201 161.726C29.4729 161.568 29.6314 161.358 29.737 161.2C29.8426 161.043 30.0539 160.938 30.2652 160.885C30.4765 160.833 30.6877 160.78 30.899 160.78C31.1103 160.78 31.3216 160.833 31.5329 160.885C31.6913 160.99 31.8498 161.095 31.9026 161.253C32.0082 161.411 32.0082 161.621 32.0082 161.883C32.0082 162.251 31.9554 162.514 31.7969 162.777C31.6913 163.039 31.5329 163.25 31.2688 163.355C31.0047 163.46 30.7934 163.617 30.5293 163.617ZM30.6877 163.039C30.899 163.039 31.0575 162.987 31.2159 162.934C31.3744 162.882 31.48 162.724 31.5857 162.566C31.6913 162.409 31.6913 162.251 31.6913 162.041C31.6913 161.831 31.6385 161.673 31.48 161.516C31.3744 161.411 31.1631 161.305 30.9518 161.305C30.7934 161.305 30.5821 161.358 30.4237 161.463C30.2652 161.568 30.1596 161.673 30.0539 161.831C29.9483 161.989 29.9483 162.146 29.9483 162.356C29.9483 162.566 30.0011 162.724 30.1596 162.882C30.2652 162.987 30.4237 163.039 30.6877 163.039ZM31.3744 163.565L31.48 162.934L31.6913 162.199L31.7969 161.463L31.9026 160.78H32.5364L31.9554 163.565H31.3744Z" fill="#1E293B"/>
<path d="M34.9661 160.727C35.2302 160.727 35.3887 160.78 35.5999 160.885C35.8112 160.99 35.864 161.148 35.9697 161.305C36.0225 161.516 36.0753 161.726 35.9697 161.989L35.6528 163.565H35.0189L35.3358 162.041C35.3887 161.831 35.3358 161.621 35.283 161.516C35.1774 161.411 35.0189 161.305 34.8076 161.305C34.5964 161.305 34.3851 161.358 34.2266 161.516C34.0682 161.621 33.9625 161.831 33.9097 162.146L33.5928 163.617H32.959L33.54 160.833H34.1738L34.0154 161.621L33.9097 161.358C34.0154 161.148 34.2266 160.99 34.4379 160.938C34.4907 160.78 34.702 160.727 34.9661 160.727Z" fill="#1E293B"/>
<path d="M37.6071 164.616C37.343 164.616 37.0789 164.563 36.8676 164.511C36.6564 164.458 36.4451 164.353 36.2866 164.248L36.6564 163.775C36.762 163.88 36.9204 163.933 37.0789 163.985C37.2374 164.038 37.4486 164.09 37.6599 164.09C37.9768 164.09 38.1881 164.038 38.3466 163.88C38.505 163.775 38.6107 163.565 38.6635 163.302L38.7691 162.724L38.9276 162.146L39.0332 161.516L39.1388 160.833H39.7727L39.2973 163.197C39.1917 163.722 38.9804 164.09 38.7163 164.3C38.505 164.511 38.1353 164.616 37.6071 164.616ZM37.8184 163.46C37.5543 163.46 37.343 163.407 37.1845 163.302C36.9733 163.197 36.8676 163.092 36.762 162.882C36.6564 162.724 36.6035 162.514 36.6035 162.251C36.6035 162.041 36.6564 161.831 36.7092 161.621C36.8148 161.411 36.9204 161.253 37.0261 161.148C37.1845 160.99 37.343 160.885 37.5543 160.833C37.7656 160.78 37.9768 160.727 38.1881 160.727C38.3994 160.727 38.5578 160.78 38.7691 160.833C38.9276 160.885 39.086 161.043 39.1917 161.2C39.2973 161.358 39.3501 161.568 39.3501 161.831C39.3501 162.146 39.2973 162.409 39.1917 162.672C39.086 162.934 38.9276 163.092 38.7163 163.25C38.3466 163.355 38.0825 163.46 37.8184 163.46ZM37.924 162.882C38.1353 162.882 38.2937 162.829 38.3994 162.777C38.5578 162.672 38.6635 162.566 38.7163 162.461C38.8219 162.304 38.8219 162.146 38.8219 161.989C38.8219 161.778 38.7691 161.621 38.6107 161.516C38.505 161.411 38.2937 161.358 38.0825 161.358C37.8712 161.358 37.7127 161.411 37.6071 161.463C37.4486 161.516 37.343 161.673 37.2374 161.778C37.1317 161.936 37.1317 162.094 37.1317 162.251C37.1317 162.461 37.1845 162.619 37.343 162.724C37.5015 162.829 37.7127 162.882 37.924 162.882Z" fill="#1E293B"/>
<path d="M20.3352 169.923C20.0711 169.923 19.807 169.87 19.5957 169.765C19.3845 169.66 19.226 169.502 19.1204 169.345C19.0147 169.187 18.9619 168.924 18.9619 168.714C18.9619 168.399 19.0147 168.136 19.1732 167.873C19.3316 167.611 19.5429 167.453 19.7542 167.295C20.0183 167.138 20.2824 167.085 20.5993 167.085C20.7578 167.085 20.8634 167.085 20.9162 167.085C21.0219 167.085 21.0747 167.085 21.1803 167.085C21.2859 167.085 21.3388 167.085 21.4444 167.085C21.55 167.085 21.6557 167.033 21.7085 166.98C21.7613 166.928 21.8141 166.823 21.8141 166.717C21.8141 166.665 21.8141 166.612 21.7613 166.56C21.7613 166.507 21.7085 166.455 21.7085 166.402L22.1311 166.245C22.1839 166.297 22.2367 166.402 22.2367 166.455C22.2367 166.507 22.2895 166.612 22.2895 166.717C22.2895 166.875 22.2367 167.033 22.1839 167.138C22.1311 167.243 22.0254 167.348 21.9198 167.401C21.8141 167.453 21.6557 167.506 21.4972 167.506C21.4444 167.506 21.3388 167.506 21.2859 167.506C21.2331 167.506 21.1803 167.506 21.0747 167.506L21.55 167.348C21.7085 167.453 21.8141 167.558 21.9198 167.768C22.0254 167.926 22.0254 168.136 22.0254 168.346C22.0254 168.662 21.9726 168.924 21.8141 169.187C21.6557 169.45 21.4444 169.66 21.2331 169.765C20.969 169.818 20.6521 169.923 20.3352 169.923ZM20.388 169.345C20.5993 169.345 20.7578 169.292 20.9162 169.24C21.0747 169.187 21.1803 169.029 21.2331 168.872C21.2859 168.714 21.3388 168.556 21.3388 168.346C21.3388 168.136 21.2859 167.979 21.1275 167.821C21.0219 167.716 20.8106 167.611 20.5993 167.611C20.388 167.611 20.2296 167.663 20.0711 167.768C19.9127 167.873 19.807 167.978 19.7014 168.136C19.5957 168.294 19.5957 168.451 19.5957 168.662C19.5957 168.872 19.6486 169.029 19.807 169.187C19.9655 169.292 20.1767 169.345 20.388 169.345ZM20.969 166.717L20.8106 166.455C20.9162 166.402 21.0219 166.35 21.0747 166.297C21.1275 166.245 21.1803 166.192 21.1803 166.087C21.1803 166.034 21.1803 165.982 21.1275 165.929C21.0747 165.877 21.0219 165.877 20.969 165.877C20.8634 165.877 20.7578 165.929 20.6521 165.982L20.5465 165.667C20.5993 165.614 20.7049 165.561 20.8106 165.561C20.9162 165.561 21.0219 165.509 21.0747 165.509C21.2331 165.509 21.3388 165.561 21.4444 165.614C21.55 165.667 21.6029 165.824 21.6029 165.929C21.6029 166.087 21.55 166.192 21.4444 166.35C21.2859 166.56 21.1803 166.665 20.969 166.717Z" fill="#1E293B"/>
<path d="M25.0889 169.923C24.8776 169.923 24.6663 169.87 24.455 169.765C24.2438 169.66 24.1381 169.502 24.0325 169.345C23.9268 169.134 23.874 168.924 23.874 168.662C23.874 168.399 23.9268 168.189 23.9797 168.031C24.0325 167.873 24.1909 167.663 24.2966 167.506C24.4022 167.348 24.6135 167.243 24.8248 167.19C25.036 167.138 25.2473 167.085 25.4586 167.085C25.6699 167.085 25.8811 167.138 26.0396 167.19C26.1981 167.243 26.3565 167.401 26.4093 167.558C26.515 167.716 26.5678 167.926 26.5678 168.136C26.5678 168.399 26.515 168.662 26.4622 168.872C26.4093 169.082 26.3037 169.292 26.1981 169.45C26.0924 169.607 25.934 169.712 25.7227 169.818C25.5114 169.87 25.3001 169.923 25.0889 169.923ZM25.2473 169.345C25.4058 169.345 25.6171 169.292 25.7227 169.24C25.8811 169.134 25.9868 169.029 26.0924 168.872C26.1981 168.714 26.1981 168.556 26.1981 168.346C26.1981 168.136 26.1452 167.979 25.9868 167.821C25.8811 167.716 25.6699 167.611 25.4586 167.611C25.3001 167.611 25.0889 167.663 24.9832 167.768C24.8776 167.873 24.7191 167.978 24.6135 168.136C24.5079 168.294 24.5079 168.451 24.5079 168.662C24.5079 168.872 24.5607 169.029 24.7191 169.187C24.8248 169.292 25.036 169.345 25.2473 169.345ZM25.934 169.87L26.0396 169.24L26.1981 168.504L26.3037 167.768L26.6734 165.982H27.3073L26.515 169.87H25.934ZM25.5114 166.717L25.617 166.297H27.7298L27.6242 166.717H25.5114Z" fill="#1E293B"/>
<path d="M28.6807 169.923C28.4694 169.923 28.2581 169.87 28.0468 169.765C27.8884 169.66 27.7299 169.502 27.6243 169.345C27.5186 169.134 27.4658 168.924 27.4658 168.662C27.4658 168.399 27.5186 168.189 27.5715 168.031C27.6243 167.873 27.7827 167.663 27.8884 167.506C27.994 167.348 28.2053 167.243 28.4166 167.19C28.6278 167.138 28.8391 167.085 29.0504 167.085C29.2617 167.085 29.4729 167.138 29.6842 167.19C29.8427 167.295 30.0011 167.401 30.054 167.558C30.1596 167.716 30.1596 167.926 30.1596 168.189C30.1596 168.556 30.1068 168.819 29.9483 169.082C29.8427 169.345 29.6842 169.555 29.4201 169.66C29.156 169.765 28.9976 169.923 28.6807 169.923ZM28.8919 169.345C29.1032 169.345 29.2617 169.292 29.4201 169.24C29.5786 169.187 29.6842 169.029 29.7899 168.872C29.8955 168.714 29.8955 168.556 29.8955 168.346C29.8955 168.136 29.8427 167.978 29.6842 167.821C29.5786 167.716 29.3673 167.611 29.156 167.611C28.9976 167.611 28.7863 167.663 28.6278 167.768C28.4694 167.873 28.3637 167.978 28.2581 168.136C28.1525 168.294 28.1525 168.451 28.1525 168.662C28.1525 168.872 28.2053 169.029 28.3637 169.187C28.4694 169.292 28.6278 169.345 28.8919 169.345ZM29.5786 169.87L29.6842 169.24L29.8427 168.504L29.9483 167.768L30.054 167.085H30.6878L30.1068 169.87H29.5786ZM28.4694 166.665L29.2617 165.929H29.8427L30.4765 166.665H29.9483L29.3145 166.087H29.8427L29.0504 166.665H28.4694Z" fill="#1E293B"/>
<path d="M31.1103 170.921C30.9519 170.921 30.8462 170.921 30.6878 170.868C30.5293 170.816 30.4237 170.763 30.3708 170.711L30.6878 170.238C30.7406 170.29 30.7934 170.343 30.899 170.343C31.0047 170.396 31.0575 170.396 31.1631 170.396C31.2688 170.396 31.3744 170.343 31.4272 170.29C31.5329 170.238 31.5857 170.133 31.6913 169.975L31.9554 169.607L32.0082 169.555L33.54 167.085H34.1738L32.2195 170.133C32.1139 170.343 31.9554 170.501 31.8498 170.606C31.7441 170.711 31.5857 170.816 31.48 170.868C31.4272 170.921 31.2688 170.921 31.1103 170.921ZM31.8498 169.975L31.1631 167.085H31.797L32.3252 169.502C32.378 169.502 31.8498 169.975 31.8498 169.975Z" fill="#1E293B"/>
<g clip-path="url(#clip2_559_2074)">
<path d="M83.6125 304.335L162.313 239.724L188.722 268.639L272.018 210.021L324.467 304.283L83.6125 304.335Z" fill="#DE6501"/>
<path d="M160.57 245.612L145.358 267.587L142.664 261.647L91.958 304.125H126.29L141.766 268.481L146.573 274.842L160.57 245.612Z" fill="#FB923C"/>
<path d="M206.945 297.501L303.498 296.765L300.857 267.535L204.41 268.218L206.945 297.501Z" fill="#1E293B"/>
<path d="M265.31 127.693L257.968 128.85L239.745 131.636L237.58 124.486C219.199 125.17 218.09 88.3693 218.09 88.3693C217.773 78.9064 229.287 74.1749 240.802 75.9623C249.094 77.2241 258.496 102.669 262.405 117.337C263.989 123.067 265.31 127.641 265.31 127.693Z" fill="#FED7AA"/>
<path d="M222.896 105.14C223.424 105.14 223.847 104.719 223.847 104.194C223.847 103.668 223.424 103.247 222.896 103.247C222.368 103.247 221.946 103.668 221.946 104.194C221.946 104.719 222.368 105.14 222.896 105.14Z" fill="#1E293B"/>
<path d="M226.065 102.616C225.749 102.616 225.432 102.353 225.379 102.038C225.22 101.144 224.851 100.566 224.27 100.251C223.055 99.5146 221.259 100.093 221.259 100.093C220.889 100.198 220.467 99.9878 220.361 99.6197C220.255 99.2517 220.414 98.8312 220.836 98.726C220.942 98.6735 223.266 97.9374 225.009 98.9889C225.96 99.5672 226.541 100.513 226.805 101.775C226.858 102.143 226.594 102.511 226.224 102.616C226.171 102.564 226.118 102.564 226.065 102.616Z" fill="#1E293B"/>
<path d="M226.224 115.129C226.118 115.129 226.065 115.076 226.065 114.918C226.065 114.76 226.118 114.76 226.224 114.76C226.277 114.76 231.506 114.708 233.249 110.555C233.302 110.45 233.407 110.45 233.513 110.45C233.619 110.502 233.619 110.607 233.619 110.66C231.77 115.076 226.277 115.129 226.224 115.129Z" fill="#1E293B"/>
<path d="M239.746 102.616C239.746 102.616 241.172 99.0415 237.95 95.4666C233.249 92.2071 218.512 96.518 218.09 88.3693C217.614 80.2207 223.319 74.9635 233.671 74.7532C244.024 74.5429 250.89 81.2721 253.795 90.4722C254.535 92.8905 255.591 96.9386 255.591 96.9386L239.746 102.616Z" fill="#1E293B"/>
<path d="M238.055 95.5717C238.055 95.5717 240.907 92.3122 241.7 98.4106C242.492 104.509 240.696 106.402 239.376 104.982" fill="#FED7AA"/>
<path d="M240.221 105.613C239.904 105.613 239.534 105.455 239.217 105.14L239.481 104.877C239.693 105.14 240.062 105.403 240.485 105.192C241.383 104.772 242.017 102.511 241.488 98.4632C241.172 95.8346 240.432 95.0985 239.904 94.9408C239.059 94.678 238.161 95.7294 238.161 95.7294L237.897 95.5191C237.95 95.4666 238.953 94.31 240.009 94.6254C240.907 94.8883 241.541 96.2026 241.805 98.4106C242.386 102.984 241.541 105.087 240.591 105.508C240.538 105.56 240.379 105.613 240.221 105.613Z" fill="#1E293B"/>
<path d="M239.745 131.636C239.745 131.636 224.481 144.884 215.607 167.438C201.188 203.975 204.674 256.758 204.41 268.218C223.53 269.375 296.631 269.375 300.857 267.535C305.082 265.695 297.741 201.504 296.684 178.583C296.103 165.913 281.208 134.16 264.993 126.642C254.535 128.061 239.745 131.636 239.745 131.636Z" fill="#FB7200"/>
<path d="M184.021 193.461C184.021 193.461 175.148 173.483 166.274 164.02C163.528 161.076 155.605 157.134 153.122 157.186C148.58 157.239 149.425 163.442 155.341 165.335C156.978 165.861 159.461 167.911 160.411 170.066C162.63 175.271 160.675 173.904 158.616 172.117C154.284 168.384 139.653 178.373 139.918 186.153C140.34 197.877 157.612 212.439 157.612 212.439L184.021 193.461Z" fill="#FED7AA"/>
<path d="M183.704 192.567C183.704 192.567 182.12 167.543 169.919 168.962C159.302 170.224 183.704 192.567 183.704 192.567Z" fill="#FED7AA"/>
<path d="M154.654 180.844C154.601 180.844 154.549 180.844 154.496 180.791L150.165 175.429C150.112 175.376 150.112 175.218 150.217 175.166C150.27 175.113 150.429 175.113 150.481 175.218L154.813 180.581C154.865 180.633 154.865 180.791 154.76 180.844C154.76 180.791 154.707 180.844 154.654 180.844Z" fill="#1E293B"/>
<path d="M147.629 187.468C147.576 187.468 147.524 187.468 147.471 187.415L143.192 181.948C143.14 181.895 143.14 181.737 143.245 181.685C143.298 181.632 143.457 181.632 143.509 181.737L147.788 187.205C147.84 187.257 147.84 187.415 147.788 187.468C147.682 187.468 147.629 187.468 147.629 187.468Z" fill="#1E293B"/>
<path d="M179.162 179.161C179.109 179.161 179.056 179.161 179.004 179.109L172.507 171.486C172.454 171.433 172.454 171.275 172.507 171.223C172.56 171.17 172.718 171.17 172.771 171.223L179.268 178.846C179.321 178.898 179.321 179.056 179.268 179.109C179.268 179.109 179.215 179.161 179.162 179.161Z" fill="#1E293B"/>
<path d="M152.172 163.81C152.119 163.81 152.066 163.81 152.066 163.758C152.013 163.758 148.527 160.603 150.587 158.08C152.647 155.556 157.982 158.5 158.193 158.658C158.299 158.711 158.299 158.816 158.246 158.921C158.193 159.026 158.087 159.026 157.982 158.974C157.929 158.974 152.7 156.082 150.851 158.343C149.002 160.603 152.224 163.495 152.277 163.495C152.33 163.547 152.383 163.652 152.277 163.758C152.277 163.758 152.224 163.81 152.172 163.81Z" fill="#1E293B"/>
<path d="M153.809 161.918L152.33 160.761C152.277 160.708 152.224 160.603 152.277 160.498C152.33 160.446 152.436 160.393 152.541 160.446L153.756 161.392L156.133 158.921C156.186 158.868 156.344 158.868 156.397 158.921C156.45 158.974 156.45 159.079 156.397 159.184L153.809 161.918Z" fill="#1E293B"/>
<path d="M161.151 165.23C161.098 165.23 161.045 165.23 161.045 165.177C160.992 165.124 160.992 165.019 161.045 164.914L163.052 162.916C163.105 162.864 163.264 162.864 163.316 162.916C163.369 162.969 163.369 163.074 163.316 163.179L161.309 165.177C161.257 165.177 161.204 165.23 161.151 165.23Z" fill="#1E293B"/>
<path d="M243.812 121.858C243.76 121.858 243.707 121.805 243.654 121.753C243.601 121.647 243.654 121.542 243.76 121.49C243.812 121.437 249.728 118.651 251.154 114.813C251.207 114.708 251.313 114.655 251.366 114.708C251.418 114.76 251.524 114.866 251.471 114.918C249.992 118.914 244.129 121.7 243.918 121.805C243.865 121.858 243.812 121.858 243.812 121.858Z" fill="#1E293B"/>
<path d="M239.165 98.2529C239.165 98.2529 240.01 97.7797 239.587 101.512L239.165 98.2529Z" fill="#FED7AA"/>
<path d="M239.798 101.512L239.429 101.46C239.693 98.7786 239.376 98.4106 239.27 98.358L239.059 98.0426C239.164 97.99 239.323 97.99 239.429 98.0426C239.904 98.358 240.01 99.5146 239.798 101.512Z" fill="#1E293B"/>
<path d="M236.946 211.756L183.81 188.256L157.612 212.544L224.956 259.649L236.946 211.756Z" fill="#FB7200"/>
<path d="M221.312 107.926C221.312 107.926 218.776 110.134 222.579 111.554L221.312 107.926Z" fill="#FED7AA"/>
<path d="M204.198 245.192C204.779 246.716 228.653 254.707 240.221 253.393V269.007C227.122 267.745 209.797 264.17 204.304 259.702L204.198 245.192Z" fill="#334155"/>
<path d="M242.703 130.637C242.703 130.637 241.911 129.481 239.745 131.636C237.58 133.792 233.46 138.155 233.46 138.155C233.46 138.155 242.967 138.313 244.393 142.519L242.703 130.637Z" fill="#334155"/>
<path d="M252.686 127.956C252.686 127.956 251.207 108.504 268.373 109.188C285.54 109.924 283.744 128.377 283.744 128.377H273.972C273.972 128.377 279.571 117.337 272.916 113.814C266.261 110.239 261.982 122.857 265.944 127.956H252.686Z" fill="#334155"/>
<path d="M242.07 130.059C242.07 130.059 265.627 121.069 287.019 126.011C303.921 129.954 325.893 153.716 327.742 177.216C329.591 200.716 367.303 234.046 352.62 254.97C337.883 275.894 299.854 279.626 280.733 275.526C261.613 271.478 242.07 130.059 242.07 130.059Z" fill="#FB923C"/>
<path d="M242.07 130.059C242.07 130.059 281.737 163.39 282.212 199.139C282.687 234.888 308.938 273.633 291.614 275.631C265.416 278.68 239.323 270.847 239.323 270.847L242.07 130.059Z" fill="#334155"/>
<path d="M286.86 194.828C286.754 194.828 286.702 194.775 286.702 194.67C286.702 194.565 286.754 194.512 286.86 194.46L332.39 192.725C332.496 192.725 332.549 192.777 332.549 192.883C332.549 192.988 332.496 193.04 332.39 193.093L286.86 194.828Z" fill="#334155"/>
<path d="M350.718 228.001H304.238V234.309H350.718V228.001Z" fill="#334155"/>
<path d="M252.211 225.214C252.211 225.214 249.517 205.92 263.989 205.92C278.462 205.92 276.56 225.214 276.56 225.214H252.211Z" fill="white"/>
<path d="M276.719 225.425H252.052V225.267C252.052 225.162 250.679 214.858 255.538 209.285C257.598 206.972 260.451 205.763 264.042 205.763C267.634 205.763 270.539 206.972 272.705 209.285C277.775 214.805 276.824 225.109 276.824 225.214L276.719 225.425ZM252.369 225.057H276.402C276.508 223.742 276.983 214.595 272.388 209.548C270.328 207.287 267.528 206.131 263.989 206.131C260.451 206.131 257.757 207.287 255.803 209.548C251.366 214.595 252.211 223.742 252.369 225.057Z" fill="#334155"/>
<path d="M280.522 222.323H247.404V228.053H280.522V222.323Z" fill="white"/>
<path d="M280.733 228.264H247.246V222.165H280.733V228.264ZM247.616 227.948H280.363V222.533H247.616V227.948Z" fill="#334155"/>
<path d="M267.106 199.349H260.345C259.394 199.349 258.602 200.137 258.602 201.084V204.922C258.602 205.868 259.394 206.656 260.345 206.656H267.106C268.056 206.656 268.849 205.868 268.849 204.922V201.084C268.849 200.137 268.056 199.349 267.106 199.349Z" fill="white"/>
<path d="M267.581 206.867H259.87C259.077 206.867 258.391 206.236 258.391 205.395V200.663C258.391 199.875 259.024 199.191 259.87 199.191H267.581C268.373 199.191 269.06 199.822 269.06 200.663V205.395C269.06 206.183 268.373 206.867 267.581 206.867ZM259.87 199.507C259.289 199.507 258.76 199.98 258.76 200.611V205.342C258.76 205.92 259.236 206.446 259.87 206.446H267.581C268.162 206.446 268.69 205.973 268.69 205.342V200.611C268.69 200.032 268.215 199.507 267.581 199.507H259.87Z" fill="#334155"/>
<path d="M304.026 183.209H294.36V204.238H304.026V183.209Z" fill="#334155"/>
<path d="M281.895 122.383C278.884 114.287 274.395 113.236 274.342 113.236L274.395 112.868C274.606 112.92 279.149 113.919 282.212 122.226L281.895 122.383Z" fill="white"/>
<path d="M327.636 183.209H317.97V204.238H327.636V183.209Z" fill="#334155"/>
</g>
<defs>
<clipPath id="clip0_559_2074">
<rect width="356" height="292.668" fill="white" transform="translate(0 0.889481)"/>
</clipPath>
<clipPath id="clip1_559_2074">
<rect width="356" height="292.668" fill="white" transform="translate(0 0.889481)"/>
</clipPath>
<clipPath id="clip2_559_2074">
<rect width="356" height="292.668" fill="white" transform="translate(0 0.889481)"/>
</clipPath>
</defs>
</svg>
