<svg width="674" height="557" viewBox="0 0 674 557" fill="none" xmlns="http://www.w3.org/2000/svg">
<path d="M434.2 326.6H6C3 327 0.299999 324.6 0.299999 321.6V5.40001C0.299999 2.80001 2.2 0.700012 4.8 0.300012H433C436 -0.0999882 438.7 2.30001 438.7 5.30001V321.5C438.7 324.1 436.8 326.3 434.2 326.6Z" fill="#FDBA74"/>
<path d="M438.7 23.6L0.299999 24.9V5.4C0.299999 2.8 2.2 0.600003 4.8 0.300003H433C436 -0.0999974 438.7 2.3 438.7 5.4V23.6Z" fill="#334155"/>
<path d="M426.7 16.7C429.3 16.7 431.4 14.6 431.4 12C431.4 9.40002 429.3 7.30002 426.7 7.30002C424.1 7.30002 422 9.40002 422 12C422 14.6 424.1 16.7 426.7 16.7Z" fill="#B90F0F"/>
<path d="M412.8 16.7C415.4 16.7 417.5 14.6 417.5 12C417.5 9.40002 415.4 7.30002 412.8 7.30002C410.2 7.30002 408 9.30002 408 12C408 14.7 410.1 16.7 412.8 16.7Z" fill="#FB923C"/>
<path d="M398.8 16.7C401.4 16.7 403.5 14.6 403.5 12C403.5 9.40002 401.4 7.30002 398.8 7.30002C396.2 7.30002 394.1 9.40002 394.1 12C394.1 14.6 396.2 16.7 398.8 16.7Z" fill="#34D399"/>
<path fill-rule="evenodd" clip-rule="evenodd" d="M350 81.1C345.8 81.1 342.2 79.4 342.2 77.3C342.2 75.2 345.8 73.5 350 73.5C354.2 73.5 357.8 75.2 357.8 77.3C357.8 79.4 354.2 81.1 350 81.1Z" fill="#1E293B"/>
<path d="M350 74.2C354.1 74.2 357.2 75.9 357.2 77.3C357.2 78.7 354.1 80.4 350 80.4C345.9 80.4 342.8 78.7 342.8 77.3C342.8 75.9 345.9 74.2 350 74.2ZM350 73C345.3 73 341.6 75 341.6 77.4C341.6 79.8 345.4 81.8 350 81.8C354.6 81.8 358.4 79.8 358.4 77.4C358.4 75 354.7 73 350 73Z" fill="#1E293B"/>
<path d="M350 78C349.6 78 349.4 77.7 349.4 77.4V55.5C349.4 55.2 349.7 54.9 350 54.9C350.3 54.9 350.6 55.2 350.6 55.5V77.4C350.6 77.7 350.4 78 350 78Z" fill="#1E293B"/>
<path fill-rule="evenodd" clip-rule="evenodd" d="M362.5 58.5L350 55.2V62.7C350 62.8 362.5 58.5 362.5 58.5Z" fill="#FB7200"/>
<path d="M349.4 63.6V54.4L364.7 58.4L349.4 63.6ZM350.6 56V61.8L360.3 58.5L350.6 56Z" fill="#FB7200"/>
<path d="M104 98.8L105.8 89.8L108.7 97.6L112 86.7L114.3 97L117.8 88.9L119.7 98.9C119.7 98.8 104 98.8 104 98.8Z" fill="#C15802"/>
<path d="M131.2 92.5L133 83.5L135.9 91.3L139.2 80.4L141.5 90.7L145 82.6L146.9 92.6L131.2 92.5Z" fill="#C15802"/>
<path d="M189.4 304.6L191.2 295.6L194.1 303.4L197.4 292.5L199.7 302.8L203.2 294.7L205.1 304.7L189.4 304.6Z" fill="#C15802"/>
<path d="M210.9 309L212.7 300L215.6 307.8L218.9 296.9L221.2 307.2L224.7 299.1L226.6 309.1L210.9 309Z" fill="#C15802"/>
<path d="M324.1 256L325.9 247L328.9 254.8L332.2 243.9L334.5 254.2L338 246.1L339.9 256.1H324.1V256Z" fill="#C15802"/>
<path d="M350.7 249.7L352.5 240.7L355.5 248.5L358.8 237.6L361.1 247.9L364.6 239.8L366.5 249.8H350.7V249.7Z" fill="#C15802"/>
<path d="M316.6 215.4L309.8 244H325.8L316.6 215.4Z" fill="#FB923C"/>
<path d="M326.2 244.3H309.4L316.5 214.2L326.2 244.3ZM310.2 243.6H325.3L316.6 216.5L310.2 243.6Z" fill="#FB923C"/>
<path d="M318.6 237.6H316.3V250.2H318.6V237.6Z" fill="#FB923C"/>
<path d="M319 250.5H316V237.3H318.9V250.5H319ZM316.7 249.8H318.4V237.8H316.7V249.8Z" fill="#FB923C"/>
<path d="M342.2 210.2L335.4 238.8H351.4L342.2 210.2Z" fill="#FB923C"/>
<path d="M351.8 239.1H335L342.1 209L351.8 239.1ZM335.8 238.4H350.9L342.2 211.3L335.8 238.4Z" fill="#FB923C"/>
<path d="M344.2 232.4H342V245H344.3L344.2 232.4Z" fill="#FB923C"/>
<path d="M344.6 245.3H341.7V232.1H344.6V245.3ZM342.3 244.6H344V232.6H342.3V244.6Z" fill="#FB923C"/>
<path d="M59.1 98.6L52.3 127.2H68.3L59.1 98.6Z" fill="#FB923C"/>
<path d="M68.8 127.5H51.9L59 97.4L68.8 127.5ZM52.7 126.8H67.8L59.1 99.7L52.7 126.8Z" fill="#FB923C"/>
<path d="M61.2 120.8H58.9V133.4H61.2V120.8Z" fill="#FB923C"/>
<path d="M61.5 133.7H58.6V120.5H61.5V133.7ZM59.2 133H60.9V121H59.2V133Z" fill="#FB923C"/>
<path d="M121.7 55L115 83.6H131C130.9 83.6 121.7 55 121.7 55Z" fill="#FB923C"/>
<path d="M131.4 83.9H114.6L121.7 53.8L131.4 83.9ZM115.4 83.3H130.5L121.8 56.2C121.8 56.2 115.4 83.3 115.4 83.3Z" fill="#FB923C"/>
<path d="M123.8 77.2H121.5V89.8H123.8V77.2Z" fill="#FB923C"/>
<path d="M124.1 90.1H121.2V76.9H124.1V90.1ZM121.8 89.5H123.5V77.5H121.8V89.5Z" fill="#FB923C"/>
<path d="M168.2 76.2L161.4 104.8H177.4L168.2 76.2Z" fill="#FB923C"/>
<path d="M177.8 105.1H161L168.1 75L177.8 105.1ZM161.8 104.4H176.9L168.2 77.3L161.8 104.4Z" fill="#FB923C"/>
<path d="M170.2 98.4H167.9V111H170.2V98.4Z" fill="#FB923C"/>
<path d="M170.6 111.3H167.7V98.1H170.6V111.3ZM168.3 110.7H170V98.7H168.3V110.7Z" fill="#FB923C"/>
<path d="M15.6 17H20.3L20.4 16.4H16.5L17.8 10H17L15.6 17Z" fill="#CBD5E1"/>
<path d="M24.7 10.1L25.6 10.9H26.2L25.1 9.70001H24.4L23 10.9H23.7L24.7 10.1ZM24.3 11.7C22.5 11.7 21.3 13 21.3 14.8C21.3 16.1 22.2 17 23.7 17C25.5 17 26.7 15.7 26.7 13.9C26.7 12.6 25.7 11.7 24.3 11.7ZM23.7 16.4C22.6 16.4 22 15.8 22 14.8C22 13.4 23 12.3 24.3 12.3C25.4 12.3 26 12.9 26 13.9C26 15.4 25 16.4 23.7 16.4ZM23.2 18C22.9 18 22.7 18.2 22.7 18.5C22.7 18.7 22.8 18.9 23.1 18.9C23.4 18.9 23.6 18.7 23.6 18.4C23.6 18.2 23.4 18 23.2 18Z" fill="#CBD5E1"/>
<path d="M31.9 12.3H33.5L33.6 11.7H32L32.2 10.6H31.5L31.3 11.7H30.4L30.3 12.3H31.2L30.6 15.4C30.6 15.5 30.6 15.7 30.6 15.8C30.6 16.6 31.1 17 31.9 17C32.3 17 32.7 16.9 33.1 16.7L32.9 16.2C32.7 16.4 32.4 16.5 32.1 16.5C31.6 16.5 31.3 16.3 31.3 15.8C31.3 15.7 31.3 15.6 31.3 15.5C31.3 15.4 31.9 12.3 31.9 12.3Z" fill="#CBD5E1"/>
<path d="M35.8 12.7L36 11.7H35.3L34.3 17H35L35.5 14.3C35.8 13 36.5 12.4 37.6 12.4C37.7 12.4 37.7 12.4 37.8 12.4L37.9 11.7C36.9 11.7 36.2 12 35.8 12.7Z" fill="#CBD5E1"/>
<path d="M39.7 10.9H40.4L39.3 9.70001H38.4L39.7 10.9ZM38.2 17H38.9L39.9 11.7H39.2L38.2 17Z" fill="#CBD5E1"/>
<path d="M44.5 11.7C43.7 11.7 43 12 42.4 12.6L42.6 11.8H41.9L40.9 17.1H41.6L42.2 14.3C42.4 13.1 43.2 12.5 44.3 12.5C45.2 12.5 45.7 12.9 45.7 13.7C45.7 13.8 45.7 14 45.7 14.2L45 17H45.7L46.3 14C46.3 13.8 46.4 13.6 46.4 13.4C46.3 12.3 45.6 11.7 44.5 11.7Z" fill="#CBD5E1"/>
<path d="M51.2 11.7C50.4 11.7 49.7 12 49.2 12.5L49.8 9.60001H49.1L47.6 17H48.3L48.9 14.2C49.1 13 49.9 12.4 51 12.4C51.9 12.4 52.4 12.8 52.4 13.6C52.4 13.7 52.4 13.9 52.4 14.1L51.8 17.1H52.5L53.1 14.1C53.1 13.9 53.2 13.7 53.2 13.5C53.1 12.3 52.4 11.7 51.2 11.7Z" fill="#CBD5E1"/>
<path d="M60.6 11.7C59.8 11.7 59.1 12 58.6 12.5L59.2 9.60001H58.5L57 17H57.7L58.3 14.2C58.5 13 59.3 12.4 60.4 12.4C61.3 12.4 61.8 12.8 61.8 13.6C61.8 13.7 61.8 13.9 61.8 14.1L61.2 17.1H61.9L62.5 14.1C62.5 13.9 62.6 13.7 62.6 13.5C62.5 12.3 61.8 11.7 60.6 11.7Z" fill="#CBD5E1"/>
<path d="M66.1 17C67.9 17 69.1 15.7 69.1 13.9C69.1 12.5 68.2 11.7 66.7 11.7C64.9 11.7 63.7 13 63.7 14.8C63.7 16.2 64.7 17 66.1 17ZM66.2 16.4C65.1 16.4 64.5 15.8 64.5 14.8C64.5 13.4 65.5 12.3 66.8 12.3C67.9 12.3 68.5 12.9 68.5 13.9C68.5 15.4 67.5 16.4 66.2 16.4ZM65.6 18.9C65.9 18.9 66.1 18.7 66.1 18.4C66.1 18.2 65.9 18 65.7 18C65.4 18 65.2 18.2 65.2 18.5C65.2 18.7 65.3 18.9 65.6 18.9Z" fill="#CBD5E1"/>
<path d="M72.4 17C73.3 17 74.1 16.6 74.6 16L74.1 15.6C73.7 16.1 73.1 16.4 72.4 16.4C71.3 16.4 70.6 15.8 70.6 14.8C70.6 13.4 71.6 12.3 72.9 12.3C73.6 12.3 74.1 12.6 74.4 13.1L75 12.7C74.6 12 73.9 11.6 72.9 11.6C71.1 11.6 69.8 12.9 69.8 14.7C70 16.2 70.9 17 72.4 17Z" fill="#CBD5E1"/>
<path d="M80.1 12.3H81.7L81.8 11.7H80.2L80.4 10.6H79.7L79.5 11.7H78.6L78.5 12.3H79.4L78.8 15.4C78.8 15.5 78.8 15.7 78.8 15.8C78.8 16.6 79.3 17 80.1 17C80.5 17 80.9 16.9 81.3 16.7L81 16.2C80.8 16.4 80.5 16.5 80.2 16.5C79.7 16.5 79.4 16.3 79.4 15.8C79.4 15.7 79.4 15.6 79.4 15.5C79.4 15.4 80.1 12.3 80.1 12.3Z" fill="#CBD5E1"/>
<path d="M85.8 10.1L86.7 10.9H87.3L86.1 9.70001H85.4L84 10.9H84.7L85.8 10.1ZM87.3 11.7L87.1 12.8C86.8 12.1 86.1 11.7 85.1 11.7C83.4 11.7 82.1 13 82.1 14.8C82.1 16.2 83 17 84.4 17C85.2 17 86 16.7 86.5 16.1L86.3 17H87L88.1 11.7C88 11.7 87.3 11.7 87.3 11.7ZM84.6 16.4C83.5 16.4 82.9 15.8 82.9 14.8C82.9 13.4 83.9 12.3 85.2 12.3C86.3 12.3 86.9 12.9 86.9 13.9C86.9 15.4 85.9 16.4 84.6 16.4ZM84.3 18C84 18 83.8 18.2 83.8 18.5C83.8 18.7 84 18.9 84.2 18.9C84.5 18.9 84.7 18.7 84.7 18.4C84.6 18.2 84.5 18 84.3 18Z" fill="#CBD5E1"/>
<path d="M92.6 11.7C91.8 11.7 91 12 90.5 12.6L90.7 11.8H90L88.6 19H89.3L89.9 16C90.2 16.7 90.9 17.2 91.9 17.2C93.6 17.2 94.9 15.9 94.9 14.1C94.9 12.5 93.9 11.7 92.6 11.7ZM91.9 16.4C90.8 16.4 90.2 15.8 90.2 14.8C90.2 13.4 91.2 12.3 92.5 12.3C93.6 12.3 94.2 12.9 94.2 13.9C94.1 15.4 93.2 16.4 91.9 16.4Z" fill="#CBD5E1"/>
<path d="M105.5 10.4H104.5L104.7 9.60001H104L103.8 10.4H101.6L101.5 10.9H103.7L103.3 12.8C103 12.1 102.3 11.7 101.3 11.7C99.6 11.7 98.3 13 98.3 14.8C98.3 16.2 99.2 17 100.6 17C101.4 17 102.2 16.7 102.7 16.1L102.5 16.9H103.2L104.4 10.8H105.4C105.4 10.9 105.5 10.4 105.5 10.4ZM100.8 16.4C99.7 16.4 99.1 15.8 99.1 14.8C99.1 13.4 100.1 12.3 101.4 12.3C102.5 12.3 103.1 12.9 103.1 13.9C103 15.4 102.1 16.4 100.8 16.4Z" fill="#CBD5E1"/>
<path d="M109.7 9.20001C109.9 9.20001 110 9.30001 110 9.50001C110 9.70001 109.8 9.90001 109.5 10L109.7 10.2C110.1 10 110.4 9.70001 110.4 9.30001C110.4 8.90001 110.1 8.70001 109.7 8.70001C109.5 8.70001 109.3 8.80001 109 8.90001L109.1 9.20001C109.3 9.20001 109.5 9.20001 109.7 9.20001ZM108.4 10.3L109.3 10.9H110L108.8 10H108.1L106.7 10.9H107.4L108.4 10.3ZM108 11.7C106.3 11.7 105.1 13 105.1 14.8C105.1 16.2 106 17 107.5 17C108.3 17 109.1 16.7 109.6 16.2L109.3 15.7C108.9 16.1 108.3 16.4 107.6 16.4C106.4 16.4 105.8 15.8 105.8 14.8C105.8 14.7 105.8 14.7 105.8 14.6H110.2C110.2 14.4 110.3 14.2 110.3 14C110.3 12.5 109.4 11.7 108 11.7ZM108 12.3C109 12.3 109.7 12.9 109.7 13.9C109.7 14 109.7 14 109.7 14.1H105.9C106.1 13 106.9 12.3 108 12.3Z" fill="#CBD5E1"/>
<path d="M116.2 17C117.1 17 117.9 16.6 118.4 16L117.9 15.6C117.5 16.1 116.9 16.4 116.2 16.4C115.1 16.4 114.4 15.8 114.4 14.8C114.4 13.4 115.4 12.3 116.7 12.3C117.4 12.3 117.9 12.6 118.2 13.1L118.8 12.7C118.4 12 117.7 11.6 116.7 11.6C114.9 11.6 113.6 12.9 113.6 14.7C113.7 16.2 114.7 17 116.2 17Z" fill="#CBD5E1"/>
<path d="M123 11.7C122.2 11.7 121.5 12 121 12.5L121.6 9.60001H120.9L119.4 17H120.1L120.7 14.2C120.9 13 121.7 12.4 122.8 12.4C123.7 12.4 124.2 12.8 124.2 13.6C124.2 13.7 124.2 13.9 124.1 14.1L123.5 17.1H124.2L124.8 14.1C124.8 13.9 124.9 13.7 124.9 13.5C124.8 12.3 124.1 11.7 123 11.7Z" fill="#CBD5E1"/>
<path d="M131.2 11.7L130.6 14.5C130.4 15.7 129.6 16.3 128.5 16.3C127.6 16.3 127.2 15.9 127.2 15.1C127.2 15 127.2 14.8 127.3 14.6L127.9 11.6H127.2L126.6 14.6C126.6 14.8 126.5 15 126.5 15.2C126.5 16.3 127.2 16.9 128.4 16.9C129.2 16.9 129.9 16.6 130.4 16L130.2 16.8H130.9L132 11.5H131.2V11.7Z" fill="#CBD5E1"/>
<path d="M137.7 9.20001C137.9 9.20001 138 9.30001 138 9.50001C138 9.70001 137.9 9.90001 137.5 10L137.7 10.2C138.1 10 138.4 9.70001 138.4 9.30001C138.4 8.90001 138.1 8.70001 137.7 8.70001C137.5 8.70001 137.3 8.80001 137.1 8.90001L137.2 9.20001C137.4 9.20001 137.5 9.20001 137.7 9.20001ZM136.4 10.3L137.3 10.9H138L136.8 10H136.1L134.7 10.9H135.4L136.4 10.3ZM138 11.7L137.8 12.8C137.5 12.1 136.8 11.7 135.8 11.7C134.1 11.7 132.8 13 132.8 14.8C132.8 16.2 133.7 17 135.1 17C136 17 136.7 16.7 137.2 16.1L137 17H137.7L138.8 11.7H138ZM135.2 16.4C134.1 16.4 133.5 15.8 133.5 14.8C133.5 13.4 134.5 12.3 135.8 12.3C136.9 12.3 137.5 12.9 137.5 13.9C137.5 15.4 136.5 16.4 135.2 16.4Z" fill="#CBD5E1"/>
<path d="M143.2 11.7C142.4 11.7 141.6 12 141.1 12.6L141.3 11.8H140.6L139.6 17.1H140.3L140.9 14.3C141.1 13.1 141.9 12.5 143 12.5C143.9 12.5 144.4 12.9 144.4 13.7C144.4 13.8 144.4 14 144.3 14.2L143.7 17.2H144.4L145 14.2C145 14 145.1 13.8 145.1 13.6C145.1 12.3 144.4 11.7 143.2 11.7Z" fill="#CBD5E1"/>
<path d="M152.6 11.7C151.8 11.7 151.1 12 150.6 12.5L151.2 9.60001H150.5L149 17H149.7L149.9 15.9C150.2 16.7 150.9 17.1 151.9 17.1C153.6 17.1 154.9 15.8 154.9 14C154.9 12.5 153.9 11.7 152.6 11.7ZM151.9 16.4C150.8 16.4 150.2 15.8 150.2 14.8C150.2 13.4 151.2 12.3 152.5 12.3C153.6 12.3 154.2 12.9 154.2 13.9C154.2 15.4 153.2 16.4 151.9 16.4Z" fill="#CBD5E1"/>
<path d="M157.5 10.6C157.8 10.6 158.1 10.4 158.1 10C158.1 9.80001 157.9 9.60001 157.6 9.60001C157.3 9.60001 157 9.80001 157 10.1C157 10.4 157.2 10.6 157.5 10.6ZM155.8 17H156.5L157.5 11.7H156.8L155.8 17ZM155.8 18.9C156.1 18.9 156.3 18.7 156.3 18.4C156.3 18.2 156.1 18 155.9 18C155.6 18 155.4 18.2 155.4 18.5C155.4 18.7 155.6 18.9 155.8 18.9Z" fill="#CBD5E1"/>
<path d="M163.5 17C164.4 17 165.2 16.6 165.7 16L165.2 15.6C164.8 16.1 164.2 16.4 163.5 16.4C162.4 16.4 161.7 15.8 161.7 14.8C161.7 13.4 162.7 12.3 164 12.3C164.7 12.3 165.2 12.6 165.5 13.1L166.1 12.7C165.7 12 165 11.6 164 11.6C162.2 11.6 160.9 12.9 160.9 14.7C161 16.2 162 17 163.5 17Z" fill="#CBD5E1"/>
<path d="M170.2 11.7C169.4 11.7 168.7 12 168.2 12.5L168.8 9.60001H168.1L166.6 17H167.3L167.9 14.2C168.1 13 168.9 12.4 170 12.4C170.9 12.4 171.4 12.8 171.4 13.6C171.4 13.7 171.4 13.9 171.3 14.1L170.7 17.1H171.4L172 14.1C172 13.9 172.1 13.7 172.1 13.5C172.1 12.3 171.4 11.7 170.2 11.7Z" fill="#CBD5E1"/>
<path d="M175.8 17C177.6 17 178.8 15.7 178.8 13.9C178.8 12.5 177.9 11.7 176.4 11.7C174.6 11.7 173.4 13 173.4 14.8C173.4 16.2 174.3 17 175.8 17ZM175.8 16.4C174.7 16.4 174.1 15.8 174.1 14.8C174.1 13.4 175.1 12.3 176.4 12.3C177.5 12.3 178.1 12.9 178.1 13.9C178.1 15.4 177.1 16.4 175.8 16.4Z" fill="#CBD5E1"/>
<path d="M182.1 18.9H183.9L184 18.3H182.9L184.5 10.1H185.6L185.7 9.5H183.9L182.1 18.9Z" fill="#CBD5E1"/>
<path d="M189 13.2L192.8 10H191.8L186.9 14.2L187.7 10H187L185.6 17H186.3L186.7 15.2L188.4 13.7L190.7 17H191.5L189 13.2Z" fill="#CBD5E1"/>
<path d="M194.2 10.6C194.5 10.6 194.8 10.4 194.8 10C194.8 9.80001 194.6 9.60001 194.3 9.60001C194 9.60001 193.7 9.80001 193.7 10.1C193.7 10.4 193.9 10.6 194.2 10.6ZM192.5 17H193.2L194.2 11.7H193.5L192.5 17Z" fill="#CBD5E1"/>
<path d="M199.7 9.20001C199.9 9.20001 200 9.30001 200 9.50001C200 9.70001 199.9 9.90001 199.5 10L199.7 10.2C200.1 10 200.4 9.70001 200.4 9.30001C200.4 8.90001 200.1 8.70001 199.7 8.70001C199.5 8.70001 199.3 8.80001 199.1 8.90001L199.2 9.20001C199.4 9.20001 199.6 9.20001 199.7 9.20001ZM198.5 10.3L199.4 10.9H200.1L198.9 10H198.2L196.8 10.9H197.5L198.5 10.3ZM198.1 11.7C196.4 11.7 195.2 13 195.2 14.8C195.2 16.2 196.1 17 197.6 17C198.4 17 199.2 16.7 199.7 16.2L199.4 15.7C199 16.1 198.4 16.4 197.7 16.4C196.5 16.4 195.9 15.8 195.9 14.8C195.9 14.7 195.9 14.7 195.9 14.6H200.3C200.3 14.4 200.4 14.2 200.4 14C200.4 12.5 199.5 11.7 198.1 11.7ZM198.1 12.3C199.1 12.3 199.7 12.9 199.7 13.9C199.7 14 199.7 14 199.7 14.1H195.9C196.2 13 197 12.3 198.1 12.3Z" fill="#CBD5E1"/>
<path d="M208.7 11.7C207.8 11.7 207 12.1 206.5 12.8C206.3 12.1 205.7 11.7 204.8 11.7C204 11.7 203.3 12 202.8 12.6L203 11.8H202.3L201.3 17.1H202L202.6 14.3C202.8 13.1 203.6 12.5 204.7 12.5C205.6 12.5 206 12.9 206 13.7C206 13.8 206 14 205.9 14.2L205.3 17.2H206L206.6 14.3C206.8 13.1 207.6 12.5 208.6 12.5C209.5 12.5 209.9 12.9 209.9 13.7C209.9 13.8 209.9 14 209.8 14.2L209.2 17.2H209.9L210.5 14.2C210.5 14 210.6 13.8 210.6 13.6C210.6 12.3 209.9 11.7 208.7 11.7Z" fill="#CBD5E1"/>
<path d="M216.2 12.3H217.8L217.9 11.7H216.3L216.5 10.6H215.8L215.6 11.7H214.7L214.6 12.3H215.5L214.9 15.4C214.9 15.5 214.9 15.7 214.9 15.8C214.9 16.6 215.4 17 216.2 17C216.6 17 217 16.9 217.4 16.7L217.2 16.2C217 16.4 216.7 16.5 216.4 16.5C215.9 16.5 215.6 16.3 215.6 15.8C215.6 15.7 215.6 15.6 215.6 15.5L216.2 12.3Z" fill="#CBD5E1"/>
<path d="M220.1 12.7L220.3 11.7H219.6L218.6 17H219.3L219.8 14.3C220.1 13 220.8 12.4 221.9 12.4C222 12.4 222 12.4 222.1 12.4L222.2 11.7C221.2 11.7 220.5 12 220.1 12.7Z" fill="#CBD5E1"/>
<path d="M227.6 11.7L227.4 12.8C227.1 12.1 226.4 11.7 225.4 11.7C223.7 11.7 222.4 13 222.4 14.8C222.4 16.2 223.3 17 224.7 17C225.6 17 226.3 16.7 226.8 16.1L226.6 16.9H227.3L228.4 11.6H227.6V11.7ZM224.8 16.4C223.7 16.4 223.1 15.8 223.1 14.8C223.1 13.4 224.1 12.3 225.4 12.3C226.5 12.3 227.1 12.9 227.1 13.9C227.1 15.4 226.1 16.4 224.8 16.4Z" fill="#CBD5E1"/>
<path d="M232.3 10L232.2 10.6H233.8L232.5 17H233.2L234.6 10H232.3Z" fill="#CBD5E1"/>
<path d="M239.8 12.3H241.4L241.5 11.7H239.9L240.1 10.6H239.4L239.2 11.7H238.3L238.2 12.3H239.1L238.5 15.4C238.5 15.5 238.5 15.7 238.5 15.8C238.5 16.6 239 17 239.8 17C240.2 17 240.6 16.9 241 16.7L240.8 16.2C240.6 16.4 240.3 16.5 240 16.5C239.5 16.5 239.2 16.3 239.2 15.8C239.2 15.7 239.2 15.6 239.2 15.5L239.8 12.3Z" fill="#CBD5E1"/>
<path d="M243.8 10.6C244.1 10.6 244.4 10.4 244.4 10C244.4 9.80001 244.2 9.60001 243.9 9.60001C243.6 9.60001 243.3 9.80001 243.3 10.1C243.3 10.4 243.5 10.6 243.8 10.6ZM242.1 17H242.8L243.8 11.7H243.1L242.1 17Z" fill="#CBD5E1"/>
<path d="M251.1 9H250.2L248.9 10.1H249.6L251.1 9ZM248.1 10.4L249 11H249.7L248.5 10.1H247.8L246.4 11H247.1L248.1 10.4ZM247.7 11.7C246 11.7 244.8 13 244.8 14.8C244.8 16.2 245.7 17 247.2 17C248 17 248.8 16.7 249.3 16.2L249 15.7C248.6 16.1 248 16.4 247.3 16.4C246.1 16.4 245.5 15.8 245.5 14.8C245.5 14.7 245.5 14.7 245.5 14.6H249.9C249.9 14.4 250 14.2 250 14C249.9 12.5 249 11.7 247.7 11.7ZM247.6 12.3C248.6 12.3 249.2 12.9 249.2 13.9C249.2 14 249.2 14 249.2 14.1H245.4C245.8 13 246.6 12.3 247.6 12.3Z" fill="#CBD5E1"/>
<path d="M252.6 12.3H254.2L254.3 11.7H252.7L252.9 10.6H252.2L252 11.7H251L250.9 12.3H251.8L251.2 15.4C251.2 15.5 251.2 15.7 251.2 15.8C251.2 16.6 251.7 17 252.5 17C252.9 17 253.3 16.9 253.7 16.7L253.5 16.2C253.3 16.4 253 16.5 252.7 16.5C252.2 16.5 251.9 16.3 251.9 15.8C251.9 15.7 251.9 15.6 251.9 15.5L252.6 12.3Z" fill="#CBD5E1"/>
<path d="M259 17H259.7L261 10.6H263.5L263.6 10H257.9L257.8 10.6H260.3L259 17Z" fill="#CBD5E1"/>
<path d="M264.8 10.6C265.1 10.6 265.4 10.4 265.4 10C265.4 9.80001 265.2 9.60001 264.9 9.60001C264.6 9.60001 264.4 9.80001 264.4 10.1C264.3 10.4 264.5 10.6 264.8 10.6ZM263.1 17H263.8L264.8 11.7H264.1L263.1 17Z" fill="#CBD5E1"/>
<path d="M272.1 9H271.2L269.9 10.1H270.6L272.1 9ZM269.1 10.4L270 11H270.7L269.5 10.1H268.8L267.4 11H268.1L269.1 10.4ZM268.6 11.7C266.9 11.7 265.7 13 265.7 14.8C265.7 16.2 266.6 17 268.2 17C269 17 269.8 16.7 270.3 16.2L270 15.7C269.6 16.1 269 16.4 268.3 16.4C267.1 16.4 266.5 15.8 266.5 14.8C266.5 14.7 266.5 14.7 266.5 14.6H270.9C270.9 14.4 271 14.2 271 14C270.9 12.5 270 11.7 268.6 11.7ZM268.6 12.3C269.6 12.3 270.2 12.9 270.2 13.9C270.2 14 270.2 14 270.2 14.1H266.4C266.8 13 267.6 12.3 268.6 12.3Z" fill="#CBD5E1"/>
<path d="M275.4 11.7C274.6 11.7 273.9 12 273.3 12.6L273.5 11.8H272.8L271.8 17.1H272.5L273.1 14.3C273.3 13.1 274.1 12.5 275.2 12.5C276.1 12.5 276.6 12.9 276.6 13.7C276.6 13.8 276.6 14 276.6 14.2L276 17.2H276.7L277.3 14.2C277.3 14 277.4 13.8 277.4 13.6C277.3 12.3 276.6 11.7 275.4 11.7Z" fill="#CBD5E1"/>
<path d="M283.9 11.7L283.7 12.9C283.4 12.1 282.6 11.7 281.7 11.7C279.9 11.7 278.7 13 278.7 14.7C278.7 16 279.6 16.8 281 16.8C281.9 16.8 282.6 16.5 283.1 15.9L283 16.5C282.8 17.8 282 18.4 280.7 18.4C279.9 18.4 279.2 18.1 278.7 17.7L278.3 18.2C278.8 18.7 279.7 19 280.6 19C282.3 19 283.3 18.2 283.7 16.4L284.6 11.8L283.9 11.7ZM281 16.2C279.9 16.2 279.3 15.6 279.3 14.7C279.3 13.4 280.3 12.4 281.6 12.4C282.7 12.4 283.3 13 283.3 13.9C283.3 15.2 282.4 16.2 281 16.2Z" fill="#CBD5E1"/>
<path d="M293.5 17H294.2L292.4 10H291.7L287.1 17H287.9L289.1 15.1H293L293.5 17ZM289.5 14.5L291.9 10.7L292.9 14.5H289.5Z" fill="#CBD5E1"/>
<path d="M298.9 11.7C298.1 11.7 297.4 12 296.8 12.6L297 11.8H296.3L295.3 17.1H296L296.6 14.3C296.8 13.1 297.6 12.5 298.7 12.5C299.6 12.5 300.1 12.9 300.1 13.7C300.1 13.8 300.1 14 300.1 14.2L299.5 17.2H300.2L300.8 14.2C300.8 14 300.9 13.8 300.9 13.6C300.7 12.3 300 11.7 298.9 11.7Z" fill="#CBD5E1"/>
<path d="M305.6 11.7C304.8 11.7 304.1 12 303.6 12.5L304.2 9.60001H303.5L302 17H302.7L303.3 14.2C303.5 13 304.3 12.4 305.4 12.4C306.3 12.4 306.8 12.8 306.8 13.6C306.8 13.7 306.8 13.9 306.8 14.1L306.2 17.1H306.9L307.5 14.1C307.5 13.9 307.6 13.7 307.6 13.5C307.5 12.3 306.8 11.7 305.6 11.7Z" fill="#CBD5E1"/>
<path d="M309.5 18.9L311.4 9.5H309.6L309.5 10.1H310.6L309 18.3H307.9L307.8 18.9H309.5Z" fill="#CBD5E1"/>
<path d="M334 37L335.4 30H336.5L338.5 35.1H338L342 30H343.1L341.7 37H340.5L341.5 31.9H341.8L338.4 36.2H337.8L336 31.9H336.2L335.2 37H334V37Z" fill="#1E293B"/>
<path d="M345.7 37.1C345.2 37.1 344.9 37 344.6 36.8C344.3 36.6 344.1 36.3 343.9 36C343.8 35.6 343.8 35.2 343.9 34.7L344.5 31.7H345.7L345.1 34.6C345 35 345.1 35.4 345.2 35.6C345.4 35.8 345.7 36 346.1 36C346.5 36 346.9 35.9 347.2 35.6C347.5 35.4 347.7 35 347.8 34.4L348.4 31.6H349.6L348.5 36.9H347.3L347.6 35.4L347.8 35.9C347.6 36.3 347.2 36.6 346.8 36.7C346.6 37 346.2 37.1 345.7 37.1ZM345.6 39C345.4 39 345.3 39 345.2 38.8C345.1 38.7 345.1 38.6 345.1 38.4C345.1 38.2 345.2 38.1 345.3 37.9C345.4 37.7 345.6 37.7 345.8 37.7C345.9 37.7 346.1 37.7 346.2 37.8C346.3 37.9 346.4 38 346.4 38.2C346.4 38.4 346.3 38.6 346.2 38.7C346 39 345.8 39 345.6 39Z" fill="#1E293B"/>
<path d="M352.9 37.1C352.4 37.1 351.9 37 351.5 36.8C351.1 36.6 350.8 36.3 350.6 36C350.4 35.7 350.3 35.2 350.3 34.8C350.3 34.2 350.4 33.7 350.7 33.2C351 32.7 351.3 32.4 351.8 32.1C352.3 31.8 352.8 31.7 353.5 31.7C354 31.7 354.5 31.8 354.9 32C355.3 32.2 355.6 32.5 355.8 32.9L354.7 33.4C354.6 33.2 354.4 33 354.2 32.8C354 32.7 353.7 32.6 353.4 32.6C353 32.6 352.7 32.7 352.5 32.9C352.3 33.1 352 33.3 351.8 33.6C351.6 33.9 351.6 34.3 351.6 34.6C351.6 35 351.7 35.3 352 35.6C352.2 35.8 352.6 36 353 36C353.3 36 353.6 35.9 353.8 35.8C354 35.7 354.3 35.5 354.4 35.2L355.3 35.8C355.1 36.2 354.7 36.5 354.3 36.7C353.9 37 353.4 37.1 352.9 37.1Z" fill="#1E293B"/>
<path d="M360.8 37.1C360.4 37.1 360.2 37 359.9 36.9C359.6 36.8 359.5 36.5 359.4 36.3C359.3 36 359.3 35.7 359.4 35.3L360.4 30.6H361.6L360.6 35.3C360.6 35.5 360.6 35.8 360.7 35.9C360.8 36.1 361 36.1 361.2 36.1C361.3 36.1 361.4 36.1 361.6 36.1C361.7 36.1 361.8 36 361.9 35.9L362.1 36.8C361.9 36.9 361.7 37 361.5 37C361.2 37 361 37.1 360.8 37.1ZM359 32.7L359.2 31.7H362.7L362.5 32.7H359Z" fill="#1E293B"/>
<path d="M363 37L364.1 31.7H365.3L364.2 37H363ZM365 30.8C364.8 30.8 364.6 30.7 364.5 30.6C364.4 30.5 364.3 30.3 364.3 30.1C364.3 29.9 364.4 29.7 364.5 29.5C364.7 29.4 364.9 29.3 365.1 29.3C365.3 29.3 365.5 29.4 365.6 29.5C365.7 29.6 365.8 29.8 365.8 30C365.8 30.2 365.7 30.5 365.6 30.6C365.5 30.7 365.3 30.8 365 30.8Z" fill="#1E293B"/>
<path d="M368.6 37.1C368.1 37.1 367.6 37 367.2 36.8C366.8 36.6 366.5 36.3 366.3 36C366.1 35.7 366 35.2 366 34.8C366 34.2 366.1 33.7 366.4 33.2C366.7 32.7 367 32.4 367.5 32.1C368 31.8 368.5 31.7 369.1 31.7C369.6 31.7 370 31.8 370.4 32C370.8 32.2 371 32.5 371.3 32.8C371.5 33.1 371.6 33.6 371.6 34C371.6 34.1 371.6 34.3 371.6 34.4C371.6 34.5 371.6 34.7 371.5 34.8H367L367.1 34H370.9L370.4 34.3C370.4 34 370.4 33.7 370.3 33.5C370.2 33.3 370 33.1 369.8 33C369.6 32.9 369.3 32.8 369 32.8C368.6 32.8 368.3 32.9 368 33.1C367.7 33.3 367.5 33.5 367.4 33.8C367.3 34.1 367.2 34.5 367.2 34.9C367.2 35.3 367.3 35.7 367.6 35.9C367.9 36.1 368.2 36.2 368.8 36.2C369.1 36.2 369.4 36.2 369.7 36.1C370 36 370.2 35.9 370.4 35.7L370.9 36.6C370.6 36.8 370.3 37 369.9 37.2C369.4 37 369 37.1 368.6 37.1ZM367.5 30.9L369 29.5H370.1L371.3 30.9H370.3L369.1 29.8H370.1L368.6 30.9H367.5Z" fill="#1E293B"/>
<path d="M374.4 37.1C373.9 37.1 373.6 37 373.3 36.8C373 36.6 372.8 36.3 372.6 36C372.5 35.6 372.5 35.2 372.6 34.7L373.2 31.7H374.4L373.8 34.6C373.7 35 373.8 35.4 373.9 35.6C374.1 35.8 374.4 36 374.8 36C375.2 36 375.6 35.9 375.9 35.6C376.2 35.4 376.4 35 376.5 34.4L377.1 31.6H378.3L377.2 36.9H376L376.3 35.4L376.5 35.9C376.3 36.3 375.9 36.6 375.5 36.7C375.3 37 374.9 37.1 374.4 37.1Z" fill="#1E293B"/>
<path d="M337.7 49.1C337.2 49.1 336.7 49 336.3 48.8C335.9 48.6 335.6 48.3 335.4 48C335.2 47.7 335.1 47.2 335.1 46.8C335.1 46.2 335.2 45.7 335.5 45.2C335.8 44.7 336.1 44.4 336.6 44.1C337.1 43.8 337.6 43.7 338.3 43.7C338.8 43.7 339.3 43.8 339.7 44C340.1 44.2 340.4 44.5 340.6 44.9L339.5 45.4C339.4 45.2 339.2 45 339 44.8C338.8 44.7 338.5 44.6 338.2 44.6C337.8 44.6 337.5 44.7 337.3 44.9C337.1 45.1 336.8 45.3 336.6 45.6C336.4 45.9 336.4 46.3 336.4 46.6C336.4 47 336.5 47.3 336.8 47.6C337 47.8 337.4 48 337.8 48C338.1 48 338.4 47.9 338.6 47.8C338.8 47.7 339.1 47.5 339.2 47.2L340.1 47.8C339.9 48.2 339.5 48.5 339.1 48.7C338.7 49 338.2 49.1 337.7 49.1Z" fill="#1E293B"/>
<path d="M343.1 49.1C342.6 49.1 342.3 49 342 48.8C341.7 48.6 341.5 48.3 341.3 48C341.2 47.6 341.2 47.2 341.3 46.7L341.9 43.7H343.1L342.5 46.6C342.4 47 342.5 47.4 342.6 47.6C342.8 47.8 343.1 48 343.5 48C343.9 48 344.3 47.9 344.6 47.6C344.9 47.4 345.1 47 345.2 46.4L345.8 43.6H347L346 49H344.8L345.1 47.5L345.3 48C345.1 48.4 344.7 48.7 344.3 48.8C344 49 343.5 49.1 343.1 49.1ZM344.9 43L344.6 42.5C344.8 42.4 345 42.3 345.1 42.2C345.2 42.1 345.2 42 345.2 41.8C345.2 41.7 345.2 41.6 345.1 41.5C345 41.4 344.9 41.4 344.8 41.4C344.6 41.4 344.4 41.5 344.2 41.6L344 41C344.1 40.9 344.3 40.8 344.5 40.8C344.7 40.8 344.9 40.7 345 40.7C345.3 40.7 345.5 40.8 345.7 40.9C345.9 41.1 346 41.3 346 41.5C346 41.8 345.9 42 345.7 42.3C345.5 42.7 345.2 42.9 344.9 43Z" fill="#1E293B"/>
<path d="M350 49.1C349.6 49.1 349.2 49 348.8 48.8C348.4 48.6 348.2 48.3 347.9 48C347.6 47.7 347.6 47.2 347.6 46.7C347.6 46.2 347.7 45.8 347.8 45.5C347.9 45.2 348.2 44.8 348.4 44.5C348.7 44.2 349 44 349.4 43.8C349.8 43.6 350.2 43.6 350.6 43.6C351 43.6 351.4 43.7 351.7 43.8C352 44 352.3 44.2 352.4 44.5C352.6 44.8 352.6 45.2 352.6 45.7C352.6 46.4 352.5 46.9 352.2 47.4C352 47.9 351.7 48.3 351.2 48.6C350.7 48.9 350.6 49.1 350 49.1ZM350.4 48C350.8 48 351.1 47.9 351.4 47.8C351.7 47.6 351.9 47.4 352 47.1C352.1 46.8 352.2 46.4 352.2 46.1C352.2 45.7 352.1 45.4 351.8 45.1C351.6 44.9 351.2 44.7 350.8 44.7C350.4 44.7 350.1 44.8 349.8 45C349.5 45.2 349.3 45.4 349.2 45.7C349.1 46 349 46.4 349 46.7C349 47.1 349.1 47.4 349.4 47.7C349.6 47.9 349.9 48 350.4 48ZM351.7 49L351.9 47.8L352.2 46.4L352.4 45L352.6 43.7H353.8L352.7 49C352.7 49 351.7 49 351.7 49Z" fill="#1E293B"/>
<path d="M357.2 49L358.7 41.6H359.9L359.2 44.9L358.8 46.3L358.6 47.6L358.3 49.1L357.2 49ZM360.5 49.1C360.1 49.1 359.7 49 359.4 48.9C359.1 48.7 358.8 48.5 358.7 48.2C358.5 47.9 358.4 47.5 358.4 47.1C358.4 46.6 358.5 46.1 358.6 45.7C358.7 45.3 358.9 44.9 359.1 44.6C359.3 44.3 359.6 44.1 360 43.9C360.4 43.7 360.7 43.7 361.2 43.7C361.7 43.7 362 43.8 362.4 44C362.8 44.2 363 44.5 363.2 44.8C363.4 45.1 363.5 45.6 363.5 46.1C363.5 46.6 363.4 47 363.3 47.3C363.2 47.7 362.9 48 362.7 48.3C362.4 48.6 362.1 48.8 361.7 49C361.3 49 360.9 49.1 360.5 49.1ZM360.4 48C360.8 48 361.1 47.9 361.4 47.8C361.7 47.6 361.9 47.4 362 47.1C362.1 46.8 362.2 46.4 362.2 46.1C362.2 45.7 362.1 45.4 361.8 45.1C361.6 44.9 361.2 44.7 360.8 44.7C360.4 44.7 360.1 44.8 359.8 45C359.5 45.2 359.3 45.4 359.2 45.7C359.1 46 359 46.4 359 46.7C359 47.1 359.1 47.4 359.4 47.7C359.6 47.9 359.9 48 360.4 48Z" fill="#1E293B"/>
<path d="M366.5 49.1C366.1 49.1 365.7 49 365.3 48.8C364.9 48.6 364.7 48.3 364.4 48C364.1 47.7 364.1 47.2 364.1 46.7C364.1 46.2 364.2 45.8 364.3 45.5C364.4 45.2 364.7 44.8 364.9 44.5C365.2 44.2 365.5 44 365.9 43.8C366.3 43.6 366.7 43.6 367.1 43.6C367.5 43.6 367.9 43.7 368.2 43.8C368.5 44 368.8 44.2 368.9 44.5C369.1 44.8 369.1 45.2 369.1 45.7C369.1 46.4 369 46.9 368.7 47.4C368.5 47.9 368.2 48.3 367.7 48.6C367.2 48.9 367.1 49.1 366.5 49.1ZM366.8 48C367.2 48 367.5 47.9 367.8 47.8C368.1 47.6 368.3 47.4 368.4 47.1C368.5 46.8 368.6 46.4 368.6 46.1C368.6 45.7 368.5 45.4 368.2 45.1C368 44.9 367.6 44.7 367.2 44.7C366.8 44.7 366.5 44.8 366.2 45C365.9 45.2 365.7 45.4 365.6 45.7C365.5 46 365.4 46.4 365.4 46.7C365.4 47.1 365.5 47.4 365.8 47.7C366 47.9 366.4 48 366.8 48ZM368.1 49L368.3 47.8L368.6 46.4L368.8 45L369 43.7H370.2L369.1 49C369.1 49 368.1 49 368.1 49ZM366.4 51C366.2 51 366.1 51 366 50.8C365.9 50.7 365.9 50.6 365.9 50.4C365.9 50.2 366 50.1 366.1 49.9C366.2 49.7 366.4 49.7 366.6 49.7C366.7 49.7 366.9 49.7 367 49.8C367.1 49.9 367.2 50 367.2 50.2C367.2 50.4 367.1 50.6 367 50.7C366.7 51 366.6 51 366.4 51Z" fill="#1E293B"/>
<path d="M374.9 43.6C375.4 43.6 375.8 43.7 376.1 43.9C376.4 44.1 376.6 44.4 376.8 44.7C376.9 45.1 376.9 45.5 376.8 46L376.2 49H375L375.6 46.1C375.7 45.7 375.6 45.3 375.5 45.1C375.3 44.9 375 44.7 374.6 44.7C374.2 44.7 373.8 44.8 373.5 45.1C373.2 45.3 373 45.7 372.9 46.3L372.3 49.1H371L372.1 43.8H373.3L373 45.3L372.8 44.8C373 44.4 373.4 44.1 373.8 44C374.1 43.7 374.5 43.6 374.9 43.6Z" fill="#1E293B"/>
<path d="M48.5 138C33.3 136 20.8 140.2 16.5 142.5C8.5 145.5 41.5 148.5 64.5 147.5C87.5 146.5 67.5 140.5 48.5 138Z" fill="#FB923C"/>
<path d="M282.2 305.5C267 303.5 254.5 307.7 250.2 310C242.2 313 275.2 316 298.2 315C321.2 314 301.2 308 282.2 305.5Z" fill="#FB923C"/>
<path d="M139.2 105.3C129.5 104.1 121.5 106.6 118.8 107.9C113.7 109.6 134.8 111.4 149.4 110.8C164.1 110.3 151.3 106.8 139.2 105.3Z" fill="#FB923C"/>
<g clip-path="url(#clip0_555_404)">
<path d="M-30.58 326.6C-30.58 326.6 2.74 230.61 65.7 221.01C133 210.75 225.28 232.89 234.26 208.59C243.86 182.61 137.41 149.58 168.19 139.7C204.78 127.95 349.76 159.92 361.32 147.98C381.37 127.27 253.27 99.42 280.38 93.02C307.49 86.62 366.58 106.07 371.49 99.42C375.64 93.79 350 81.81 350 81.81L354.83 81.04C354.83 81.04 419.96 112.59 337 100.17C265.32 89.44 406.12 133.68 390.69 157.77C375.26 181.86 162.55 130.29 217.89 163.42C273.23 196.55 340.12 245.4 229.18 237.96C128.1 231.18 41.7 275.51 75.02 326.61H-30.58V326.6Z" fill="#FFCB97"/>
</g>
<g clip-path="url(#clip1_555_404)">
<path d="M-30.58 326.6L346.86 81.47L351.65 81.81L75.02 326.6H-30.58Z" fill="#FFEDD5"/>
</g>
<path d="M50.1 295.9C53.8 295.9 56.7 294 56.7 291.8C56.7 289.6 53.7 287.7 50.1 287.7C46.5 287.7 43.5 289.6 43.5 291.8C43.5 294 46.4 295.9 50.1 295.9Z" fill="#1E293B"/>
<path fill-rule="evenodd" clip-rule="evenodd" d="M50.1 259.2C45.2 259.2 41.1 263.4 41.1 268.8C41.1 270 41.6 271.4 42.5 273C43.4 274.6 44.7 276.2 45.9 277.6C47.2 279.1 48.4 280.3 49.4 281.2C49.7 281.5 49.9 281.7 50.1 281.9C50.3 281.7 50.6 281.5 50.8 281.2C51.8 280.3 53 279 54.3 277.6C55.6 276.1 56.8 274.6 57.7 273C58.6 271.4 59.1 269.9 59.1 268.8C59.1 263.4 55 259.2 50.1 259.2ZM50.1 283.7C49.5 284.3 49.3 284.7 49.3 284.7C49.3 284.7 49.3 284.7 49.2 284.6C49.1 284.5 49 284.4 48.9 284.3C48.6 284 48.2 283.7 47.7 283.2C46.7 282.3 45.4 280.9 44.1 279.4C42.8 277.9 41.4 276.1 40.4 274.4C39.4 272.6 38.6 270.7 38.6 268.9C38.6 262.2 43.7 256.7 50.2 256.7C56.7 256.7 61.8 262.2 61.8 268.9C61.8 270.7 61 272.7 60 274.4C59 276.2 57.6 277.9 56.3 279.4C55 280.9 53.6 282.3 52.7 283.2C52.2 283.7 51.8 284.1 51.5 284.3C51.3 284.4 51.2 284.5 51.2 284.6L51.1 284.7L50.1 283.7ZM50.1 283.7L50.9 284.7L50.1 285.4L49.3 284.7L50.1 283.7ZM50.1 264.2C48.3 264.2 46.8 265.7 46.8 267.6C46.8 269.5 48.3 271 50.1 271C51.9 271 53.4 269.5 53.4 267.6C53.4 265.7 51.9 264.2 50.1 264.2ZM44.2 267.6C44.2 264.3 46.8 261.6 50.1 261.6C53.4 261.6 56 264.3 56 267.6C56 270.9 53.4 273.6 50.1 273.6C46.8 273.6 44.2 270.8 44.2 267.6Z" fill="#1E293B"/>
<path d="M24.6 309.6L26 302.6H29.2C29.9 302.6 30.5 302.7 30.9 303C31.3 303.3 31.5 303.7 31.5 304.2C31.5 304.6 31.4 305 31.2 305.3C31 305.6 30.7 305.8 30.3 306C29.9 306.2 29.6 306.2 29.2 306.2L29.4 305.9C29.9 305.9 30.4 306 30.7 306.3C31 306.6 31.2 306.9 31.2 307.4C31.2 307.9 31.1 308.3 30.8 308.6C30.5 308.9 30.2 309.2 29.7 309.3C29.2 309.5 28.7 309.5 28.1 309.5L24.6 309.6ZM26.1 308.6H28.2C28.7 308.6 29.2 308.5 29.5 308.3C29.8 308.1 30 307.8 30 307.4C30 307.1 29.9 306.9 29.7 306.8C29.5 306.7 29.2 306.6 28.8 306.6H26.5L26.7 305.6H28.7C29 305.6 29.3 305.6 29.5 305.5C29.7 305.4 29.9 305.3 30.1 305.1C30.2 304.9 30.3 304.7 30.3 304.5C30.3 304.2 30.2 304 30 303.9C29.8 303.8 29.5 303.7 29.1 303.7H27C27 303.6 26.1 308.6 26.1 308.6Z" fill="#1E293B"/>
<path d="M34.4 309.7C34 309.7 33.6 309.6 33.2 309.4C32.9 309.2 32.6 308.9 32.4 308.6C32.2 308.2 32.1 307.8 32.1 307.3C32.1 306.8 32.2 306.4 32.3 306.1C32.4 305.7 32.7 305.4 32.9 305.1C33.1 304.8 33.5 304.6 33.9 304.5C34.3 304.4 34.7 304.3 35.1 304.3C35.5 304.3 35.9 304.4 36.2 304.5C36.5 304.7 36.8 304.9 36.9 305.2C37.1 305.5 37.1 305.9 37.1 306.4C37.1 307.1 37 307.6 36.7 308.1C36.5 308.6 36.2 309 35.7 309.2C35.2 309.4 35 309.7 34.4 309.7ZM34.8 308.6C35.2 308.6 35.5 308.5 35.8 308.4C36.1 308.3 36.3 308 36.4 307.7C36.5 307.4 36.6 307.1 36.6 306.7C36.6 306.3 36.5 306 36.2 305.7C36 305.5 35.6 305.3 35.2 305.3C34.8 305.3 34.5 305.4 34.2 305.6C33.9 305.8 33.7 306 33.5 306.3C33.3 306.6 33.3 306.9 33.3 307.3C33.3 307.7 33.4 308 33.7 308.3C34 308.5 34.3 308.6 34.8 308.6ZM36.1 309.6L36.3 308.4L36.6 307L36.8 305.6L37 304.3H38.2L37.1 309.6H36.1V309.6ZM34.3 311.6C34.1 311.6 34 311.6 33.9 311.5C33.8 311.4 33.8 311.3 33.8 311.1C33.8 310.9 33.9 310.8 34 310.6C34.1 310.5 34.3 310.4 34.5 310.4C34.7 310.4 34.8 310.4 34.9 310.5C35 310.6 35.1 310.7 35.1 310.9C35.1 311.1 35 311.3 34.9 311.4C34.6 311.6 34.5 311.6 34.3 311.6Z" fill="#1E293B"/>
<path d="M42.9 304.2C43.4 304.2 43.7 304.3 44.1 304.5C44.5 304.7 44.6 305 44.8 305.3C44.9 305.7 45 306.1 44.8 306.6L44.2 309.6H43L43.6 306.7C43.7 306.3 43.6 305.9 43.5 305.7C43.3 305.5 43 305.3 42.6 305.3C42.2 305.3 41.8 305.4 41.5 305.7C41.2 306 41 306.3 40.9 306.9L40.3 309.7H39.1L40.2 304.4H41.4L41.1 305.9L40.9 305.4C41.1 305 41.5 304.7 41.9 304.6C42 304.3 42.4 304.2 42.9 304.2Z" fill="#1E293B"/>
<path d="M50.9 309.7C50.5 309.7 50.1 309.6 49.7 309.4C49.3 309.2 49.1 308.9 48.9 308.6C48.7 308.2 48.6 307.8 48.6 307.3C48.6 306.8 48.7 306.4 48.8 306.1C48.9 305.8 49.2 305.4 49.4 305.1C49.6 304.8 50 304.6 50.4 304.5C50.8 304.4 51.2 304.3 51.6 304.3C52 304.3 52.4 304.4 52.7 304.5C53 304.6 53.3 304.9 53.4 305.2C53.6 305.5 53.7 305.9 53.7 306.3C53.7 306.8 53.6 307.3 53.5 307.7C53.4 308.1 53.2 308.5 53 308.8C52.8 309.1 52.5 309.3 52.1 309.5C51.8 309.6 51.4 309.7 50.9 309.7ZM51.2 308.6C51.5 308.6 51.9 308.5 52.1 308.4C52.4 308.2 52.6 308 52.8 307.7C53 307.4 53 307.1 53 306.7C53 306.3 52.9 306 52.6 305.7C52.4 305.5 52 305.3 51.6 305.3C51.3 305.3 50.9 305.4 50.7 305.6C50.5 305.8 50.2 306 50 306.3C49.8 306.6 49.8 306.9 49.8 307.3C49.8 307.7 49.9 308 50.2 308.3C50.4 308.5 50.8 308.6 51.2 308.6ZM52.5 309.6L52.7 308.4L53 307L53.2 305.6L53.9 302.2H55.1L53.6 309.6H52.5V309.6ZM51.7 303.6L51.9 302.8H55.9L55.7 303.6H51.7Z" fill="#1E293B"/>
<path d="M57.8 309.7C57.4 309.7 57 309.6 56.6 309.4C56.3 309.2 56 308.9 55.8 308.6C55.6 308.2 55.5 307.8 55.5 307.3C55.5 306.8 55.6 306.4 55.7 306.1C55.8 305.8 56.1 305.4 56.3 305.1C56.5 304.8 56.9 304.6 57.3 304.5C57.7 304.4 58.1 304.3 58.5 304.3C58.9 304.3 59.3 304.4 59.7 304.5C60 304.7 60.3 304.9 60.4 305.2C60.6 305.5 60.6 305.9 60.6 306.4C60.6 307.1 60.5 307.6 60.2 308.1C60 308.6 59.7 309 59.2 309.2C58.7 309.4 58.3 309.7 57.8 309.7ZM58.1 308.6C58.5 308.6 58.8 308.5 59.1 308.4C59.4 308.3 59.6 308 59.8 307.7C60 307.4 60 307.1 60 306.7C60 306.3 59.9 306 59.6 305.7C59.4 305.5 59 305.3 58.6 305.3C58.3 305.3 57.9 305.4 57.6 305.6C57.3 305.8 57.1 306 56.9 306.3C56.7 306.6 56.7 306.9 56.7 307.3C56.7 307.7 56.8 308 57.1 308.3C57.3 308.5 57.6 308.6 58.1 308.6ZM59.4 309.6L59.6 308.4L60 307L60.2 305.6L60.4 304.3H61.6L60.5 309.6H59.4Z" fill="#1E293B"/>
<path d="M66.2 304.2C66.7 304.2 67 304.3 67.4 304.5C67.8 304.7 67.9 305 68.1 305.3C68.2 305.7 68.3 306.1 68.1 306.6L67.5 309.6H66.3L66.9 306.7C67 306.3 66.9 305.9 66.8 305.7C66.6 305.5 66.3 305.3 65.9 305.3C65.5 305.3 65.1 305.4 64.8 305.7C64.5 305.9 64.3 306.3 64.2 306.9L63.6 309.7H62.4L63.5 304.4H64.7L64.4 305.9L64.2 305.4C64.4 305 64.8 304.7 65.2 304.6C65.3 304.3 65.7 304.2 66.2 304.2Z" fill="#1E293B"/>
<path d="M71.2 311.6C70.7 311.6 70.2 311.5 69.8 311.4C69.4 311.3 69 311.1 68.7 310.9L69.4 310C69.6 310.2 69.9 310.3 70.2 310.4C70.5 310.5 70.9 310.6 71.3 310.6C71.9 310.6 72.3 310.5 72.6 310.2C72.9 310 73.1 309.6 73.2 309.1L73.4 308L73.7 306.9L73.9 305.7L74.1 304.4H75.3L74.4 308.9C74.2 309.9 73.8 310.6 73.3 311C72.9 311.4 72.2 311.6 71.2 311.6ZM71.6 309.4C71.1 309.4 70.7 309.3 70.4 309.1C70 308.9 69.8 308.7 69.6 308.3C69.4 308 69.3 307.6 69.3 307.1C69.3 306.7 69.4 306.3 69.5 305.9C69.7 305.5 69.9 305.2 70.1 305C70.4 304.7 70.7 304.5 71.1 304.4C71.5 304.3 71.9 304.2 72.3 304.2C72.7 304.2 73 304.3 73.4 304.4C73.7 304.5 74 304.8 74.2 305.1C74.4 305.4 74.5 305.8 74.5 306.3C74.5 306.9 74.4 307.4 74.2 307.9C74 308.4 73.7 308.7 73.3 309C72.6 309.2 72.1 309.4 71.6 309.4ZM71.8 308.3C72.2 308.3 72.5 308.2 72.7 308.1C73 307.9 73.2 307.7 73.3 307.5C73.5 307.2 73.5 306.9 73.5 306.6C73.5 306.2 73.4 305.9 73.1 305.7C72.9 305.5 72.5 305.4 72.1 305.4C71.7 305.4 71.4 305.5 71.2 305.6C70.9 305.7 70.7 306 70.5 306.2C70.3 306.5 70.3 306.8 70.3 307.1C70.3 307.5 70.4 307.8 70.7 308C71 308.2 71.4 308.3 71.8 308.3Z" fill="#1E293B"/>
<path d="M38.5 321.7C38 321.7 37.5 321.6 37.1 321.4C36.7 321.2 36.4 320.9 36.2 320.6C36 320.3 35.9 319.8 35.9 319.4C35.9 318.8 36 318.3 36.3 317.8C36.6 317.3 37 317 37.4 316.7C37.9 316.4 38.4 316.3 39 316.3C39.3 316.3 39.5 316.3 39.6 316.3C39.8 316.3 39.9 316.3 40.1 316.3C40.3 316.3 40.4 316.3 40.6 316.3C40.8 316.3 41 316.2 41.1 316.1C41.2 316 41.3 315.8 41.3 315.6C41.3 315.5 41.3 315.4 41.2 315.3C41.2 315.2 41.1 315.1 41.1 315L41.9 314.7C42 314.8 42.1 315 42.1 315.1C42.1 315.2 42.2 315.4 42.2 315.6C42.2 315.9 42.1 316.2 42 316.4C41.9 316.6 41.7 316.8 41.5 316.9C41.3 317 41 317.1 40.7 317.1C40.6 317.1 40.4 317.1 40.3 317.1C40.2 317.1 40.1 317.1 39.9 317.1L40.8 316.8C41.1 317 41.3 317.2 41.5 317.6C41.7 317.9 41.7 318.3 41.7 318.7C41.7 319.3 41.6 319.8 41.3 320.3C41 320.8 40.6 321.2 40.2 321.4C39.7 321.5 39.1 321.7 38.5 321.7ZM38.6 320.6C39 320.6 39.3 320.5 39.6 320.4C39.9 320.3 40.1 320 40.2 319.7C40.3 319.4 40.4 319.1 40.4 318.7C40.4 318.3 40.3 318 40 317.7C39.8 317.5 39.4 317.3 39 317.3C38.6 317.3 38.3 317.4 38 317.6C37.7 317.8 37.5 318 37.3 318.3C37.1 318.6 37.1 318.9 37.1 319.3C37.1 319.7 37.2 320 37.5 320.3C37.8 320.5 38.2 320.6 38.6 320.6ZM39.7 315.6L39.4 315.1C39.6 315 39.8 314.9 39.9 314.8C40 314.7 40.1 314.6 40.1 314.4C40.1 314.3 40.1 314.2 40 314.1C39.9 314 39.8 314 39.7 314C39.5 314 39.3 314.1 39.1 314.2L38.9 313.6C39 313.5 39.2 313.4 39.4 313.4C39.6 313.4 39.8 313.3 39.9 313.3C40.2 313.3 40.4 313.4 40.6 313.5C40.8 313.6 40.9 313.9 40.9 314.1C40.9 314.4 40.8 314.6 40.6 314.9C40.3 315.3 40.1 315.5 39.7 315.6Z" fill="#1E293B"/>
<path d="M47.5 321.7C47.1 321.7 46.7 321.6 46.3 321.4C45.9 321.2 45.7 320.9 45.5 320.6C45.3 320.2 45.2 319.8 45.2 319.3C45.2 318.8 45.3 318.4 45.4 318.1C45.5 317.8 45.8 317.4 46 317.1C46.2 316.8 46.6 316.6 47 316.5C47.4 316.4 47.8 316.3 48.2 316.3C48.6 316.3 49 316.4 49.3 316.5C49.6 316.6 49.9 316.9 50 317.2C50.2 317.5 50.3 317.9 50.3 318.3C50.3 318.8 50.2 319.3 50.1 319.7C50 320.1 49.8 320.5 49.6 320.8C49.4 321.1 49.1 321.3 48.7 321.5C48.3 321.6 47.9 321.7 47.5 321.7ZM47.8 320.6C48.1 320.6 48.5 320.5 48.7 320.4C49 320.2 49.2 320 49.4 319.7C49.6 319.4 49.6 319.1 49.6 318.7C49.6 318.3 49.5 318 49.2 317.7C49 317.5 48.6 317.3 48.2 317.3C47.9 317.3 47.5 317.4 47.3 317.6C47.1 317.8 46.8 318 46.6 318.3C46.4 318.6 46.4 318.9 46.4 319.3C46.4 319.7 46.5 320 46.8 320.3C47 320.5 47.4 320.6 47.8 320.6ZM49.1 321.6L49.3 320.4L49.6 319L49.8 317.6L50.5 314.2H51.7L50.2 321.6H49.1V321.6ZM48.3 315.6L48.5 314.8H52.5L52.3 315.6H48.3Z" fill="#1E293B"/>
<path d="M54.3 321.7C53.9 321.7 53.5 321.6 53.1 321.4C52.8 321.2 52.5 320.9 52.3 320.6C52.1 320.2 52 319.8 52 319.3C52 318.8 52.1 318.4 52.2 318.1C52.3 317.8 52.6 317.4 52.8 317.1C53 316.8 53.4 316.6 53.8 316.5C54.2 316.4 54.6 316.3 55 316.3C55.4 316.3 55.8 316.4 56.2 316.5C56.5 316.7 56.8 316.9 56.9 317.2C57.1 317.5 57.1 317.9 57.1 318.4C57.1 319.1 57 319.6 56.7 320.1C56.5 320.6 56.2 321 55.7 321.2C55.2 321.4 54.9 321.7 54.3 321.7ZM54.7 320.6C55.1 320.6 55.4 320.5 55.7 320.4C56 320.3 56.2 320 56.4 319.7C56.6 319.4 56.6 319.1 56.6 318.7C56.6 318.3 56.5 318 56.2 317.7C56 317.5 55.6 317.3 55.2 317.3C54.9 317.3 54.5 317.4 54.2 317.6C53.9 317.8 53.7 318 53.5 318.3C53.3 318.6 53.3 318.9 53.3 319.3C53.3 319.7 53.4 320 53.7 320.3C53.9 320.5 54.2 320.6 54.7 320.6ZM56 321.6L56.2 320.4L56.5 319L56.7 317.6L56.9 316.3H58.1L57 321.6H56V321.6ZM53.9 315.5L55.4 314.1H56.5L57.7 315.5H56.7L55.5 314.4H56.5L55 315.5H53.9Z" fill="#1E293B"/>
<path d="M58.9 323.6C58.6 323.6 58.4 323.6 58.1 323.5C57.8 323.4 57.6 323.3 57.5 323.2L58.1 322.3C58.2 322.4 58.3 322.5 58.5 322.5C58.7 322.6 58.8 322.6 59 322.6C59.2 322.6 59.4 322.5 59.5 322.4C59.7 322.3 59.8 322.1 60 321.8L60.5 321.1L60.6 321L63.5 316.3H64.7L61 322.1C60.8 322.5 60.5 322.8 60.3 323C60.1 323.2 59.8 323.4 59.6 323.5C59.5 323.6 59.2 323.6 58.9 323.6ZM60.3 321.8L59 316.3H60.2L61.2 320.9C61.3 320.9 60.3 321.8 60.3 321.8Z" fill="#1E293B"/>
<g clip-path="url(#clip2_555_404)">
<path d="M158.3 577.2L307.3 454.3L357.3 509.3L515 397.8L614.3 577.1L158.3 577.2Z" fill="#DE6501"/>
<path d="M304 465.5L275.2 507.3L270.1 496L174.1 576.8H239.1L268.4 509L277.5 521.1L304 465.5Z" fill="#FB923C"/>
<path d="M391.8 564.2L574.6 562.8L569.6 507.2L387 508.5L391.8 564.2Z" fill="#1E293B"/>
<path d="M502.3 241.2L488.4 243.4L453.9 248.7L449.8 235.1C415 236.4 412.9 166.4 412.9 166.4C412.3 148.4 434.1 139.4 455.9 142.8C471.6 145.2 489.4 193.6 496.8 221.5C499.8 232.4 502.3 241.1 502.3 241.2Z" fill="#FED7AA"/>
<path d="M422 198.3C423 198.3 423.8 197.5 423.8 196.5C423.8 195.5 423 194.7 422 194.7C421 194.7 420.2 195.5 420.2 196.5C420.2 197.5 421 198.3 422 198.3Z" fill="#1E293B"/>
<path d="M428 193.5C427.4 193.5 426.8 193 426.7 192.4C426.4 190.7 425.7 189.6 424.6 189C422.3 187.6 418.9 188.7 418.9 188.7C418.2 188.9 417.4 188.5 417.2 187.8C417 187.1 417.3 186.3 418.1 186.1C418.3 186 422.7 184.6 426 186.6C427.8 187.7 428.9 189.5 429.4 191.9C429.5 192.6 429 193.3 428.3 193.5C428.2 193.4 428.1 193.4 428 193.5Z" fill="#1E293B"/>
<path d="M428.3 217.3C428.1 217.3 428 217.2 428 216.9C428 216.6 428.1 216.6 428.3 216.6C428.4 216.6 438.3 216.5 441.6 208.6C441.7 208.4 441.9 208.4 442.1 208.4C442.3 208.5 442.3 208.7 442.3 208.8C438.8 217.2 428.4 217.3 428.3 217.3Z" fill="#1E293B"/>
<path d="M453.9 193.5C453.9 193.5 456.6 186.7 450.5 179.9C441.6 173.7 413.7 181.9 412.9 166.4C412 150.9 422.8 140.9 442.4 140.5C462 140.1 475 152.9 480.5 170.4C481.9 175 483.9 182.7 483.9 182.7L453.9 193.5Z" fill="#1E293B"/>
<path d="M450.7 180.1C450.7 180.1 456.1 173.9 457.6 185.5C459.1 197.1 455.7 200.7 453.2 198" fill="#FED7AA"/>
<path d="M454.8 199.2C454.2 199.2 453.5 198.9 452.9 198.3L453.4 197.8C453.8 198.3 454.5 198.8 455.3 198.4C457 197.6 458.2 193.3 457.2 185.6C456.6 180.6 455.2 179.2 454.2 178.9C452.6 178.4 450.9 180.4 450.9 180.4L450.4 180C450.5 179.9 452.4 177.7 454.4 178.3C456.1 178.8 457.3 181.3 457.8 185.5C458.9 194.2 457.3 198.2 455.5 199C455.4 199.1 455.1 199.2 454.8 199.2Z" fill="#1E293B"/>
<path d="M453.9 248.7C453.9 248.7 425 273.9 408.2 316.8C380.9 386.3 387.5 486.7 387 508.5C423.2 510.7 561.6 510.7 569.6 507.2C577.6 503.7 563.7 381.6 561.7 338C560.6 313.9 532.4 253.5 501.7 239.2C481.9 241.9 453.9 248.7 453.9 248.7Z" fill="#FB7200"/>
<path d="M348.4 366.3C348.4 366.3 331.6 328.3 314.8 310.3C309.6 304.7 294.6 297.2 289.9 297.3C281.3 297.4 282.9 309.2 294.1 312.8C297.2 313.8 301.9 317.7 303.7 321.8C307.9 331.7 304.2 329.1 300.3 325.7C292.1 318.6 264.4 337.6 264.9 352.4C265.7 374.7 298.4 402.4 298.4 402.4L348.4 366.3Z" fill="#FED7AA"/>
<path d="M347.8 364.6C347.8 364.6 344.8 317 321.7 319.7C301.6 322.1 347.8 364.6 347.8 364.6Z" fill="#FED7AA"/>
<path d="M292.8 342.3C292.7 342.3 292.6 342.3 292.5 342.2L284.3 332C284.2 331.9 284.2 331.6 284.4 331.5C284.5 331.4 284.8 331.4 284.9 331.6L293.1 341.8C293.2 341.9 293.2 342.2 293 342.3C293 342.2 292.9 342.3 292.8 342.3Z" fill="#1E293B"/>
<path d="M279.5 354.9C279.4 354.9 279.3 354.9 279.2 354.8L271.1 344.4C271 344.3 271 344 271.2 343.9C271.3 343.8 271.6 343.8 271.7 344L279.8 354.4C279.9 354.5 279.9 354.8 279.8 354.9C279.6 354.9 279.5 354.9 279.5 354.9Z" fill="#1E293B"/>
<path d="M339.2 339.1C339.1 339.1 339 339.1 338.9 339L326.6 324.5C326.5 324.4 326.5 324.1 326.6 324C326.7 323.9 327 323.9 327.1 324L339.4 338.5C339.5 338.6 339.5 338.9 339.4 339C339.4 339 339.3 339.1 339.2 339.1Z" fill="#1E293B"/>
<path d="M288.1 309.9C288 309.9 287.9 309.9 287.9 309.8C287.8 309.8 281.2 303.8 285.1 299C289 294.2 299.1 299.8 299.5 300.1C299.7 300.2 299.7 300.4 299.6 300.6C299.5 300.8 299.3 300.8 299.1 300.7C299 300.7 289.1 295.2 285.6 299.5C282.1 303.8 288.2 309.3 288.3 309.3C288.4 309.4 288.5 309.6 288.3 309.8C288.3 309.8 288.2 309.9 288.1 309.9Z" fill="#1E293B"/>
<path d="M291.2 306.3L288.4 304.1C288.3 304 288.2 303.8 288.3 303.6C288.4 303.5 288.6 303.4 288.8 303.5L291.1 305.3L295.6 300.6C295.7 300.5 296 300.5 296.1 300.6C296.2 300.7 296.2 300.9 296.1 301.1L291.2 306.3Z" fill="#1E293B"/>
<path d="M305.1 312.6C305 312.6 304.9 312.6 304.9 312.5C304.8 312.4 304.8 312.2 304.9 312L308.7 308.2C308.8 308.1 309.1 308.1 309.2 308.2C309.3 308.3 309.3 308.5 309.2 308.7L305.4 312.5C305.3 312.5 305.2 312.6 305.1 312.6Z" fill="#1E293B"/>
<path d="M461.6 230.1C461.5 230.1 461.4 230 461.3 229.9C461.2 229.7 461.3 229.5 461.5 229.4C461.6 229.3 472.8 224 475.5 216.7C475.6 216.5 475.8 216.4 475.9 216.5C476 216.6 476.2 216.8 476.1 216.9C473.3 224.5 462.2 229.8 461.8 230C461.7 230.1 461.6 230.1 461.6 230.1Z" fill="#1E293B"/>
<path d="M452.8 185.2C452.8 185.2 454.4 184.3 453.6 191.4L452.8 185.2Z" fill="#FED7AA"/>
<path d="M454 191.4L453.3 191.3C453.8 186.2 453.2 185.5 453 185.4L452.6 184.8C452.8 184.7 453.1 184.7 453.3 184.8C454.2 185.4 454.4 187.6 454 191.4Z" fill="#1E293B"/>
<path d="M448.6 401.1L348 356.4L298.4 402.6L425.9 492.2L448.6 401.1Z" fill="#FB7200"/>
<path d="M419 203.6C419 203.6 414.2 207.8 421.4 210.5L419 203.6Z" fill="#FED7AA"/>
<path d="M386.6 464.7C387.7 467.6 432.9 482.8 454.8 480.3V510C430 507.6 397.2 500.8 386.8 492.3L386.6 464.7Z" fill="#334155"/>
<path d="M459.5 246.8C459.5 246.8 458 244.6 453.9 248.7C449.8 252.8 442 261.1 442 261.1C442 261.1 460 261.4 462.7 269.4L459.5 246.8Z" fill="#334155"/>
<path d="M478.4 241.7C478.4 241.7 475.6 204.7 508.1 206C540.6 207.4 537.2 242.5 537.2 242.5H518.7C518.7 242.5 529.3 221.5 516.7 214.8C504.1 208 496 232 503.5 241.7H478.4V241.7Z" fill="#334155"/>
<path d="M458.3 245.7C458.3 245.7 502.9 228.6 543.4 238C575.4 245.5 617 290.7 620.5 335.4C624 380.1 695.4 443.5 667.6 483.3C639.7 523.1 567.7 530.2 531.5 522.4C495.3 514.7 458.3 245.7 458.3 245.7Z" fill="#FB923C"/>
<path d="M458.3 245.7C458.3 245.7 533.4 309.1 534.3 377.1C535.2 445.1 584.9 518.8 552.1 522.6C502.5 528.4 453.1 513.5 453.1 513.5L458.3 245.7Z" fill="#334155"/>
<path d="M543.1 368.9C542.9 368.9 542.8 368.8 542.8 368.6C542.8 368.4 542.9 368.3 543.1 368.2L629.3 364.9C629.5 364.9 629.6 365 629.6 365.2C629.6 365.4 629.5 365.5 629.3 365.6L543.1 368.9Z" fill="#334155"/>
<path d="M664 432H576V444H664V432Z" fill="#334155"/>
<path d="M477.5 426.7C477.5 426.7 472.4 390 499.8 390C527.2 390 523.6 426.7 523.6 426.7H477.5Z" fill="white"/>
<path d="M523.9 427.1H477.2V426.8C477.2 426.6 474.6 407 483.8 396.4C487.7 392 493.1 389.7 499.9 389.7C506.7 389.7 512.2 392 516.3 396.4C525.9 406.9 524.1 426.5 524.1 426.7L523.9 427.1ZM477.8 426.4H523.3C523.5 423.9 524.4 406.5 515.7 396.9C511.8 392.6 506.5 390.4 499.8 390.4C493.1 390.4 488 392.6 484.3 396.9C475.9 406.5 477.5 423.9 477.8 426.4Z" fill="#334155"/>
<path d="M531.1 421.2H468.4V432.1H531.1V421.2Z" fill="white"/>
<path d="M531.5 432.5H468.1V420.9H531.5V432.5ZM468.8 431.9H530.8V421.6H468.8V431.9Z" fill="#334155"/>
<path d="M505.7 377.5H492.9C491.1 377.5 489.6 379 489.6 380.8V388.1C489.6 389.9 491.1 391.4 492.9 391.4H505.7C507.5 391.4 509 389.9 509 388.1V380.8C509 379 507.5 377.5 505.7 377.5Z" fill="white"/>
<path d="M506.6 391.8H492C490.5 391.8 489.2 390.6 489.2 389V380C489.2 378.5 490.4 377.2 492 377.2H506.6C508.1 377.2 509.4 378.4 509.4 380V389C509.4 390.5 508.1 391.8 506.6 391.8ZM492 377.8C490.9 377.8 489.9 378.7 489.9 379.9V388.9C489.9 390 490.8 391 492 391H506.6C507.7 391 508.7 390.1 508.7 388.9V379.9C508.7 378.8 507.8 377.8 506.6 377.8H492Z" fill="#334155"/>
<path d="M575.6 346.8H557.3V386.8H575.6V346.8Z" fill="#334155"/>
<path d="M533.7 231.1C528 215.7 519.5 213.7 519.4 213.7L519.5 213C519.9 213.1 528.5 215 534.3 230.8L533.7 231.1Z" fill="white"/>
<path d="M620.3 346.8H602V386.8H620.3V346.8Z" fill="#334155"/>
</g>
<defs>
<clipPath id="clip0_555_404">
<rect width="674" height="557" fill="white"/>
</clipPath>
<clipPath id="clip1_555_404">
<rect width="674" height="557" fill="white"/>
</clipPath>
<clipPath id="clip2_555_404">
<rect width="674" height="556.7" fill="white"/>
</clipPath>
</defs>
</svg>
