<svg width="588" height="562" viewBox="0 0 588 562" fill="none" xmlns="http://www.w3.org/2000/svg">
<g clip-path="url(#clip0_684_229)">
<path d="M444.16 216.337L236.872 237.823L239.026 208.17C239.026 208.17 263.27 182.663 282.229 163.419C293.763 151.72 303.333 142.334 304.311 142.412C305.858 142.538 320.729 153.624 333.234 162.9C341.676 169.162 349.029 174.599 350.48 175.291C354.086 177.006 353.873 174.646 356.027 172.066C358.18 169.485 363.569 160.461 365.51 161.751C367.451 163.041 444.16 216.329 444.16 216.329V216.337Z" fill="#A54B03"/>
<path d="M624.789 219.035L411.505 214.283C411.505 214.283 454.526 177.998 458.44 174.575C462.353 171.145 462.692 173.128 464.357 174.575C466.021 176.023 469.69 181.459 471.52 180.775C473.351 180.09 496.585 161.389 498.013 162.003C499.441 162.616 503.512 167.691 506.163 166.07C508.814 164.442 565.263 124.812 565.263 124.812L574.58 139.556L605.672 188.784L624.781 219.043L624.789 219.035Z" fill="#C15802"/>
<path d="M581.294 214H280.706C277.006 214 274 211.002 274 207.312V6.6875C274 2.99757 277.006 0 280.706 0H581.294C584.994 0 588 2.99757 588 6.6875V207.312C588 211.002 584.994 214 581.294 214ZM280.706 0.786765C277.44 0.786765 274.789 3.43029 274.789 6.6875V207.312C274.789 210.57 277.44 213.213 280.706 213.213H581.294C584.56 213.213 587.211 210.57 587.211 207.312V6.6875C587.211 3.43029 584.56 0.786765 581.294 0.786765H280.706Z" fill="#1E293B"/>
<path d="M280.706 0.393433H581.294C584.781 0.393433 587.606 3.21005 587.606 6.68755V25.5699H274.395V6.68755C274.395 3.21005 277.219 0.393433 280.706 0.393433Z" fill="#334155"/>
<path d="M569.065 18.489C572.333 18.489 574.982 15.8471 574.982 12.5882C574.982 9.32935 572.333 6.6875 569.065 6.6875C565.797 6.6875 563.148 9.32935 563.148 12.5882C563.148 15.8471 565.797 18.489 569.065 18.489Z" fill="#B90F0F"/>
<path d="M551.709 18.489C554.976 18.489 557.626 15.8471 557.626 12.5882C557.626 9.32935 554.976 6.6875 551.709 6.6875C548.441 6.6875 545.791 9.32935 545.791 12.5882C545.791 15.8471 548.441 18.489 551.709 18.489Z" fill="#FB923C"/>
<path d="M534.352 18.489C537.62 18.489 540.269 15.8471 540.269 12.5882C540.269 9.32935 537.62 6.6875 534.352 6.6875C531.084 6.6875 528.435 9.32935 528.435 12.5882C528.435 15.8471 531.084 18.489 534.352 18.489Z" fill="#34D399"/>
<path d="M297.64 9.99995L293.64 15.1999L291.62 9.99995H291.02L289.62 16.9999H290.33L291.45 11.3599L293.32 16.1099H293.67L297.29 11.4499L296.18 16.9999H296.89L298.29 9.99995H297.64Z" fill="#CBD5E1"/>
<path d="M304.101 11.7399L303.541 14.5699C303.291 15.7899 302.521 16.4099 301.411 16.4099C300.511 16.4099 300.071 15.9699 300.071 15.2099C300.071 15.0599 300.091 14.9099 300.121 14.7399L300.721 11.7399H300.011L299.411 14.7399C299.371 14.9499 299.351 15.1399 299.351 15.3299C299.351 16.4099 300.041 17.0499 301.221 17.0499C302.031 17.0499 302.741 16.7699 303.251 16.1599L303.081 16.9999H303.761L304.811 11.7399H304.101ZM301.131 18.0399C300.861 18.0399 300.641 18.2599 300.641 18.5199C300.641 18.7399 300.791 18.8999 301.011 18.8999C301.291 18.8999 301.501 18.6899 301.501 18.4099C301.501 18.1899 301.341 18.0399 301.131 18.0399Z" fill="#CBD5E1"/>
<path d="M308.129 17.0499C309.029 17.0499 309.859 16.6799 310.329 16.0499L309.819 15.6599C309.439 16.1599 308.829 16.4199 308.159 16.4199C307.039 16.4199 306.409 15.8199 306.409 14.7899C306.409 13.3599 307.379 12.3199 308.699 12.3199C309.419 12.3199 309.929 12.5799 310.229 13.0999L310.829 12.7499C310.439 12.0499 309.719 11.6999 308.759 11.6999C306.969 11.6999 305.699 13.0199 305.699 14.8199C305.699 16.1699 306.629 17.0499 308.129 17.0499Z" fill="#CBD5E1"/>
<path d="M315.751 12.3399H317.351L317.471 11.7399H315.871L316.101 10.5899H315.391L315.161 11.7399H314.221L314.111 12.3399H315.041L314.431 15.4399C314.401 15.5799 314.391 15.7199 314.391 15.8499C314.391 16.5999 314.881 17.0499 315.671 17.0499C316.071 17.0499 316.511 16.9599 316.841 16.7099L316.671 16.1699C316.431 16.3499 316.151 16.4399 315.861 16.4399C315.351 16.4399 315.101 16.1899 315.101 15.7399C315.101 15.6399 315.121 15.5299 315.141 15.4099L315.751 12.3399Z" fill="#CBD5E1"/>
<path d="M319.764 10.5899C320.084 10.5899 320.324 10.3499 320.324 10.0299C320.324 9.78995 320.114 9.57995 319.834 9.57995C319.514 9.57995 319.284 9.81995 319.284 10.1199C319.284 10.3699 319.484 10.5899 319.764 10.5899ZM318.064 16.9999H318.774L319.814 11.7399H319.104L318.064 16.9999Z" fill="#CBD5E1"/>
<path d="M324.049 10.1099L324.949 10.9399H325.589L324.439 9.69995H323.719L322.289 10.9399H322.969L324.049 10.1099ZM325.829 14.5699C325.869 14.3699 325.899 14.1499 325.899 13.9299C325.899 12.5299 324.999 11.6999 323.609 11.6999C321.929 11.6999 320.699 13.0199 320.699 14.8099C320.699 16.1899 321.629 17.0499 323.149 17.0499C323.969 17.0499 324.759 16.7599 325.249 16.2699L324.929 15.7599C324.539 16.1699 323.909 16.4199 323.209 16.4199C321.999 16.4199 321.399 15.8299 321.399 14.7799C321.399 14.7099 321.399 14.6399 321.409 14.5699H325.829ZM323.589 12.2999C324.569 12.2999 325.239 12.8499 325.239 13.8499C325.239 13.9099 325.239 13.9699 325.229 14.0399H321.479C321.739 12.9899 322.529 12.2999 323.589 12.2999Z" fill="#CBD5E1"/>
<path d="M331.864 11.7399L331.304 14.5699C331.054 15.7899 330.284 16.4099 329.174 16.4099C328.274 16.4099 327.834 15.9699 327.834 15.2099C327.834 15.0599 327.854 14.9099 327.884 14.7399L328.484 11.7399H327.774L327.174 14.7399C327.134 14.9499 327.114 15.1399 327.114 15.3299C327.114 16.4099 327.804 17.0499 328.984 17.0499C329.794 17.0499 330.504 16.7699 331.014 16.1599L330.844 16.9999H331.524L332.574 11.7399H331.864Z" fill="#CBD5E1"/>
<path d="M339.73 11.6999C338.9 11.6999 338.22 12.0099 337.73 12.5299L338.32 9.57995H337.61L336.13 16.9999H336.81L337.04 15.8499C337.33 16.6199 338.03 17.0499 339.05 17.0499C340.77 17.0499 342.03 15.7299 342.03 13.9199C342.03 12.5399 341.08 11.6999 339.73 11.6999ZM339.04 16.4199C337.94 16.4199 337.31 15.8199 337.31 14.7899C337.31 13.3499 338.27 12.3199 339.58 12.3199C340.68 12.3199 341.31 12.9299 341.31 13.9599C341.31 15.3899 340.35 16.4199 339.04 16.4199Z" fill="#CBD5E1"/>
<path d="M346.527 10.0999L347.427 10.9299H348.067L346.917 9.68995H346.197L344.767 10.9299H345.447L346.527 10.0999ZM348.047 11.7399L347.827 12.8399C347.527 12.1099 346.827 11.6999 345.827 11.6999C344.117 11.6999 342.857 13.0199 342.857 14.8199C342.857 16.2099 343.797 17.0499 345.147 17.0499C345.997 17.0499 346.697 16.7199 347.197 16.1699L347.027 16.9999H347.707L348.757 11.7399H348.047ZM345.297 16.4199C344.197 16.4199 343.567 15.8199 343.567 14.7899C343.567 13.3599 344.537 12.3199 345.847 12.3199C346.947 12.3199 347.577 12.9299 347.577 13.9599C347.577 15.3899 346.607 16.4199 345.297 16.4199Z" fill="#CBD5E1"/>
<path d="M354.425 11.7399L351.555 16.2199L350.465 11.7399H349.745L351.055 16.9699L350.685 17.5299C350.275 18.1699 349.925 18.3799 349.475 18.3799C349.075 18.3799 348.775 18.2399 348.545 17.9999L348.165 18.5199C348.425 18.8199 348.925 18.9899 349.415 18.9899C350.175 18.9899 350.665 18.6799 351.315 17.6799L355.155 11.7399H354.425Z" fill="#CBD5E1"/>
<path d="M362.962 11.7399L362.742 12.8999C362.442 12.0999 361.662 11.6999 360.692 11.6999C358.942 11.6999 357.692 12.9899 357.692 14.6799C357.692 15.9899 358.622 16.7999 360.012 16.7999C360.902 16.7999 361.612 16.4599 362.112 15.8999L361.992 16.4799C361.742 17.7499 361.042 18.3599 359.712 18.3599C358.872 18.3599 358.162 18.0899 357.742 17.6599L357.322 18.1999C357.862 18.7099 358.672 18.9899 359.662 18.9899C361.372 18.9899 362.352 18.2199 362.722 16.3599L363.642 11.7399H362.962ZM360.152 16.1699C359.052 16.1699 358.412 15.5999 358.412 14.6399C358.412 13.2999 359.372 12.3199 360.702 12.3199C361.792 12.3199 362.442 12.8899 362.442 13.8499C362.442 15.1899 361.472 16.1699 360.152 16.1699Z" fill="#CBD5E1"/>
<path d="M366.277 10.5899C366.597 10.5899 366.837 10.3499 366.837 10.0299C366.837 9.78995 366.627 9.57995 366.347 9.57995C366.027 9.57995 365.797 9.81995 365.797 10.1199C365.797 10.3699 365.997 10.5899 366.277 10.5899ZM364.577 16.9999H365.287L366.327 11.7399H365.617L364.577 16.9999Z" fill="#CBD5E1"/>
<path d="M371.253 10.9299L370.113 9.68995H369.173L370.543 10.9299H371.253ZM373.133 11.0799C373.133 10.7699 373.033 10.4699 372.873 10.2399L372.413 10.4199C372.523 10.5999 372.613 10.8099 372.613 11.0599C372.613 11.5099 372.303 11.7599 371.843 11.7599C371.343 11.7599 371.053 11.6999 370.253 11.6999C368.483 11.6999 367.213 13.0299 367.213 14.8199C367.213 16.1699 368.143 17.0499 369.603 17.0499C371.373 17.0499 372.643 15.7199 372.643 13.9199C372.643 13.1999 372.383 12.6399 371.923 12.2699C372.663 12.2399 373.133 11.8099 373.133 11.0799ZM369.653 16.4199C368.553 16.4199 367.923 15.8199 367.923 14.7899C367.923 13.3599 368.893 12.3199 370.203 12.3199C371.303 12.3199 371.933 12.9299 371.933 13.9599C371.933 15.3899 370.963 16.4199 369.653 16.4199Z" fill="#CBD5E1"/>
<path d="M378.53 17.0499C379.43 17.0499 380.26 16.6799 380.73 16.0499L380.22 15.6599C379.84 16.1599 379.23 16.4199 378.56 16.4199C377.44 16.4199 376.81 15.8199 376.81 14.7899C376.81 13.3599 377.78 12.3199 379.1 12.3199C379.82 12.3199 380.33 12.5799 380.63 13.0999L381.23 12.7499C380.84 12.0499 380.12 11.6999 379.16 11.6999C377.37 11.6999 376.1 13.0199 376.1 14.8199C376.1 16.1699 377.03 17.0499 378.53 17.0499Z" fill="#CBD5E1"/>
<path d="M385.494 9.48995C385.794 9.48995 385.994 9.65995 385.994 9.91995C385.994 10.2499 385.764 10.4999 385.324 10.6899L385.524 11.0199C386.174 10.7299 386.464 10.3399 386.464 9.82995C386.464 9.35995 386.124 9.06995 385.594 9.06995C385.304 9.06995 384.974 9.14995 384.724 9.31995L384.884 9.67995C385.094 9.54995 385.294 9.48995 385.494 9.48995ZM386.864 11.7399L386.304 14.5699C386.054 15.7899 385.284 16.4099 384.174 16.4099C383.274 16.4099 382.834 15.9699 382.834 15.2099C382.834 15.0599 382.854 14.9099 382.884 14.7399L383.484 11.7399H382.774L382.174 14.7399C382.134 14.9499 382.114 15.1399 382.114 15.3299C382.114 16.4099 382.804 17.0499 383.984 17.0499C384.794 17.0499 385.504 16.7699 386.014 16.1599L385.844 16.9999H386.524L387.574 11.7399H386.864Z" fill="#CBD5E1"/>
<path d="M393.653 11.7399L393.433 12.8399C393.133 12.1099 392.433 11.6999 391.433 11.6999C389.723 11.6999 388.463 13.0199 388.463 14.8199C388.463 16.2099 389.403 17.0499 390.753 17.0499C391.603 17.0499 392.303 16.7199 392.803 16.1699L392.633 16.9999H393.313L394.363 11.7399H393.653ZM390.903 16.4199C389.803 16.4199 389.173 15.8199 389.173 14.7899C389.173 13.3599 390.143 12.3199 391.453 12.3199C392.553 12.3199 393.183 12.9299 393.183 13.9599C393.183 15.3899 392.213 16.4199 390.903 16.4199Z" fill="#CBD5E1"/>
<path d="M405.387 11.6999C404.467 11.6999 403.697 12.0499 403.167 12.7499C402.937 12.0799 402.337 11.6999 401.447 11.6999C400.647 11.6999 399.957 11.9699 399.457 12.5799L399.627 11.7399H398.947L397.907 16.9999H398.617L399.177 14.1799C399.427 12.9599 400.167 12.3399 401.237 12.3399C402.117 12.3399 402.537 12.7699 402.537 13.5199C402.537 13.6699 402.517 13.8299 402.487 13.9999L401.887 16.9999H402.597L403.177 14.0999C403.417 12.9199 404.167 12.3399 405.217 12.3399C406.088 12.3399 406.517 12.7699 406.517 13.5099C406.517 13.6599 406.507 13.8199 406.467 13.9999L405.867 16.9999H406.577L407.177 14.0099C407.217 13.7899 407.247 13.5799 407.247 13.3899C407.247 12.3299 406.577 11.6999 405.387 11.6999Z" fill="#CBD5E1"/>
<path d="M410.023 10.9299H410.733L409.593 9.68995H408.653L410.023 10.9299ZM408.513 16.9999H409.223L410.263 11.7399H409.553L408.513 16.9999Z" fill="#CBD5E1"/>
<path d="M414.809 11.6999C413.979 11.6999 413.259 11.9799 412.749 12.5799L412.919 11.7399H412.239L411.199 16.9999H411.909L412.469 14.1799C412.719 12.9499 413.489 12.3399 414.609 12.3399C415.519 12.3399 415.969 12.7699 415.969 13.5199C415.969 13.6699 415.949 13.8299 415.919 13.9999L415.319 16.9999H416.029L416.629 14.0099C416.669 13.7999 416.689 13.5999 416.689 13.4099C416.689 12.3399 415.999 11.6999 414.809 11.6999Z" fill="#CBD5E1"/>
<path d="M421.576 11.6999C420.766 11.6999 420.066 11.9599 419.566 12.5299L420.156 9.57995H419.446L417.966 16.9999H418.676L419.236 14.1799C419.486 12.9499 420.256 12.3399 421.376 12.3399C422.286 12.3399 422.736 12.7699 422.736 13.5199C422.736 13.6699 422.716 13.8299 422.686 13.9999L422.086 16.9999H422.796L423.396 14.0099C423.436 13.7999 423.456 13.5999 423.456 13.4099C423.456 12.3399 422.766 11.6999 421.576 11.6999Z" fill="#CBD5E1"/>
<path d="M425.184 14.8999H425.734L426.854 9.99995H426.014L425.184 14.8999ZM425.114 17.0499C425.414 17.0499 425.654 16.8099 425.654 16.4999C425.654 16.2299 425.434 16.0199 425.144 16.0199C424.844 16.0199 424.604 16.2499 424.604 16.5599C424.604 16.8199 424.824 17.0499 425.114 17.0499Z" fill="#CBD5E1"/>
<path d="M453 189.312L369.462 189.135V53.8119H482V161.992L453 189.312Z" fill="#FDBA74"/>
<path d="M411.671 60.9742H376.957V66.4265H411.671V60.9742Z" fill="#FED7AA"/>
<path d="M411.671 67.3392H376.957V72.7915H411.671V67.3392Z" fill="#FED7AA"/>
<path d="M401.415 74.011H376.957V79.4633H401.415V74.011Z" fill="#FED7AA"/>
<path d="M460.98 142.798H418.771V148.25H460.98V142.798Z" fill="#FED7AA"/>
<path d="M460.98 149.163H418.771V154.615H460.98V149.163Z" fill="#FED7AA"/>
<path d="M441.256 155.834H418.771V161.287H441.256V155.834Z" fill="#FED7AA"/>
<g clip-path="url(#clip1_684_229)">
<path d="M415.745 88.5688C415.779 94.186 415.813 99.8032 415.846 105.42C414.661 105.424 413.477 105.429 412.291 105.435C412.273 101.092 412.255 96.7474 412.236 92.4041C411.225 92.63 410.218 92.8797 409.219 93.153C409.219 92.2176 409.219 91.2832 409.219 90.3478C411.372 89.6542 413.535 89.0651 415.744 88.5688H415.745Z" fill="#64748B"/>
<path d="M418.473 96.7356C418.379 92.8096 420.238 87.2921 425.062 87.0109C430.058 86.7198 431.726 92.4593 431.716 96.3548C431.707 100.322 430.02 105.71 425.109 105.709C420.238 105.708 418.563 100.606 418.472 96.7356H418.473ZM428.114 96.3113C428.114 94.5087 427.899 90.3893 425.071 90.5491C422.296 90.706 422.075 94.5698 422.084 96.485C422.092 98.3321 422.326 102.185 425.101 102.171C427.914 102.157 428.115 98.1702 428.114 96.3113Z" fill="#64748B"/>
<path d="M447.779 92.6566C447.154 92.48 446.84 92.3951 446.211 92.2333C446.2 96.6359 446.189 101.039 446.177 105.442C445.087 105.437 443.998 105.432 442.908 105.427L442.916 103.97C442.072 105.11 440.595 105.603 439.221 105.612C435.38 105.635 433.333 101.855 433.343 98.4918C433.353 95.2082 435.453 91.3947 439.304 91.9798C440.678 92.1889 442.032 92.925 442.818 94.0922C442.824 93.0365 442.827 92.5086 442.833 91.4529C441.505 91.1805 440.169 90.9467 438.827 90.7504C438.832 89.8604 438.835 89.4154 438.84 88.5254C440.183 88.7504 441.519 89.0197 442.844 89.3325C442.847 88.776 442.849 88.4987 442.852 87.9423C443.985 88.2452 445.1 88.5678 446.22 88.9151C446.219 89.441 446.218 89.7035 446.217 90.2294C446.844 90.4149 447.157 90.5126 447.78 90.7148V92.6566H447.779ZM442.855 99.0947C442.855 97.3424 441.808 95.4312 439.876 95.1953C437.833 94.9457 436.828 96.927 436.821 98.6418C436.814 100.412 437.84 102.369 439.831 102.482C441.69 102.588 442.854 100.725 442.854 99.0947H442.855Z" fill="#64748B"/>
<path d="M396.467 115.047L395.558 115.98V117.663H394V111.005H395.558V114.115L398.558 111.005H400.299L397.493 113.973L400.463 117.664H398.635L396.468 115.048L396.467 115.047Z" fill="#64748B"/>
<path d="M400.774 111.005C400.774 110.539 401.151 110.177 401.712 110.177C402.273 110.177 402.65 110.519 402.65 110.976C402.65 111.471 402.273 111.833 401.712 111.833C401.151 111.833 400.774 111.472 400.774 111.005ZM400.957 112.546H402.467V117.664H400.957V112.546Z" fill="#64748B"/>
<path d="M408.939 115.523H405.001C405.146 116.16 405.697 116.55 406.491 116.55C407.043 116.55 407.44 116.388 407.797 116.056L408.6 116.912C408.116 117.455 407.39 117.74 406.452 117.74C404.653 117.74 403.481 116.627 403.481 115.105C403.481 113.582 404.672 112.47 406.258 112.47C407.845 112.47 408.967 113.478 408.967 115.124C408.967 115.239 408.948 115.401 408.938 115.524L408.939 115.523ZM405.398 111.889H404.285L405.572 110.805H406.888L408.174 111.889H407.061L406.229 111.346L405.397 111.889H405.398ZM404.982 114.657H407.546C407.44 114.009 406.946 113.591 406.268 113.591C405.591 113.591 405.088 114 404.982 114.657ZM407.188 110.243L406.936 109.786C407.159 109.643 407.449 109.577 407.739 109.577C408.281 109.577 408.629 109.872 408.629 110.329C408.629 110.71 408.329 111.014 407.952 111.157L407.584 110.805C407.845 110.681 407.942 110.528 407.942 110.405C407.942 110.233 407.807 110.129 407.613 110.129C407.459 110.129 407.332 110.167 407.188 110.243Z" fill="#64748B"/>
<path d="M418.771 114.734V117.663H417.261V114.961C417.261 114.134 416.884 113.754 416.275 113.754C415.597 113.754 415.123 114.182 415.123 115.095V117.663H413.614V114.961C413.614 114.134 413.256 113.754 412.627 113.754C411.96 113.754 411.485 114.182 411.485 115.095V117.663H409.976V112.545H411.417V113.135C411.804 112.698 412.385 112.469 413.052 112.469C413.778 112.469 414.397 112.744 414.764 113.306C415.181 112.783 415.857 112.469 416.641 112.469C417.879 112.469 418.77 113.173 418.77 114.733L418.771 114.734Z" fill="#64748B"/>
<path d="M426.221 117.415C425.912 117.634 425.456 117.739 424.992 117.739C423.764 117.739 423.047 117.12 423.047 115.903V113.8H422.244V112.659H423.047V111.412H424.557V112.659H425.853V113.8H424.557V115.883C424.557 116.32 424.799 116.558 425.205 116.558C425.428 116.558 425.65 116.492 425.814 116.367L426.221 117.414V117.415Z" fill="#64748B"/>
<path d="M430.305 112.469V113.839C430.179 113.829 430.082 113.82 429.966 113.82C429.134 113.82 428.582 114.267 428.582 115.247V117.663H427.073V112.545H428.514V113.22C428.881 112.726 429.501 112.468 430.304 112.468L430.305 112.469Z" fill="#64748B"/>
<path d="M435.781 114.742V117.663H434.368V117.026C434.087 117.491 433.546 117.739 432.781 117.739C431.562 117.739 430.836 117.073 430.836 116.189C430.836 115.305 431.485 114.658 433.072 114.658H434.271C434.271 114.02 433.883 113.649 433.072 113.649C432.52 113.649 431.949 113.83 431.572 114.125L431.03 113.088C431.601 112.688 432.443 112.469 433.275 112.469C434.862 112.469 435.781 113.192 435.781 114.742ZM434.272 116.046V115.523H433.236C432.53 115.523 432.308 115.779 432.308 116.122C432.308 116.493 432.627 116.74 433.159 116.74C433.662 116.74 434.097 116.513 434.272 116.046Z" fill="#64748B"/>
<path d="M442.176 111.005V117.663H440.609V112.241H439.254V111.005H442.175H442.176Z" fill="#64748B"/>
<path d="M449.773 117.415C449.464 117.634 449.008 117.739 448.545 117.739C447.316 117.739 446.6 117.12 446.6 115.903V113.8H445.797V112.659H446.6V111.412H448.109V112.659H449.406V113.8H448.109V115.883C448.109 116.32 448.351 116.558 448.757 116.558C448.98 116.558 449.202 116.492 449.367 116.367L449.773 117.414V117.415Z" fill="#64748B"/>
<path d="M450.441 111.005C450.441 110.539 450.818 110.177 451.379 110.177C451.94 110.177 452.317 110.519 452.317 110.976C452.317 111.471 451.94 111.833 451.379 111.833C450.818 111.833 450.441 111.472 450.441 111.005ZM450.624 112.546H452.134V117.664H450.624V112.546Z" fill="#64748B"/>
<path d="M458.636 115.123C458.636 115.238 458.617 115.4 458.607 115.523H454.669C454.814 116.16 455.365 116.55 456.159 116.55C456.71 116.55 457.108 116.388 457.465 116.056L458.268 116.912C457.784 117.455 457.058 117.74 456.12 117.74C454.321 117.74 453.149 116.627 453.149 115.105C453.149 113.582 454.34 112.47 455.926 112.47C457.513 112.47 458.635 113.479 458.635 115.124L458.636 115.123ZM455.066 111.889H453.953L455.24 110.805H456.556L457.842 111.889H456.729L455.897 111.346L455.065 111.889H455.066ZM454.651 114.657H457.215C457.109 114.009 456.615 113.591 455.937 113.591C455.26 113.591 454.757 114 454.651 114.657ZM458.153 110.975H457.06L458.134 109.825H459.673L458.154 110.975H458.153Z" fill="#64748B"/>
<path d="M463 117.415C462.691 117.634 462.235 117.739 461.772 117.739C460.543 117.739 459.826 117.12 459.826 115.903V113.8H459.024V112.659H459.826V111.412H461.336V112.659H462.633V113.8H461.336V115.883C461.336 116.32 461.578 116.558 461.984 116.558C462.207 116.558 462.429 116.492 462.593 116.367L463 117.414V117.415Z" fill="#64748B"/>
<path d="M404.421 123.675H402.254V122.419H408.156V123.675H405.989V129.078H404.422V123.675H404.421Z" fill="#64748B"/>
<path d="M408.592 122.42C408.592 121.954 408.969 121.592 409.53 121.592C410.091 121.592 410.469 121.934 410.469 122.391C410.469 122.885 410.091 123.248 409.53 123.248C408.969 123.248 408.592 122.886 408.592 122.42ZM408.776 123.961H410.285V129.079H408.776V123.961Z" fill="#64748B"/>
<path d="M416.787 126.538C416.787 126.653 416.767 126.814 416.757 126.938H412.819C412.965 127.575 413.516 127.965 414.31 127.965C414.862 127.965 415.258 127.803 415.615 127.471L416.418 128.327C415.934 128.87 415.209 129.155 414.27 129.155C412.471 129.155 411.3 128.042 411.3 126.52C411.3 124.999 412.49 123.886 414.077 123.886C415.663 123.886 416.786 124.894 416.786 126.54L416.787 126.538ZM413.217 123.304H412.104L413.39 122.22H414.706L415.993 123.304H414.88L414.048 122.761L413.216 123.304H413.217ZM412.8 126.072H415.364C415.258 125.424 414.764 125.006 414.087 125.006C413.409 125.006 412.907 125.415 412.8 126.072ZM416.303 122.39H415.21L416.284 121.239H417.822L416.303 122.39Z" fill="#64748B"/>
<path d="M423.115 126.148V129.078H421.606V126.376C421.606 125.549 421.219 125.169 420.551 125.169C419.826 125.169 419.303 125.606 419.303 126.548V129.078H417.793V123.96H419.234V124.559C419.641 124.122 420.25 123.884 420.957 123.884C422.185 123.884 423.114 124.588 423.114 126.147L423.115 126.148Z" fill="#64748B"/>
<path d="M429.908 123.961V128.222C429.908 130.125 428.863 131 426.986 131C426 131 425.041 130.762 424.432 130.296L425.032 129.231C425.477 129.583 426.204 129.811 426.871 129.811C427.935 129.811 428.4 129.335 428.4 128.413V128.194C428.003 128.622 427.432 128.831 426.755 128.831C425.313 128.831 424.152 127.851 424.152 126.358C424.152 124.864 425.313 123.885 426.755 123.885C427.48 123.885 428.08 124.123 428.477 124.617V123.961H429.909H429.908ZM428.418 126.358C428.418 125.606 427.847 125.103 427.054 125.103C426.261 125.103 425.68 125.607 425.68 126.358C425.68 127.108 426.26 127.614 427.054 127.614C427.848 127.614 428.418 127.109 428.418 126.358Z" fill="#64748B"/>
<path d="M438.616 127.651H435.471L434.871 129.078H433.265L436.284 122.42H437.832L440.86 129.078H439.215L438.615 127.651H438.616ZM438.122 126.481L437.048 123.931L435.974 126.481H438.122Z" fill="#64748B"/>
<path d="M446.782 126.148V129.078H445.273V126.376C445.273 125.549 444.885 125.169 444.218 125.169C443.492 125.169 442.969 125.606 442.969 126.548V129.078H441.46V123.96H442.901V124.559C443.308 124.122 443.917 123.884 444.623 123.884C445.852 123.884 446.781 124.588 446.781 126.147L446.782 126.148Z" fill="#64748B"/>
<path d="M453.469 126.148V129.078H451.959V126.376C451.959 125.549 451.572 125.169 450.904 125.169C450.179 125.169 449.656 125.606 449.656 126.548V129.078H448.146V122.02H449.656V124.494C450.062 124.094 450.642 123.885 451.311 123.885C452.539 123.885 453.469 124.588 453.469 126.148Z" fill="#64748B"/>
<path d="M456.911 92.268L458.507 95.9957L462.098 97.879L459.046 100.549L458.365 104.546L454.882 102.468L450.87 103.055L451.77 99.1016L449.972 95.4672L454.01 95.1014L456.911 92.268Z" fill="#64748B"/>
<path d="M400.375 92.268L398.779 95.9957L395.188 97.879L398.24 100.549L398.922 104.546L402.404 102.468L406.416 103.055L405.516 99.1016L407.314 95.4672L403.276 95.1014L400.375 92.268Z" fill="#64748B"/>
</g>
<path d="M453 162H482L453 189V162Z" fill="#FED7AA"/>
</g>
<g clip-path="url(#clip2_684_229)">
<path d="M135.555 573.51H215.053L237.188 430.47L258.415 573.51H338.372L317.026 346.51L155.374 347.7L135.555 573.51Z" fill="#1E293B"/>
<path d="M323.812 118.63C336.526 126.39 324.93 335.42 317.026 346.51C312.505 352.86 187.389 349.68 155.374 347.7" fill="#FB7200"/>
<path d="M254.583 110.63L245.132 112.31L209.604 118.62L206.191 105.5C175.434 106.64 178.288 43.88 178.288 43.88C177.719 27.9 197.08 19.91 216.4 22.93C230.282 25.09 243.914 69.37 250.511 94.17C253.096 103.9 254.593 110.64 254.593 110.64L254.583 110.63Z" fill="#FED7AA"/>
<path d="M208.726 69.27C209.597 69.27 210.303 68.5626 210.303 67.69C210.303 66.8174 209.597 66.11 208.726 66.11C207.855 66.11 207.149 66.8174 207.149 67.69C207.149 68.5626 207.855 69.27 208.726 69.27Z" fill="#1E293B"/>
<path d="M187.389 75.61C188.26 75.61 188.966 74.9026 188.966 74.03C188.966 73.1573 188.26 72.45 187.389 72.45C186.518 72.45 185.812 73.1573 185.812 74.03C185.812 74.9026 186.518 75.61 187.389 75.61Z" fill="#1E293B"/>
<path d="M181.631 69.28C180.823 69.28 180.134 68.67 180.064 67.85C179.974 66.98 180.613 66.21 181.481 66.12C181.761 66.09 188.178 65.37 188.178 60.57C188.178 59.7 188.886 58.99 189.754 58.99C190.623 58.99 191.331 59.7 191.331 60.57C191.331 66.72 185.084 68.95 181.781 69.28C181.731 69.28 181.681 69.28 181.631 69.28Z" fill="#1E293B"/>
<path d="M201.61 63.73C201.371 63.73 201.131 63.68 200.902 63.56C200.123 63.17 199.804 62.22 200.193 61.43C200.253 61.3 201.81 58.26 205.163 57.22C207.468 56.5 209.983 56.89 212.648 58.38C213.406 58.81 213.686 59.77 213.257 60.53C212.837 61.29 211.869 61.57 211.111 61.15C209.235 60.1 207.538 59.8 206.091 60.25C204.045 60.88 203.027 62.83 203.017 62.85C202.738 63.41 202.179 63.73 201.6 63.73H201.61Z" fill="#1E293B"/>
<path d="M194.505 80.76C194.315 80.76 194.145 80.62 194.115 80.43C193.836 78.78 194.086 77.63 194.844 77.01C195.972 76.1 197.738 76.79 197.808 76.82C198.008 76.9 198.107 77.13 198.028 77.33C197.948 77.53 197.718 77.63 197.519 77.55C197.509 77.55 196.101 77 195.333 77.62C194.824 78.03 194.664 78.96 194.884 80.29C194.924 80.51 194.774 80.71 194.555 80.75C194.535 80.75 194.515 80.75 194.485 80.75L194.505 80.76Z" fill="#1E293B"/>
<path d="M204.385 89.08C204.335 89.08 204.285 89.08 204.235 89.05C204.035 88.97 203.936 88.74 204.025 88.53C204.055 88.46 206.9 81.82 216.38 81.48C216.59 81.46 216.779 81.64 216.789 81.86C216.799 82.08 216.63 82.26 216.41 82.27C207.458 82.58 204.864 88.57 204.754 88.83C204.694 88.98 204.544 89.07 204.385 89.07V89.08Z" fill="#1E293B"/>
<path d="M234.024 64.53C234.024 64.53 233.625 50.67 225.721 45.12C217.817 39.58 179.026 57.68 178.268 43.87C177.499 30.07 186.99 21.24 204.385 20.9C221.779 20.56 233.815 34.27 238.066 49.99C242.328 65.71 237.976 58.98 237.976 58.98L234.024 64.52V64.53Z" fill="#1E293B"/>
<path d="M228.097 48.29C228.097 48.29 236.789 42.75 239.164 53.04C241.539 63.33 236.06 66.51 232.078 64.13" fill="#FED7AA"/>
<path d="M234.673 65.2699C233.735 65.2699 232.777 64.9999 231.879 64.4699L232.288 63.7899C233.885 64.7399 235.651 64.7199 237.008 63.7199C238.096 62.9299 240.441 60.3099 238.785 53.1299C238.106 50.1899 236.839 48.3199 235.022 47.5699C231.989 46.3199 228.346 48.5999 228.316 48.6199L227.887 47.9499C228.047 47.8499 231.899 45.4299 235.322 46.8299C237.388 47.6799 238.815 49.7399 239.553 52.9499C240.791 58.3299 240.032 62.4899 237.477 64.3599C236.649 64.9599 235.681 65.2699 234.683 65.2699H234.673Z" fill="#1E293B"/>
<path d="M209.594 118.63C209.594 118.63 154.187 139.78 144.706 147.7C135.225 155.62 155.773 328.3 155.374 347.7C187.389 349.68 309.91 349.68 317.026 346.51C324.141 343.34 336.526 126.39 323.812 118.63C311.098 110.87 270.78 107.25 254.583 110.64C238.376 114.03 209.594 118.63 209.594 118.63Z" fill="#FB7200"/>
<path d="M144.706 147.69C100.127 173.21 67.8422 304.8 115.455 334.62C128.1 342.54 171.581 354.42 215.053 231.65L166.043 243.53L148.648 240.36L144.696 147.69H144.706Z" fill="#FB7200"/>
<path d="M174.735 165.91C174.735 165.91 178.308 129.21 187.439 109.38C190.283 103.2 200.782 92.73 204.774 91.45C212.049 89.11 213.915 99.5 205.562 105.71C203.227 107.45 200.363 112.01 200.033 116.01C199.245 125.52 201.61 122.35 203.985 118.39C208.915 110.15 237.447 118.39 241.14 131.06C246.669 150.07 226.909 182.55 226.909 182.55L174.735 165.92V165.91Z" fill="#FED7AA"/>
<path d="M174.735 164.33C174.735 164.33 164.037 123.35 184.226 119.18C201.77 115.55 174.735 164.33 174.735 164.33Z" fill="#FED7AA"/>
<path d="M214.664 130.27C214.664 130.27 214.574 130.27 214.524 130.25C214.324 130.17 214.215 129.95 214.295 129.74L218.326 118.85C218.406 118.65 218.626 118.54 218.835 118.62C219.035 118.7 219.145 118.92 219.065 119.13L215.033 130.02C214.973 130.18 214.823 130.28 214.664 130.28V130.27Z" fill="#1E293B"/>
<path d="M229.404 137.23C229.404 137.23 229.314 137.23 229.274 137.21C229.065 137.14 228.965 136.91 229.035 136.7L232.957 125.66C233.026 125.45 233.256 125.35 233.466 125.42C233.675 125.49 233.775 125.72 233.705 125.93L229.783 136.97C229.723 137.13 229.573 137.23 229.414 137.23H229.404Z" fill="#1E293B"/>
<path d="M174.735 140.5C174.735 140.5 174.635 140.5 174.585 140.47C174.386 140.39 174.286 140.16 174.366 139.95L180.653 124.27C180.733 124.07 180.962 123.97 181.172 124.05C181.371 124.13 181.471 124.36 181.391 124.57L175.104 140.25C175.044 140.4 174.895 140.5 174.735 140.5Z" fill="#1E293B"/>
<path d="M209.624 101.63C209.554 101.63 209.484 101.61 209.424 101.58C209.235 101.47 209.175 101.23 209.285 101.04C209.325 100.98 212.887 94.7301 208.866 92.1301C204.804 89.5101 198.018 96.8501 197.948 96.9201C197.798 97.0801 197.549 97.0901 197.389 96.9401C197.229 96.7901 197.219 96.5401 197.369 96.3801C197.668 96.0601 204.674 88.4701 209.295 91.4601C213.945 94.4701 210.003 101.37 209.963 101.43C209.893 101.56 209.754 101.63 209.624 101.63Z" fill="#1E293B"/>
<path d="M206.091 99.4999L200.423 96.5499C200.233 96.4499 200.153 96.2099 200.253 96.0199C200.353 95.8299 200.592 95.7499 200.782 95.8499L205.822 98.4699L207.209 96.3899C207.329 96.2099 207.578 96.1599 207.758 96.2799C207.937 96.3999 207.987 96.6499 207.868 96.8299L206.091 99.4999Z" fill="#1E293B"/>
<path d="M196.032 108.67C195.972 108.67 195.912 108.66 195.852 108.63L191.561 106.47C191.361 106.37 191.291 106.13 191.381 105.94C191.481 105.74 191.72 105.67 191.91 105.76L196.201 107.92C196.401 108.02 196.471 108.26 196.381 108.45C196.311 108.59 196.171 108.67 196.032 108.67Z" fill="#1E293B"/>
<path d="M221.38 100.57C221.23 100.57 221.091 100.49 221.021 100.34C220.931 100.14 221.021 99.91 221.211 99.81C221.31 99.76 231.15 95.05 233.545 88.55C233.625 88.34 233.855 88.24 234.054 88.32C234.264 88.4 234.364 88.62 234.284 88.83C231.779 95.64 221.959 100.34 221.54 100.54C221.49 100.57 221.43 100.58 221.37 100.58L221.38 100.57Z" fill="#1E293B"/>
<path d="M122.571 240.77C122.491 240.77 122.421 240.75 122.351 240.71C122.172 240.59 122.122 240.34 122.232 240.16L162.55 178.38C162.669 178.2 162.919 178.15 163.099 178.27C163.278 178.39 163.328 178.64 163.218 178.82L122.9 240.6C122.82 240.72 122.701 240.78 122.571 240.78V240.77Z" fill="#1E293B"/>
<path d="M135.555 220.87C135.555 220.87 135.465 220.87 135.425 220.85L129.946 218.96C129.736 218.89 129.627 218.66 129.696 218.46C129.766 218.25 129.986 218.14 130.195 218.21L135.674 220.1C135.884 220.17 135.994 220.4 135.924 220.6C135.864 220.76 135.714 220.87 135.555 220.87Z" fill="#1E293B"/>
<path d="M230.472 59.38C230.472 59.38 231.26 53.04 236 53.84C236 53.84 235.781 51.62 233.915 52.33" fill="#FED7AA"/>
<path d="M230.861 59.43L230.073 59.33C230.092 59.19 230.532 55.8 232.687 54.19C233.496 53.59 234.434 53.32 235.482 53.37C235.392 53.11 235.232 52.83 235.002 52.68C234.763 52.53 234.454 52.53 234.054 52.68L233.775 51.94C234.414 51.69 234.973 51.72 235.432 52C236.27 52.52 236.39 53.73 236.4 53.78L236.45 54.29L235.941 54.21C234.873 54.03 233.945 54.24 233.166 54.81C231.28 56.22 230.861 59.38 230.861 59.41V59.43Z" fill="#1E293B"/>
<path d="M308.333 277.6C308.333 277.6 273.913 294.96 280.53 311.2C286.198 325.13 303.593 357.6 331.257 355.23C354.649 353.22 344.699 342.56 344.699 342.56C344.699 342.56 351.027 346.52 355.607 338.2C361.775 327.01 308.343 277.6 308.343 277.6H308.333Z" fill="#FED7AA"/>
<path d="M280.53 109.64C280.53 109.64 305.769 107.53 332.834 118.39C359.899 129.24 425.316 186.51 425.316 256.21C425.316 295.02 362.074 346.51 362.074 346.51L308.323 277.6C308.323 277.6 340.109 248.99 339.151 240.37C338.193 231.76 320.179 218.98 320.179 218.98L280.52 109.64H280.53Z" fill="#FB7200"/>
<path d="M286.987 300.17C286.877 300.17 286.757 300.12 286.687 300.03C286.548 299.86 286.568 299.61 286.737 299.47L301.238 287.36C301.407 287.22 301.657 287.24 301.797 287.41C301.936 287.58 301.916 287.83 301.747 287.97L287.246 300.08C287.176 300.14 287.087 300.17 286.997 300.17H286.987Z" fill="#1E293B"/>
<path d="M285.59 322.23C285.48 322.23 285.36 322.18 285.29 322.09C285.151 321.92 285.171 321.67 285.34 321.53L298.992 310.16C299.162 310.02 299.412 310.04 299.551 310.21C299.691 310.38 299.671 310.63 299.501 310.77L285.849 322.14C285.779 322.2 285.689 322.23 285.6 322.23H285.59Z" fill="#1E293B"/>
<path d="M294.242 335.61C294.132 335.61 294.022 335.56 293.943 335.47C293.803 335.3 293.823 335.05 293.993 334.91L309.731 321.54C309.9 321.4 310.15 321.42 310.289 321.59C310.429 321.76 310.409 322.01 310.24 322.15L294.502 335.52C294.432 335.58 294.332 335.61 294.242 335.61Z" fill="#1E293B"/>
<path d="M308.184 346.9C308.054 346.9 307.934 346.84 307.854 346.73C307.735 346.55 307.774 346.3 307.954 346.18L324.471 334.88C324.65 334.76 324.9 334.8 325.019 334.98C325.139 335.16 325.099 335.41 324.92 335.53L308.403 346.83C308.333 346.88 308.254 346.9 308.184 346.9Z" fill="#1E293B"/>
<path d="M341.925 339.38C341.825 339.38 341.726 339.34 341.646 339.27C341.626 339.25 339.34 337.05 334.879 337.8C334.67 337.84 334.46 337.69 334.42 337.47C334.38 337.25 334.53 337.05 334.75 337.01C339.63 336.19 342.105 338.6 342.205 338.7C342.354 338.85 342.354 339.1 342.205 339.26C342.125 339.34 342.025 339.38 341.925 339.38Z" fill="#1E293B"/>
<path d="M339.58 337.63C339.37 337.63 339.191 337.47 339.181 337.25C339.171 337.03 339.34 336.85 339.56 336.83C340.857 336.76 341.346 336.41 341.516 336.13C341.736 335.78 341.566 335.37 341.556 335.36C341.466 335.16 341.556 334.93 341.756 334.84C341.955 334.75 342.185 334.84 342.274 335.04C342.284 335.07 342.624 335.83 342.185 336.54C341.785 337.19 340.917 337.56 339.59 337.62C339.59 337.62 339.58 337.62 339.57 337.62L339.58 337.63Z" fill="#1E293B"/>
<path d="M368.8 251.46C368.8 251.46 368.711 251.46 368.671 251.44L341.795 241.93C341.586 241.86 341.486 241.63 341.556 241.42C341.626 241.21 341.855 241.11 342.065 241.18L368.94 250.69C369.15 250.76 369.25 250.99 369.18 251.2C369.12 251.36 368.97 251.46 368.81 251.46H368.8Z" fill="#1E293B"/>
<path d="M362.483 253.83C362.433 253.83 362.374 253.82 362.324 253.8L345.977 246.67C345.777 246.58 345.687 246.35 345.777 246.15C345.867 245.95 346.097 245.86 346.296 245.95L362.643 253.08C362.843 253.17 362.932 253.4 362.843 253.6C362.783 253.75 362.633 253.84 362.483 253.84V253.83Z" fill="#1E293B"/>
<path d="M254.583 110.63L245.132 112.31L250.511 94.16C253.096 103.89 254.593 110.63 254.593 110.63H254.583Z" fill="#1E293B"/>
<path d="M381.515 170.88C358.951 136.57 332.524 128.76 332.255 128.69L332.474 127.93C332.744 128.01 359.43 135.88 382.173 170.45L381.515 170.89V170.88Z" fill="white"/>
<path d="M104.398 316.39C104.278 316.24 92.8214 300.63 95.4361 273.14L96.2245 273.22C94.8672 287.44 97.3422 298.3 99.6575 304.91C102.162 312.06 104.997 315.88 105.027 315.92L104.398 316.4V316.39Z" fill="white"/>
<path d="M154.466 331.65L169.775 318.1L155.374 347.7L154.466 331.65Z" fill="#1E293B"/>
<path d="M663.651 577.4L-475.034 577.01V310.47L663.651 394.43V577.4Z" fill="#FDBA74"/>
<path d="M101.117 386.61L-38 520.27L289.834 559.13L365.61 418.69" fill="white"/>
<path fill-rule="evenodd" clip-rule="evenodd" d="M105.268 448.36L94.8689 457.821L172.25 467.793L180.318 458.113L105.268 448.36ZM106.894 446.881L181.506 456.687L188.369 448.451L114.775 439.711L106.894 446.881ZM115.863 438.722L189.218 447.433L195.428 439.98L123.488 431.784L115.863 438.722ZM124.101 431.227L131.495 424.5L202.495 431.5L196.253 438.99L124.101 431.227ZM64.9949 485L92.5499 459.931L170.256 470.187L147.495 497.5L64.9949 485Z" fill="#FED7AA"/>
<path fill-rule="evenodd" clip-rule="evenodd" d="M210.397 466.267L202.386 476.032L273.47 485.193L279.333 475.225L210.397 466.267ZM211.647 464.743L280.199 473.753L285.153 465.331L217.732 457.325L211.647 464.743ZM218.568 456.306L285.768 464.286L290.252 456.662L224.427 449.163L218.568 456.306ZM224.892 448.597L233.995 437.5L297.995 443.5L290.824 455.69L224.892 448.597ZM181.495 501.5L200.585 478.228L272.021 487.656L257.995 511.5L181.495 501.5Z" fill="#FED7AA"/>
<path fill-rule="evenodd" clip-rule="evenodd" d="M387.268 473.634C408.107 473.634 425 456.741 425 435.902C425 415.064 408.107 398.171 387.268 398.171C366.43 398.171 349.537 415.064 349.537 435.902C349.537 440.94 350.524 445.748 352.316 450.142L334 460.317H358.499C365.42 468.464 375.74 473.634 387.268 473.634Z" fill="#FB7200"/>
<path fill-rule="evenodd" clip-rule="evenodd" d="M410.816 421.107C412.344 422.633 412.4 425.165 410.941 426.762L389.021 450.762C387.654 452.259 385.421 452.419 383.872 451.13L369.444 439.13C367.791 437.755 367.517 435.238 368.832 433.51C370.148 431.781 372.555 431.494 374.208 432.87L385.9 442.595L405.407 421.238C406.866 419.64 409.288 419.581 410.816 421.107Z" fill="white"/>
<path fill-rule="evenodd" clip-rule="evenodd" d="M44.7509 391.273C23.3495 384.219 11.718 361.152 18.7713 339.751C25.8246 318.349 48.8917 306.718 70.2932 313.771C91.6946 320.824 103.326 343.892 96.2728 365.293C94.5676 370.467 91.9263 375.07 88.5989 378.976L103.965 395.626L78.8044 387.334C68.9388 393.358 56.59 395.175 44.7509 391.273Z" fill="#334155"/>
<path d="M53.0145 337.236C52.8457 335.56 54.1712 334.107 55.8674 334.107H58.1326C59.8288 334.107 61.1543 335.56 60.9855 337.236L58.5762 361.152C58.4952 361.956 57.8138 362.568 57 362.568C56.1862 362.568 55.5048 361.956 55.4238 361.152L53.0145 337.236Z" fill="#94A3B8"/>
<path d="M59.8672 368.26C59.8672 369.832 58.5835 371.107 57 371.107C55.4165 371.107 54.1328 369.832 54.1328 368.26C54.1328 366.689 55.4165 365.414 57 365.414C58.5835 365.414 59.8672 366.689 59.8672 368.26Z" fill="#94A3B8"/>
</g>
<defs>
<clipPath id="clip0_684_229">
<rect width="314" height="214" fill="white" transform="translate(274)"/>
</clipPath>
<clipPath id="clip1_684_229">
<rect width="69" height="44" fill="white" transform="translate(394 87)"/>
</clipPath>
<clipPath id="clip2_684_229">
<rect y="1" width="492" height="561" rx="8" fill="white"/>
</clipPath>
</defs>
</svg>
