<svg width="696" height="630" viewBox="0 0 696 630" fill="none" xmlns="http://www.w3.org/2000/svg">
<g clip-path="url(#clip0_684_230)">
<path d="M203.928 534.509C203.928 534.509 277.324 523.298 282.922 518.939C288.52 514.581 342.325 475.971 342.325 475.971C342.325 475.971 415.377 451.039 421.302 448.546C427.226 446.061 518.352 427.707 518.352 427.707C518.352 427.707 677.383 299.687 683.546 295.328C689.708 290.969 730.137 268.548 743.973 248.54C745.721 246.012 770.849 223.352 779.898 218.719C783.721 216.765 779.695 196.775 784.878 184.459C789.858 172.621 801.671 155.186 801.671 155.186L848.325 185.087L783.633 343.291C783.633 343.291 745.067 406.824 743.822 419.281C742.578 431.739 730.137 490.913 730.137 490.913L725.475 543.253L712.099 572.499L68.2938 602.338L203.928 534.509Z" fill="white"/>
<path d="M450.667 158.67H388.969L415.13 47.9692L450.667 158.67ZM389.755 158.051H449.82L415.218 50.2768L389.755 158.051Z" fill="#1E293B"/>
<path d="M423.421 182.417H414.026V133.631H423.421V182.426V182.417ZM414.644 181.798H422.803V134.25H414.644V181.807V181.798Z" fill="#1E293B"/>
<path d="M268.036 548.513L276.945 503.812L291.531 542.209L307.732 488.34L318.927 539.239L336.083 499.223L345.459 548.513H268.036Z" fill="#FED7AA"/>
<path d="M270.473 427.999L276.848 396.02L287.275 423.49L298.868 384.951L306.876 421.359L319.157 392.74L325.858 427.999H270.473Z" fill="#475569"/>
<path d="M636.478 208.782L640.486 188.668L647.046 205.944L654.339 181.701L659.372 204.6L667.097 186.599L671.309 208.782H636.478Z" fill="#FED7AA"/>
</g>
<g clip-path="url(#clip1_684_230)">
<path d="M487.216 319.537L68.942 319.553C65.9721 319.919 63.3602 317.601 63.3602 314.618V5.39886C63.3602 2.88647 65.2317 0.764362 67.7296 0.463526L486.003 0.447264C488.973 0.0813829 491.585 2.39863 491.585 5.3826V314.601C491.585 317.114 489.714 319.236 487.216 319.537Z" fill="#FDBA74"/>
<path d="M68.3154 320C67.038 320 65.7605 319.52 64.7678 318.65C63.6124 317.634 62.9534 316.162 62.9534 314.618V5.39882C62.9534 2.68317 64.9875 0.390311 67.6808 0.0569521L486.003 0.0406907C487.492 -0.138185 489.022 0.333396 490.177 1.35786C491.333 2.38233 491.992 3.84586 491.992 5.39069V314.601C491.992 317.317 489.958 319.61 487.264 319.943H487.216L68.942 319.959C68.7304 319.984 68.527 320 68.3154 320ZM486.613 0.813107C486.426 0.813107 486.239 0.821238 486.06 0.84563L67.7377 0.861892C65.5001 1.13834 63.7752 3.0897 63.7752 5.39069V314.618C63.7752 315.927 64.3366 317.171 65.3211 318.041C66.2975 318.911 67.6075 319.309 68.9094 319.154L487.208 319.138C489.486 318.845 491.194 316.902 491.194 314.609V5.38256C491.194 4.07352 490.633 2.82952 489.648 1.95954C488.81 1.21964 487.728 0.813107 486.622 0.813107H486.613Z" fill="#1E293B"/>
<path d="M491.593 23.2213L63.3602 24.4572V5.43133C63.3602 2.89455 65.2479 0.764305 67.7703 0.455338H485.987C488.965 0.0813258 491.593 2.40671 491.593 5.40694V23.2213Z" fill="#334155"/>
<path d="M479.852 16.4322C482.413 16.4322 484.49 14.3573 484.49 11.7977C484.49 9.23814 482.413 7.16321 479.852 7.16321C477.29 7.16321 475.214 9.23814 475.214 11.7977C475.214 14.3573 477.29 16.4322 479.852 16.4322Z" fill="#B90F0F"/>
<path d="M466.256 16.4322C468.817 16.4322 470.893 14.3573 470.893 11.7977C470.893 9.23814 468.817 7.16321 466.256 7.16321C463.694 7.16321 461.618 9.23814 461.618 11.7977C461.618 14.3573 463.694 16.4322 466.256 16.4322Z" fill="#FB923C"/>
<path d="M452.659 16.4322C455.221 16.4322 457.297 14.3573 457.297 11.7977C457.297 9.23814 455.221 7.16321 452.659 7.16321C450.098 7.16321 448.021 9.23814 448.021 11.7977C448.021 14.3573 450.098 16.4322 452.659 16.4322Z" fill="#34D399"/>
<path d="M389.478 58.2402H103.067C99.4722 58.2402 96.5579 61.1524 96.5579 64.7448V283.461C96.5579 287.053 99.4722 289.965 103.067 289.965H389.478C393.073 289.965 395.987 287.053 395.987 283.461V64.7448C395.987 61.1524 393.073 58.2402 389.478 58.2402Z" fill="#334155"/>
<path d="M380.528 50.9225H94.1169C90.5219 50.9225 87.6075 53.8347 87.6075 57.427V276.143C87.6075 279.735 90.5219 282.647 94.1169 282.647H380.528C384.123 282.647 387.037 279.735 387.037 276.143V57.427C387.037 53.8347 384.123 50.9225 380.528 50.9225Z" fill="white"/>
<path d="M380.528 283.054H94.1169C90.3008 283.054 87.2007 279.956 87.2007 276.143V57.4271C87.2007 53.6138 90.3008 50.516 94.1169 50.516H380.528C384.344 50.516 387.444 53.6138 387.444 57.4271V276.143C387.444 279.956 384.344 283.054 380.528 283.054ZM94.1169 51.3291C90.7483 51.3291 88.0144 54.0691 88.0144 57.4271V276.143C88.0144 279.509 90.7564 282.241 94.1169 282.241H380.528C383.896 282.241 386.63 279.501 386.63 276.143V57.4271C386.63 54.061 383.888 51.3291 380.528 51.3291H94.1169Z" fill="#1E293B"/>
<path d="M326.826 79.38H111.204V95.6414H326.826V79.38Z" fill="#E2E8F0"/>
<path d="M326.826 101.333H111.204V117.594H326.826V101.333Z" fill="#E2E8F0"/>
<path d="M326.826 123.286H111.204V139.547H326.826V123.286Z" fill="#E2E8F0"/>
<path d="M345.54 175.322H129.918V191.584H345.54V175.322Z" fill="#E2E8F0"/>
<path d="M345.54 197.275H129.918V213.537H345.54V197.275Z" fill="#E2E8F0"/>
<path d="M345.54 219.228H129.918V235.489H345.54V219.228Z" fill="#E2E8F0"/>
<path d="M345.54 241.994H129.918V258.255H345.54V241.994Z" fill="#E2E8F0"/>
<path d="M73.0592 50.9225H4.37756C2.18065 50.9225 0.40686 52.7031 0.40686 54.8903V82.7948C0.40686 84.9901 2.18879 86.7626 4.37756 86.7626H56.379L72.872 97.674L66.6556 86.7626H73.0592C75.2561 86.7626 77.0299 84.982 77.0299 82.7948V54.8903C77.0299 52.695 75.2479 50.9225 73.0592 50.9225Z" fill="white"/>
<path d="M74.0681 98.9506L56.2569 87.1692H4.37753C1.96094 87.1692 0 85.2097 0 82.7949V54.8903C0 52.4755 1.96094 50.516 4.37753 50.516H73.0592C75.4758 50.516 77.4367 52.4755 77.4367 54.8903V82.7949C77.4367 85.2097 75.4758 87.1692 73.0592 87.1692H67.3554L74.0681 98.9506ZM4.37753 51.3291C2.40845 51.3291 0.813667 52.9227 0.813667 54.8903V82.7949C0.813667 84.7625 2.41659 86.3561 4.37753 86.3561H56.501L71.6678 96.3894L65.9477 86.3561H73.051C75.0201 86.3561 76.6149 84.7625 76.6149 82.7949V54.8903C76.6149 52.9227 75.0201 51.3291 73.051 51.3291H4.37753Z" fill="#1E293B"/>
<path d="M111.301 173.696H42.6199C40.423 173.696 38.6492 175.477 38.6492 177.664V205.568C38.6492 207.764 40.4311 209.536 42.6199 209.536H94.6213L111.114 220.448L104.898 209.536H111.301C113.498 209.536 115.272 207.756 115.272 205.568V177.664C115.272 175.469 113.49 173.696 111.301 173.696Z" fill="white"/>
<path d="M112.31 221.724L94.4992 209.943H42.6198C40.2032 209.943 38.2423 207.983 38.2423 205.568V177.664C38.2423 175.249 40.2032 173.29 42.6198 173.29H111.293C113.71 173.29 115.671 175.249 115.671 177.664V205.568C115.671 207.983 113.71 209.943 111.293 209.943H105.59L112.302 221.724H112.31ZM42.628 174.103C40.6589 174.103 39.0641 175.696 39.0641 177.664V205.568C39.0641 207.536 40.667 209.13 42.628 209.13H94.7433L109.91 219.163L104.19 209.13H111.293C113.262 209.13 114.857 207.536 114.857 205.568V177.664C114.857 175.696 113.262 174.103 111.293 174.103H42.6198H42.628Z" fill="#1E293B"/>
<path d="M214.304 312.325H282.977C285.174 312.325 286.948 310.544 286.948 308.357V280.452C286.948 278.257 285.166 276.484 282.977 276.484H230.976L214.483 265.573L220.699 276.484H214.295C212.099 276.484 210.325 278.265 210.325 280.452V308.357C210.325 310.552 212.107 312.325 214.295 312.325H214.304Z" fill="white"/>
<path d="M282.985 312.731H214.312C211.895 312.731 209.934 310.772 209.934 308.357V280.452C209.934 278.037 211.895 276.078 214.312 276.078H220.016L213.303 264.297L231.114 276.078H282.993C285.41 276.078 287.371 278.037 287.371 280.452V308.357C287.371 310.772 285.41 312.731 282.993 312.731H282.985ZM214.312 276.891C212.343 276.891 210.748 278.485 210.748 280.452V308.357C210.748 310.324 212.351 311.918 214.312 311.918H282.985C284.954 311.918 286.549 310.324 286.549 308.357V280.452C286.549 278.485 284.954 276.891 282.985 276.891H230.862L215.695 266.858L221.415 276.891H214.312Z" fill="#1E293B"/>
<path d="M474.099 38.7264H279.226C275.631 38.7264 272.717 41.6386 272.717 45.231V235.896C272.717 239.488 275.631 242.4 279.226 242.4H474.099C477.694 242.4 480.609 239.488 480.609 235.896V45.231C480.609 41.6386 477.694 38.7264 474.099 38.7264Z" fill="#475569"/>
<path d="M474.099 242.807H279.226C275.41 242.807 272.31 239.709 272.31 235.896V45.231C272.31 41.4177 275.41 38.3199 279.226 38.3199H474.099C477.915 38.3199 481.015 41.4177 481.015 45.231V235.896C481.015 239.709 477.915 242.807 474.099 242.807ZM279.226 39.133C275.858 39.133 273.124 41.8649 273.124 45.231V235.896C273.124 239.262 275.858 241.994 279.226 241.994H474.099C477.468 241.994 480.202 239.262 480.202 235.896V45.231C480.202 41.8649 477.468 39.133 474.099 39.133H279.226Z" fill="white"/>
<path d="M258.673 158.549C258.673 158.549 234.816 131.132 227.884 140.856C227.884 140.856 208.974 129.546 206.81 127.758C202.904 124.538 197.282 126.554 204.369 135.888C207.868 140.498 219.413 147.743 219.413 147.743C219.413 147.743 203.116 167.46 211.431 175.176C219.747 182.9 243.449 187.16 243.449 187.16L258.673 158.54V158.549Z" fill="#FEE2E2"/>
<path d="M226.289 175.94C226.102 175.94 225.931 175.81 225.89 175.623C225.841 175.404 225.98 175.184 226.199 175.135C229.096 174.493 237.664 160.728 237.623 158.833C237.583 156.898 235.858 156.296 235.784 156.272C235.573 156.199 235.459 155.971 235.524 155.76C235.589 155.548 235.825 155.435 236.037 155.5C236.85 155.768 238.388 156.8 238.437 158.817C238.486 161.134 229.625 175.208 226.378 175.932C226.346 175.932 226.321 175.94 226.289 175.94Z" fill="#1E293B"/>
<path d="M232.351 162.313C232.286 162.313 232.212 162.297 232.147 162.256L220.683 155.719C220.487 155.605 220.422 155.361 220.528 155.166C220.642 154.971 220.886 154.906 221.081 155.012L232.546 161.549C232.741 161.663 232.806 161.906 232.701 162.102C232.627 162.232 232.489 162.305 232.351 162.305V162.313Z" fill="#1E293B"/>
<path d="M226.769 169.923C226.72 169.923 226.663 169.915 226.614 169.891L214.572 164.842C214.369 164.752 214.263 164.516 214.352 164.313C214.442 164.11 214.678 164.012 214.881 164.094L226.924 169.143C227.127 169.232 227.233 169.468 227.143 169.671C227.078 169.826 226.924 169.923 226.769 169.923Z" fill="#1E293B"/>
<path d="M220.61 174.932C220.471 174.932 220.341 174.859 220.26 174.737C219.828 174.021 217.908 173.907 216.802 174.005C216.598 174.005 216.378 173.859 216.362 173.639C216.346 173.42 216.509 173.216 216.728 173.2C217.07 173.168 220.129 172.94 220.959 174.322C221.073 174.517 221.016 174.761 220.821 174.883C220.756 174.924 220.683 174.94 220.61 174.94V174.932Z" fill="#1E293B"/>
<path d="M228.535 142.759C228.535 142.759 225.695 156.556 224.694 160.199C223.685 163.842 231.057 164.24 234.23 159.101" fill="#FEE2E2"/>
<path d="M228.779 161.801C228.706 161.801 228.624 161.801 228.551 161.785C226.387 161.524 224.767 160.541 224.702 160.5L224.417 160.321L225.565 157.264L227.509 145.735C227.55 145.515 227.762 145.369 227.981 145.401C228.201 145.442 228.356 145.645 228.315 145.873L226.354 157.475L225.426 159.963C225.963 160.24 227.184 160.793 228.657 160.972C229.902 161.11 231.122 159.02 231.675 157.744L227.509 157.459C227.282 157.443 227.119 157.248 227.135 157.028C227.151 156.8 227.347 156.638 227.566 156.654L232.831 157.012L232.644 157.516C232.481 157.963 231.016 161.793 228.787 161.793L228.779 161.801Z" fill="#1E293B"/>
<path d="M227.672 163.232C225.052 163.232 224.344 161.638 224.304 161.557C224.214 161.354 224.312 161.11 224.523 161.02C224.727 160.931 224.963 161.028 225.052 161.232C225.093 161.321 226.045 163.305 230.374 161.931C230.439 161.915 233.97 160.931 238.103 151.288C238.193 151.085 238.429 150.987 238.64 151.076C238.844 151.166 238.941 151.402 238.852 151.613C234.507 161.736 230.74 162.687 230.585 162.72C229.422 163.094 228.453 163.232 227.672 163.232Z" fill="#1E293B"/>
<path d="M233.498 151.15C233.498 151.15 233.449 151.15 233.417 151.15L229.617 150.418C229.397 150.377 229.251 150.166 229.291 149.938C229.332 149.71 229.552 149.572 229.771 149.613L233.571 150.345C233.791 150.385 233.937 150.597 233.897 150.824C233.856 151.02 233.685 151.158 233.498 151.158V151.15Z" fill="#1E293B"/>
<path d="M232.741 149.743C232.741 149.743 232.692 149.743 232.676 149.743L230.268 149.336C230.048 149.296 229.893 149.093 229.934 148.865C229.975 148.645 230.186 148.491 230.406 148.532L232.815 148.938C233.034 148.979 233.189 149.182 233.148 149.41C233.116 149.613 232.945 149.751 232.749 149.751L232.741 149.743Z" fill="#1E293B"/>
<path d="M206.029 135.856C205.915 135.856 205.793 135.807 205.711 135.709C205.573 135.539 205.597 135.278 205.768 135.14L209.617 132.01C209.788 131.872 210.048 131.896 210.186 132.067C210.325 132.238 210.3 132.498 210.13 132.636L206.281 135.766C206.208 135.831 206.118 135.856 206.02 135.856H206.029Z" fill="#1E293B"/>
<path d="M212.156 141.198C212.058 141.198 211.968 141.165 211.887 141.1C211.716 140.954 211.7 140.694 211.846 140.523L215.467 136.352C215.614 136.181 215.874 136.165 216.045 136.311C216.216 136.457 216.232 136.718 216.086 136.888L212.465 141.059C212.383 141.149 212.269 141.198 212.156 141.198Z" fill="#1E293B"/>
<path d="M304.311 182.242L251.358 151.881L237.81 196.186L307.591 235.969L304.311 182.242Z" fill="#FB923C"/>
<path d="M358.494 112.504L332.22 119.066L329.804 104.268C304.271 102.244 319.91 64.0943 319.91 64.0943C326.891 56.2969 339.071 54.0854 350.284 61.2241C358.339 66.3465 357.444 77.6644 354.8 94.8608C353.758 101.609 358.494 112.496 358.494 112.496V112.504Z" fill="#FEE2E2"/>
<path d="M319.739 78.3148C320.332 78.3148 320.813 77.8343 320.813 77.2416C320.813 76.6488 320.332 76.1683 319.739 76.1683C319.145 76.1683 318.665 76.6488 318.665 77.2416C318.665 77.8343 319.145 78.3148 319.739 78.3148Z" fill="#1E293B"/>
<path d="M326.476 74.3389C326.11 74.3389 325.735 74.2413 325.402 74.0299C323.001 72.5339 320.674 73.1925 320.577 73.225C319.511 73.5421 318.372 72.9404 318.046 71.8753C317.721 70.8102 318.298 69.68 319.364 69.3467C319.535 69.2979 323.522 68.062 327.558 70.5825C328.51 71.1761 328.803 72.4282 328.201 73.3876C327.818 74.0055 327.151 74.3389 326.476 74.3389Z" fill="#1E293B"/>
<path d="M321.252 93.0801C321.154 93.0801 321.049 93.0801 320.951 93.0639C318.917 92.8281 317.932 90.2669 317.891 90.1612L317.704 89.6652L326.272 88.8522L325.792 89.5677C324.214 91.9093 322.692 93.0883 321.252 93.0883V93.0801ZM318.884 90.3645C319.234 91.0231 319.966 92.1288 321.049 92.2508C322.09 92.3728 323.319 91.5353 324.612 89.8116L318.892 90.3564L318.884 90.3645Z" fill="#1E293B"/>
<path d="M331.813 115.383C331.813 115.383 312.171 130.961 302.041 156.784C295.979 172.233 299.576 182.241 300.617 199.064C302.407 227.806 305.711 233.831 305.54 242.124C327.306 243.466 368.721 241.596 388.249 242.409C393.587 216.569 395.621 195.755 394.392 169.501C393.709 155.004 376.744 118.635 358.274 110.025C346.37 111.667 331.813 115.391 331.813 115.391V115.383Z" fill="#FB923C"/>
<path d="M333.522 105.471C333.302 105.471 333.123 105.301 333.115 105.073C333.115 104.845 333.286 104.658 333.514 104.658C333.587 104.658 340.943 104.406 344.165 101.065C344.319 100.902 344.58 100.894 344.743 101.056C344.905 101.211 344.913 101.471 344.751 101.634C341.301 105.219 333.848 105.463 333.538 105.48H333.53L333.522 105.471Z" fill="#1E293B"/>
<path d="M315.556 81.2338C315.556 81.2338 311.887 82.3964 315.215 85.6243L315.556 81.2338Z" fill="#FEE2E2"/>
<path d="M341.992 82.4046C341.992 82.4046 344.653 80.7215 342.92 75.4772C341.748 68.5661 338.591 69.0865 319.909 64.1024C323.189 55.3212 330.585 49.7436 341.667 53.8496C352.757 57.9556 359.502 65.883 358.314 76.8594C358.005 79.7296 353.571 92.82 357.265 101.43C363.774 116.61 343.31 142.856 343.31 142.856C343.31 142.856 347.411 121.53 339.616 108.813C331.822 96.0967 342 82.4046 342 82.4046H341.992Z" fill="#1E293B"/>
<path d="M342.277 75.7943C342.277 75.7943 347.721 73.2819 345.735 80.0304C343.75 86.7789 341.049 88.1042 339.405 86.8683" fill="#FEE2E2"/>
<path d="M340.601 87.6895C340.088 87.6895 339.6 87.5269 339.161 87.2017L339.649 86.5512C340.096 86.8846 340.593 86.9659 341.13 86.787C341.862 86.5431 343.734 85.3885 345.345 79.9165C345.93 77.9327 345.906 76.5992 345.28 76.0545C344.547 75.4203 342.985 75.9162 342.456 76.1602L342.114 75.4203C342.212 75.3715 344.531 74.3226 345.817 75.4365C346.72 76.2171 346.826 77.7944 346.134 80.1442C344.905 84.3153 343.221 86.9496 341.398 87.5513C341.138 87.6407 340.869 87.6814 340.609 87.6814L340.601 87.6895Z" fill="#1E293B"/>
<path d="M343.14 78.6807C343.14 78.6807 344.238 78.5588 342.098 82.3233L343.14 78.6807Z" fill="#FEE2E2"/>
<path d="M342.448 82.5265L341.74 82.1281C343.197 79.5588 343.009 79.0303 343.001 79.0141C343.001 79.0141 343.042 79.1035 343.188 79.0954L343.099 78.2904C343.27 78.2742 343.53 78.3392 343.693 78.5831C343.945 78.9653 344.035 79.7621 342.456 82.5428L342.448 82.5265Z" fill="#1E293B"/>
<path d="M356.516 99.2513C356.516 99.2513 359.014 109.041 370.349 119.489C370.349 119.489 361.114 112.496 356.028 119.481C355.068 120.798 356.516 99.2513 356.516 99.2513Z" fill="#1E293B"/>
<path d="M304.865 234.416L302.473 219.228L291.545 226.822L304.865 234.416Z" fill="#1E293B"/>
<path d="M346.671 242.4C346.443 242.4 346.264 242.222 346.264 241.994V207.365C346.264 207.138 346.443 206.959 346.671 206.959C346.899 206.959 347.078 207.138 347.078 207.365V241.994C347.078 242.222 346.899 242.4 346.671 242.4Z" fill="#1E293B"/>
<path d="M345.54 148.312C345.442 148.312 345.337 148.271 345.255 148.198C345.092 148.044 345.084 147.784 345.247 147.621L350.202 142.474C350.357 142.312 350.617 142.304 350.78 142.466C350.943 142.621 350.951 142.881 350.788 143.043L345.833 148.19C345.752 148.271 345.646 148.312 345.54 148.312Z" fill="#1E293B"/>
<path d="M451.292 84.6649C460.051 84.6649 467.151 77.5701 467.151 68.8182C467.151 60.0663 460.051 52.9714 451.292 52.9714C442.534 52.9714 435.434 60.0663 435.434 68.8182C435.434 77.5701 442.534 84.6649 451.292 84.6649Z" fill="#B90F0F"/>
<path fill-rule="evenodd" clip-rule="evenodd" d="M461.764 72.2493C461.496 72.5583 461.081 72.7859 460.609 72.7941H460.601L456.296 72.8103C455.426 72.8185 454.742 72.1599 454.726 71.2899L454.702 69.8751C454.702 69.8751 454.702 69.8345 454.702 69.8101C454.702 69.802 454.693 69.7938 454.685 69.7776C454.653 69.7207 454.612 69.6556 454.555 69.5743C454.555 69.5743 454.539 69.5743 454.531 69.5743C453.709 69.3466 452.505 69.0133 451.268 69.0377C449.86 69.0621 448.575 69.5824 447.834 69.8833C447.81 69.8914 447.785 69.9077 447.761 69.9158L447.785 71.3143C447.802 72.1843 447.135 72.8754 446.264 72.8835L442.049 72.9567C441.553 73.0055 441.105 72.8022 440.812 72.4607C440.519 72.1192 440.397 71.672 440.438 71.2411C440.438 71.2167 440.438 71.2004 440.446 71.1761L441.04 67.7856C441.04 67.7856 441.056 67.7205 441.065 67.688C441.138 67.4603 441.325 66.9887 441.821 66.7286C442.529 66.3627 444.392 65.4764 447.541 64.9805C447.55 64.9805 447.566 64.9805 447.574 64.9805C448.664 64.8504 449.893 64.7203 451.138 64.6959H451.146C456.036 64.6715 459.388 66.0212 460.503 66.5253H460.519C460.715 66.6229 460.91 66.7692 461.073 66.9481C461.211 67.1026 461.374 67.3465 461.406 67.6717L462.106 70.9728C462.236 71.5013 462.033 71.9729 461.764 72.2737V72.2493ZM460.56 71.2248L459.868 67.94C459.868 67.94 459.86 67.94 459.852 67.9319C458.859 67.4847 455.743 66.2245 451.17 66.2488C450.023 66.2651 448.868 66.3952 447.785 66.5172C444.905 66.9806 443.213 67.7693 442.594 68.0864C442.594 68.0864 442.594 68.0864 442.594 68.0945L442.017 71.3549L446.223 71.2817L446.199 69.8914C446.191 69.2816 446.508 68.6718 447.183 68.4279C447.216 68.4116 447.248 68.4035 447.281 68.3872C448.021 68.0864 449.543 67.4684 451.252 67.4441C452.733 67.4197 454.165 67.8181 454.97 68.0457C455.068 68.0701 455.157 68.0945 455.239 68.1189C455.41 68.1677 455.564 68.2653 455.67 68.4116C455.808 68.5905 455.971 68.8182 456.085 69.0377C456.191 69.2328 456.313 69.5418 456.28 69.8914L456.305 71.2248L460.568 71.2086L460.56 71.2248Z" fill="#FEE2E2"/>
<path d="M75.62 16.9999H80.27L80.4 16.3599H76.48L77.75 9.99995H77.02L75.62 16.9999Z" fill="#CBD5E1"/>
<path d="M84.7305 10.0999L85.6305 10.9299H86.2705L85.1205 9.68995H84.4005L82.9705 10.9299H83.6505L84.7305 10.0999ZM84.2705 11.6999C82.5005 11.6999 81.2305 13.0299 81.2305 14.8199C81.2305 16.1699 82.1605 17.0499 83.6205 17.0499C85.3905 17.0499 86.6605 15.7199 86.6605 13.9199C86.6605 12.5599 85.7305 11.6999 84.2705 11.6999ZM83.6705 16.4199C82.5705 16.4199 81.9405 15.8199 81.9405 14.7899C81.9405 13.3599 82.9105 12.3199 84.2205 12.3199C85.3205 12.3199 85.9505 12.9299 85.9505 13.9599C85.9505 15.3899 84.9805 16.4199 83.6705 16.4199ZM83.1805 18.0399C82.9105 18.0399 82.6905 18.2599 82.6905 18.5199C82.6905 18.7399 82.8405 18.8999 83.0605 18.8999C83.3405 18.8999 83.5505 18.6899 83.5505 18.4099C83.5505 18.1899 83.3905 18.0399 83.1805 18.0399Z" fill="#CBD5E1"/>
<path d="M91.9173 12.3399H93.5173L93.6373 11.7399H92.0373L92.2673 10.5899H91.5573L91.3273 11.7399H90.3873L90.2773 12.3399H91.2073L90.5973 15.4399C90.5673 15.5799 90.5573 15.7199 90.5573 15.8499C90.5573 16.5999 91.0473 17.0499 91.8373 17.0499C92.2373 17.0499 92.6773 16.9599 93.0073 16.7099L92.8373 16.1699C92.5973 16.3499 92.3173 16.4399 92.0273 16.4399C91.5173 16.4399 91.2673 16.1899 91.2673 15.7399C91.2673 15.6399 91.2873 15.5299 91.3073 15.4099L91.9173 12.3399Z" fill="#CBD5E1"/>
<path d="M95.7698 12.6999L95.9498 11.7399H95.2698L94.2298 16.9999H94.9398L95.4698 14.3299C95.7298 13.0199 96.4798 12.3799 97.5998 12.3799C97.6798 12.3799 97.7298 12.3899 97.7998 12.3899L97.9298 11.6999C96.9298 11.6999 96.2398 12.0099 95.7698 12.6999Z" fill="#CBD5E1"/>
<path d="M99.6753 10.9299H100.385L99.2453 9.68995H98.3053L99.6753 10.9299ZM98.1653 16.9999H98.8753L99.9153 11.7399H99.2053L98.1653 16.9999Z" fill="#CBD5E1"/>
<path d="M104.461 11.6999C103.631 11.6999 102.911 11.9799 102.401 12.5799L102.571 11.7399H101.891L100.851 16.9999H101.561L102.121 14.1799C102.371 12.9499 103.141 12.3399 104.261 12.3399C105.171 12.3399 105.621 12.7699 105.621 13.5199C105.621 13.6699 105.601 13.8299 105.571 13.9999L104.971 16.9999H105.681L106.281 14.0099C106.321 13.7999 106.341 13.5999 106.341 13.4099C106.341 12.3399 105.651 11.6999 104.461 11.6999Z" fill="#CBD5E1"/>
<path d="M111.228 11.6999C110.418 11.6999 109.718 11.9599 109.218 12.5299L109.808 9.57995H109.098L107.618 16.9999H108.328L108.888 14.1799C109.138 12.9499 109.908 12.3399 111.028 12.3399C111.938 12.3399 112.388 12.7699 112.388 13.5199C112.388 13.6699 112.368 13.8299 112.338 13.9999L111.738 16.9999H112.448L113.048 14.0099C113.088 13.7999 113.108 13.5999 113.108 13.4099C113.108 12.3399 112.418 11.6999 111.228 11.6999Z" fill="#CBD5E1"/>
<path d="M120.613 11.6999C119.803 11.6999 119.103 11.9599 118.603 12.5299L119.193 9.57995H118.483L117.003 16.9999H117.713L118.273 14.1799C118.523 12.9499 119.293 12.3399 120.413 12.3399C121.323 12.3399 121.773 12.7699 121.773 13.5199C121.773 13.6699 121.753 13.8299 121.723 13.9999L121.123 16.9999H121.833L122.433 14.0099C122.473 13.7999 122.493 13.5999 122.493 13.4099C122.493 12.3399 121.803 11.6999 120.613 11.6999Z" fill="#CBD5E1"/>
<path d="M126.13 17.0499C127.9 17.0499 129.17 15.7199 129.17 13.9199C129.17 12.5599 128.24 11.6999 126.78 11.6999C125.01 11.6999 123.74 13.0299 123.74 14.8199C123.74 16.1699 124.67 17.0499 126.13 17.0499ZM126.18 16.4199C125.08 16.4199 124.45 15.8199 124.45 14.7899C124.45 13.3599 125.42 12.3199 126.73 12.3199C127.83 12.3199 128.46 12.9299 128.46 13.9599C128.46 15.3899 127.49 16.4199 126.18 16.4199ZM125.57 18.8999C125.85 18.8999 126.06 18.6899 126.06 18.4099C126.06 18.1899 125.9 18.0399 125.69 18.0399C125.42 18.0399 125.2 18.2599 125.2 18.5199C125.2 18.7399 125.35 18.8999 125.57 18.8999Z" fill="#CBD5E1"/>
<path d="M132.44 17.0499C133.34 17.0499 134.17 16.6799 134.64 16.0499L134.13 15.6599C133.75 16.1599 133.14 16.4199 132.47 16.4199C131.35 16.4199 130.72 15.8199 130.72 14.7899C130.72 13.3599 131.69 12.3199 133.01 12.3199C133.73 12.3199 134.24 12.5799 134.54 13.0999L135.14 12.7499C134.75 12.0499 134.03 11.6999 133.07 11.6999C131.28 11.6999 130.01 13.0199 130.01 14.8199C130.01 16.1699 130.94 17.0499 132.44 17.0499Z" fill="#CBD5E1"/>
<path d="M140.062 12.3399H141.662L141.782 11.7399H140.182L140.412 10.5899H139.702L139.472 11.7399H138.532L138.422 12.3399H139.352L138.742 15.4399C138.712 15.5799 138.702 15.7199 138.702 15.8499C138.702 16.5999 139.192 17.0499 139.982 17.0499C140.382 17.0499 140.822 16.9599 141.152 16.7099L140.982 16.1699C140.742 16.3499 140.462 16.4399 140.172 16.4399C139.662 16.4399 139.412 16.1899 139.412 15.7399C139.412 15.6399 139.432 15.5299 139.452 15.4099L140.062 12.3399Z" fill="#CBD5E1"/>
<path d="M145.809 10.0999L146.709 10.9299H147.349L146.199 9.68995H145.479L144.049 10.9299H144.729L145.809 10.0999ZM147.329 11.7399L147.109 12.8399C146.809 12.1099 146.109 11.6999 145.109 11.6999C143.399 11.6999 142.139 13.0199 142.139 14.8199C142.139 16.2099 143.079 17.0499 144.429 17.0499C145.279 17.0499 145.979 16.7199 146.479 16.1699L146.309 16.9999H146.989L148.039 11.7399H147.329ZM144.579 16.4199C143.479 16.4199 142.849 15.8199 142.849 14.7899C142.849 13.3599 143.819 12.3199 145.129 12.3199C146.229 12.3199 146.859 12.9299 146.859 13.9599C146.859 15.3899 145.889 16.4199 144.579 16.4199ZM144.259 18.0399C143.989 18.0399 143.769 18.2599 143.769 18.5199C143.769 18.7399 143.919 18.8999 144.139 18.8999C144.419 18.8999 144.629 18.6899 144.629 18.4099C144.629 18.1899 144.469 18.0399 144.259 18.0399Z" fill="#CBD5E1"/>
<path d="M152.566 11.6999C151.716 11.6999 151.016 12.0199 150.516 12.5799L150.686 11.7399H150.006L148.576 18.9399H149.286L149.886 15.8999C150.186 16.6399 150.886 17.0499 151.886 17.0499C153.606 17.0499 154.866 15.7299 154.866 13.9199C154.866 12.5399 153.916 11.6999 152.566 11.6999ZM151.876 16.4199C150.776 16.4199 150.146 15.8199 150.146 14.7899C150.146 13.3499 151.106 12.3199 152.416 12.3199C153.516 12.3199 154.146 12.9299 154.146 13.9599C154.146 15.3899 153.186 16.4199 151.876 16.4199Z" fill="#CBD5E1"/>
<path d="M165.471 10.4099H164.471L164.641 9.57995H163.931L163.761 10.4099H161.561L161.461 10.9299H163.661L163.281 12.8399C162.971 12.1099 162.281 11.6999 161.281 11.6999C159.571 11.6999 158.311 13.0199 158.311 14.8199C158.311 16.2099 159.251 17.0499 160.601 17.0499C161.451 17.0499 162.151 16.7199 162.651 16.1699L162.481 16.9999H163.161L164.371 10.9299H165.371L165.471 10.4099ZM160.751 16.4199C159.651 16.4199 159.021 15.8199 159.021 14.7899C159.021 13.3599 159.991 12.3199 161.301 12.3199C162.401 12.3199 163.031 12.9299 163.031 13.9599C163.031 15.3899 162.061 16.4199 160.751 16.4199Z" fill="#CBD5E1"/>
<path d="M169.648 9.18995C169.858 9.18995 169.988 9.29995 169.988 9.47995C169.988 9.68995 169.838 9.87995 169.508 10.0199L169.698 10.2699C170.128 10.0899 170.388 9.78995 170.388 9.40995C170.388 9.05995 170.128 8.82995 169.728 8.82995C169.488 8.82995 169.278 8.88995 169.078 8.99995L169.188 9.30995C169.338 9.22995 169.498 9.18995 169.648 9.18995ZM168.428 10.3499L169.308 10.9399H169.978L168.808 9.99995H168.108L166.678 10.9399H167.378L168.428 10.3499ZM167.998 11.6999C166.318 11.6999 165.088 13.0199 165.088 14.8099C165.088 16.1899 166.018 17.0499 167.538 17.0499C168.358 17.0499 169.148 16.7599 169.638 16.2699L169.318 15.7599C168.928 16.1699 168.298 16.4199 167.598 16.4199C166.388 16.4199 165.788 15.8299 165.788 14.7799C165.788 14.7099 165.788 14.6399 165.798 14.5699H170.218C170.258 14.3699 170.288 14.1499 170.288 13.9299C170.288 12.5299 169.388 11.6999 167.998 11.6999ZM167.978 12.2999C168.958 12.2999 169.628 12.8499 169.628 13.8499C169.628 13.9099 169.628 13.9699 169.618 14.0399H165.868C166.128 12.9899 166.918 12.2999 167.978 12.2999Z" fill="#CBD5E1"/>
<path d="M176.17 17.0499C177.07 17.0499 177.9 16.6799 178.37 16.0499L177.86 15.6599C177.48 16.1599 176.87 16.4199 176.2 16.4199C175.08 16.4199 174.45 15.8199 174.45 14.7899C174.45 13.3599 175.42 12.3199 176.74 12.3199C177.46 12.3199 177.97 12.5799 178.27 13.0999L178.87 12.7499C178.48 12.0499 177.76 11.6999 176.8 11.6999C175.01 11.6999 173.74 13.0199 173.74 14.8199C173.74 16.1699 174.67 17.0499 176.17 17.0499Z" fill="#CBD5E1"/>
<path d="M182.957 11.6999C182.147 11.6999 181.447 11.9599 180.947 12.5299L181.537 9.57995H180.827L179.347 16.9999H180.057L180.617 14.1799C180.867 12.9499 181.637 12.3399 182.757 12.3399C183.667 12.3399 184.117 12.7699 184.117 13.5199C184.117 13.6699 184.097 13.8299 184.067 13.9999L183.467 16.9999H184.177L184.777 14.0099C184.817 13.7999 184.837 13.5999 184.837 13.4099C184.837 12.3399 184.147 11.6999 182.957 11.6999Z" fill="#CBD5E1"/>
<path d="M191.195 11.7399L190.635 14.5699C190.385 15.7899 189.615 16.4099 188.505 16.4099C187.605 16.4099 187.165 15.9699 187.165 15.2099C187.165 15.0599 187.185 14.9099 187.215 14.7399L187.815 11.7399H187.105L186.505 14.7399C186.465 14.9499 186.445 15.1399 186.445 15.3299C186.445 16.4099 187.135 17.0499 188.315 17.0499C189.125 17.0499 189.835 16.7699 190.345 16.1599L190.175 16.9999H190.855L191.905 11.7399H191.195Z" fill="#CBD5E1"/>
<path d="M197.673 9.17995C197.883 9.17995 198.013 9.28995 198.013 9.46995C198.013 9.67995 197.863 9.86995 197.533 10.0099L197.723 10.2599C198.153 10.0799 198.413 9.77995 198.413 9.39995C198.413 9.04995 198.153 8.81995 197.753 8.81995C197.513 8.81995 197.303 8.87995 197.103 8.98995L197.213 9.29995C197.363 9.21995 197.523 9.17995 197.673 9.17995ZM196.453 10.3399L197.333 10.9299H198.003L196.833 9.98995H196.133L194.703 10.9299H195.403L196.453 10.3399ZM197.983 11.7399L197.763 12.8399C197.463 12.1099 196.763 11.6999 195.763 11.6999C194.053 11.6999 192.793 13.0199 192.793 14.8199C192.793 16.2099 193.733 17.0499 195.083 17.0499C195.933 17.0499 196.633 16.7199 197.133 16.1699L196.963 16.9999H197.643L198.693 11.7399H197.983ZM195.233 16.4199C194.133 16.4199 193.503 15.8199 193.503 14.7899C193.503 13.3599 194.473 12.3199 195.783 12.3199C196.883 12.3199 197.513 12.9299 197.513 13.9599C197.513 15.3899 196.543 16.4199 195.233 16.4199Z" fill="#CBD5E1"/>
<path d="M203.23 11.6999C202.4 11.6999 201.68 11.9799 201.17 12.5799L201.34 11.7399H200.66L199.62 16.9999H200.33L200.89 14.1799C201.14 12.9499 201.91 12.3399 203.03 12.3399C203.94 12.3399 204.39 12.7699 204.39 13.5199C204.39 13.6699 204.37 13.8299 204.34 13.9999L203.74 16.9999H204.45L205.05 14.0099C205.09 13.7999 205.11 13.5999 205.11 13.4099C205.11 12.3399 204.42 11.6999 203.23 11.6999Z" fill="#CBD5E1"/>
<path d="M212.605 11.6999C211.775 11.6999 211.095 12.0099 210.605 12.5299L211.195 9.57995H210.485L209.005 16.9999H209.685L209.915 15.8499C210.205 16.6199 210.905 17.0499 211.925 17.0499C213.645 17.0499 214.905 15.7299 214.905 13.9199C214.905 12.5399 213.955 11.6999 212.605 11.6999ZM211.915 16.4199C210.815 16.4199 210.185 15.8199 210.185 14.7899C210.185 13.3499 211.145 12.3199 212.455 12.3199C213.555 12.3199 214.185 12.9299 214.185 13.9599C214.185 15.3899 213.225 16.4199 211.915 16.4199Z" fill="#CBD5E1"/>
<path d="M217.482 10.5899C217.803 10.5899 218.042 10.3499 218.042 10.0299C218.042 9.78995 217.832 9.57995 217.552 9.57995C217.232 9.57995 217.003 9.81995 217.003 10.1199C217.003 10.3699 217.202 10.5899 217.482 10.5899ZM215.783 16.9999H216.492L217.533 11.7399H216.822L215.783 16.9999ZM215.783 18.8999C216.062 18.8999 216.272 18.6899 216.272 18.4099C216.272 18.1899 216.113 18.0399 215.902 18.0399C215.632 18.0399 215.412 18.2599 215.412 18.5199C215.412 18.7399 215.562 18.8999 215.783 18.8999Z" fill="#CBD5E1"/>
<path d="M223.465 17.0499C224.365 17.0499 225.195 16.6799 225.665 16.0499L225.155 15.6599C224.775 16.1599 224.165 16.4199 223.495 16.4199C222.375 16.4199 221.745 15.8199 221.745 14.7899C221.745 13.3599 222.715 12.3199 224.035 12.3199C224.755 12.3199 225.265 12.5799 225.565 13.0999L226.165 12.7499C225.775 12.0499 225.055 11.6999 224.095 11.6999C222.305 11.6999 221.035 13.0199 221.035 14.8199C221.035 16.1699 221.965 17.0499 223.465 17.0499Z" fill="#CBD5E1"/>
<path d="M230.252 11.6999C229.442 11.6999 228.742 11.9599 228.242 12.5299L228.832 9.57995H228.122L226.642 16.9999H227.352L227.912 14.1799C228.162 12.9499 228.932 12.3399 230.052 12.3399C230.962 12.3399 231.412 12.7699 231.412 13.5199C231.412 13.6699 231.392 13.8299 231.362 13.9999L230.762 16.9999H231.472L232.072 14.0099C232.112 13.7999 232.132 13.5999 232.132 13.4099C232.132 12.3399 231.442 11.6999 230.252 11.6999Z" fill="#CBD5E1"/>
<path d="M235.769 17.0499C237.539 17.0499 238.809 15.7199 238.809 13.9199C238.809 12.5599 237.879 11.6999 236.419 11.6999C234.649 11.6999 233.379 13.0299 233.379 14.8199C233.379 16.1699 234.309 17.0499 235.769 17.0499ZM235.819 16.4199C234.719 16.4199 234.089 15.8199 234.089 14.7899C234.089 13.3599 235.059 12.3199 236.369 12.3199C237.469 12.3199 238.099 12.9299 238.099 13.9599C238.099 15.3899 237.129 16.4199 235.819 16.4199Z" fill="#CBD5E1"/>
<path d="M242.066 18.9399H243.896L244.016 18.3399H242.906L244.526 10.1799H245.646L245.766 9.57995H243.936L242.066 18.9399Z" fill="#CBD5E1"/>
<path d="M249.019 13.2499L252.799 9.99995H251.829L246.949 14.1799L247.789 9.99995H247.059L245.659 16.9999H246.389L246.759 15.1699L248.479 13.6999L250.739 16.9999H251.569L249.019 13.2499Z" fill="#CBD5E1"/>
<path d="M254.221 10.5899C254.541 10.5899 254.781 10.3499 254.781 10.0299C254.781 9.78995 254.571 9.57995 254.291 9.57995C253.971 9.57995 253.741 9.81995 253.741 10.1199C253.741 10.3699 253.941 10.5899 254.221 10.5899ZM252.521 16.9999H253.231L254.271 11.7399H253.561L252.521 16.9999Z" fill="#CBD5E1"/>
<path d="M259.716 9.18995C259.926 9.18995 260.056 9.29995 260.056 9.47995C260.056 9.68995 259.906 9.87995 259.576 10.0199L259.766 10.2699C260.196 10.0899 260.456 9.78995 260.456 9.40995C260.456 9.05995 260.196 8.82995 259.796 8.82995C259.556 8.82995 259.346 8.88995 259.146 8.99995L259.256 9.30995C259.406 9.22995 259.566 9.18995 259.716 9.18995ZM258.496 10.3499L259.376 10.9399H260.046L258.876 9.99995H258.176L256.746 10.9399H257.446L258.496 10.3499ZM258.066 11.6999C256.386 11.6999 255.156 13.0199 255.156 14.8099C255.156 16.1899 256.086 17.0499 257.606 17.0499C258.426 17.0499 259.216 16.7599 259.706 16.2699L259.386 15.7599C258.996 16.1699 258.366 16.4199 257.666 16.4199C256.456 16.4199 255.856 15.8299 255.856 14.7799C255.856 14.7099 255.856 14.6399 255.866 14.5699H260.286C260.326 14.3699 260.356 14.1499 260.356 13.9299C260.356 12.5299 259.456 11.6999 258.066 11.6999ZM258.046 12.2999C259.026 12.2999 259.696 12.8499 259.696 13.8499C259.696 13.9099 259.696 13.9699 259.686 14.0399H255.936C256.196 12.9899 256.986 12.2999 258.046 12.2999Z" fill="#CBD5E1"/>
<path d="M268.721 11.6999C267.801 11.6999 267.031 12.0499 266.501 12.7499C266.271 12.0799 265.671 11.6999 264.781 11.6999C263.981 11.6999 263.291 11.9699 262.791 12.5799L262.961 11.7399H262.281L261.241 16.9999H261.951L262.511 14.1799C262.761 12.9599 263.501 12.3399 264.571 12.3399C265.451 12.3399 265.871 12.7699 265.871 13.5199C265.871 13.6699 265.851 13.8299 265.821 13.9999L265.221 16.9999H265.931L266.511 14.0999C266.751 12.9199 267.501 12.3399 268.551 12.3399C269.421 12.3399 269.851 12.7699 269.851 13.5099C269.851 13.6599 269.841 13.8199 269.801 13.9999L269.201 16.9999H269.911L270.511 14.0099C270.551 13.7899 270.581 13.5799 270.581 13.3899C270.581 12.3299 269.911 11.6999 268.721 11.6999Z" fill="#CBD5E1"/>
<path d="M276.214 12.3399H277.814L277.934 11.7399H276.334L276.564 10.5899H275.854L275.624 11.7399H274.684L274.574 12.3399H275.504L274.894 15.4399C274.864 15.5799 274.854 15.7199 274.854 15.8499C274.854 16.5999 275.344 17.0499 276.134 17.0499C276.534 17.0499 276.974 16.9599 277.304 16.7099L277.134 16.1699C276.894 16.3499 276.614 16.4399 276.324 16.4399C275.814 16.4399 275.564 16.1899 275.564 15.7399C275.564 15.6399 275.584 15.5299 275.604 15.4099L276.214 12.3399Z" fill="#CBD5E1"/>
<path d="M280.067 12.6999L280.247 11.7399H279.567L278.527 16.9999H279.237L279.767 14.3299C280.027 13.0199 280.777 12.3799 281.897 12.3799C281.977 12.3799 282.027 12.3899 282.097 12.3899L282.227 11.6999C281.227 11.6999 280.537 12.0099 280.067 12.6999Z" fill="#CBD5E1"/>
<path d="M287.553 11.7399L287.333 12.8399C287.033 12.1099 286.333 11.6999 285.333 11.6999C283.623 11.6999 282.363 13.0199 282.363 14.8199C282.363 16.2099 283.303 17.0499 284.653 17.0499C285.503 17.0499 286.203 16.7199 286.703 16.1699L286.533 16.9999H287.213L288.263 11.7399H287.553ZM284.803 16.4199C283.703 16.4199 283.073 15.8199 283.073 14.7899C283.073 13.3599 284.043 12.3199 285.353 12.3199C286.453 12.3199 287.083 12.9299 287.083 13.9599C287.083 15.3899 286.113 16.4199 284.803 16.4199Z" fill="#CBD5E1"/>
<path d="M292.298 9.99995L292.168 10.6399H293.818L292.548 16.9999H293.278L294.678 9.99995H292.298Z" fill="#CBD5E1"/>
<path d="M299.788 12.3399H301.388L301.508 11.7399H299.908L300.138 10.5899H299.428L299.198 11.7399H298.258L298.148 12.3399H299.078L298.468 15.4399C298.438 15.5799 298.428 15.7199 298.428 15.8499C298.428 16.5999 298.918 17.0499 299.708 17.0499C300.108 17.0499 300.548 16.9599 300.878 16.7099L300.708 16.1699C300.468 16.3499 300.188 16.4399 299.898 16.4399C299.388 16.4399 299.138 16.1899 299.138 15.7399C299.138 15.6399 299.158 15.5299 299.178 15.4099L299.788 12.3399Z" fill="#CBD5E1"/>
<path d="M303.801 10.5899C304.121 10.5899 304.361 10.3499 304.361 10.0299C304.361 9.78995 304.151 9.57995 303.871 9.57995C303.551 9.57995 303.321 9.81995 303.321 10.1199C303.321 10.3699 303.521 10.5899 303.801 10.5899ZM302.101 16.9999H302.811L303.851 11.7399H303.141L302.101 16.9999Z" fill="#CBD5E1"/>
<path d="M311.086 9.00995H310.196L308.856 10.0999H309.516L311.086 9.00995ZM308.076 10.3499L308.956 10.9399H309.626L308.456 9.99995H307.756L306.326 10.9399H307.026L308.076 10.3499ZM307.646 11.6999C305.966 11.6999 304.736 13.0199 304.736 14.8099C304.736 16.1899 305.666 17.0499 307.186 17.0499C308.006 17.0499 308.796 16.7599 309.286 16.2699L308.966 15.7599C308.576 16.1699 307.946 16.4199 307.246 16.4199C306.036 16.4199 305.436 15.8299 305.436 14.7799C305.436 14.7099 305.436 14.6399 305.446 14.5699H309.866C309.906 14.3699 309.936 14.1499 309.936 13.9299C309.936 12.5299 309.036 11.6999 307.646 11.6999ZM307.626 12.2999C308.606 12.2999 309.276 12.8499 309.276 13.8499C309.276 13.9099 309.276 13.9699 309.266 14.0399H305.516C305.776 12.9899 306.566 12.2999 307.626 12.2999Z" fill="#CBD5E1"/>
<path d="M312.572 12.3399H314.172L314.292 11.7399H312.692L312.922 10.5899H312.212L311.982 11.7399H311.042L310.932 12.3399H311.862L311.252 15.4399C311.222 15.5799 311.212 15.7199 311.212 15.8499C311.212 16.5999 311.702 17.0499 312.492 17.0499C312.892 17.0499 313.332 16.9599 313.662 16.7099L313.492 16.1699C313.252 16.3499 312.972 16.4399 312.682 16.4399C312.172 16.4399 311.922 16.1899 311.922 15.7399C311.922 15.6399 311.942 15.5299 311.962 15.4099L312.572 12.3399Z" fill="#CBD5E1"/>
<path d="M319.011 16.9999H319.741L321.011 10.6399H323.471L323.611 9.99995H317.941L317.811 10.6399H320.281L319.011 16.9999Z" fill="#CBD5E1"/>
<path d="M324.807 10.5899C325.127 10.5899 325.367 10.3499 325.367 10.0299C325.367 9.78995 325.157 9.57995 324.877 9.57995C324.557 9.57995 324.327 9.81995 324.327 10.1199C324.327 10.3699 324.527 10.5899 324.807 10.5899ZM323.107 16.9999H323.817L324.857 11.7399H324.147L323.107 16.9999Z" fill="#CBD5E1"/>
<path d="M332.092 9.00995H331.202L329.862 10.0999H330.522L332.092 9.00995ZM329.082 10.3499L329.962 10.9399H330.632L329.462 9.99995H328.762L327.332 10.9399H328.032L329.082 10.3499ZM328.652 11.6999C326.972 11.6999 325.742 13.0199 325.742 14.8099C325.742 16.1899 326.672 17.0499 328.192 17.0499C329.012 17.0499 329.802 16.7599 330.292 16.2699L329.972 15.7599C329.582 16.1699 328.952 16.4199 328.252 16.4199C327.042 16.4199 326.442 15.8299 326.442 14.7799C326.442 14.7099 326.442 14.6399 326.452 14.5699H330.872C330.912 14.3699 330.942 14.1499 330.942 13.9299C330.942 12.5299 330.042 11.6999 328.652 11.6999ZM328.632 12.2999C329.612 12.2999 330.282 12.8499 330.282 13.8499C330.282 13.9099 330.282 13.9699 330.272 14.0399H326.522C326.782 12.9899 327.572 12.2999 328.632 12.2999Z" fill="#CBD5E1"/>
<path d="M335.437 11.6999C334.607 11.6999 333.887 11.9799 333.377 12.5799L333.547 11.7399H332.867L331.827 16.9999H332.537L333.097 14.1799C333.347 12.9499 334.117 12.3399 335.237 12.3399C336.147 12.3399 336.597 12.7699 336.597 13.5199C336.597 13.6699 336.577 13.8299 336.547 13.9999L335.947 16.9999H336.657L337.257 14.0099C337.297 13.7999 337.317 13.5999 337.317 13.4099C337.317 12.3399 336.627 11.6999 335.437 11.6999Z" fill="#CBD5E1"/>
<path d="M343.855 11.7399L343.635 12.8999C343.335 12.0999 342.555 11.6999 341.585 11.6999C339.835 11.6999 338.585 12.9899 338.585 14.6799C338.585 15.9899 339.515 16.7999 340.905 16.7999C341.795 16.7999 342.505 16.4599 343.005 15.8999L342.885 16.4799C342.635 17.7499 341.935 18.3599 340.605 18.3599C339.765 18.3599 339.055 18.0899 338.635 17.6599L338.215 18.1999C338.755 18.7099 339.565 18.9899 340.555 18.9899C342.265 18.9899 343.245 18.2199 343.615 16.3599L344.535 11.7399H343.855ZM341.045 16.1699C339.945 16.1699 339.305 15.5999 339.305 14.6399C339.305 13.2999 340.265 12.3199 341.595 12.3199C342.685 12.3199 343.335 12.8899 343.335 13.8499C343.335 15.1899 342.365 16.1699 341.045 16.1699Z" fill="#CBD5E1"/>
<path d="M353.507 16.9999H354.247L352.447 9.99995H351.717L347.117 16.9999H347.917L349.127 15.1299H353.037L353.507 16.9999ZM349.507 14.5299L351.947 10.7499L352.897 14.5299H349.507Z" fill="#CBD5E1"/>
<path d="M358.865 11.6999C358.035 11.6999 357.315 11.9799 356.805 12.5799L356.975 11.7399H356.295L355.255 16.9999H355.965L356.525 14.1799C356.775 12.9499 357.545 12.3399 358.665 12.3399C359.575 12.3399 360.025 12.7699 360.025 13.5199C360.025 13.6699 360.005 13.8299 359.975 13.9999L359.375 16.9999H360.085L360.685 14.0099C360.725 13.7999 360.745 13.5999 360.745 13.4099C360.745 12.3399 360.055 11.6999 358.865 11.6999Z" fill="#CBD5E1"/>
<path d="M365.633 11.6999C364.823 11.6999 364.123 11.9599 363.623 12.5299L364.213 9.57995H363.503L362.023 16.9999H362.733L363.293 14.1799C363.543 12.9499 364.313 12.3399 365.433 12.3399C366.343 12.3399 366.793 12.7699 366.793 13.5199C366.793 13.6699 366.773 13.8299 366.743 13.9999L366.143 16.9999H366.853L367.453 14.0099C367.493 13.7999 367.513 13.5999 367.513 13.4099C367.513 12.3399 366.823 11.6999 365.633 11.6999Z" fill="#CBD5E1"/>
<path d="M369.46 18.9399L371.33 9.57995H369.49L369.37 10.1799H370.49L368.87 18.3399H367.75L367.63 18.9399H369.46Z" fill="#CBD5E1"/>
</g>
<path d="M625.253 235.578C641.984 235.578 655.546 222.103 655.546 205.481C655.546 188.858 641.984 175.383 625.253 175.383C608.523 175.383 594.961 188.858 594.961 205.481C594.961 222.103 608.523 235.578 625.253 235.578Z" fill="#FB923C"/>
<path d="M624.829 229.042C637.865 229.042 648.432 218.544 648.432 205.592C648.432 192.641 637.865 182.142 624.829 182.142C611.794 182.142 601.227 192.641 601.227 205.592C601.227 218.544 611.794 229.042 624.829 229.042Z" fill="white"/>
<path d="M624.795 229.49C620.969 229.49 617.178 228.57 613.69 226.764C608.004 223.806 603.806 218.827 601.885 212.738C599.963 206.65 600.543 200.183 603.521 194.534C606.498 188.875 611.509 184.713 617.637 182.804C623.765 180.895 630.273 181.471 635.96 184.43C647.705 190.526 652.266 204.99 646.13 216.66C643.152 222.309 638.141 226.48 632.013 228.389C629.642 229.128 627.21 229.49 624.795 229.49ZM624.847 182.564C622.518 182.564 620.173 182.916 617.888 183.63C611.985 185.47 607.147 189.486 604.282 194.929C601.417 200.381 600.855 206.616 602.707 212.48C604.559 218.345 608.601 223.152 614.08 225.998C619.567 228.845 625.842 229.404 631.745 227.563C637.648 225.723 642.486 221.707 645.351 216.264C651.271 205.016 646.874 191.077 635.553 185.195C632.195 183.449 628.534 182.564 624.847 182.564Z" fill="#1E293B"/>
<path d="M608.748 252.381L595.333 245.415C594.58 245.028 594.242 244.143 594.537 243.352L601.876 223.591C602.231 222.645 603.339 222.223 604.23 222.688L622.458 232.155C623.358 232.62 623.635 233.772 623.055 234.598L610.912 251.865C610.427 252.553 609.501 252.776 608.757 252.389L608.748 252.381Z" fill="#CBD5E1"/>
<path d="M609.527 253C609.198 253 608.861 252.923 608.549 252.759L595.134 245.794C594.19 245.304 593.766 244.194 594.13 243.205L601.469 223.444C601.677 222.877 602.127 222.43 602.69 222.215C603.252 222 603.893 222.034 604.429 222.309L622.657 231.777C623.194 232.061 623.583 232.551 623.73 233.136C623.877 233.72 623.756 234.34 623.41 234.838L611.267 252.106C610.86 252.682 610.202 253 609.527 253ZM603.451 222.928C603.296 222.928 603.148 222.954 603.001 223.014C602.664 223.143 602.404 223.41 602.283 223.745L594.943 243.498C594.727 244.083 594.978 244.736 595.541 245.028L608.956 251.994C609.51 252.286 610.202 252.114 610.557 251.607L622.7 234.34C622.908 234.047 622.977 233.677 622.891 233.333C622.804 232.989 622.57 232.689 622.259 232.525L604.031 223.057C603.849 222.963 603.65 222.92 603.451 222.92V222.928Z" fill="#1E293B"/>
<path d="M600.238 228.165L599.837 228.927L619.817 239.305L620.218 238.543L600.238 228.165Z" fill="#1E293B"/>
<path d="M597.823 234.647L597.422 235.409L615.822 244.966L616.223 244.204L597.823 234.647Z" fill="#1E293B"/>
<path d="M595.532 240.835L595.131 241.597L611.975 250.346L612.376 249.584L595.532 240.835Z" fill="#1E293B"/>
<path d="M614.27 226.583L613.509 226.179L620.614 212.678L635.423 209.015L635.631 209.849L621.194 213.418L614.27 226.583Z" fill="#1E293B"/>
<path d="M620.485 213.151L617.083 199.177L617.923 198.979L621.324 212.945L620.485 213.151Z" fill="#1E293B"/>
<path d="M569.723 276.067L562.679 276.445L536.209 277.863L534.888 267.991C512.356 266.066 520.036 220.59 520.036 220.59C521.048 208.896 535.875 204.807 549.697 208.733C559.624 211.551 565.622 245.033 568.213 263.695C569.226 271.024 569.715 276.058 569.715 276.058L569.723 276.067Z" fill="#FED7AA"/>
<path d="M532.777 240.927C533.417 240.927 533.935 240.407 533.935 239.767C533.935 239.126 533.417 238.607 532.777 238.607C532.137 238.607 531.619 239.126 531.619 239.767C531.619 240.407 532.137 240.927 532.777 240.927Z" fill="#1E293B"/>
<path d="M521.692 240.523C522.331 240.523 522.85 240.003 522.85 239.363C522.85 238.722 522.331 238.203 521.692 238.203C521.052 238.203 520.533 238.722 520.533 239.363C520.533 240.003 521.052 240.523 521.692 240.523Z" fill="#1E293B"/>
<path d="M518.44 236.244C518.268 236.244 518.097 236.21 517.934 236.141C517.23 235.857 516.878 235.076 517.153 234.362C517.23 234.165 517.942 232.438 519.847 231.69C521.297 231.123 522.961 231.287 524.798 232.189C525.484 232.524 525.776 233.357 525.433 234.045C525.098 234.732 524.266 235.015 523.579 234.68C522.481 234.148 521.58 234.01 520.894 234.268C520.096 234.569 519.752 235.368 519.744 235.376C519.521 235.909 518.997 236.236 518.457 236.236L518.44 236.244Z" fill="#1E293B"/>
<path d="M538.543 236.012C538.268 236.012 537.985 235.926 537.736 235.754C534.193 233.228 532.254 234.869 532.039 235.058C531.482 235.574 530.615 235.557 530.083 235.015C529.56 234.474 529.56 233.615 530.083 233.074C531.327 231.828 534.871 230.307 539.332 233.486C539.959 233.933 540.105 234.801 539.658 235.428C539.384 235.806 538.963 236.012 538.526 236.012H538.543Z" fill="#1E293B"/>
<path d="M523.227 247.499C522.979 247.499 522.773 247.302 522.764 247.053C522.704 245.755 523.022 244.887 523.682 244.475C524.669 243.865 525.982 244.569 526.033 244.604C526.256 244.724 526.333 245.008 526.213 245.231C526.093 245.454 525.81 245.532 525.587 245.411C525.338 245.274 524.6 244.99 524.163 245.265C523.811 245.489 523.639 246.09 523.682 247.018C523.691 247.276 523.493 247.491 523.236 247.499H523.219H523.227Z" fill="#1E293B"/>
<path d="M530.16 255.799C529.98 255.799 529.8 255.79 529.62 255.765C527.972 255.558 526.651 254.407 525.69 252.345L525.441 251.812L526.016 251.692C526.076 251.684 531.851 250.524 537.445 250.275L538.483 250.232L537.822 251.031C537.659 251.237 533.858 255.799 530.16 255.799ZM526.797 252.483C527.578 253.9 528.564 254.691 529.731 254.845C532.228 255.163 535.051 252.62 536.364 251.263C532.262 251.529 528.273 252.208 526.797 252.483Z" fill="#1E293B"/>
<path d="M558.852 240.626C558.852 240.626 559.805 230.488 554.528 225.745C549.26 220.994 519.358 230.72 520.036 220.59C520.713 210.46 528.418 204.875 541.126 206.19C553.833 207.504 561.392 218.571 563.091 230.402C564.79 242.233 562.224 236.94 562.224 236.94L558.844 240.626H558.852Z" fill="#1E293B"/>
<path d="M555.978 228.262C555.978 228.262 562.816 224.997 563.623 232.713C564.429 240.428 560.156 242.25 557.471 240.162" fill="#FED7AA"/>
<path d="M559.693 241.425C558.826 241.425 557.951 241.124 557.188 240.531L557.754 239.801C558.775 240.591 559.993 240.729 561.014 240.162C561.847 239.698 563.717 238.048 563.168 232.773C562.945 230.625 562.215 229.199 561.014 228.52C558.989 227.386 556.209 228.683 556.184 228.692L555.789 227.858C555.918 227.798 559.024 226.346 561.469 227.712C562.953 228.546 563.837 230.221 564.094 232.678C564.523 236.785 563.571 239.81 561.469 240.978C560.92 241.287 560.311 241.433 559.701 241.433L559.693 241.425Z" fill="#1E293B"/>
<path d="M546.454 265.929C546.257 265.929 546.076 265.808 546.016 265.611C545.939 265.37 546.068 265.104 546.308 265.027C546.385 265.001 553.919 262.466 556.209 258.007C556.33 257.775 556.604 257.689 556.836 257.809C557.067 257.93 557.153 258.205 557.033 258.437C554.571 263.231 546.926 265.8 546.6 265.912C546.548 265.929 546.505 265.937 546.454 265.937V265.929Z" fill="#1E293B"/>
<path d="M556.716 236.553C556.716 236.553 557.857 232.008 561.246 233.005C561.246 233.005 561.289 231.364 559.865 231.716" fill="#FED7AA"/>
<path d="M557.17 236.674L556.27 236.45C556.295 236.347 556.939 233.847 558.715 232.833C559.315 232.489 559.976 232.352 560.663 232.429C560.628 232.352 560.577 232.275 560.517 232.232C560.397 232.137 560.216 232.12 559.968 232.189L559.744 231.287C560.422 231.123 560.851 231.312 561.092 231.51C561.709 232.008 561.701 232.928 561.701 233.031L561.684 233.632L561.109 233.46C560.388 233.246 559.753 233.306 559.17 233.632C557.737 234.448 557.162 236.648 557.153 236.674H557.17Z" fill="#1E293B"/>
<path d="M569.483 270.654C569.483 270.654 617.103 281.514 624.07 287.331C631.037 293.148 620.08 458.376 620.372 472.622C596.853 474.074 495.145 480.509 489.919 478.181C484.694 475.852 481.991 290.372 491.773 285.475C501.022 280.844 529.688 269.451 541.597 271.943C553.507 274.435 569.491 270.654 569.491 270.654H569.483Z" fill="#FB7200"/>
<path d="M508.873 450.609C508.873 450.609 456.723 411.929 436.826 427.455C416.928 442.98 406.126 489.96 454.544 516.964C502.97 543.968 615.841 567.192 615.841 567.192L636.056 508.338L508.873 450.618V450.609Z" fill="#1E293B"/>
<path d="M615.841 567.183L628.651 570.319L636.056 508.321L615.841 567.183Z" fill="#FED7AA"/>
<path d="M605.657 584.341C605.133 586.927 604.704 590.175 604.756 593.809C604.773 595.098 604.842 596.429 604.996 597.796C605.365 601.207 606.206 604.832 607.767 608.501C609.827 613.355 613.147 618.278 618.312 622.823C620.886 625.1 623.924 627.274 627.493 629.302L673.32 547.955L664.019 541.7L634.177 521.629L607.45 578.043C607.45 578.043 606.437 580.449 605.657 584.332V584.341Z" fill="#FB7200"/>
<path d="M618.321 622.841C620.895 625.118 623.932 627.291 627.502 629.319L673.328 547.972L664.027 541.717L618.329 622.841H618.321Z" fill="#1E293B"/>
<path d="M607.064 445.97C607.064 445.97 659.214 407.29 679.111 422.815C699.008 438.34 709.811 485.32 661.393 512.324C612.967 539.328 500.095 562.552 500.095 562.552L479.881 503.698L607.064 445.978V445.97Z" fill="#1E293B"/>
<path d="M500.087 562.552L487.277 565.688L479.881 503.69L500.087 562.552Z" fill="#FED7AA"/>
<path d="M486.985 572.218C486.659 574.838 486.032 578.052 484.831 581.48C484.402 582.691 483.913 583.937 483.33 585.183C481.897 588.293 479.941 591.463 477.298 594.445C473.797 598.388 469.095 601.997 462.746 604.66C459.58 605.992 456.011 607.092 451.987 607.874L434.406 516.156L445.208 513.192L479.872 503.681L487.277 565.679C487.277 565.679 487.474 568.283 486.985 572.209V572.218Z" fill="#FB7200"/>
<path d="M462.738 604.669C459.572 606.001 456.002 607.101 451.978 607.882L434.397 516.165L445.2 513.201L462.729 604.669H462.738Z" fill="#1E293B"/>
<path d="M615.738 283.628C656.451 291.962 702.526 396.997 667.554 418.889C658.261 424.705 645.348 429.078 605.562 436.493L597.24 395.725L622.216 379.048L615.738 283.619V283.628Z" fill="#FB7200"/>
<path d="M507.491 278.997C507.491 278.997 507.02 279.375 487.139 287.331C468.632 294.746 436.251 338.993 436.251 390.166C436.251 418.657 486.213 438.34 486.213 438.34L502.103 394.505C502.103 394.505 495.411 371.642 496.106 365.319C496.809 358.995 493.386 351.469 493.386 351.469L507.491 278.98V278.997Z" fill="#FB7200"/>
<path d="M488.066 383.679C488.066 383.679 500.095 384.607 508.418 379.976C517.642 374.847 522.541 392.95 522.541 392.95C522.541 392.95 532.674 420.839 512.219 431.441L488.066 383.679Z" fill="#FED7AA"/>
<path d="M473.72 422.128C473.72 422.128 467.74 389.118 483.433 390.166C497.307 391.094 505.784 398.509 506.565 400.356C513.927 417.84 517.667 435.565 508.418 433.709C493.669 430.754 484.359 432.782 473.72 422.128Z" fill="#FED7AA"/>
<path d="M509.808 413.33C509.696 413.33 509.594 413.295 509.508 413.218C502.275 406.886 488.152 403.449 488.006 403.415C487.757 403.355 487.603 403.105 487.663 402.856C487.723 402.607 487.972 402.452 488.22 402.513C488.812 402.65 502.712 406.035 510.117 412.522C510.306 412.694 510.331 412.986 510.16 413.175C510.065 413.278 509.937 413.33 509.808 413.33Z" fill="#1E293B"/>
<path d="M508.118 424.628C507.998 424.628 507.886 424.585 507.792 424.49C503.467 420.186 491.309 417.05 491.189 417.016C490.94 416.955 490.794 416.698 490.855 416.457C490.915 416.208 491.163 416.053 491.412 416.122C491.918 416.251 503.939 419.353 508.435 423.837C508.615 424.018 508.615 424.31 508.435 424.49C508.341 424.585 508.229 424.628 508.109 424.628H508.118Z" fill="#1E293B"/>
<path d="M506.479 420.83C506.264 420.83 506.076 420.684 506.024 420.469L504.197 412.092C504.145 411.843 504.3 411.594 504.548 411.543C504.789 411.491 505.046 411.646 505.098 411.895L506.925 420.272C506.977 420.521 506.822 420.77 506.573 420.822C506.539 420.822 506.505 420.83 506.479 420.83Z" fill="#1E293B"/>
<path d="M508.581 431.905C508.349 431.905 508.152 431.733 508.126 431.501L507.663 427.626C507.629 427.369 507.809 427.145 508.066 427.111C508.315 427.068 508.547 427.257 508.581 427.515L509.044 431.39C509.079 431.647 508.899 431.871 508.641 431.905C508.624 431.905 508.607 431.905 508.581 431.905Z" fill="#1E293B"/>
<path d="M525.561 432.034L525.536 442.516L515.943 435.385L494.055 372.39L503.665 369.039L525.561 432.034Z" fill="white"/>
<path d="M525.999 443.435L515.557 435.677L515.514 435.539L493.472 372.106L503.956 368.455L504.111 368.893L526.033 431.965L526.007 443.435H525.999ZM516.338 435.101L525.072 441.597L525.098 432.12L503.382 369.632L494.647 372.673L516.346 435.101H516.338Z" fill="#1E293B"/>
<path d="M478.808 391.094C478.808 391.094 482.077 382.588 490.837 383.679C495.471 384.255 503.373 389.745 509.345 395.725C513.043 399.428 508.195 406.009 503.793 404.059C499.392 402.109 478.817 391.086 478.817 391.086L478.808 391.094Z" fill="#FED7AA"/>
<path d="M505.784 403.269C505.621 403.269 505.467 403.191 505.381 403.037C505.252 402.813 505.321 402.53 505.544 402.401C505.57 402.384 508.35 400.726 508.77 398.87C508.89 398.328 508.796 397.839 508.487 397.366C507.174 395.39 505.878 394.935 505.381 394.823L502.764 398.311C502.609 398.517 502.318 398.56 502.112 398.406C501.906 398.251 501.863 397.959 502.017 397.753L504.935 393.861H505.166C505.252 393.861 507.286 393.895 509.25 396.851C509.705 397.538 509.851 398.285 509.671 399.076C509.156 401.327 506.136 403.123 506.007 403.2C505.93 403.243 505.853 403.26 505.775 403.26L505.784 403.269Z" fill="#1E293B"/>
<path d="M487.757 394.797C487.757 394.797 487.68 394.797 487.637 394.78C487.388 394.72 487.242 394.462 487.302 394.213L488.993 387.726C489.053 387.477 489.31 387.322 489.559 387.391C489.808 387.451 489.954 387.709 489.894 387.958L488.203 394.445C488.152 394.651 487.963 394.789 487.757 394.789V394.797Z" fill="#1E293B"/>
<path d="M486.676 392.022C486.625 392.022 486.582 392.022 486.53 391.996C486.29 391.919 486.161 391.653 486.238 391.412L487.165 388.637C487.242 388.396 487.508 388.267 487.749 388.345C487.989 388.422 488.118 388.688 488.04 388.929L487.114 391.704C487.045 391.902 486.865 392.022 486.676 392.022Z" fill="#1E293B"/>
<path d="M499.701 399.033C499.606 399.033 499.512 399.007 499.426 398.947C499.22 398.801 499.177 398.509 499.323 398.303L503.407 392.675C503.553 392.469 503.845 392.426 504.051 392.572C504.257 392.718 504.3 393.01 504.154 393.216L500.07 398.844C499.975 398.973 499.838 399.033 499.692 399.033H499.701Z" fill="#1E293B"/>
<path d="M505.75 382.923C505.75 382.923 502.944 399.179 509.645 401.868C516.355 404.557 525.802 388.929 520.533 379.143C517.462 373.438 505.552 376.703 505.75 382.915V382.923Z" fill="#FED7AA"/>
<path d="M519.049 379.727C519.049 379.727 519.023 379.727 519.006 379.727L511.782 379.057C511.524 379.031 511.344 378.808 511.361 378.55C511.387 378.292 511.61 378.12 511.867 378.129L519.092 378.799C519.349 378.825 519.529 379.048 519.512 379.306C519.486 379.547 519.289 379.727 519.049 379.727Z" fill="#1E293B"/>
<path d="M510.795 400.227C510.718 400.227 510.64 400.21 510.572 400.167C510.529 400.141 506.239 397.71 508.092 392.804L508.238 392.409L517.805 395.046C518.054 395.115 518.2 395.373 518.131 395.613C518.062 395.863 517.813 396 517.565 395.94L508.821 393.526C507.612 397.4 510.872 399.274 511.018 399.359C511.241 399.488 511.318 399.763 511.198 399.987C511.112 400.141 510.958 400.227 510.795 400.227Z" fill="#1E293B"/>
<path d="M604.636 399.437C604.636 399.437 559.478 430.118 569.037 450.326L624.07 424.997L604.644 399.437H604.636Z" fill="#FED7AA"/>
<path d="M579.307 443.985C579.307 443.985 579.273 443.985 579.256 443.985C579.161 443.977 576.845 443.702 575.961 441.811C575.206 440.196 575.755 437.98 577.6 435.213L577.711 435.093L591.233 425.246C591.439 425.1 591.731 425.143 591.877 425.35C592.023 425.556 591.98 425.848 591.774 425.994L578.32 435.789C576.733 438.203 576.201 440.145 576.793 441.416C577.462 442.842 579.333 443.066 579.35 443.066C579.607 443.092 579.787 443.324 579.762 443.573C579.736 443.813 579.539 443.985 579.307 443.985Z" fill="#1E293B"/>
<path d="M571.413 448.23C571.276 448.23 571.139 448.169 571.044 448.049C570.993 447.98 569.809 446.382 569.817 443.667C569.826 441.21 570.873 437.318 575.781 432.721C575.969 432.549 576.261 432.558 576.433 432.747C576.604 432.936 576.596 433.228 576.407 433.4C567.587 441.657 571.602 447.259 571.782 447.491C571.937 447.697 571.894 447.98 571.688 448.135C571.602 448.195 571.508 448.23 571.405 448.23H571.413Z" fill="#1E293B"/>
<path d="M578.003 440.875C577.84 440.875 577.677 440.789 577.6 440.634C577.479 440.411 577.565 440.127 577.788 440.007L583.074 437.163L581.126 434.869C580.963 434.672 580.98 434.38 581.177 434.216C581.375 434.053 581.667 434.07 581.83 434.268L584.524 437.438L578.226 440.823C578.157 440.858 578.08 440.875 578.011 440.875H578.003Z" fill="#1E293B"/>
<path d="M594.571 411.457C594.571 411.457 570.881 419.198 570.435 436.253L594.571 411.457Z" fill="#FED7AA"/>
<path d="M573.086 430.917C572.966 430.917 572.838 430.866 572.752 430.771C572.58 430.582 572.589 430.29 572.778 430.118L583.134 420.452C583.323 420.28 583.614 420.289 583.786 420.478C583.957 420.667 583.949 420.959 583.76 421.131L573.404 430.797C573.318 430.883 573.198 430.917 573.086 430.917Z" fill="#1E293B"/>
<path d="M551.439 463.824L458.851 416.363L455.342 423.279L552.863 471.496L652.916 422.6L649.51 414.722L551.439 463.824Z" fill="white"/>
<path d="M552.863 472.012L552.657 471.909L454.715 423.485L458.645 415.735L551.439 463.3L649.741 414.086L653.517 422.824L653.122 423.021L552.863 472.02V472.012ZM455.968 423.073L552.872 470.981L652.324 422.377L649.287 415.357L551.439 464.348L551.233 464.245L459.057 416.998L455.968 423.081V423.073Z" fill="#1E293B"/>
<path d="M464.471 419.353C464.471 419.353 470.812 411.439 471.875 411.938C473.411 412.66 522.584 435.806 550.89 460.928C550.89 460.928 615.284 412.866 641.187 410.082L645.812 416.569L551.439 463.815L464.471 419.344V419.353Z" fill="white"/>
<path d="M551.439 464.339L463.759 419.507L464.11 419.06C468.469 413.622 471.146 411.079 472.073 411.517C474.132 412.488 522.696 435.419 550.916 460.335C555.746 456.761 616.313 412.29 641.136 409.627L641.402 409.601L646.498 416.749L551.43 464.348L551.439 464.339ZM465.192 419.198L551.448 463.3L645.125 416.397L640.973 410.572C615.309 413.605 551.816 460.817 551.173 461.298L550.873 461.521L550.59 461.272C522.73 436.545 474.51 413.682 471.738 412.376C470.957 412.556 467.834 415.942 465.192 419.189V419.198Z" fill="#1E293B"/>
<path d="M620.363 372.458C620.312 372.458 620.251 372.45 620.2 372.433C619.96 372.347 619.84 372.08 619.925 371.84L621.676 367.132L616.794 362.243C616.614 362.062 616.614 361.77 616.794 361.59C616.974 361.409 617.266 361.409 617.446 361.59L622.74 366.891L620.783 372.158C620.715 372.347 620.535 372.458 620.346 372.458H620.363Z" fill="#1E293B"/>
<path d="M488.607 367.415C488.607 367.415 488.572 367.415 488.555 367.415L478.765 366.298C478.508 366.272 478.328 366.04 478.362 365.783C478.388 365.525 478.628 365.344 478.877 365.379L488.667 366.496C488.924 366.522 489.104 366.754 489.07 367.011C489.044 367.243 488.838 367.424 488.615 367.424L488.607 367.415Z" fill="#1E293B"/>
<path d="M487.603 364.202C487.517 364.202 487.431 364.176 487.354 364.124L481.683 360.439C481.468 360.301 481.408 360.009 481.545 359.794C481.683 359.579 481.974 359.519 482.189 359.657L487.86 363.343C488.075 363.48 488.135 363.772 487.997 363.987C487.912 364.124 487.757 364.202 487.611 364.202H487.603Z" fill="#1E293B"/>
<path d="M458.456 328.563C458.405 328.563 458.353 328.554 458.293 328.537C458.053 328.451 457.933 328.185 458.018 327.944C458.096 327.721 466.333 305.58 481.691 296.73C481.906 296.601 482.197 296.679 482.326 296.902C482.455 297.126 482.377 297.409 482.154 297.538C467.088 306.216 458.971 328.047 458.885 328.271C458.816 328.46 458.636 328.572 458.447 328.572L458.456 328.563Z" fill="white"/>
<path d="M673.5 372.458C673.285 372.458 673.096 372.312 673.045 372.089C669.793 356.95 661.685 343.289 661.607 343.152C661.479 342.937 661.547 342.645 661.771 342.516C661.985 342.379 662.277 342.456 662.405 342.679C662.491 342.817 670.668 356.598 673.954 371.891C674.006 372.141 673.851 372.39 673.603 372.441C673.568 372.441 673.534 372.45 673.508 372.45L673.5 372.458Z" fill="white"/>
<defs>
<clipPath id="clip0_684_230">
<rect x="246" y="85" width="423" height="482" rx="8" fill="white"/>
</clipPath>
<clipPath id="clip1_684_230">
<rect width="492" height="320" fill="white"/>
</clipPath>
</defs>
</svg>
