<svg width="333" height="320" viewBox="0 0 333 320" fill="none" xmlns="http://www.w3.org/2000/svg">
<g clip-path="url(#clip0_380_1610)">
<path d="M54.1291 291.448C54.1291 291.448 95.7728 285.098 98.9488 282.629C102.125 280.16 132.652 258.292 132.652 258.292C132.652 258.292 174.101 244.171 177.462 242.759C180.823 241.352 232.526 230.956 232.526 230.956C232.526 230.956 322.756 158.447 326.253 155.978C329.75 153.509 352.688 140.81 360.538 129.478C361.53 128.046 375.786 115.211 380.921 112.587C383.09 111.481 380.806 100.159 383.746 93.1832C386.572 86.478 393.275 76.6031 393.275 76.6031L419.744 93.5387L383.04 183.144C383.04 183.144 361.159 219.128 360.453 226.184C359.746 233.24 352.688 266.755 352.688 266.755L350.043 296.4L342.454 312.965L-22.8262 329.866L54.1291 291.448Z" fill="white"/>
<path d="M194.124 78.5761H159.117L173.96 15.8764L194.124 78.5761ZM159.563 78.2256H193.643L174.011 17.1834L159.563 78.2256Z" fill="#1E293B"/>
<path d="M178.664 92.0264H173.334V64.3947H178.664V92.0314V92.0264ZM173.685 91.6758H178.314V64.7452H173.685V91.6809V91.6758Z" fill="#1E293B"/>
<path d="M61.6284 304.632L66.683 279.314L74.9586 301.062L84.1509 270.551L90.5029 299.379L100.236 276.715L105.556 304.632H61.6284Z" fill="#FED7AA"/>
<path d="M91.8855 231.121L95.5023 213.009L101.418 228.568L107.996 206.74L112.539 227.361L119.508 211.151L123.31 231.121H91.8855Z" fill="#475569"/>
<path d="M299.548 106.959L301.822 95.5667L305.544 105.352L309.682 91.6208L312.537 104.59L316.92 94.395L319.31 106.959H299.548Z" fill="#FED7AA"/>
</g>
<g clip-path="url(#clip1_380_1610)">
<path d="M248.508 162.982L35.1644 162.99C33.6496 163.177 32.3174 161.995 32.3174 160.473V2.75369C32.3174 1.47223 33.2719 0.389827 34.546 0.236384L247.89 0.228089C249.404 0.0414687 250.737 1.2234 250.737 2.74539V160.465C250.737 161.746 249.782 162.829 248.508 162.982Z" fill="#FDBA74"/>
<path d="M34.8448 163.218C34.1932 163.218 33.5417 162.974 33.0353 162.53C32.446 162.012 32.1099 161.261 32.1099 160.473V2.75369C32.1099 1.36855 33.1474 0.199061 34.5211 0.0290285L247.89 0.0207343C248.649 -0.0705025 249.429 0.170031 250.019 0.692569C250.608 1.21511 250.944 1.96159 250.944 2.74954V160.465C250.944 161.85 249.907 163.019 248.533 163.189H248.508L35.1644 163.198C35.0565 163.21 34.9527 163.218 34.8448 163.218ZM248.201 0.414711C248.105 0.414711 248.01 0.418858 247.919 0.4313L34.5502 0.439594C33.4089 0.580596 32.529 1.57591 32.529 2.74954V160.473C32.529 161.141 32.8154 161.775 33.3176 162.219C33.8156 162.663 34.4838 162.866 35.1478 162.787L248.504 162.779C249.666 162.63 250.537 161.638 250.537 160.469V2.7454C250.537 2.07771 250.251 1.4432 249.749 0.999456C249.321 0.622067 248.769 0.414711 248.205 0.414711H248.201Z" fill="#1E293B"/>
<path d="M250.741 11.8442L32.3174 12.4745V2.77027C32.3174 1.47637 33.2802 0.389823 34.5668 0.232233H247.881C249.4 0.0414649 250.741 1.22754 250.741 2.75783V11.8442Z" fill="#334155"/>
<path d="M244.752 8.38133C246.059 8.38133 247.118 7.323 247.118 6.01747C247.118 4.71195 246.059 3.65361 244.752 3.65361C243.446 3.65361 242.386 4.71195 242.386 6.01747C242.386 7.323 243.446 8.38133 244.752 8.38133Z" fill="#B90F0F"/>
<path d="M237.817 8.38133C239.124 8.38133 240.183 7.323 240.183 6.01747C240.183 4.71195 239.124 3.65361 237.817 3.65361C236.511 3.65361 235.452 4.71195 235.452 6.01747C235.452 7.323 236.511 8.38133 237.817 8.38133Z" fill="#FB923C"/>
<path d="M230.882 8.38133C232.189 8.38133 233.248 7.323 233.248 6.01747C233.248 4.71195 232.189 3.65361 230.882 3.65361C229.576 3.65361 228.517 4.71195 228.517 6.01747C228.517 7.323 229.576 8.38133 230.882 8.38133Z" fill="#34D399"/>
<path d="M198.656 29.7059H52.5701C50.7365 29.7059 49.25 31.1912 49.25 33.0236V144.581C49.25 146.414 50.7365 147.899 52.5701 147.899H198.656C200.49 147.899 201.976 146.414 201.976 144.581V33.0236C201.976 31.1912 200.49 29.7059 198.656 29.7059Z" fill="#334155"/>
<path d="M194.091 25.9734H48.0049C46.1713 25.9734 44.6848 27.4588 44.6848 29.2911V140.849C44.6848 142.681 46.1713 144.167 48.0049 144.167H194.091C195.925 144.167 197.411 142.681 197.411 140.849V29.2911C197.411 27.4588 195.925 25.9734 194.091 25.9734Z" fill="white"/>
<path d="M194.091 144.374H48.0049C46.0585 144.374 44.4773 142.794 44.4773 140.849V29.2911C44.4773 27.3461 46.0585 25.7661 48.0049 25.7661H194.091C196.037 25.7661 197.619 27.3461 197.619 29.2911V140.849C197.619 142.794 196.037 144.374 194.091 144.374ZM48.0049 26.1808C46.2868 26.1808 44.8923 27.5784 44.8923 29.2911V140.849C44.8923 142.566 46.2909 143.959 48.0049 143.959H194.091C195.809 143.959 197.204 142.562 197.204 140.849V29.2911C197.204 27.5742 195.805 26.1808 194.091 26.1808H48.0049Z" fill="#1E293B"/>
<path d="M166.7 40.4884H56.7205V48.7826H166.7V40.4884Z" fill="#E2E8F0"/>
<path d="M166.7 51.6856H56.7205V59.9799H166.7V51.6856Z" fill="#E2E8F0"/>
<path d="M166.7 62.8828H56.7205V71.1771H166.7V62.8828Z" fill="#E2E8F0"/>
<path d="M176.245 89.4244H66.2659V97.7187H176.245V89.4244Z" fill="#E2E8F0"/>
<path d="M176.245 100.622H66.2659V108.916H176.245V100.622Z" fill="#E2E8F0"/>
<path d="M176.245 111.819H66.2659V120.113H176.245V111.819Z" fill="#E2E8F0"/>
<path d="M176.245 123.431H66.2659V131.725H176.245V123.431Z" fill="#E2E8F0"/>
<path d="M37.2644 25.9734H2.2328C1.11226 25.9734 0.20752 26.8817 0.20752 27.9972V42.2302C0.20752 43.3499 1.11641 44.254 2.2328 44.254H28.7565L37.1689 49.8194L33.9982 44.254H37.2644C38.3849 44.254 39.2897 43.3457 39.2897 42.2302V27.9972C39.2897 26.8775 38.3808 25.9734 37.2644 25.9734Z" fill="white"/>
<path d="M37.779 50.4705L28.6943 44.4613H2.23279C1.00019 44.4613 0 43.4619 0 42.2302V27.9972C0 26.7655 1.00019 25.7661 2.23279 25.7661H37.2644C38.497 25.7661 39.4972 26.7655 39.4972 27.9972V42.2302C39.4972 43.4619 38.497 44.4613 37.2644 44.4613H34.3551L37.779 50.4705ZM2.23279 26.1808C1.22845 26.1808 0.415017 26.9936 0.415017 27.9972V42.2302C0.415017 43.2338 1.2326 44.0466 2.23279 44.0466H28.8188L36.5547 49.1642L33.6371 44.0466H37.2602C38.2646 44.0466 39.078 43.2338 39.078 42.2302V27.9972C39.078 26.9936 38.2646 26.1808 37.2602 26.1808H2.23279Z" fill="#1E293B"/>
<path d="M56.7702 88.595H21.7387C20.6181 88.595 19.7134 89.5032 19.7134 90.6188V104.852C19.7134 105.971 20.6223 106.876 21.7387 106.876H48.2624L56.6748 112.441L53.5041 106.876H56.7702C57.8908 106.876 58.7955 105.967 58.7955 104.852V90.6188C58.7955 89.4991 57.8866 88.595 56.7702 88.595Z" fill="white"/>
<path d="M57.2848 113.092L48.2001 107.083H21.7387C20.5061 107.083 19.5059 106.083 19.5059 104.852V90.6188C19.5059 89.3871 20.5061 88.3877 21.7387 88.3877H56.7661C57.9987 88.3877 58.9989 89.3871 58.9989 90.6188V104.852C58.9989 106.083 57.9987 107.083 56.7661 107.083H53.8568L57.2807 113.092H57.2848ZM21.7428 88.8024C20.7385 88.8024 19.925 89.6152 19.925 90.6188V104.852C19.925 105.855 20.7426 106.668 21.7428 106.668H48.3246L56.0605 111.786L53.143 106.668H56.7661C57.7704 106.668 58.5839 105.855 58.5839 104.852V90.6188C58.5839 89.6152 57.7704 88.8024 56.7661 88.8024H21.7387H21.7428Z" fill="#1E293B"/>
<path d="M109.307 159.304H144.335C145.455 159.304 146.36 158.395 146.36 157.28V143.047C146.36 141.927 145.451 141.023 144.335 141.023H117.811L109.399 135.458L112.569 141.023H109.303C108.183 141.023 107.278 141.931 107.278 143.047V157.28C107.278 158.399 108.187 159.304 109.303 159.304H109.307Z" fill="white"/>
<path d="M144.339 159.511H109.311C108.079 159.511 107.079 158.511 107.079 157.28V143.047C107.079 141.815 108.079 140.816 109.311 140.816H112.221L108.797 134.806L117.882 140.816H144.343C145.576 140.816 146.576 141.815 146.576 143.047V157.28C146.576 158.511 145.576 159.511 144.343 159.511H144.339ZM109.311 141.23C108.307 141.23 107.494 142.043 107.494 143.047V157.28C107.494 158.283 108.311 159.096 109.311 159.096H144.339C145.343 159.096 146.157 158.283 146.157 157.28V143.047C146.157 142.043 145.343 141.23 144.339 141.23H117.753L110.017 136.113L112.934 141.23H109.311Z" fill="#1E293B"/>
<path d="M241.818 19.7527H142.421C140.588 19.7527 139.101 21.2381 139.101 23.0704V120.321C139.101 122.153 140.588 123.638 142.421 123.638H241.818C243.651 123.638 245.138 122.153 245.138 120.321V23.0704C245.138 21.2381 243.651 19.7527 241.818 19.7527Z" fill="#475569"/>
<path d="M241.818 123.846H142.421C140.475 123.846 138.894 122.266 138.894 120.321V23.0705C138.894 21.1254 140.475 19.5454 142.421 19.5454H241.818C243.764 19.5454 245.345 21.1254 245.345 23.0705V120.321C245.345 122.266 243.764 123.846 241.818 123.846ZM142.421 19.9601C140.703 19.9601 139.309 21.3535 139.309 23.0705V120.321C139.309 122.037 140.703 123.431 142.421 123.431H241.818C243.536 123.431 244.93 122.037 244.93 120.321V23.0705C244.93 21.3535 243.536 19.9601 241.818 19.9601H142.421Z" fill="white"/>
<path d="M131.938 80.8689C131.938 80.8689 119.77 66.8848 116.234 71.8448C116.234 71.8448 106.589 66.0762 105.485 65.1638C103.493 63.5215 100.625 64.55 104.24 69.3109C106.024 71.6623 111.913 75.3574 111.913 75.3574C111.913 75.3574 103.601 85.4142 107.842 89.3498C112.084 93.2896 124.173 95.4627 124.173 95.4627L131.938 80.8648V80.8689Z" fill="#FEE2E2"/>
<path d="M115.42 89.7396C115.325 89.7396 115.238 89.6733 115.217 89.5779C115.192 89.4659 115.263 89.354 115.375 89.3291C116.852 89.0015 121.222 81.9804 121.201 81.0141C121.181 80.0271 120.301 79.7202 120.264 79.7077C120.156 79.6704 120.098 79.5543 120.131 79.4465C120.164 79.3387 120.284 79.2806 120.392 79.3138C120.807 79.4506 121.592 79.9773 121.616 81.0058C121.641 82.1877 117.122 89.3664 115.466 89.7355C115.449 89.7355 115.437 89.7396 115.42 89.7396Z" fill="#1E293B"/>
<path d="M118.512 82.7891C118.479 82.7891 118.442 82.7808 118.408 82.76L112.561 79.4257C112.461 79.3677 112.428 79.2433 112.482 79.1437C112.54 79.0442 112.665 79.011 112.764 79.0649L118.612 82.3992C118.711 82.4573 118.745 82.5817 118.691 82.6812C118.653 82.7476 118.583 82.7849 118.512 82.7849V82.7891Z" fill="#1E293B"/>
<path d="M115.665 86.6708C115.64 86.6708 115.611 86.6666 115.586 86.6542L109.444 84.0788C109.34 84.0332 109.286 83.9129 109.332 83.8093C109.378 83.7056 109.498 83.6558 109.602 83.6973L115.744 86.2726C115.848 86.3183 115.902 86.4385 115.856 86.5422C115.823 86.621 115.744 86.6708 115.665 86.6708Z" fill="#1E293B"/>
<path d="M112.523 89.2254C112.453 89.2254 112.386 89.1881 112.345 89.1259C112.125 88.7609 111.146 88.7029 110.581 88.7526C110.477 88.7526 110.365 88.678 110.357 88.566C110.349 88.454 110.432 88.3503 110.544 88.3421C110.718 88.3255 112.279 88.2093 112.702 88.9144C112.76 89.0139 112.731 89.1383 112.631 89.2005C112.598 89.2212 112.561 89.2295 112.523 89.2295V89.2254Z" fill="#1E293B"/>
<path d="M116.566 72.8152C116.566 72.8152 115.117 79.8529 114.607 81.7108C114.092 83.5687 117.852 83.7719 119.471 81.1509" fill="#FEE2E2"/>
<path d="M116.69 82.5278C116.653 82.5278 116.611 82.5278 116.574 82.5195C115.47 82.3868 114.644 81.885 114.611 81.8642L114.466 81.773L115.051 80.2137L116.043 74.3331C116.064 74.2211 116.172 74.1465 116.284 74.163C116.396 74.1838 116.475 74.2875 116.454 74.4036L115.454 80.3215L114.98 81.5905C115.254 81.7315 115.877 82.0135 116.628 82.1048C117.263 82.1753 117.886 81.1095 118.168 80.4584L116.043 80.3132C115.927 80.3049 115.844 80.2054 115.852 80.0934C115.86 79.9773 115.96 79.8944 116.072 79.9027L118.757 80.0851L118.662 80.3423C118.579 80.5703 117.832 82.5236 116.694 82.5236L116.69 82.5278Z" fill="#1E293B"/>
<path d="M116.126 83.2577C114.79 83.2577 114.429 82.4448 114.408 82.4034C114.362 82.2997 114.412 82.1753 114.52 82.1297C114.624 82.084 114.744 82.1338 114.79 82.2375C114.81 82.2831 115.296 83.295 117.504 82.5941C117.537 82.5859 119.338 82.0841 121.446 77.1656C121.492 77.0619 121.612 77.0121 121.72 77.0577C121.824 77.1034 121.874 77.2236 121.828 77.3314C119.612 82.4946 117.691 82.9798 117.612 82.9964C117.018 83.1872 116.524 83.2577 116.126 83.2577Z" fill="#1E293B"/>
<path d="M119.097 77.0951C119.097 77.0951 119.072 77.0951 119.056 77.0951L117.118 76.7218C117.006 76.7011 116.931 76.5933 116.952 76.4771C116.972 76.361 117.085 76.2905 117.197 76.3113L119.135 76.6845C119.247 76.7052 119.321 76.8131 119.301 76.9292C119.28 77.0287 119.193 77.0992 119.097 77.0992V77.0951Z" fill="#1E293B"/>
<path d="M118.712 76.3776C118.712 76.3776 118.687 76.3776 118.678 76.3776L117.45 76.1702C117.338 76.1495 117.259 76.0458 117.28 75.9297C117.3 75.8177 117.408 75.7389 117.52 75.7597L118.749 75.967C118.861 75.9878 118.94 76.0915 118.919 76.2076C118.902 76.3113 118.815 76.3818 118.716 76.3818L118.712 76.3776Z" fill="#1E293B"/>
<path d="M105.086 69.2943C105.028 69.2943 104.966 69.2694 104.925 69.2197C104.854 69.1326 104.866 68.9999 104.954 68.9294L106.917 67.3327C107.004 67.2622 107.137 67.2747 107.207 67.3618C107.278 67.4488 107.265 67.5816 107.178 67.6521L105.215 69.2487C105.178 69.2819 105.132 69.2943 105.082 69.2943H105.086Z" fill="#1E293B"/>
<path d="M108.211 72.019C108.162 72.019 108.116 72.0024 108.074 71.9692C107.987 71.8946 107.979 71.7619 108.054 71.6748L109.901 69.5473C109.975 69.4602 110.108 69.4519 110.195 69.5266C110.282 69.6012 110.291 69.7339 110.216 69.821L108.369 71.9485C108.328 71.9941 108.27 72.019 108.211 72.019Z" fill="#1E293B"/>
<path d="M155.216 92.9537L128.207 77.4683L121.297 100.066L156.889 120.358L155.216 92.9537Z" fill="#FB923C"/>
<path d="M182.852 57.3838L169.451 60.7305L168.219 53.1827C155.196 52.1501 163.172 32.6918 163.172 32.6918C166.733 28.7147 172.946 27.5867 178.665 31.2279C182.773 33.8405 182.317 39.6133 180.968 48.3845C180.437 51.8266 182.852 57.3796 182.852 57.3796V57.3838Z" fill="#FEE2E2"/>
<path d="M163.085 39.9451C163.387 39.9451 163.633 39.7 163.633 39.3977C163.633 39.0954 163.387 38.8503 163.085 38.8503C162.782 38.8503 162.537 39.0954 162.537 39.3977C162.537 39.7 162.782 39.9451 163.085 39.9451Z" fill="#1E293B"/>
<path d="M166.521 37.9172C166.335 37.9172 166.144 37.8674 165.973 37.7596C164.749 36.9965 163.562 37.3324 163.512 37.349C162.969 37.5107 162.388 37.2039 162.222 36.6606C162.056 36.1173 162.35 35.5409 162.894 35.3708C162.981 35.346 165.015 34.7156 167.073 36.0012C167.559 36.3039 167.708 36.9426 167.401 37.432C167.206 37.7471 166.866 37.9172 166.521 37.9172Z" fill="#1E293B"/>
<path d="M163.857 47.4763C163.807 47.4763 163.753 47.4763 163.703 47.468C162.666 47.3477 162.164 46.0414 162.143 45.9875L162.047 45.7345L166.417 45.3198L166.173 45.6847C165.368 46.8791 164.591 47.4804 163.857 47.4804V47.4763ZM162.649 46.0911C162.828 46.4271 163.201 46.9911 163.753 47.0533C164.284 47.1155 164.911 46.6883 165.571 45.8091L162.653 46.087L162.649 46.0911Z" fill="#1E293B"/>
<path d="M169.244 58.8519C169.244 58.8519 159.225 66.7977 154.058 79.969C150.966 87.8486 152.801 92.9537 153.332 101.534C154.245 116.194 155.93 119.267 155.843 123.497C166.945 124.182 188.069 123.228 198.029 123.642C200.752 110.463 201.789 99.8462 201.163 86.4551C200.814 79.0608 192.161 60.5107 182.74 56.1189C176.668 56.9566 169.244 58.856 169.244 58.856V58.8519Z" fill="#FB923C"/>
<path d="M170.115 53.7965C170.003 53.7965 169.912 53.7094 169.908 53.5933C169.908 53.4772 169.995 53.3818 170.111 53.3818C170.149 53.3818 173.9 53.2532 175.544 51.5488C175.623 51.4658 175.756 51.4617 175.839 51.5446C175.922 51.6234 175.926 51.7561 175.843 51.8391C174.083 53.6679 170.281 53.7923 170.124 53.8006H170.12L170.115 53.7965Z" fill="#1E293B"/>
<path d="M160.952 41.4339C160.952 41.4339 159.08 42.027 160.777 43.6734L160.952 41.4339Z" fill="#FEE2E2"/>
<path d="M174.436 42.0311C174.436 42.0311 175.793 41.1727 174.909 38.4978C174.311 34.9727 172.701 35.2381 163.172 32.6959C164.845 28.217 168.617 25.3721 174.27 27.4664C179.926 29.5607 183.367 33.6042 182.761 39.2028C182.603 40.6667 180.341 47.3436 182.226 51.7354C185.546 59.4781 175.108 72.865 175.108 72.865C175.108 72.865 177.2 61.9871 173.224 55.501C169.248 49.0149 174.44 42.0311 174.44 42.0311H174.436Z" fill="#1E293B"/>
<path d="M174.581 38.6595C174.581 38.6595 177.357 37.378 176.345 40.8201C175.332 44.2623 173.954 44.9382 173.116 44.3079" fill="#FEE2E2"/>
<path d="M173.726 44.7267C173.465 44.7267 173.216 44.6438 172.991 44.4779L173.24 44.1461C173.469 44.3162 173.722 44.3577 173.996 44.2664C174.369 44.142 175.324 43.5531 176.146 40.7621C176.444 39.7502 176.432 39.0701 176.112 38.7922C175.739 38.4687 174.942 38.7217 174.672 38.8461L174.498 38.4687C174.548 38.4439 175.731 37.9089 176.386 38.477C176.847 38.8752 176.901 39.6797 176.548 40.8782C175.921 43.0057 175.062 44.3494 174.133 44.6562C174 44.7019 173.863 44.7226 173.73 44.7226L173.726 44.7267Z" fill="#1E293B"/>
<path d="M175.021 40.1317C175.021 40.1317 175.581 40.0695 174.49 41.9896L175.021 40.1317Z" fill="#FEE2E2"/>
<path d="M174.668 42.0933L174.307 41.8901C175.05 40.5796 174.955 40.3101 174.95 40.3018C174.95 40.3018 174.971 40.3474 175.046 40.3432L175 39.9327C175.087 39.9244 175.22 39.9576 175.303 40.082C175.432 40.2769 175.477 40.6833 174.672 42.1016L174.668 42.0933Z" fill="#1E293B"/>
<path d="M181.844 50.624C181.844 50.624 183.118 55.6171 188.899 60.9462C188.899 60.9462 184.189 57.3796 181.595 60.942C181.105 61.6138 181.844 50.624 181.844 50.624Z" fill="#1E293B"/>
<path d="M155.498 119.566L154.278 111.819L148.705 115.692L155.498 119.566Z" fill="#1E293B"/>
<path d="M176.822 123.638C176.706 123.638 176.615 123.547 176.615 123.431V105.768C176.615 105.652 176.706 105.561 176.822 105.561C176.938 105.561 177.03 105.652 177.03 105.768V123.431C177.03 123.547 176.938 123.638 176.822 123.638Z" fill="#1E293B"/>
<path d="M176.245 75.6477C176.195 75.6477 176.142 75.627 176.1 75.5896C176.017 75.5108 176.013 75.3781 176.096 75.2952L178.623 72.6701C178.702 72.5871 178.835 72.583 178.918 72.6659C179.001 72.7447 179.005 72.8774 178.922 72.9604L176.395 75.5855C176.353 75.627 176.299 75.6477 176.245 75.6477Z" fill="#1E293B"/>
<path d="M230.185 43.184C234.652 43.184 238.274 39.5652 238.274 35.1013C238.274 30.6373 234.652 27.0185 230.185 27.0185C225.718 27.0185 222.096 30.6373 222.096 35.1013C222.096 39.5652 225.718 43.184 230.185 43.184Z" fill="#B90F0F"/>
<path fill-rule="evenodd" clip-rule="evenodd" d="M235.526 36.8513C235.389 37.0089 235.178 37.125 234.937 37.1292H234.933L232.737 37.1375C232.293 37.1416 231.945 36.8057 231.936 36.362L231.924 35.6404C231.924 35.6404 231.924 35.6196 231.924 35.6072C231.924 35.6031 231.92 35.5989 231.916 35.5906C231.899 35.5616 231.878 35.5284 231.849 35.4869C231.849 35.4869 231.841 35.4869 231.837 35.4869C231.418 35.3708 230.803 35.2008 230.173 35.2132C229.455 35.2257 228.799 35.4911 228.421 35.6445C228.409 35.6487 228.396 35.657 228.384 35.6611L228.396 36.3744C228.405 36.8182 228.064 37.1707 227.62 37.1748L225.47 37.2121C225.217 37.237 224.989 37.1333 224.84 36.9592C224.69 36.785 224.628 36.5569 224.649 36.3371C224.649 36.3247 224.649 36.3164 224.653 36.3039L224.956 34.5746C224.956 34.5746 224.964 34.5414 224.968 34.5248C225.006 34.4087 225.101 34.1681 225.354 34.0354C225.715 33.8488 226.666 33.3968 228.272 33.1438C228.276 33.1438 228.284 33.1438 228.288 33.1438C228.844 33.0775 229.471 33.0111 230.106 32.9987H230.11C232.605 32.9862 234.314 33.6746 234.883 33.9318H234.891C234.991 33.9815 235.09 34.0562 235.173 34.1474C235.244 34.2262 235.327 34.3506 235.344 34.5165L235.701 36.2002C235.767 36.4698 235.663 36.7103 235.526 36.8638V36.8513ZM234.912 36.3288L234.559 34.6534C234.559 34.6534 234.555 34.6534 234.551 34.6492C234.045 34.4211 232.455 33.7783 230.123 33.7908C229.538 33.7991 228.948 33.8654 228.396 33.9276C226.927 34.164 226.064 34.5663 225.748 34.728C225.748 34.728 225.748 34.728 225.748 34.7322L225.454 36.3952L227.599 36.3578L227.587 35.6487C227.583 35.3376 227.745 35.0266 228.089 34.9022C228.106 34.8939 228.122 34.8897 228.139 34.8815C228.517 34.728 229.293 34.4128 230.164 34.4004C230.92 34.3879 231.65 34.5912 232.061 34.7073C232.111 34.7197 232.156 34.7322 232.198 34.7446C232.285 34.7695 232.364 34.8192 232.418 34.8939C232.488 34.9851 232.571 35.1012 232.629 35.2132C232.683 35.3128 232.746 35.4703 232.729 35.6487L232.741 36.3288L234.916 36.3205L234.912 36.3288Z" fill="#FEE2E2"/>
<path d="M38.5706 8.67097H40.9423L41.0086 8.34454H39.0092L39.657 5.10057H39.2846L38.5706 8.67097Z" fill="#CBD5E1"/>
<path d="M43.2175 5.15158L43.6765 5.57492H44.0029L43.4164 4.94245H43.0491L42.3198 5.57492H42.6666L43.2175 5.15158ZM42.9828 5.96767C42.08 5.96767 41.4323 6.64604 41.4323 7.55905C41.4323 8.24763 41.9066 8.69648 42.6513 8.69648C43.5541 8.69648 44.2019 8.0181 44.2019 7.1C44.2019 6.40632 43.7275 5.96767 42.9828 5.96767ZM42.6768 8.37514C42.1157 8.37514 41.7944 8.06911 41.7944 7.54375C41.7944 6.81436 42.2892 6.2839 42.9573 6.2839C43.5184 6.2839 43.8397 6.59504 43.8397 7.1204C43.8397 7.84978 43.345 8.37514 42.6768 8.37514ZM42.4269 9.20143C42.2892 9.20143 42.1769 9.31365 42.1769 9.44626C42.1769 9.55847 42.2535 9.64008 42.3657 9.64008C42.5085 9.64008 42.6156 9.53297 42.6156 9.39015C42.6156 9.27794 42.534 9.20143 42.4269 9.20143Z" fill="#CBD5E1"/>
<path d="M46.8831 6.29411H47.6992L47.7604 5.98807H46.9443L47.0616 5.4015H46.6995L46.5822 5.98807H46.1027L46.0466 6.29411H46.521L46.2098 7.87528C46.1945 7.94669 46.1894 8.0181 46.1894 8.08441C46.1894 8.46695 46.4393 8.69648 46.8423 8.69648C47.0463 8.69648 47.2707 8.65057 47.4391 8.52306L47.3524 8.24763C47.2299 8.33944 47.0871 8.38534 46.9392 8.38534C46.6791 8.38534 46.5516 8.25783 46.5516 8.0283C46.5516 7.9773 46.5618 7.92119 46.572 7.85998L46.8831 6.29411Z" fill="#CBD5E1"/>
<path d="M48.8481 6.47773L48.9399 5.98807H48.5931L48.0626 8.67097H48.4247L48.6951 7.30912C48.8277 6.64094 49.2102 6.31451 49.7815 6.31451C49.8223 6.31451 49.8478 6.31961 49.8835 6.31961L49.9498 5.96767C49.4398 5.96767 49.0878 6.12579 48.8481 6.47773Z" fill="#CBD5E1"/>
<path d="M50.8401 5.57492H51.2023L50.6208 4.94245H50.1414L50.8401 5.57492ZM50.07 8.67097H50.4321L50.9626 5.98807H50.6004L50.07 8.67097Z" fill="#CBD5E1"/>
<path d="M53.2811 5.96767C52.8577 5.96767 52.4905 6.11048 52.2303 6.41652L52.317 5.98807H51.9702L51.4397 8.67097H51.8019L52.0875 7.23261C52.215 6.60524 52.6078 6.29411 53.179 6.29411C53.6432 6.29411 53.8727 6.51343 53.8727 6.89597C53.8727 6.97248 53.8625 7.05409 53.8472 7.1408L53.5412 8.67097H53.9033L54.2094 7.1459C54.2298 7.03879 54.24 6.93678 54.24 6.83987C54.24 6.29411 53.888 5.96767 53.2811 5.96767Z" fill="#CBD5E1"/>
<path d="M56.7329 5.96767C56.3198 5.96767 55.9627 6.10028 55.7077 6.39102L56.0086 4.88635H55.6465L54.8916 8.67097H55.2537L55.5394 7.23261C55.6669 6.60524 56.0596 6.29411 56.6309 6.29411C57.095 6.29411 57.3246 6.51343 57.3246 6.89597C57.3246 6.97248 57.3144 7.05409 57.2991 7.1408L56.993 8.67097H57.3552L57.6612 7.1459C57.6816 7.03879 57.6918 6.93678 57.6918 6.83987C57.6918 6.29411 57.3399 5.96767 56.7329 5.96767Z" fill="#CBD5E1"/>
<path d="M61.5197 5.96767C61.1065 5.96767 60.7495 6.10028 60.4945 6.39102L60.7954 4.88635H60.4333L59.6784 8.67097H60.0405L60.3261 7.23261C60.4537 6.60524 60.8464 6.29411 61.4177 6.29411C61.8818 6.29411 62.1113 6.51343 62.1113 6.89597C62.1113 6.97248 62.1011 7.05409 62.0858 7.1408L61.7798 8.67097H62.1419L62.448 7.1459C62.4684 7.03879 62.4786 6.93678 62.4786 6.83987C62.4786 6.29411 62.1266 5.96767 61.5197 5.96767Z" fill="#CBD5E1"/>
<path d="M64.3337 8.69648C65.2365 8.69648 65.8843 8.0181 65.8843 7.1C65.8843 6.40632 65.4099 5.96767 64.6653 5.96767C63.7625 5.96767 63.1147 6.64604 63.1147 7.55905C63.1147 8.24763 63.589 8.69648 64.3337 8.69648ZM64.3592 8.37514C63.7982 8.37514 63.4768 8.06911 63.4768 7.54375C63.4768 6.81436 63.9716 6.2839 64.6398 6.2839C65.2008 6.2839 65.5222 6.59504 65.5222 7.1204C65.5222 7.84978 65.0274 8.37514 64.3592 8.37514ZM64.0481 9.64008C64.1909 9.64008 64.298 9.53297 64.298 9.39015C64.298 9.27794 64.2164 9.20143 64.1093 9.20143C63.9716 9.20143 63.8594 9.31365 63.8594 9.44626C63.8594 9.55847 63.9359 9.64008 64.0481 9.64008Z" fill="#CBD5E1"/>
<path d="M67.5519 8.69648C68.011 8.69648 68.4343 8.50776 68.6741 8.18642L68.4139 7.9875C68.2201 8.24253 67.909 8.37514 67.5672 8.37514C66.996 8.37514 66.6746 8.06911 66.6746 7.54375C66.6746 6.81436 67.1694 6.2839 67.8427 6.2839C68.2099 6.2839 68.47 6.41652 68.6231 6.68175L68.9291 6.50323C68.7302 6.14619 68.3629 5.96767 67.8733 5.96767C66.9603 5.96767 66.3125 6.64094 66.3125 7.55905C66.3125 8.24763 66.7869 8.69648 67.5519 8.69648Z" fill="#CBD5E1"/>
<path d="M71.4396 6.29411H72.2557L72.3169 5.98807H71.5008L71.6181 5.4015H71.256L71.1386 5.98807H70.6592L70.6031 6.29411H71.0774L70.7663 7.87528C70.751 7.94669 70.7459 8.0181 70.7459 8.08441C70.7459 8.46695 70.9958 8.69648 71.3988 8.69648C71.6028 8.69648 71.8272 8.65057 71.9955 8.52306L71.9088 8.24763C71.7864 8.33944 71.6436 8.38534 71.4957 8.38534C71.2355 8.38534 71.108 8.25783 71.108 8.0283C71.108 7.9773 71.1182 7.92119 71.1284 7.85998L71.4396 6.29411Z" fill="#CBD5E1"/>
<path d="M74.3709 5.15158L74.8299 5.57492H75.1563L74.5698 4.94245H74.2025L73.4731 5.57492H73.82L74.3709 5.15158ZM75.1461 5.98807L75.0339 6.54913C74.8809 6.17679 74.5239 5.96767 74.0138 5.96767C73.1416 5.96767 72.4989 6.64094 72.4989 7.55905C72.4989 8.26803 72.9784 8.69648 73.667 8.69648C74.1005 8.69648 74.4576 8.52816 74.7126 8.24763L74.6259 8.67097H74.9727L75.5083 5.98807H75.1461ZM73.7435 8.37514C73.1824 8.37514 72.8611 8.06911 72.8611 7.54375C72.8611 6.81436 73.3558 6.2839 74.024 6.2839C74.5851 6.2839 74.9064 6.59504 74.9064 7.1204C74.9064 7.84978 74.4117 8.37514 73.7435 8.37514ZM73.5803 9.20143C73.4425 9.20143 73.3303 9.31365 73.3303 9.44626C73.3303 9.55847 73.4068 9.64008 73.5191 9.64008C73.6619 9.64008 73.769 9.53297 73.769 9.39015C73.769 9.27794 73.6874 9.20143 73.5803 9.20143Z" fill="#CBD5E1"/>
<path d="M77.8175 5.96767C77.3839 5.96767 77.0269 6.13089 76.7719 6.41652L76.8586 5.98807H76.5117L75.7824 9.66048H76.1445L76.4505 8.10991C76.6035 8.48735 76.9606 8.69648 77.4706 8.69648C78.3479 8.69648 78.9906 8.0232 78.9906 7.1C78.9906 6.39612 78.5061 5.96767 77.8175 5.96767ZM77.4655 8.37514C76.9045 8.37514 76.5831 8.06911 76.5831 7.54375C76.5831 6.80926 77.0728 6.2839 77.741 6.2839C78.302 6.2839 78.6234 6.59504 78.6234 7.1204C78.6234 7.84978 78.1337 8.37514 77.4655 8.37514Z" fill="#CBD5E1"/>
<path d="M84.3995 5.30969H83.8895L83.9762 4.88635H83.614L83.5273 5.30969H82.4052L82.3542 5.57492H83.4763L83.2825 6.54913C83.1244 6.17679 82.7725 5.96767 82.2624 5.96767C81.3902 5.96767 80.7475 6.64094 80.7475 7.55905C80.7475 8.26803 81.227 8.69648 81.9156 8.69648C82.3491 8.69648 82.7061 8.52816 82.9612 8.24763L82.8745 8.67097H83.2213L83.8385 5.57492H84.3485L84.3995 5.30969ZM81.9921 8.37514C81.431 8.37514 81.1097 8.06911 81.1097 7.54375C81.1097 6.81436 81.6044 6.2839 82.2726 6.2839C82.8337 6.2839 83.155 6.59504 83.155 7.1204C83.155 7.84978 82.6602 8.37514 81.9921 8.37514Z" fill="#CBD5E1"/>
<path d="M86.5302 4.68742C86.6373 4.68742 86.7036 4.74353 86.7036 4.83534C86.7036 4.94245 86.6271 5.03936 86.4588 5.11077L86.5557 5.23829C86.7751 5.14648 86.9077 4.99346 86.9077 4.79964C86.9077 4.62112 86.7751 4.5038 86.571 4.5038C86.4486 4.5038 86.3415 4.53441 86.2395 4.59051L86.2956 4.74863C86.3721 4.70783 86.4537 4.68742 86.5302 4.68742ZM85.908 5.27909L86.3568 5.58002H86.6985L86.1018 5.10057H85.7447L85.0154 5.58002H85.3724L85.908 5.27909ZM85.6886 5.96767C84.8317 5.96767 84.2044 6.64094 84.2044 7.55395C84.2044 8.25783 84.6787 8.69648 85.454 8.69648C85.8722 8.69648 86.2752 8.54856 86.5251 8.29863L86.3619 8.0385C86.163 8.24763 85.8416 8.37514 85.4846 8.37514C84.8674 8.37514 84.5614 8.07421 84.5614 7.53865C84.5614 7.50294 84.5614 7.46724 84.5665 7.43153H86.821C86.8414 7.32952 86.8567 7.21731 86.8567 7.1051C86.8567 6.39102 86.3976 5.96767 85.6886 5.96767ZM85.6784 6.2737C86.1783 6.2737 86.52 6.55423 86.52 7.06429C86.52 7.0949 86.52 7.1255 86.5149 7.1612H84.6022C84.7348 6.62564 85.1378 6.2737 85.6784 6.2737Z" fill="#CBD5E1"/>
<path d="M89.857 8.69648C90.316 8.69648 90.7394 8.50776 90.9791 8.18642L90.719 7.9875C90.5252 8.24253 90.214 8.37514 89.8723 8.37514C89.301 8.37514 88.9797 8.06911 88.9797 7.54375C88.9797 6.81436 89.4745 6.2839 90.1477 6.2839C90.515 6.2839 90.7751 6.41652 90.9281 6.68175L91.2341 6.50323C91.0352 6.14619 90.668 5.96767 90.1783 5.96767C89.2653 5.96767 88.6176 6.64094 88.6176 7.55905C88.6176 8.24763 89.0919 8.69648 89.857 8.69648Z" fill="#CBD5E1"/>
<path d="M93.3186 5.96767C92.9054 5.96767 92.5484 6.10028 92.2934 6.39102L92.5943 4.88635H92.2321L91.4773 8.67097H91.8394L92.125 7.23261C92.2526 6.60524 92.6453 6.29411 93.2166 6.29411C93.6807 6.29411 93.9102 6.51343 93.9102 6.89597C93.9102 6.97248 93.9 7.05409 93.8847 7.1408L93.5787 8.67097H93.9408L94.2469 7.1459C94.2673 7.03879 94.2775 6.93678 94.2775 6.83987C94.2775 6.29411 93.9255 5.96767 93.3186 5.96767Z" fill="#CBD5E1"/>
<path d="M97.5202 5.98807L97.2346 7.43153C97.1071 8.0538 96.7143 8.37004 96.1482 8.37004C95.6891 8.37004 95.4647 8.14561 95.4647 7.75797C95.4647 7.68146 95.4749 7.60495 95.4902 7.51824L95.7962 5.98807H95.4341L95.128 7.51824C95.1076 7.62536 95.0974 7.72227 95.0974 7.81918C95.0974 8.37004 95.4494 8.69648 96.0512 8.69648C96.4644 8.69648 96.8265 8.55366 97.0867 8.24253L97 8.67097H97.3468L97.8823 5.98807H97.5202Z" fill="#CBD5E1"/>
<path d="M100.825 4.68232C100.932 4.68232 100.998 4.73843 100.998 4.83024C100.998 4.93735 100.922 5.03426 100.753 5.10567L100.85 5.23319C101.069 5.14138 101.202 4.98836 101.202 4.79454C101.202 4.61602 101.069 4.4987 100.865 4.4987C100.743 4.4987 100.636 4.52931 100.534 4.58541L100.59 4.74353C100.667 4.70273 100.748 4.68232 100.825 4.68232ZM100.202 5.27399L100.651 5.57492H100.993L100.396 5.09547H100.039L99.3097 5.57492H99.6668L100.202 5.27399ZM100.983 5.98807L100.871 6.54913C100.718 6.17679 100.36 5.96767 99.8504 5.96767C98.9782 5.96767 98.3355 6.64094 98.3355 7.55905C98.3355 8.26803 98.815 8.69648 99.5036 8.69648C99.9371 8.69648 100.294 8.52816 100.549 8.24763L100.462 8.67097H100.809L101.345 5.98807H100.983ZM99.5801 8.37514C99.019 8.37514 98.6977 8.06911 98.6977 7.54375C98.6977 6.81436 99.1924 6.2839 99.8606 6.2839C100.422 6.2839 100.743 6.59504 100.743 7.1204C100.743 7.84978 100.248 8.37514 99.5801 8.37514Z" fill="#CBD5E1"/>
<path d="M103.659 5.96767C103.236 5.96767 102.869 6.11048 102.608 6.41652L102.695 5.98807H102.348L101.818 8.67097H102.18L102.466 7.23261C102.593 6.60524 102.986 6.29411 103.557 6.29411C104.021 6.29411 104.251 6.51343 104.251 6.89597C104.251 6.97248 104.241 7.05409 104.225 7.1408L103.919 8.67097H104.281L104.587 7.1459C104.608 7.03879 104.618 6.93678 104.618 6.83987C104.618 6.29411 104.266 5.96767 103.659 5.96767Z" fill="#CBD5E1"/>
<path d="M108.441 5.96767C108.018 5.96767 107.671 6.12579 107.421 6.39102L107.722 4.88635H107.36L106.605 8.67097H106.951L107.069 8.08441C107.217 8.47715 107.574 8.69648 108.094 8.69648C108.971 8.69648 109.614 8.0232 109.614 7.1C109.614 6.39612 109.129 5.96767 108.441 5.96767ZM108.089 8.37514C107.528 8.37514 107.207 8.06911 107.207 7.54375C107.207 6.80926 107.696 6.2839 108.364 6.2839C108.925 6.2839 109.247 6.59504 109.247 7.1204C109.247 7.84978 108.757 8.37514 108.089 8.37514Z" fill="#CBD5E1"/>
<path d="M110.929 5.4015C111.092 5.4015 111.214 5.27909 111.214 5.11587C111.214 4.99346 111.107 4.88635 110.964 4.88635C110.801 4.88635 110.684 5.00876 110.684 5.16178C110.684 5.28929 110.786 5.4015 110.929 5.4015ZM110.061 8.67097H110.424L110.954 5.98807H110.592L110.061 8.67097ZM110.061 9.64008C110.204 9.64008 110.311 9.53297 110.311 9.39015C110.311 9.27794 110.23 9.20143 110.123 9.20143C109.985 9.20143 109.873 9.31365 109.873 9.44626C109.873 9.55847 109.949 9.64008 110.061 9.64008Z" fill="#CBD5E1"/>
<path d="M113.98 8.69648C114.439 8.69648 114.863 8.50776 115.102 8.18642L114.842 7.9875C114.648 8.24253 114.337 8.37514 113.995 8.37514C113.424 8.37514 113.103 8.06911 113.103 7.54375C113.103 6.81436 113.598 6.2839 114.271 6.2839C114.638 6.2839 114.898 6.41652 115.051 6.68175L115.357 6.50323C115.158 6.14619 114.791 5.96767 114.301 5.96767C113.388 5.96767 112.741 6.64094 112.741 7.55905C112.741 8.24763 113.215 8.69648 113.98 8.69648Z" fill="#CBD5E1"/>
<path d="M117.442 5.96767C117.029 5.96767 116.672 6.10028 116.416 6.39102L116.717 4.88635H116.355L115.6 8.67097H115.963L116.248 7.23261C116.376 6.60524 116.768 6.29411 117.34 6.29411C117.804 6.29411 118.033 6.51343 118.033 6.89597C118.033 6.97248 118.023 7.05409 118.008 7.1408L117.702 8.67097H118.064L118.37 7.1459C118.39 7.03879 118.401 6.93678 118.401 6.83987C118.401 6.29411 118.049 5.96767 117.442 5.96767Z" fill="#CBD5E1"/>
<path d="M120.256 8.69648C121.159 8.69648 121.806 8.0181 121.806 7.1C121.806 6.40632 121.332 5.96767 120.587 5.96767C119.684 5.96767 119.037 6.64604 119.037 7.55905C119.037 8.24763 119.511 8.69648 120.256 8.69648ZM120.281 8.37514C119.72 8.37514 119.399 8.06911 119.399 7.54375C119.399 6.81436 119.894 6.2839 120.562 6.2839C121.123 6.2839 121.444 6.59504 121.444 7.1204C121.444 7.84978 120.949 8.37514 120.281 8.37514Z" fill="#CBD5E1"/>
<path d="M123.467 9.66048H124.401L124.462 9.35445H123.896L124.722 5.19238H125.293L125.355 4.88635H124.421L123.467 9.66048Z" fill="#CBD5E1"/>
<path d="M127.014 6.75826L128.942 5.10057H128.447L125.958 7.23261L126.387 5.10057H126.014L125.3 8.67097H125.673L125.861 7.73757L126.739 6.98778L127.891 8.67097H128.315L127.014 6.75826Z" fill="#CBD5E1"/>
<path d="M129.667 5.4015C129.83 5.4015 129.953 5.27909 129.953 5.11587C129.953 4.99346 129.846 4.88635 129.703 4.88635C129.54 4.88635 129.422 5.00876 129.422 5.16178C129.422 5.28929 129.524 5.4015 129.667 5.4015ZM128.8 8.67097H129.162L129.693 5.98807H129.331L128.8 8.67097Z" fill="#CBD5E1"/>
<path d="M132.47 4.68742C132.577 4.68742 132.644 4.74353 132.644 4.83534C132.644 4.94245 132.567 5.03936 132.399 5.11077L132.496 5.23829C132.715 5.14648 132.848 4.99346 132.848 4.79964C132.848 4.62112 132.715 4.5038 132.511 4.5038C132.389 4.5038 132.282 4.53441 132.18 4.59051L132.236 4.74863C132.312 4.70783 132.394 4.68742 132.47 4.68742ZM131.848 5.27909L132.297 5.58002H132.639L132.042 5.10057H131.685L130.955 5.58002H131.312L131.848 5.27909ZM131.629 5.96767C130.772 5.96767 130.144 6.64094 130.144 7.55395C130.144 8.25783 130.619 8.69648 131.394 8.69648C131.812 8.69648 132.215 8.54856 132.465 8.29863L132.302 8.0385C132.103 8.24763 131.782 8.37514 131.425 8.37514C130.807 8.37514 130.501 8.07421 130.501 7.53865C130.501 7.50294 130.501 7.46724 130.507 7.43153H132.761C132.781 7.32952 132.797 7.21731 132.797 7.1051C132.797 6.39102 132.338 5.96767 131.629 5.96767ZM131.618 6.2737C132.118 6.2737 132.46 6.55423 132.46 7.06429C132.46 7.0949 132.46 7.1255 132.455 7.1612H130.542C130.675 6.62564 131.078 6.2737 131.618 6.2737Z" fill="#CBD5E1"/>
<path d="M137.063 5.96767C136.594 5.96767 136.201 6.14619 135.931 6.50323C135.814 6.16149 135.508 5.96767 135.054 5.96767C134.646 5.96767 134.294 6.10538 134.039 6.41652L134.125 5.98807H133.779L133.248 8.67097H133.61L133.896 7.23261C134.023 6.61034 134.401 6.29411 134.947 6.29411C135.396 6.29411 135.61 6.51343 135.61 6.89597C135.61 6.97248 135.6 7.05409 135.584 7.1408L135.278 8.67097H135.64L135.936 7.19181C136.059 6.58994 136.441 6.29411 136.977 6.29411C137.42 6.29411 137.64 6.51343 137.64 6.89087C137.64 6.96738 137.635 7.04899 137.614 7.1408L137.308 8.67097H137.67L137.976 7.1459C137.997 7.03369 138.012 6.92658 138.012 6.82967C138.012 6.289 137.67 5.96767 137.063 5.96767Z" fill="#CBD5E1"/>
<path d="M140.885 6.29411H141.701L141.762 5.98807H140.946L141.064 5.4015H140.701L140.584 5.98807H140.105L140.049 6.29411H140.523L140.212 7.87528C140.197 7.94669 140.191 8.0181 140.191 8.08441C140.191 8.46695 140.441 8.69648 140.844 8.69648C141.048 8.69648 141.273 8.65057 141.441 8.52306L141.354 8.24763C141.232 8.33944 141.089 8.38534 140.941 8.38534C140.681 8.38534 140.554 8.25783 140.554 8.0283C140.554 7.9773 140.564 7.92119 140.574 7.85998L140.885 6.29411Z" fill="#CBD5E1"/>
<path d="M142.85 6.47773L142.942 5.98807H142.595L142.065 8.67097H142.427L142.697 7.30912C142.83 6.64094 143.212 6.31451 143.783 6.31451C143.824 6.31451 143.85 6.31961 143.886 6.31961L143.952 5.96767C143.442 5.96767 143.09 6.12579 142.85 6.47773Z" fill="#CBD5E1"/>
<path d="M146.669 5.98807L146.557 6.54913C146.404 6.17679 146.046 5.96767 145.536 5.96767C144.664 5.96767 144.022 6.64094 144.022 7.55905C144.022 8.26803 144.501 8.69648 145.19 8.69648C145.623 8.69648 145.98 8.52816 146.235 8.24763L146.148 8.67097H146.495L147.031 5.98807H146.669ZM145.266 8.37514C144.705 8.37514 144.384 8.06911 144.384 7.54375C144.384 6.81436 144.878 6.2839 145.547 6.2839C146.108 6.2839 146.429 6.59504 146.429 7.1204C146.429 7.84978 145.934 8.37514 145.266 8.37514Z" fill="#CBD5E1"/>
<path d="M149.089 5.10057L149.022 5.42701H149.864L149.216 8.67097H149.589L150.303 5.10057H149.089Z" fill="#CBD5E1"/>
<path d="M152.909 6.29411H153.725L153.787 5.98807H152.971L153.088 5.4015H152.726L152.608 5.98807H152.129L152.073 6.29411H152.547L152.236 7.87528C152.221 7.94669 152.216 8.0181 152.216 8.08441C152.216 8.46695 152.466 8.69648 152.868 8.69648C153.073 8.69648 153.297 8.65057 153.465 8.52306L153.379 8.24763C153.256 8.33944 153.113 8.38534 152.965 8.38534C152.705 8.38534 152.578 8.25783 152.578 8.0283C152.578 7.9773 152.588 7.92119 152.598 7.85998L152.909 6.29411Z" fill="#CBD5E1"/>
<path d="M154.956 5.4015C155.119 5.4015 155.242 5.27909 155.242 5.11587C155.242 4.99346 155.134 4.88635 154.992 4.88635C154.828 4.88635 154.711 5.00876 154.711 5.16178C154.711 5.28929 154.813 5.4015 154.956 5.4015ZM154.089 8.67097H154.451L154.981 5.98807H154.619L154.089 8.67097Z" fill="#CBD5E1"/>
<path d="M158.672 4.59561H158.218L157.535 5.15158H157.871L158.672 4.59561ZM157.137 5.27909L157.586 5.58002H157.927L157.331 5.10057H156.973L156.244 5.58002H156.601L157.137 5.27909ZM156.917 5.96767C156.06 5.96767 155.433 6.64094 155.433 7.55395C155.433 8.25783 155.907 8.69648 156.683 8.69648C157.101 8.69648 157.504 8.54856 157.754 8.29863L157.591 8.0385C157.392 8.24763 157.07 8.37514 156.713 8.37514C156.096 8.37514 155.79 8.07421 155.79 7.53865C155.79 7.50294 155.79 7.46724 155.795 7.43153H158.05C158.07 7.32952 158.085 7.21731 158.085 7.1051C158.085 6.39102 157.626 5.96767 156.917 5.96767ZM156.907 6.2737C157.407 6.2737 157.749 6.55423 157.749 7.06429C157.749 7.0949 157.749 7.1255 157.744 7.1612H155.831C155.964 6.62564 156.366 6.2737 156.907 6.2737Z" fill="#CBD5E1"/>
<path d="M159.429 6.29411H160.246L160.307 5.98807H159.491L159.608 5.4015H159.246L159.129 5.98807H158.649L158.593 6.29411H159.067L158.756 7.87528C158.741 7.94669 158.736 8.0181 158.736 8.08441C158.736 8.46695 158.986 8.69648 159.389 8.69648C159.593 8.69648 159.817 8.65057 159.985 8.52306L159.899 8.24763C159.776 8.33944 159.633 8.38534 159.486 8.38534C159.225 8.38534 159.098 8.25783 159.098 8.0283C159.098 7.9773 159.108 7.92119 159.118 7.85998L159.429 6.29411Z" fill="#CBD5E1"/>
<path d="M162.714 8.67097H163.086L163.734 5.42701H164.989L165.06 5.10057H162.168L162.102 5.42701H163.362L162.714 8.67097Z" fill="#CBD5E1"/>
<path d="M165.67 5.4015C165.833 5.4015 165.956 5.27909 165.956 5.11587C165.956 4.99346 165.849 4.88635 165.706 4.88635C165.543 4.88635 165.425 5.00876 165.425 5.16178C165.425 5.28929 165.527 5.4015 165.67 5.4015ZM164.803 8.67097H165.165L165.696 5.98807H165.333L164.803 8.67097Z" fill="#CBD5E1"/>
<path d="M169.386 4.59561H168.932L168.249 5.15158H168.585L169.386 4.59561ZM167.851 5.27909L168.3 5.58002H168.641L168.045 5.10057H167.688L166.958 5.58002H167.315L167.851 5.27909ZM167.632 5.96767C166.775 5.96767 166.147 6.64094 166.147 7.55395C166.147 8.25783 166.622 8.69648 167.397 8.69648C167.815 8.69648 168.218 8.54856 168.468 8.29863L168.305 8.0385C168.106 8.24763 167.785 8.37514 167.428 8.37514C166.81 8.37514 166.504 8.07421 166.504 7.53865C166.504 7.50294 166.504 7.46724 166.509 7.43153H168.764C168.784 7.32952 168.8 7.21731 168.8 7.1051C168.8 6.39102 168.341 5.96767 167.632 5.96767ZM167.621 6.2737C168.121 6.2737 168.463 6.55423 168.463 7.06429C168.463 7.0949 168.463 7.1255 168.458 7.1612H166.545C166.678 6.62564 167.081 6.2737 167.621 6.2737Z" fill="#CBD5E1"/>
<path d="M171.092 5.96767C170.669 5.96767 170.302 6.11048 170.042 6.41652L170.128 5.98807H169.782L169.251 8.67097H169.613L169.899 7.23261C170.026 6.60524 170.419 6.29411 170.99 6.29411C171.455 6.29411 171.684 6.51343 171.684 6.89597C171.684 6.97248 171.674 7.05409 171.659 7.1408L171.352 8.67097H171.715L172.021 7.1459C172.041 7.03879 172.051 6.93678 172.051 6.83987C172.051 6.29411 171.699 5.96767 171.092 5.96767Z" fill="#CBD5E1"/>
<path d="M175.386 5.98807L175.273 6.57974C175.12 6.17169 174.723 5.96767 174.228 5.96767C173.335 5.96767 172.698 6.62564 172.698 7.48764C172.698 8.15582 173.172 8.56896 173.881 8.56896C174.335 8.56896 174.697 8.39554 174.952 8.10991L174.891 8.40574C174.763 9.05352 174.406 9.36465 173.728 9.36465C173.299 9.36465 172.937 9.22694 172.723 9.00761L172.509 9.28304C172.784 9.54317 173.197 9.68599 173.702 9.68599C174.575 9.68599 175.074 9.29324 175.263 8.34454L175.732 5.98807H175.386ZM173.952 8.24763C173.391 8.24763 173.065 7.95689 173.065 7.46724C173.065 6.78376 173.554 6.2839 174.233 6.2839C174.789 6.2839 175.12 6.57464 175.12 7.06429C175.12 7.74777 174.626 8.24763 173.952 8.24763Z" fill="#CBD5E1"/>
<path d="M180.309 8.67097H180.686L179.768 5.10057H179.396L177.05 8.67097H177.458L178.075 7.71717H180.069L180.309 8.67097ZM178.269 7.41113L179.513 5.48311L179.998 7.41113H178.269Z" fill="#CBD5E1"/>
<path d="M183.042 5.96767C182.618 5.96767 182.251 6.11048 181.991 6.41652L182.078 5.98807H181.731L181.201 8.67097H181.563L181.848 7.23261C181.976 6.60524 182.369 6.29411 182.94 6.29411C183.404 6.29411 183.634 6.51343 183.634 6.89597C183.634 6.97248 183.623 7.05409 183.608 7.1408L183.302 8.67097H183.664L183.97 7.1459C183.991 7.03879 184.001 6.93678 184.001 6.83987C184.001 6.29411 183.649 5.96767 183.042 5.96767Z" fill="#CBD5E1"/>
<path d="M186.494 5.96767C186.081 5.96767 185.724 6.10028 185.469 6.39102L185.769 4.88635H185.407L184.652 8.67097H185.015L185.3 7.23261C185.428 6.60524 185.82 6.29411 186.392 6.29411C186.856 6.29411 187.085 6.51343 187.085 6.89597C187.085 6.97248 187.075 7.05409 187.06 7.1408L186.754 8.67097H187.116L187.422 7.1459C187.442 7.03879 187.453 6.93678 187.453 6.83987C187.453 6.29411 187.101 5.96767 186.494 5.96767Z" fill="#CBD5E1"/>
<path d="M188.446 9.66048L189.4 4.88635H188.461L188.4 5.19238H188.971L188.145 9.35445H187.574L187.513 9.66048H188.446Z" fill="#CBD5E1"/>
</g>
<g clip-path="url(#clip2_380_1610)">
<path d="M292.771 121.915C302.285 121.915 309.997 114.231 309.997 104.752C309.997 95.2736 302.285 87.5895 292.771 87.5895C283.258 87.5895 275.546 95.2736 275.546 104.752C275.546 114.231 283.258 121.915 292.771 121.915Z" fill="#FB923C"/>
<path d="M292.53 118.189C299.943 118.189 305.951 112.202 305.951 104.816C305.951 97.4308 299.943 91.4438 292.53 91.4438C285.118 91.4438 279.109 97.4308 279.109 104.816C279.109 112.202 285.118 118.189 292.53 118.189Z" fill="white"/>
<path d="M292.511 118.444C290.335 118.444 288.18 117.919 286.196 116.889C282.963 115.202 280.576 112.363 279.483 108.891C278.391 105.419 278.721 101.732 280.414 98.51C282.107 95.2834 284.956 92.91 288.441 91.8214C291.925 90.7328 295.626 91.0613 298.859 92.7482C305.538 96.2249 308.132 104.473 304.642 111.127C302.949 114.349 300.1 116.727 296.615 117.816C295.267 118.238 293.884 118.444 292.511 118.444ZM292.54 91.6841C291.216 91.6841 289.883 91.8851 288.583 92.2922C285.227 93.3415 282.476 95.6316 280.847 98.7356C279.218 101.845 278.898 105.4 279.951 108.744C281.004 112.088 283.303 114.83 286.418 116.453C289.538 118.076 293.106 118.395 296.463 117.345C299.819 116.296 302.57 114.006 304.199 110.902C307.566 104.488 305.065 96.5388 298.628 93.1846C296.719 92.1892 294.637 91.6841 292.54 91.6841Z" fill="#1E293B"/>
<path d="M283.386 131.497L275.758 127.525C275.33 127.305 275.138 126.8 275.305 126.348L279.478 115.08C279.68 114.54 280.31 114.3 280.817 114.565L291.182 119.964C291.694 120.229 291.851 120.886 291.521 121.356L284.616 131.203C284.341 131.595 283.814 131.723 283.391 131.502L283.386 131.497Z" fill="#CBD5E1"/>
<path d="M283.829 131.85C283.642 131.85 283.45 131.806 283.273 131.713L275.645 127.741C275.108 127.462 274.867 126.829 275.074 126.265L279.247 114.996C279.365 114.673 279.621 114.418 279.941 114.295C280.261 114.172 280.625 114.192 280.93 114.349L291.295 119.748C291.6 119.91 291.822 120.189 291.905 120.523C291.989 120.856 291.92 121.209 291.723 121.494L284.818 131.34C284.587 131.669 284.213 131.85 283.829 131.85ZM280.374 114.702C280.286 114.702 280.202 114.717 280.118 114.751C279.926 114.825 279.779 114.977 279.71 115.168L275.536 126.432C275.413 126.765 275.556 127.138 275.876 127.305L283.504 131.277C283.819 131.443 284.213 131.345 284.415 131.056L291.32 121.209C291.438 121.043 291.477 120.832 291.428 120.636C291.379 120.439 291.246 120.268 291.069 120.175L280.704 114.776C280.601 114.722 280.487 114.697 280.374 114.697V114.702Z" fill="#1E293B"/>
<path d="M278.547 117.688L278.319 118.123L289.68 124.041L289.908 123.606L278.547 117.688Z" fill="#1E293B"/>
<path d="M277.174 121.384L276.946 121.819L287.409 127.269L287.637 126.835L277.174 121.384Z" fill="#1E293B"/>
<path d="M275.871 124.913L275.643 125.348L285.221 130.337L285.449 129.902L275.871 124.913Z" fill="#1E293B"/>
<path d="M286.526 116.786L286.093 116.556L290.134 108.857L298.554 106.768L298.672 107.244L290.463 109.279L286.526 116.786Z" fill="#1E293B"/>
<path d="M290.06 109.127L288.126 101.158L288.603 101.045L290.537 109.009L290.06 109.127Z" fill="#1E293B"/>
</g>
<path d="M256.843 130.068L252.851 130.271L237.852 131.032L237.103 125.733C224.335 124.699 228.687 100.288 228.687 100.288C229.26 94.0105 237.662 91.8151 245.495 93.9229C251.12 95.4356 254.519 113.409 255.987 123.426C256.561 127.361 256.838 130.063 256.838 130.063L256.843 130.068Z" fill="#FED7AA"/>
<path d="M235.907 111.204C236.27 111.204 236.563 110.926 236.563 110.582C236.563 110.238 236.27 109.959 235.907 109.959C235.545 109.959 235.251 110.238 235.251 110.582C235.251 110.926 235.545 111.204 235.907 111.204Z" fill="#1E293B"/>
<path d="M229.625 110.988C229.988 110.988 230.281 110.709 230.281 110.365C230.281 110.021 229.988 109.742 229.625 109.742C229.263 109.742 228.969 110.021 228.969 110.365C228.969 110.709 229.263 110.988 229.625 110.988Z" fill="#1E293B"/>
<path d="M227.782 108.691C227.685 108.691 227.588 108.672 227.496 108.635C227.097 108.483 226.898 108.064 227.053 107.681C227.097 107.575 227.5 106.648 228.58 106.246C229.402 105.942 230.345 106.03 231.385 106.514C231.774 106.694 231.94 107.141 231.745 107.51C231.555 107.879 231.084 108.031 230.695 107.851C230.073 107.565 229.562 107.492 229.173 107.63C228.721 107.791 228.526 108.22 228.522 108.225C228.395 108.511 228.099 108.686 227.792 108.686L227.782 108.691Z" fill="#1E293B"/>
<path d="M239.174 108.566C239.019 108.566 238.858 108.52 238.717 108.428C236.709 107.072 235.611 107.953 235.489 108.054C235.173 108.331 234.682 108.322 234.38 108.031C234.084 107.741 234.084 107.28 234.38 106.989C235.085 106.32 237.093 105.504 239.622 107.21C239.977 107.45 240.059 107.916 239.806 108.253C239.651 108.456 239.413 108.566 239.165 108.566H239.174Z" fill="#1E293B"/>
<path d="M230.495 114.733C230.354 114.733 230.238 114.627 230.233 114.493C230.199 113.796 230.379 113.331 230.753 113.109C231.312 112.782 232.056 113.16 232.085 113.178C232.212 113.243 232.255 113.395 232.187 113.515C232.119 113.635 231.959 113.676 231.832 113.612C231.691 113.538 231.273 113.386 231.025 113.534C230.826 113.653 230.729 113.976 230.753 114.474C230.758 114.613 230.646 114.728 230.5 114.733H230.491H230.495Z" fill="#1E293B"/>
<path d="M234.424 119.188C234.322 119.188 234.22 119.183 234.118 119.169C233.184 119.059 232.435 118.441 231.891 117.334L231.75 117.048L232.076 116.983C232.11 116.979 235.382 116.356 238.552 116.222L239.14 116.199L238.766 116.628C238.673 116.739 236.519 119.188 234.424 119.188ZM232.518 117.408C232.96 118.169 233.52 118.593 234.181 118.676C235.596 118.847 237.195 117.481 237.939 116.753C235.615 116.896 233.354 117.26 232.518 117.408Z" fill="#1E293B"/>
<path d="M250.683 111.043C250.683 111.043 251.222 105.601 248.232 103.055C245.247 100.504 228.303 105.725 228.687 100.288C229.071 94.8499 233.437 91.852 240.638 92.5577C247.838 93.2633 252.122 99.2037 253.084 105.555C254.047 111.905 252.593 109.064 252.593 109.064L250.678 111.043H250.683Z" fill="#1E293B"/>
<path d="M249.054 104.406C249.054 104.406 252.929 102.654 253.386 106.795C253.843 110.937 251.422 111.915 249.9 110.794" fill="#FED7AA"/>
<path d="M251.159 111.472C250.668 111.472 250.172 111.31 249.74 110.992L250.06 110.6C250.639 111.025 251.329 111.098 251.908 110.794C252.38 110.545 253.44 109.659 253.128 106.828C253.002 105.674 252.589 104.909 251.908 104.545C250.761 103.936 249.185 104.632 249.171 104.637L248.947 104.189C249.02 104.157 250.78 103.378 252.166 104.111C253.007 104.558 253.508 105.458 253.653 106.777C253.897 108.981 253.357 110.605 252.166 111.232C251.855 111.398 251.509 111.477 251.164 111.477L251.159 111.472Z" fill="#1E293B"/>
<path d="M243.657 124.626C243.545 124.626 243.443 124.561 243.409 124.455C243.365 124.326 243.438 124.183 243.574 124.141C243.618 124.128 247.887 122.767 249.185 120.373C249.253 120.249 249.409 120.203 249.54 120.267C249.672 120.332 249.72 120.479 249.652 120.604C248.257 123.177 243.925 124.556 243.74 124.616C243.711 124.626 243.686 124.63 243.657 124.63V124.626Z" fill="#1E293B"/>
<path d="M249.472 108.857C249.472 108.857 250.119 106.417 252.039 106.952C252.039 106.952 252.063 106.071 251.256 106.26" fill="#FED7AA"/>
<path d="M249.73 108.921L249.219 108.802C249.234 108.746 249.598 107.404 250.605 106.86C250.945 106.675 251.319 106.602 251.708 106.643C251.689 106.602 251.66 106.56 251.626 106.537C251.558 106.486 251.456 106.477 251.315 106.514L251.188 106.03C251.572 105.942 251.815 106.043 251.951 106.15C252.302 106.417 252.297 106.911 252.297 106.966L252.287 107.289L251.961 107.197C251.553 107.081 251.193 107.113 250.862 107.289C250.05 107.727 249.725 108.908 249.72 108.921H249.73Z" fill="#1E293B"/>
<path d="M256.707 127.162C256.707 127.162 283.691 132.992 287.639 136.114C291.587 139.237 285.379 227.932 285.544 235.579C272.217 236.358 214.582 239.813 211.621 238.563C208.66 237.313 207.128 137.747 212.671 135.118C217.912 132.632 234.157 126.517 240.905 127.854C247.654 129.192 256.712 127.162 256.712 127.162H256.707Z" fill="#FB7200"/>
<path d="M222.361 223.763C222.361 223.763 192.81 202.999 181.534 211.333C170.259 219.667 164.138 244.886 191.575 259.382C219.016 273.878 282.977 286.344 282.977 286.344L294.432 254.751L222.361 223.767V223.763Z" fill="#1E293B"/>
<path d="M282.977 286.34L290.236 288.023L294.432 254.742L282.977 286.34Z" fill="#FED7AA"/>
<path d="M277.205 295.55C276.909 296.938 276.666 298.682 276.695 300.633C276.704 301.324 276.743 302.039 276.831 302.773C277.04 304.604 277.516 306.55 278.401 308.519C279.568 311.125 281.45 313.768 284.377 316.208C285.835 317.43 287.557 318.597 289.579 319.685L315.548 276.018L310.277 272.66L293.367 261.886L278.221 292.169C278.221 292.169 277.648 293.461 277.205 295.545V295.55Z" fill="#FB7200"/>
<path d="M284.381 316.217C285.84 317.439 287.561 318.606 289.584 319.694L315.552 276.027L310.282 272.669L284.386 316.217H284.381Z" fill="#1E293B"/>
<path d="M278.003 221.272C278.003 221.272 307.554 200.508 318.829 208.843C330.105 217.177 336.226 242.396 308.789 256.891C281.348 271.387 217.387 283.854 217.387 283.854L205.932 252.261L278.003 221.277V221.272Z" fill="#1E293B"/>
<path d="M217.382 283.854L210.123 285.537L205.932 252.256L217.382 283.854Z" fill="#FED7AA"/>
<path d="M209.958 289.042C209.773 290.449 209.418 292.174 208.737 294.014C208.494 294.665 208.217 295.333 207.887 296.002C207.075 297.672 205.966 299.373 204.469 300.974C202.485 303.091 199.82 305.028 196.222 306.458C194.428 307.173 192.406 307.763 190.125 308.183L180.163 258.948L186.284 257.357L205.927 252.252L210.123 285.533C210.123 285.533 210.235 286.93 209.958 289.038V289.042Z" fill="#FB7200"/>
<path d="M196.218 306.462C194.424 307.177 192.401 307.767 190.121 308.187L180.158 258.953L186.28 257.362L196.213 306.462H196.218Z" fill="#1E293B"/>
<path d="M282.918 134.127C305.989 138.6 332.098 194.983 312.28 206.735C307.015 209.857 299.697 212.205 277.152 216.185L272.436 194.301L286.589 185.349L282.918 134.122V134.127Z" fill="#FB7200"/>
<path d="M221.578 131.641C221.578 131.641 221.311 131.844 210.046 136.114C199.558 140.095 181.209 163.847 181.209 191.317C181.209 206.61 209.521 217.177 209.521 217.177L218.525 193.646C218.525 193.646 214.733 181.373 215.127 177.978C215.525 174.584 213.585 170.544 213.585 170.544L221.578 131.631V131.641Z" fill="#FB7200"/>
<path d="M210.571 187.834C210.571 187.834 217.387 188.333 222.103 185.847C227.33 183.093 230.106 192.811 230.106 192.811C230.106 192.811 235.848 207.782 224.257 213.473L210.571 187.834Z" fill="#FED7AA"/>
<path d="M202.441 208.474C202.441 208.474 199.052 190.754 207.945 191.317C215.807 191.815 220.611 195.795 221.053 196.787C225.225 206.172 227.345 215.687 222.104 214.691C213.746 213.104 208.47 214.193 202.441 208.474Z" fill="#FED7AA"/>
<path d="M222.891 203.751C222.828 203.751 222.77 203.732 222.721 203.691C218.622 200.292 210.619 198.447 210.537 198.428C210.396 198.396 210.308 198.262 210.342 198.129C210.376 197.995 210.517 197.912 210.658 197.944C210.994 198.018 218.87 199.835 223.066 203.317C223.173 203.409 223.188 203.566 223.091 203.668C223.037 203.723 222.964 203.751 222.891 203.751Z" fill="#1E293B"/>
<path d="M221.933 209.816C221.865 209.816 221.802 209.793 221.749 209.742C219.298 207.431 212.409 205.748 212.341 205.729C212.2 205.697 212.117 205.559 212.151 205.43C212.185 205.296 212.326 205.213 212.467 205.25C212.754 205.319 219.566 206.984 222.113 209.391C222.215 209.488 222.215 209.645 222.113 209.742C222.06 209.793 221.997 209.816 221.929 209.816H221.933Z" fill="#1E293B"/>
<path d="M221.005 207.777C220.883 207.777 220.776 207.699 220.747 207.583L219.711 203.087C219.682 202.953 219.77 202.819 219.911 202.791C220.047 202.764 220.193 202.847 220.222 202.981L221.258 207.477C221.287 207.611 221.199 207.745 221.058 207.773C221.039 207.773 221.019 207.777 221.005 207.777Z" fill="#1E293B"/>
<path d="M222.196 213.722C222.064 213.722 221.953 213.63 221.938 213.505L221.675 211.425C221.656 211.287 221.758 211.167 221.904 211.149C222.045 211.126 222.176 211.227 222.196 211.365L222.458 213.445C222.478 213.584 222.376 213.704 222.23 213.722C222.22 213.722 222.21 213.722 222.196 213.722Z" fill="#1E293B"/>
<path d="M231.818 213.791L231.804 219.418L226.368 215.59L213.965 181.774L219.41 179.975L231.818 213.791Z" fill="white"/>
<path d="M232.066 219.912L226.149 215.747L226.125 215.673L213.634 181.622L219.575 179.662L219.663 179.897L232.086 213.754L232.071 219.912H232.066ZM226.591 215.438L231.541 218.925L231.556 213.837L219.25 180.294L214.3 181.926L226.596 215.438H226.591Z" fill="#1E293B"/>
<path d="M205.325 191.815C205.325 191.815 207.177 187.249 212.141 187.834C214.767 188.143 219.245 191.091 222.629 194.301C224.724 196.288 221.977 199.821 219.483 198.774C216.989 197.727 205.33 191.81 205.33 191.81L205.325 191.815Z" fill="#FED7AA"/>
<path d="M220.611 198.35C220.519 198.35 220.431 198.309 220.383 198.225C220.31 198.106 220.349 197.953 220.475 197.884C220.49 197.875 222.065 196.985 222.303 195.989C222.371 195.698 222.318 195.435 222.143 195.182C221.399 194.121 220.665 193.876 220.383 193.816L218.9 195.689C218.812 195.8 218.647 195.823 218.53 195.74C218.413 195.657 218.389 195.5 218.477 195.389L220.13 193.3H220.261C220.31 193.3 221.462 193.318 222.575 194.905C222.833 195.274 222.916 195.675 222.814 196.099C222.522 197.308 220.81 198.272 220.738 198.313C220.694 198.336 220.65 198.345 220.606 198.345L220.611 198.35Z" fill="#1E293B"/>
<path d="M210.395 193.802C210.395 193.802 210.352 193.802 210.327 193.793C210.186 193.761 210.104 193.623 210.138 193.489L211.096 190.007C211.13 189.873 211.275 189.79 211.416 189.827C211.557 189.859 211.64 189.998 211.606 190.131L210.648 193.613C210.619 193.724 210.512 193.798 210.395 193.798V193.802Z" fill="#1E293B"/>
<path d="M209.783 192.313C209.754 192.313 209.73 192.313 209.7 192.299C209.564 192.257 209.491 192.114 209.535 191.985L210.06 190.496C210.104 190.366 210.255 190.297 210.391 190.339C210.527 190.38 210.6 190.523 210.556 190.652L210.031 192.142C209.992 192.248 209.89 192.313 209.783 192.313Z" fill="#1E293B"/>
<path d="M217.164 196.076C217.11 196.076 217.057 196.062 217.008 196.03C216.891 195.952 216.867 195.795 216.95 195.684L219.264 192.663C219.347 192.553 219.512 192.53 219.629 192.608C219.745 192.686 219.77 192.843 219.687 192.954L217.373 195.975C217.319 196.044 217.241 196.076 217.159 196.076H217.164Z" fill="#1E293B"/>
<path d="M220.591 187.429C220.591 187.429 219.001 196.155 222.799 197.598C226.601 199.042 231.954 190.652 228.969 185.399C227.228 182.337 220.479 184.089 220.591 187.424V187.429Z" fill="#FED7AA"/>
<path d="M228.128 185.713C228.128 185.713 228.113 185.713 228.103 185.713L224.009 185.353C223.864 185.339 223.761 185.219 223.771 185.081C223.786 184.943 223.912 184.85 224.058 184.855L228.152 185.215C228.298 185.229 228.4 185.349 228.39 185.487C228.376 185.616 228.264 185.713 228.128 185.713Z" fill="#1E293B"/>
<path d="M223.45 196.717C223.406 196.717 223.363 196.708 223.324 196.685C223.299 196.671 220.868 195.366 221.919 192.732L222.001 192.52L227.423 193.936C227.564 193.973 227.646 194.112 227.607 194.241C227.568 194.374 227.427 194.448 227.286 194.416L222.332 193.12C221.646 195.2 223.494 196.205 223.577 196.252C223.703 196.321 223.747 196.468 223.679 196.588C223.63 196.671 223.543 196.717 223.45 196.717Z" fill="#1E293B"/>
<path d="M276.627 196.293C276.627 196.293 251.038 212.763 256.454 223.61L287.639 210.014L276.632 196.293H276.627Z" fill="#FED7AA"/>
<path d="M262.274 220.207C262.274 220.207 262.254 220.207 262.245 220.207C262.191 220.202 260.878 220.055 260.378 219.04C259.95 218.173 260.261 216.983 261.306 215.498L261.369 215.433L269.032 210.148C269.149 210.069 269.314 210.092 269.397 210.203C269.479 210.314 269.455 210.471 269.338 210.549L261.715 215.807C260.815 217.103 260.514 218.145 260.849 218.828C261.228 219.593 262.288 219.713 262.298 219.713C262.444 219.727 262.546 219.852 262.531 219.985C262.517 220.115 262.405 220.207 262.274 220.207Z" fill="#1E293B"/>
<path d="M257.801 222.485C257.723 222.485 257.645 222.453 257.592 222.388C257.563 222.351 256.892 221.494 256.897 220.036C256.901 218.717 257.495 216.628 260.276 214.16C260.383 214.068 260.548 214.073 260.645 214.174C260.742 214.276 260.738 214.432 260.631 214.525C255.632 218.957 257.908 221.964 258.01 222.089C258.097 222.199 258.073 222.351 257.956 222.434C257.908 222.467 257.854 222.485 257.796 222.485H257.801Z" fill="#1E293B"/>
<path d="M261.535 218.537C261.442 218.537 261.35 218.491 261.306 218.408C261.238 218.288 261.287 218.136 261.413 218.071L264.408 216.545L263.305 215.313C263.212 215.207 263.222 215.05 263.334 214.963C263.446 214.875 263.611 214.884 263.703 214.99L265.23 216.692L261.661 218.51C261.622 218.528 261.578 218.537 261.54 218.537H261.535Z" fill="#1E293B"/>
<path d="M270.924 202.745C270.924 202.745 257.499 206.901 257.247 216.056L270.924 202.745Z" fill="#FED7AA"/>
<path d="M258.749 213.192C258.681 213.192 258.608 213.164 258.559 213.113C258.462 213.012 258.467 212.855 258.574 212.763L264.442 207.574C264.549 207.482 264.715 207.487 264.812 207.588C264.909 207.69 264.904 207.846 264.797 207.939L258.929 213.127C258.88 213.173 258.812 213.192 258.749 213.192Z" fill="#1E293B"/>
<path d="M246.482 230.856L194.015 205.379L192.027 209.092L247.289 234.975L303.985 208.727L302.055 204.498L246.482 230.856Z" fill="white"/>
<path d="M247.289 235.251L247.172 235.196L191.672 209.202L193.899 205.042L246.482 230.575L302.187 204.157L304.326 208.847L304.102 208.953L247.289 235.256V235.251ZM192.382 208.981L247.294 234.698L303.65 208.607L301.929 204.839L246.482 231.137L246.365 231.082L194.132 205.72L192.382 208.986V208.981Z" fill="#1E293B"/>
<path d="M197.2 206.984C197.2 206.984 200.793 202.736 201.396 203.004C202.266 203.391 230.131 215.816 246.171 229.302C246.171 229.302 282.661 203.502 297.339 202.007L299.96 205.49L246.482 230.851L197.2 206.979V206.984Z" fill="white"/>
<path d="M246.482 231.133L196.796 207.067L196.996 206.827C199.466 203.908 200.983 202.542 201.508 202.778C202.675 203.299 230.194 215.609 246.185 228.984C248.923 227.065 283.244 203.193 297.31 201.763L297.461 201.749L300.349 205.586L246.477 231.137L246.482 231.133ZM197.608 206.901L246.487 230.575L299.571 205.397L297.218 202.27C282.675 203.898 246.696 229.242 246.331 229.5L246.161 229.62L246.001 229.486C230.213 216.213 202.889 203.94 201.318 203.239C200.876 203.336 199.106 205.153 197.608 206.896V206.901Z" fill="#1E293B"/>
<path d="M285.539 181.811C285.51 181.811 285.476 181.806 285.447 181.797C285.31 181.751 285.242 181.608 285.291 181.479L286.283 178.952L283.516 176.327C283.414 176.23 283.414 176.074 283.516 175.977C283.618 175.88 283.784 175.88 283.886 175.977L286.886 178.822L285.777 181.65C285.738 181.751 285.636 181.811 285.529 181.811H285.539Z" fill="#1E293B"/>
<path d="M210.877 179.104C210.877 179.104 210.858 179.104 210.848 179.104L205.3 178.504C205.154 178.49 205.052 178.366 205.072 178.227C205.086 178.089 205.222 177.992 205.363 178.011L210.911 178.61C211.057 178.624 211.159 178.749 211.14 178.887C211.125 179.011 211.008 179.108 210.882 179.108L210.877 179.104Z" fill="#1E293B"/>
<path d="M210.308 177.379C210.26 177.379 210.211 177.365 210.167 177.337L206.953 175.359C206.832 175.285 206.798 175.128 206.876 175.013C206.953 174.897 207.119 174.865 207.24 174.939L210.454 176.918C210.576 176.991 210.61 177.148 210.532 177.264C210.483 177.337 210.396 177.379 210.313 177.379H210.308Z" fill="#1E293B"/>
<path d="M193.792 158.248C193.763 158.248 193.733 158.243 193.699 158.234C193.563 158.188 193.495 158.045 193.544 157.916C193.588 157.796 198.255 145.91 206.958 141.16C207.08 141.091 207.245 141.132 207.318 141.252C207.391 141.372 207.347 141.524 207.221 141.594C198.683 146.252 194.083 157.971 194.035 158.091C193.996 158.192 193.894 158.252 193.787 158.252L193.792 158.248Z" fill="white"/>
<path d="M315.649 181.811C315.528 181.811 315.421 181.733 315.392 181.613C313.549 173.486 308.954 166.153 308.911 166.079C308.838 165.964 308.877 165.807 309.003 165.738C309.125 165.664 309.29 165.706 309.363 165.826C309.411 165.899 314.045 173.297 315.907 181.507C315.936 181.64 315.849 181.774 315.708 181.802C315.688 181.802 315.669 181.806 315.654 181.806L315.649 181.811Z" fill="white"/>
<defs>
<clipPath id="clip0_380_1610">
<rect x="78" y="36.8503" width="240" height="273" rx="8" fill="white"/>
</clipPath>
<clipPath id="clip1_380_1610">
<rect width="250.948" height="163.218" fill="white"/>
</clipPath>
<clipPath id="clip2_380_1610">
<rect width="58" height="69" fill="white" transform="translate(275 62.8503)"/>
</clipPath>
</defs>
</svg>
