<?xml version="1.0" encoding="utf-8"?>
<!-- Generator: Adobe Illustrator 27.0.0, SVG Export Plug-In . SVG Version: 6.00 Build 0)  -->
<svg version="1.1" id="Layer_2_00000073714063394465246630000016731017922583629955_"
	 xmlns="http://www.w3.org/2000/svg" xmlns:xlink="http://www.w3.org/1999/xlink" x="0px" y="0px" viewBox="0 0 674 556.7"
	 style="enable-background:new 0 0 674 556.7;" xml:space="preserve">
<style type="text/css">
	.st0{clip-path:url(#SVGID_00000088125584753590142220000009433220695685780888_);}
	.st1{fill:#DE6501;}
	.st2{fill:#FB923C;}
	.st3{clip-path:url(#SVGID_00000180329834069997596900000002720197271721550777_);}
	.st4{fill:#1E293B;}
	.st5{fill:#FED7AA;}
	.st6{fill:#FB7200;}
	.st7{fill:#334155;}
	.st8{fill:#FFFFFF;}
</style>
<g id="Layer_1-2">
	<g>
		<defs>
			<rect id="SVGID_1_" width="674" height="556.7"/>
		</defs>
		<clipPath id="SVGID_00000083089705275216387440000002346674575573352325_">
			<use xlink:href="#SVGID_1_"  style="overflow:visible;"/>
		</clipPath>
		<g style="clip-path:url(#SVGID_00000083089705275216387440000002346674575573352325_);">
			<g>
				<g>
					<defs>
						<path id="SVGID_00000115478780984635760500000003758141732674937271_" d="M147,34h443c4.4,0,8,3.6,8,8v506.7c0,4.4-3.6,8-8,8
							H147c-4.4,0-8-3.6-8-8V42C139,37.6,142.6,34,147,34z"/>
					</defs>
					<clipPath id="SVGID_00000157296972694141195700000013822254132302486458_">
						<use xlink:href="#SVGID_00000115478780984635760500000003758141732674937271_"  style="overflow:visible;"/>
					</clipPath>
				</g>
				<polygon class="st1" points="158.3,577.2 307.3,454.3 357.3,509.3 515,397.8 614.3,577.1 				"/>
				<polygon class="st2" points="304,465.5 275.2,507.3 270.1,496 174.1,576.8 239.1,576.8 268.4,509 277.5,521.1 				"/>
				<g>
					<defs>
						<path id="SVGID_00000163047300841587562940000016204172248763301779_" d="M149,35h443c4.4,0,8,3.6,8,8v505.9c0,4.4-3.6,8-8,8
							H149c-4.4,0-8-3.6-8-8V43C141,38.6,144.6,35,149,35z"/>
					</defs>
					<clipPath id="SVGID_00000044865181326179970300000003570102206645517472_">
						<use xlink:href="#SVGID_00000163047300841587562940000016204172248763301779_"  style="overflow:visible;"/>
					</clipPath>
					<g style="clip-path:url(#SVGID_00000044865181326179970300000003570102206645517472_);">
						<g>
							<path class="st4" d="M391.8,564.2l182.8-1.4l-5-55.6L387,508.5L391.8,564.2L391.8,564.2z"/>
							<path class="st5" d="M502.3,241.2l-13.9,2.2l-34.5,5.3l-4.1-13.6c-34.8,1.3-36.9-68.7-36.9-68.7c-0.6-18,21.2-27,43-23.6
								c15.7,2.4,33.5,50.8,40.9,78.7C499.8,232.4,502.3,241.1,502.3,241.2L502.3,241.2L502.3,241.2z"/>
							<path class="st4" d="M422,198.3c1,0,1.8-0.8,1.8-1.8s-0.8-1.8-1.8-1.8s-1.8,0.8-1.8,1.8S421,198.3,422,198.3z"/>
							<path class="st4" d="M428,193.5c-0.6,0-1.2-0.5-1.3-1.1c-0.3-1.7-1-2.8-2.1-3.4c-2.3-1.4-5.7-0.3-5.7-0.3
								c-0.7,0.2-1.5-0.2-1.7-0.9s0.1-1.5,0.9-1.7c0.2-0.1,4.6-1.5,7.9,0.5c1.8,1.1,2.9,2.9,3.4,5.3c0.1,0.7-0.4,1.4-1.1,1.6
								C428.2,193.4,428.1,193.4,428,193.5L428,193.5L428,193.5z"/>
							<path class="st4" d="M428.3,217.3c-0.2,0-0.3-0.1-0.3-0.4s0.1-0.3,0.3-0.3c0.1,0,10-0.1,13.3-8c0.1-0.2,0.3-0.2,0.5-0.2
								c0.2,0.1,0.2,0.3,0.2,0.4C438.8,217.2,428.4,217.3,428.3,217.3L428.3,217.3L428.3,217.3z"/>
							<path class="st4" d="M453.9,193.5c0,0,2.7-6.8-3.4-13.6c-8.9-6.2-36.8,2-37.6-13.5c-0.9-15.5,9.9-25.5,29.5-25.9
								c19.6-0.4,32.6,12.4,38.1,29.9c1.4,4.6,3.4,12.3,3.4,12.3L453.9,193.5L453.9,193.5L453.9,193.5z"/>
							<path class="st5" d="M450.7,180.1c0,0,5.4-6.2,6.9,5.4c1.5,11.6-1.9,15.2-4.4,12.5"/>
							<path class="st4" d="M454.8,199.2c-0.6,0-1.3-0.3-1.9-0.9l0.5-0.5c0.4,0.5,1.1,1,1.9,0.6c1.7-0.8,2.9-5.1,1.9-12.8
								c-0.6-5-2-6.4-3-6.7c-1.6-0.5-3.3,1.5-3.3,1.5l-0.5-0.4c0.1-0.1,2-2.3,4-1.7c1.7,0.5,2.9,3,3.4,7.2
								c1.1,8.7-0.5,12.7-2.3,13.5C455.4,199.1,455.1,199.2,454.8,199.2L454.8,199.2L454.8,199.2z"/>
							<path class="st6" d="M453.9,248.7c0,0-28.9,25.2-45.7,68.1c-27.3,69.5-20.7,169.9-21.2,191.7c36.2,2.2,174.6,2.2,182.6-1.3
								s-5.9-125.6-7.9-169.2c-1.1-24.1-29.3-84.5-60-98.8C481.9,241.9,453.9,248.7,453.9,248.7L453.9,248.7L453.9,248.7z"/>
							<path class="st5" d="M348.4,366.3c0,0-16.8-38-33.6-56c-5.2-5.6-20.2-13.1-24.9-13c-8.6,0.1-7,11.9,4.2,15.5
								c3.1,1,7.8,4.9,9.6,9c4.2,9.9,0.5,7.3-3.4,3.9c-8.2-7.1-35.9,11.9-35.4,26.7c0.8,22.3,33.5,50,33.5,50L348.4,366.3
								L348.4,366.3L348.4,366.3z"/>
							<path class="st5" d="M347.8,364.6c0,0-3-47.6-26.1-44.9C301.6,322.1,347.8,364.6,347.8,364.6z"/>
							<path class="st4" d="M292.8,342.3c-0.1,0-0.2,0-0.3-0.1l-8.2-10.2c-0.1-0.1-0.1-0.4,0.1-0.5c0.1-0.1,0.4-0.1,0.5,0.1
								l8.2,10.2c0.1,0.1,0.1,0.4-0.1,0.5C293,342.2,292.9,342.3,292.8,342.3L292.8,342.3L292.8,342.3z"/>
							<path class="st4" d="M279.5,354.9c-0.1,0-0.2,0-0.3-0.1l-8.1-10.4c-0.1-0.1-0.1-0.4,0.1-0.5c0.1-0.1,0.4-0.1,0.5,0.1
								l8.1,10.4c0.1,0.1,0.1,0.4,0,0.5C279.6,354.9,279.5,354.9,279.5,354.9L279.5,354.9z"/>
							<path class="st4" d="M339.2,339.1c-0.1,0-0.2,0-0.3-0.1l-12.3-14.5c-0.1-0.1-0.1-0.4,0-0.5c0.1-0.1,0.4-0.1,0.5,0l12.3,14.5
								c0.1,0.1,0.1,0.4,0,0.5C339.4,339,339.3,339.1,339.2,339.1z"/>
							<path class="st4" d="M288.1,309.9c-0.1,0-0.2,0-0.2-0.1c-0.1,0-6.7-6-2.8-10.8c3.9-4.8,14,0.8,14.4,1.1
								c0.2,0.1,0.2,0.3,0.1,0.5c-0.1,0.2-0.3,0.2-0.5,0.1c-0.1,0-10-5.5-13.5-1.2c-3.5,4.3,2.6,9.8,2.7,9.8c0.1,0.1,0.2,0.3,0,0.5
								C288.3,309.8,288.2,309.9,288.1,309.9L288.1,309.9L288.1,309.9z"/>
							<path class="st4" d="M291.2,306.3l-2.8-2.2c-0.1-0.1-0.2-0.3-0.1-0.5c0.1-0.1,0.3-0.2,0.5-0.1l2.3,1.8l4.5-4.7
								c0.1-0.1,0.4-0.1,0.5,0c0.1,0.1,0.1,0.3,0,0.5L291.2,306.3L291.2,306.3L291.2,306.3z"/>
							<path class="st4" d="M305.1,312.6c-0.1,0-0.2,0-0.2-0.1c-0.1-0.1-0.1-0.3,0-0.5l3.8-3.8c0.1-0.1,0.4-0.1,0.5,0
								c0.1,0.1,0.1,0.3,0,0.5l-3.8,3.8C305.3,312.5,305.2,312.6,305.1,312.6L305.1,312.6L305.1,312.6z"/>
							<path class="st4" d="M461.6,230.1c-0.1,0-0.2-0.1-0.3-0.2c-0.1-0.2,0-0.4,0.2-0.5c0.1-0.1,11.3-5.4,14-12.7
								c0.1-0.2,0.3-0.3,0.4-0.2s0.3,0.3,0.2,0.4c-2.8,7.6-13.9,12.9-14.3,13.1C461.7,230.1,461.6,230.1,461.6,230.1L461.6,230.1
								L461.6,230.1z"/>
							<path class="st5" d="M452.8,185.2c0,0,1.6-0.9,0.8,6.2L452.8,185.2z"/>
							<path class="st4" d="M454,191.4l-0.7-0.1c0.5-5.1-0.1-5.8-0.3-5.9l-0.4-0.6c0.2-0.1,0.5-0.1,0.7,0
								C454.2,185.4,454.4,187.6,454,191.4L454,191.4L454,191.4z"/>
							<path class="st6" d="M448.6,401.1L348,356.4l-49.6,46.2l127.5,89.6L448.6,401.1L448.6,401.1z"/>
							<path class="st5" d="M419,203.6c0,0-4.8,4.2,2.4,6.9L419,203.6z"/>
							<path class="st7" d="M386.6,464.7c1.1,2.9,46.3,18.1,68.2,15.6V510c-24.8-2.4-57.6-9.2-68-17.7L386.6,464.7L386.6,464.7
								L386.6,464.7z"/>
							<path class="st7" d="M459.5,246.8c0,0-1.5-2.2-5.6,1.9S442,261.1,442,261.1s18,0.3,20.7,8.3L459.5,246.8L459.5,246.8
								L459.5,246.8z"/>
						</g>
					</g>
				</g>
				<path class="st7" d="M478.4,241.7c0,0-2.8-37,29.7-35.7c32.5,1.4,29.1,36.5,29.1,36.5h-18.5c0,0,10.6-21-2-27.7
					c-12.6-6.8-20.7,17.2-13.2,26.9H478.4L478.4,241.7z"/>
				<path class="st2" d="M458.3,245.7c0,0,44.6-17.1,85.1-7.7c32,7.5,73.6,52.7,77.1,97.4s74.9,108.1,47.1,147.9
					c-27.9,39.8-99.9,46.9-136.1,39.1C495.3,514.7,458.3,245.7,458.3,245.7L458.3,245.7L458.3,245.7z"/>
				<path class="st7" d="M458.3,245.7c0,0,75.1,63.4,76,131.4s50.6,141.7,17.8,145.5c-49.6,5.8-99-9.1-99-9.1L458.3,245.7
					L458.3,245.7L458.3,245.7z"/>
				<path class="st7" d="M543.1,368.9c-0.2,0-0.3-0.1-0.3-0.3c0-0.2,0.1-0.3,0.3-0.4l86.2-3.3h0c0.2,0,0.3,0.1,0.3,0.3
					c0,0.2-0.1,0.3-0.3,0.4L543.1,368.9L543.1,368.9L543.1,368.9z"/>
				<path class="st7" d="M664,432h-88v12h88V432z"/>
				<path class="st8" d="M477.5,426.7c0,0-5.1-36.7,22.3-36.7c27.4,0,23.8,36.7,23.8,36.7H477.5L477.5,426.7z"/>
				<path class="st7" d="M523.9,427.1h-46.7l0-0.3c0-0.2-2.6-19.8,6.6-30.4c3.9-4.4,9.3-6.7,16.1-6.7s12.3,2.3,16.4,6.7
					c9.6,10.5,7.8,30.1,7.8,30.3L523.9,427.1L523.9,427.1L523.9,427.1z M477.8,426.4h45.5c0.2-2.5,1.1-19.9-7.6-29.5
					c-3.9-4.3-9.2-6.5-15.9-6.5s-11.8,2.2-15.5,6.5C475.9,406.5,477.5,423.9,477.8,426.4L477.8,426.4L477.8,426.4z"/>
				<path class="st8" d="M531.1,421.2h-62.7v10.9h62.7V421.2z"/>
				<path class="st7" d="M531.5,432.5h-63.4v-11.6h63.4V432.5z M468.8,431.9h62v-10.3h-62L468.8,431.9L468.8,431.9z"/>
				<path class="st8" d="M505.7,377.5h-12.8c-1.8,0-3.3,1.5-3.3,3.3v7.3c0,1.8,1.5,3.3,3.3,3.3h12.8c1.8,0,3.3-1.5,3.3-3.3v-7.3
					C509,379,507.5,377.5,505.7,377.5z"/>
				<path class="st7" d="M506.6,391.8H492c-1.5,0-2.8-1.2-2.8-2.8v-9c0-1.5,1.2-2.8,2.8-2.8h14.6c1.5,0,2.8,1.2,2.8,2.8v9
					C509.4,390.5,508.1,391.8,506.6,391.8z M492,377.8c-1.1,0-2.1,0.9-2.1,2.1v9c0,1.1,0.9,2.1,2.1,2.1h14.6c1.1,0,2.1-0.9,2.1-2.1
					v-9c0-1.1-0.9-2.1-2.1-2.1H492z"/>
				<path class="st7" d="M575.6,346.8h-18.3v40h18.3V346.8z"/>
				<path class="st8" d="M533.7,231.1c-5.7-15.4-14.2-17.4-14.3-17.4l0.1-0.7c0.4,0.1,9,2,14.8,17.8L533.7,231.1L533.7,231.1
					L533.7,231.1z"/>
				<path class="st7" d="M620.3,346.8H602v40h18.3V346.8z"/>
			</g>
		</g>
	</g>
</g>
</svg>
