<?xml version="1.0" encoding="utf-8"?>
<!-- Generator: Adobe Illustrator 27.0.0, SVG Export Plug-In . SVG Version: 6.00 Build 0)  -->
<svg version="1.1" id="Layer_2_00000067222170774251667010000005943857555091194507_"
	 xmlns="http://www.w3.org/2000/svg" xmlns:xlink="http://www.w3.org/1999/xlink" x="0px" y="0px" viewBox="0 0 674 556.7"
	 style="enable-background:new 0 0 674 556.7;" xml:space="preserve">
<style type="text/css">
	.st0{clip-path:url(#SVGID_00000085932256285993508160000017159124640229197227_);}
	.st1{fill:none;}
	.st2{fill:#FDBA74;}
	.st3{fill:#334155;}
	.st4{fill:#B90F0F;}
	.st5{fill:#FB923C;}
	.st6{fill:#34D399;}
	.st7{fill-rule:evenodd;clip-rule:evenodd;fill:#1E293B;}
	.st8{fill:#1E293B;}
	.st9{fill-rule:evenodd;clip-rule:evenodd;fill:#FB7200;}
	.st10{fill:#FB7200;}
	.st11{fill:#C15802;}
	.st12{fill:#CBD5E1;}
</style>
<g id="Layer_2-2">
	<g>
		<defs>
			<rect id="SVGID_1_" width="674" height="556.7"/>
		</defs>
		<clipPath id="SVGID_00000150059986088561737950000014736669058371579035_">
			<use xlink:href="#SVGID_1_"  style="overflow:visible;"/>
		</clipPath>
		<g style="clip-path:url(#SVGID_00000150059986088561737950000014736669058371579035_);">
			<g>
				<rect y="-0.3" class="st1" width="439" height="327"/>
				<path class="st2" d="M434.2,326.3H6c-3,0.4-5.7-2-5.7-5V5.1c0-2.6,1.9-4.7,4.5-5.1H433c3-0.4,5.7,2,5.7,5v316.2
					C438.7,323.8,436.8,326,434.2,326.3L434.2,326.3z"/>
				<path class="st3" d="M438.7,23.3L0.3,24.6V5.1c0-2.6,1.9-4.8,4.5-5.1H433c3-0.4,5.7,2,5.7,5.1V23.3L438.7,23.3z"/>
				<path class="st4" d="M426.7,16.4c2.6,0,4.7-2.1,4.7-4.7S429.3,7,426.7,7s-4.7,2.1-4.7,4.7S424.1,16.4,426.7,16.4z"/>
				<path class="st5" d="M412.8,16.4c2.6,0,4.7-2.1,4.7-4.7S415.4,7,412.8,7s-4.8,2-4.8,4.7S410.1,16.4,412.8,16.4z"/>
				<path class="st6" d="M398.8,16.4c2.6,0,4.7-2.1,4.7-4.7S401.4,7,398.8,7s-4.7,2.1-4.7,4.7S396.2,16.4,398.8,16.4z"/>
				<path class="st7" d="M350,80.8c-4.2,0-7.8-1.7-7.8-3.8s3.6-3.8,7.8-3.8s7.8,1.7,7.8,3.8S354.2,80.8,350,80.8z"/>
				<path class="st8" d="M350,73.9c4.1,0,7.2,1.7,7.2,3.1s-3.1,3.1-7.2,3.1s-7.2-1.7-7.2-3.1S345.9,73.9,350,73.9z M350,72.7
					c-4.7,0-8.4,2-8.4,4.4s3.8,4.4,8.4,4.4s8.4-2,8.4-4.4S354.7,72.7,350,72.7L350,72.7z"/>
				<path class="st8" d="M350,77.7c-0.4,0-0.6-0.3-0.6-0.6V55.2c0-0.3,0.3-0.6,0.6-0.6s0.6,0.3,0.6,0.6v21.9
					C350.6,77.4,350.4,77.7,350,77.7z"/>
				<path class="st9" d="M362.5,58.2L350,54.9v7.5C350,62.5,362.5,58.2,362.5,58.2z"/>
				<path class="st10" d="M349.4,63.3v-9.2l15.3,4L349.4,63.3z M350.6,55.7v5.8l9.7-3.3L350.6,55.7L350.6,55.7z"/>
				<path class="st11" d="M104,98.5l1.8-9l2.9,7.8l3.3-10.9l2.3,10.3l3.5-8.1l1.9,10C119.7,98.5,104,98.5,104,98.5L104,98.5z"/>
				<path class="st11" d="M131.2,92.2l1.8-9l2.9,7.8l3.3-10.9l2.3,10.3l3.5-8.1l1.9,10L131.2,92.2C131.2,92.2,131.2,92.2,131.2,92.2
					z"/>
				<path class="st11" d="M189.4,304.3l1.8-9l2.9,7.8l3.3-10.9l2.3,10.3l3.5-8.1l1.9,10L189.4,304.3L189.4,304.3L189.4,304.3z"/>
				<path class="st11" d="M210.9,308.7l1.8-9l2.9,7.8l3.3-10.9l2.3,10.3l3.5-8.1l1.9,10L210.9,308.7L210.9,308.7L210.9,308.7z"/>
				<path class="st11" d="M324.1,255.7l1.8-9l3,7.8l3.3-10.9l2.3,10.3l3.5-8.1l1.9,10h-15.8L324.1,255.7L324.1,255.7z"/>
				<path class="st11" d="M350.7,249.4l1.8-9l3,7.8l3.3-10.9l2.3,10.3l3.5-8.1l1.9,10h-15.8L350.7,249.4L350.7,249.4z"/>
				<path class="st5" d="M316.6,215.1l-6.8,28.6h16L316.6,215.1L316.6,215.1z"/>
				<path class="st5" d="M326.2,244h-16.8l7.1-30.1L326.2,244L326.2,244L326.2,244z M310.2,243.3h15.1l-8.7-27.1L310.2,243.3z"/>
				<path class="st5" d="M318.6,237.3h-2.3v12.6h2.3V237.3z"/>
				<path class="st5" d="M319,250.2h-3V237h2.9v13.2H319z M316.7,249.5h1.7v-12h-1.7V249.5z"/>
				<path class="st5" d="M342.2,209.9l-6.8,28.6h16L342.2,209.9L342.2,209.9z"/>
				<path class="st5" d="M351.8,238.8H335l7.1-30.1L351.8,238.8L351.8,238.8z M335.8,238.1h15.1l-8.7-27.1L335.8,238.1z"/>
				<path class="st5" d="M344.2,232.1H342v12.6h2.3L344.2,232.1L344.2,232.1L344.2,232.1z"/>
				<path class="st5" d="M344.6,245h-2.9v-13.2h2.9V245z M342.3,244.3h1.7v-12h-1.7V244.3z"/>
				<path class="st5" d="M59.1,98.3l-6.8,28.6h16L59.1,98.3C59.1,98.3,59.1,98.3,59.1,98.3z"/>
				<path class="st5" d="M68.8,127.2H51.9L59,97.1L68.8,127.2z M52.7,126.5h15.1l-8.7-27.1C59.1,99.4,52.7,126.5,52.7,126.5z"/>
				<path class="st5" d="M61.2,120.5h-2.3v12.6h2.3V120.5z"/>
				<path class="st5" d="M61.5,133.4h-2.9v-13.2h2.9V133.4z M59.2,132.7h1.7v-12h-1.7V132.7z"/>
				<path class="st5" d="M121.7,54.7L115,83.3h16C130.9,83.3,121.7,54.7,121.7,54.7z"/>
				<path class="st5" d="M131.4,83.6h-16.8l7.1-30.1L131.4,83.6L131.4,83.6z M115.4,83h15.1l-8.7-27.1C121.8,55.9,115.4,83,115.4,83
					z"/>
				<path class="st5" d="M123.8,76.9h-2.3v12.6h2.3V76.9z"/>
				<path class="st5" d="M124.1,89.8h-2.9V76.6h2.9V89.8z M121.8,89.2h1.7v-12h-1.7V89.2z"/>
				<path class="st5" d="M168.2,75.9l-6.8,28.6h16L168.2,75.9L168.2,75.9z"/>
				<path class="st5" d="M177.8,104.8H161l7.1-30.1L177.8,104.8L177.8,104.8z M161.8,104.1h15.1L168.2,77L161.8,104.1L161.8,104.1z"
					/>
				<path class="st5" d="M170.2,98.1h-2.3v12.6h2.3V98.1z"/>
				<path class="st5" d="M170.6,111h-2.9V97.8h2.9V111z M168.3,110.4h1.7v-12h-1.7V110.4z"/>
				<path class="st5" d="M48.5,137.7c-15.2-2-27.7,2.2-32,4.5c-8,3,25,6,48,5S67.5,140.2,48.5,137.7z"/>
				<path class="st5" d="M282.2,305.2c-15.2-2-27.7,2.2-32,4.5c-8,3,25,6,48,5S301.2,307.7,282.2,305.2z"/>
				<path class="st5" d="M139.2,105c-9.7-1.2-17.7,1.3-20.4,2.6c-5.1,1.7,16,3.5,30.6,2.9C164.1,110,151.3,106.5,139.2,105
					L139.2,105z"/>
				<g>
					<path class="st12" d="M17.5,14.2l-0.5,2.4h-0.7l0.5-2.4l-1.9-4.6h0.7l1.6,3.9l3.2-3.9h0.8C21.3,9.5,17.5,14.2,17.5,14.2z"/>
					<path class="st12" d="M20.2,14.3c0-1.8,1.3-3.1,3-3.1c1.5,0,2.4,0.9,2.4,2.2c0,1.8-1.3,3.1-3,3.1
						C21.2,16.6,20.2,15.7,20.2,14.3z M24.9,13.5c0-1-0.6-1.6-1.7-1.6c-1.3,0-2.3,1-2.3,2.5c0,1,0.6,1.6,1.7,1.6
						C24,15.9,25,14.9,24.9,13.5z"/>
					<path class="st12" d="M32.4,11.2l-1,5.3h-0.7l0.2-0.8c-0.5,0.6-1.2,0.9-2,0.9c-1.2,0-1.9-0.6-1.9-1.7c0-0.2,0-0.4,0.1-0.6
						l0.6-3h0.7l-0.6,3c0,0.2,0,0.3,0,0.5c0,0.8,0.4,1.2,1.3,1.2c1.1,0,1.9-0.6,2.1-1.8l0.6-2.8L32.4,11.2L32.4,11.2z"/>
					<path class="st12" d="M37,11.2l-0.1,0.7c-0.1,0-0.1,0-0.2,0c-1.1,0-1.9,0.6-2.1,1.9L34,16.5h-0.7l1-5.3H35l-0.2,1
						C35.3,11.5,36,11.2,37,11.2L37,11.2z"/>
					<path class="st12" d="M41.4,9.1h0.7l-1.5,7.4H40L41.4,9.1z"/>
					<path class="st12" d="M43.3,14.1c0,0.1,0,0.1,0,0.2c0,1.1,0.6,1.6,1.8,1.6c0.7,0,1.3-0.2,1.7-0.7l0.3,0.5
						c-0.5,0.5-1.3,0.8-2.1,0.8c-1.5,0-2.5-0.9-2.5-2.2c0-1.8,1.2-3.1,2.9-3.1c1.4,0,2.3,0.8,2.3,2.2c0,0.2,0,0.4-0.1,0.6L43.3,14.1
						L43.3,14.1z M43.4,13.6h3.8c0-0.1,0-0.1,0-0.2c0-1-0.7-1.6-1.7-1.6C44.4,11.8,43.6,12.5,43.4,13.6z"/>
					<path class="st12" d="M54.6,11.2l-1,5.3h-0.7l0.2-0.8c-0.5,0.5-1.2,0.9-2.1,0.9c-1.3,0-2.3-0.8-2.3-2.2c0-1.8,1.3-3.1,3-3.1
						c1,0,1.7,0.4,2,1.1l0.2-1.1L54.6,11.2L54.6,11.2z M53.4,13.5c0-1-0.6-1.6-1.7-1.6c-1.3,0-2.3,1-2.3,2.5c0,1,0.6,1.6,1.7,1.6
						C52.4,15.9,53.4,14.9,53.4,13.5z"/>
					<path class="st12" d="M59.2,11.2l-0.1,0.7c-0.1,0-0.1,0-0.2,0c-1.1,0-1.9,0.6-2.1,1.9l-0.5,2.7h-0.7l1-5.3h0.7l-0.2,1
						C57.5,11.5,58.2,11.2,59.2,11.2L59.2,11.2z"/>
					<path class="st12" d="M64.9,12.9c0,0.2,0,0.4-0.1,0.6l-0.6,3h-0.7l0.6-3c0-0.2,0.1-0.3,0.1-0.5c0-0.8-0.5-1.2-1.4-1.2
						c-1.1,0-1.9,0.6-2.2,1.8l-0.6,2.8h-0.7l1-5.3h0.7L61,12.1c0.5-0.6,1.2-0.9,2.1-0.9C64.3,11.2,65,11.9,64.9,12.9z"/>
					<path class="st12" d="M67.3,11.2H68l-1,5.3h-0.7L67.3,11.2z M67.4,9.6c0-0.3,0.2-0.5,0.6-0.5c0.3,0,0.5,0.2,0.5,0.4
						c0,0.3-0.2,0.6-0.6,0.6C67.7,10.1,67.4,9.9,67.4,9.6z"/>
					<path class="st12" d="M74.4,12.9c0,0.2,0,0.4-0.1,0.6l-0.6,3h-0.7l0.6-3c0-0.2,0.1-0.3,0.1-0.5c0-0.8-0.4-1.2-1.4-1.2
						c-1.1,0-1.9,0.6-2.2,1.8l-0.6,2.8h-0.7l1-5.3h0.7l-0.2,0.8c0.5-0.6,1.2-0.9,2.1-0.9C73.7,11.2,74.4,11.9,74.4,12.9z"/>
					<path class="st12" d="M81.7,11.2l-0.9,4.6c-0.4,1.9-1.3,2.6-3.1,2.6c-1,0-1.8-0.3-2.3-0.8l0.4-0.5c0.4,0.4,1.1,0.7,2,0.7
						c1.3,0,2-0.6,2.3-1.9l0.1-0.6c-0.5,0.6-1.2,0.9-2.1,0.9c-1.4,0-2.3-0.8-2.3-2.1c0-1.7,1.2-3,3-3c1,0,1.8,0.4,2.1,1.2l0.2-1.2
						L81.7,11.2L81.7,11.2z M80.5,13.4c0-1-0.7-1.5-1.7-1.5c-1.3,0-2.3,1-2.3,2.3c0,1,0.6,1.5,1.7,1.5
						C79.5,15.7,80.5,14.7,80.5,13.4z"/>
					<path class="st12" d="M91.2,13.4c0,1.8-1.3,3.1-3,3.1c-1,0-1.7-0.4-2-1.1l-0.6,3h-0.7l1.4-7.2H87l-0.2,0.8
						c0.5-0.6,1.2-0.9,2.1-0.9C90.2,11.2,91.2,12.1,91.2,13.4L91.2,13.4z M90.4,13.5c0-1-0.6-1.6-1.7-1.6c-1.3,0-2.3,1-2.3,2.5
						c0,1,0.6,1.6,1.7,1.6C89.5,15.9,90.4,14.9,90.4,13.5z"/>
					<path class="st12" d="M97.9,11.2l-1.1,5.3h-0.7l0.2-0.8c-0.5,0.5-1.2,0.9-2.1,0.9c-1.3,0-2.3-0.8-2.3-2.2c0-1.8,1.3-3.1,3-3.1
						c1,0,1.7,0.4,2,1.1l0.2-1.1L97.9,11.2L97.9,11.2z M96.7,13.5c0-1-0.6-1.6-1.7-1.6c-1.3,0-2.3,1-2.3,2.5c0,1,0.6,1.6,1.7,1.6
						C95.8,15.9,96.7,14.9,96.7,13.5z"/>
					<path class="st12" d="M100,14.9c0,0.1,0,0.2,0,0.3c0,0.4,0.2,0.7,0.8,0.7c0.3,0,0.6-0.1,0.8-0.3l0.2,0.5
						c-0.3,0.2-0.8,0.3-1.2,0.3c-0.8,0-1.3-0.5-1.3-1.2c0-0.1,0-0.3,0-0.4l0.6-3.1H99l0.1-0.6h0.9l0.2-1.1h0.7l-0.2,1.1h1.6
						l-0.1,0.6h-1.6L100,14.9z"/>
					<path class="st12" d="M108.4,12.9c0,0.2,0,0.4-0.1,0.6l-0.6,3H107l0.6-3c0-0.2,0.1-0.3,0.1-0.5c0-0.8-0.4-1.2-1.4-1.2
						c-1.1,0-1.9,0.6-2.2,1.8l-0.6,2.8h-0.7l1.5-7.4h0.7l-0.6,3c0.5-0.6,1.2-0.8,2-0.8C107.7,11.2,108.4,11.9,108.4,12.9z"/>
					<path class="st12" d="M113.5,14.9c0,0.1,0,0.2,0,0.3c0,0.4,0.2,0.7,0.8,0.7c0.3,0,0.6-0.1,0.8-0.3l0.2,0.5
						c-0.3,0.2-0.8,0.3-1.2,0.3c-0.8,0-1.3-0.5-1.3-1.2c0-0.1,0-0.3,0-0.4l0.6-3.1h-0.9l0.1-0.6h0.9l0.2-1.1h0.7l-0.2,1.1h1.6
						l-0.1,0.6h-1.6L113.5,14.9z"/>
					<path class="st12" d="M116.2,14.3c0-1.8,1.3-3.1,3.1-3.1c1.5,0,2.4,0.9,2.4,2.2c0,1.8-1.3,3.1-3.1,3.1
						C117.1,16.6,116.2,15.7,116.2,14.3z M120.9,13.5c0-1-0.6-1.6-1.7-1.6c-1.3,0-2.3,1-2.3,2.5c0,1,0.6,1.6,1.7,1.6
						C119.9,15.9,120.9,14.9,120.9,13.5z"/>
					<path class="st12" d="M131,13.4c0,1.8-1.3,3.1-3,3.1c-1,0-1.7-0.4-2-1.1l-0.6,3h-0.7l1.4-7.2h0.7l-0.2,0.8
						c0.5-0.6,1.2-0.9,2.1-0.9C130.1,11.2,131,12.1,131,13.4L131,13.4z M130.3,13.5c0-1-0.6-1.6-1.7-1.6c-1.3,0-2.3,1-2.3,2.5
						c0,1,0.6,1.6,1.7,1.6C129.3,15.9,130.3,14.9,130.3,13.5z"/>
					<path class="st12" d="M135.6,11.2l-0.1,0.7c-0.1,0-0.1,0-0.2,0c-1.1,0-1.9,0.6-2.1,1.9l-0.5,2.7h-0.7l1-5.3h0.7l-0.2,1
						C133.9,11.5,134.6,11.2,135.6,11.2L135.6,11.2z"/>
					<path class="st12" d="M136.5,14.1c0,0.1,0,0.1,0,0.2c0,1.1,0.6,1.6,1.8,1.6c0.7,0,1.3-0.2,1.7-0.7l0.3,0.5
						c-0.5,0.5-1.3,0.8-2.1,0.8c-1.5,0-2.5-0.9-2.5-2.2c0-1.8,1.2-3.1,2.9-3.1c1.4,0,2.3,0.8,2.3,2.2c0,0.2,0,0.4-0.1,0.6
						L136.5,14.1L136.5,14.1z M136.5,13.6h3.8c0-0.1,0-0.1,0-0.2c0-1-0.7-1.6-1.6-1.6C137.6,11.8,136.8,12.5,136.5,13.6L136.5,13.6z
						"/>
					<path class="st12" d="M147.8,13.4c0,1.8-1.3,3.1-3,3.1c-1,0-1.7-0.4-2-1.1l-0.6,3h-0.7l1.4-7.2h0.7l-0.2,0.8
						c0.5-0.6,1.2-0.9,2.1-0.9C146.8,11.2,147.8,12.1,147.8,13.4L147.8,13.4z M147.1,13.5c0-1-0.6-1.6-1.7-1.6c-1.3,0-2.3,1-2.3,2.5
						c0,1,0.6,1.6,1.7,1.6C146.1,15.9,147.1,14.9,147.1,13.5z"/>
					<path class="st12" d="M154.5,11.2l-1.1,5.3h-0.7l0.2-0.8c-0.5,0.5-1.2,0.9-2.1,0.9c-1.4,0-2.3-0.8-2.3-2.2c0-1.8,1.3-3.1,3-3.1
						c1,0,1.7,0.4,2,1.1l0.2-1.1L154.5,11.2L154.5,11.2z M153.4,13.5c0-1-0.6-1.6-1.7-1.6c-1.3,0-2.3,1-2.3,2.5c0,1,0.6,1.6,1.7,1.6
						C152.4,15.9,153.4,14.9,153.4,13.5z"/>
					<path class="st12" d="M159.2,11.2l-0.1,0.7c-0.1,0-0.1,0-0.2,0c-1.1,0-1.9,0.6-2.1,1.9l-0.5,2.7h-0.7l1-5.3h0.7l-0.2,1
						C157.5,11.5,158.2,11.2,159.2,11.2L159.2,11.2z"/>
					<path class="st12" d="M160,14.1c0,0.1,0,0.1,0,0.2c0,1.1,0.6,1.6,1.8,1.6c0.7,0,1.3-0.2,1.7-0.7l0.3,0.5
						c-0.5,0.5-1.3,0.8-2.1,0.8c-1.5,0-2.5-0.9-2.5-2.2c0-1.8,1.2-3.1,2.9-3.1c1.4,0,2.3,0.8,2.3,2.2c0,0.2,0,0.4-0.1,0.6L160,14.1
						L160,14.1z M160.1,13.6h3.8c0-0.1,0-0.1,0-0.2c0-1-0.7-1.6-1.6-1.6C161.1,11.8,160.3,12.5,160.1,13.6z"/>
					<path class="st12" d="M170,10.7l-0.1,0.6h1.6l-0.1,0.6h-1.6l-0.9,4.7h-0.7l0.9-4.7h-0.9l0.1-0.6h0.9l0.1-0.7
						c0.2-1,0.8-1.6,1.8-1.6c0.4,0,0.8,0.1,1.1,0.3l-0.3,0.5c-0.2-0.2-0.4-0.3-0.8-0.3C170.5,9.6,170.2,10,170,10.7L170,10.7z"/>
					<path class="st12" d="M171.3,14.3c0-1.8,1.3-3.1,3.1-3.1c1.5,0,2.4,0.9,2.4,2.2c0,1.8-1.3,3.1-3.1,3.1
						C172.2,16.6,171.3,15.7,171.3,14.3z M176,13.5c0-1-0.6-1.6-1.7-1.6c-1.3,0-2.3,1-2.3,2.5c0,1,0.6,1.6,1.7,1.6
						C175,15.9,176,14.9,176,13.5z"/>
					<path class="st12" d="M181.3,11.2l-0.1,0.7c-0.1,0-0.1,0-0.2,0c-1.1,0-1.9,0.6-2.1,1.9l-0.5,2.7h-0.7l1-5.3h0.7l-0.2,1
						C179.6,11.5,180.3,11.2,181.3,11.2L181.3,11.2z"/>
					<path class="st12" d="M185.9,9.1h1.8l-0.1,0.6h-1.1l-1.6,8.2h1.1l-0.1,0.6H184L185.9,9.1L185.9,9.1z"/>
					<path class="st12" d="M190.5,10.1H188l0.1-0.6h5.7l-0.1,0.6h-2.5l-1.3,6.4h-0.7L190.5,10.1L190.5,10.1z"/>
					<path class="st12" d="M198.9,12.9c0,0.2,0,0.4-0.1,0.6l-0.6,3h-0.7l0.6-3c0-0.2,0.1-0.3,0.1-0.5c0-0.8-0.4-1.2-1.4-1.2
						c-1.1,0-1.9,0.6-2.1,1.8l-0.6,2.8h-0.7l1.5-7.4h0.7l-0.6,3c0.5-0.6,1.2-0.8,2-0.8C198.3,11.2,198.9,11.9,198.9,12.9L198.9,12.9
						z"/>
					<path class="st12" d="M200.9,14.1c0,0.1,0,0.1,0,0.2c0,1.1,0.6,1.6,1.8,1.6c0.7,0,1.3-0.2,1.7-0.7l0.3,0.5
						c-0.5,0.5-1.3,0.8-2.1,0.8c-1.5,0-2.5-0.9-2.5-2.2c0-1.8,1.2-3.1,2.9-3.1c1.4,0,2.3,0.8,2.3,2.2c0,0.2,0,0.4-0.1,0.6
						L200.9,14.1L200.9,14.1z M201,13.6h3.8c0-0.1,0-0.1,0-0.2c0-1-0.7-1.6-1.6-1.6C202,11.8,201.2,12.5,201,13.6L201,13.6z"/>
					<path class="st12" d="M211.1,10.1l-0.5,2.5h3.6l-0.1,0.6h-3.6l-0.5,2.6h4.2l-0.1,0.6h-4.9l1.4-7h4.8l-0.1,0.6L211.1,10.1
						L211.1,10.1z"/>
					<path class="st12" d="M221.1,12.9c0,0.2,0,0.4-0.1,0.6l-0.6,3h-0.7l0.6-3c0-0.2,0.1-0.3,0.1-0.5c0-0.8-0.4-1.2-1.4-1.2
						c-1.1,0-1.9,0.6-2.1,1.8l-0.6,2.8h-0.7l1-5.3h0.7l-0.2,0.8c0.5-0.6,1.2-0.9,2.1-0.9C220.4,11.2,221.1,11.9,221.1,12.9z"/>
					<path class="st12" d="M228.4,11.2l-0.9,4.6c-0.4,1.9-1.4,2.6-3.1,2.6c-1,0-1.8-0.3-2.4-0.8l0.4-0.5c0.4,0.4,1.1,0.7,2,0.7
						c1.3,0,2-0.6,2.3-1.9l0.1-0.6c-0.5,0.6-1.2,0.9-2.1,0.9c-1.4,0-2.3-0.8-2.3-2.1c0-1.7,1.2-3,3-3c1,0,1.8,0.4,2.1,1.2l0.2-1.2
						L228.4,11.2L228.4,11.2z M227.2,13.4c0-1-0.6-1.5-1.7-1.5c-1.3,0-2.3,1-2.3,2.3c0,1,0.6,1.5,1.7,1.5
						C226.2,15.7,227.2,14.7,227.2,13.4z"/>
					<path class="st12" d="M230.8,9.1h0.7l-1.5,7.4h-0.7L230.8,9.1z"/>
					<path class="st12" d="M233.1,11.2h0.7l-1,5.3H232L233.1,11.2z M233.2,9.6c0-0.3,0.2-0.5,0.6-0.5c0.3,0,0.5,0.2,0.5,0.4
						c0,0.3-0.2,0.6-0.6,0.6C233.4,10.1,233.2,9.9,233.2,9.6L233.2,9.6z"/>
					<path class="st12" d="M234.1,15.9l0.3-0.6c0.4,0.4,1.1,0.6,1.8,0.6c1,0,1.6-0.4,1.6-0.9c0-1.2-3-0.4-3-2.2c0-1,0.9-1.6,2.3-1.6
						c0.7,0,1.4,0.2,1.8,0.5l-0.3,0.6c-0.4-0.3-1-0.4-1.5-0.4c-1,0-1.5,0.4-1.5,1c0,1.2,3,0.4,3,2.1c0,1-0.9,1.6-2.3,1.6
						C235.4,16.6,234.6,16.3,234.1,15.9L234.1,15.9z"/>
					<path class="st12" d="M245.1,12.9c0,0.2,0,0.4-0.1,0.6l-0.6,3h-0.7l0.6-3c0-0.2,0.1-0.3,0.1-0.5c0-0.8-0.4-1.2-1.4-1.2
						c-1.1,0-1.9,0.6-2.1,1.8l-0.6,2.8h-0.7l1.5-7.4h0.7l-0.6,3c0.5-0.6,1.2-0.8,2-0.8C244.4,11.2,245.1,11.9,245.1,12.9L245.1,12.9
						z"/>
					<path class="st12" d="M254.9,14.7h-1.4l-0.4,1.8h-0.7l0.4-1.8h-3.9l0.1-0.5l4.6-4.6h0.9l-4.4,4.5h3l0.3-1.6h0.7l-0.3,1.6h1.4
						C255,14,254.9,14.7,254.9,14.7z"/>
					<path class="st12" d="M257.6,10.1l-0.7,2.2h0.9c1.8,0,2.6,0.7,2.6,1.8c0,1.4-1.1,2.4-2.9,2.4c-1.1,0-2-0.4-2.4-0.9l0.4-0.6
						c0.4,0.5,1.1,0.8,2,0.8c1.3,0,2.1-0.6,2.1-1.6c0-0.8-0.5-1.3-2-1.3H256l1.1-3.5h3.8l-0.1,0.6L257.6,10.1L257.6,10.1z"/>
					<path class="st12" d="M273.3,12.9c0,0.2,0,0.4-0.1,0.6l-0.6,3h-0.7l0.6-3c0-0.2,0-0.3,0-0.5c0-0.7-0.4-1.2-1.3-1.2
						c-1,0-1.8,0.6-2,1.8l-0.6,2.9h-0.7l0.6-3c0-0.2,0-0.3,0-0.5c0-0.8-0.4-1.2-1.3-1.2c-1.1,0-1.8,0.6-2.1,1.8l-0.6,2.8h-0.7l1-5.3
						h0.7l-0.2,0.8c0.5-0.6,1.2-0.9,2-0.9c0.9,0,1.5,0.4,1.7,1.1c0.5-0.7,1.3-1.1,2.2-1.1C272.6,11.2,273.3,11.8,273.3,12.9
						L273.3,12.9z"/>
					<path class="st12" d="M275.6,11.2h0.7l-1,5.3h-0.7L275.6,11.2z M275.8,9.6c0-0.3,0.2-0.5,0.5-0.5c0.3,0,0.5,0.2,0.5,0.4
						c0,0.3-0.2,0.6-0.6,0.6C276,10.1,275.8,9.9,275.8,9.6L275.8,9.6z"/>
					<path class="st12" d="M282.8,12.9c0,0.2,0,0.4-0.1,0.6l-0.6,3h-0.7l0.6-3c0-0.2,0-0.3,0-0.5c0-0.8-0.5-1.2-1.4-1.2
						c-1.1,0-1.9,0.6-2.1,1.8l-0.6,2.8h-0.7l1-5.3h0.7l-0.2,0.8c0.5-0.6,1.2-0.9,2.1-0.9C282.1,11.2,282.8,11.9,282.8,12.9
						L282.8,12.9z"/>
					<path class="st12" d="M289.9,11.2l-1,5.3h-0.7l0.2-0.8c-0.5,0.6-1.2,0.9-2,0.9c-1.2,0-1.9-0.6-1.9-1.7c0-0.2,0-0.4,0.1-0.6
						l0.6-3h0.7l-0.6,3c0,0.2,0,0.3,0,0.5c0,0.8,0.4,1.2,1.3,1.2c1.1,0,1.9-0.6,2.1-1.8l0.6-2.8L289.9,11.2L289.9,11.2z"/>
					<path class="st12" d="M291.9,14.9c0,0.1,0,0.2,0,0.3c0,0.4,0.2,0.7,0.8,0.7c0.3,0,0.6-0.1,0.8-0.3l0.2,0.5
						c-0.3,0.2-0.8,0.3-1.2,0.3c-0.8,0-1.3-0.5-1.3-1.2c0-0.1,0-0.3,0-0.4l0.6-3.1h-0.9l0.1-0.6h0.9l0.2-1.1h0.7l-0.2,1.1h1.6
						l-0.1,0.6h-1.6L291.9,14.9z"/>
					<path class="st12" d="M295.3,14.1c0,0.1,0,0.1,0,0.2c0,1.1,0.6,1.6,1.8,1.6c0.7,0,1.3-0.2,1.7-0.7l0.3,0.5
						c-0.5,0.5-1.3,0.8-2.1,0.8c-1.5,0-2.5-0.9-2.5-2.2c0-1.8,1.2-3.1,2.9-3.1c1.4,0,2.3,0.8,2.3,2.2c0,0.2,0,0.4-0.1,0.6
						L295.3,14.1L295.3,14.1z M295.4,13.6h3.8c0-0.1,0-0.1,0-0.2c0-1-0.7-1.6-1.6-1.6C296.5,11.8,295.7,12.5,295.4,13.6L295.4,13.6z
						"/>
					<path class="st12" d="M300.2,15.9l0.3-0.6c0.4,0.4,1.1,0.6,1.8,0.6c1,0,1.6-0.4,1.6-0.9c0-1.2-3-0.4-3-2.2c0-1,0.9-1.6,2.3-1.6
						c0.7,0,1.4,0.2,1.8,0.5l-0.3,0.6c-0.4-0.3-1-0.4-1.5-0.4c-1,0-1.5,0.4-1.5,1c0,1.2,3,0.4,3,2.1c0,1-0.9,1.6-2.3,1.6
						C301.4,16.6,300.6,16.3,300.2,15.9L300.2,15.9z"/>
					<path class="st12" d="M309.4,14.9c0,0.1,0,0.2,0,0.3c0,0.4,0.2,0.7,0.8,0.7c0.3,0,0.6-0.1,0.8-0.3l0.2,0.5
						c-0.3,0.2-0.8,0.3-1.2,0.3c-0.8,0-1.3-0.5-1.3-1.2c0-0.1,0-0.3,0-0.4l0.6-3.1h-0.9l0.1-0.6h0.9l0.2-1.1h0.7l-0.2,1.1h1.6
						l-0.1,0.6H310L309.4,14.9z"/>
					<path class="st12" d="M312.8,14.1c0,0.1,0,0.1,0,0.2c0,1.1,0.6,1.6,1.8,1.6c0.7,0,1.3-0.2,1.7-0.7l0.3,0.5
						c-0.5,0.5-1.3,0.8-2.1,0.8c-1.5,0-2.5-0.9-2.5-2.2c0-1.8,1.2-3.1,2.9-3.1c1.4,0,2.3,0.8,2.3,2.2c0,0.2,0,0.4-0.1,0.6
						L312.8,14.1L312.8,14.1z M312.9,13.6h3.8c0-0.1,0-0.1,0-0.2c0-1-0.7-1.6-1.6-1.6C313.9,11.8,313.1,12.5,312.9,13.6L312.9,13.6z
						"/>
					<path class="st12" d="M317.6,15.9l0.3-0.6c0.4,0.4,1.1,0.6,1.8,0.6c1,0,1.6-0.4,1.6-0.9c0-1.2-3-0.4-3-2.2c0-1,0.9-1.6,2.3-1.6
						c0.7,0,1.4,0.2,1.8,0.5l-0.3,0.6c-0.4-0.3-1-0.4-1.5-0.4c-1,0-1.5,0.4-1.5,1c0,1.2,3,0.4,3,2.1c0,1-0.9,1.6-2.3,1.6
						C318.9,16.6,318.1,16.3,317.6,15.9L317.6,15.9z"/>
					<path class="st12" d="M324.2,14.9c0,0.1,0,0.2,0,0.3c0,0.4,0.2,0.7,0.8,0.7c0.3,0,0.6-0.1,0.8-0.3l0.2,0.5
						c-0.3,0.2-0.8,0.3-1.2,0.3c-0.8,0-1.3-0.5-1.3-1.2c0-0.1,0-0.3,0-0.4l0.6-3.1h-0.9l0.1-0.6h0.9l0.2-1.1h0.7l-0.2,1.1h1.6
						l-0.1,0.6h-1.6L324.2,14.9z"/>
					<path class="st12" d="M326,18.5l0.1-0.6h1.1l1.6-8.2h-1.1l0.1-0.6h1.8l-1.9,9.4C327.8,18.5,326,18.5,326,18.5z"/>
				</g>
				<g>
					<path d="M330.8,44l-0.5,2.5h-0.8l0.5-2.5l-2-4.8h0.8l1.7,4.1l3.3-4.1h0.8L330.8,44L330.8,44z"/>
					<path d="M333.6,44.2c0-1.9,1.3-3.3,3.2-3.3c1.5,0,2.5,0.9,2.5,2.3c0,1.9-1.3,3.3-3.2,3.3C334.5,46.5,333.6,45.6,333.6,44.2z
						 M338.5,43.3c0-1.1-0.7-1.7-1.8-1.7c-1.4,0-2.4,1.1-2.4,2.6c0,1.1,0.7,1.7,1.8,1.7C337.5,45.9,338.5,44.8,338.5,43.3z"/>
					<path d="M346.2,41l-1.1,5.5h-0.7l0.2-0.9c-0.5,0.6-1.3,0.9-2.1,0.9c-1.2,0-2-0.7-2-1.8c0-0.2,0-0.4,0.1-0.6l0.6-3.1h0.7
						l-0.6,3.1c0,0.2,0,0.3,0,0.5c0,0.8,0.5,1.3,1.4,1.3c1.2,0,2-0.7,2.2-1.9l0.6-3C345.5,41,346.2,41,346.2,41z"/>
					<path d="M351.1,40.9l-0.1,0.7c-0.1,0-0.1,0-0.2,0c-1.2,0-2,0.7-2.2,2l-0.5,2.8h-0.7l1.1-5.5h0.7l-0.2,1
						C349.3,41.2,350.1,40.9,351.1,40.9L351.1,40.9z"/>
					<path d="M360.4,41l-1,4.8c-0.4,2-1.4,2.8-3.2,2.8c-1,0-1.9-0.3-2.5-0.8l0.4-0.6c0.4,0.5,1.2,0.7,2.1,0.7c1.4,0,2.1-0.6,2.4-2
						l0.1-0.6c-0.5,0.6-1.3,0.9-2.2,0.9c-1.5,0-2.4-0.8-2.4-2.2c0-1.8,1.3-3.1,3.1-3.1c1,0,1.8,0.4,2.1,1.3l0.2-1.2
						C359.7,41,360.4,41,360.4,41z M359.1,43.2c0-1-0.7-1.6-1.8-1.6c-1.4,0-2.4,1-2.4,2.4c0,1,0.7,1.6,1.8,1.6
						C358.1,45.6,359.1,44.6,359.1,43.2z"/>
					<path d="M361.3,44.2c0-1.9,1.3-3.3,3.2-3.3c1.5,0,2.5,0.9,2.5,2.3c0,1.9-1.3,3.3-3.2,3.3C362.3,46.5,361.3,45.6,361.3,44.2z
						 M366.2,43.3c0-1.1-0.7-1.7-1.8-1.7c-1.4,0-2.4,1.1-2.4,2.6c0,1.1,0.7,1.7,1.8,1.7C365.2,45.9,366.2,44.8,366.2,43.3z"/>
					<path d="M374,41l-1.1,5.5h-0.7l0.2-0.9c-0.5,0.6-1.3,0.9-2.1,0.9c-1.4,0-2.4-0.9-2.4-2.3c0-1.9,1.3-3.3,3.1-3.3
						c1,0,1.8,0.4,2.1,1.2l0.2-1.2H374L374,41z M372.8,43.3c0-1.1-0.7-1.7-1.8-1.7c-1.4,0-2.4,1.1-2.4,2.6c0,1.1,0.7,1.7,1.8,1.7
						C371.8,45.9,372.8,44.8,372.8,43.3z"/>
					<path d="M376.6,38.7h0.7l-1.5,7.8H375L376.6,38.7z"/>
				</g>
			</g>
		</g>
	</g>
</g>
</svg>
