<?xml version="1.0" encoding="utf-8"?>
<!-- Generator: Adobe Illustrator 27.0.0, SVG Export Plug-In . SVG Version: 6.00 Build 0)  -->
<svg version="1.1" id="Layer_2_00000034788237329604090510000018398474122278312108_"
	 xmlns="http://www.w3.org/2000/svg" xmlns:xlink="http://www.w3.org/1999/xlink" x="0px" y="0px" viewBox="0 0 674 557"
	 style="enable-background:new 0 0 674 557;" xml:space="preserve">
<style type="text/css">
	.st0{clip-path:url(#SVGID_00000054248749229740311590000000994997612472343964_);}
	.st1{clip-path:url(#SVGID_00000016796278652629868800000002681927265584590739_);}
	.st2{fill:#FDBA74;}
	.st3{fill:#334155;}
	.st4{fill:#B90F0F;}
	.st5{fill:#FB923C;}
	.st6{fill:#34D399;}
	.st7{fill-rule:evenodd;clip-rule:evenodd;fill:#1E293B;}
	.st8{fill:#1E293B;}
	.st9{fill-rule:evenodd;clip-rule:evenodd;fill:#FB7200;}
	.st10{fill:#FB7200;}
	.st11{fill:#C15802;}
	.st12{fill:#CBD5E1;}
</style>
<g id="Layer_1-2">
	<g>
		<g>
			<defs>
				<rect id="SVGID_1_" width="674" height="557"/>
			</defs>
			<clipPath id="SVGID_00000091014101466655269050000014390145563399949455_">
				<use xlink:href="#SVGID_1_"  style="overflow:visible;"/>
			</clipPath>
			<g style="clip-path:url(#SVGID_00000091014101466655269050000014390145563399949455_);">
				<g>
					<g>
						<defs>
							<rect id="SVGID_00000097480193755093373170000013981457203629356194_" width="439" height="327"/>
						</defs>
						<clipPath id="SVGID_00000168824301786450372680000006116835274824011171_">
							<use xlink:href="#SVGID_00000097480193755093373170000013981457203629356194_"  style="overflow:visible;"/>
						</clipPath>
						<g style="clip-path:url(#SVGID_00000168824301786450372680000006116835274824011171_);">
							<g>
								<path class="st2" d="M434.2,326.6H6c-3,0.4-5.7-2-5.7-5V5.4c0-2.6,1.9-4.7,4.5-5.1H433c3-0.4,5.7,2,5.7,5v316.2
									C438.7,324.1,436.8,326.3,434.2,326.6L434.2,326.6L434.2,326.6z"/>
								<path class="st3" d="M438.7,23.6L0.3,24.9V5.4c0-2.6,1.9-4.8,4.5-5.1H433c3-0.4,5.7,2,5.7,5.1V23.6L438.7,23.6L438.7,23.6z"
									/>
								<path class="st4" d="M426.7,16.7c2.6,0,4.7-2.1,4.7-4.7s-2.1-4.7-4.7-4.7S422,9.4,422,12S424.1,16.7,426.7,16.7z"/>
								<path class="st5" d="M412.8,16.7c2.6,0,4.7-2.1,4.7-4.7s-2.1-4.7-4.7-4.7s-4.8,2-4.8,4.7S410.1,16.7,412.8,16.7z"/>
								<path class="st6" d="M398.8,16.7c2.6,0,4.7-2.1,4.7-4.7s-2.1-4.7-4.7-4.7s-4.7,2.1-4.7,4.7S396.2,16.7,398.8,16.7z"/>
								<path class="st7" d="M350,81.1c-4.2,0-7.8-1.7-7.8-3.8s3.6-3.8,7.8-3.8s7.8,1.7,7.8,3.8S354.2,81.1,350,81.1z"/>
								<path class="st8" d="M350,74.2c4.1,0,7.2,1.7,7.2,3.1s-3.1,3.1-7.2,3.1s-7.2-1.7-7.2-3.1S345.9,74.2,350,74.2z M350,73
									c-4.7,0-8.4,2-8.4,4.4s3.8,4.4,8.4,4.4s8.4-2,8.4-4.4S354.7,73,350,73L350,73z"/>
								<path class="st8" d="M350,78c-0.4,0-0.6-0.3-0.6-0.6V55.5c0-0.3,0.3-0.6,0.6-0.6s0.6,0.3,0.6,0.6v21.9
									C350.6,77.7,350.4,78,350,78z"/>
								<path class="st9" d="M362.5,58.5L350,55.2v7.5C350,62.8,362.5,58.5,362.5,58.5z"/>
								<path class="st10" d="M349.4,63.6v-9.2l15.3,4L349.4,63.6z M350.6,56v5.8l9.7-3.3L350.6,56L350.6,56z"/>
								<path class="st11" d="M104,98.8l1.8-9l2.9,7.8l3.3-10.9l2.3,10.3l3.5-8.1l1.9,10C119.7,98.8,104,98.8,104,98.8z"/>
								<path class="st11" d="M131.2,92.5l1.8-9l2.9,7.8l3.3-10.9l2.3,10.3l3.5-8.1l1.9,10L131.2,92.5L131.2,92.5z"/>
								<path class="st11" d="M189.4,304.6l1.8-9l2.9,7.8l3.3-10.9l2.3,10.3l3.5-8.1l1.9,10L189.4,304.6L189.4,304.6z"/>
								<path class="st11" d="M210.9,309l1.8-9l2.9,7.8l3.3-10.9l2.3,10.3l3.5-8.1l1.9,10L210.9,309L210.9,309z"/>
								<path class="st11" d="M324.1,256l1.8-9l3,7.8l3.3-10.9l2.3,10.3l3.5-8.1l1.9,10h-15.8V256z"/>
								<path class="st11" d="M350.7,249.7l1.8-9l3,7.8l3.3-10.9l2.3,10.3l3.5-8.1l1.9,10h-15.8V249.7z"/>
								<path class="st5" d="M316.6,215.4l-6.8,28.6h16L316.6,215.4L316.6,215.4z"/>
								<path class="st5" d="M326.2,244.3h-16.8l7.1-30.1L326.2,244.3L326.2,244.3z M310.2,243.6h15.1l-8.7-27.1L310.2,243.6z"/>
								<path class="st5" d="M318.6,237.6h-2.3v12.6h2.3V237.6z"/>
								<path class="st5" d="M319,250.5h-3v-13.2h2.9v13.2H319z M316.7,249.8h1.7v-12h-1.7V249.8z"/>
								<path class="st5" d="M342.2,210.2l-6.8,28.6h16L342.2,210.2L342.2,210.2z"/>
								<path class="st5" d="M351.8,239.1H335l7.1-30.1L351.8,239.1z M335.8,238.4h15.1l-8.7-27.1L335.8,238.4z"/>
								<path class="st5" d="M344.2,232.4H342V245h2.3L344.2,232.4L344.2,232.4z"/>
								<path class="st5" d="M344.6,245.3h-2.9v-13.2h2.9V245.3z M342.3,244.6h1.7v-12h-1.7V244.6z"/>
								<path class="st5" d="M59.1,98.6l-6.8,28.6h16L59.1,98.6L59.1,98.6z"/>
								<path class="st5" d="M68.8,127.5H51.9L59,97.4L68.8,127.5z M52.7,126.8h15.1l-8.7-27.1L52.7,126.8z"/>
								<path class="st5" d="M61.2,120.8h-2.3v12.6h2.3V120.8z"/>
								<path class="st5" d="M61.5,133.7h-2.9v-13.2h2.9V133.7z M59.2,133h1.7v-12h-1.7V133z"/>
								<path class="st5" d="M121.7,55L115,83.6h16C130.9,83.6,121.7,55,121.7,55z"/>
								<path class="st5" d="M131.4,83.9h-16.8l7.1-30.1L131.4,83.9L131.4,83.9z M115.4,83.3h15.1l-8.7-27.1
									C121.8,56.2,115.4,83.3,115.4,83.3z"/>
								<path class="st5" d="M123.8,77.2h-2.3v12.6h2.3V77.2z"/>
								<path class="st5" d="M124.1,90.1h-2.9V76.9h2.9V90.1z M121.8,89.5h1.7v-12h-1.7V89.5z"/>
								<path class="st5" d="M168.2,76.2l-6.8,28.6h16L168.2,76.2L168.2,76.2z"/>
								<path class="st5" d="M177.8,105.1H161l7.1-30.1L177.8,105.1L177.8,105.1z M161.8,104.4h15.1l-8.7-27.1L161.8,104.4z"/>
								<path class="st5" d="M170.2,98.4h-2.3V111h2.3V98.4z"/>
								<path class="st5" d="M170.6,111.3h-2.9V98.1h2.9V111.3z M168.3,110.7h1.7v-12h-1.7V110.7z"/>
								<path class="st12" d="M15.6,17h4.7l0.1-0.6h-3.9l1.3-6.4H17L15.6,17z"/>
								<path class="st12" d="M24.7,10.1l0.9,0.8h0.6l-1.1-1.2h-0.7L23,10.9h0.7L24.7,10.1z M24.3,11.7c-1.8,0-3,1.3-3,3.1
									c0,1.3,0.9,2.2,2.4,2.2c1.8,0,3-1.3,3-3.1C26.7,12.6,25.7,11.7,24.3,11.7z M23.7,16.4c-1.1,0-1.7-0.6-1.7-1.6
									c0-1.4,1-2.5,2.3-2.5c1.1,0,1.7,0.6,1.7,1.6C26,15.4,25,16.4,23.7,16.4z M23.2,18c-0.3,0-0.5,0.2-0.5,0.5
									c0,0.2,0.1,0.4,0.4,0.4s0.5-0.2,0.5-0.5C23.6,18.2,23.4,18,23.2,18z"/>
								<path class="st12" d="M31.9,12.3h1.6l0.1-0.6H32l0.2-1.1h-0.7l-0.2,1.1h-0.9l-0.1,0.6h0.9l-0.6,3.1c0,0.1,0,0.3,0,0.4
									c0,0.8,0.5,1.2,1.3,1.2c0.4,0,0.8-0.1,1.2-0.3l-0.2-0.5c-0.2,0.2-0.5,0.3-0.8,0.3c-0.5,0-0.8-0.2-0.8-0.7c0-0.1,0-0.2,0-0.3
									S31.9,12.3,31.9,12.3z"/>
								<path class="st12" d="M35.8,12.7l0.2-1h-0.7l-1,5.3H35l0.5-2.7c0.3-1.3,1-1.9,2.1-1.9c0.1,0,0.1,0,0.2,0l0.1-0.7
									C36.9,11.7,36.2,12,35.8,12.7z"/>
								<path class="st12" d="M39.7,10.9h0.7l-1.1-1.2h-0.9L39.7,10.9z M38.2,17h0.7l1-5.3h-0.7L38.2,17z"/>
								<path class="st12" d="M44.5,11.7c-0.8,0-1.5,0.3-2.1,0.9l0.2-0.8h-0.7l-1,5.3h0.7l0.6-2.8c0.2-1.2,1-1.8,2.1-1.8
									c0.9,0,1.4,0.4,1.4,1.2c0,0.1,0,0.3,0,0.5L45,17h0.7l0.6-3c0-0.2,0.1-0.4,0.1-0.6C46.3,12.3,45.6,11.7,44.5,11.7z"/>
								<path class="st12" d="M51.2,11.7c-0.8,0-1.5,0.3-2,0.8l0.6-2.9h-0.7L47.6,17h0.7l0.6-2.8c0.2-1.2,1-1.8,2.1-1.8
									c0.9,0,1.4,0.4,1.4,1.2c0,0.1,0,0.3,0,0.5l-0.6,3h0.7l0.6-3c0-0.2,0.1-0.4,0.1-0.6C53.1,12.3,52.4,11.7,51.2,11.7z"/>
								<path class="st12" d="M60.6,11.7c-0.8,0-1.5,0.3-2,0.8l0.6-2.9h-0.7L57,17h0.7l0.6-2.8c0.2-1.2,1-1.8,2.1-1.8
									c0.9,0,1.4,0.4,1.4,1.2c0,0.1,0,0.3,0,0.5l-0.6,3h0.7l0.6-3c0-0.2,0.1-0.4,0.1-0.6C62.5,12.3,61.8,11.7,60.6,11.7z"/>
								<path class="st12" d="M66.1,17c1.8,0,3-1.3,3-3.1c0-1.4-0.9-2.2-2.4-2.2c-1.8,0-3,1.3-3,3.1C63.7,16.2,64.7,17,66.1,17z
									 M66.2,16.4c-1.1,0-1.7-0.6-1.7-1.6c0-1.4,1-2.5,2.3-2.5c1.1,0,1.7,0.6,1.7,1.6C68.5,15.4,67.5,16.4,66.2,16.4z M65.6,18.9
									c0.3,0,0.5-0.2,0.5-0.5c0-0.2-0.2-0.4-0.4-0.4c-0.3,0-0.5,0.2-0.5,0.5C65.2,18.7,65.3,18.9,65.6,18.9z"/>
								<path class="st12" d="M72.4,17c0.9,0,1.7-0.4,2.2-1l-0.5-0.4c-0.4,0.5-1,0.8-1.7,0.8c-1.1,0-1.8-0.6-1.8-1.6
									c0-1.4,1-2.5,2.3-2.5c0.7,0,1.2,0.3,1.5,0.8l0.6-0.4c-0.4-0.7-1.1-1.1-2.1-1.1c-1.8,0-3.1,1.3-3.1,3.1
									C70,16.2,70.9,17,72.4,17z"/>
								<path class="st12" d="M80.1,12.3h1.6l0.1-0.6h-1.6l0.2-1.1h-0.7l-0.2,1.1h-0.9l-0.1,0.6h0.9l-0.6,3.1c0,0.1,0,0.3,0,0.4
									c0,0.8,0.5,1.2,1.3,1.2c0.4,0,0.8-0.1,1.2-0.3L81,16.2c-0.2,0.2-0.5,0.3-0.8,0.3c-0.5,0-0.8-0.2-0.8-0.7c0-0.1,0-0.2,0-0.3
									C79.4,15.4,80.1,12.3,80.1,12.3z"/>
								<path class="st12" d="M85.8,10.1l0.9,0.8h0.6l-1.2-1.2h-0.7L84,10.9h0.7L85.8,10.1z M87.3,11.7l-0.2,1.1
									c-0.3-0.7-1-1.1-2-1.1c-1.7,0-3,1.3-3,3.1c0,1.4,0.9,2.2,2.3,2.2c0.8,0,1.6-0.3,2.1-0.9L86.3,17H87l1.1-5.3
									C88,11.7,87.3,11.7,87.3,11.7z M84.6,16.4c-1.1,0-1.7-0.6-1.7-1.6c0-1.4,1-2.5,2.3-2.5c1.1,0,1.7,0.6,1.7,1.6
									C86.9,15.4,85.9,16.4,84.6,16.4z M84.3,18c-0.3,0-0.5,0.2-0.5,0.5c0,0.2,0.2,0.4,0.4,0.4c0.3,0,0.5-0.2,0.5-0.5
									C84.6,18.2,84.5,18,84.3,18z"/>
								<path class="st12" d="M92.6,11.7c-0.8,0-1.6,0.3-2.1,0.9l0.2-0.8H90L88.6,19h0.7l0.6-3c0.3,0.7,1,1.2,2,1.2
									c1.7,0,3-1.3,3-3.1C94.9,12.5,93.9,11.7,92.6,11.7z M91.9,16.4c-1.1,0-1.7-0.6-1.7-1.6c0-1.4,1-2.5,2.3-2.5
									c1.1,0,1.7,0.6,1.7,1.6C94.1,15.4,93.2,16.4,91.9,16.4z"/>
								<path class="st12" d="M105.5,10.4h-1l0.2-0.8H104l-0.2,0.8h-2.2l-0.1,0.5h2.2l-0.4,1.9c-0.3-0.7-1-1.1-2-1.1
									c-1.7,0-3,1.3-3,3.1c0,1.4,0.9,2.2,2.3,2.2c0.8,0,1.6-0.3,2.1-0.9l-0.2,0.8h0.7l1.2-6.1h1C105.4,10.9,105.5,10.4,105.5,10.4
									z M100.8,16.4c-1.1,0-1.7-0.6-1.7-1.6c0-1.4,1-2.5,2.3-2.5c1.1,0,1.7,0.6,1.7,1.6C103,15.4,102.1,16.4,100.8,16.4z"/>
								<path class="st12" d="M109.7,9.2c0.2,0,0.3,0.1,0.3,0.3s-0.2,0.4-0.5,0.5l0.2,0.2c0.4-0.2,0.7-0.5,0.7-0.9s-0.3-0.6-0.7-0.6
									c-0.2,0-0.4,0.1-0.7,0.2l0.1,0.3C109.3,9.2,109.5,9.2,109.7,9.2z M108.4,10.3l0.9,0.6h0.7l-1.2-0.9h-0.7l-1.4,0.9h0.7
									L108.4,10.3z M108,11.7c-1.7,0-2.9,1.3-2.9,3.1c0,1.4,0.9,2.2,2.4,2.2c0.8,0,1.6-0.3,2.1-0.8l-0.3-0.5
									c-0.4,0.4-1,0.7-1.7,0.7c-1.2,0-1.8-0.6-1.8-1.6c0-0.1,0-0.1,0-0.2h4.4c0-0.2,0.1-0.4,0.1-0.6
									C110.3,12.5,109.4,11.7,108,11.7L108,11.7z M108,12.3c1,0,1.7,0.6,1.7,1.6c0,0.1,0,0.1,0,0.2h-3.8
									C106.1,13,106.9,12.3,108,12.3z"/>
								<path class="st12" d="M116.2,17c0.9,0,1.7-0.4,2.2-1l-0.5-0.4c-0.4,0.5-1,0.8-1.7,0.8c-1.1,0-1.8-0.6-1.8-1.6
									c0-1.4,1-2.5,2.3-2.5c0.7,0,1.2,0.3,1.5,0.8l0.6-0.4c-0.4-0.7-1.1-1.1-2.1-1.1c-1.8,0-3.1,1.3-3.1,3.1
									C113.7,16.2,114.7,17,116.2,17z"/>
								<path class="st12" d="M123,11.7c-0.8,0-1.5,0.3-2,0.8l0.6-2.9h-0.7l-1.5,7.4h0.7l0.6-2.8c0.2-1.2,1-1.8,2.1-1.8
									c0.9,0,1.4,0.4,1.4,1.2c0,0.1,0,0.3-0.1,0.5l-0.6,3h0.7l0.6-3c0-0.2,0.1-0.4,0.1-0.6C124.8,12.3,124.1,11.7,123,11.7
									L123,11.7z"/>
								<path class="st12" d="M131.2,11.7l-0.6,2.8c-0.2,1.2-1,1.8-2.1,1.8c-0.9,0-1.3-0.4-1.3-1.2c0-0.1,0-0.3,0.1-0.5l0.6-3h-0.7
									l-0.6,3c0,0.2-0.1,0.4-0.1,0.6c0,1.1,0.7,1.7,1.9,1.7c0.8,0,1.5-0.3,2-0.9l-0.2,0.8h0.7l1.1-5.3h-0.8V11.7z"/>
								<path class="st12" d="M137.7,9.2c0.2,0,0.3,0.1,0.3,0.3s-0.1,0.4-0.5,0.5l0.2,0.2c0.4-0.2,0.7-0.5,0.7-0.9s-0.3-0.6-0.7-0.6
									c-0.2,0-0.4,0.1-0.6,0.2l0.1,0.3C137.4,9.2,137.5,9.2,137.7,9.2L137.7,9.2z M136.4,10.3l0.9,0.6h0.7l-1.2-0.9h-0.7l-1.4,0.9
									h0.7L136.4,10.3L136.4,10.3z M138,11.7l-0.2,1.1c-0.3-0.7-1-1.1-2-1.1c-1.7,0-3,1.3-3,3.1c0,1.4,0.9,2.2,2.3,2.2
									c0.9,0,1.6-0.3,2.1-0.9L137,17h0.7l1.1-5.3H138L138,11.7z M135.2,16.4c-1.1,0-1.7-0.6-1.7-1.6c0-1.4,1-2.5,2.3-2.5
									c1.1,0,1.7,0.6,1.7,1.6C137.5,15.4,136.5,16.4,135.2,16.4z"/>
								<path class="st12" d="M143.2,11.7c-0.8,0-1.6,0.3-2.1,0.9l0.2-0.8h-0.7l-1,5.3h0.7l0.6-2.8c0.2-1.2,1-1.8,2.1-1.8
									c0.9,0,1.4,0.4,1.4,1.2c0,0.1,0,0.3-0.1,0.5l-0.6,3h0.7l0.6-3c0-0.2,0.1-0.4,0.1-0.6C145.1,12.3,144.4,11.7,143.2,11.7
									L143.2,11.7z"/>
								<path class="st12" d="M152.6,11.7c-0.8,0-1.5,0.3-2,0.8l0.6-2.9h-0.7L149,17h0.7l0.2-1.1c0.3,0.8,1,1.2,2,1.2
									c1.7,0,3-1.3,3-3.1C154.9,12.5,153.9,11.7,152.6,11.7L152.6,11.7z M151.9,16.4c-1.1,0-1.7-0.6-1.7-1.6c0-1.4,1-2.5,2.3-2.5
									c1.1,0,1.7,0.6,1.7,1.6C154.2,15.4,153.2,16.4,151.9,16.4z"/>
								<path class="st12" d="M157.5,10.6c0.3,0,0.6-0.2,0.6-0.6c0-0.2-0.2-0.4-0.5-0.4s-0.6,0.2-0.6,0.5
									C157,10.4,157.2,10.6,157.5,10.6L157.5,10.6z M155.8,17h0.7l1-5.3h-0.7L155.8,17z M155.8,18.9c0.3,0,0.5-0.2,0.5-0.5
									c0-0.2-0.2-0.4-0.4-0.4c-0.3,0-0.5,0.2-0.5,0.5C155.4,18.7,155.6,18.9,155.8,18.9z"/>
								<path class="st12" d="M163.5,17c0.9,0,1.7-0.4,2.2-1l-0.5-0.4c-0.4,0.5-1,0.8-1.7,0.8c-1.1,0-1.8-0.6-1.8-1.6
									c0-1.4,1-2.5,2.3-2.5c0.7,0,1.2,0.3,1.5,0.8l0.6-0.4c-0.4-0.7-1.1-1.1-2.1-1.1c-1.8,0-3.1,1.3-3.1,3.1
									C161,16.2,162,17,163.5,17L163.5,17z"/>
								<path class="st12" d="M170.2,11.7c-0.8,0-1.5,0.3-2,0.8l0.6-2.9h-0.7l-1.5,7.4h0.7l0.6-2.8c0.2-1.2,1-1.8,2.1-1.8
									c0.9,0,1.4,0.4,1.4,1.2c0,0.1,0,0.3-0.1,0.5l-0.6,3h0.7l0.6-3c0-0.2,0.1-0.4,0.1-0.6C172.1,12.3,171.4,11.7,170.2,11.7z"/>
								<path class="st12" d="M175.8,17c1.8,0,3-1.3,3-3.1c0-1.4-0.9-2.2-2.4-2.2c-1.8,0-3,1.3-3,3.1C173.4,16.2,174.3,17,175.8,17z
									 M175.8,16.4c-1.1,0-1.7-0.6-1.7-1.6c0-1.4,1-2.5,2.3-2.5c1.1,0,1.7,0.6,1.7,1.6C178.1,15.4,177.1,16.4,175.8,16.4z"/>
								<path class="st12" d="M182.1,18.9h1.8l0.1-0.6h-1.1l1.6-8.2h1.1l0.1-0.6h-1.8L182.1,18.9L182.1,18.9z"/>
								<path class="st12" d="M189,13.2l3.8-3.2h-1l-4.9,4.2l0.8-4.2H187l-1.4,7h0.7l0.4-1.8l1.7-1.5l2.3,3.3h0.8L189,13.2L189,13.2
									z"/>
								<path class="st12" d="M194.2,10.6c0.3,0,0.6-0.2,0.6-0.6c0-0.2-0.2-0.4-0.5-0.4s-0.6,0.2-0.6,0.5
									C193.7,10.4,193.9,10.6,194.2,10.6L194.2,10.6z M192.5,17h0.7l1-5.3h-0.7L192.5,17z"/>
								<path class="st12" d="M199.7,9.2c0.2,0,0.3,0.1,0.3,0.3s-0.1,0.4-0.5,0.5l0.2,0.2c0.4-0.2,0.7-0.5,0.7-0.9s-0.3-0.6-0.7-0.6
									c-0.2,0-0.4,0.1-0.6,0.2l0.1,0.3C199.4,9.2,199.6,9.2,199.7,9.2L199.7,9.2z M198.5,10.3l0.9,0.6h0.7l-1.2-0.9h-0.7l-1.4,0.9
									h0.7L198.5,10.3L198.5,10.3z M198.1,11.7c-1.7,0-2.9,1.3-2.9,3.1c0,1.4,0.9,2.2,2.4,2.2c0.8,0,1.6-0.3,2.1-0.8l-0.3-0.5
									c-0.4,0.4-1,0.7-1.7,0.7c-1.2,0-1.8-0.6-1.8-1.6c0-0.1,0-0.1,0-0.2h4.4c0-0.2,0.1-0.4,0.1-0.6
									C200.4,12.5,199.5,11.7,198.1,11.7L198.1,11.7z M198.1,12.3c1,0,1.6,0.6,1.6,1.6c0,0.1,0,0.1,0,0.2h-3.8
									C196.2,13,197,12.3,198.1,12.3L198.1,12.3z"/>
								<path class="st12" d="M208.7,11.7c-0.9,0-1.7,0.4-2.2,1.1c-0.2-0.7-0.8-1.1-1.7-1.1c-0.8,0-1.5,0.3-2,0.9l0.2-0.8h-0.7
									l-1,5.3h0.7l0.6-2.8c0.2-1.2,1-1.8,2.1-1.8c0.9,0,1.3,0.4,1.3,1.2c0,0.1,0,0.3-0.1,0.5l-0.6,3h0.7l0.6-2.9
									c0.2-1.2,1-1.8,2-1.8c0.9,0,1.3,0.4,1.3,1.2c0,0.1,0,0.3-0.1,0.5l-0.6,3h0.7l0.6-3c0-0.2,0.1-0.4,0.1-0.6
									C210.6,12.3,209.9,11.7,208.7,11.7L208.7,11.7z"/>
								<path class="st12" d="M216.2,12.3h1.6l0.1-0.6h-1.6l0.2-1.1h-0.7l-0.2,1.1h-0.9l-0.1,0.6h0.9l-0.6,3.1c0,0.1,0,0.3,0,0.4
									c0,0.8,0.5,1.2,1.3,1.2c0.4,0,0.8-0.1,1.2-0.3l-0.2-0.5c-0.2,0.2-0.5,0.3-0.8,0.3c-0.5,0-0.8-0.2-0.8-0.7c0-0.1,0-0.2,0-0.3
									L216.2,12.3L216.2,12.3z"/>
								<path class="st12" d="M220.1,12.7l0.2-1h-0.7l-1,5.3h0.7l0.5-2.7c0.3-1.3,1-1.9,2.1-1.9c0.1,0,0.1,0,0.2,0l0.1-0.7
									C221.2,11.7,220.5,12,220.1,12.7L220.1,12.7z"/>
								<path class="st12" d="M227.6,11.7l-0.2,1.1c-0.3-0.7-1-1.1-2-1.1c-1.7,0-3,1.3-3,3.1c0,1.4,0.9,2.2,2.3,2.2
									c0.9,0,1.6-0.3,2.1-0.9l-0.2,0.8h0.7l1.1-5.3h-0.8V11.7z M224.8,16.4c-1.1,0-1.7-0.6-1.7-1.6c0-1.4,1-2.5,2.3-2.5
									c1.1,0,1.7,0.6,1.7,1.6C227.1,15.4,226.1,16.4,224.8,16.4z"/>
								<path class="st12" d="M232.3,10l-0.1,0.6h1.6l-1.3,6.4h0.7l1.4-7H232.3L232.3,10z"/>
								<path class="st12" d="M239.8,12.3h1.6l0.1-0.6h-1.6l0.2-1.1h-0.7l-0.2,1.1h-0.9l-0.1,0.6h0.9l-0.6,3.1c0,0.1,0,0.3,0,0.4
									c0,0.8,0.5,1.2,1.3,1.2c0.4,0,0.8-0.1,1.2-0.3l-0.2-0.5c-0.2,0.2-0.5,0.3-0.8,0.3c-0.5,0-0.8-0.2-0.8-0.7c0-0.1,0-0.2,0-0.3
									L239.8,12.3L239.8,12.3z"/>
								<path class="st12" d="M243.8,10.6c0.3,0,0.6-0.2,0.6-0.6c0-0.2-0.2-0.4-0.5-0.4s-0.6,0.2-0.6,0.5
									C243.3,10.4,243.5,10.6,243.8,10.6L243.8,10.6z M242.1,17h0.7l1-5.3h-0.7L242.1,17z"/>
								<path class="st12" d="M251.1,9h-0.9l-1.3,1.1h0.7L251.1,9L251.1,9z M248.1,10.4L249,11h0.7l-1.2-0.9h-0.7l-1.4,0.9h0.7
									L248.1,10.4L248.1,10.4z M247.7,11.7c-1.7,0-2.9,1.3-2.9,3.1c0,1.4,0.9,2.2,2.4,2.2c0.8,0,1.6-0.3,2.1-0.8l-0.3-0.5
									c-0.4,0.4-1,0.7-1.7,0.7c-1.2,0-1.8-0.6-1.8-1.6c0-0.1,0-0.1,0-0.2h4.4c0-0.2,0.1-0.4,0.1-0.6
									C249.9,12.5,249,11.7,247.7,11.7L247.7,11.7z M247.6,12.3c1,0,1.6,0.6,1.6,1.6c0,0.1,0,0.1,0,0.2h-3.8
									C245.8,13,246.6,12.3,247.6,12.3L247.6,12.3z"/>
								<path class="st12" d="M252.6,12.3h1.6l0.1-0.6h-1.6l0.2-1.1h-0.7l-0.2,1.1h-1l-0.1,0.6h0.9l-0.6,3.1c0,0.1,0,0.3,0,0.4
									c0,0.8,0.5,1.2,1.3,1.2c0.4,0,0.8-0.1,1.2-0.3l-0.2-0.5c-0.2,0.2-0.5,0.3-0.8,0.3c-0.5,0-0.8-0.2-0.8-0.7c0-0.1,0-0.2,0-0.3
									L252.6,12.3L252.6,12.3z"/>
								<path class="st12" d="M259,17h0.7l1.3-6.4h2.5l0.1-0.6h-5.7l-0.1,0.6h2.5L259,17z"/>
								<path class="st12" d="M264.8,10.6c0.3,0,0.6-0.2,0.6-0.6c0-0.2-0.2-0.4-0.5-0.4s-0.5,0.2-0.5,0.5
									C264.3,10.4,264.5,10.6,264.8,10.6L264.8,10.6z M263.1,17h0.7l1-5.3h-0.7L263.1,17z"/>
								<path class="st12" d="M272.1,9h-0.9l-1.3,1.1h0.7L272.1,9z M269.1,10.4L270,11h0.7l-1.2-0.9h-0.7l-1.4,0.9h0.7L269.1,10.4z
									 M268.6,11.7c-1.7,0-2.9,1.3-2.9,3.1c0,1.4,0.9,2.2,2.5,2.2c0.8,0,1.6-0.3,2.1-0.8l-0.3-0.5c-0.4,0.4-1,0.7-1.7,0.7
									c-1.2,0-1.8-0.6-1.8-1.6c0-0.1,0-0.1,0-0.2h4.4c0-0.2,0.1-0.4,0.1-0.6C270.9,12.5,270,11.7,268.6,11.7L268.6,11.7z
									 M268.6,12.3c1,0,1.6,0.6,1.6,1.6c0,0.1,0,0.1,0,0.2h-3.8C266.8,13,267.6,12.3,268.6,12.3L268.6,12.3z"/>
								<path class="st12" d="M275.4,11.7c-0.8,0-1.5,0.3-2.1,0.9l0.2-0.8h-0.7l-1,5.3h0.7l0.6-2.8c0.2-1.2,1-1.8,2.1-1.8
									c0.9,0,1.4,0.4,1.4,1.2c0,0.1,0,0.3,0,0.5l-0.6,3h0.7l0.6-3c0-0.2,0.1-0.4,0.1-0.6C277.3,12.3,276.6,11.7,275.4,11.7z"/>
								<path class="st12" d="M283.9,11.7l-0.2,1.2c-0.3-0.8-1.1-1.2-2-1.2c-1.8,0-3,1.3-3,3c0,1.3,0.9,2.1,2.3,2.1
									c0.9,0,1.6-0.3,2.1-0.9l-0.1,0.6c-0.2,1.3-1,1.9-2.3,1.9c-0.8,0-1.5-0.3-2-0.7l-0.4,0.5c0.5,0.5,1.4,0.8,2.3,0.8
									c1.7,0,2.7-0.8,3.1-2.6l0.9-4.6L283.9,11.7L283.9,11.7z M281,16.2c-1.1,0-1.7-0.6-1.7-1.5c0-1.3,1-2.3,2.3-2.3
									c1.1,0,1.7,0.6,1.7,1.5C283.3,15.2,282.4,16.2,281,16.2z"/>
								<path class="st12" d="M293.5,17h0.7l-1.8-7h-0.7l-4.6,7h0.8l1.2-1.9h3.9L293.5,17L293.5,17z M289.5,14.5l2.4-3.8l1,3.8
									H289.5z"/>
								<path class="st12" d="M298.9,11.7c-0.8,0-1.5,0.3-2.1,0.9l0.2-0.8h-0.7l-1,5.3h0.7l0.6-2.8c0.2-1.2,1-1.8,2.1-1.8
									c0.9,0,1.4,0.4,1.4,1.2c0,0.1,0,0.3,0,0.5l-0.6,3h0.7l0.6-3c0-0.2,0.1-0.4,0.1-0.6C300.7,12.3,300,11.7,298.9,11.7z"/>
								<path class="st12" d="M305.6,11.7c-0.8,0-1.5,0.3-2,0.8l0.6-2.9h-0.7L302,17h0.7l0.6-2.8c0.2-1.2,1-1.8,2.1-1.8
									c0.9,0,1.4,0.4,1.4,1.2c0,0.1,0,0.3,0,0.5l-0.6,3h0.7l0.6-3c0-0.2,0.1-0.4,0.1-0.6C307.5,12.3,306.8,11.7,305.6,11.7
									L305.6,11.7z"/>
								<path class="st12" d="M309.5,18.9l1.9-9.4h-1.8l-0.1,0.6h1.1l-1.6,8.2h-1.1l-0.1,0.6H309.5z"/>
								<path class="st8" d="M334,37l1.4-7h1.1l2,5.1H338l4-5.1h1.1l-1.4,7h-1.2l1-5.1h0.3l-3.4,4.3h-0.6l-1.8-4.3h0.2l-1,5.1H334
									L334,37z"/>
								<path class="st8" d="M345.7,37.1c-0.5,0-0.8-0.1-1.1-0.3c-0.3-0.2-0.5-0.5-0.7-0.8c-0.1-0.4-0.1-0.8,0-1.3l0.6-3h1.2
									l-0.6,2.9c-0.1,0.4,0,0.8,0.1,1c0.2,0.2,0.5,0.4,0.9,0.4s0.8-0.1,1.1-0.4c0.3-0.2,0.5-0.6,0.6-1.2l0.6-2.8h1.2l-1.1,5.3
									h-1.2l0.3-1.5l0.2,0.5c-0.2,0.4-0.6,0.7-1,0.8C346.6,37,346.2,37.1,345.7,37.1L345.7,37.1z M345.6,39c-0.2,0-0.3,0-0.4-0.2
									c-0.1-0.1-0.1-0.2-0.1-0.4s0.1-0.3,0.2-0.5s0.3-0.2,0.5-0.2c0.1,0,0.3,0,0.4,0.1s0.2,0.2,0.2,0.4s-0.1,0.4-0.2,0.5
									C346,39,345.8,39,345.6,39L345.6,39z"/>
								<path class="st8" d="M352.9,37.1c-0.5,0-1-0.1-1.4-0.3s-0.7-0.5-0.9-0.8s-0.3-0.8-0.3-1.2c0-0.6,0.1-1.1,0.4-1.6
									s0.6-0.8,1.1-1.1s1-0.4,1.7-0.4c0.5,0,1,0.1,1.4,0.3s0.7,0.5,0.9,0.9l-1.1,0.5c-0.1-0.2-0.3-0.4-0.5-0.6
									c-0.2-0.1-0.5-0.2-0.8-0.2c-0.4,0-0.7,0.1-0.9,0.3s-0.5,0.4-0.7,0.7s-0.2,0.7-0.2,1c0,0.4,0.1,0.7,0.4,1
									c0.2,0.2,0.6,0.4,1,0.4c0.3,0,0.6-0.1,0.8-0.2s0.5-0.3,0.6-0.6l0.9,0.6c-0.2,0.4-0.6,0.7-1,0.9
									C353.9,37,353.4,37.1,352.9,37.1L352.9,37.1z"/>
								<path class="st8" d="M360.8,37.1c-0.4,0-0.6-0.1-0.9-0.2s-0.4-0.4-0.5-0.6c-0.1-0.3-0.1-0.6,0-1l1-4.7h1.2l-1,4.7
									c0,0.2,0,0.5,0.1,0.6c0.1,0.2,0.3,0.2,0.5,0.2c0.1,0,0.2,0,0.4,0c0.1,0,0.2-0.1,0.3-0.2l0.2,0.9c-0.2,0.1-0.4,0.2-0.6,0.2
									C361.2,37,361,37.1,360.8,37.1L360.8,37.1z M359,32.7l0.2-1h3.5l-0.2,1H359z"/>
								<path class="st8" d="M363,37l1.1-5.3h1.2l-1.1,5.3H363z M365,30.8c-0.2,0-0.4-0.1-0.5-0.2s-0.2-0.3-0.2-0.5s0.1-0.4,0.2-0.6
									c0.2-0.1,0.4-0.2,0.6-0.2s0.4,0.1,0.5,0.2s0.2,0.3,0.2,0.5s-0.1,0.5-0.2,0.6C365.5,30.7,365.3,30.8,365,30.8z"/>
								<path class="st8" d="M368.6,37.1c-0.5,0-1-0.1-1.4-0.3s-0.7-0.5-0.9-0.8c-0.2-0.3-0.3-0.8-0.3-1.2c0-0.6,0.1-1.1,0.4-1.6
									s0.6-0.8,1.1-1.1s1-0.4,1.6-0.4c0.5,0,0.9,0.1,1.3,0.3s0.6,0.5,0.9,0.8c0.2,0.3,0.3,0.8,0.3,1.2c0,0.1,0,0.3,0,0.4
									c0,0.1,0,0.3-0.1,0.4H367l0.1-0.8h3.8l-0.5,0.3c0-0.3,0-0.6-0.1-0.8s-0.3-0.4-0.5-0.5s-0.5-0.2-0.8-0.2
									c-0.4,0-0.7,0.1-1,0.3s-0.5,0.4-0.6,0.7s-0.2,0.7-0.2,1.1s0.1,0.8,0.4,1s0.6,0.3,1.2,0.3c0.3,0,0.6,0,0.9-0.1
									s0.5-0.2,0.7-0.4l0.5,0.9c-0.3,0.2-0.6,0.4-1,0.6C369.4,37,369,37.1,368.6,37.1L368.6,37.1z M367.5,30.9l1.5-1.4h1.1
									l1.2,1.4h-1l-1.2-1.1h1l-1.5,1.1H367.5L367.5,30.9z"/>
								<path class="st8" d="M374.4,37.1c-0.5,0-0.8-0.1-1.1-0.3c-0.3-0.2-0.5-0.5-0.7-0.8c-0.1-0.4-0.1-0.8,0-1.3l0.6-3h1.2
									l-0.6,2.9c-0.1,0.4,0,0.8,0.1,1c0.2,0.2,0.5,0.4,0.9,0.4s0.8-0.1,1.1-0.4c0.3-0.2,0.5-0.6,0.6-1.2l0.6-2.8h1.2l-1.1,5.3H376
									l0.3-1.5l0.2,0.5c-0.2,0.4-0.6,0.7-1,0.8C375.3,37,374.9,37.1,374.4,37.1L374.4,37.1z"/>
								<path class="st8" d="M337.7,49.1c-0.5,0-1-0.1-1.4-0.3s-0.7-0.5-0.9-0.8s-0.3-0.8-0.3-1.2c0-0.6,0.1-1.1,0.4-1.6
									s0.6-0.8,1.1-1.1s1-0.4,1.7-0.4c0.5,0,1,0.1,1.4,0.3s0.7,0.5,0.9,0.9l-1.1,0.5c-0.1-0.2-0.3-0.4-0.5-0.6
									c-0.2-0.1-0.5-0.2-0.8-0.2c-0.4,0-0.7,0.1-0.9,0.3s-0.5,0.4-0.7,0.7s-0.2,0.7-0.2,1c0,0.4,0.1,0.7,0.4,1
									c0.2,0.2,0.6,0.4,1,0.4c0.3,0,0.6-0.1,0.8-0.2s0.5-0.3,0.6-0.6l0.9,0.6c-0.2,0.4-0.6,0.7-1,0.9
									C338.7,49,338.2,49.1,337.7,49.1L337.7,49.1z"/>
								<path class="st8" d="M343.1,49.1c-0.5,0-0.8-0.1-1.1-0.3c-0.3-0.2-0.5-0.5-0.7-0.8c-0.1-0.4-0.1-0.8,0-1.3l0.6-3h1.2
									l-0.6,2.9c-0.1,0.4,0,0.8,0.1,1c0.2,0.2,0.5,0.4,0.9,0.4s0.8-0.1,1.1-0.4c0.3-0.2,0.5-0.6,0.6-1.2l0.6-2.8h1.2l-1,5.4h-1.2
									l0.3-1.5l0.2,0.5c-0.2,0.4-0.6,0.7-1,0.8C344,49,343.5,49.1,343.1,49.1L343.1,49.1z M344.9,43l-0.3-0.5
									c0.2-0.1,0.4-0.2,0.5-0.3s0.1-0.2,0.1-0.4c0-0.1,0-0.2-0.1-0.3s-0.2-0.1-0.3-0.1c-0.2,0-0.4,0.1-0.6,0.2L344,41
									c0.1-0.1,0.3-0.2,0.5-0.2s0.4-0.1,0.5-0.1c0.3,0,0.5,0.1,0.7,0.2c0.2,0.2,0.3,0.4,0.3,0.6c0,0.3-0.1,0.5-0.3,0.8
									C345.5,42.7,345.2,42.9,344.9,43L344.9,43z"/>
								<path class="st8" d="M350,49.1c-0.4,0-0.8-0.1-1.2-0.3c-0.4-0.2-0.6-0.5-0.9-0.8s-0.3-0.8-0.3-1.3s0.1-0.9,0.2-1.2
									s0.4-0.7,0.6-1c0.3-0.3,0.6-0.5,1-0.7s0.8-0.2,1.2-0.2s0.8,0.1,1.1,0.2c0.3,0.2,0.6,0.4,0.7,0.7c0.2,0.3,0.2,0.7,0.2,1.2
									c0,0.7-0.1,1.2-0.4,1.7c-0.2,0.5-0.5,0.9-1,1.2S350.6,49.1,350,49.1L350,49.1z M350.4,48c0.4,0,0.7-0.1,1-0.2
									c0.3-0.2,0.5-0.4,0.6-0.7s0.2-0.7,0.2-1c0-0.4-0.1-0.7-0.4-1c-0.2-0.2-0.6-0.4-1-0.4s-0.7,0.1-1,0.3s-0.5,0.4-0.6,0.7
									s-0.2,0.7-0.2,1c0,0.4,0.1,0.7,0.4,1C349.6,47.9,349.9,48,350.4,48z M351.7,49l0.2-1.2l0.3-1.4l0.2-1.4l0.2-1.3h1.2
									l-1.1,5.3C352.7,49,351.7,49,351.7,49z"/>
								<path class="st8" d="M357.2,49l1.5-7.4h1.2l-0.7,3.3l-0.4,1.4l-0.2,1.3l-0.3,1.5L357.2,49L357.2,49z M360.5,49.1
									c-0.4,0-0.8-0.1-1.1-0.2c-0.3-0.2-0.6-0.4-0.7-0.7c-0.2-0.3-0.3-0.7-0.3-1.1c0-0.5,0.1-1,0.2-1.4s0.3-0.8,0.5-1.1
									s0.5-0.5,0.9-0.7s0.7-0.2,1.2-0.2s0.8,0.1,1.2,0.3c0.4,0.2,0.6,0.5,0.8,0.8s0.3,0.8,0.3,1.3s-0.1,0.9-0.2,1.2
									c-0.1,0.4-0.4,0.7-0.6,1c-0.3,0.3-0.6,0.5-1,0.7C361.3,49,360.9,49.1,360.5,49.1L360.5,49.1z M360.4,48c0.4,0,0.7-0.1,1-0.2
									c0.3-0.2,0.5-0.4,0.6-0.7s0.2-0.7,0.2-1c0-0.4-0.1-0.7-0.4-1c-0.2-0.2-0.6-0.4-1-0.4s-0.7,0.1-1,0.3s-0.5,0.4-0.6,0.7
									s-0.2,0.7-0.2,1c0,0.4,0.1,0.7,0.4,1C359.6,47.9,359.9,48,360.4,48z"/>
								<path class="st8" d="M366.5,49.1c-0.4,0-0.8-0.1-1.2-0.3c-0.4-0.2-0.6-0.5-0.9-0.8s-0.3-0.8-0.3-1.3s0.1-0.9,0.2-1.2
									s0.4-0.7,0.6-1c0.3-0.3,0.6-0.5,1-0.7s0.8-0.2,1.2-0.2s0.8,0.1,1.1,0.2c0.3,0.2,0.6,0.4,0.7,0.7c0.2,0.3,0.2,0.7,0.2,1.2
									c0,0.7-0.1,1.2-0.4,1.7c-0.2,0.5-0.5,0.9-1,1.2S367.1,49.1,366.5,49.1L366.5,49.1z M366.8,48c0.4,0,0.7-0.1,1-0.2
									c0.3-0.2,0.5-0.4,0.6-0.7s0.2-0.7,0.2-1c0-0.4-0.1-0.7-0.4-1c-0.2-0.2-0.6-0.4-1-0.4s-0.7,0.1-1,0.3s-0.5,0.4-0.6,0.7
									s-0.2,0.7-0.2,1c0,0.4,0.1,0.7,0.4,1C366,47.9,366.4,48,366.8,48z M368.1,49l0.2-1.2l0.3-1.4l0.2-1.4l0.2-1.3h1.2l-1.1,5.3
									C369.1,49,368.1,49,368.1,49z M366.4,51c-0.2,0-0.3,0-0.4-0.2c-0.1-0.1-0.1-0.2-0.1-0.4s0.1-0.3,0.2-0.5s0.3-0.2,0.5-0.2
									c0.1,0,0.3,0,0.4,0.1s0.2,0.2,0.2,0.4s-0.1,0.4-0.2,0.5C366.7,51,366.6,51,366.4,51L366.4,51z"/>
								<path class="st8" d="M374.9,43.6c0.5,0,0.9,0.1,1.2,0.3s0.5,0.5,0.7,0.8c0.1,0.4,0.1,0.8,0,1.3l-0.6,3H375l0.6-2.9
									c0.1-0.4,0-0.8-0.1-1c-0.2-0.2-0.5-0.4-0.9-0.4s-0.8,0.1-1.1,0.4c-0.3,0.2-0.5,0.6-0.6,1.2l-0.6,2.8H371l1.1-5.3h1.2
									l-0.3,1.5l-0.2-0.5c0.2-0.4,0.6-0.7,1-0.8C374.1,43.7,374.5,43.6,374.9,43.6L374.9,43.6z"/>
								<path class="st5" d="M48.5,138c-15.2-2-27.7,2.2-32,4.5c-8,3,25,6,48,5S67.5,140.5,48.5,138z"/>
								<path class="st5" d="M282.2,305.5c-15.2-2-27.7,2.2-32,4.5c-8,3,25,6,48,5S301.2,308,282.2,305.5z"/>
								<path class="st5" d="M139.2,105.3c-9.7-1.2-17.7,1.3-20.4,2.6c-5.1,1.7,16,3.5,30.6,2.9
									C164.1,110.3,151.3,106.8,139.2,105.3L139.2,105.3z"/>
							</g>
						</g>
					</g>
				</g>
			</g>
		</g>
	</g>
</g>
</svg>
