<?xml version="1.0" encoding="UTF-8"?><svg id="Layer_2" xmlns="http://www.w3.org/2000/svg" xmlns:xlink="http://www.w3.org/1999/xlink" viewBox="0 0 674 557"><defs><style>.cls-1{fill:none;}.cls-2{clip-path:url(#clippath);}.cls-3{fill:#ffcb97;}</style><clipPath id="clippath"><rect class="cls-1" width="674" height="557"/></clipPath></defs><g id="Layer_2-2"><g class="cls-2"><path class="cls-3" d="M-30.58,326.6S2.74,230.61,65.7,221.01c67.3-10.26,159.58,11.88,168.56-12.42,9.6-25.98-96.85-59.01-66.07-68.89,36.59-11.75,181.57,20.22,193.13,8.28,20.05-20.71-108.05-48.56-80.94-54.96s86.2,13.05,91.11,6.4c4.15-5.63-21.49-17.61-21.49-17.61l4.83-.77s65.13,31.55-17.83,19.13c-71.68-10.73,69.12,33.51,53.69,57.6s-228.14-27.48-172.8,5.65,122.23,81.98,11.29,74.54c-101.08-6.78-187.48,37.55-154.16,88.65H-30.58Z"/></g></g></svg>