<svg width="674" height="557" viewBox="0 0 674 557" fill="none" xmlns="http://www.w3.org/2000/svg">
<g clip-path="url(#clip0_512_224)">
<rect x="139" y="34" width="459" height="522.689" rx="8" fill="#FFEDD5"/>
<path d="M570.05 432.455L519.346 516.02L641.638 520.268L652.121 443.179L570.05 432.455Z" fill="#DE6501"/>
<path d="M634.515 439.452L592.013 566.472L776.638 591.032L720.85 459.158L634.515 439.452Z" fill="#A54B03"/>
<path fill-rule="evenodd" clip-rule="evenodd" d="M-160.793 406.004C-160.793 406.004 20.051 443.458 40.571 452.98C61.091 462.502 272.911 479.171 304.389 493.379C335.867 507.597 592.014 514.529 592.014 514.529L873.744 547.055V560.742H-160.793V405.994V406.004Z" fill="#DE6501"/>
<path d="M208.101 476.189C221.08 478.407 320.403 455.543 325.393 452.98C330.383 450.418 389.69 459.018 397.818 461.561C405.946 464.105 567.09 419.923 567.09 419.923L652.121 443.17L897.793 309.069" stroke="#DE6501" stroke-width="3" stroke-miterlimit="10"/>
<path d="M190.924 559.139L153.924 496.715L268.889 560.751L190.924 559.139Z" fill="#A54B03"/>
<path d="M297.397 559.139L274.307 538.875L505.893 560.751L297.397 559.139Z" fill="#A54B03"/>
<path d="M405.127 506.041L544.019 439.145L482.766 527.07L405.127 506.041Z" fill="#DE6501"/>
<path d="M293.747 489.979L320.785 475.77L339.657 476.357L330.709 489.979L354.683 476.357L413.711 475.77L370.688 520.268L293.747 489.979Z" fill="#DE6501"/>
</g>
<g clip-path="url(#clip1_512_224)">
<path d="M434.211 326.628L6.03467 326.64C2.99836 327.013 0.316284 324.645 0.316284 321.595V5.41733C0.316284 2.84759 2.23928 0.681949 4.78852 0.37257L432.965 0.359943C436.002 -0.0125737 438.684 2.35512 438.684 5.4047V321.583C438.684 324.152 436.761 326.318 434.211 326.628Z" fill="#FDBA74"/>
<path d="M267.5 197.5C264.3 236.7 198.167 217.833 165.5 203.5C164.167 203.5 162.3 204.6 165.5 209C168.7 213.4 197.5 222.5 211.5 226.5C305.5 251 286.5 188.5 263 161C239.5 133.5 221 104.5 300.5 111C364.1 116.2 364.333 91.5 356.5 78.5L352 81C360 117.5 305.5 103 237 104.5C168.5 106 271.5 148.5 267.5 197.5Z" fill="#FED7AA"/>
<path d="M92 231.5C46 231.5 36.8333 259.167 38 273H42.5C38.5149 264.5 56.1507 227.662 106 246C202.5 281.5 134 201.5 202.5 171C271 140.5 365.5 204 381.5 159C391.984 129.513 359.5 122.5 338.5 96C321.7 74.8 341.167 76.5 353 80L350 76.5C332.167 73 305.4 76 341 116C385.5 166 290.5 157 214 154.5C137.5 152 149.5 231.5 92 231.5Z" fill="#FED7AA"/>
<path d="M438.684 23.6451L0.316284 24.9079V5.45492C0.316284 2.86625 2.25193 0.681661 4.82647 0.365969H432.946C435.995 -0.0128612 438.684 2.36114 438.684 5.42967V23.6514V23.6451Z" fill="#334155"/>
<path fill-rule="evenodd" clip-rule="evenodd" d="M136.646 171.589C131.712 171.589 127.594 175.838 127.594 181.23C127.594 182.404 128.112 183.856 129.036 185.46C129.947 187.039 131.186 188.642 132.445 190.088C133.704 191.534 134.969 192.797 135.918 193.7C136.19 193.959 136.43 194.186 136.639 194.375C136.848 194.18 137.095 193.952 137.36 193.7C138.309 192.797 139.574 191.528 140.833 190.088C142.098 188.642 143.332 187.039 144.243 185.46C145.172 183.856 145.685 182.404 145.685 181.23C145.685 175.832 141.561 171.589 136.633 171.589H136.646ZM136.646 196.112C136.085 196.764 135.804 197.09 135.804 197.09H135.792L135.766 197.059C135.747 197.04 135.716 197.015 135.671 196.977C135.589 196.907 135.475 196.806 135.33 196.674C135.039 196.415 134.628 196.036 134.128 195.562C133.141 194.622 131.813 193.296 130.491 191.774C129.169 190.259 127.815 188.516 126.79 186.742C125.778 184.993 125 183.067 125 181.224C125 174.544 130.143 169 136.639 169C143.136 169 148.278 174.544 148.278 181.224C148.278 183.067 147.5 184.987 146.488 186.742C145.463 188.516 144.11 190.259 142.788 191.774C141.459 193.296 140.137 194.622 139.15 195.562C138.657 196.036 138.24 196.415 137.949 196.674C137.803 196.806 137.689 196.907 137.607 196.977C137.569 197.008 137.537 197.04 137.512 197.059L137.487 197.078H137.481C137.481 197.078 137.481 197.084 136.639 196.105L136.646 196.112ZM136.646 196.112L137.487 197.09L136.646 197.81L135.804 197.09L136.646 196.112ZM136.646 176.577C134.849 176.577 133.344 178.073 133.344 179.98C133.344 181.887 134.849 183.383 136.646 183.383C138.442 183.383 139.948 181.887 139.948 179.98C139.948 178.073 138.442 176.577 136.646 176.577ZM130.756 179.98C130.756 176.703 133.369 173.994 136.646 173.994C139.922 173.994 142.535 176.703 142.535 179.98C142.535 183.257 139.922 185.965 136.646 185.965C133.369 185.965 130.756 183.257 130.756 179.98Z" fill="#1E293B"/>
<path d="M426.665 16.7001C429.285 16.7001 431.409 14.58 431.409 11.9647C431.409 9.34947 429.285 7.22937 426.665 7.22937C424.045 7.22937 421.921 9.34947 421.921 11.9647C421.921 14.58 424.045 16.7001 426.665 16.7001Z" fill="#B90F0F"/>
<path d="M412.749 16.7001C415.369 16.7001 417.493 14.58 417.493 11.9647C417.493 9.34947 415.369 7.22937 412.749 7.22937C410.128 7.22937 408.004 9.34947 408.004 11.9647C408.004 14.58 410.128 16.7001 412.749 16.7001Z" fill="#FB923C"/>
<path d="M398.832 16.7001C401.452 16.7001 403.576 14.58 403.576 11.9647C403.576 9.34947 401.452 7.22937 398.832 7.22937C396.212 7.22937 394.088 9.34947 394.088 11.9647C394.088 14.58 396.212 16.7001 398.832 16.7001Z" fill="#34D399"/>
<path fill-rule="evenodd" clip-rule="evenodd" d="M350.011 81.1014C345.785 81.1014 342.218 79.384 342.218 77.3446C342.218 75.3053 345.785 73.5879 350.011 73.5879C354.236 73.5879 357.804 75.3116 357.804 77.3446C357.804 79.3777 354.236 81.1014 350.011 81.1014Z" fill="#1E293B"/>
<path d="M350.011 74.2193C354.11 74.2193 357.171 75.8672 357.171 77.3447C357.171 78.8221 354.11 80.47 350.011 80.47C345.912 80.47 342.85 78.8221 342.85 77.3447C342.85 75.8672 345.912 74.2193 350.011 74.2193ZM350.011 72.9565C345.355 72.9565 341.585 74.9201 341.585 77.3447C341.585 79.7692 345.355 81.7328 350.011 81.7328C354.666 81.7328 358.437 79.7692 358.437 77.3447C358.437 74.9201 354.666 72.9565 350.011 72.9565Z" fill="#1E293B"/>
<path d="M350.011 77.976C349.663 77.976 349.378 77.6919 349.378 77.3447V55.4672C349.378 55.1199 349.663 54.8358 350.011 54.8358C350.359 54.8358 350.643 55.1199 350.643 55.4672V77.3447C350.643 77.6919 350.359 77.976 350.011 77.976Z" fill="#1E293B"/>
<path fill-rule="evenodd" clip-rule="evenodd" d="M362.517 58.4852L350.011 55.2146V62.747L362.517 58.4852Z" fill="#FB7200"/>
<path d="M349.378 63.631V54.4001L364.712 58.4031L349.378 63.631ZM350.643 56.0354V61.8694L360.328 58.5673L350.643 56.0417V56.0354Z" fill="#FB7200"/>
<path d="M104.013 98.7801L105.822 89.7513L108.776 97.511L112.059 86.626L114.33 96.9112L117.809 88.8232L119.707 98.7801H104.013Z" fill="#C15802"/>
<path d="M131.213 92.4662L133.022 83.4374L135.976 91.1971L139.259 80.312L141.53 90.5973L145.009 82.5092L146.907 92.4662H131.213Z" fill="#C15802"/>
<path d="M189.409 304.611L191.218 295.582L194.172 303.342L197.455 292.457L199.726 302.742L203.205 294.654L205.103 304.611H189.409Z" fill="#C15802"/>
<path d="M210.916 309.031L212.725 300.002L215.679 307.762L218.962 296.877L221.233 307.162L224.712 299.074L226.61 309.031H210.916Z" fill="#C15802"/>
<path d="M324.145 255.995L325.954 246.966L328.908 254.726L332.191 243.84L334.462 254.126L337.941 246.038L339.839 255.995H324.145Z" fill="#C15802"/>
<path d="M350.713 249.681L352.522 240.652L355.476 248.412L358.759 237.527L361.03 247.812L364.509 239.724L366.407 249.681H350.713Z" fill="#C15802"/>
<path d="M316.567 215.378L309.792 243.954H325.771L316.567 215.378Z" fill="#FB923C"/>
<path d="M326.207 244.27H309.394L316.523 214.203L326.207 244.27ZM310.197 243.638H325.341L316.618 216.552L310.197 243.638Z" fill="#FB923C"/>
<path d="M318.648 237.565H316.346V250.167H318.648V237.565Z" fill="#FB923C"/>
<path d="M318.965 250.483H316.029V237.249H318.965V250.483ZM316.662 249.851H318.332V237.88H316.662V249.851Z" fill="#FB923C"/>
<path d="M342.173 210.174L335.398 238.751H351.377L342.173 210.174Z" fill="#FB923C"/>
<path d="M351.814 239.066H335L342.129 209L351.814 239.066ZM335.803 238.435H350.947L342.224 211.349L335.803 238.435Z" fill="#FB923C"/>
<path d="M344.254 232.361H341.952V244.964H344.254V232.361Z" fill="#FB923C"/>
<path d="M344.571 245.279H341.636V232.046H344.571V245.279ZM342.268 244.648H343.938V232.677H342.268V244.648Z" fill="#FB923C"/>
<path d="M59.1132 98.5717L52.3384 127.148H68.317L59.1132 98.5717Z" fill="#FB923C"/>
<path d="M68.7535 127.464H51.9399L59.0689 97.3973L68.7535 127.464ZM52.7433 126.832H67.8869L59.1638 99.7461L52.7433 126.832Z" fill="#FB923C"/>
<path d="M61.1943 120.759H58.8918V133.361H61.1943V120.759Z" fill="#FB923C"/>
<path d="M61.5106 133.677H58.5755V120.443H61.5106V133.677ZM59.2081 133.045H60.878V121.074H59.2081V133.045Z" fill="#FB923C"/>
<path d="M121.737 55.0061L114.962 83.5825H130.941L121.737 55.0061Z" fill="#FB923C"/>
<path d="M131.377 83.8983H114.564L121.693 53.8318L131.377 83.8983ZM115.367 83.2669H130.511L121.788 56.1805L115.367 83.2669Z" fill="#FB923C"/>
<path d="M123.818 77.193H121.516V89.7954H123.818V77.193Z" fill="#FB923C"/>
<path d="M124.135 90.1111H121.199V76.8773H124.135V90.1111ZM121.832 89.4797H123.502V77.5087H121.832V89.4797Z" fill="#FB923C"/>
<path d="M168.173 76.1743L161.399 104.751H177.377L168.173 76.1743Z" fill="#FB923C"/>
<path d="M177.814 105.067H161L168.129 75L177.814 105.067ZM161.803 104.435H176.947L168.224 77.3487L161.803 104.435Z" fill="#FB923C"/>
<path d="M170.254 98.3612H167.952V110.964H170.254V98.3612Z" fill="#FB923C"/>
<path d="M170.571 111.279H167.636V98.0455H170.571V111.279ZM168.268 110.648H169.938V98.6769H168.268V110.648Z" fill="#FB923C"/>
<path d="M38.6419 277.272C42.3102 277.272 45.2839 275.42 45.2839 273.136C45.2839 270.852 42.3102 269 38.6419 269C34.9737 269 32 270.852 32 273.136C32 275.42 34.9737 277.272 38.6419 277.272Z" fill="#1E293B"/>
<path fill-rule="evenodd" clip-rule="evenodd" d="M38.6455 240.589C33.7115 240.589 29.5935 244.838 29.5935 250.23C29.5935 251.404 30.1122 252.856 31.0358 254.46C31.9467 256.039 33.1865 257.642 34.4453 259.088C35.7041 260.534 36.9692 261.797 37.9181 262.7C38.1901 262.959 38.4304 263.186 38.6392 263.375C38.8479 263.18 39.0946 262.952 39.3603 262.7C40.3092 261.797 41.5743 260.528 42.8331 259.088C44.0982 257.642 45.3317 256.039 46.2426 254.46C47.1725 252.856 47.6849 251.404 47.6849 250.23C47.6849 244.832 43.5605 240.589 38.6329 240.589H38.6455ZM38.6455 265.112C38.0846 265.764 37.8042 266.09 37.8042 266.09H37.7916L37.7663 266.059C37.7473 266.04 37.7156 266.015 37.6714 265.977C37.5891 265.907 37.4753 265.806 37.3298 265.674C37.0388 265.415 36.6276 265.036 36.1279 264.562C35.1411 263.622 33.8127 262.296 32.4907 260.774C31.1686 259.259 29.8149 257.516 28.7902 255.742C27.7781 253.993 27 252.067 27 250.224C27 243.544 32.1428 238 38.6392 238C45.1356 238 50.2784 243.544 50.2784 250.224C50.2784 252.067 49.5003 253.987 48.4882 255.742C47.4635 257.516 46.1098 259.259 44.7877 260.774C43.4593 262.296 42.1373 263.622 41.1505 264.562C40.6571 265.036 40.2396 265.415 39.9486 265.674C39.8031 265.806 39.6893 265.907 39.607 265.977C39.5691 266.008 39.5374 266.04 39.5121 266.059L39.4868 266.078H39.4805C39.4805 266.078 39.4805 266.084 38.6392 265.105L38.6455 265.112ZM38.6455 265.112L39.4868 266.09L38.6455 266.81L37.8042 266.09L38.6455 265.112ZM38.6455 245.577C36.849 245.577 35.3435 247.073 35.3435 248.98C35.3435 250.887 36.849 252.383 38.6455 252.383C40.442 252.383 41.9475 250.887 41.9475 248.98C41.9475 247.073 40.442 245.577 38.6455 245.577ZM32.7563 248.98C32.7563 245.703 35.3688 242.994 38.6455 242.994C41.9222 242.994 44.5347 245.703 44.5347 248.98C44.5347 252.257 41.9222 254.965 38.6455 254.965C35.3688 254.965 32.7563 252.257 32.7563 248.98Z" fill="#1E293B"/>
<path d="M15.62 16.9999H20.27L20.4 16.3599H16.48L17.75 9.99995H17.02L15.62 16.9999Z" fill="#CBD5E1"/>
<path d="M24.7305 10.0999L25.6305 10.9299H26.2705L25.1205 9.68995H24.4005L22.9705 10.9299H23.6505L24.7305 10.0999ZM24.2705 11.6999C22.5005 11.6999 21.2305 13.0299 21.2305 14.8199C21.2305 16.1699 22.1605 17.0499 23.6205 17.0499C25.3905 17.0499 26.6605 15.7199 26.6605 13.9199C26.6605 12.5599 25.7305 11.6999 24.2705 11.6999ZM23.6705 16.4199C22.5705 16.4199 21.9405 15.8199 21.9405 14.7899C21.9405 13.3599 22.9105 12.3199 24.2205 12.3199C25.3205 12.3199 25.9505 12.9299 25.9505 13.9599C25.9505 15.3899 24.9805 16.4199 23.6705 16.4199ZM23.1805 18.0399C22.9105 18.0399 22.6905 18.2599 22.6905 18.5199C22.6905 18.7399 22.8405 18.8999 23.0605 18.8999C23.3405 18.8999 23.5505 18.6899 23.5505 18.4099C23.5505 18.1899 23.3905 18.0399 23.1805 18.0399Z" fill="#CBD5E1"/>
<path d="M31.9173 12.3399H33.5173L33.6373 11.7399H32.0373L32.2673 10.5899H31.5573L31.3273 11.7399H30.3873L30.2773 12.3399H31.2073L30.5973 15.4399C30.5673 15.5799 30.5573 15.7199 30.5573 15.8499C30.5573 16.5999 31.0473 17.0499 31.8373 17.0499C32.2373 17.0499 32.6773 16.9599 33.0073 16.7099L32.8373 16.1699C32.5973 16.3499 32.3173 16.4399 32.0273 16.4399C31.5173 16.4399 31.2673 16.1899 31.2673 15.7399C31.2673 15.6399 31.2873 15.5299 31.3073 15.4099L31.9173 12.3399Z" fill="#CBD5E1"/>
<path d="M35.7698 12.6999L35.9498 11.7399H35.2698L34.2298 16.9999H34.9398L35.4698 14.3299C35.7298 13.0199 36.4798 12.3799 37.5998 12.3799C37.6798 12.3799 37.7298 12.3899 37.7998 12.3899L37.9298 11.6999C36.9298 11.6999 36.2398 12.0099 35.7698 12.6999Z" fill="#CBD5E1"/>
<path d="M39.6753 10.9299H40.3853L39.2453 9.68995H38.3053L39.6753 10.9299ZM38.1653 16.9999H38.8753L39.9153 11.7399H39.2053L38.1653 16.9999Z" fill="#CBD5E1"/>
<path d="M44.4609 11.6999C43.6309 11.6999 42.9109 11.9799 42.4009 12.5799L42.5709 11.7399H41.8909L40.8509 16.9999H41.5609L42.1209 14.1799C42.3709 12.9499 43.1409 12.3399 44.2609 12.3399C45.1709 12.3399 45.6209 12.7699 45.6209 13.5199C45.6209 13.6699 45.6009 13.8299 45.5709 13.9999L44.9709 16.9999H45.6809L46.2809 14.0099C46.3209 13.7999 46.3409 13.5999 46.3409 13.4099C46.3409 12.3399 45.6509 11.6999 44.4609 11.6999Z" fill="#CBD5E1"/>
<path d="M51.2284 11.6999C50.4184 11.6999 49.7184 11.9599 49.2184 12.5299L49.8084 9.57995H49.0984L47.6184 16.9999H48.3284L48.8884 14.1799C49.1384 12.9499 49.9084 12.3399 51.0284 12.3399C51.9384 12.3399 52.3884 12.7699 52.3884 13.5199C52.3884 13.6699 52.3684 13.8299 52.3384 13.9999L51.7384 16.9999H52.4484L53.0484 14.0099C53.0884 13.7999 53.1084 13.5999 53.1084 13.4099C53.1084 12.3399 52.4184 11.6999 51.2284 11.6999Z" fill="#CBD5E1"/>
<path d="M60.6132 11.6999C59.8032 11.6999 59.1032 11.9599 58.6032 12.5299L59.1932 9.57995H58.4832L57.0032 16.9999H57.7132L58.2732 14.1799C58.5232 12.9499 59.2932 12.3399 60.4132 12.3399C61.3232 12.3399 61.7732 12.7699 61.7732 13.5199C61.7732 13.6699 61.7532 13.8299 61.7232 13.9999L61.1232 16.9999H61.8332L62.4332 14.0099C62.4732 13.7999 62.4932 13.5999 62.4932 13.4099C62.4932 12.3399 61.8032 11.6999 60.6132 11.6999Z" fill="#CBD5E1"/>
<path d="M66.1303 17.0499C67.9003 17.0499 69.1703 15.7199 69.1703 13.9199C69.1703 12.5599 68.2403 11.6999 66.7803 11.6999C65.0103 11.6999 63.7403 13.0299 63.7403 14.8199C63.7403 16.1699 64.6703 17.0499 66.1303 17.0499ZM66.1803 16.4199C65.0803 16.4199 64.4503 15.8199 64.4503 14.7899C64.4503 13.3599 65.4203 12.3199 66.7303 12.3199C67.8303 12.3199 68.4603 12.9299 68.4603 13.9599C68.4603 15.3899 67.4903 16.4199 66.1803 16.4199ZM65.5703 18.8999C65.8503 18.8999 66.0603 18.6899 66.0603 18.4099C66.0603 18.1899 65.9003 18.0399 65.6903 18.0399C65.4203 18.0399 65.2003 18.2599 65.2003 18.5199C65.2003 18.7399 65.3503 18.8999 65.5703 18.8999Z" fill="#CBD5E1"/>
<path d="M72.4398 17.0499C73.3398 17.0499 74.1698 16.6799 74.6398 16.0499L74.1298 15.6599C73.7498 16.1599 73.1398 16.4199 72.4698 16.4199C71.3498 16.4199 70.7198 15.8199 70.7198 14.7899C70.7198 13.3599 71.6898 12.3199 73.0098 12.3199C73.7298 12.3199 74.2398 12.5799 74.5398 13.0999L75.1398 12.7499C74.7498 12.0499 74.0298 11.6999 73.0698 11.6999C71.2798 11.6999 70.0098 13.0199 70.0098 14.8199C70.0098 16.1699 70.9398 17.0499 72.4398 17.0499Z" fill="#CBD5E1"/>
<path d="M80.0618 12.3399H81.6618L81.7818 11.7399H80.1818L80.4118 10.5899H79.7018L79.4718 11.7399H78.5318L78.4218 12.3399H79.3518L78.7418 15.4399C78.7118 15.5799 78.7018 15.7199 78.7018 15.8499C78.7018 16.5999 79.1918 17.0499 79.9818 17.0499C80.3818 17.0499 80.8218 16.9599 81.1518 16.7099L80.9818 16.1699C80.7418 16.3499 80.4618 16.4399 80.1718 16.4399C79.6618 16.4399 79.4118 16.1899 79.4118 15.7399C79.4118 15.6399 79.4318 15.5299 79.4518 15.4099L80.0618 12.3399Z" fill="#CBD5E1"/>
<path d="M85.8088 10.0999L86.7088 10.9299H87.3488L86.1987 9.68995H85.4787L84.0487 10.9299H84.7287L85.8088 10.0999ZM87.3287 11.7399L87.1087 12.8399C86.8087 12.1099 86.1087 11.6999 85.1087 11.6999C83.3987 11.6999 82.1388 13.0199 82.1388 14.8199C82.1388 16.2099 83.0788 17.0499 84.4288 17.0499C85.2788 17.0499 85.9787 16.7199 86.4787 16.1699L86.3088 16.9999H86.9888L88.0387 11.7399H87.3287ZM84.5787 16.4199C83.4787 16.4199 82.8488 15.8199 82.8488 14.7899C82.8488 13.3599 83.8188 12.3199 85.1287 12.3199C86.2287 12.3199 86.8587 12.9299 86.8587 13.9599C86.8587 15.3899 85.8887 16.4199 84.5787 16.4199ZM84.2587 18.0399C83.9888 18.0399 83.7687 18.2599 83.7687 18.5199C83.7687 18.7399 83.9188 18.8999 84.1388 18.8999C84.4188 18.8999 84.6287 18.6899 84.6287 18.4099C84.6287 18.1899 84.4687 18.0399 84.2587 18.0399Z" fill="#CBD5E1"/>
<path d="M92.5661 11.6999C91.7161 11.6999 91.0161 12.0199 90.5161 12.5799L90.6861 11.7399H90.0061L88.5761 18.9399H89.2861L89.8861 15.8999C90.1861 16.6399 90.8861 17.0499 91.8861 17.0499C93.6061 17.0499 94.8661 15.7299 94.8661 13.9199C94.8661 12.5399 93.9161 11.6999 92.5661 11.6999ZM91.8761 16.4199C90.7761 16.4199 90.1461 15.8199 90.1461 14.7899C90.1461 13.3499 91.1061 12.3199 92.4161 12.3199C93.5161 12.3199 94.1461 12.9299 94.1461 13.9599C94.1461 15.3899 93.1861 16.4199 91.8761 16.4199Z" fill="#CBD5E1"/>
<path d="M105.471 10.4099H104.471L104.641 9.57995H103.931L103.761 10.4099H101.561L101.461 10.9299H103.661L103.281 12.8399C102.971 12.1099 102.281 11.6999 101.281 11.6999C99.5706 11.6999 98.3106 13.0199 98.3106 14.8199C98.3106 16.2099 99.2506 17.0499 100.601 17.0499C101.451 17.0499 102.151 16.7199 102.651 16.1699L102.481 16.9999H103.161L104.371 10.9299H105.371L105.471 10.4099ZM100.751 16.4199C99.6506 16.4199 99.0206 15.8199 99.0206 14.7899C99.0206 13.3599 99.9906 12.3199 101.301 12.3199C102.401 12.3199 103.031 12.9299 103.031 13.9599C103.031 15.3899 102.061 16.4199 100.751 16.4199Z" fill="#CBD5E1"/>
<path d="M109.648 9.18995C109.858 9.18995 109.988 9.29995 109.988 9.47995C109.988 9.68995 109.838 9.87995 109.508 10.0199L109.698 10.2699C110.128 10.0899 110.388 9.78995 110.388 9.40995C110.388 9.05995 110.128 8.82995 109.728 8.82995C109.488 8.82995 109.278 8.88995 109.078 8.99995L109.188 9.30995C109.338 9.22995 109.498 9.18995 109.648 9.18995ZM108.428 10.3499L109.308 10.9399H109.978L108.808 9.99995H108.108L106.678 10.9399H107.378L108.428 10.3499ZM107.998 11.6999C106.318 11.6999 105.088 13.0199 105.088 14.8099C105.088 16.1899 106.018 17.0499 107.538 17.0499C108.358 17.0499 109.148 16.7599 109.638 16.2699L109.318 15.7599C108.928 16.1699 108.298 16.4199 107.598 16.4199C106.388 16.4199 105.788 15.8299 105.788 14.7799C105.788 14.7099 105.788 14.6399 105.798 14.5699H110.218C110.258 14.3699 110.288 14.1499 110.288 13.9299C110.288 12.5299 109.388 11.6999 107.998 11.6999ZM107.978 12.2999C108.958 12.2999 109.628 12.8499 109.628 13.8499C109.628 13.9099 109.628 13.9699 109.618 14.0399H105.868C106.128 12.9899 106.918 12.2999 107.978 12.2999Z" fill="#CBD5E1"/>
<path d="M116.17 17.0499C117.07 17.0499 117.9 16.6799 118.37 16.0499L117.86 15.6599C117.48 16.1599 116.87 16.4199 116.2 16.4199C115.08 16.4199 114.45 15.8199 114.45 14.7899C114.45 13.3599 115.42 12.3199 116.74 12.3199C117.46 12.3199 117.97 12.5799 118.27 13.0999L118.87 12.7499C118.48 12.0499 117.76 11.6999 116.8 11.6999C115.01 11.6999 113.74 13.0199 113.74 14.8199C113.74 16.1699 114.67 17.0499 116.17 17.0499Z" fill="#CBD5E1"/>
<path d="M122.957 11.6999C122.147 11.6999 121.447 11.9599 120.947 12.5299L121.537 9.57995H120.827L119.347 16.9999H120.057L120.617 14.1799C120.867 12.9499 121.637 12.3399 122.757 12.3399C123.667 12.3399 124.117 12.7699 124.117 13.5199C124.117 13.6699 124.097 13.8299 124.067 13.9999L123.467 16.9999H124.177L124.777 14.0099C124.817 13.7999 124.837 13.5999 124.837 13.4099C124.837 12.3399 124.147 11.6999 122.957 11.6999Z" fill="#CBD5E1"/>
<path d="M131.195 11.7399L130.635 14.5699C130.385 15.7899 129.615 16.4099 128.505 16.4099C127.605 16.4099 127.165 15.9699 127.165 15.2099C127.165 15.0599 127.185 14.9099 127.215 14.7399L127.815 11.7399H127.105L126.505 14.7399C126.465 14.9499 126.445 15.1399 126.445 15.3299C126.445 16.4099 127.135 17.0499 128.315 17.0499C129.125 17.0499 129.835 16.7699 130.345 16.1599L130.175 16.9999H130.855L131.905 11.7399H131.195Z" fill="#CBD5E1"/>
<path d="M137.673 9.17995C137.883 9.17995 138.013 9.28995 138.013 9.46995C138.013 9.67995 137.863 9.86995 137.533 10.0099L137.723 10.2599C138.153 10.0799 138.413 9.77995 138.413 9.39995C138.413 9.04995 138.153 8.81995 137.753 8.81995C137.513 8.81995 137.303 8.87995 137.103 8.98995L137.213 9.29995C137.363 9.21995 137.523 9.17995 137.673 9.17995ZM136.453 10.3399L137.333 10.9299H138.003L136.833 9.98995H136.133L134.703 10.9299H135.403L136.453 10.3399ZM137.983 11.7399L137.763 12.8399C137.463 12.1099 136.763 11.6999 135.763 11.6999C134.053 11.6999 132.793 13.0199 132.793 14.8199C132.793 16.2099 133.733 17.0499 135.083 17.0499C135.933 17.0499 136.633 16.7199 137.133 16.1699L136.963 16.9999H137.643L138.693 11.7399H137.983ZM135.233 16.4199C134.133 16.4199 133.503 15.8199 133.503 14.7899C133.503 13.3599 134.473 12.3199 135.783 12.3199C136.883 12.3199 137.513 12.9299 137.513 13.9599C137.513 15.3899 136.543 16.4199 135.233 16.4199Z" fill="#CBD5E1"/>
<path d="M143.23 11.6999C142.4 11.6999 141.68 11.9799 141.17 12.5799L141.34 11.7399H140.66L139.62 16.9999H140.33L140.89 14.1799C141.14 12.9499 141.91 12.3399 143.03 12.3399C143.94 12.3399 144.39 12.7699 144.39 13.5199C144.39 13.6699 144.37 13.8299 144.34 13.9999L143.74 16.9999H144.45L145.05 14.0099C145.09 13.7999 145.11 13.5999 145.11 13.4099C145.11 12.3399 144.42 11.6999 143.23 11.6999Z" fill="#CBD5E1"/>
<path d="M152.605 11.6999C151.775 11.6999 151.095 12.0099 150.605 12.5299L151.195 9.57995H150.485L149.005 16.9999H149.685L149.915 15.8499C150.205 16.6199 150.905 17.0499 151.925 17.0499C153.645 17.0499 154.905 15.7299 154.905 13.9199C154.905 12.5399 153.955 11.6999 152.605 11.6999ZM151.915 16.4199C150.815 16.4199 150.185 15.8199 150.185 14.7899C150.185 13.3499 151.145 12.3199 152.455 12.3199C153.555 12.3199 154.185 12.9299 154.185 13.9599C154.185 15.3899 153.225 16.4199 151.915 16.4199Z" fill="#CBD5E1"/>
<path d="M157.483 10.5899C157.803 10.5899 158.042 10.3499 158.042 10.0299C158.042 9.78995 157.832 9.57995 157.552 9.57995C157.232 9.57995 157.003 9.81995 157.003 10.1199C157.003 10.3699 157.203 10.5899 157.483 10.5899ZM155.783 16.9999H156.492L157.533 11.7399H156.822L155.783 16.9999ZM155.783 18.8999C156.063 18.8999 156.272 18.6899 156.272 18.4099C156.272 18.1899 156.113 18.0399 155.903 18.0399C155.632 18.0399 155.412 18.2599 155.412 18.5199C155.412 18.7399 155.563 18.8999 155.783 18.8999Z" fill="#CBD5E1"/>
<path d="M163.465 17.0499C164.365 17.0499 165.195 16.6799 165.665 16.0499L165.155 15.6599C164.775 16.1599 164.165 16.4199 163.495 16.4199C162.375 16.4199 161.745 15.8199 161.745 14.7899C161.745 13.3599 162.715 12.3199 164.035 12.3199C164.755 12.3199 165.265 12.5799 165.565 13.0999L166.165 12.7499C165.775 12.0499 165.055 11.6999 164.095 11.6999C162.305 11.6999 161.035 13.0199 161.035 14.8199C161.035 16.1699 161.965 17.0499 163.465 17.0499Z" fill="#CBD5E1"/>
<path d="M170.252 11.6999C169.442 11.6999 168.742 11.9599 168.242 12.5299L168.832 9.57995H168.122L166.642 16.9999H167.352L167.912 14.1799C168.162 12.9499 168.932 12.3399 170.052 12.3399C170.962 12.3399 171.412 12.7699 171.412 13.5199C171.412 13.6699 171.392 13.8299 171.362 13.9999L170.762 16.9999H171.472L172.072 14.0099C172.112 13.7999 172.132 13.5999 172.132 13.4099C172.132 12.3399 171.442 11.6999 170.252 11.6999Z" fill="#CBD5E1"/>
<path d="M175.769 17.0499C177.539 17.0499 178.809 15.7199 178.809 13.9199C178.809 12.5599 177.879 11.6999 176.419 11.6999C174.649 11.6999 173.379 13.0299 173.379 14.8199C173.379 16.1699 174.309 17.0499 175.769 17.0499ZM175.819 16.4199C174.719 16.4199 174.089 15.8199 174.089 14.7899C174.089 13.3599 175.059 12.3199 176.369 12.3199C177.469 12.3199 178.099 12.9299 178.099 13.9599C178.099 15.3899 177.129 16.4199 175.819 16.4199Z" fill="#CBD5E1"/>
<path d="M182.066 18.9399H183.896L184.016 18.3399H182.906L184.526 10.1799H185.646L185.766 9.57995H183.936L182.066 18.9399Z" fill="#CBD5E1"/>
<path d="M189.019 13.2499L192.799 9.99995H191.829L186.949 14.1799L187.789 9.99995H187.059L185.659 16.9999H186.389L186.759 15.1699L188.479 13.6999L190.739 16.9999H191.569L189.019 13.2499Z" fill="#CBD5E1"/>
<path d="M194.221 10.5899C194.541 10.5899 194.781 10.3499 194.781 10.0299C194.781 9.78995 194.571 9.57995 194.291 9.57995C193.971 9.57995 193.741 9.81995 193.741 10.1199C193.741 10.3699 193.941 10.5899 194.221 10.5899ZM192.521 16.9999H193.231L194.271 11.7399H193.561L192.521 16.9999Z" fill="#CBD5E1"/>
<path d="M199.716 9.18995C199.926 9.18995 200.056 9.29995 200.056 9.47995C200.056 9.68995 199.906 9.87995 199.576 10.0199L199.766 10.2699C200.196 10.0899 200.456 9.78995 200.456 9.40995C200.456 9.05995 200.196 8.82995 199.796 8.82995C199.556 8.82995 199.346 8.88995 199.146 8.99995L199.256 9.30995C199.406 9.22995 199.566 9.18995 199.716 9.18995ZM198.496 10.3499L199.376 10.9399H200.046L198.876 9.99995H198.176L196.746 10.9399H197.446L198.496 10.3499ZM198.066 11.6999C196.386 11.6999 195.156 13.0199 195.156 14.8099C195.156 16.1899 196.086 17.0499 197.606 17.0499C198.426 17.0499 199.216 16.7599 199.706 16.2699L199.386 15.7599C198.996 16.1699 198.366 16.4199 197.666 16.4199C196.456 16.4199 195.856 15.8299 195.856 14.7799C195.856 14.7099 195.856 14.6399 195.866 14.5699H200.286C200.326 14.3699 200.356 14.1499 200.356 13.9299C200.356 12.5299 199.456 11.6999 198.066 11.6999ZM198.046 12.2999C199.026 12.2999 199.696 12.8499 199.696 13.8499C199.696 13.9099 199.696 13.9699 199.686 14.0399H195.936C196.196 12.9899 196.986 12.2999 198.046 12.2999Z" fill="#CBD5E1"/>
<path d="M208.721 11.6999C207.801 11.6999 207.031 12.0499 206.501 12.7499C206.271 12.0799 205.671 11.6999 204.781 11.6999C203.981 11.6999 203.291 11.9699 202.791 12.5799L202.961 11.7399H202.281L201.241 16.9999H201.951L202.511 14.1799C202.761 12.9599 203.501 12.3399 204.571 12.3399C205.451 12.3399 205.871 12.7699 205.871 13.5199C205.871 13.6699 205.851 13.8299 205.821 13.9999L205.221 16.9999H205.931L206.511 14.0999C206.751 12.9199 207.501 12.3399 208.551 12.3399C209.421 12.3399 209.851 12.7699 209.851 13.5099C209.851 13.6599 209.841 13.8199 209.801 13.9999L209.201 16.9999H209.911L210.511 14.0099C210.551 13.7899 210.581 13.5799 210.581 13.3899C210.581 12.3299 209.911 11.6999 208.721 11.6999Z" fill="#CBD5E1"/>
<path d="M216.214 12.3399H217.814L217.934 11.7399H216.334L216.564 10.5899H215.854L215.624 11.7399H214.684L214.574 12.3399H215.504L214.894 15.4399C214.864 15.5799 214.854 15.7199 214.854 15.8499C214.854 16.5999 215.344 17.0499 216.134 17.0499C216.534 17.0499 216.974 16.9599 217.304 16.7099L217.134 16.1699C216.894 16.3499 216.614 16.4399 216.324 16.4399C215.814 16.4399 215.564 16.1899 215.564 15.7399C215.564 15.6399 215.584 15.5299 215.604 15.4099L216.214 12.3399Z" fill="#CBD5E1"/>
<path d="M220.067 12.6999L220.247 11.7399H219.567L218.527 16.9999H219.237L219.767 14.3299C220.027 13.0199 220.777 12.3799 221.897 12.3799C221.977 12.3799 222.027 12.3899 222.097 12.3899L222.227 11.6999C221.227 11.6999 220.537 12.0099 220.067 12.6999Z" fill="#CBD5E1"/>
<path d="M227.553 11.7399L227.333 12.8399C227.033 12.1099 226.333 11.6999 225.333 11.6999C223.623 11.6999 222.363 13.0199 222.363 14.8199C222.363 16.2099 223.303 17.0499 224.653 17.0499C225.503 17.0499 226.203 16.7199 226.703 16.1699L226.533 16.9999H227.213L228.263 11.7399H227.553ZM224.803 16.4199C223.703 16.4199 223.073 15.8199 223.073 14.7899C223.073 13.3599 224.043 12.3199 225.353 12.3199C226.453 12.3199 227.083 12.9299 227.083 13.9599C227.083 15.3899 226.113 16.4199 224.803 16.4199Z" fill="#CBD5E1"/>
<path d="M232.298 9.99995L232.168 10.6399H233.818L232.548 16.9999H233.278L234.678 9.99995H232.298Z" fill="#CBD5E1"/>
<path d="M239.788 12.3399H241.388L241.508 11.7399H239.908L240.138 10.5899H239.428L239.198 11.7399H238.258L238.148 12.3399H239.078L238.468 15.4399C238.438 15.5799 238.428 15.7199 238.428 15.8499C238.428 16.5999 238.918 17.0499 239.708 17.0499C240.108 17.0499 240.548 16.9599 240.878 16.7099L240.708 16.1699C240.468 16.3499 240.188 16.4399 239.898 16.4399C239.388 16.4399 239.138 16.1899 239.138 15.7399C239.138 15.6399 239.158 15.5299 239.178 15.4099L239.788 12.3399Z" fill="#CBD5E1"/>
<path d="M243.801 10.5899C244.121 10.5899 244.361 10.3499 244.361 10.0299C244.361 9.78995 244.151 9.57995 243.871 9.57995C243.551 9.57995 243.321 9.81995 243.321 10.1199C243.321 10.3699 243.521 10.5899 243.801 10.5899ZM242.101 16.9999H242.811L243.851 11.7399H243.141L242.101 16.9999Z" fill="#CBD5E1"/>
<path d="M251.086 9.00995H250.196L248.856 10.0999H249.516L251.086 9.00995ZM248.076 10.3499L248.956 10.9399H249.626L248.456 9.99995H247.756L246.326 10.9399H247.026L248.076 10.3499ZM247.646 11.6999C245.966 11.6999 244.736 13.0199 244.736 14.8099C244.736 16.1899 245.666 17.0499 247.186 17.0499C248.006 17.0499 248.796 16.7599 249.286 16.2699L248.966 15.7599C248.576 16.1699 247.946 16.4199 247.246 16.4199C246.036 16.4199 245.436 15.8299 245.436 14.7799C245.436 14.7099 245.436 14.6399 245.446 14.5699H249.866C249.906 14.3699 249.936 14.1499 249.936 13.9299C249.936 12.5299 249.036 11.6999 247.646 11.6999ZM247.626 12.2999C248.606 12.2999 249.276 12.8499 249.276 13.8499C249.276 13.9099 249.276 13.9699 249.266 14.0399H245.516C245.776 12.9899 246.566 12.2999 247.626 12.2999Z" fill="#CBD5E1"/>
<path d="M252.572 12.3399H254.172L254.292 11.7399H252.692L252.922 10.5899H252.212L251.982 11.7399H251.042L250.932 12.3399H251.862L251.252 15.4399C251.222 15.5799 251.212 15.7199 251.212 15.8499C251.212 16.5999 251.702 17.0499 252.492 17.0499C252.892 17.0499 253.332 16.9599 253.662 16.7099L253.492 16.1699C253.252 16.3499 252.972 16.4399 252.682 16.4399C252.172 16.4399 251.922 16.1899 251.922 15.7399C251.922 15.6399 251.942 15.5299 251.962 15.4099L252.572 12.3399Z" fill="#CBD5E1"/>
<path d="M259.011 16.9999H259.741L261.011 10.6399H263.471L263.611 9.99995H257.941L257.811 10.6399H260.281L259.011 16.9999Z" fill="#CBD5E1"/>
<path d="M264.807 10.5899C265.127 10.5899 265.367 10.3499 265.367 10.0299C265.367 9.78995 265.157 9.57995 264.877 9.57995C264.557 9.57995 264.327 9.81995 264.327 10.1199C264.327 10.3699 264.527 10.5899 264.807 10.5899ZM263.107 16.9999H263.817L264.857 11.7399H264.147L263.107 16.9999Z" fill="#CBD5E1"/>
<path d="M272.092 9.00995H271.202L269.862 10.0999H270.522L272.092 9.00995ZM269.082 10.3499L269.962 10.9399H270.632L269.462 9.99995H268.762L267.332 10.9399H268.032L269.082 10.3499ZM268.652 11.6999C266.972 11.6999 265.742 13.0199 265.742 14.8099C265.742 16.1899 266.672 17.0499 268.192 17.0499C269.012 17.0499 269.802 16.7599 270.292 16.2699L269.972 15.7599C269.582 16.1699 268.952 16.4199 268.252 16.4199C267.042 16.4199 266.442 15.8299 266.442 14.7799C266.442 14.7099 266.442 14.6399 266.452 14.5699H270.872C270.912 14.3699 270.942 14.1499 270.942 13.9299C270.942 12.5299 270.042 11.6999 268.652 11.6999ZM268.632 12.2999C269.612 12.2999 270.282 12.8499 270.282 13.8499C270.282 13.9099 270.282 13.9699 270.272 14.0399H266.522C266.782 12.9899 267.572 12.2999 268.632 12.2999Z" fill="#CBD5E1"/>
<path d="M275.437 11.6999C274.607 11.6999 273.887 11.9799 273.377 12.5799L273.547 11.7399H272.867L271.827 16.9999H272.537L273.097 14.1799C273.347 12.9499 274.117 12.3399 275.237 12.3399C276.147 12.3399 276.597 12.7699 276.597 13.5199C276.597 13.6699 276.577 13.8299 276.547 13.9999L275.947 16.9999H276.657L277.257 14.0099C277.297 13.7999 277.317 13.5999 277.317 13.4099C277.317 12.3399 276.627 11.6999 275.437 11.6999Z" fill="#CBD5E1"/>
<path d="M283.855 11.7399L283.635 12.8999C283.335 12.0999 282.555 11.6999 281.585 11.6999C279.835 11.6999 278.585 12.9899 278.585 14.6799C278.585 15.9899 279.515 16.7999 280.905 16.7999C281.795 16.7999 282.505 16.4599 283.005 15.8999L282.885 16.4799C282.635 17.7499 281.935 18.3599 280.605 18.3599C279.765 18.3599 279.055 18.0899 278.635 17.6599L278.215 18.1999C278.755 18.7099 279.565 18.9899 280.555 18.9899C282.265 18.9899 283.245 18.2199 283.615 16.3599L284.535 11.7399H283.855ZM281.045 16.1699C279.945 16.1699 279.305 15.5999 279.305 14.6399C279.305 13.2999 280.265 12.3199 281.595 12.3199C282.685 12.3199 283.335 12.8899 283.335 13.8499C283.335 15.1899 282.365 16.1699 281.045 16.1699Z" fill="#CBD5E1"/>
<path d="M293.507 16.9999H294.247L292.447 9.99995H291.717L287.117 16.9999H287.917L289.127 15.1299H293.037L293.507 16.9999ZM289.507 14.5299L291.947 10.7499L292.897 14.5299H289.507Z" fill="#CBD5E1"/>
<path d="M298.865 11.6999C298.035 11.6999 297.315 11.9799 296.805 12.5799L296.975 11.7399H296.295L295.255 16.9999H295.965L296.525 14.1799C296.775 12.9499 297.545 12.3399 298.665 12.3399C299.575 12.3399 300.025 12.7699 300.025 13.5199C300.025 13.6699 300.005 13.8299 299.975 13.9999L299.375 16.9999H300.085L300.685 14.0099C300.725 13.7999 300.745 13.5999 300.745 13.4099C300.745 12.3399 300.055 11.6999 298.865 11.6999Z" fill="#CBD5E1"/>
<path d="M305.633 11.6999C304.823 11.6999 304.123 11.9599 303.623 12.5299L304.213 9.57995H303.503L302.023 16.9999H302.733L303.293 14.1799C303.543 12.9499 304.313 12.3399 305.433 12.3399C306.343 12.3399 306.793 12.7699 306.793 13.5199C306.793 13.6699 306.773 13.8299 306.743 13.9999L306.143 16.9999H306.853L307.453 14.0099C307.493 13.7999 307.513 13.5999 307.513 13.4099C307.513 12.3399 306.823 11.6999 305.633 11.6999Z" fill="#CBD5E1"/>
<path d="M309.46 18.9399L311.33 9.57995H309.49L309.37 10.1799H310.49L308.87 18.3399H307.75L307.63 18.9399H309.46Z" fill="#CBD5E1"/>
<path d="M334 37L335.4 30H336.46L338.5 35.13L337.95 35.12L341.94 30H343.06L341.66 37H340.43L341.44 31.9L341.73 31.91L338.35 36.2H337.77L336 31.9L336.25 31.93L335.24 37H334Z" fill="#1E293B"/>
<path d="M345.721 37.07C345.274 37.07 344.891 36.9767 344.571 36.79C344.257 36.5967 344.034 36.32 343.901 35.96C343.767 35.5934 343.754 35.1467 343.861 34.62L344.451 31.66H345.701L345.111 34.59C345.031 35.0234 345.071 35.3634 345.231 35.61C345.397 35.85 345.697 35.97 346.131 35.97C346.577 35.97 346.951 35.8434 347.251 35.59C347.557 35.3367 347.761 34.95 347.861 34.43L348.421 31.66H349.661L348.601 37H347.411L347.711 35.48L347.911 35.96C347.657 36.34 347.337 36.62 346.951 36.8C346.571 36.98 346.161 37.07 345.721 37.07ZM345.641 39.03C345.481 39.03 345.347 38.98 345.241 38.88C345.141 38.78 345.091 38.65 345.091 38.49C345.091 38.3034 345.157 38.1467 345.291 38.02C345.424 37.8934 345.581 37.83 345.761 37.83C345.914 37.83 346.044 37.8767 346.151 37.97C346.257 38.07 346.311 38.2 346.311 38.36C346.311 38.56 346.247 38.72 346.121 38.84C345.994 38.9667 345.834 39.03 345.641 39.03Z" fill="#1E293B"/>
<path d="M352.907 37.07C352.381 37.07 351.917 36.9734 351.517 36.78C351.124 36.58 350.821 36.3067 350.607 35.96C350.394 35.6067 350.287 35.1934 350.287 34.72C350.287 34.12 350.424 33.5867 350.697 33.12C350.971 32.6467 351.347 32.2767 351.827 32.01C352.307 31.7367 352.861 31.6 353.487 31.6C354.027 31.6 354.491 31.7067 354.877 31.92C355.271 32.1267 355.574 32.4367 355.787 32.85L354.717 33.4C354.597 33.1467 354.424 32.96 354.197 32.84C353.977 32.72 353.707 32.66 353.387 32.66C353.041 32.66 352.727 32.7467 352.447 32.92C352.167 33.0867 351.947 33.32 351.787 33.62C351.627 33.92 351.547 34.2667 351.547 34.66C351.547 35.0734 351.671 35.4 351.917 35.64C352.164 35.88 352.514 36 352.967 36C353.261 36 353.534 35.94 353.787 35.82C354.041 35.7 354.254 35.5134 354.427 35.26L355.347 35.88C355.101 36.2534 354.761 36.5467 354.327 36.76C353.894 36.9667 353.421 37.07 352.907 37.07Z" fill="#1E293B"/>
<path d="M360.812 37.07C360.465 37.07 360.165 36.9967 359.912 36.85C359.665 36.6967 359.485 36.4834 359.372 36.21C359.265 35.93 359.248 35.6 359.322 35.22L360.272 30.48H361.522L360.572 35.21C360.532 35.4567 360.558 35.6567 360.652 35.81C360.745 35.9634 360.922 36.04 361.182 36.04C361.302 36.04 361.422 36.0234 361.542 35.99C361.668 35.95 361.782 35.8967 361.882 35.83L362.102 36.75C361.915 36.87 361.708 36.9534 361.482 37C361.255 37.0467 361.032 37.07 360.812 37.07ZM358.962 32.7L359.162 31.7H362.712L362.512 32.7H358.962Z" fill="#1E293B"/>
<path d="M363.05 37L364.11 31.66H365.36L364.3 37H363.05ZM365.02 30.78C364.793 30.78 364.61 30.7134 364.47 30.58C364.337 30.44 364.27 30.2734 364.27 30.08C364.27 29.8534 364.347 29.6634 364.5 29.51C364.66 29.3567 364.867 29.28 365.12 29.28C365.34 29.28 365.52 29.3467 365.66 29.48C365.8 29.6067 365.87 29.7634 365.87 29.95C365.87 30.1967 365.793 30.3967 365.64 30.55C365.487 30.7034 365.28 30.78 365.02 30.78Z" fill="#1E293B"/>
<path d="M368.621 37.07C368.087 37.07 367.624 36.9734 367.231 36.78C366.837 36.58 366.531 36.3067 366.311 35.96C366.097 35.6067 365.991 35.1934 365.991 34.72C365.991 34.1134 366.124 33.5767 366.391 33.11C366.657 32.6434 367.021 32.2767 367.481 32.01C367.947 31.7367 368.477 31.6 369.071 31.6C369.571 31.6 370.004 31.6934 370.371 31.88C370.737 32.0667 371.021 32.3367 371.221 32.69C371.427 33.0367 371.531 33.4534 371.531 33.94C371.531 34.0667 371.524 34.1967 371.511 34.33C371.497 34.4634 371.477 34.5867 371.451 34.7H366.921L367.061 33.87H370.861L370.351 34.15C370.404 33.81 370.381 33.5267 370.281 33.3C370.181 33.0734 370.021 32.9 369.801 32.78C369.581 32.66 369.317 32.6 369.011 32.6C368.644 32.6 368.324 32.6867 368.051 32.86C367.784 33.0267 367.577 33.2667 367.431 33.58C367.284 33.8867 367.211 34.2467 367.211 34.66C367.211 35.0934 367.334 35.4267 367.581 35.66C367.834 35.8934 368.224 36.01 368.751 36.01C369.051 36.01 369.337 35.9634 369.611 35.87C369.884 35.77 370.111 35.6334 370.291 35.46L370.811 36.33C370.531 36.5767 370.197 36.7634 369.811 36.89C369.431 37.01 369.034 37.07 368.621 37.07ZM367.491 30.94L369.001 29.57H370.141L371.301 30.94H370.301L369.071 29.79H370.041L368.541 30.94H367.491Z" fill="#1E293B"/>
<path d="M374.422 37.07C373.975 37.07 373.592 36.9767 373.272 36.79C372.959 36.5967 372.735 36.32 372.602 35.96C372.469 35.5934 372.455 35.1467 372.562 34.62L373.152 31.66H374.402L373.812 34.59C373.732 35.0234 373.772 35.3634 373.932 35.61C374.099 35.85 374.399 35.97 374.832 35.97C375.279 35.97 375.652 35.8434 375.952 35.59C376.259 35.3367 376.462 34.95 376.562 34.43L377.122 31.66H378.362L377.302 37H376.112L376.412 35.48L376.612 35.96C376.359 36.34 376.039 36.62 375.652 36.8C375.272 36.98 374.862 37.07 374.422 37.07Z" fill="#1E293B"/>
<path d="M337.683 49.07C337.156 49.07 336.693 48.9734 336.293 48.78C335.899 48.58 335.596 48.3067 335.383 47.96C335.169 47.6067 335.063 47.1934 335.063 46.72C335.063 46.12 335.199 45.5867 335.473 45.12C335.746 44.6467 336.123 44.2767 336.603 44.01C337.083 43.7367 337.636 43.6 338.263 43.6C338.803 43.6 339.266 43.7067 339.653 43.92C340.046 44.1267 340.349 44.4367 340.563 44.85L339.493 45.4C339.373 45.1467 339.199 44.96 338.973 44.84C338.753 44.72 338.483 44.66 338.163 44.66C337.816 44.66 337.503 44.7467 337.223 44.92C336.943 45.0867 336.723 45.32 336.563 45.62C336.403 45.92 336.323 46.2667 336.323 46.66C336.323 47.0734 336.446 47.4 336.693 47.64C336.939 47.88 337.289 48 337.743 48C338.036 48 338.309 47.94 338.563 47.82C338.816 47.7 339.029 47.5134 339.203 47.26L340.123 47.88C339.876 48.2534 339.536 48.5467 339.103 48.76C338.669 48.9667 338.196 49.07 337.683 49.07Z" fill="#1E293B"/>
<path d="M343.113 49.07C342.667 49.07 342.283 48.9767 341.963 48.79C341.65 48.5967 341.427 48.32 341.293 47.96C341.16 47.5934 341.147 47.1467 341.253 46.62L341.843 43.66H343.093L342.503 46.59C342.423 47.0234 342.463 47.3634 342.623 47.61C342.79 47.85 343.09 47.97 343.523 47.97C343.97 47.97 344.343 47.8434 344.643 47.59C344.95 47.3367 345.153 46.95 345.253 46.43L345.813 43.66H347.053L345.993 49H344.803L345.103 47.48L345.303 47.96C345.05 48.34 344.73 48.62 344.343 48.8C343.963 48.98 343.553 49.07 343.113 49.07ZM344.883 43.05L344.543 42.57C344.77 42.4767 344.93 42.3734 345.023 42.26C345.123 42.14 345.173 42.01 345.173 41.87C345.173 41.75 345.133 41.6567 345.053 41.59C344.973 41.5167 344.863 41.48 344.723 41.48C344.517 41.48 344.313 41.5467 344.113 41.68L343.883 41.12C344.03 41.02 344.193 40.9467 344.373 40.9C344.56 40.8467 344.743 40.82 344.923 40.82C345.23 40.82 345.473 40.9 345.653 41.06C345.84 41.2134 345.933 41.4267 345.933 41.7C345.933 41.9934 345.843 42.2534 345.663 42.48C345.49 42.7 345.23 42.89 344.883 43.05Z" fill="#1E293B"/>
<path d="M350.03 49.07C349.597 49.07 349.2 48.9767 348.84 48.79C348.487 48.6034 348.203 48.3367 347.99 47.99C347.783 47.6367 347.68 47.2134 347.68 46.72C347.68 46.2667 347.753 45.85 347.9 45.47C348.053 45.09 348.267 44.76 348.54 44.48C348.813 44.2 349.13 43.9834 349.49 43.83C349.857 43.6767 350.257 43.6 350.69 43.6C351.137 43.6 351.52 43.68 351.84 43.84C352.167 44 352.413 44.2434 352.58 44.57C352.747 44.89 352.823 45.29 352.81 45.77C352.797 46.43 352.677 47.01 352.45 47.51C352.223 48.0034 351.907 48.3867 351.5 48.66C351.093 48.9334 350.603 49.07 350.03 49.07ZM350.35 48C350.71 48 351.027 47.9167 351.3 47.75C351.573 47.5767 351.79 47.34 351.95 47.04C352.11 46.74 352.19 46.3934 352.19 46C352.19 45.5867 352.067 45.26 351.82 45.02C351.573 44.78 351.227 44.66 350.78 44.66C350.427 44.66 350.11 44.7467 349.83 44.92C349.557 45.0867 349.34 45.32 349.18 45.62C349.02 45.92 348.94 46.2667 348.94 46.66C348.94 47.0734 349.063 47.4 349.31 47.64C349.557 47.88 349.903 48 350.35 48ZM351.66 49L351.9 47.78L352.24 46.36L352.41 44.93L352.66 43.66H353.91L352.85 49H351.66Z" fill="#1E293B"/>
<path d="M357.249 49L358.729 41.58H359.979L359.319 44.9L358.929 46.29L358.729 47.55L358.439 49H357.249ZM360.479 49.07C360.039 49.07 359.659 48.9934 359.339 48.84C359.019 48.68 358.772 48.4467 358.599 48.14C358.426 47.8334 358.339 47.4534 358.339 47C358.339 46.5 358.399 46.0434 358.519 45.63C358.646 45.21 358.829 44.85 359.069 44.55C359.316 44.2434 359.609 44.01 359.949 43.85C360.296 43.6834 360.689 43.6 361.129 43.6C361.569 43.6 361.966 43.6934 362.319 43.88C362.672 44.06 362.952 44.3267 363.159 44.68C363.372 45.0267 363.479 45.4467 363.479 45.94C363.479 46.3934 363.402 46.81 363.249 47.19C363.102 47.57 362.892 47.9 362.619 48.18C362.346 48.46 362.026 48.68 361.659 48.84C361.299 48.9934 360.906 49.07 360.479 49.07ZM360.379 48C360.739 48 361.056 47.9167 361.329 47.75C361.602 47.5767 361.819 47.34 361.979 47.04C362.139 46.74 362.219 46.3934 362.219 46C362.219 45.5867 362.096 45.26 361.849 45.02C361.602 44.78 361.256 44.66 360.809 44.66C360.456 44.66 360.139 44.7467 359.859 44.92C359.586 45.0867 359.369 45.32 359.209 45.62C359.049 45.92 358.969 46.2667 358.969 46.66C358.969 47.0734 359.092 47.4 359.339 47.64C359.586 47.88 359.932 48 360.379 48Z" fill="#1E293B"/>
<path d="M366.505 49.07C366.071 49.07 365.675 48.9767 365.315 48.79C364.961 48.6034 364.678 48.3367 364.465 47.99C364.258 47.6367 364.155 47.2134 364.155 46.72C364.155 46.2667 364.228 45.85 364.375 45.47C364.528 45.09 364.741 44.76 365.015 44.48C365.288 44.2 365.605 43.9834 365.965 43.83C366.331 43.6767 366.731 43.6 367.165 43.6C367.611 43.6 367.995 43.68 368.315 43.84C368.641 44 368.888 44.2434 369.055 44.57C369.221 44.89 369.298 45.29 369.285 45.77C369.271 46.43 369.151 47.01 368.925 47.51C368.698 48.0034 368.381 48.3867 367.975 48.66C367.568 48.9334 367.078 49.07 366.505 49.07ZM366.825 48C367.185 48 367.501 47.9167 367.775 47.75C368.048 47.5767 368.265 47.34 368.425 47.04C368.585 46.74 368.665 46.3934 368.665 46C368.665 45.5867 368.541 45.26 368.295 45.02C368.048 44.78 367.701 44.66 367.255 44.66C366.901 44.66 366.585 44.7467 366.305 44.92C366.031 45.0867 365.815 45.32 365.655 45.62C365.495 45.92 365.415 46.2667 365.415 46.66C365.415 47.0734 365.538 47.4 365.785 47.64C366.031 47.88 366.378 48 366.825 48ZM368.135 49L368.375 47.78L368.715 46.36L368.885 44.93L369.135 43.66H370.385L369.325 49H368.135ZM366.355 51.03C366.195 51.03 366.061 50.98 365.955 50.88C365.855 50.78 365.805 50.65 365.805 50.49C365.805 50.3034 365.871 50.1467 366.005 50.02C366.138 49.8934 366.295 49.83 366.475 49.83C366.628 49.83 366.758 49.8767 366.865 49.97C366.971 50.07 367.025 50.2 367.025 50.36C367.025 50.56 366.961 50.72 366.835 50.84C366.708 50.9667 366.548 51.03 366.355 51.03Z" fill="#1E293B"/>
<path d="M374.93 43.6C375.39 43.6 375.78 43.6934 376.1 43.88C376.42 44.0667 376.643 44.3434 376.77 44.71C376.903 45.07 376.917 45.5134 376.81 46.04L376.22 49H374.97L375.55 46.07C375.637 45.6367 375.597 45.3 375.43 45.06C375.263 44.8134 374.96 44.69 374.52 44.69C374.06 44.69 373.68 44.8167 373.38 45.07C373.08 45.3234 372.877 45.71 372.77 46.23L372.21 49H370.96L372.02 43.66H373.21L372.91 45.18L372.71 44.7C372.963 44.32 373.28 44.0434 373.66 43.87C374.047 43.69 374.47 43.6 374.93 43.6Z" fill="#1E293B"/>
<path d="M13.1141 291L14.5141 284H17.7441C18.4774 284 19.0408 284.133 19.4341 284.4C19.8274 284.667 20.0241 285.057 20.0241 285.57C20.0241 286.01 19.9108 286.38 19.6841 286.68C19.4641 286.98 19.1774 287.207 18.8241 287.36C18.4774 287.513 18.1041 287.59 17.7041 287.59L17.9541 287.25C18.4808 287.25 18.9074 287.383 19.2341 287.65C19.5608 287.91 19.7241 288.293 19.7241 288.8C19.7241 289.287 19.5908 289.693 19.3241 290.02C19.0641 290.347 18.7008 290.593 18.2341 290.76C17.7741 290.92 17.2374 291 16.6241 291H13.1141ZM14.6141 289.98H16.7141C17.2541 289.98 17.6741 289.88 17.9741 289.68C18.2741 289.48 18.4241 289.187 18.4241 288.8C18.4241 288.487 18.3141 288.27 18.0941 288.15C17.8741 288.023 17.5641 287.96 17.1641 287.96H14.8341L15.0341 286.95H17.0641C17.3841 286.95 17.6641 286.91 17.9041 286.83C18.1508 286.743 18.3374 286.613 18.4641 286.44C18.5974 286.26 18.6641 286.043 18.6641 285.79C18.6641 285.523 18.5574 285.33 18.3441 285.21C18.1374 285.083 17.8408 285.02 17.4541 285.02H15.6041L14.6141 289.98Z" fill="#1E293B"/>
<path d="M23.0015 291.07C22.5682 291.07 22.1715 290.977 21.8115 290.79C21.4582 290.603 21.1749 290.337 20.9615 289.99C20.7549 289.637 20.6515 289.213 20.6515 288.72C20.6515 288.267 20.7249 287.85 20.8715 287.47C21.0249 287.09 21.2382 286.76 21.5115 286.48C21.7849 286.2 22.1015 285.983 22.4615 285.83C22.8282 285.677 23.2282 285.6 23.6615 285.6C24.1082 285.6 24.4915 285.68 24.8115 285.84C25.1382 286 25.3849 286.243 25.5515 286.57C25.7182 286.89 25.7949 287.29 25.7815 287.77C25.7682 288.43 25.6482 289.01 25.4215 289.51C25.1949 290.003 24.8782 290.387 24.4715 290.66C24.0649 290.933 23.5749 291.07 23.0015 291.07ZM23.3215 290C23.6815 290 23.9982 289.917 24.2715 289.75C24.5449 289.577 24.7615 289.34 24.9215 289.04C25.0815 288.74 25.1615 288.393 25.1615 288C25.1615 287.587 25.0382 287.26 24.7915 287.02C24.5449 286.78 24.1982 286.66 23.7515 286.66C23.3982 286.66 23.0815 286.747 22.8015 286.92C22.5282 287.087 22.3115 287.32 22.1515 287.62C21.9915 287.92 21.9115 288.267 21.9115 288.66C21.9115 289.073 22.0349 289.4 22.2815 289.64C22.5282 289.88 22.8749 290 23.3215 290ZM24.6315 291L24.8715 289.78L25.2115 288.36L25.3815 286.93L25.6315 285.66H26.8815L25.8215 291H24.6315ZM22.8515 293.03C22.6915 293.03 22.5582 292.98 22.4515 292.88C22.3515 292.78 22.3015 292.65 22.3015 292.49C22.3015 292.303 22.3682 292.147 22.5015 292.02C22.6349 291.893 22.7915 291.83 22.9715 291.83C23.1249 291.83 23.2549 291.877 23.3615 291.97C23.4682 292.07 23.5215 292.2 23.5215 292.36C23.5215 292.56 23.4582 292.72 23.3315 292.84C23.2049 292.967 23.0449 293.03 22.8515 293.03Z" fill="#1E293B"/>
<path d="M31.427 285.6C31.887 285.6 32.277 285.693 32.597 285.88C32.917 286.067 33.1403 286.343 33.267 286.71C33.4003 287.07 33.4137 287.513 33.307 288.04L32.717 291H31.467L32.047 288.07C32.1337 287.637 32.0937 287.3 31.927 287.06C31.7603 286.813 31.457 286.69 31.017 286.69C30.557 286.69 30.177 286.817 29.877 287.07C29.577 287.323 29.3737 287.71 29.267 288.23L28.707 291H27.457L28.517 285.66H29.707L29.407 287.18L29.207 286.7C29.4603 286.32 29.777 286.043 30.157 285.87C30.5437 285.69 30.967 285.6 31.427 285.6Z" fill="#1E293B"/>
<path d="M39.4764 291.07C39.043 291.07 38.6464 290.977 38.2864 290.79C37.9264 290.603 37.643 290.337 37.4364 289.99C37.2297 289.637 37.1264 289.213 37.1264 288.72C37.1264 288.267 37.1997 287.85 37.3464 287.47C37.4997 287.09 37.713 286.76 37.9864 286.48C38.2597 286.2 38.5764 285.983 38.9364 285.83C39.303 285.677 39.6997 285.6 40.1264 285.6C40.5664 285.6 40.9464 285.677 41.2664 285.83C41.5864 285.983 41.833 286.213 42.0064 286.52C42.1797 286.827 42.2664 287.207 42.2664 287.66C42.2664 288.16 42.203 288.62 42.0764 289.04C41.9497 289.453 41.7664 289.813 41.5264 290.12C41.2864 290.42 40.993 290.653 40.6464 290.82C40.3064 290.987 39.9164 291.07 39.4764 291.07ZM39.7964 290C40.1497 290 40.463 289.917 40.7364 289.75C41.0164 289.577 41.233 289.34 41.3864 289.04C41.5464 288.74 41.6264 288.393 41.6264 288C41.6264 287.587 41.503 287.26 41.2564 287.02C41.0164 286.78 40.6697 286.66 40.2164 286.66C39.8697 286.66 39.5564 286.747 39.2764 286.92C38.9964 287.087 38.7764 287.32 38.6164 287.62C38.463 287.92 38.3864 288.267 38.3864 288.66C38.3864 289.073 38.5064 289.4 38.7464 289.64C38.993 289.88 39.343 290 39.7964 290ZM41.0964 291L41.3464 289.78L41.6764 288.36L41.8464 286.93L42.5164 283.58H43.7664L42.2864 291H41.0964ZM40.2564 285.05L40.4064 284.23H44.4464L44.2964 285.05H40.2564Z" fill="#1E293B"/>
<path d="M46.3316 291.07C45.8983 291.07 45.5016 290.977 45.1416 290.79C44.7883 290.603 44.5049 290.337 44.2916 289.99C44.0849 289.637 43.9816 289.213 43.9816 288.72C43.9816 288.267 44.0549 287.85 44.2016 287.47C44.3549 287.09 44.5683 286.76 44.8416 286.48C45.1149 286.2 45.4316 285.983 45.7916 285.83C46.1583 285.677 46.5583 285.6 46.9916 285.6C47.4383 285.6 47.8216 285.68 48.1416 285.84C48.4683 286 48.7149 286.243 48.8816 286.57C49.0483 286.89 49.1249 287.29 49.1116 287.77C49.0983 288.43 48.9783 289.01 48.7516 289.51C48.5249 290.003 48.2083 290.387 47.8016 290.66C47.3949 290.933 46.9049 291.07 46.3316 291.07ZM46.6516 290C47.0116 290 47.3283 289.917 47.6016 289.75C47.8749 289.577 48.0916 289.34 48.2516 289.04C48.4116 288.74 48.4916 288.393 48.4916 288C48.4916 287.587 48.3683 287.26 48.1216 287.02C47.8749 286.78 47.5283 286.66 47.0816 286.66C46.7283 286.66 46.4116 286.747 46.1316 286.92C45.8583 287.087 45.6416 287.32 45.4816 287.62C45.3216 287.92 45.2416 288.267 45.2416 288.66C45.2416 289.073 45.3649 289.4 45.6116 289.64C45.8583 289.88 46.2049 290 46.6516 290ZM47.9616 291L48.2016 289.78L48.5416 288.36L48.7116 286.93L48.9616 285.66H50.2116L49.1516 291H47.9616Z" fill="#1E293B"/>
<path d="M54.7571 285.6C55.2171 285.6 55.6071 285.693 55.9271 285.88C56.2471 286.067 56.4704 286.343 56.5971 286.71C56.7304 287.07 56.7437 287.513 56.6371 288.04L56.0471 291H54.7971L55.3771 288.07C55.4637 287.637 55.4237 287.3 55.2571 287.06C55.0904 286.813 54.7871 286.69 54.3471 286.69C53.8871 286.69 53.5071 286.817 53.2071 287.07C52.9071 287.323 52.7037 287.71 52.5971 288.23L52.0371 291H50.7871L51.8471 285.66H53.0371L52.7371 287.18L52.5371 286.7C52.7904 286.32 53.1071 286.043 53.4871 285.87C53.8737 285.69 54.2971 285.6 54.7571 285.6Z" fill="#1E293B"/>
<path d="M59.8025 293.01C59.2959 293.01 58.8292 292.947 58.4025 292.82C57.9759 292.7 57.6092 292.52 57.3025 292.28L57.9525 291.34C58.1592 291.52 58.4325 291.663 58.7725 291.77C59.1125 291.883 59.4825 291.94 59.8825 291.94C60.4692 291.94 60.9125 291.81 61.2125 291.55C61.5125 291.297 61.7125 290.913 61.8125 290.4L62.0325 289.3L62.3625 288.17L62.5625 286.96L62.8125 285.66H64.0025L63.1025 290.19C62.9025 291.183 62.5292 291.9 61.9825 292.34C61.4359 292.787 60.7092 293.01 59.8025 293.01ZM60.1125 290.76C59.6525 290.76 59.2425 290.673 58.8825 290.5C58.5225 290.32 58.2392 290.067 58.0325 289.74C57.8259 289.407 57.7225 289.01 57.7225 288.55C57.7225 288.13 57.7959 287.743 57.9425 287.39C58.0959 287.03 58.3059 286.717 58.5725 286.45C58.8459 286.183 59.1659 285.977 59.5325 285.83C59.9059 285.677 60.3125 285.6 60.7525 285.6C61.1392 285.6 61.4959 285.67 61.8225 285.81C62.1492 285.943 62.4092 286.163 62.6025 286.47C62.7959 286.77 62.8859 287.167 62.8725 287.66C62.8592 288.247 62.7425 288.777 62.5225 289.25C62.3025 289.717 61.9892 290.087 61.5825 290.36C61.1759 290.627 60.6859 290.76 60.1125 290.76ZM60.3925 289.7C60.7525 289.7 61.0692 289.623 61.3425 289.47C61.6159 289.31 61.8292 289.093 61.9825 288.82C62.1425 288.54 62.2225 288.227 62.2225 287.88C62.2225 287.5 62.0992 287.203 61.8525 286.99C61.6059 286.77 61.2625 286.66 60.8225 286.66C60.4625 286.66 60.1459 286.74 59.8725 286.9C59.5992 287.053 59.3825 287.267 59.2225 287.54C59.0625 287.813 58.9825 288.127 58.9825 288.48C58.9825 288.86 59.1059 289.16 59.3525 289.38C59.6059 289.593 59.9525 289.7 60.3925 289.7Z" fill="#1E293B"/>
<path d="M27.0843 303.07C26.5643 303.07 26.1076 302.973 25.7143 302.78C25.3276 302.58 25.0276 302.307 24.8143 301.96C24.601 301.607 24.4943 301.193 24.4943 300.72C24.4943 300.12 24.631 299.587 24.9043 299.12C25.1776 298.647 25.551 298.277 26.0243 298.01C26.5043 297.737 27.051 297.6 27.6643 297.6C27.9243 297.6 28.1376 297.607 28.3043 297.62C28.4776 297.627 28.6343 297.637 28.7743 297.65C28.9143 297.663 29.0676 297.67 29.2343 297.67C29.421 297.67 29.5843 297.613 29.7243 297.5C29.871 297.38 29.9443 297.217 29.9443 297.01C29.9443 296.89 29.9243 296.78 29.8843 296.68C29.8443 296.573 29.7976 296.477 29.7443 296.39L30.5043 296.11C30.5976 296.237 30.671 296.38 30.7243 296.54C30.7776 296.7 30.8043 296.87 30.8043 297.05C30.8043 297.357 30.7376 297.62 30.6043 297.84C30.4776 298.06 30.2943 298.227 30.0543 298.34C29.821 298.453 29.551 298.51 29.2443 298.51C29.1043 298.51 28.9776 298.507 28.8643 298.5C28.7576 298.487 28.6376 298.473 28.5043 298.46L29.3643 298.12C29.6443 298.313 29.8643 298.563 30.0243 298.87C30.1843 299.17 30.2643 299.527 30.2643 299.94C30.2643 300.533 30.1276 301.067 29.8543 301.54C29.581 302.013 29.2043 302.387 28.7243 302.66C28.251 302.933 27.7043 303.07 27.0843 303.07ZM27.1643 302C27.5243 302 27.841 301.917 28.1143 301.75C28.3876 301.577 28.6043 301.34 28.7643 301.04C28.9243 300.74 29.0043 300.393 29.0043 300C29.0043 299.587 28.881 299.26 28.6343 299.02C28.3876 298.78 28.041 298.66 27.5943 298.66C27.241 298.66 26.9243 298.747 26.6443 298.92C26.371 299.087 26.1543 299.32 25.9943 299.62C25.8343 299.92 25.7543 300.267 25.7543 300.66C25.7543 301.073 25.8776 301.4 26.1243 301.64C26.371 301.88 26.7176 302 27.1643 302ZM28.2843 297.05L27.9443 296.57C28.171 296.477 28.331 296.373 28.4243 296.26C28.5243 296.14 28.5743 296.01 28.5743 295.87C28.5743 295.75 28.5343 295.657 28.4543 295.59C28.3743 295.517 28.2643 295.48 28.1243 295.48C27.9176 295.48 27.7143 295.547 27.5143 295.68L27.2843 295.12C27.431 295.02 27.5943 294.947 27.7743 294.9C27.961 294.847 28.1443 294.82 28.3243 294.82C28.631 294.82 28.8743 294.9 29.0543 295.06C29.241 295.213 29.3343 295.427 29.3343 295.7C29.3343 295.993 29.2443 296.253 29.0643 296.48C28.891 296.7 28.631 296.89 28.2843 297.05Z" fill="#1E293B"/>
<path d="M36.0438 303.07C35.6104 303.07 35.2138 302.977 34.8538 302.79C34.4937 302.603 34.2104 302.337 34.0037 301.99C33.7971 301.637 33.6938 301.213 33.6938 300.72C33.6938 300.267 33.7671 299.85 33.9137 299.47C34.0671 299.09 34.2804 298.76 34.5537 298.48C34.8271 298.2 35.1437 297.983 35.5037 297.83C35.8704 297.677 36.2671 297.6 36.6938 297.6C37.1338 297.6 37.5138 297.677 37.8337 297.83C38.1537 297.983 38.4004 298.213 38.5737 298.52C38.7471 298.827 38.8337 299.207 38.8337 299.66C38.8337 300.16 38.7704 300.62 38.6437 301.04C38.5171 301.453 38.3337 301.813 38.0938 302.12C37.8538 302.42 37.5604 302.653 37.2138 302.82C36.8738 302.987 36.4838 303.07 36.0438 303.07ZM36.3638 302C36.7171 302 37.0304 301.917 37.3038 301.75C37.5838 301.577 37.8004 301.34 37.9538 301.04C38.1138 300.74 38.1938 300.393 38.1938 300C38.1938 299.587 38.0704 299.26 37.8237 299.02C37.5837 298.78 37.2371 298.66 36.7838 298.66C36.4371 298.66 36.1238 298.747 35.8438 298.92C35.5637 299.087 35.3438 299.32 35.1838 299.62C35.0304 299.92 34.9538 300.267 34.9538 300.66C34.9538 301.073 35.0737 301.4 35.3137 301.64C35.5604 301.88 35.9104 302 36.3638 302ZM37.6637 303L37.9137 301.78L38.2437 300.36L38.4137 298.93L39.0837 295.58H40.3337L38.8538 303H37.6637ZM36.8237 297.05L36.9737 296.23H41.0138L40.8638 297.05H36.8237Z" fill="#1E293B"/>
<path d="M42.899 303.07C42.4657 303.07 42.069 302.977 41.709 302.79C41.3557 302.603 41.0723 302.337 40.859 301.99C40.6523 301.637 40.549 301.213 40.549 300.72C40.549 300.267 40.6223 299.85 40.769 299.47C40.9223 299.09 41.1357 298.76 41.409 298.48C41.6823 298.2 41.999 297.983 42.359 297.83C42.7257 297.677 43.1257 297.6 43.559 297.6C44.0057 297.6 44.389 297.68 44.709 297.84C45.0357 298 45.2823 298.243 45.449 298.57C45.6157 298.89 45.6923 299.29 45.679 299.77C45.6657 300.43 45.5457 301.01 45.319 301.51C45.0923 302.003 44.7757 302.387 44.369 302.66C43.9623 302.933 43.4723 303.07 42.899 303.07ZM43.219 302C43.579 302 43.8957 301.917 44.169 301.75C44.4423 301.577 44.659 301.34 44.819 301.04C44.979 300.74 45.059 300.393 45.059 300C45.059 299.587 44.9356 299.26 44.689 299.02C44.4423 298.78 44.0957 298.66 43.649 298.66C43.2957 298.66 42.979 298.747 42.699 298.92C42.4257 299.087 42.209 299.32 42.049 299.62C41.889 299.92 41.809 300.267 41.809 300.66C41.809 301.073 41.9323 301.4 42.179 301.64C42.4256 301.88 42.7723 302 43.219 302ZM44.529 303L44.769 301.78L45.109 300.36L45.279 298.93L45.529 297.66H46.779L45.719 303H44.529ZM42.409 296.93L43.919 295.56H45.059L46.219 296.93H45.219L43.989 295.78H44.959L43.459 296.93H42.409Z" fill="#1E293B"/>
<path d="M47.4945 305.01C47.2278 305.01 46.9678 304.967 46.7145 304.88C46.4545 304.793 46.2478 304.68 46.0945 304.54L46.7145 303.63C46.8278 303.73 46.9545 303.81 47.0945 303.87C47.2411 303.937 47.4078 303.97 47.5945 303.97C47.8011 303.97 47.9845 303.913 48.1445 303.8C48.3111 303.693 48.4778 303.507 48.6445 303.24L49.1145 302.51L49.2345 302.38L52.1745 297.66H53.4245L49.7445 303.47C49.4978 303.857 49.2611 304.163 49.0345 304.39C48.8078 304.617 48.5711 304.777 48.3245 304.87C48.0844 304.963 47.8078 305.01 47.4945 305.01ZM48.8645 303.19L47.5545 297.66H48.8045L49.8545 302.27L48.8645 303.19Z" fill="#1E293B"/>
<path d="M48.5 138C33.3 136 20.8333 140.167 16.5 142.5C8.5 145.471 41.5 148.5 64.5 147.5C87.5 146.5 67.5 140.5 48.5 138Z" fill="#FB923C"/>
<path d="M282.223 305.528C267.023 303.528 254.556 307.694 250.223 310.028C242.223 312.998 275.223 316.027 298.223 315.027C321.223 314.027 301.223 308.028 282.223 305.528Z" fill="#FB923C"/>
<path d="M139.206 105.31C129.504 104.136 121.546 106.581 118.781 107.951C113.674 109.695 134.738 111.473 149.418 110.886C164.098 110.299 151.333 106.777 139.206 105.31Z" fill="#FB923C"/>
</g>
<g clip-path="url(#clip2_512_224)">
<path d="M391.83 564.179L574.62 562.821L569.602 507.173L387.007 508.512L391.83 564.179Z" fill="#1E293B"/>
<path d="M502.325 241.165L488.388 243.397L453.893 248.653L449.796 235.025C415.05 236.309 412.871 166.316 412.871 166.316C412.229 148.324 434.099 139.32 455.922 142.715C471.601 145.152 489.412 193.461 496.851 221.396C499.774 232.364 502.307 241.155 502.307 241.155L502.325 241.165Z" fill="#FED7AA"/>
<path d="M422.042 198.335C423.029 198.335 423.83 197.536 423.83 196.549C423.83 195.563 423.029 194.763 422.042 194.763C421.055 194.763 420.254 195.563 420.254 196.549C420.254 197.536 421.055 198.335 422.042 198.335Z" fill="#1E293B"/>
<path d="M427.982 193.461C427.34 193.461 426.762 192.996 426.641 192.344C426.334 190.679 425.654 189.554 424.556 188.893C422.275 187.535 418.895 188.614 418.867 188.623C418.15 188.856 417.378 188.465 417.145 187.758C416.912 187.051 417.294 186.279 418.011 186.037C418.197 185.972 422.573 184.549 425.943 186.54C427.749 187.609 428.885 189.396 429.332 191.851C429.462 192.596 428.978 193.303 428.233 193.433C428.15 193.451 428.066 193.451 427.991 193.451L427.982 193.461Z" fill="#1E293B"/>
<path d="M428.317 217.313C428.131 217.313 427.973 217.164 427.973 216.968C427.973 216.773 428.122 216.624 428.317 216.624C428.42 216.624 438.363 216.522 441.64 208.652C441.715 208.475 441.91 208.401 442.087 208.466C442.264 208.54 442.339 208.736 442.273 208.912C438.819 217.201 428.42 217.303 428.317 217.303V217.313Z" fill="#1E293B"/>
<path d="M453.893 193.461C453.893 193.461 456.621 186.642 450.485 179.832C441.557 173.59 413.737 181.86 412.871 166.316C412.006 150.771 422.722 140.827 442.367 140.445C462.011 140.064 474.981 152.799 480.492 170.297C481.936 174.874 483.9 182.567 483.9 182.567L453.893 193.47V193.461Z" fill="#1E293B"/>
<path d="M450.737 180.149C450.737 180.149 456.146 173.907 457.626 185.498C459.107 197.098 455.69 200.661 453.213 197.991" fill="#FED7AA"/>
<path d="M454.842 199.172C454.2 199.172 453.548 198.847 452.971 198.224L453.474 197.758C453.911 198.233 454.6 198.726 455.373 198.372C457.04 197.591 458.287 193.321 457.3 185.544C456.667 180.586 455.345 179.19 454.34 178.883C452.738 178.4 451.025 180.344 451.007 180.372L450.494 179.925C450.578 179.832 452.524 177.618 454.544 178.232C456.285 178.753 457.44 181.191 457.98 185.451C459.088 194.121 457.505 198.121 455.671 198.986C455.41 199.107 455.131 199.172 454.852 199.172H454.842Z" fill="#1E293B"/>
<path d="M453.893 248.662C453.893 248.662 425.031 273.91 408.198 316.813C380.918 386.322 387.454 486.66 387.007 508.522C423.169 510.754 561.567 510.754 569.602 507.182C577.637 503.61 563.699 381.55 561.66 337.94C560.533 313.855 532.332 253.435 501.646 239.127C481.87 241.853 453.902 248.672 453.902 248.672L453.893 248.662Z" fill="#FB7200"/>
<path d="M348.379 366.322C348.379 366.322 331.564 328.339 314.75 310.376C309.508 304.776 294.546 297.306 289.817 297.343C281.195 297.417 282.852 309.195 294.016 312.869C297.134 313.902 301.818 317.762 303.596 321.921C307.804 331.809 304.145 329.26 300.198 325.865C291.986 318.804 264.306 337.716 264.837 352.582C265.628 374.871 298.317 402.593 298.317 402.593L348.379 366.322Z" fill="#FED7AA"/>
<path d="M347.82 364.629C347.82 364.629 344.785 317.018 321.667 319.707C301.566 322.051 347.82 364.629 347.82 364.629Z" fill="#FED7AA"/>
<path d="M292.814 342.265C292.712 342.265 292.619 342.219 292.544 342.135L284.37 331.921C284.249 331.772 284.277 331.558 284.426 331.437C284.575 331.316 284.789 331.344 284.91 331.493L293.084 341.707C293.205 341.856 293.178 342.07 293.029 342.191C292.963 342.237 292.889 342.265 292.814 342.265Z" fill="#1E293B"/>
<path d="M279.473 354.936C279.37 354.936 279.268 354.889 279.203 354.805L271.084 344.386C270.972 344.237 270.991 344.024 271.14 343.912C271.289 343.791 271.503 343.819 271.615 343.968L279.733 354.387C279.845 354.535 279.827 354.749 279.678 354.861C279.612 354.908 279.538 354.936 279.473 354.936Z" fill="#1E293B"/>
<path d="M339.245 339.065C339.152 339.065 339.05 339.028 338.984 338.944L326.695 324.414C326.574 324.274 326.592 324.051 326.732 323.93C326.872 323.809 327.086 323.828 327.216 323.967L339.506 338.498C339.627 338.637 339.608 338.861 339.469 338.981C339.403 339.037 339.329 339.065 339.245 339.065Z" fill="#1E293B"/>
<path d="M288.076 309.855C287.992 309.855 287.917 309.827 287.852 309.771C287.787 309.715 281.186 303.799 285.05 299.017C288.895 294.255 299.015 299.845 299.443 300.078C299.611 300.171 299.667 300.376 299.574 300.543C299.481 300.711 299.276 300.766 299.108 300.673C299.006 300.618 289.053 295.129 285.58 299.445C282.126 303.725 288.234 309.213 288.299 309.269C288.439 309.39 288.457 309.613 288.327 309.753C288.262 309.827 288.169 309.864 288.076 309.864V309.855Z" fill="#1E293B"/>
<path d="M291.232 306.274L288.457 304.106C288.308 303.994 288.28 303.78 288.401 303.632C288.522 303.483 288.737 303.455 288.876 303.576L291.176 305.371L295.719 300.711C295.85 300.58 296.064 300.571 296.203 300.711C296.343 300.841 296.343 301.055 296.203 301.194L291.232 306.292V306.274Z" fill="#1E293B"/>
<path d="M305.141 312.571C305.058 312.571 304.964 312.534 304.899 312.469C304.769 312.339 304.769 312.125 304.899 311.985L308.735 308.153C308.866 308.022 309.08 308.022 309.219 308.153C309.359 308.283 309.35 308.497 309.219 308.636L305.383 312.469C305.318 312.534 305.225 312.571 305.141 312.571Z" fill="#1E293B"/>
<path d="M461.564 230.067C461.434 230.067 461.313 229.992 461.257 229.871C461.173 229.704 461.257 229.499 461.425 229.415C461.537 229.36 472.7 224.029 475.418 216.671C475.483 216.494 475.679 216.401 475.856 216.466C476.033 216.531 476.126 216.727 476.061 216.903C473.24 224.531 462.188 229.806 461.723 230.029C461.676 230.048 461.63 230.067 461.574 230.067H461.564Z" fill="#1E293B"/>
<path d="M452.785 185.172C452.785 185.172 454.368 184.26 453.623 191.414L452.785 185.172Z" fill="#FED7AA"/>
<path d="M453.958 191.451L453.278 191.377C453.809 186.298 453.129 185.581 452.98 185.488L452.608 184.874C452.775 184.781 453.073 184.735 453.353 184.912C454.163 185.432 454.358 187.572 453.958 191.442V191.451Z" fill="#1E293B"/>
<path d="M448.623 401.151L348.034 356.443L298.391 402.676L425.869 492.27L448.623 401.151Z" fill="#FB7200"/>
<path d="M419.035 203.61C419.035 203.61 414.231 207.824 421.446 210.522L419.035 203.61Z" fill="#FED7AA"/>
<path d="M386.625 464.688C387.705 467.581 432.898 482.781 454.87 480.251V509.991C430.03 507.619 397.286 500.8 386.858 492.27L386.635 464.688H386.625Z" fill="#334155"/>
<path d="M459.488 246.793C459.488 246.793 457.989 244.569 453.902 248.653C449.815 252.737 441.966 261.091 441.966 261.091C441.966 261.091 459.917 261.435 462.71 269.351L459.498 246.783L459.488 246.793Z" fill="#334155"/>
</g>
<path d="M478.389 241.702C478.389 241.702 475.587 204.687 508.071 206.036C540.554 207.385 537.175 242.549 537.175 242.549H518.657C518.657 242.549 529.214 221.59 516.618 214.827C504.021 208.064 495.958 232.065 503.369 241.702H478.399H478.389Z" fill="#334155"/>
<path d="M458.288 245.74C458.288 245.74 502.913 228.595 543.413 238.065C575.468 245.563 617.002 290.755 620.484 335.519C623.966 380.283 695.413 443.625 667.548 483.393C639.682 523.171 567.62 530.26 531.477 522.492C495.334 514.715 458.298 245.74 458.298 245.74H458.288Z" fill="#FB923C"/>
<path d="M458.288 245.74C458.288 245.74 533.386 309.174 534.261 377.139C535.127 445.113 584.89 518.827 552.053 522.669C502.419 528.483 453 513.59 453 513.59L458.298 245.74H458.288Z" fill="#334155"/>
<path d="M543.087 368.888C542.901 368.888 542.752 368.748 542.742 368.562C542.742 368.376 542.882 368.218 543.068 368.208L629.319 364.887H629.329C629.515 364.887 629.664 365.027 629.673 365.213C629.673 365.399 629.533 365.557 629.347 365.567L543.096 368.888H543.087Z" fill="#334155"/>
<path d="M664 432H576V444H664V432Z" fill="#334155"/>
<path d="M477.514 426.713C477.514 426.713 472.431 390.051 499.803 390.051C527.176 390.051 523.6 426.713 523.6 426.713H477.514Z" fill="white"/>
<path d="M523.908 427.057H477.216L477.179 426.759C477.151 426.564 474.553 406.935 483.743 396.395C487.607 391.958 493.007 389.716 499.803 389.716C506.6 389.716 512.121 391.977 516.161 396.433C525.742 406.982 523.954 426.554 523.936 426.75L523.908 427.057ZM477.812 426.378H523.284C523.47 423.857 524.382 406.498 515.659 396.898C511.748 392.591 506.413 390.405 499.803 390.405C493.193 390.405 487.988 392.572 484.264 396.851C475.885 406.461 477.542 423.903 477.821 426.378H477.812Z" fill="#334155"/>
<path d="M531.142 421.252H468.446V432.192H531.142V421.252Z" fill="white"/>
<path d="M531.486 432.527H468.101V420.908H531.486V432.527ZM468.79 431.848H530.807V421.587H468.79V431.848Z" fill="#334155"/>
<path d="M505.715 377.492H492.876C491.035 377.492 489.543 378.984 489.543 380.823V388.088C489.543 389.927 491.035 391.419 492.876 391.419H505.715C507.556 391.419 509.048 389.927 509.048 388.088V380.823C509.048 378.984 507.556 377.492 505.715 377.492Z" fill="white"/>
<path d="M506.618 391.753H491.992C490.456 391.753 489.208 390.507 489.208 388.972V379.93C489.208 378.395 490.456 377.148 491.992 377.148H506.618C508.154 377.148 509.402 378.395 509.402 379.93V388.972C509.402 390.507 508.154 391.753 506.618 391.753ZM491.992 377.827C490.837 377.827 489.897 378.767 489.897 379.92V388.963C489.897 390.116 490.837 391.056 491.992 391.056H506.618C507.773 391.056 508.713 390.116 508.713 388.963V379.92C508.713 378.767 507.773 377.827 506.618 377.827H491.992Z" fill="#334155"/>
<path d="M575.599 346.747H557.257V386.73H575.599V346.747Z" fill="#334155"/>
<path d="M533.749 231.079C528.06 215.646 519.532 213.729 519.448 213.711L519.588 213.041C519.951 213.115 528.553 215.013 534.391 230.846L533.749 231.079Z" fill="white"/>
<path d="M620.341 346.747H602V386.73H620.341V346.747Z" fill="#334155"/>
<defs>
<clipPath id="clip0_512_224">
<rect x="139" y="34" width="459" height="522.689" rx="8" fill="white"/>
</clipPath>
<clipPath id="clip1_512_224">
<rect width="439" height="327" fill="white"/>
</clipPath>
<clipPath id="clip2_512_224">
<rect x="141" y="35" width="459" height="521.877" rx="8" fill="white"/>
</clipPath>
</defs>
</svg>
