<?xml version="1.0" encoding="utf-8"?>
<!-- Generator: Adobe Illustrator 27.0.0, SVG Export Plug-In . SVG Version: 6.00 Build 0)  -->
<svg version="1.1" id="Layer_2_00000057115410380398201330000014806069496809397650_"
	 xmlns="http://www.w3.org/2000/svg" xmlns:xlink="http://www.w3.org/1999/xlink" x="0px" y="0px" viewBox="0 0 674 557"
	 style="enable-background:new 0 0 674 557;" xml:space="preserve">
<style type="text/css">
	.st0{clip-path:url(#SVGID_00000106148414741592125510000016978402205115119294_);}
	.st1{fill:#1E293B;}
	.st2{fill-rule:evenodd;clip-rule:evenodd;fill:#1E293B;}
</style>
<g id="Layer_2-2">
	<g>
		<defs>
			<rect id="SVGID_1_" width="674" height="557"/>
		</defs>
		<clipPath id="SVGID_00000114792401600743191020000000799080713769472430_">
			<use xlink:href="#SVGID_1_"  style="overflow:visible;"/>
		</clipPath>
		<g style="clip-path:url(#SVGID_00000114792401600743191020000000799080713769472430_);">
			<path class="st1" d="M50.1,295.9c3.7,0,6.6-1.9,6.6-4.1s-3-4.1-6.6-4.1s-6.6,1.9-6.6,4.1S46.4,295.9,50.1,295.9z"/>
			<path class="st2" d="M50.1,259.2c-4.9,0-9,4.2-9,9.6c0,1.2,0.5,2.6,1.4,4.2c0.9,1.6,2.2,3.2,3.4,4.6c1.3,1.5,2.5,2.7,3.5,3.6
				c0.3,0.3,0.5,0.5,0.7,0.7c0.2-0.2,0.5-0.4,0.7-0.7c1-0.9,2.2-2.2,3.5-3.6c1.3-1.5,2.5-3,3.4-4.6c0.9-1.6,1.4-3.1,1.4-4.2
				C59.1,263.4,55,259.2,50.1,259.2C50.1,259.2,50.1,259.2,50.1,259.2z M50.1,283.7c-0.6,0.6-0.8,1-0.8,1l0,0l0,0c0,0,0,0-0.1-0.1
				c-0.1-0.1-0.2-0.2-0.3-0.3c-0.3-0.3-0.7-0.6-1.2-1.1c-1-0.9-2.3-2.3-3.6-3.8c-1.3-1.5-2.7-3.3-3.7-5c-1-1.8-1.8-3.7-1.8-5.5
				c0-6.7,5.1-12.2,11.6-12.2s11.6,5.5,11.6,12.2c0,1.8-0.8,3.8-1.8,5.5c-1,1.8-2.4,3.5-3.7,5c-1.3,1.5-2.7,2.9-3.6,3.8
				c-0.5,0.5-0.9,0.9-1.2,1.1c-0.2,0.1-0.3,0.2-0.3,0.3c0,0-0.1,0.1-0.1,0.1l0,0l0,0L50.1,283.7L50.1,283.7L50.1,283.7z M50.1,283.7
				l0.8,1l-0.8,0.7l-0.8-0.7L50.1,283.7z M50.1,264.2c-1.8,0-3.3,1.5-3.3,3.4s1.5,3.4,3.3,3.4s3.3-1.5,3.3-3.4
				S51.9,264.2,50.1,264.2z M44.2,267.6c0-3.3,2.6-6,5.9-6s5.9,2.7,5.9,6s-2.6,6-5.9,6S44.2,270.8,44.2,267.6z"/>
			<path class="st1" d="M24.6,309.6l1.4-7h3.2c0.7,0,1.3,0.1,1.7,0.4c0.4,0.3,0.6,0.7,0.6,1.2c0,0.4-0.1,0.8-0.3,1.1
				c-0.2,0.3-0.5,0.5-0.9,0.7s-0.7,0.2-1.1,0.2l0.2-0.3c0.5,0,1,0.1,1.3,0.4c0.3,0.3,0.5,0.6,0.5,1.1s-0.1,0.9-0.4,1.2
				c-0.3,0.3-0.6,0.6-1.1,0.7c-0.5,0.2-1,0.2-1.6,0.2L24.6,309.6L24.6,309.6z M26.1,308.6h2.1c0.5,0,1-0.1,1.3-0.3
				c0.3-0.2,0.5-0.5,0.5-0.9c0-0.3-0.1-0.5-0.3-0.6c-0.2-0.1-0.5-0.2-0.9-0.2h-2.3l0.2-1h2c0.3,0,0.6,0,0.8-0.1
				c0.2-0.1,0.4-0.2,0.6-0.4c0.1-0.2,0.2-0.4,0.2-0.6c0-0.3-0.1-0.5-0.3-0.6c-0.2-0.1-0.5-0.2-0.9-0.2H27
				C27,303.6,26.1,308.6,26.1,308.6z"/>
			<path class="st1" d="M34.4,309.7c-0.4,0-0.8-0.1-1.2-0.3c-0.3-0.2-0.6-0.5-0.8-0.8c-0.2-0.4-0.3-0.8-0.3-1.3
				c0-0.5,0.1-0.9,0.2-1.2c0.1-0.4,0.4-0.7,0.6-1s0.6-0.5,1-0.6c0.4-0.1,0.8-0.2,1.2-0.2s0.8,0.1,1.1,0.2c0.3,0.2,0.6,0.4,0.7,0.7
				c0.2,0.3,0.2,0.7,0.2,1.2c0,0.7-0.1,1.2-0.4,1.7c-0.2,0.5-0.5,0.9-1,1.1S35,309.7,34.4,309.7L34.4,309.7L34.4,309.7z M34.8,308.6
				c0.4,0,0.7-0.1,1-0.2s0.5-0.4,0.6-0.7s0.2-0.6,0.2-1c0-0.4-0.1-0.7-0.4-1c-0.2-0.2-0.6-0.4-1-0.4c-0.4,0-0.7,0.1-1,0.3
				c-0.3,0.2-0.5,0.4-0.7,0.7c-0.2,0.3-0.2,0.6-0.2,1c0,0.4,0.1,0.7,0.4,1C34,308.5,34.3,308.6,34.8,308.6L34.8,308.6L34.8,308.6z
				 M36.1,309.6l0.2-1.2l0.3-1.4l0.2-1.4l0.2-1.3h1.2l-1.1,5.3H36.1z M34.3,311.6c-0.2,0-0.3,0-0.4-0.1c-0.1-0.1-0.1-0.2-0.1-0.4
				c0-0.2,0.1-0.3,0.2-0.5c0.1-0.1,0.3-0.2,0.5-0.2c0.2,0,0.3,0,0.4,0.1c0.1,0.1,0.2,0.2,0.2,0.4c0,0.2-0.1,0.4-0.2,0.5
				C34.6,311.6,34.5,311.6,34.3,311.6L34.3,311.6L34.3,311.6z"/>
			<path class="st1" d="M42.9,304.2c0.5,0,0.8,0.1,1.2,0.3s0.5,0.5,0.7,0.8c0.1,0.4,0.2,0.8,0,1.3l-0.6,3h-1.2l0.6-2.9
				c0.1-0.4,0-0.8-0.1-1c-0.2-0.2-0.5-0.4-0.9-0.4c-0.4,0-0.8,0.1-1.1,0.4s-0.5,0.6-0.6,1.2l-0.6,2.8h-1.2l1.1-5.3h1.2l-0.3,1.5
				l-0.2-0.5c0.2-0.4,0.6-0.7,1-0.8C42,304.3,42.4,304.2,42.9,304.2L42.9,304.2L42.9,304.2z"/>
			<path class="st1" d="M50.9,309.7c-0.4,0-0.8-0.1-1.2-0.3c-0.4-0.2-0.6-0.5-0.8-0.8c-0.2-0.4-0.3-0.8-0.3-1.3
				c0-0.5,0.1-0.9,0.2-1.2s0.4-0.7,0.6-1s0.6-0.5,1-0.6c0.4-0.1,0.8-0.2,1.2-0.2s0.8,0.1,1.1,0.2c0.3,0.1,0.6,0.4,0.7,0.7
				c0.2,0.3,0.3,0.7,0.3,1.1c0,0.5-0.1,1-0.2,1.4c-0.1,0.4-0.3,0.8-0.5,1.1c-0.2,0.3-0.5,0.5-0.9,0.7
				C51.8,309.6,51.4,309.7,50.9,309.7L50.9,309.7L50.9,309.7z M51.2,308.6c0.3,0,0.7-0.1,0.9-0.2c0.3-0.2,0.5-0.4,0.7-0.7
				c0.2-0.3,0.2-0.6,0.2-1c0-0.4-0.1-0.7-0.4-1c-0.2-0.2-0.6-0.4-1-0.4c-0.3,0-0.7,0.1-0.9,0.3s-0.5,0.4-0.7,0.7
				c-0.2,0.3-0.2,0.6-0.2,1c0,0.4,0.1,0.7,0.4,1C50.4,308.5,50.8,308.6,51.2,308.6L51.2,308.6L51.2,308.6z M52.5,309.6l0.2-1.2
				l0.3-1.4l0.2-1.4l0.7-3.4h1.2l-1.5,7.4H52.5z M51.7,303.6l0.2-0.8h4l-0.2,0.8H51.7z"/>
			<path class="st1" d="M57.8,309.7c-0.4,0-0.8-0.1-1.2-0.3c-0.3-0.2-0.6-0.5-0.8-0.8c-0.2-0.4-0.3-0.8-0.3-1.3
				c0-0.5,0.1-0.9,0.2-1.2s0.4-0.7,0.6-1s0.6-0.5,1-0.6c0.4-0.1,0.8-0.2,1.2-0.2s0.8,0.1,1.2,0.2c0.3,0.2,0.6,0.4,0.7,0.7
				c0.2,0.3,0.2,0.7,0.2,1.2c0,0.7-0.1,1.2-0.4,1.7c-0.2,0.5-0.5,0.9-1,1.1S58.3,309.7,57.8,309.7L57.8,309.7L57.8,309.7z
				 M58.1,308.6c0.4,0,0.7-0.1,1-0.2s0.5-0.4,0.7-0.7s0.2-0.6,0.2-1c0-0.4-0.1-0.7-0.4-1c-0.2-0.2-0.6-0.4-1-0.4
				c-0.3,0-0.7,0.1-1,0.3c-0.3,0.2-0.5,0.4-0.7,0.7c-0.2,0.3-0.2,0.6-0.2,1c0,0.4,0.1,0.7,0.4,1C57.3,308.5,57.6,308.6,58.1,308.6
				L58.1,308.6L58.1,308.6z M59.4,309.6l0.2-1.2L60,307l0.2-1.4l0.2-1.3h1.2l-1.1,5.3H59.4z"/>
			<path class="st1" d="M66.2,304.2c0.5,0,0.8,0.1,1.2,0.3s0.5,0.5,0.7,0.8c0.1,0.4,0.2,0.8,0,1.3l-0.6,3h-1.2l0.6-2.9
				c0.1-0.4,0-0.8-0.1-1c-0.2-0.2-0.5-0.4-0.9-0.4c-0.4,0-0.8,0.1-1.1,0.4c-0.3,0.2-0.5,0.6-0.6,1.2l-0.6,2.8h-1.2l1.1-5.3h1.2
				l-0.3,1.5l-0.2-0.5c0.2-0.4,0.6-0.7,1-0.8C65.3,304.3,65.7,304.2,66.2,304.2L66.2,304.2L66.2,304.2z"/>
			<path class="st1" d="M71.2,311.6c-0.5,0-1-0.1-1.4-0.2c-0.4-0.1-0.8-0.3-1.1-0.5l0.7-0.9c0.2,0.2,0.5,0.3,0.8,0.4
				c0.3,0.1,0.7,0.2,1.1,0.2c0.6,0,1-0.1,1.3-0.4c0.3-0.2,0.5-0.6,0.6-1.1l0.2-1.1l0.3-1.1l0.2-1.2l0.2-1.3h1.2l-0.9,4.5
				c-0.2,1-0.6,1.7-1.1,2.1C72.9,311.4,72.2,311.6,71.2,311.6z M71.6,309.4c-0.5,0-0.9-0.1-1.2-0.3c-0.4-0.2-0.6-0.4-0.8-0.8
				c-0.2-0.3-0.3-0.7-0.3-1.2c0-0.4,0.1-0.8,0.2-1.2c0.2-0.4,0.4-0.7,0.6-0.9c0.3-0.3,0.6-0.5,1-0.6c0.4-0.1,0.8-0.2,1.2-0.2
				c0.4,0,0.7,0.1,1.1,0.2c0.3,0.1,0.6,0.4,0.8,0.7c0.2,0.3,0.3,0.7,0.3,1.2c0,0.6-0.1,1.1-0.3,1.6c-0.2,0.5-0.5,0.8-0.9,1.1
				C72.6,309.2,72.1,309.4,71.6,309.4L71.6,309.4L71.6,309.4z M71.8,308.3c0.4,0,0.7-0.1,0.9-0.2c0.3-0.2,0.5-0.4,0.6-0.6
				c0.2-0.3,0.2-0.6,0.2-0.9c0-0.4-0.1-0.7-0.4-0.9c-0.2-0.2-0.6-0.3-1-0.3c-0.4,0-0.7,0.1-0.9,0.2c-0.3,0.1-0.5,0.4-0.7,0.6
				c-0.2,0.3-0.2,0.6-0.2,0.9c0,0.4,0.1,0.7,0.4,0.9C71,308.2,71.4,308.3,71.8,308.3z"/>
			<path class="st1" d="M38.5,321.7c-0.5,0-1-0.1-1.4-0.3c-0.4-0.2-0.7-0.5-0.9-0.8s-0.3-0.8-0.3-1.2c0-0.6,0.1-1.1,0.4-1.6
				s0.7-0.8,1.1-1.1c0.5-0.3,1-0.4,1.6-0.4c0.3,0,0.5,0,0.6,0c0.2,0,0.3,0,0.5,0s0.3,0,0.5,0c0.2,0,0.4-0.1,0.5-0.2
				c0.1-0.1,0.2-0.3,0.2-0.5c0-0.1,0-0.2-0.1-0.3c0-0.1-0.1-0.2-0.1-0.3l0.8-0.3c0.1,0.1,0.2,0.3,0.2,0.4s0.1,0.3,0.1,0.5
				c0,0.3-0.1,0.6-0.2,0.8c-0.1,0.2-0.3,0.4-0.5,0.5c-0.2,0.1-0.5,0.2-0.8,0.2c-0.1,0-0.3,0-0.4,0s-0.2,0-0.4,0l0.9-0.3
				c0.3,0.2,0.5,0.4,0.7,0.8c0.2,0.3,0.2,0.7,0.2,1.1c0,0.6-0.1,1.1-0.4,1.6s-0.7,0.9-1.1,1.1C39.7,321.5,39.1,321.7,38.5,321.7z
				 M38.6,320.6c0.4,0,0.7-0.1,1-0.2s0.5-0.4,0.6-0.7s0.2-0.6,0.2-1c0-0.4-0.1-0.7-0.4-1c-0.2-0.2-0.6-0.4-1-0.4
				c-0.4,0-0.7,0.1-1,0.3c-0.3,0.2-0.5,0.4-0.7,0.7c-0.2,0.3-0.2,0.6-0.2,1c0,0.4,0.1,0.7,0.4,1C37.8,320.5,38.2,320.6,38.6,320.6
				L38.6,320.6L38.6,320.6z M39.7,315.6l-0.3-0.5c0.2-0.1,0.4-0.2,0.5-0.3c0.1-0.1,0.2-0.2,0.2-0.4c0-0.1,0-0.2-0.1-0.3
				c-0.1-0.1-0.2-0.1-0.3-0.1c-0.2,0-0.4,0.1-0.6,0.2l-0.2-0.6c0.1-0.1,0.3-0.2,0.5-0.2c0.2,0,0.4-0.1,0.5-0.1
				c0.3,0,0.5,0.1,0.7,0.2c0.2,0.1,0.3,0.4,0.3,0.6c0,0.3-0.1,0.5-0.3,0.8C40.3,315.3,40.1,315.5,39.7,315.6L39.7,315.6L39.7,315.6z
				"/>
			<path class="st1" d="M47.5,321.7c-0.4,0-0.8-0.1-1.2-0.3c-0.4-0.2-0.6-0.5-0.8-0.8c-0.2-0.4-0.3-0.8-0.3-1.3
				c0-0.5,0.1-0.9,0.2-1.2s0.4-0.7,0.6-1s0.6-0.5,1-0.6c0.4-0.1,0.8-0.2,1.2-0.2s0.8,0.1,1.1,0.2c0.3,0.1,0.6,0.4,0.7,0.7
				c0.2,0.3,0.3,0.7,0.3,1.1c0,0.5-0.1,1-0.2,1.4c-0.1,0.4-0.3,0.8-0.5,1.1c-0.2,0.3-0.5,0.5-0.9,0.7
				C48.3,321.6,47.9,321.7,47.5,321.7L47.5,321.7L47.5,321.7z M47.8,320.6c0.3,0,0.7-0.1,0.9-0.2c0.3-0.2,0.5-0.4,0.7-0.7
				c0.2-0.3,0.2-0.6,0.2-1c0-0.4-0.1-0.7-0.4-1c-0.2-0.2-0.6-0.4-1-0.4c-0.3,0-0.7,0.1-0.9,0.3s-0.5,0.4-0.7,0.7
				c-0.2,0.3-0.2,0.6-0.2,1c0,0.4,0.1,0.7,0.4,1C47,320.5,47.4,320.6,47.8,320.6L47.8,320.6L47.8,320.6z M49.1,321.6l0.2-1.2
				l0.3-1.4l0.2-1.4l0.7-3.4h1.2l-1.5,7.4H49.1z M48.3,315.6l0.2-0.8h4l-0.2,0.8H48.3z"/>
			<path class="st1" d="M54.3,321.7c-0.4,0-0.8-0.1-1.2-0.3c-0.3-0.2-0.6-0.5-0.8-0.8c-0.2-0.4-0.3-0.8-0.3-1.3
				c0-0.5,0.1-0.9,0.2-1.2s0.4-0.7,0.6-1s0.6-0.5,1-0.6c0.4-0.1,0.8-0.2,1.2-0.2s0.8,0.1,1.2,0.2c0.3,0.2,0.6,0.4,0.7,0.7
				c0.2,0.3,0.2,0.7,0.2,1.2c0,0.7-0.1,1.2-0.4,1.7c-0.2,0.5-0.5,0.9-1,1.1S54.9,321.7,54.3,321.7L54.3,321.7L54.3,321.7z
				 M54.7,320.6c0.4,0,0.7-0.1,1-0.2s0.5-0.4,0.7-0.7s0.2-0.6,0.2-1c0-0.4-0.1-0.7-0.4-1c-0.2-0.2-0.6-0.4-1-0.4
				c-0.3,0-0.7,0.1-1,0.3c-0.3,0.2-0.5,0.4-0.7,0.7c-0.2,0.3-0.2,0.6-0.2,1c0,0.4,0.1,0.7,0.4,1C53.9,320.5,54.2,320.6,54.7,320.6
				L54.7,320.6L54.7,320.6z M56,321.6l0.2-1.2l0.3-1.4l0.2-1.4l0.2-1.3h1.2l-1.1,5.3H56z M53.9,315.5l1.5-1.4h1.1l1.2,1.4h-1
				l-1.2-1.1h1l-1.5,1.1H53.9z"/>
			<path class="st1" d="M58.9,323.6c-0.3,0-0.5,0-0.8-0.1c-0.3-0.1-0.5-0.2-0.6-0.3l0.6-0.9c0.1,0.1,0.2,0.2,0.4,0.2
				c0.2,0.1,0.3,0.1,0.5,0.1c0.2,0,0.4-0.1,0.5-0.2c0.2-0.1,0.3-0.3,0.5-0.6l0.5-0.7l0.1-0.1l2.9-4.7h1.2l-3.7,5.8
				c-0.2,0.4-0.5,0.7-0.7,0.9s-0.5,0.4-0.7,0.5C59.5,323.6,59.2,323.6,58.9,323.6z M60.3,321.8l-1.3-5.5h1.2l1,4.6
				C61.3,320.9,60.3,321.8,60.3,321.8z"/>
		</g>
	</g>
</g>
</svg>
