<?xml version="1.0" encoding="utf-8"?>
<!-- Generator: Adobe Illustrator 27.0.0, SVG Export Plug-In . SVG Version: 6.00 Build 0)  -->
<svg version="1.1" id="Layer_2_00000119097392763933268530000015982378496823693452_"
	 xmlns="http://www.w3.org/2000/svg" xmlns:xlink="http://www.w3.org/1999/xlink" x="0px" y="0px" viewBox="0 0 674 557"
	 style="enable-background:new 0 0 674 557;" xml:space="preserve">
<style type="text/css">
	.st0{clip-path:url(#SVGID_00000043446775967853003940000016239793664278814088_);}
	.st1{fill:#1E293B;}
	.st2{fill-rule:evenodd;clip-rule:evenodd;fill:#1E293B;}
</style>
<g id="Layer_2-2">
	<g>
		<defs>
			<rect id="SVGID_1_" width="674" height="557"/>
		</defs>
		<clipPath id="SVGID_00000149360805328150610780000001076647312424258699_">
			<use xlink:href="#SVGID_1_"  style="overflow:visible;"/>
		</clipPath>
		<g style="clip-path:url(#SVGID_00000149360805328150610780000001076647312424258699_);">
			<g>
				<path class="st1" d="M38.6,277.3c3.7,0,6.6-1.9,6.6-4.1s-3-4.1-6.6-4.1s-6.6,1.9-6.6,4.1S35,277.3,38.6,277.3z"/>
				<path class="st2" d="M38.7,240.6c-4.9,0-9,4.2-9,9.6c0,1.2,0.5,2.6,1.4,4.2c0.9,1.6,2.1,3.2,3.4,4.6c1.3,1.5,2.5,2.7,3.5,3.6
					c0.3,0.3,0.5,0.5,0.7,0.7c0.2-0.2,0.5-0.4,0.7-0.7c1-0.9,2.2-2.2,3.5-3.6c1.3-1.5,2.5-3,3.4-4.6c0.9-1.6,1.4-3.1,1.4-4.2
					C47.7,244.8,43.6,240.6,38.7,240.6C38.6,240.6,38.7,240.6,38.7,240.6z M38.7,265.1c-0.6,0.6-0.8,1-0.8,1l0,0l0,0
					c0,0,0,0-0.1-0.1c-0.1-0.1-0.2-0.2-0.3-0.3c-0.3-0.3-0.7-0.6-1.2-1.1c-1-0.9-2.3-2.3-3.6-3.8c-1.3-1.5-2.7-3.3-3.7-5
					c-1-1.8-1.8-3.7-1.8-5.5c0-6.7,5.1-12.2,11.6-12.2s11.6,5.5,11.6,12.2c0,1.8-0.8,3.8-1.8,5.5c-1,1.8-2.4,3.5-3.7,5
					c-1.3,1.5-2.7,2.9-3.6,3.8c-0.5,0.5-0.9,0.9-1.2,1.1c-0.2,0.1-0.3,0.2-0.3,0.3c0,0-0.1,0.1-0.1,0.1l0,0l0,0L38.7,265.1
					C38.7,265.1,38.6,265.1,38.7,265.1z M38.7,265.1l0.8,1l-0.8,0.7l-0.8-0.7L38.7,265.1z M38.7,245.6c-1.8,0-3.3,1.5-3.3,3.4
					s1.5,3.4,3.3,3.4s3.3-1.5,3.3-3.4S40.4,245.6,38.7,245.6z M32.8,249c0-3.3,2.6-6,5.9-6s5.9,2.7,5.9,6s-2.6,6-5.9,6
					S32.8,252.2,32.8,249z"/>
				<g>
					<path d="M23.2,294l-0.5,2.5H22l0.5-2.5l-2-4.8h0.8l1.7,4.1l3.3-4.1h0.8L23.2,294L23.2,294z"/>
					<path d="M26,294.2c0-1.9,1.3-3.3,3.2-3.3c1.5,0,2.5,0.9,2.5,2.3c0,1.9-1.3,3.3-3.2,3.3C27,296.5,26,295.6,26,294.2L26,294.2z
						 M31,293.3c0-1.1-0.7-1.7-1.8-1.7c-1.4,0-2.4,1.1-2.4,2.6c0,1.1,0.7,1.7,1.8,1.7C30,295.9,31,294.8,31,293.3L31,293.3z"/>
					<path d="M38.7,291l-1.1,5.5h-0.7l0.2-0.9c-0.5,0.6-1.3,0.9-2.1,0.9c-1.2,0-2-0.7-2-1.8c0-0.2,0-0.4,0.1-0.6l0.6-3.1h0.7
						l-0.6,3.1c0,0.2,0,0.3,0,0.5c0,0.8,0.5,1.3,1.4,1.3c1.2,0,2-0.6,2.2-1.9l0.6-3L38.7,291L38.7,291z"/>
					<path d="M48.5,291l-1.1,5.5h-0.7l0.2-0.9c-0.5,0.6-1.3,0.9-2.2,0.9c-1.4,0-2.4-0.9-2.4-2.3c0-1.9,1.3-3.3,3.1-3.3
						c1,0,1.8,0.4,2.1,1.2l0.2-1.1L48.5,291L48.5,291z M47.3,293.3c0-1.1-0.7-1.7-1.8-1.7c-1.4,0-2.4,1.1-2.4,2.6
						c0,1.1,0.7,1.7,1.8,1.7C46.3,295.9,47.3,294.8,47.3,293.3L47.3,293.3z"/>
					<path d="M53.4,290.9l-0.1,0.7c-0.1,0-0.1,0-0.2,0c-1.2,0-2,0.7-2.2,2l-0.5,2.8h-0.7l1.1-5.5h0.7l-0.2,1
						C51.6,291.2,52.3,290.9,53.4,290.9L53.4,290.9z"/>
					<path d="M54.3,293.9c0,0.1,0,0.1,0,0.2c0,1.1,0.6,1.7,1.9,1.7c0.7,0,1.4-0.3,1.8-0.7l0.3,0.5c-0.5,0.5-1.3,0.8-2.2,0.8
						c-1.6,0-2.6-0.9-2.6-2.3c0-1.9,1.3-3.3,3-3.3c1.5,0,2.4,0.9,2.4,2.3c0,0.2,0,0.5-0.1,0.7H54.3L54.3,293.9z M54.3,293.4h3.9
						c0-0.1,0-0.1,0-0.2c0-1-0.7-1.6-1.7-1.6C55.4,291.5,54.6,292.3,54.3,293.4z"/>
					<path d="M33.8,305.3c0,0.2,0,0.4-0.1,0.6l-0.6,3.1h-0.7l0.6-3.1c0-0.2,0-0.4,0-0.5c0-0.8-0.5-1.2-1.4-1.2c-1.2,0-2,0.6-2.2,1.9
						l-0.6,3h-0.7l1.5-7.8h0.7l-0.6,3.1c0.5-0.6,1.3-0.9,2.1-0.9C33.1,303.5,33.8,304.2,33.8,305.3L33.8,305.3z"/>
					<path d="M35.9,306.5c0,0.1,0,0.1,0,0.2c0,1.1,0.6,1.7,1.9,1.7c0.7,0,1.4-0.3,1.8-0.7l0.3,0.5c-0.5,0.5-1.3,0.8-2.2,0.8
						c-1.6,0-2.6-0.9-2.6-2.3c0-1.9,1.3-3.3,3-3.3c1.5,0,2.4,0.9,2.4,2.3c0,0.2,0,0.5-0.1,0.7H35.9z M35.9,305.9h3.9
						c0-0.1,0-0.1,0-0.2c0-1-0.7-1.6-1.7-1.6C37,304.1,36.2,304.8,35.9,305.9z"/>
					<path d="M45.4,303.5l-0.1,0.7c-0.1,0-0.1,0-0.2,0c-1.2,0-2,0.7-2.2,2l-0.5,2.8h-0.7l1.1-5.5h0.7l-0.2,1
						C43.6,303.8,44.3,303.5,45.4,303.5L45.4,303.5z"/>
					<path d="M46.3,306.5c0,0.1,0,0.1,0,0.2c0,1.1,0.6,1.7,1.9,1.7c0.7,0,1.4-0.3,1.8-0.7l0.3,0.5c-0.5,0.5-1.3,0.8-2.2,0.8
						c-1.6,0-2.6-0.9-2.6-2.3c0-1.9,1.3-3.3,3-3.3c1.5,0,2.4,0.9,2.4,2.3c0,0.2,0,0.5-0.1,0.7H46.3z M46.3,305.9h3.9
						c0-0.1,0-0.1,0-0.2c0-1-0.7-1.6-1.7-1.6C47.4,304.1,46.6,304.8,46.3,305.9z"/>
				</g>
			</g>
		</g>
	</g>
</g>
</svg>
