<?xml version="1.0" encoding="UTF-8"?><svg id="Layer_2" xmlns="http://www.w3.org/2000/svg" xmlns:xlink="http://www.w3.org/1999/xlink" viewBox="0 0 375 812"><defs><style>.cls-1{fill:none;}.cls-2{clip-path:url(#clippath);}.cls-3{fill:#1e293b;}.cls-4{fill:#0f172a;}</style><clipPath id="clippath"><rect class="cls-1" width="375" height="812"/></clipPath></defs><g id="Layer_1-2"><g class="cls-2"><g><path class="cls-3" d="M197.65,816.27s50.07-33.41,57.36-43.74c7.28-10.33,28.83-14.88,36.11-18.22,7.28-3.34,31.26-36.15,50.38-42.53,19.12-6.38,74.96-43.74,80.72-60.75,5.77-17.01,4.55,204.12,4.55,204.12l-229.12-38.88Z"/><path class="cls-4" d="M254.25,810.11s35.32-40.25,54.17-43.62c18.82-3.37,25.95-31.83,51.07-38.12,25.13-6.29,32.38-18.13,32.38-18.13,0,0-16.54,28.58-34.51,32.08-17.96,3.49-14.63,24.51-30.89,27.52-16.27,3.01-8.65,51-8.65,51l-63.58-10.72Z"/><path class="cls-4" d="M352.39,769.83l29.16,6.71s-13.99,8.81-29.16-6.71Z"/></g></g></g></svg>