<?xml version="1.0" encoding="UTF-8"?><svg id="Layer_2" xmlns="http://www.w3.org/2000/svg" xmlns:xlink="http://www.w3.org/1999/xlink" viewBox="0 0 375 812"><defs><style>.cls-1{fill:none;}.cls-2{clip-path:url(#clippath);}.cls-3{fill:#eaf7ff;}.cls-4{fill:#fff;}.cls-5{fill:#b6e5ff;}.cls-6{fill:#d0eeff;}.cls-7{fill:#258ac2;}</style><clipPath id="clippath"><rect class="cls-1" width="375" height="812"/></clipPath></defs><g id="Layer_1-2"><g class="cls-2"><g><path class="cls-6" d="M339.2,811.8l-415.8,9.45,5.06-108.34s34.15-36.01,60.85-63.15c16.23-16.5,29.73-29.77,31.12-29.63,2.16,.17,23.12,15.83,40.74,28.92,11.88,8.84,22.24,16.5,24.3,17.48,5.06,2.43,4.76-.91,7.8-4.56,3.04-3.64,10.63-16.37,13.37-14.55,2.7,1.79,232.57,164.36,232.57,164.36h0Z"/><path class="cls-7" d="M63.6,669.55l-1.62,6.9h3.84l-2.22-6.9h0Z"/><path class="cls-7" d="M64.11,674.92h-.57v3.06h.57v-3.06Z"/><path class="cls-4" d="M106.8,710.73l-1.62,6.9h3.84l-2.22-6.9h0Z"/><path class="cls-4" d="M107.31,716.1h-.57v3.06h.57v-3.06Z"/><path class="cls-7" d="M57.01,664.9l-1.84,7.83h4.36l-2.52-7.83h0Z"/><path class="cls-7" d="M57.59,671h-.65v3.47h.65v-3.47Z"/><path class="cls-7" d="M25.14,673.08l-1.84,7.83h4.36l-2.52-7.83Z"/><path class="cls-7" d="M25.72,679.18h-.65v3.47h.65v-3.47Z"/><path class="cls-4" d="M52.48,661.61l-1.84,7.83h4.36l-2.52-7.83h0Z"/><path class="cls-4" d="M53.05,667.71h-.65v3.47h.65v-3.47Z"/><path class="cls-7" d="M100.21,706.08l-1.84,7.83h4.36l-2.52-7.83h0Z"/><path class="cls-7" d="M100.79,712.17h-.65v3.47h.65v-3.47h0Z"/><path class="cls-3" d="M117.8,693.5l-24.47-19.74,23.46,16.71,1.01-4.56,43.71,36.62h-6.75l-35.44-32.06-1.52,3.04Z"/><path class="cls-7" d="M58.74,706.16l.49-3.51,.81,3,.9-4.22,.62,4,.94-3.14,.52,3.86h-4.29v.02h0Z"/><path class="cls-4" d="M67.17,699.07l.43-3.27,.7,2.81,.79-3.93,.53,3.71,.82-2.92,.45,3.6h-3.71Z"/><path class="cls-4" d="M63.12,701.51l.47-3.52,.77,3.02,.86-4.23,.58,3.99,.89-3.14,.49,3.88h-4.05Z"/><path class="cls-5" d="M13.51,677.81c-4.05,1.89,2.36-38.08,6.41-58.22l-75.26,76.44-13.84,123.19c73.46,2.47,214.79,6.89,192.38,4.73-28.01-2.7-56.03-59.74-71.21-76.27-15.19-16.54-4.73-23.29-20.25-26.32-15.52-3.04-8.44-2.03-11.14-20.25-2.7-18.23-2.03-25.65-7.09-23.29Z"/><path class="cls-5" d="M67.04,653.41c-1.05,.03-2.29-.1-3.85-.44,0,0-11.81-6.28-13.2-2.46-1.38,3.81,3.98,11.07-8.2,7.26-12.18-3.81-6.99,1.15-8.91,4.39-1.89,3.24-14.04-16.91-22.14-16.17-8.1,.74-15.02,11.27-25.58,8.27,18.53-18.83,33.89-33.95,35.44-33.82,2.5,.2,26.36,18.06,46.44,32.97Z"/><path class="cls-3" d="M204.37,724.38c-1.49,.68-41.46-33.92-61.26-51.3l64.8,45.56c-.96,1.74-2.06,5.06-3.54,5.74Z"/></g></g></g></svg>