<?xml version="1.0" encoding="UTF-8"?><svg id="Layer_2" xmlns="http://www.w3.org/2000/svg" xmlns:xlink="http://www.w3.org/1999/xlink" viewBox="0 0 375 812"><defs><style>.cls-1{fill:none;}.cls-2{clip-path:url(#clippath);}.cls-3{fill:#b6e5ff;}</style><clipPath id="clippath"><rect class="cls-1" width="375" height="812"/></clipPath></defs><g id="Layer_1-2"><g class="cls-2"><path class="cls-3" d="M194.7,833.79s6.18,9.73,19.19,4.17c13.01-5.55,34.99-17.33,6.01-16.98s-46.34-20.73-22.44-26.18c23.89-5.45,9.05-15.46,0-27.06s-39.98-15.78-24.04-21.93c15.94-6.15-32.66-20.38-41.53-20.69-8.87-.32-23.08-12.74-32.13-14.04-9.3-1.34-17.04-14.86,0-21.01,6.65-2.4,8.2-7.14-20.64-13.05-33.69-6.9-34.39-31.91-34.39-31.91l-7.95,2.16s15.41,23.45,33.69,30.46c38.74,14.86-6.82,19.17-2.33,33.68,4.49,14.54,19.55-2.05,24.53,8.24,21.63,2.79,7.14,9.69,24.6,9.69,20.22-2.12,48.04,10.01,38.6,12.91-9.4,2.9-27.25,6.33-7.14,15.03,20.11,8.7,30.61,26.11,19.79,28.3-10.82,2.19-115.44,1.95-89.36,14.29,26.09,12.35,72.32,1.45,76.74,11.96,4.42,10.51-19.55,13.41-15.55,16.66,3.99,3.25,41.32,9.41,41.32,9.41l13.04-4.1h0Z"/></g></g></svg>