<?xml version="1.0" encoding="UTF-8"?><svg id="Layer_2" xmlns="http://www.w3.org/2000/svg" xmlns:xlink="http://www.w3.org/1999/xlink" viewBox="0 0 375 812"><defs><style>.cls-1{fill:none;}.cls-2{clip-path:url(#clippath);}.cls-3{fill:#b6e5ff;}</style><clipPath id="clippath"><rect class="cls-1" width="375" height="812"/></clipPath></defs><g id="Layer_1-2"><g class="cls-2"><path class="cls-3" d="M152.99,873.91s3.97-34.86,31.77-38.52c27.8-3.66,8.01-14.02-12.86-13.99-20.9,.04-7.93-15.69,40.87-15.3,48.8,.39-45.55-14.55-25.68-22.83,19.87-8.27,62.19-5.22,39.84-13.38-22.31-8.2-43.95-15.83-20.08-22.47,23.91-6.64,37.79,2.95,33.51-9.34-4.29-12.28,5.63-5.72,16.54-6.99,10.91-1.28,5.63-26.84,27.45-34.15,21.85-7.31,37.65-29.82,53.51-30.49,21.82,0,34.35-8.88,34.35-27.16,0-19.52,14.17-26.98,14.17-26.98l5.84,1.24s-13.86,3.55-14.88,22.36c-1.81,33.37-27.98,32.91-37.01,36.21-17.21,6.32-20.9,22.15-34.14,27.12s-35.42,14.95-19.87,30.57c15.55,15.62-25.75,7.24-22.31,13.56,3.43,6.35,25.61,14.66-2.83,16.65-28.47,1.99-19.87,12.6,1.66,17.61,21.5,4.97,37.51,9.62,33.15,16.61-4.36,6.96-54.79-11.96-51.57,0,3.22,11.96,58.79,9.3,57.8,17.93-.99,8.63-78.45,9.98-68.85,15.94,9.6,5.96,41.37,11.96,74.8,7.63,33.43-4.33-4,38.84,44.98,42.49l-200.18-4.33h0Z"/></g></g></svg>