<?xml version="1.0" encoding="UTF-8"?><svg id="Layer_2" xmlns="http://www.w3.org/2000/svg" xmlns:xlink="http://www.w3.org/1999/xlink" viewBox="0 0 1290 800"><defs><style>.cls-1{fill:none;}.cls-2{clip-path:url(#clippath);}.cls-3{fill:#eaf7ff;}.cls-4{fill:#fff;}.cls-5{fill:#b6e5ff;}.cls-6{fill:#d0eeff;}.cls-7{fill:#258ac2;}</style><clipPath id="clippath"><rect class="cls-1" width="1290" height="800"/></clipPath></defs><g id="Layer_2-2"><g id="Layer_2-2"><g class="cls-2"><g><path class="cls-6" d="M1041.89,1118.53l-1475.89,33.54,17.97-384.55s121.23-127.82,215.99-224.14c57.62-58.58,105.54-105.66,110.45-105.18,7.67,.6,82.06,56.18,144.59,102.67,42.17,31.39,78.95,58.58,86.25,62.05,17.97,8.62,16.89-3.23,27.67-16.17s37.74-58.1,47.44-51.63c9.58,6.35,825.52,583.41,825.52,583.41h.01Z"/><path class="cls-7" d="M63.66,613.63l-5.75,24.48h13.62l-7.88-24.48h.01Z"/><path class="cls-7" d="M65.47,632.68h-2.02v10.86h2.02v-10.86Z"/><path class="cls-4" d="M217,759.78l-5.75,24.48h13.62l-7.88-24.48h.01Z"/><path class="cls-4" d="M218.81,778.84h-2.02v10.86h2.02v-10.86Z"/><path class="cls-7" d="M40.26,597.14l-6.53,27.8h15.47s-8.94-27.8-8.94-27.8Z"/><path class="cls-7" d="M42.31,618.77h-2.3v12.33h2.3v-12.33Z"/><path class="cls-4" d="M24.16,585.44l-6.53,27.8h15.47l-8.94-27.8Z"/><path class="cls-4" d="M26.21,607.07h-2.3v12.33h2.3v-12.33Z"/><path class="cls-7" d="M193.59,743.29l-6.53,27.8h15.47l-8.94-27.8Z"/><path class="cls-7" d="M195.65,764.91h-2.3v12.33h2.3v-12.33Z"/><path class="cls-3" d="M256.03,698.65l-86.85-70.08,83.26,59.3,3.59-16.17,155.14,129.98h-23.96l-125.79-113.81-5.39,10.78h0Z"/><path class="cls-7" d="M46.38,743.58l1.73-12.45,2.87,10.67,3.19-15,2.22,14.18,3.36-11.15,1.84,13.7h-15.21v.06h0Z"/><path class="cls-4" d="M76.33,718.41l1.52-11.6,2.49,9.97,2.79-13.95,1.88,13.16,2.91-10.36,1.58,12.77h-13.17Z"/><path class="cls-4" d="M61.96,727.07l1.66-12.49,2.72,10.74,3.05-15.02,2.05,14.18,3.18-11.16,1.72,13.75h-14.38Z"/><path class="cls-5" d="M-114.14,642.94c-14.38,6.71,8.39-135.17,22.76-206.65l-267.15,271.34-49.12,437.26c260.76,8.79,762.38,24.44,682.84,16.77-99.43-9.58-198.86-212.04-252.77-270.74s-16.77-82.66-71.88-93.44c-55.11-10.78-29.95-7.19-39.53-71.88-9.58-64.69-7.19-91.04-25.16-82.66h0Z"/><path class="cls-5" d="M75.85,556.33c-3.71,.12-8.15-.36-13.66-1.56,0,0-41.93-22.28-46.84-8.74-4.91,13.54,14.14,39.29-29.11,25.76-43.25-13.54-24.8,4.07-31.63,15.57-6.71,11.5-49.83-60.02-78.59-57.38-28.75,2.63-53.31,40.01-90.81,29.35,65.79-66.85,120.29-120.52,125.8-120.04,8.86,.72,93.56,64.09,164.84,117.04h0Z"/><path class="cls-3" d="M563.3,808.26c-5.27,2.4-147.15-120.4-217.43-182.09l230.01,161.73c-3.39,6.19-7.31,17.97-12.58,20.37h0Z"/><path class="cls-6" d="M1767.91,1116.14H304s520.28-480.62,541.84-499.55c21.44-18.93,23.36-8.03,32.46,0,9.11,8.03,29.23,37.97,39.42,34.14,10.06-3.83,137.64-106.86,145.55-103.5,7.79,3.35,30.19,31.39,44.8,22.4,14.62-8.98,324.65-227.49,324.65-227.49l51.15,81.34,170.83,271.46,113.21,421.21h0Z"/><path class="cls-3" d="M704.12,747.16c34.94-27.95,110.09-89.49,131.18-112.01,18.61-19.89,35.17-20.38,43.33-17.47-9.42-17.33-21.63-12.74-26.56-8.29l-147.95,137.77h0Z"/><path class="cls-5" d="M1377.38,629.76c23,5.75,44.72-168.51,52.71-256.36l64.69,59.9v378.56h-445.65c23.96,0,92.25-123.39,113.81-89.85,21.56,33.54,109.01-44.32,149.75-92.24,40.73-47.92,35.93-7.19,64.69,0h0Z"/><path class="cls-7" d="M1245.35,529.14l-5.74,24.44h13.6l-7.86-24.44Z"/><path class="cls-7" d="M1247.16,548.16h-2.02v10.84h2.02v-10.84Z"/><path class="cls-7" d="M1202.54,676.97l-7.25,30.9h17.19l-9.94-30.9Z"/><path class="cls-7" d="M1204.82,701.03h-2.55v13.7h2.55v-13.7Z"/><path class="cls-7" d="M1211.08,563.88l-6.21,26.48h14.73l-8.52-26.48Z"/><path class="cls-7" d="M1213.04,584.47h-2.19v11.74h2.19v-11.74Z"/><path class="cls-7" d="M1222.69,663.31l-8.24,35.08h19.53l-11.29-35.08Z"/><path class="cls-7" d="M1225.28,690.6h-2.9v15.56h2.9v-15.56Z"/><path class="cls-7" d="M1045.07,618.97l-6.72,28.63h15.93l-9.21-28.63h0Z"/><path class="cls-7" d="M1047.19,641.26h-2.37v12.7h2.37v-12.7Z"/><path class="cls-4" d="M861.72,700.06l-6.72,28.63h15.93l-9.21-28.63Z"/><path class="cls-4" d="M863.84,722.33h-2.37v12.7h2.37v-12.7Z"/><path class="cls-4" d="M1229.6,542.31l-5.56,23.68h13.17l-7.61-23.68Z"/><path class="cls-4" d="M1231.6,565.99h-1.95v10.5h1.95v-10.5Z"/><path class="cls-4" d="M1240.98,644.14l-5.56,23.68h13.17l-7.61-23.68Z"/><path class="cls-4" d="M1242.98,667.82h-1.95v10.5h1.95v-10.5Z"/><path class="cls-5" d="M1433.08,341.06l-183.89,129.38c27.56,11.98,53.91-29.95,72.48-21.56,10.92,4.93,0,40.43,14.38,49.12,23.96,14.48,33.13-17.69,64.69-10.18,25.15,5.99,10.18,35.94,43.12,29.35,26.36-5.27,76.87,2.2,98.83,6.59l-109.61-182.69h0Z"/><path class="cls-4" d="M1053.93,646.54l2.07-13.38,3.39,11.5,3.81-16.09,2.57,15.19,3.97-11.96,2.15,14.74h-17.96Z"/><path class="cls-7" d="M845,751.02l2.07-13.38,3.4,11.5,3.8-16.09,2.57,15.19,3.98-11.95,2.15,14.74h-17.97Z"/><path class="cls-4" d="M1029.97,664.51l2.07-13.38,3.39,11.5,3.81-16.09,2.57,15.19,3.97-11.95,2.16,14.74h-17.97Z"/><path class="cls-4" d="M821,743.58l2.07-13.38,3.4,11.5,3.81-16.09,2.57,15.19,3.97-11.95,2.15,14.74h-17.97Z"/></g></g></g></g></svg>