<svg width="1290" height="171" viewBox="0 0 1290 171" fill="none" xmlns="http://www.w3.org/2000/svg">
<g clip-path="url(#clip0_529_281)">
<path d="M473 288.829L15 299.244L20.5763 179.846C20.5763 179.846 58.1977 140.158 87.6034 110.253C105.485 92.0642 120.355 77.4463 121.879 77.5951C124.258 77.7811 147.344 95.0399 166.75 109.472C179.835 119.217 191.248 127.66 193.516 128.739C199.092 131.417 198.758 127.735 202.103 123.718C205.449 119.701 213.814 105.678 216.825 107.686C219.799 109.658 473 288.829 473 288.829V288.829Z" fill="#FDBA74"/>
<path d="M169.434 132.061L167.649 139.663H171.876L169.43 132.061H169.434Z" fill="#FDBA74"/>
<path d="M169.995 137.978H169.367V141.348H169.995V137.978Z" fill="#FDBA74"/>
<path d="M162.17 126.939L160.144 135.568H164.943L162.166 126.939H162.17Z" fill="#FDBA74"/>
<path d="M162.809 133.656H162.095V137.484H162.809V133.656Z" fill="#FDBA74"/>
<path d="M127.065 135.955L125.039 144.584H129.838L127.065 135.955Z" fill="#FDBA74"/>
<path d="M127.701 142.673H126.987V146.5H127.701V142.673Z" fill="#FDBA74"/>
<path d="M157.177 123.308L155.151 131.938H159.95L157.177 123.308V123.308Z" fill="white"/>
<path d="M157.813 130.026H157.099V133.853H157.813V130.026Z" fill="white"/>
<path d="M229.13 158.458L202.178 136.699L228.015 155.111L229.13 150.089L277.272 190.446H269.837L230.803 155.111L229.13 158.458Z" fill="#FED7AA"/>
<path d="M164.073 172.41L164.612 168.542L165.501 171.852L166.493 167.196L167.181 171.6L168.222 168.137L168.794 172.388H164.073V172.407V172.41Z" fill="#FDBA74"/>
<path d="M173.367 164.596L173.839 160.995L174.612 164.09L175.478 159.76L176.062 163.848L176.965 160.631L177.456 164.596H173.367V164.596Z" fill="white"/>
<path d="M168.906 167.281L169.419 163.402L170.263 166.734L171.207 162.07L171.843 166.47L172.828 163.007L173.363 167.277H168.902L168.906 167.281Z" fill="white"/>
<path d="M95.1128 173.292L88.3432 165.31H92.8154L87.2539 158.778H90.3953L86.4658 154.181L82.5364 158.778H85.6777L80.1163 165.31H84.5885L77.8188 173.292H85.4361V179.942H86.8859V173.292H95.1054H95.1128Z" fill="#FB923C"/>
<path d="M114.258 141.162C109.797 143.245 116.86 99.1946 121.321 77L38.4204 161.248L23.1785 297.012C104.098 299.738 259.762 304.6 235.078 302.219C204.222 299.244 173.367 236.383 156.638 218.157C139.909 199.931 151.433 192.492 134.333 189.145C117.232 185.797 125.039 186.913 122.065 166.827C119.091 146.742 119.834 138.559 114.258 141.162Z" fill="#FB923C"/>
<path d="M173.218 114.27C172.066 114.307 170.69 114.158 168.98 113.786C168.98 113.786 155.969 106.868 154.445 111.071C152.92 115.274 158.831 123.271 145.411 119.068C131.991 114.865 137.716 120.333 135.597 123.904C133.515 127.474 120.132 105.269 111.21 106.087C102.288 106.905 94.6668 118.51 83.0309 115.2C103.44 94.4448 120.355 77.7812 122.065 77.9299C124.816 78.1531 151.099 97.8296 173.218 114.27Z" fill="#FB923C"/>
<path d="M324.485 192.492C322.849 193.236 278.822 155.111 257.011 135.955L328.388 186.169C327.336 188.092 326.12 191.748 324.485 192.492Z" fill="#FED7AA"/>
<path d="M1385.26 311.549H871C871 311.549 1053.77 142.543 1061.34 135.888C1068.88 129.232 1069.55 133.065 1072.75 135.888C1075.95 138.71 1083.02 149.241 1086.59 147.893C1090.13 146.545 1134.95 110.318 1137.72 111.497C1140.46 112.677 1148.33 122.534 1153.46 119.375C1158.6 116.215 1267.51 39.3792 1267.51 39.3792L1285.48 67.982L1345.49 163.437L1385.26 311.549Z" fill="#FDBA74"/>
<path d="M1011.56 181.804C1023.83 171.976 1050.23 150.336 1057.64 142.417C1064.18 135.424 1070 135.251 1072.86 136.275C1069.55 130.18 1065.26 131.793 1063.53 133.36L1011.56 181.804Z" fill="#FED7AA"/>
<path d="M1248.07 140.521C1256.15 142.543 1263.78 81.264 1266.58 50.3738L1289.31 71.4363V204.551H1132.76C1141.17 204.551 1165.16 161.163 1172.74 172.958C1180.31 184.753 1211.03 157.371 1225.34 140.521C1239.65 123.671 1237.97 137.994 1248.07 140.521Z" fill="#FB923C"/>
<path d="M1201.69 105.136L1199.67 113.73H1204.45L1201.69 105.136Z" fill="#FB7200"/>
<path d="M1202.32 111.826H1201.61V115.638H1202.32V111.826Z" fill="#FB7200"/>
<path d="M1186.65 157.123L1184.1 167.991H1190.14L1186.65 157.123Z" fill="#FB7200"/>
<path d="M1187.45 165.581H1186.55V170.401H1187.45V165.581Z" fill="#FB7200"/>
<path d="M1189.65 117.353L1187.47 126.662H1192.64L1189.65 117.353Z" fill="#FB7200"/>
<path d="M1190.34 124.598H1189.57V128.726H1190.34V124.598Z" fill="#FB7200"/>
<path d="M1193.73 152.316L1190.83 164.655H1197.69L1193.73 152.316V152.316Z" fill="#FB7200"/>
<path d="M1194.64 161.917H1193.62V167.389H1194.64V161.917Z" fill="#FB7200"/>
<path d="M1131.33 136.73L1128.97 146.798H1134.57L1131.33 136.73Z" fill="#FB7200"/>
<path d="M1132.08 144.565H1131.25V149.031H1132.08V144.565Z" fill="#FB7200"/>
<path d="M1058.95 168.324L1056.59 178.392H1062.18L1058.95 168.324V168.324Z" fill="#FB7200"/>
<path d="M1196.54 109.77L1194.2 119.745H1199.75L1196.54 109.77V109.77Z" fill="white"/>
<path d="M1197.39 119.745H1196.56V124.168H1197.39V119.745Z" fill="white"/>
<path d="M1200.08 145.576L1197.74 155.551H1203.29L1200.08 145.576V145.576Z" fill="white"/>
<path d="M1200.92 155.551H1200.1V159.975H1200.92V155.551Z" fill="white"/>
<path d="M1267.64 39L1203.04 84.495C1212.72 88.7075 1221.98 73.9637 1228.5 76.9125C1232.33 78.648 1228.5 91.1297 1233.55 94.1837C1241.96 99.2724 1245.19 87.9619 1256.27 90.6031C1265.11 92.7094 1259.85 103.241 1271.42 100.924C1280.68 99.0702 1298.43 101.695 1306.14 103.241L1267.64 39Z" fill="#FB923C"/>
<path d="M1134.44 146.419L1135.17 141.713L1136.36 145.757L1137.7 140.1L1138.6 145.441L1140 141.237L1140.75 146.419H1134.44Z" fill="white"/>
<path d="M1126.02 152.737L1126.75 148.032L1127.94 152.076L1129.28 146.419L1130.18 151.76L1131.58 147.556L1132.34 152.737H1126.02Z" fill="white"/>
</g>
<rect x="0.5" y="0.5" width="1289" height="170" rx="1.5" stroke="black" stroke-opacity="0.1"/>
<defs>
<clipPath id="clip0_529_281">
<rect width="1290" height="171" rx="2" fill="white"/>
</clipPath>
</defs>
</svg>
