<svg width="359" height="171" viewBox="0 0 359 171" fill="none" xmlns="http://www.w3.org/2000/svg">
<g clip-path="url(#clip0_572_438)">
<path d="M473 284.829L15 295.244L20.5763 175.846C20.5763 175.846 58.1977 136.158 87.6034 106.253C105.485 88.0642 120.355 73.4463 121.879 73.5951C124.258 73.7811 147.344 91.0399 166.75 105.472C179.835 115.217 191.248 123.66 193.516 124.739C199.092 127.417 198.758 123.735 202.103 119.718C205.449 115.701 213.814 101.678 216.825 103.686C219.799 105.658 473 284.829 473 284.829V284.829Z" fill="#FB923C"/>
<path d="M169.434 128.061L167.649 135.663H171.876L169.43 128.061H169.434Z" fill="#FB923C"/>
<path d="M169.995 133.978H169.367V137.348H169.995V133.978Z" fill="#FB923C"/>
<path d="M162.17 122.939L160.144 131.568H164.943L162.166 122.939H162.17Z" fill="#FB923C"/>
<path d="M162.809 129.656H162.095V133.484H162.809V129.656Z" fill="#FB923C"/>
<path d="M127.065 131.955L125.039 140.584H129.838L127.065 131.955Z" fill="#FB923C"/>
<path d="M127.701 138.673H126.987V142.5H127.701V138.673Z" fill="#FB923C"/>
<path d="M155.177 118.309L153.151 126.938H157.95L155.177 118.309V118.309Z" fill="white"/>
<path d="M155.813 125.026H155.099V128.853H155.813V125.026Z" fill="white"/>
<path d="M166.177 118.309L164.151 126.938H168.95L166.177 118.309V118.309Z" fill="white"/>
<path d="M166.813 125.026H166.099V128.853H166.813V125.026Z" fill="white"/>
<path d="M229.13 154.458L202.178 132.699L228.015 151.111L229.13 146.089L277.272 186.446H269.837L230.803 151.111L229.13 154.458Z" fill="#FED7AA"/>
<path d="M164.073 168.41L164.612 164.542L165.501 167.852L166.493 163.196L167.181 167.6L168.222 164.137L168.794 168.388H164.073V168.407V168.41Z" fill="#FB923C"/>
<path d="M173.367 160.596L173.839 156.995L174.612 160.09L175.478 155.76L176.062 159.848L176.965 156.631L177.456 160.596H173.367V160.596Z" fill="white"/>
<path d="M168.906 163.281L169.419 159.402L170.263 162.734L171.207 158.07L171.843 162.47L172.828 159.007L173.363 163.277H168.902L168.906 163.281Z" fill="white"/>
<path d="M95.1128 169.292L88.3432 161.31H92.8154L87.2539 154.778H90.3953L86.4658 150.181L82.5364 154.778H85.6777L80.1163 161.31H84.5885L77.8188 169.292H85.4361V175.942H86.8859V169.292H95.1054H95.1128Z" fill="#FB7200"/>
<path d="M114.258 137.162C109.797 139.245 116.86 95.1946 121.321 73L38.4204 157.248L23.1785 293.012C104.098 295.738 259.762 300.6 235.078 298.219C204.222 295.244 173.367 232.383 156.638 214.157C139.909 195.931 151.433 188.492 134.333 185.145C117.232 181.797 125.039 182.913 122.065 162.827C119.091 142.742 119.834 134.559 114.258 137.162Z" fill="#FB7200"/>
<path d="M173.218 110.27C172.066 110.307 170.69 110.158 168.98 109.786C168.98 109.786 155.969 102.868 154.445 107.071C152.92 111.274 158.831 119.271 145.411 115.068C131.991 110.865 137.716 116.333 135.597 119.904C133.515 123.474 120.132 101.269 111.21 102.087C102.288 102.905 94.6668 114.51 83.0309 111.2C103.44 90.4448 120.355 73.7812 122.065 73.9299C124.816 74.1531 151.099 93.8296 173.218 110.27Z" fill="#FB7200"/>
<path d="M324.485 188.492C322.849 189.236 278.822 151.111 257.011 131.955L328.388 182.169C327.336 184.092 326.12 187.748 324.485 188.492Z" fill="#FED7AA"/>
<path d="M167.332 145.73L164.971 155.798H170.568L167.332 145.73Z" fill="#1E293B"/>
<path d="M168.077 153.565H167.248V158.03H168.077V153.565Z" fill="#1E293B"/>
<path d="M163.332 121.73L160.971 131.798H166.568L163.332 121.73Z" fill="#1E293B"/>
<path d="M164.077 129.565H163.248V134.03H164.077V129.565Z" fill="#1E293B"/>
<path d="M218.332 140.73L215.971 150.798H221.568L218.332 140.73Z" fill="#1E293B"/>
<path d="M219.077 148.565H218.248V153.03H219.077V148.565Z" fill="#1E293B"/>
</g>
<defs>
<clipPath id="clip0_572_438">
<rect width="359" height="171" rx="2" fill="white"/>
</clipPath>
</defs>
</svg>
