<svg width="359" height="171" viewBox="0 0 359 171" fill="none" xmlns="http://www.w3.org/2000/svg">
<g clip-path="url(#clip0_572_347)">
<path d="M454.258 307.549H-60C-60 307.549 122.768 138.543 130.343 131.888C137.876 125.232 138.549 129.065 141.748 131.888C144.946 134.71 152.016 145.241 155.593 143.893C159.128 142.545 203.947 106.318 206.724 107.497C209.46 108.677 217.329 118.534 222.463 115.375C227.597 112.215 336.509 35.3792 336.509 35.3792L354.479 63.982L414.49 159.437L454.258 307.549Z" fill="#FB923C"/>
<path d="M80.5583 177.804C92.8341 167.976 119.233 146.336 126.64 138.417C133.179 131.424 138.995 131.251 141.861 132.275C138.553 126.18 134.261 127.793 132.531 129.36L80.5583 177.804Z" fill="#FED7AA"/>
<path d="M317.067 136.521C325.147 138.543 332.776 77.264 335.583 46.3738L358.308 67.4363V200.551H201.758C210.175 200.551 234.162 157.163 241.737 168.958C249.312 180.753 280.033 153.371 294.342 136.521C308.65 119.671 306.967 133.994 317.067 136.521Z" fill="#FB7200"/>
<path d="M270.687 101.136L268.671 109.73H273.452L270.687 101.136Z" fill="#1E293B"/>
<path d="M271.322 107.826H270.611V111.638H271.322V107.826Z" fill="#1E293B"/>
<path d="M255.65 153.123L253.1 163.991H259.143L255.65 153.123Z" fill="#1E293B"/>
<path d="M256.45 161.581H255.553V166.401H256.45V161.581Z" fill="#1E293B"/>
<path d="M258.651 113.353L256.467 122.662H261.643L258.651 113.353Z" fill="#1E293B"/>
<path d="M259.337 120.598H258.567V124.726H259.337V120.598Z" fill="#1E293B"/>
<path d="M262.729 148.316L259.833 160.655H266.693L262.729 148.316V148.316Z" fill="#1E293B"/>
<path d="M263.638 157.917H262.619V163.389H263.638V157.917Z" fill="#1E293B"/>
<path d="M200.332 132.73L197.971 142.798H203.568L200.332 132.73Z" fill="#1E293B"/>
<path d="M201.077 140.565H200.248V145.031H201.077V140.565Z" fill="#1E293B"/>
<path d="M127.948 164.324L125.588 174.392H131.185L127.948 164.324V164.324Z" fill="#FB7200"/>
<path d="M265.54 105.77L263.2 115.745H268.747L265.54 105.77V105.77Z" fill="white"/>
<path d="M266.386 115.745H265.561V120.168H266.386V115.745Z" fill="white"/>
<path d="M269.079 141.576L266.739 151.551H272.286L269.079 141.576V141.576Z" fill="white"/>
<path d="M269.925 151.551H269.1V155.975H269.925V151.551Z" fill="white"/>
<path d="M336.636 35L272.038 80.495C281.717 84.7075 290.975 69.9637 297.498 72.9125C301.332 74.648 297.498 87.1297 302.548 90.1837C310.965 95.2724 314.188 83.9619 325.273 86.6031C334.111 88.7094 328.85 99.2406 340.423 96.9237C349.681 95.0702 367.428 97.6946 375.142 99.2406L336.636 35Z" fill="#FB7200"/>
<path d="M203.442 142.419L204.17 137.713L205.361 141.757L206.699 136.1L207.599 141.441L208.997 137.237L209.754 142.419H203.442Z" fill="white"/>
<path d="M131.058 174.012L131.786 169.307L132.977 173.351L134.316 167.694L135.216 173.035L136.613 168.831L137.371 174.012H131.058Z" fill="white"/>
<path d="M195.025 148.737L195.753 144.032L196.944 148.076L198.282 142.419L199.183 147.76L200.58 143.556L201.337 148.737H195.025Z" fill="white"/>
</g>
<defs>
<clipPath id="clip0_572_347">
<rect width="359" height="171" rx="2" fill="white"/>
</clipPath>
</defs>
</svg>
